<?xml version="1.0" encoding="utf-8" standalone="no"?>
<!DOCTYPE svg PUBLIC "-//W3C//DTD SVG 1.1//EN"
  "http://www.w3.org/Graphics/SVG/1.1/DTD/svg11.dtd">
<svg xmlns:xlink="http://www.w3.org/1999/xlink" width="856.047187pt" height="315.119063pt" viewBox="0 0 856.047187 315.119063" xmlns="http://www.w3.org/2000/svg" version="1.1">
 <metadata>
  <rdf:RDF xmlns:dc="http://purl.org/dc/elements/1.1/" xmlns:cc="http://creativecommons.org/ns#" xmlns:rdf="http://www.w3.org/1999/02/22-rdf-syntax-ns#">
   <cc:Work>
    <dc:type rdf:resource="http://purl.org/dc/dcmitype/StillImage"/>
    <dc:date>2026-05-26T16:50:40.922337</dc:date>
    <dc:format>image/svg+xml</dc:format>
    <dc:creator>
     <cc:Agent>
      <dc:title>Matplotlib v3.10.1, https://matplotlib.org/</dc:title>
     </cc:Agent>
    </dc:creator>
   </cc:Work>
  </rdf:RDF>
 </metadata>
 <defs>
  <style type="text/css">*{stroke-linejoin: round; stroke-linecap: butt}</style>
 </defs>
 <g id="figure_1">
  <g id="patch_1">
   <path d="M 0 315.119063 
L 856.047187 315.119063 
L 856.047187 0 
L 0 0 
z
" style="fill: #ffffff"/>
  </g>
  <g id="axes_1">
   <g id="patch_2">
    <path d="M 44.267188 278.389375 
L 434.117188 278.389375 
L 434.117188 21.789375 
L 44.267188 21.789375 
z
" style="fill: #ffffff"/>
   </g>
   <g id="matplotlib.axis_1">
    <g id="xtick_1">
     <g id="line2d_1">
      <path d="M 44.267188 278.389375 
L 44.267188 21.789375 
" clip-path="url(#padaa72e302)" style="fill: none; stroke: #cccccc; stroke-opacity: 0.2; stroke-width: 0.8; stroke-linecap: round"/>
     </g>
     <g id="text_1">
      <!-- 0 -->
      <g style="fill: #262626" transform="translate(41.486719 292.547188) scale(0.1 -0.1)">
       <defs>
        <path id="ArialMT-30" d="M 266 2259 
Q 266 3072 433 3567 
Q 600 4063 929 4331 
Q 1259 4600 1759 4600 
Q 2128 4600 2406 4451 
Q 2684 4303 2865 4023 
Q 3047 3744 3150 3342 
Q 3253 2941 3253 2259 
Q 3253 1453 3087 958 
Q 2922 463 2592 192 
Q 2263 -78 1759 -78 
Q 1097 -78 719 397 
Q 266 969 266 2259 
z
M 844 2259 
Q 844 1131 1108 757 
Q 1372 384 1759 384 
Q 2147 384 2411 759 
Q 2675 1134 2675 2259 
Q 2675 3391 2411 3762 
Q 2147 4134 1753 4134 
Q 1366 4134 1134 3806 
Q 844 3388 844 2259 
z
" transform="scale(0.015625)"/>
       </defs>
       <use xlink:href="#ArialMT-30"/>
      </g>
     </g>
    </g>
    <g id="xtick_2">
     <g id="line2d_2">
      <path d="M 95.56324 278.389375 
L 95.56324 21.789375 
" clip-path="url(#padaa72e302)" style="fill: none; stroke: #cccccc; stroke-opacity: 0.2; stroke-width: 0.8; stroke-linecap: round"/>
     </g>
     <g id="text_2">
      <!-- 5 -->
      <g style="fill: #262626" transform="translate(92.782771 292.547188) scale(0.1 -0.1)">
       <defs>
        <path id="ArialMT-35" d="M 266 1200 
L 856 1250 
Q 922 819 1161 601 
Q 1400 384 1738 384 
Q 2144 384 2425 690 
Q 2706 997 2706 1503 
Q 2706 1984 2436 2262 
Q 2166 2541 1728 2541 
Q 1456 2541 1237 2417 
Q 1019 2294 894 2097 
L 366 2166 
L 809 4519 
L 3088 4519 
L 3088 3981 
L 1259 3981 
L 1013 2750 
Q 1425 3038 1878 3038 
Q 2478 3038 2890 2622 
Q 3303 2206 3303 1553 
Q 3303 931 2941 478 
Q 2500 -78 1738 -78 
Q 1113 -78 717 272 
Q 322 622 266 1200 
z
" transform="scale(0.015625)"/>
       </defs>
       <use xlink:href="#ArialMT-35"/>
      </g>
     </g>
    </g>
    <g id="xtick_3">
     <g id="line2d_3">
      <path d="M 146.859293 278.389375 
L 146.859293 21.789375 
" clip-path="url(#padaa72e302)" style="fill: none; stroke: #cccccc; stroke-opacity: 0.2; stroke-width: 0.8; stroke-linecap: round"/>
     </g>
     <g id="text_3">
      <!-- 10 -->
      <g style="fill: #262626" transform="translate(141.298355 292.547188) scale(0.1 -0.1)">
       <defs>
        <path id="ArialMT-31" d="M 2384 0 
L 1822 0 
L 1822 3584 
Q 1619 3391 1289 3197 
Q 959 3003 697 2906 
L 697 3450 
Q 1169 3672 1522 3987 
Q 1875 4303 2022 4600 
L 2384 4600 
L 2384 0 
z
" transform="scale(0.015625)"/>
       </defs>
       <use xlink:href="#ArialMT-31"/>
       <use xlink:href="#ArialMT-30" transform="translate(55.615234 0)"/>
      </g>
     </g>
    </g>
    <g id="xtick_4">
     <g id="line2d_4">
      <path d="M 198.155345 278.389375 
L 198.155345 21.789375 
" clip-path="url(#padaa72e302)" style="fill: none; stroke: #cccccc; stroke-opacity: 0.2; stroke-width: 0.8; stroke-linecap: round"/>
     </g>
     <g id="text_4">
      <!-- 15 -->
      <g style="fill: #262626" transform="translate(192.594408 292.547188) scale(0.1 -0.1)">
       <use xlink:href="#ArialMT-31"/>
       <use xlink:href="#ArialMT-35" transform="translate(55.615234 0)"/>
      </g>
     </g>
    </g>
    <g id="xtick_5">
     <g id="line2d_5">
      <path d="M 249.451398 278.389375 
L 249.451398 21.789375 
" clip-path="url(#padaa72e302)" style="fill: none; stroke: #cccccc; stroke-opacity: 0.2; stroke-width: 0.8; stroke-linecap: round"/>
     </g>
     <g id="text_5">
      <!-- 20 -->
      <g style="fill: #262626" transform="translate(243.890461 292.547188) scale(0.1 -0.1)">
       <defs>
        <path id="ArialMT-32" d="M 3222 541 
L 3222 0 
L 194 0 
Q 188 203 259 391 
Q 375 700 629 1000 
Q 884 1300 1366 1694 
Q 2113 2306 2375 2664 
Q 2638 3022 2638 3341 
Q 2638 3675 2398 3904 
Q 2159 4134 1775 4134 
Q 1369 4134 1125 3890 
Q 881 3647 878 3216 
L 300 3275 
Q 359 3922 746 4261 
Q 1134 4600 1788 4600 
Q 2447 4600 2831 4234 
Q 3216 3869 3216 3328 
Q 3216 3053 3103 2787 
Q 2991 2522 2730 2228 
Q 2469 1934 1863 1422 
Q 1356 997 1212 845 
Q 1069 694 975 541 
L 3222 541 
z
" transform="scale(0.015625)"/>
       </defs>
       <use xlink:href="#ArialMT-32"/>
       <use xlink:href="#ArialMT-30" transform="translate(55.615234 0)"/>
      </g>
     </g>
    </g>
    <g id="xtick_6">
     <g id="line2d_6">
      <path d="M 300.747451 278.389375 
L 300.747451 21.789375 
" clip-path="url(#padaa72e302)" style="fill: none; stroke: #cccccc; stroke-opacity: 0.2; stroke-width: 0.8; stroke-linecap: round"/>
     </g>
     <g id="text_6">
      <!-- 25 -->
      <g style="fill: #262626" transform="translate(295.186513 292.547188) scale(0.1 -0.1)">
       <use xlink:href="#ArialMT-32"/>
       <use xlink:href="#ArialMT-35" transform="translate(55.615234 0)"/>
      </g>
     </g>
    </g>
    <g id="xtick_7">
     <g id="line2d_7">
      <path d="M 352.043503 278.389375 
L 352.043503 21.789375 
" clip-path="url(#padaa72e302)" style="fill: none; stroke: #cccccc; stroke-opacity: 0.2; stroke-width: 0.8; stroke-linecap: round"/>
     </g>
     <g id="text_7">
      <!-- 30 -->
      <g style="fill: #262626" transform="translate(346.482566 292.547188) scale(0.1 -0.1)">
       <defs>
        <path id="ArialMT-33" d="M 269 1209 
L 831 1284 
Q 928 806 1161 595 
Q 1394 384 1728 384 
Q 2125 384 2398 659 
Q 2672 934 2672 1341 
Q 2672 1728 2419 1979 
Q 2166 2231 1775 2231 
Q 1616 2231 1378 2169 
L 1441 2663 
Q 1497 2656 1531 2656 
Q 1891 2656 2178 2843 
Q 2466 3031 2466 3422 
Q 2466 3731 2256 3934 
Q 2047 4138 1716 4138 
Q 1388 4138 1169 3931 
Q 950 3725 888 3313 
L 325 3413 
Q 428 3978 793 4289 
Q 1159 4600 1703 4600 
Q 2078 4600 2393 4439 
Q 2709 4278 2876 4000 
Q 3044 3722 3044 3409 
Q 3044 3113 2884 2869 
Q 2725 2625 2413 2481 
Q 2819 2388 3044 2092 
Q 3269 1797 3269 1353 
Q 3269 753 2831 336 
Q 2394 -81 1725 -81 
Q 1122 -81 723 278 
Q 325 638 269 1209 
z
" transform="scale(0.015625)"/>
       </defs>
       <use xlink:href="#ArialMT-33"/>
       <use xlink:href="#ArialMT-30" transform="translate(55.615234 0)"/>
      </g>
     </g>
    </g>
    <g id="xtick_8">
     <g id="line2d_8">
      <path d="M 403.339556 278.389375 
L 403.339556 21.789375 
" clip-path="url(#padaa72e302)" style="fill: none; stroke: #cccccc; stroke-opacity: 0.2; stroke-width: 0.8; stroke-linecap: round"/>
     </g>
     <g id="text_8">
      <!-- 35 -->
      <g style="fill: #262626" transform="translate(397.778618 292.547188) scale(0.1 -0.1)">
       <use xlink:href="#ArialMT-33"/>
       <use xlink:href="#ArialMT-35" transform="translate(55.615234 0)"/>
      </g>
     </g>
    </g>
    <g id="text_9">
     <!-- Elapsed Time (sec) -->
     <g style="fill: #262626" transform="translate(196.400781 305.814375) scale(0.1 -0.1)">
      <defs>
       <path id="ArialMT-45" d="M 506 0 
L 506 4581 
L 3819 4581 
L 3819 4041 
L 1113 4041 
L 1113 2638 
L 3647 2638 
L 3647 2100 
L 1113 2100 
L 1113 541 
L 3925 541 
L 3925 0 
L 506 0 
z
" transform="scale(0.015625)"/>
       <path id="ArialMT-6c" d="M 409 0 
L 409 4581 
L 972 4581 
L 972 0 
L 409 0 
z
" transform="scale(0.015625)"/>
       <path id="ArialMT-61" d="M 2588 409 
Q 2275 144 1986 34 
Q 1697 -75 1366 -75 
Q 819 -75 525 192 
Q 231 459 231 875 
Q 231 1119 342 1320 
Q 453 1522 633 1644 
Q 813 1766 1038 1828 
Q 1203 1872 1538 1913 
Q 2219 1994 2541 2106 
Q 2544 2222 2544 2253 
Q 2544 2597 2384 2738 
Q 2169 2928 1744 2928 
Q 1347 2928 1158 2789 
Q 969 2650 878 2297 
L 328 2372 
Q 403 2725 575 2942 
Q 747 3159 1072 3276 
Q 1397 3394 1825 3394 
Q 2250 3394 2515 3294 
Q 2781 3194 2906 3042 
Q 3031 2891 3081 2659 
Q 3109 2516 3109 2141 
L 3109 1391 
Q 3109 606 3145 398 
Q 3181 191 3288 0 
L 2700 0 
Q 2613 175 2588 409 
z
M 2541 1666 
Q 2234 1541 1622 1453 
Q 1275 1403 1131 1340 
Q 988 1278 909 1158 
Q 831 1038 831 891 
Q 831 666 1001 516 
Q 1172 366 1500 366 
Q 1825 366 2078 508 
Q 2331 650 2450 897 
Q 2541 1088 2541 1459 
L 2541 1666 
z
" transform="scale(0.015625)"/>
       <path id="ArialMT-70" d="M 422 -1272 
L 422 3319 
L 934 3319 
L 934 2888 
Q 1116 3141 1344 3267 
Q 1572 3394 1897 3394 
Q 2322 3394 2647 3175 
Q 2972 2956 3137 2557 
Q 3303 2159 3303 1684 
Q 3303 1175 3120 767 
Q 2938 359 2589 142 
Q 2241 -75 1856 -75 
Q 1575 -75 1351 44 
Q 1128 163 984 344 
L 984 -1272 
L 422 -1272 
z
M 931 1641 
Q 931 1000 1190 694 
Q 1450 388 1819 388 
Q 2194 388 2461 705 
Q 2728 1022 2728 1688 
Q 2728 2322 2467 2637 
Q 2206 2953 1844 2953 
Q 1484 2953 1207 2617 
Q 931 2281 931 1641 
z
" transform="scale(0.015625)"/>
       <path id="ArialMT-73" d="M 197 991 
L 753 1078 
Q 800 744 1014 566 
Q 1228 388 1613 388 
Q 2000 388 2187 545 
Q 2375 703 2375 916 
Q 2375 1106 2209 1216 
Q 2094 1291 1634 1406 
Q 1016 1563 777 1677 
Q 538 1791 414 1992 
Q 291 2194 291 2438 
Q 291 2659 392 2848 
Q 494 3038 669 3163 
Q 800 3259 1026 3326 
Q 1253 3394 1513 3394 
Q 1903 3394 2198 3281 
Q 2494 3169 2634 2976 
Q 2775 2784 2828 2463 
L 2278 2388 
Q 2241 2644 2061 2787 
Q 1881 2931 1553 2931 
Q 1166 2931 1000 2803 
Q 834 2675 834 2503 
Q 834 2394 903 2306 
Q 972 2216 1119 2156 
Q 1203 2125 1616 2013 
Q 2213 1853 2448 1751 
Q 2684 1650 2818 1456 
Q 2953 1263 2953 975 
Q 2953 694 2789 445 
Q 2625 197 2315 61 
Q 2006 -75 1616 -75 
Q 969 -75 630 194 
Q 291 463 197 991 
z
" transform="scale(0.015625)"/>
       <path id="ArialMT-65" d="M 2694 1069 
L 3275 997 
Q 3138 488 2766 206 
Q 2394 -75 1816 -75 
Q 1088 -75 661 373 
Q 234 822 234 1631 
Q 234 2469 665 2931 
Q 1097 3394 1784 3394 
Q 2450 3394 2872 2941 
Q 3294 2488 3294 1666 
Q 3294 1616 3291 1516 
L 816 1516 
Q 847 969 1125 678 
Q 1403 388 1819 388 
Q 2128 388 2347 550 
Q 2566 713 2694 1069 
z
M 847 1978 
L 2700 1978 
Q 2663 2397 2488 2606 
Q 2219 2931 1791 2931 
Q 1403 2931 1139 2672 
Q 875 2413 847 1978 
z
" transform="scale(0.015625)"/>
       <path id="ArialMT-64" d="M 2575 0 
L 2575 419 
Q 2259 -75 1647 -75 
Q 1250 -75 917 144 
Q 584 363 401 755 
Q 219 1147 219 1656 
Q 219 2153 384 2558 
Q 550 2963 881 3178 
Q 1213 3394 1622 3394 
Q 1922 3394 2156 3267 
Q 2391 3141 2538 2938 
L 2538 4581 
L 3097 4581 
L 3097 0 
L 2575 0 
z
M 797 1656 
Q 797 1019 1065 703 
Q 1334 388 1700 388 
Q 2069 388 2326 689 
Q 2584 991 2584 1609 
Q 2584 2291 2321 2609 
Q 2059 2928 1675 2928 
Q 1300 2928 1048 2622 
Q 797 2316 797 1656 
z
" transform="scale(0.015625)"/>
       <path id="ArialMT-20" transform="scale(0.015625)"/>
       <path id="ArialMT-54" d="M 1659 0 
L 1659 4041 
L 150 4041 
L 150 4581 
L 3781 4581 
L 3781 4041 
L 2266 4041 
L 2266 0 
L 1659 0 
z
" transform="scale(0.015625)"/>
       <path id="ArialMT-69" d="M 425 3934 
L 425 4581 
L 988 4581 
L 988 3934 
L 425 3934 
z
M 425 0 
L 425 3319 
L 988 3319 
L 988 0 
L 425 0 
z
" transform="scale(0.015625)"/>
       <path id="ArialMT-6d" d="M 422 0 
L 422 3319 
L 925 3319 
L 925 2853 
Q 1081 3097 1340 3245 
Q 1600 3394 1931 3394 
Q 2300 3394 2536 3241 
Q 2772 3088 2869 2813 
Q 3263 3394 3894 3394 
Q 4388 3394 4653 3120 
Q 4919 2847 4919 2278 
L 4919 0 
L 4359 0 
L 4359 2091 
Q 4359 2428 4304 2576 
Q 4250 2725 4106 2815 
Q 3963 2906 3769 2906 
Q 3419 2906 3187 2673 
Q 2956 2441 2956 1928 
L 2956 0 
L 2394 0 
L 2394 2156 
Q 2394 2531 2256 2718 
Q 2119 2906 1806 2906 
Q 1569 2906 1367 2781 
Q 1166 2656 1075 2415 
Q 984 2175 984 1722 
L 984 0 
L 422 0 
z
" transform="scale(0.015625)"/>
       <path id="ArialMT-28" d="M 1497 -1347 
Q 1031 -759 709 28 
Q 388 816 388 1659 
Q 388 2403 628 3084 
Q 909 3875 1497 4659 
L 1900 4659 
Q 1522 4009 1400 3731 
Q 1209 3300 1100 2831 
Q 966 2247 966 1656 
Q 966 153 1900 -1347 
L 1497 -1347 
z
" transform="scale(0.015625)"/>
       <path id="ArialMT-63" d="M 2588 1216 
L 3141 1144 
Q 3050 572 2676 248 
Q 2303 -75 1759 -75 
Q 1078 -75 664 370 
Q 250 816 250 1647 
Q 250 2184 428 2587 
Q 606 2991 970 3192 
Q 1334 3394 1763 3394 
Q 2303 3394 2647 3120 
Q 2991 2847 3088 2344 
L 2541 2259 
Q 2463 2594 2264 2762 
Q 2066 2931 1784 2931 
Q 1359 2931 1093 2626 
Q 828 2322 828 1663 
Q 828 994 1084 691 
Q 1341 388 1753 388 
Q 2084 388 2306 591 
Q 2528 794 2588 1216 
z
" transform="scale(0.015625)"/>
       <path id="ArialMT-29" d="M 791 -1347 
L 388 -1347 
Q 1322 153 1322 1656 
Q 1322 2244 1188 2822 
Q 1081 3291 891 3722 
Q 769 4003 388 4659 
L 791 4659 
Q 1378 3875 1659 3084 
Q 1900 2403 1900 1659 
Q 1900 816 1576 28 
Q 1253 -759 791 -1347 
z
" transform="scale(0.015625)"/>
      </defs>
      <use xlink:href="#ArialMT-45"/>
      <use xlink:href="#ArialMT-6c" transform="translate(66.699219 0)"/>
      <use xlink:href="#ArialMT-61" transform="translate(88.916016 0)"/>
      <use xlink:href="#ArialMT-70" transform="translate(144.53125 0)"/>
      <use xlink:href="#ArialMT-73" transform="translate(200.146484 0)"/>
      <use xlink:href="#ArialMT-65" transform="translate(250.146484 0)"/>
      <use xlink:href="#ArialMT-64" transform="translate(305.761719 0)"/>
      <use xlink:href="#ArialMT-20" transform="translate(361.376953 0)"/>
      <use xlink:href="#ArialMT-54" transform="translate(387.410156 0)"/>
      <use xlink:href="#ArialMT-69" transform="translate(444.744141 0)"/>
      <use xlink:href="#ArialMT-6d" transform="translate(466.960938 0)"/>
      <use xlink:href="#ArialMT-65" transform="translate(550.261719 0)"/>
      <use xlink:href="#ArialMT-20" transform="translate(605.876953 0)"/>
      <use xlink:href="#ArialMT-28" transform="translate(633.660156 0)"/>
      <use xlink:href="#ArialMT-73" transform="translate(666.960938 0)"/>
      <use xlink:href="#ArialMT-65" transform="translate(716.960938 0)"/>
      <use xlink:href="#ArialMT-63" transform="translate(772.576172 0)"/>
      <use xlink:href="#ArialMT-29" transform="translate(822.576172 0)"/>
     </g>
    </g>
   </g>
   <g id="matplotlib.axis_2">
    <g id="ytick_1">
     <g id="line2d_9">
      <path d="M 44.267188 269.661774 
L 434.117188 269.661774 
" clip-path="url(#padaa72e302)" style="fill: none; stroke: #cccccc; stroke-opacity: 0.2; stroke-width: 0.8; stroke-linecap: round"/>
     </g>
     <g id="text_10">
      <!-- 0 -->
      <g style="fill: #262626" transform="translate(31.70625 273.24068) scale(0.1 -0.1)">
       <use xlink:href="#ArialMT-30"/>
      </g>
     </g>
    </g>
    <g id="ytick_2">
     <g id="line2d_10">
      <path d="M 44.267188 222.306368 
L 434.117188 222.306368 
" clip-path="url(#padaa72e302)" style="fill: none; stroke: #cccccc; stroke-opacity: 0.2; stroke-width: 0.8; stroke-linecap: round"/>
     </g>
     <g id="text_11">
      <!-- 20 -->
      <g style="fill: #262626" transform="translate(26.145313 225.885275) scale(0.1 -0.1)">
       <use xlink:href="#ArialMT-32"/>
       <use xlink:href="#ArialMT-30" transform="translate(55.615234 0)"/>
      </g>
     </g>
    </g>
    <g id="ytick_3">
     <g id="line2d_11">
      <path d="M 44.267188 174.950963 
L 434.117188 174.950963 
" clip-path="url(#padaa72e302)" style="fill: none; stroke: #cccccc; stroke-opacity: 0.2; stroke-width: 0.8; stroke-linecap: round"/>
     </g>
     <g id="text_12">
      <!-- 40 -->
      <g style="fill: #262626" transform="translate(26.145313 178.529869) scale(0.1 -0.1)">
       <defs>
        <path id="ArialMT-34" d="M 2069 0 
L 2069 1097 
L 81 1097 
L 81 1613 
L 2172 4581 
L 2631 4581 
L 2631 1613 
L 3250 1613 
L 3250 1097 
L 2631 1097 
L 2631 0 
L 2069 0 
z
M 2069 1613 
L 2069 3678 
L 634 1613 
L 2069 1613 
z
" transform="scale(0.015625)"/>
       </defs>
       <use xlink:href="#ArialMT-34"/>
       <use xlink:href="#ArialMT-30" transform="translate(55.615234 0)"/>
      </g>
     </g>
    </g>
    <g id="ytick_4">
     <g id="line2d_12">
      <path d="M 44.267188 127.595557 
L 434.117188 127.595557 
" clip-path="url(#padaa72e302)" style="fill: none; stroke: #cccccc; stroke-opacity: 0.2; stroke-width: 0.8; stroke-linecap: round"/>
     </g>
     <g id="text_13">
      <!-- 60 -->
      <g style="fill: #262626" transform="translate(26.145313 131.174464) scale(0.1 -0.1)">
       <defs>
        <path id="ArialMT-36" d="M 3184 3459 
L 2625 3416 
Q 2550 3747 2413 3897 
Q 2184 4138 1850 4138 
Q 1581 4138 1378 3988 
Q 1113 3794 959 3422 
Q 806 3050 800 2363 
Q 1003 2672 1297 2822 
Q 1591 2972 1913 2972 
Q 2475 2972 2870 2558 
Q 3266 2144 3266 1488 
Q 3266 1056 3080 686 
Q 2894 316 2569 119 
Q 2244 -78 1831 -78 
Q 1128 -78 684 439 
Q 241 956 241 2144 
Q 241 3472 731 4075 
Q 1159 4600 1884 4600 
Q 2425 4600 2770 4297 
Q 3116 3994 3184 3459 
z
M 888 1484 
Q 888 1194 1011 928 
Q 1134 663 1356 523 
Q 1578 384 1822 384 
Q 2178 384 2434 671 
Q 2691 959 2691 1453 
Q 2691 1928 2437 2201 
Q 2184 2475 1800 2475 
Q 1419 2475 1153 2201 
Q 888 1928 888 1484 
z
" transform="scale(0.015625)"/>
       </defs>
       <use xlink:href="#ArialMT-36"/>
       <use xlink:href="#ArialMT-30" transform="translate(55.615234 0)"/>
      </g>
     </g>
    </g>
    <g id="ytick_5">
     <g id="line2d_13">
      <path d="M 44.267188 80.240152 
L 434.117188 80.240152 
" clip-path="url(#padaa72e302)" style="fill: none; stroke: #cccccc; stroke-opacity: 0.2; stroke-width: 0.8; stroke-linecap: round"/>
     </g>
     <g id="text_14">
      <!-- 80 -->
      <g style="fill: #262626" transform="translate(26.145313 83.819058) scale(0.1 -0.1)">
       <defs>
        <path id="ArialMT-38" d="M 1131 2484 
Q 781 2613 612 2850 
Q 444 3088 444 3419 
Q 444 3919 803 4259 
Q 1163 4600 1759 4600 
Q 2359 4600 2725 4251 
Q 3091 3903 3091 3403 
Q 3091 3084 2923 2848 
Q 2756 2613 2416 2484 
Q 2838 2347 3058 2040 
Q 3278 1734 3278 1309 
Q 3278 722 2862 322 
Q 2447 -78 1769 -78 
Q 1091 -78 675 323 
Q 259 725 259 1325 
Q 259 1772 486 2073 
Q 713 2375 1131 2484 
z
M 1019 3438 
Q 1019 3113 1228 2906 
Q 1438 2700 1772 2700 
Q 2097 2700 2305 2904 
Q 2513 3109 2513 3406 
Q 2513 3716 2298 3927 
Q 2084 4138 1766 4138 
Q 1444 4138 1231 3931 
Q 1019 3725 1019 3438 
z
M 838 1322 
Q 838 1081 952 856 
Q 1066 631 1291 507 
Q 1516 384 1775 384 
Q 2178 384 2440 643 
Q 2703 903 2703 1303 
Q 2703 1709 2433 1975 
Q 2163 2241 1756 2241 
Q 1359 2241 1098 1978 
Q 838 1716 838 1322 
z
" transform="scale(0.015625)"/>
       </defs>
       <use xlink:href="#ArialMT-38"/>
       <use xlink:href="#ArialMT-30" transform="translate(55.615234 0)"/>
      </g>
     </g>
    </g>
    <g id="ytick_6">
     <g id="line2d_14">
      <path d="M 44.267188 32.884746 
L 434.117188 32.884746 
" clip-path="url(#padaa72e302)" style="fill: none; stroke: #cccccc; stroke-opacity: 0.2; stroke-width: 0.8; stroke-linecap: round"/>
     </g>
     <g id="text_15">
      <!-- 100 -->
      <g style="fill: #262626" transform="translate(20.584375 36.463653) scale(0.1 -0.1)">
       <use xlink:href="#ArialMT-31"/>
       <use xlink:href="#ArialMT-30" transform="translate(55.615234 0)"/>
       <use xlink:href="#ArialMT-30" transform="translate(111.230469 0)"/>
      </g>
     </g>
    </g>
    <g id="text_16">
     <!-- Busy% -->
     <g style="fill: #262626" transform="translate(14.479688 165.651094) rotate(-90) scale(0.1 -0.1)">
      <defs>
       <path id="ArialMT-42" d="M 469 0 
L 469 4581 
L 2188 4581 
Q 2713 4581 3030 4442 
Q 3347 4303 3526 4014 
Q 3706 3725 3706 3409 
Q 3706 3116 3547 2856 
Q 3388 2597 3066 2438 
Q 3481 2316 3704 2022 
Q 3928 1728 3928 1328 
Q 3928 1006 3792 729 
Q 3656 453 3456 303 
Q 3256 153 2954 76 
Q 2653 0 2216 0 
L 469 0 
z
M 1075 2656 
L 2066 2656 
Q 2469 2656 2644 2709 
Q 2875 2778 2992 2937 
Q 3109 3097 3109 3338 
Q 3109 3566 3000 3739 
Q 2891 3913 2687 3977 
Q 2484 4041 1991 4041 
L 1075 4041 
L 1075 2656 
z
M 1075 541 
L 2216 541 
Q 2509 541 2628 563 
Q 2838 600 2978 687 
Q 3119 775 3209 942 
Q 3300 1109 3300 1328 
Q 3300 1584 3169 1773 
Q 3038 1963 2805 2039 
Q 2572 2116 2134 2116 
L 1075 2116 
L 1075 541 
z
" transform="scale(0.015625)"/>
       <path id="ArialMT-75" d="M 2597 0 
L 2597 488 
Q 2209 -75 1544 -75 
Q 1250 -75 995 37 
Q 741 150 617 320 
Q 494 491 444 738 
Q 409 903 409 1263 
L 409 3319 
L 972 3319 
L 972 1478 
Q 972 1038 1006 884 
Q 1059 663 1231 536 
Q 1403 409 1656 409 
Q 1909 409 2131 539 
Q 2353 669 2445 892 
Q 2538 1116 2538 1541 
L 2538 3319 
L 3100 3319 
L 3100 0 
L 2597 0 
z
" transform="scale(0.015625)"/>
       <path id="ArialMT-79" d="M 397 -1278 
L 334 -750 
Q 519 -800 656 -800 
Q 844 -800 956 -737 
Q 1069 -675 1141 -563 
Q 1194 -478 1313 -144 
Q 1328 -97 1363 -6 
L 103 3319 
L 709 3319 
L 1400 1397 
Q 1534 1031 1641 628 
Q 1738 1016 1872 1384 
L 2581 3319 
L 3144 3319 
L 1881 -56 
Q 1678 -603 1566 -809 
Q 1416 -1088 1222 -1217 
Q 1028 -1347 759 -1347 
Q 597 -1347 397 -1278 
z
" transform="scale(0.015625)"/>
       <path id="ArialMT-25" d="M 372 3481 
Q 372 3972 619 4315 
Q 866 4659 1334 4659 
Q 1766 4659 2048 4351 
Q 2331 4044 2331 3447 
Q 2331 2866 2045 2552 
Q 1759 2238 1341 2238 
Q 925 2238 648 2547 
Q 372 2856 372 3481 
z
M 1350 4272 
Q 1141 4272 1002 4090 
Q 863 3909 863 3425 
Q 863 2984 1003 2804 
Q 1144 2625 1350 2625 
Q 1563 2625 1702 2806 
Q 1841 2988 1841 3469 
Q 1841 3913 1700 4092 
Q 1559 4272 1350 4272 
z
M 1353 -169 
L 3859 4659 
L 4316 4659 
L 1819 -169 
L 1353 -169 
z
M 3334 1075 
Q 3334 1569 3581 1911 
Q 3828 2253 4300 2253 
Q 4731 2253 5014 1945 
Q 5297 1638 5297 1041 
Q 5297 459 5011 145 
Q 4725 -169 4303 -169 
Q 3888 -169 3611 142 
Q 3334 453 3334 1075 
z
M 4316 1866 
Q 4103 1866 3964 1684 
Q 3825 1503 3825 1019 
Q 3825 581 3965 400 
Q 4106 219 4313 219 
Q 4528 219 4667 400 
Q 4806 581 4806 1063 
Q 4806 1506 4665 1686 
Q 4525 1866 4316 1866 
z
" transform="scale(0.015625)"/>
      </defs>
      <use xlink:href="#ArialMT-42"/>
      <use xlink:href="#ArialMT-75" transform="translate(66.699219 0)"/>
      <use xlink:href="#ArialMT-73" transform="translate(122.314453 0)"/>
      <use xlink:href="#ArialMT-79" transform="translate(172.314453 0)"/>
      <use xlink:href="#ArialMT-25" transform="translate(222.314453 0)"/>
     </g>
    </g>
   </g>
   <g id="line2d_15">
    <path d="M 44.267188 251.311554 
L 54.526398 262.582141 
L 64.785609 258.036022 
L 75.044819 265.328754 
L 85.30403 258.604287 
L 95.56324 264.050158 
L 105.822451 264.357968 
L 116.081661 264.121191 
L 126.340872 263.10305 
L 136.600082 264.144869 
L 146.859293 264.594745 
L 157.118503 264.571068 
L 167.377714 263.93177 
L 177.636924 265.044622 
L 187.896135 262.226975 
L 198.155345 265.494498 
L 208.414556 263.221439 
L 218.673766 233.62431 
L 228.932977 202.724908 
L 239.192187 260.569536 
L 249.451398 265.16301 
L 259.710609 257.373046 
L 269.969819 244.089855 
L 280.22903 173.009391 
L 290.48824 257.467757 
L 300.747451 244.208243 
L 311.006661 258.012344 
L 321.265872 264.902556 
L 331.525082 254.626433 
L 341.784293 253.821391 
L 352.043503 253.442547 
L 362.302714 250.909033 
L 372.561924 258.012344 
L 382.821135 258.178088 
L 393.080345 255.999739 
L 403.339556 251.335232 
L 413.598766 256.449616 
L 423.857977 265.091977 
" clip-path="url(#padaa72e302)" style="fill: none; stroke: #1f77b4; stroke-opacity: 0.9; stroke-width: 1.2; stroke-linecap: round"/>
   </g>
   <g id="line2d_16">
    <path d="M 44.267188 186.079483 
L 54.526398 264.002803 
L 64.785609 262.250653 
L 75.044819 260.593214 
L 85.30403 261.777099 
L 95.56324 265.210366 
L 105.822451 246.741758 
L 116.081661 176.253237 
L 126.340872 265.873341 
L 136.600082 163.798765 
L 146.859293 182.220018 
L 157.118503 256.591682 
L 167.377714 251.477298 
L 177.636924 258.083377 
L 187.896135 258.225443 
L 198.155345 264.878878 
L 208.414556 264.831522 
L 218.673766 264.736812 
L 228.932977 264.642101 
L 239.192187 264.689456 
L 249.451398 264.831522 
L 259.710609 264.286935 
L 269.969819 264.215902 
L 280.22903 262.889951 
L 290.48824 264.334291 
L 300.747451 264.23958 
L 311.006661 264.23958 
L 321.265872 264.23958 
L 331.525082 264.713134 
L 341.784293 265.044622 
L 352.043503 264.831522 
L 362.302714 264.831522 
L 372.561924 265.020944 
L 382.821135 264.760489 
L 393.080345 264.286935 
L 403.339556 265.091977 
L 413.598766 265.020944 
L 423.857977 262.629496 
" clip-path="url(#padaa72e302)" style="fill: none; stroke: #ff7f0e; stroke-opacity: 0.9; stroke-width: 1.2; stroke-linecap: round"/>
   </g>
   <g id="line2d_17">
    <path d="M 44.267188 265.754953 
L 54.526398 265.897019 
L 64.785609 266.062763 
L 75.044819 220.790995 
L 85.30403 231.540672 
L 95.56324 166.024469 
L 105.822451 265.849664 
L 116.081661 254.3423 
L 126.340872 250.672256 
L 136.600082 244.44502 
L 146.859293 200.309782 
L 157.118503 174.87993 
L 167.377714 179.710181 
L 177.636924 108.29823 
L 187.896135 263.789703 
L 198.155345 265.565531 
L 208.414556 186.055805 
L 218.673766 258.651642 
L 228.932977 258.083377 
L 239.192187 245.155351 
L 249.451398 262.440074 
L 259.710609 262.558463 
L 269.969819 265.707597 
L 280.22903 264.215902 
L 290.48824 262.866273 
L 300.747451 264.050158 
L 311.006661 248.77804 
L 321.265872 265.944374 
L 331.525082 152.528178 
L 341.784293 49.459138 
L 352.043503 181.533364 
L 362.302714 197.96569 
L 372.561924 65.986175 
L 382.821135 150.96545 
L 393.080345 57.675301 
L 403.339556 261.137801 
L 413.598766 262.629496 
L 423.857977 261.800776 
" clip-path="url(#padaa72e302)" style="fill: none; stroke: #2ca02c; stroke-opacity: 0.9; stroke-width: 1.2; stroke-linecap: round"/>
   </g>
   <g id="line2d_18">
    <path d="M 44.267188 265.920697 
L 54.526398 239.804191 
L 64.785609 204.287637 
L 75.044819 262.298008 
L 85.30403 242.645515 
L 95.56324 257.017881 
L 105.822451 254.697466 
L 116.081661 261.445611 
L 126.340872 264.192224 
L 136.600082 265.778631 
L 146.859293 265.731275 
L 157.118503 258.651642 
L 167.377714 262.79524 
L 177.636924 200.380816 
L 187.896135 171.16253 
L 198.155345 120.539602 
L 208.414556 265.636564 
L 218.673766 265.802308 
L 228.932977 266.512639 
L 239.192187 218.352192 
L 249.451398 57.770012 
L 259.710609 129.181963 
L 269.969819 137.161349 
L 280.22903 137.824325 
L 290.48824 136.806184 
L 300.747451 137.398126 
L 311.006661 117.556211 
L 321.265872 262.700529 
L 331.525082 265.257721 
L 341.784293 265.281399 
L 352.043503 265.186688 
L 362.302714 258.107055 
L 372.561924 258.15441 
L 382.821135 250.980066 
L 393.080345 258.130733 
L 403.339556 125.440886 
L 413.598766 113.933523 
L 423.857977 132.496842 
" clip-path="url(#padaa72e302)" style="fill: none; stroke: #d62728; stroke-opacity: 0.9; stroke-width: 1.2; stroke-linecap: round"/>
   </g>
   <g id="line2d_19">
    <path d="M 44.267188 263.789703 
L 54.526398 264.784167 
L 64.785609 265.234043 
L 75.044819 251.122133 
L 85.30403 185.274441 
L 95.56324 263.908092 
L 105.822451 264.926233 
L 116.081661 265.044622 
L 126.340872 265.16301 
L 136.600082 265.234043 
L 146.859293 265.16301 
L 157.118503 265.020944 
L 167.377714 265.020944 
L 177.636924 262.866273 
L 187.896135 265.210366 
L 198.155345 186.718781 
L 208.414556 255.644574 
L 218.673766 265.186688 
L 228.932977 258.651642 
L 239.192187 264.642101 
L 249.451398 249.535726 
L 259.710609 259.622428 
L 269.969819 265.47082 
L 280.22903 258.888419 
L 290.48824 259.243585 
L 300.747451 265.399787 
L 311.006661 264.215902 
L 321.265872 261.114123 
L 331.525082 260.451147 
L 341.784293 263.079372 
L 352.043503 261.777099 
L 362.302714 264.168547 
L 372.561924 264.310613 
L 382.821135 262.274331 
L 393.080345 259.172551 
L 403.339556 265.68392 
L 413.598766 252.353373 
L 423.857977 176.513691 
" clip-path="url(#padaa72e302)" style="fill: none; stroke: #9467bd; stroke-opacity: 0.9; stroke-width: 1.2; stroke-linecap: round"/>
   </g>
   <g id="line2d_20">
    <path d="M 44.267188 216.457976 
L 54.526398 155.582602 
L 64.785609 265.778631 
L 75.044819 264.973589 
L 85.30403 264.8552 
L 95.56324 203.411562 
L 105.822451 77.185728 
L 116.081661 143.933172 
L 126.340872 131.810188 
L 136.600082 171.896539 
L 146.859293 264.713134 
L 157.118503 258.391187 
L 167.377714 185.676962 
L 177.636924 264.949911 
L 187.896135 258.225443 
L 198.155345 265.399787 
L 208.414556 265.044622 
L 218.673766 264.831522 
L 228.932977 265.37611 
L 239.192187 264.926233 
L 249.451398 265.068299 
L 259.710609 265.399787 
L 269.969819 265.068299 
L 280.22903 265.091977 
L 290.48824 265.305076 
L 300.747451 265.115655 
L 311.006661 265.399787 
L 321.265872 265.115655 
L 331.525082 264.902556 
L 341.784293 265.352432 
L 352.043503 265.091977 
L 362.302714 265.068299 
L 372.561924 265.423465 
L 382.821135 265.044622 
L 393.080345 265.115655 
L 403.339556 265.234043 
L 413.598766 265.068299 
L 423.857977 265.186688 
" clip-path="url(#padaa72e302)" style="fill: none; stroke: #8c564b; stroke-opacity: 0.9; stroke-width: 1.2; stroke-linecap: round"/>
   </g>
   <g id="line2d_21">
    <path d="M 44.267188 255.620896 
L 54.526398 176.892534 
L 64.785609 186.742459 
L 75.044819 179.30766 
L 85.30403 257.373046 
L 95.56324 208.076069 
L 105.822451 255.999739 
L 116.081661 264.168547 
L 126.340872 186.600393 
L 136.600082 265.423465 
L 146.859293 185.156053 
L 157.118503 149.331689 
L 167.377714 217.097274 
L 177.636924 265.37611 
L 187.896135 186.647748 
L 198.155345 257.254658 
L 208.414556 138.866144 
L 218.673766 75.765066 
L 228.932977 264.523712 
L 239.192187 265.210366 
L 249.451398 259.101518 
L 259.710609 265.802308 
L 269.969819 261.540322 
L 280.22903 263.008339 
L 290.48824 265.873341 
L 300.747451 263.055695 
L 311.006661 206.679085 
L 321.265872 57.864723 
L 331.525082 171.636084 
L 341.784293 266.370573 
L 352.043503 142.394122 
L 362.302714 125.843407 
L 372.561924 250.032958 
L 382.821135 184.303655 
L 393.080345 266.086441 
L 403.339556 265.802308 
L 413.598766 264.286935 
L 423.857977 265.920697 
" clip-path="url(#padaa72e302)" style="fill: none; stroke: #e377c2; stroke-opacity: 0.9; stroke-width: 1.2; stroke-linecap: round"/>
   </g>
   <g id="line2d_22">
    <path d="M 44.267188 186.150516 
L 54.526398 258.201766 
L 64.785609 183.735391 
L 75.044819 186.150516 
L 85.30403 195.526887 
L 95.56324 265.541853 
L 105.822451 260.829991 
L 116.081661 258.793708 
L 126.340872 264.476357 
L 136.600082 261.256189 
L 146.859293 262.842595 
L 157.118503 262.700529 
L 167.377714 264.263258 
L 177.636924 266.110118 
L 187.896135 235.731626 
L 198.155345 265.234043 
L 208.414556 250.22238 
L 218.673766 261.137801 
L 228.932977 111.021165 
L 239.192187 116.987947 
L 249.451398 266.110118 
L 259.710609 186.979236 
L 269.969819 186.813492 
L 280.22903 264.097514 
L 290.48824 190.459858 
L 300.747451 186.860847 
L 311.006661 266.252185 
L 321.265872 247.665188 
L 331.525082 255.502508 
L 341.784293 262.842595 
L 352.043503 255.644574 
L 362.302714 262.653174 
L 372.561924 264.23958 
L 382.821135 264.121191 
L 393.080345 262.132264 
L 403.339556 190.270437 
L 413.598766 209.733508 
L 423.857977 257.988666 
" clip-path="url(#padaa72e302)" style="fill: none; stroke: #7f7f7f; stroke-opacity: 0.9; stroke-width: 1.2; stroke-linecap: round"/>
   </g>
   <g id="line2d_23">
    <path d="M 44.267188 264.381646 
L 54.526398 264.713134 
L 64.785609 264.949911 
L 75.044819 264.689456 
L 85.30403 264.689456 
L 95.56324 257.988666 
L 105.822451 264.618423 
L 116.081661 264.594745 
L 126.340872 264.973589 
L 136.600082 264.642101 
L 146.859293 264.618423 
L 157.118503 264.878878 
L 167.377714 257.562468 
L 177.636924 264.665778 
L 187.896135 264.878878 
L 198.155345 264.642101 
L 208.414556 264.949911 
L 218.673766 264.689456 
L 228.932977 264.665778 
L 239.192187 264.902556 
L 249.451398 264.642101 
L 259.710609 265.257721 
L 269.969819 170.594266 
L 280.22903 232.203648 
L 290.48824 216.481653 
L 300.747451 264.689456 
L 311.006661 264.54739 
L 321.265872 264.713134 
L 331.525082 264.902556 
L 341.784293 264.357968 
L 352.043503 264.902556 
L 362.302714 263.387183 
L 372.561924 264.760489 
L 382.821135 263.860737 
L 393.080345 264.807845 
L 403.339556 265.37611 
L 413.598766 265.139333 
L 423.857977 216.552687 
" clip-path="url(#padaa72e302)" style="fill: none; stroke-dasharray: 4.44,1.92; stroke-dashoffset: 0; stroke: #1f77b4; stroke-opacity: 0.9; stroke-width: 1.2"/>
   </g>
   <g id="line2d_24">
    <path d="M 44.267188 257.373046 
L 54.526398 250.909033 
L 64.785609 257.751889 
L 75.044819 250.743289 
L 85.30403 250.672256 
L 95.56324 258.178088 
L 105.822451 184.161589 
L 116.081661 265.399787 
L 126.340872 117.177368 
L 136.600082 68.851177 
L 146.859293 74.817958 
L 157.118503 256.496971 
L 167.377714 264.997266 
L 177.636924 251.477298 
L 187.896135 255.384119 
L 198.155345 264.476357 
L 208.414556 258.15441 
L 218.673766 150.515574 
L 228.932977 230.901374 
L 239.192187 200.144039 
L 249.451398 216.079133 
L 259.710609 262.960984 
L 269.969819 264.807845 
L 280.22903 260.21437 
L 290.48824 261.587677 
L 300.747451 264.594745 
L 311.006661 264.760489 
L 321.265872 264.8552 
L 331.525082 257.751889 
L 341.784293 264.523712 
L 352.043503 264.760489 
L 362.302714 234.381997 
L 372.561924 265.494498 
L 382.821135 192.117297 
L 393.080345 260.451147 
L 403.339556 260.806313 
L 413.598766 261.895487 
L 423.857977 262.866273 
" clip-path="url(#padaa72e302)" style="fill: none; stroke-dasharray: 4.44,1.92; stroke-dashoffset: 0; stroke: #ff7f0e; stroke-opacity: 0.9; stroke-width: 1.2"/>
   </g>
   <g id="line2d_25">
    <path d="M 44.267188 217.570828 
L 54.526398 124.919977 
L 64.785609 113.696746 
L 75.044819 57.130714 
L 85.30403 111.991951 
L 95.56324 197.539491 
L 105.822451 265.636564 
L 116.081661 258.651642 
L 126.340872 263.93177 
L 136.600082 265.210366 
L 146.859293 249.796181 
L 157.118503 256.970525 
L 167.377714 186.339938 
L 177.636924 262.416397 
L 187.896135 263.742348 
L 198.155345 265.589209 
L 208.414556 263.884414 
L 218.673766 249.890892 
L 228.932977 249.677793 
L 239.192187 262.416397 
L 249.451398 263.766026 
L 259.710609 258.698997 
L 269.969819 262.937306 
L 280.22903 265.636564 
L 290.48824 265.37611 
L 300.747451 244.587087 
L 311.006661 249.843537 
L 321.265872 255.218375 
L 331.525082 257.017881 
L 341.784293 244.397665 
L 352.043503 256.852137 
L 362.302714 260.73528 
L 372.561924 258.391187 
L 382.821135 179.757537 
L 393.080345 258.178088 
L 403.339556 206.465985 
L 413.598766 186.292582 
L 423.857977 257.325691 
" clip-path="url(#padaa72e302)" style="fill: none; stroke-dasharray: 4.44,1.92; stroke-dashoffset: 0; stroke: #2ca02c; stroke-opacity: 0.9; stroke-width: 1.2"/>
   </g>
   <g id="line2d_26">
    <path d="M 44.267188 265.565531 
L 54.526398 265.494498 
L 64.785609 258.722675 
L 75.044819 258.414865 
L 85.30403 258.509576 
L 95.56324 265.612887 
L 105.822451 255.691929 
L 116.081661 157.547851 
L 126.340872 189.133907 
L 136.600082 261.185156 
L 146.859293 262.226975 
L 157.118503 107.800998 
L 167.377714 182.148984 
L 177.636924 160.270787 
L 187.896135 107.540543 
L 198.155345 153.356898 
L 208.414556 192.046264 
L 218.673766 249.369983 
L 228.932977 255.194697 
L 239.192187 190.43618 
L 249.451398 255.242053 
L 259.710609 263.908092 
L 269.969819 264.807845 
L 280.22903 251.14581 
L 290.48824 258.059699 
L 300.747451 264.168547 
L 311.006661 57.770012 
L 321.265872 50.051081 
L 331.525082 220.862028 
L 341.784293 145.874744 
L 352.043503 48.843518 
L 362.302714 252.377051 
L 372.561924 262.416397 
L 382.821135 264.807845 
L 393.080345 252.329695 
L 403.339556 216.292232 
L 413.598766 265.68392 
L 423.857977 263.742348 
" clip-path="url(#padaa72e302)" style="fill: none; stroke-dasharray: 4.44,1.92; stroke-dashoffset: 0; stroke: #d62728; stroke-opacity: 0.9; stroke-width: 1.2"/>
   </g>
   <g id="line2d_27">
    <path d="M 44.267188 265.447143 
L 54.526398 265.020944 
L 64.785609 265.636564 
L 75.044819 265.518176 
L 85.30403 265.37611 
L 95.56324 265.423465 
L 105.822451 265.281399 
L 116.081661 264.760489 
L 126.340872 265.091977 
L 136.600082 264.878878 
L 146.859293 264.973589 
L 157.118503 265.541853 
L 167.377714 265.37611 
L 177.636924 265.423465 
L 187.896135 264.8552 
L 198.155345 265.257721 
L 208.414556 265.518176 
L 218.673766 265.352432 
L 228.932977 265.328754 
L 239.192187 265.447143 
L 249.451398 258.580609 
L 259.710609 106.782857 
L 269.969819 216.505331 
L 280.22903 168.913149 
L 290.48824 258.888419 
L 300.747451 265.328754 
L 311.006661 265.423465 
L 321.265872 265.636564 
L 331.525082 265.541853 
L 341.784293 265.234043 
L 352.043503 265.518176 
L 362.302714 265.447143 
L 372.561924 265.305076 
L 382.821135 265.352432 
L 393.080345 258.107055 
L 403.339556 178.621007 
L 413.598766 206.702762 
L 423.857977 100.721365 
" clip-path="url(#padaa72e302)" style="fill: none; stroke-dasharray: 4.44,1.92; stroke-dashoffset: 0; stroke: #9467bd; stroke-opacity: 0.9; stroke-width: 1.2"/>
   </g>
   <g id="line2d_28">
    <path d="M 44.267188 256.236516 
L 54.526398 264.121191 
L 64.785609 263.671315 
L 75.044819 263.481893 
L 85.30403 263.576604 
L 95.56324 187.713245 
L 105.822451 226.331578 
L 116.081661 222.921989 
L 126.340872 266.086441 
L 136.600082 265.565531 
L 146.859293 241.366919 
L 157.118503 264.144869 
L 167.377714 261.04309 
L 177.636924 264.23958 
L 187.896135 264.168547 
L 198.155345 261.161478 
L 208.414556 264.23958 
L 218.673766 177.295055 
L 228.932977 91.487061 
L 239.192187 197.728913 
L 249.451398 135.409199 
L 259.710609 265.399787 
L 269.969819 265.37611 
L 280.22903 265.352432 
L 290.48824 265.423465 
L 300.747451 261.563999 
L 311.006661 255.526185 
L 321.265872 256.591682 
L 331.525082 256.544326 
L 341.784293 260.924701 
L 352.043503 257.136269 
L 362.302714 167.326743 
L 372.561924 56.491416 
L 382.821135 266.110118 
L 393.080345 265.68392 
L 403.339556 265.541853 
L 413.598766 265.399787 
L 423.857977 265.210366 
" clip-path="url(#padaa72e302)" style="fill: none; stroke-dasharray: 4.44,1.92; stroke-dashoffset: 0; stroke: #8c564b; stroke-opacity: 0.9; stroke-width: 1.2"/>
   </g>
   <g id="line2d_29">
    <path d="M 44.267188 106.072526 
L 54.526398 198.178789 
L 64.785609 202.488131 
L 75.044819 266.702061 
L 85.30403 218.233803 
L 95.56324 199.220608 
L 105.822451 161.123184 
L 116.081661 251.429943 
L 126.340872 258.438543 
L 136.600082 244.373987 
L 146.859293 265.068299 
L 157.118503 264.8552 
L 167.377714 251.14581 
L 177.636924 257.728212 
L 187.896135 257.988666 
L 198.155345 244.610764 
L 208.414556 258.533253 
L 218.673766 265.281399 
L 228.932977 265.494498 
L 239.192187 265.541853 
L 249.451398 228.817737 
L 259.710609 201.446312 
L 269.969819 182.338406 
L 280.22903 186.553037 
L 290.48824 186.482004 
L 300.747451 265.494498 
L 311.006661 265.210366 
L 321.265872 265.257721 
L 331.525082 265.518176 
L 341.784293 265.139333 
L 352.043503 265.636564 
L 362.302714 265.281399 
L 372.561924 256.970525 
L 382.821135 265.920697 
L 393.080345 160.152399 
L 403.339556 260.001271 
L 413.598766 257.775567 
L 423.857977 264.476357 
" clip-path="url(#padaa72e302)" style="fill: none; stroke-dasharray: 4.44,1.92; stroke-dashoffset: 0; stroke: #e377c2; stroke-opacity: 0.9; stroke-width: 1.2"/>
   </g>
   <g id="line2d_30">
    <path d="M 44.267188 257.159947 
L 54.526398 255.597218 
L 64.785609 264.192224 
L 75.044819 262.676851 
L 85.30403 262.605818 
L 95.56324 262.629496 
L 105.822451 265.68392 
L 116.081661 203.411562 
L 126.340872 266.086441 
L 136.600082 265.825986 
L 146.859293 265.778631 
L 157.118503 209.662475 
L 167.377714 218.328514 
L 177.636924 163.159467 
L 187.896135 219.512399 
L 198.155345 169.62348 
L 208.414556 122.907372 
L 218.673766 265.897019 
L 228.932977 265.873341 
L 239.192187 254.531722 
L 249.451398 265.802308 
L 259.710609 264.215902 
L 269.969819 262.558463 
L 280.22903 258.698997 
L 290.48824 187.073947 
L 300.747451 58.314599 
L 311.006661 265.849664 
L 321.265872 266.725739 
L 331.525082 101.28963 
L 341.784293 186.742459 
L 352.043503 266.678383 
L 362.302714 179.568115 
L 372.561924 258.46222 
L 382.821135 191.762132 
L 393.080345 178.905139 
L 403.339556 235.636915 
L 413.598766 180.870389 
L 423.857977 257.207302 
" clip-path="url(#padaa72e302)" style="fill: none; stroke-dasharray: 4.44,1.92; stroke-dashoffset: 0; stroke: #7f7f7f; stroke-opacity: 0.9; stroke-width: 1.2"/>
   </g>
   <g id="patch_3">
    <path d="M 44.267188 278.389375 
L 44.267188 21.789375 
" style="fill: none; stroke: #cccccc; stroke-width: 0.8; stroke-linejoin: miter; stroke-linecap: square"/>
   </g>
   <g id="patch_4">
    <path d="M 434.117188 278.389375 
L 434.117188 21.789375 
" style="fill: none; stroke: #cccccc; stroke-width: 0.8; stroke-linejoin: miter; stroke-linecap: square"/>
   </g>
   <g id="patch_5">
    <path d="M 44.267188 278.389375 
L 434.117188 278.389375 
" style="fill: none; stroke: #cccccc; stroke-width: 0.8; stroke-linejoin: miter; stroke-linecap: square"/>
   </g>
   <g id="patch_6">
    <path d="M 44.267188 21.789375 
L 434.117188 21.789375 
" style="fill: none; stroke: #cccccc; stroke-width: 0.8; stroke-linejoin: miter; stroke-linecap: square"/>
   </g>
   <g id="text_17">
    <!-- PE019 — PC2 all cores -->
    <g style="fill: #262626" transform="translate(176.165 15.789375) scale(0.12 -0.12)">
     <defs>
      <path id="ArialMT-50" d="M 494 0 
L 494 4581 
L 2222 4581 
Q 2678 4581 2919 4538 
Q 3256 4481 3484 4323 
Q 3713 4166 3852 3881 
Q 3991 3597 3991 3256 
Q 3991 2672 3619 2267 
Q 3247 1863 2275 1863 
L 1100 1863 
L 1100 0 
L 494 0 
z
M 1100 2403 
L 2284 2403 
Q 2872 2403 3119 2622 
Q 3366 2841 3366 3238 
Q 3366 3525 3220 3729 
Q 3075 3934 2838 4000 
Q 2684 4041 2272 4041 
L 1100 4041 
L 1100 2403 
z
" transform="scale(0.015625)"/>
      <path id="ArialMT-39" d="M 350 1059 
L 891 1109 
Q 959 728 1153 556 
Q 1347 384 1650 384 
Q 1909 384 2104 503 
Q 2300 622 2425 820 
Q 2550 1019 2634 1356 
Q 2719 1694 2719 2044 
Q 2719 2081 2716 2156 
Q 2547 1888 2255 1720 
Q 1963 1553 1622 1553 
Q 1053 1553 659 1965 
Q 266 2378 266 3053 
Q 266 3750 677 4175 
Q 1088 4600 1706 4600 
Q 2153 4600 2523 4359 
Q 2894 4119 3086 3673 
Q 3278 3228 3278 2384 
Q 3278 1506 3087 986 
Q 2897 466 2520 194 
Q 2144 -78 1638 -78 
Q 1100 -78 759 220 
Q 419 519 350 1059 
z
M 2653 3081 
Q 2653 3566 2395 3850 
Q 2138 4134 1775 4134 
Q 1400 4134 1122 3828 
Q 844 3522 844 3034 
Q 844 2597 1108 2323 
Q 1372 2050 1759 2050 
Q 2150 2050 2401 2323 
Q 2653 2597 2653 3081 
z
" transform="scale(0.015625)"/>
      <path id="ArialMT-2014" d="M 0 1431 
L 0 1884 
L 6400 1884 
L 6400 1431 
L 0 1431 
z
" transform="scale(0.015625)"/>
      <path id="ArialMT-43" d="M 3763 1606 
L 4369 1453 
Q 4178 706 3683 314 
Q 3188 -78 2472 -78 
Q 1731 -78 1267 223 
Q 803 525 561 1097 
Q 319 1669 319 2325 
Q 319 3041 592 3573 
Q 866 4106 1370 4382 
Q 1875 4659 2481 4659 
Q 3169 4659 3637 4309 
Q 4106 3959 4291 3325 
L 3694 3184 
Q 3534 3684 3231 3912 
Q 2928 4141 2469 4141 
Q 1941 4141 1586 3887 
Q 1231 3634 1087 3207 
Q 944 2781 944 2328 
Q 944 1744 1114 1308 
Q 1284 872 1643 656 
Q 2003 441 2422 441 
Q 2931 441 3284 734 
Q 3638 1028 3763 1606 
z
" transform="scale(0.015625)"/>
      <path id="ArialMT-6f" d="M 213 1659 
Q 213 2581 725 3025 
Q 1153 3394 1769 3394 
Q 2453 3394 2887 2945 
Q 3322 2497 3322 1706 
Q 3322 1066 3130 698 
Q 2938 331 2570 128 
Q 2203 -75 1769 -75 
Q 1072 -75 642 372 
Q 213 819 213 1659 
z
M 791 1659 
Q 791 1022 1069 705 
Q 1347 388 1769 388 
Q 2188 388 2466 706 
Q 2744 1025 2744 1678 
Q 2744 2294 2464 2611 
Q 2184 2928 1769 2928 
Q 1347 2928 1069 2612 
Q 791 2297 791 1659 
z
" transform="scale(0.015625)"/>
      <path id="ArialMT-72" d="M 416 0 
L 416 3319 
L 922 3319 
L 922 2816 
Q 1116 3169 1280 3281 
Q 1444 3394 1641 3394 
Q 1925 3394 2219 3213 
L 2025 2691 
Q 1819 2813 1613 2813 
Q 1428 2813 1281 2702 
Q 1134 2591 1072 2394 
Q 978 2094 978 1738 
L 978 0 
L 416 0 
z
" transform="scale(0.015625)"/>
     </defs>
     <use xlink:href="#ArialMT-50"/>
     <use xlink:href="#ArialMT-45" transform="translate(66.699219 0)"/>
     <use xlink:href="#ArialMT-30" transform="translate(133.398438 0)"/>
     <use xlink:href="#ArialMT-31" transform="translate(189.013672 0)"/>
     <use xlink:href="#ArialMT-39" transform="translate(244.628906 0)"/>
     <use xlink:href="#ArialMT-20" transform="translate(300.244141 0)"/>
     <use xlink:href="#ArialMT-2014" transform="translate(328.027344 0)"/>
     <use xlink:href="#ArialMT-20" transform="translate(428.027344 0)"/>
     <use xlink:href="#ArialMT-50" transform="translate(455.810547 0)"/>
     <use xlink:href="#ArialMT-43" transform="translate(522.509766 0)"/>
     <use xlink:href="#ArialMT-32" transform="translate(594.726562 0)"/>
     <use xlink:href="#ArialMT-20" transform="translate(650.341797 0)"/>
     <use xlink:href="#ArialMT-61" transform="translate(678.125 0)"/>
     <use xlink:href="#ArialMT-6c" transform="translate(733.740234 0)"/>
     <use xlink:href="#ArialMT-6c" transform="translate(755.957031 0)"/>
     <use xlink:href="#ArialMT-20" transform="translate(778.173828 0)"/>
     <use xlink:href="#ArialMT-63" transform="translate(805.957031 0)"/>
     <use xlink:href="#ArialMT-6f" transform="translate(855.957031 0)"/>
     <use xlink:href="#ArialMT-72" transform="translate(911.572266 0)"/>
     <use xlink:href="#ArialMT-65" transform="translate(944.873047 0)"/>
     <use xlink:href="#ArialMT-73" transform="translate(1000.488281 0)"/>
    </g>
   </g>
   <g id="legend_1">
    <g id="patch_7">
     <path d="M 317.392188 85.685156 
L 428.517188 85.685156 
Q 430.117188 85.685156 430.117188 84.085156 
L 430.117188 27.389375 
Q 430.117188 25.789375 428.517188 25.789375 
L 317.392188 25.789375 
Q 315.792188 25.789375 315.792188 27.389375 
L 315.792188 84.085156 
Q 315.792188 85.685156 317.392188 85.685156 
z
" style="fill: #ffffff; opacity: 0.8; stroke: #cccccc; stroke-linejoin: miter"/>
    </g>
    <g id="text_18">
     <!-- CPU -->
     <g style="fill: #262626" transform="translate(363.453359 35.431406) scale(0.09 -0.09)">
      <defs>
       <path id="ArialMT-55" d="M 3500 4581 
L 4106 4581 
L 4106 1934 
Q 4106 1244 3950 837 
Q 3794 431 3386 176 
Q 2978 -78 2316 -78 
Q 1672 -78 1262 144 
Q 853 366 678 786 
Q 503 1206 503 1934 
L 503 4581 
L 1109 4581 
L 1109 1938 
Q 1109 1341 1220 1058 
Q 1331 775 1601 622 
Q 1872 469 2263 469 
Q 2931 469 3215 772 
Q 3500 1075 3500 1938 
L 3500 4581 
z
" transform="scale(0.015625)"/>
      </defs>
      <use xlink:href="#ArialMT-43"/>
      <use xlink:href="#ArialMT-50" transform="translate(72.216797 0)"/>
      <use xlink:href="#ArialMT-55" transform="translate(138.916016 0)"/>
     </g>
    </g>
    <g id="line2d_31">
     <path d="M 318.992188 44.146406 
L 326.992188 44.146406 
L 334.992188 44.146406 
" style="fill: none; stroke: #1f77b4; stroke-width: 2; stroke-linecap: round"/>
    </g>
    <g id="text_19">
     <!-- CPU 0 -->
     <g style="fill: #262626" transform="translate(341.392188 46.946406) scale(0.08 -0.08)">
      <use xlink:href="#ArialMT-43"/>
      <use xlink:href="#ArialMT-50" transform="translate(72.216797 0)"/>
      <use xlink:href="#ArialMT-55" transform="translate(138.916016 0)"/>
      <use xlink:href="#ArialMT-20" transform="translate(211.132812 0)"/>
      <use xlink:href="#ArialMT-30" transform="translate(238.916016 0)"/>
     </g>
    </g>
    <g id="line2d_32">
     <path d="M 318.992188 55.462656 
L 326.992188 55.462656 
L 334.992188 55.462656 
" style="fill: none; stroke: #ff7f0e; stroke-width: 2; stroke-linecap: round"/>
    </g>
    <g id="text_20">
     <!-- CPU 1 -->
     <g style="fill: #262626" transform="translate(341.392188 58.262656) scale(0.08 -0.08)">
      <use xlink:href="#ArialMT-43"/>
      <use xlink:href="#ArialMT-50" transform="translate(72.216797 0)"/>
      <use xlink:href="#ArialMT-55" transform="translate(138.916016 0)"/>
      <use xlink:href="#ArialMT-20" transform="translate(211.132812 0)"/>
      <use xlink:href="#ArialMT-31" transform="translate(238.916016 0)"/>
     </g>
    </g>
    <g id="line2d_33">
     <path d="M 318.992188 66.778906 
L 326.992188 66.778906 
L 334.992188 66.778906 
" style="fill: none; stroke: #2ca02c; stroke-width: 2; stroke-linecap: round"/>
    </g>
    <g id="text_21">
     <!-- CPU 2 -->
     <g style="fill: #262626" transform="translate(341.392188 69.578906) scale(0.08 -0.08)">
      <use xlink:href="#ArialMT-43"/>
      <use xlink:href="#ArialMT-50" transform="translate(72.216797 0)"/>
      <use xlink:href="#ArialMT-55" transform="translate(138.916016 0)"/>
      <use xlink:href="#ArialMT-20" transform="translate(211.132812 0)"/>
      <use xlink:href="#ArialMT-32" transform="translate(238.916016 0)"/>
     </g>
    </g>
    <g id="line2d_34">
     <path d="M 318.992188 78.095156 
L 326.992188 78.095156 
L 334.992188 78.095156 
" style="fill: none; stroke: #d62728; stroke-width: 2; stroke-linecap: round"/>
    </g>
    <g id="text_22">
     <!-- CPU 3 -->
     <g style="fill: #262626" transform="translate(341.392188 80.895156) scale(0.08 -0.08)">
      <use xlink:href="#ArialMT-43"/>
      <use xlink:href="#ArialMT-50" transform="translate(72.216797 0)"/>
      <use xlink:href="#ArialMT-55" transform="translate(138.916016 0)"/>
      <use xlink:href="#ArialMT-20" transform="translate(211.132812 0)"/>
      <use xlink:href="#ArialMT-33" transform="translate(238.916016 0)"/>
     </g>
    </g>
    <g id="line2d_35">
     <path d="M 380.954688 44.146406 
L 388.954688 44.146406 
L 396.954688 44.146406 
" style="fill: none; stroke: #9467bd; stroke-width: 2; stroke-linecap: round"/>
    </g>
    <g id="text_23">
     <!-- CPU 4 -->
     <g style="fill: #262626" transform="translate(403.354688 46.946406) scale(0.08 -0.08)">
      <use xlink:href="#ArialMT-43"/>
      <use xlink:href="#ArialMT-50" transform="translate(72.216797 0)"/>
      <use xlink:href="#ArialMT-55" transform="translate(138.916016 0)"/>
      <use xlink:href="#ArialMT-20" transform="translate(211.132812 0)"/>
      <use xlink:href="#ArialMT-34" transform="translate(238.916016 0)"/>
     </g>
    </g>
    <g id="line2d_36">
     <path d="M 380.954688 55.462656 
L 388.954688 55.462656 
L 396.954688 55.462656 
" style="fill: none; stroke: #8c564b; stroke-width: 2; stroke-linecap: round"/>
    </g>
    <g id="text_24">
     <!-- CPU 5 -->
     <g style="fill: #262626" transform="translate(403.354688 58.262656) scale(0.08 -0.08)">
      <use xlink:href="#ArialMT-43"/>
      <use xlink:href="#ArialMT-50" transform="translate(72.216797 0)"/>
      <use xlink:href="#ArialMT-55" transform="translate(138.916016 0)"/>
      <use xlink:href="#ArialMT-20" transform="translate(211.132812 0)"/>
      <use xlink:href="#ArialMT-35" transform="translate(238.916016 0)"/>
     </g>
    </g>
    <g id="line2d_37">
     <path d="M 380.954688 66.778906 
L 388.954688 66.778906 
L 396.954688 66.778906 
" style="fill: none; stroke: #e377c2; stroke-width: 2; stroke-linecap: round"/>
    </g>
    <g id="text_25">
     <!-- CPU 6 -->
     <g style="fill: #262626" transform="translate(403.354688 69.578906) scale(0.08 -0.08)">
      <use xlink:href="#ArialMT-43"/>
      <use xlink:href="#ArialMT-50" transform="translate(72.216797 0)"/>
      <use xlink:href="#ArialMT-55" transform="translate(138.916016 0)"/>
      <use xlink:href="#ArialMT-20" transform="translate(211.132812 0)"/>
      <use xlink:href="#ArialMT-36" transform="translate(238.916016 0)"/>
     </g>
    </g>
    <g id="line2d_38">
     <path d="M 380.954688 78.095156 
L 388.954688 78.095156 
L 396.954688 78.095156 
" style="fill: none; stroke: #7f7f7f; stroke-width: 2; stroke-linecap: round"/>
    </g>
    <g id="text_26">
     <!-- CPU 7 -->
     <g style="fill: #262626" transform="translate(403.354688 80.895156) scale(0.08 -0.08)">
      <defs>
       <path id="ArialMT-37" d="M 303 3981 
L 303 4522 
L 3269 4522 
L 3269 4084 
Q 2831 3619 2401 2847 
Q 1972 2075 1738 1259 
Q 1569 684 1522 0 
L 944 0 
Q 953 541 1156 1306 
Q 1359 2072 1739 2783 
Q 2119 3494 2547 3981 
L 303 3981 
z
" transform="scale(0.015625)"/>
      </defs>
      <use xlink:href="#ArialMT-43"/>
      <use xlink:href="#ArialMT-50" transform="translate(72.216797 0)"/>
      <use xlink:href="#ArialMT-55" transform="translate(138.916016 0)"/>
      <use xlink:href="#ArialMT-20" transform="translate(211.132812 0)"/>
      <use xlink:href="#ArialMT-37" transform="translate(238.916016 0)"/>
     </g>
    </g>
   </g>
   <g id="legend_2">
    <g id="patch_8">
     <path d="M 49.867188 63.240156 
L 100.813438 63.240156 
Q 102.413438 63.240156 102.413438 61.640156 
L 102.413438 27.389375 
Q 102.413438 25.789375 100.813438 25.789375 
L 49.867188 25.789375 
Q 48.267188 25.789375 48.267188 27.389375 
L 48.267188 61.640156 
Q 48.267188 63.240156 49.867188 63.240156 
z
" style="fill: #ffffff; opacity: 0.8; stroke: #cccccc; stroke-linejoin: miter"/>
    </g>
    <g id="text_27">
     <!-- Variant -->
     <g style="fill: #262626" transform="translate(61.414922 35.431406) scale(0.09 -0.09)">
      <defs>
       <path id="ArialMT-56" d="M 1803 0 
L 28 4581 
L 684 4581 
L 1875 1253 
Q 2019 853 2116 503 
Q 2222 878 2363 1253 
L 3600 4581 
L 4219 4581 
L 2425 0 
L 1803 0 
z
" transform="scale(0.015625)"/>
       <path id="ArialMT-6e" d="M 422 0 
L 422 3319 
L 928 3319 
L 928 2847 
Q 1294 3394 1984 3394 
Q 2284 3394 2536 3286 
Q 2788 3178 2913 3003 
Q 3038 2828 3088 2588 
Q 3119 2431 3119 2041 
L 3119 0 
L 2556 0 
L 2556 2019 
Q 2556 2363 2490 2533 
Q 2425 2703 2258 2804 
Q 2091 2906 1866 2906 
Q 1506 2906 1245 2678 
Q 984 2450 984 1813 
L 984 0 
L 422 0 
z
" transform="scale(0.015625)"/>
       <path id="ArialMT-74" d="M 1650 503 
L 1731 6 
Q 1494 -44 1306 -44 
Q 1000 -44 831 53 
Q 663 150 594 308 
Q 525 466 525 972 
L 525 2881 
L 113 2881 
L 113 3319 
L 525 3319 
L 525 4141 
L 1084 4478 
L 1084 3319 
L 1650 3319 
L 1650 2881 
L 1084 2881 
L 1084 941 
Q 1084 700 1114 631 
Q 1144 563 1211 522 
Q 1278 481 1403 481 
Q 1497 481 1650 503 
z
" transform="scale(0.015625)"/>
      </defs>
      <use xlink:href="#ArialMT-56"/>
      <use xlink:href="#ArialMT-61" transform="translate(59.324219 0)"/>
      <use xlink:href="#ArialMT-72" transform="translate(114.939453 0)"/>
      <use xlink:href="#ArialMT-69" transform="translate(148.240234 0)"/>
      <use xlink:href="#ArialMT-61" transform="translate(170.457031 0)"/>
      <use xlink:href="#ArialMT-6e" transform="translate(226.072266 0)"/>
      <use xlink:href="#ArialMT-74" transform="translate(281.6875 0)"/>
     </g>
    </g>
    <g id="line2d_39">
     <path d="M 51.467188 44.146406 
L 59.467188 44.146406 
L 67.467188 44.146406 
" style="fill: none; stroke: #333333; stroke-width: 2; stroke-linecap: round"/>
    </g>
    <g id="text_28">
     <!-- queryA -->
     <g style="fill: #262626" transform="translate(73.867188 46.946406) scale(0.08 -0.08)">
      <defs>
       <path id="ArialMT-71" d="M 2538 -1272 
L 2538 353 
Q 2406 169 2170 47 
Q 1934 -75 1669 -75 
Q 1078 -75 651 397 
Q 225 869 225 1691 
Q 225 2191 398 2587 
Q 572 2984 901 3189 
Q 1231 3394 1625 3394 
Q 2241 3394 2594 2875 
L 2594 3319 
L 3100 3319 
L 3100 -1272 
L 2538 -1272 
z
M 803 1669 
Q 803 1028 1072 708 
Q 1341 388 1716 388 
Q 2075 388 2334 692 
Q 2594 997 2594 1619 
Q 2594 2281 2320 2615 
Q 2047 2950 1678 2950 
Q 1313 2950 1058 2639 
Q 803 2328 803 1669 
z
" transform="scale(0.015625)"/>
       <path id="ArialMT-41" d="M -9 0 
L 1750 4581 
L 2403 4581 
L 4278 0 
L 3588 0 
L 3053 1388 
L 1138 1388 
L 634 0 
L -9 0 
z
M 1313 1881 
L 2866 1881 
L 2388 3150 
Q 2169 3728 2063 4100 
Q 1975 3659 1816 3225 
L 1313 1881 
z
" transform="scale(0.015625)"/>
      </defs>
      <use xlink:href="#ArialMT-71"/>
      <use xlink:href="#ArialMT-75" transform="translate(55.615234 0)"/>
      <use xlink:href="#ArialMT-65" transform="translate(111.230469 0)"/>
      <use xlink:href="#ArialMT-72" transform="translate(166.845703 0)"/>
      <use xlink:href="#ArialMT-79" transform="translate(200.146484 0)"/>
      <use xlink:href="#ArialMT-41" transform="translate(250.146484 0)"/>
     </g>
    </g>
    <g id="line2d_40">
     <path d="M 51.467188 55.556406 
L 59.467188 55.556406 
L 67.467188 55.556406 
" style="fill: none; stroke-dasharray: 7.4,3.2; stroke-dashoffset: 0; stroke: #333333; stroke-width: 2"/>
    </g>
    <g id="text_29">
     <!-- queryB -->
     <g style="fill: #262626" transform="translate(73.867188 58.356406) scale(0.08 -0.08)">
      <use xlink:href="#ArialMT-71"/>
      <use xlink:href="#ArialMT-75" transform="translate(55.615234 0)"/>
      <use xlink:href="#ArialMT-65" transform="translate(111.230469 0)"/>
      <use xlink:href="#ArialMT-72" transform="translate(166.845703 0)"/>
      <use xlink:href="#ArialMT-79" transform="translate(200.146484 0)"/>
      <use xlink:href="#ArialMT-42" transform="translate(250.146484 0)"/>
     </g>
    </g>
   </g>
  </g>
  <g id="axes_2">
   <g id="patch_9">
    <path d="M 458.997187 278.389375 
L 848.847187 278.389375 
L 848.847187 21.789375 
L 458.997187 21.789375 
z
" style="fill: #ffffff"/>
   </g>
   <g id="matplotlib.axis_3">
    <g id="xtick_9">
     <g id="line2d_41">
      <path d="M 458.997187 278.389375 
L 458.997187 21.789375 
" clip-path="url(#p92c6ac18a7)" style="fill: none; stroke: #cccccc; stroke-opacity: 0.2; stroke-width: 0.8; stroke-linecap: round"/>
     </g>
     <g id="text_30">
      <!-- 0 -->
      <g style="fill: #262626" transform="translate(456.216719 292.547188) scale(0.1 -0.1)">
       <use xlink:href="#ArialMT-30"/>
      </g>
     </g>
    </g>
    <g id="xtick_10">
     <g id="line2d_42">
      <path d="M 510.29324 278.389375 
L 510.29324 21.789375 
" clip-path="url(#p92c6ac18a7)" style="fill: none; stroke: #cccccc; stroke-opacity: 0.2; stroke-width: 0.8; stroke-linecap: round"/>
     </g>
     <g id="text_31">
      <!-- 5 -->
      <g style="fill: #262626" transform="translate(507.512771 292.547188) scale(0.1 -0.1)">
       <use xlink:href="#ArialMT-35"/>
      </g>
     </g>
    </g>
    <g id="xtick_11">
     <g id="line2d_43">
      <path d="M 561.589293 278.389375 
L 561.589293 21.789375 
" clip-path="url(#p92c6ac18a7)" style="fill: none; stroke: #cccccc; stroke-opacity: 0.2; stroke-width: 0.8; stroke-linecap: round"/>
     </g>
     <g id="text_32">
      <!-- 10 -->
      <g style="fill: #262626" transform="translate(556.028355 292.547188) scale(0.1 -0.1)">
       <use xlink:href="#ArialMT-31"/>
       <use xlink:href="#ArialMT-30" transform="translate(55.615234 0)"/>
      </g>
     </g>
    </g>
    <g id="xtick_12">
     <g id="line2d_44">
      <path d="M 612.885345 278.389375 
L 612.885345 21.789375 
" clip-path="url(#p92c6ac18a7)" style="fill: none; stroke: #cccccc; stroke-opacity: 0.2; stroke-width: 0.8; stroke-linecap: round"/>
     </g>
     <g id="text_33">
      <!-- 15 -->
      <g style="fill: #262626" transform="translate(607.324408 292.547188) scale(0.1 -0.1)">
       <use xlink:href="#ArialMT-31"/>
       <use xlink:href="#ArialMT-35" transform="translate(55.615234 0)"/>
      </g>
     </g>
    </g>
    <g id="xtick_13">
     <g id="line2d_45">
      <path d="M 664.181398 278.389375 
L 664.181398 21.789375 
" clip-path="url(#p92c6ac18a7)" style="fill: none; stroke: #cccccc; stroke-opacity: 0.2; stroke-width: 0.8; stroke-linecap: round"/>
     </g>
     <g id="text_34">
      <!-- 20 -->
      <g style="fill: #262626" transform="translate(658.620461 292.547188) scale(0.1 -0.1)">
       <use xlink:href="#ArialMT-32"/>
       <use xlink:href="#ArialMT-30" transform="translate(55.615234 0)"/>
      </g>
     </g>
    </g>
    <g id="xtick_14">
     <g id="line2d_46">
      <path d="M 715.477451 278.389375 
L 715.477451 21.789375 
" clip-path="url(#p92c6ac18a7)" style="fill: none; stroke: #cccccc; stroke-opacity: 0.2; stroke-width: 0.8; stroke-linecap: round"/>
     </g>
     <g id="text_35">
      <!-- 25 -->
      <g style="fill: #262626" transform="translate(709.916513 292.547188) scale(0.1 -0.1)">
       <use xlink:href="#ArialMT-32"/>
       <use xlink:href="#ArialMT-35" transform="translate(55.615234 0)"/>
      </g>
     </g>
    </g>
    <g id="xtick_15">
     <g id="line2d_47">
      <path d="M 766.773503 278.389375 
L 766.773503 21.789375 
" clip-path="url(#p92c6ac18a7)" style="fill: none; stroke: #cccccc; stroke-opacity: 0.2; stroke-width: 0.8; stroke-linecap: round"/>
     </g>
     <g id="text_36">
      <!-- 30 -->
      <g style="fill: #262626" transform="translate(761.212566 292.547188) scale(0.1 -0.1)">
       <use xlink:href="#ArialMT-33"/>
       <use xlink:href="#ArialMT-30" transform="translate(55.615234 0)"/>
      </g>
     </g>
    </g>
    <g id="xtick_16">
     <g id="line2d_48">
      <path d="M 818.069556 278.389375 
L 818.069556 21.789375 
" clip-path="url(#p92c6ac18a7)" style="fill: none; stroke: #cccccc; stroke-opacity: 0.2; stroke-width: 0.8; stroke-linecap: round"/>
     </g>
     <g id="text_37">
      <!-- 35 -->
      <g style="fill: #262626" transform="translate(812.508618 292.547188) scale(0.1 -0.1)">
       <use xlink:href="#ArialMT-33"/>
       <use xlink:href="#ArialMT-35" transform="translate(55.615234 0)"/>
      </g>
     </g>
    </g>
    <g id="text_38">
     <!-- Elapsed Time (sec) -->
     <g style="fill: #262626" transform="translate(611.130781 305.814375) scale(0.1 -0.1)">
      <use xlink:href="#ArialMT-45"/>
      <use xlink:href="#ArialMT-6c" transform="translate(66.699219 0)"/>
      <use xlink:href="#ArialMT-61" transform="translate(88.916016 0)"/>
      <use xlink:href="#ArialMT-70" transform="translate(144.53125 0)"/>
      <use xlink:href="#ArialMT-73" transform="translate(200.146484 0)"/>
      <use xlink:href="#ArialMT-65" transform="translate(250.146484 0)"/>
      <use xlink:href="#ArialMT-64" transform="translate(305.761719 0)"/>
      <use xlink:href="#ArialMT-20" transform="translate(361.376953 0)"/>
      <use xlink:href="#ArialMT-54" transform="translate(387.410156 0)"/>
      <use xlink:href="#ArialMT-69" transform="translate(444.744141 0)"/>
      <use xlink:href="#ArialMT-6d" transform="translate(466.960938 0)"/>
      <use xlink:href="#ArialMT-65" transform="translate(550.261719 0)"/>
      <use xlink:href="#ArialMT-20" transform="translate(605.876953 0)"/>
      <use xlink:href="#ArialMT-28" transform="translate(633.660156 0)"/>
      <use xlink:href="#ArialMT-73" transform="translate(666.960938 0)"/>
      <use xlink:href="#ArialMT-65" transform="translate(716.960938 0)"/>
      <use xlink:href="#ArialMT-63" transform="translate(772.576172 0)"/>
      <use xlink:href="#ArialMT-29" transform="translate(822.576172 0)"/>
     </g>
    </g>
   </g>
   <g id="matplotlib.axis_4">
    <g id="ytick_7">
     <g id="line2d_49">
      <path d="M 458.997187 269.661774 
L 848.847187 269.661774 
" clip-path="url(#p92c6ac18a7)" style="fill: none; stroke: #cccccc; stroke-opacity: 0.2; stroke-width: 0.8; stroke-linecap: round"/>
     </g>
    </g>
    <g id="ytick_8">
     <g id="line2d_50">
      <path d="M 458.997187 222.306368 
L 848.847187 222.306368 
" clip-path="url(#p92c6ac18a7)" style="fill: none; stroke: #cccccc; stroke-opacity: 0.2; stroke-width: 0.8; stroke-linecap: round"/>
     </g>
    </g>
    <g id="ytick_9">
     <g id="line2d_51">
      <path d="M 458.997187 174.950963 
L 848.847187 174.950963 
" clip-path="url(#p92c6ac18a7)" style="fill: none; stroke: #cccccc; stroke-opacity: 0.2; stroke-width: 0.8; stroke-linecap: round"/>
     </g>
    </g>
    <g id="ytick_10">
     <g id="line2d_52">
      <path d="M 458.997187 127.595557 
L 848.847187 127.595557 
" clip-path="url(#p92c6ac18a7)" style="fill: none; stroke: #cccccc; stroke-opacity: 0.2; stroke-width: 0.8; stroke-linecap: round"/>
     </g>
    </g>
    <g id="ytick_11">
     <g id="line2d_53">
      <path d="M 458.997187 80.240152 
L 848.847187 80.240152 
" clip-path="url(#p92c6ac18a7)" style="fill: none; stroke: #cccccc; stroke-opacity: 0.2; stroke-width: 0.8; stroke-linecap: round"/>
     </g>
    </g>
    <g id="ytick_12">
     <g id="line2d_54">
      <path d="M 458.997187 32.884746 
L 848.847187 32.884746 
" clip-path="url(#p92c6ac18a7)" style="fill: none; stroke: #cccccc; stroke-opacity: 0.2; stroke-width: 0.8; stroke-linecap: round"/>
     </g>
    </g>
    <g id="text_39">
     <!-- Busy% -->
     <g style="fill: #262626" transform="translate(452.8925 165.651094) rotate(-90) scale(0.1 -0.1)">
      <use xlink:href="#ArialMT-42"/>
      <use xlink:href="#ArialMT-75" transform="translate(66.699219 0)"/>
      <use xlink:href="#ArialMT-73" transform="translate(122.314453 0)"/>
      <use xlink:href="#ArialMT-79" transform="translate(172.314453 0)"/>
      <use xlink:href="#ArialMT-25" transform="translate(222.314453 0)"/>
     </g>
    </g>
   </g>
   <g id="line2d_55">
    <path d="M 458.997187 265.589209 
L 469.256398 265.565531 
L 479.515609 265.707597 
L 489.774819 265.731275 
L 500.03403 265.447143 
L 510.29324 265.399787 
L 520.552451 265.565531 
L 530.811661 265.612887 
L 541.070872 265.589209 
L 551.330082 265.707597 
L 561.589293 265.754953 
L 571.848503 265.328754 
L 582.107714 265.636564 
L 592.366924 265.589209 
L 602.626135 265.541853 
L 612.885345 265.636564 
L 623.144556 265.565531 
L 633.403766 265.589209 
L 643.662977 265.612887 
L 653.922187 265.589209 
L 664.181398 264.54739 
L 674.440609 264.926233 
L 684.699819 265.731275 
L 694.95903 265.612887 
L 705.21824 265.589209 
L 715.477451 265.565531 
L 725.736661 264.571068 
L 735.995872 265.778631 
L 746.255082 265.257721 
L 756.514293 265.210366 
L 766.773503 265.16301 
L 777.032714 265.47082 
L 787.291924 265.139333 
L 797.551135 265.612887 
L 807.810345 265.612887 
L 818.069556 265.589209 
L 828.328766 265.802308 
L 838.587977 265.612887 
L 848.847187 265.494498 
" clip-path="url(#p92c6ac18a7)" style="fill: none; stroke: #1f77b4; stroke-opacity: 0.9; stroke-width: 1.2; stroke-linecap: round"/>
   </g>
   <g id="line2d_56">
    <path d="M 458.997187 264.736812 
L 469.256398 264.831522 
L 479.515609 264.8552 
L 489.774819 265.423465 
L 500.03403 265.305076 
L 510.29324 264.760489 
L 520.552451 264.54739 
L 530.811661 265.399787 
L 541.070872 265.37611 
L 551.330082 265.423465 
L 561.589293 265.399787 
L 571.848503 265.020944 
L 582.107714 265.47082 
L 592.366924 265.447143 
L 602.626135 265.423465 
L 612.885345 265.423465 
L 623.144556 265.399787 
L 633.403766 265.423465 
L 643.662977 265.37611 
L 653.922187 265.423465 
L 664.181398 264.405324 
L 674.440609 264.973589 
L 684.699819 265.091977 
L 694.95903 264.878878 
L 705.21824 264.760489 
L 715.477451 264.784167 
L 725.736661 265.020944 
L 735.995872 265.328754 
L 746.255082 265.447143 
L 756.514293 265.399787 
L 766.773503 265.423465 
L 777.032714 265.16301 
L 787.291924 265.352432 
L 797.551135 265.47082 
L 807.810345 265.399787 
L 818.069556 265.399787 
L 828.328766 265.47082 
L 838.587977 265.352432 
L 848.847187 265.636564 
" clip-path="url(#p92c6ac18a7)" style="fill: none; stroke: #ff7f0e; stroke-opacity: 0.9; stroke-width: 1.2; stroke-linecap: round"/>
   </g>
   <g id="line2d_57">
    <path d="M 458.997187 33.666111 
L 469.256398 33.524044 
L 479.515609 33.500367 
L 489.774819 33.500367 
L 500.03403 39.561859 
L 510.29324 46.854591 
L 520.552451 33.500367 
L 530.811661 33.476689 
L 541.070872 33.500367 
L 551.330082 33.500367 
L 561.589293 33.476689 
L 571.848503 44.794631 
L 582.107714 33.476689 
L 592.366924 33.524044 
L 602.626135 33.500367 
L 612.885345 33.476689 
L 623.144556 33.524044 
L 633.403766 33.476689 
L 643.662977 33.500367 
L 653.922187 33.524044 
L 664.181398 33.476689 
L 674.440609 45.149797 
L 684.699819 33.500367 
L 694.95903 33.476689 
L 705.21824 33.500367 
L 715.477451 33.476689 
L 725.736661 44.841986 
L 735.995872 33.500367 
L 746.255082 33.476689 
L 756.514293 33.476689 
L 766.773503 33.476689 
L 777.032714 44.841986 
L 787.291924 33.476689 
L 797.551135 33.476689 
L 807.810345 33.476689 
L 818.069556 33.476689 
L 828.328766 33.595078 
L 838.587977 33.500367 
L 848.847187 35.370905 
" clip-path="url(#p92c6ac18a7)" style="fill: none; stroke: #2ca02c; stroke-opacity: 0.9; stroke-width: 1.2; stroke-linecap: round"/>
   </g>
   <g id="line2d_58">
    <path d="M 458.997187 265.754953 
L 469.256398 265.731275 
L 479.515609 265.754953 
L 489.774819 265.825986 
L 500.03403 265.707597 
L 510.29324 265.328754 
L 520.552451 265.778631 
L 530.811661 265.873341 
L 541.070872 265.849664 
L 551.330082 265.825986 
L 561.589293 265.660242 
L 571.848503 264.807845 
L 582.107714 265.234043 
L 592.366924 265.16301 
L 602.626135 265.281399 
L 612.885345 265.234043 
L 623.144556 265.044622 
L 633.403766 265.234043 
L 643.662977 265.257721 
L 653.922187 265.257721 
L 664.181398 265.257721 
L 674.440609 265.37611 
L 684.699819 265.281399 
L 694.95903 265.754953 
L 705.21824 265.802308 
L 715.477451 265.825986 
L 725.736661 265.423465 
L 735.995872 265.305076 
L 746.255082 265.849664 
L 756.514293 265.825986 
L 766.773503 265.873341 
L 777.032714 265.47082 
L 787.291924 265.849664 
L 797.551135 265.305076 
L 807.810345 265.305076 
L 818.069556 265.257721 
L 828.328766 265.731275 
L 838.587977 265.257721 
L 848.847187 265.494498 
" clip-path="url(#p92c6ac18a7)" style="fill: none; stroke: #d62728; stroke-opacity: 0.9; stroke-width: 1.2; stroke-linecap: round"/>
   </g>
   <g id="line2d_59">
    <path d="M 458.997187 265.423465 
L 469.256398 265.565531 
L 479.515609 265.707597 
L 489.774819 265.541853 
L 500.03403 265.447143 
L 510.29324 265.47082 
L 520.552451 265.47082 
L 530.811661 265.707597 
L 541.070872 265.518176 
L 551.330082 265.518176 
L 561.589293 265.68392 
L 571.848503 265.16301 
L 582.107714 265.707597 
L 592.366924 265.565531 
L 602.626135 265.589209 
L 612.885345 265.731275 
L 623.144556 265.518176 
L 633.403766 265.589209 
L 643.662977 265.707597 
L 653.922187 265.399787 
L 664.181398 265.68392 
L 674.440609 264.878878 
L 684.699819 265.115655 
L 694.95903 265.731275 
L 705.21824 265.565531 
L 715.477451 265.565531 
L 725.736661 265.352432 
L 735.995872 265.612887 
L 746.255082 266.062763 
L 756.514293 266.039085 
L 766.773503 266.039085 
L 777.032714 265.020944 
L 787.291924 266.015408 
L 797.551135 266.039085 
L 807.810345 266.039085 
L 818.069556 266.015408 
L 828.328766 265.47082 
L 838.587977 265.825986 
L 848.847187 265.802308 
" clip-path="url(#p92c6ac18a7)" style="fill: none; stroke: #9467bd; stroke-opacity: 0.9; stroke-width: 1.2; stroke-linecap: round"/>
   </g>
   <g id="line2d_60">
    <path d="M 458.997187 265.589209 
L 469.256398 265.636564 
L 479.515609 265.68392 
L 489.774819 265.494498 
L 500.03403 265.541853 
L 510.29324 265.589209 
L 520.552451 265.660242 
L 530.811661 265.778631 
L 541.070872 265.636564 
L 551.330082 265.447143 
L 561.589293 265.660242 
L 571.848503 265.091977 
L 582.107714 265.802308 
L 592.366924 265.660242 
L 602.626135 265.660242 
L 612.885345 265.778631 
L 623.144556 265.636564 
L 633.403766 265.660242 
L 643.662977 265.802308 
L 653.922187 265.636564 
L 664.181398 265.589209 
L 674.440609 265.257721 
L 684.699819 265.447143 
L 694.95903 265.754953 
L 705.21824 265.612887 
L 715.477451 265.660242 
L 725.736661 265.447143 
L 735.995872 265.423465 
L 746.255082 265.660242 
L 756.514293 265.423465 
L 766.773503 265.447143 
L 777.032714 265.352432 
L 787.291924 265.518176 
L 797.551135 265.778631 
L 807.810345 265.589209 
L 818.069556 265.612887 
L 828.328766 265.660242 
L 838.587977 265.612887 
L 848.847187 265.186688 
" clip-path="url(#p92c6ac18a7)" style="fill: none; stroke: #8c564b; stroke-opacity: 0.9; stroke-width: 1.2; stroke-linecap: round"/>
   </g>
   <g id="line2d_61">
    <path d="M 458.997187 266.204829 
L 469.256398 266.252185 
L 479.515609 266.417929 
L 489.774819 265.399787 
L 500.03403 265.328754 
L 510.29324 264.286935 
L 520.552451 266.228507 
L 530.811661 265.660242 
L 541.070872 265.494498 
L 551.330082 265.47082 
L 561.589293 265.707597 
L 571.848503 265.849664 
L 582.107714 266.465284 
L 592.366924 266.204829 
L 602.626135 266.252185 
L 612.885345 266.441606 
L 623.144556 266.252185 
L 633.403766 266.29954 
L 643.662977 266.417929 
L 653.922187 266.228507 
L 664.181398 266.441606 
L 674.440609 265.920697 
L 684.699819 266.228507 
L 694.95903 266.417929 
L 705.21824 266.204829 
L 715.477451 266.29954 
L 725.736661 266.039085 
L 735.995872 266.157474 
L 746.255082 266.039085 
L 756.514293 265.589209 
L 766.773503 265.660242 
L 777.032714 265.612887 
L 787.291924 265.565531 
L 797.551135 266.039085 
L 807.810345 265.612887 
L 818.069556 265.636564 
L 828.328766 266.015408 
L 838.587977 265.589209 
L 848.847187 265.541853 
" clip-path="url(#p92c6ac18a7)" style="fill: none; stroke: #e377c2; stroke-opacity: 0.9; stroke-width: 1.2; stroke-linecap: round"/>
   </g>
   <g id="line2d_62">
    <path d="M 458.997187 265.802308 
L 469.256398 265.825986 
L 479.515609 265.849664 
L 489.774819 265.825986 
L 500.03403 265.68392 
L 510.29324 265.589209 
L 520.552451 265.825986 
L 530.811661 265.873341 
L 541.070872 265.825986 
L 551.330082 265.825986 
L 561.589293 265.873341 
L 571.848503 265.47082 
L 582.107714 265.825986 
L 592.366924 265.802308 
L 602.626135 265.802308 
L 612.885345 265.873341 
L 623.144556 265.802308 
L 633.403766 265.802308 
L 643.662977 265.849664 
L 653.922187 265.849664 
L 664.181398 265.825986 
L 674.440609 265.589209 
L 684.699819 265.802308 
L 694.95903 265.849664 
L 705.21824 265.802308 
L 715.477451 265.825986 
L 725.736661 265.518176 
L 735.995872 265.802308 
L 746.255082 265.873341 
L 756.514293 265.802308 
L 766.773503 265.825986 
L 777.032714 265.565531 
L 787.291924 265.802308 
L 797.551135 265.849664 
L 807.810345 265.825986 
L 818.069556 265.825986 
L 828.328766 265.825986 
L 838.587977 265.802308 
L 848.847187 265.423465 
" clip-path="url(#p92c6ac18a7)" style="fill: none; stroke: #7f7f7f; stroke-opacity: 0.9; stroke-width: 1.2; stroke-linecap: round"/>
   </g>
   <g id="line2d_63">
    <path d="M 458.997187 265.305076 
L 469.256398 265.352432 
L 479.515609 265.399787 
L 489.774819 265.305076 
L 500.03403 265.257721 
L 510.29324 265.589209 
L 520.552451 265.612887 
L 530.811661 265.589209 
L 541.070872 265.754953 
L 551.330082 265.044622 
L 561.589293 264.878878 
L 571.848503 265.186688 
L 582.107714 265.044622 
L 592.366924 265.115655 
L 602.626135 264.902556 
L 612.885345 265.186688 
L 623.144556 265.257721 
L 633.403766 265.16301 
L 643.662977 265.399787 
L 653.922187 265.020944 
L 664.181398 265.636564 
L 674.440609 265.731275 
L 684.699819 265.589209 
L 694.95903 265.660242 
L 705.21824 265.541853 
L 715.477451 265.660242 
L 725.736661 265.802308 
L 735.995872 265.754953 
L 746.255082 265.68392 
L 756.514293 265.754953 
L 766.773503 265.731275 
L 777.032714 265.660242 
L 787.291924 265.565531 
L 797.551135 265.612887 
L 807.810345 265.399787 
L 818.069556 265.47082 
L 828.328766 265.068299 
L 838.587977 265.068299 
L 848.847187 264.594745 
" clip-path="url(#p92c6ac18a7)" style="fill: none; stroke-dasharray: 4.44,1.92; stroke-dashoffset: 0; stroke: #1f77b4; stroke-opacity: 0.9; stroke-width: 1.2"/>
   </g>
   <g id="line2d_64">
    <path d="M 458.997187 265.305076 
L 469.256398 265.423465 
L 479.515609 265.47082 
L 489.774819 265.399787 
L 500.03403 265.352432 
L 510.29324 265.423465 
L 520.552451 265.352432 
L 530.811661 265.37611 
L 541.070872 265.494498 
L 551.330082 265.37611 
L 561.589293 265.423465 
L 571.848503 265.328754 
L 582.107714 265.37611 
L 592.366924 265.423465 
L 602.626135 265.210366 
L 612.885345 265.305076 
L 623.144556 265.423465 
L 633.403766 265.423465 
L 643.662977 265.47082 
L 653.922187 264.594745 
L 664.181398 264.618423 
L 674.440609 264.736812 
L 684.699819 265.044622 
L 694.95903 265.447143 
L 705.21824 265.068299 
L 715.477451 265.139333 
L 725.736661 263.174083 
L 735.995872 265.210366 
L 746.255082 264.949911 
L 756.514293 265.210366 
L 766.773503 265.234043 
L 777.032714 265.423465 
L 787.291924 264.807845 
L 797.551135 264.784167 
L 807.810345 265.186688 
L 818.069556 265.234043 
L 828.328766 265.447143 
L 838.587977 265.257721 
L 848.847187 265.494498 
" clip-path="url(#p92c6ac18a7)" style="fill: none; stroke-dasharray: 4.44,1.92; stroke-dashoffset: 0; stroke: #ff7f0e; stroke-opacity: 0.9; stroke-width: 1.2"/>
   </g>
   <g id="line2d_65">
    <path d="M 458.997187 33.760821 
L 469.256398 33.500367 
L 479.515609 33.476689 
L 489.774819 33.524044 
L 500.03403 39.467148 
L 510.29324 38.780494 
L 520.552451 33.476689 
L 530.811661 33.476689 
L 541.070872 33.476689 
L 551.330082 45.031408 
L 561.589293 33.476689 
L 571.848503 33.500367 
L 582.107714 33.476689 
L 592.366924 33.453011 
L 602.626135 44.841986 
L 612.885345 33.500367 
L 623.144556 33.524044 
L 633.403766 33.500367 
L 643.662977 33.476689 
L 653.922187 45.031408 
L 664.181398 33.476689 
L 674.440609 33.476689 
L 684.699819 33.476689 
L 694.95903 33.453011 
L 705.21824 44.865664 
L 715.477451 33.476689 
L 725.736661 33.476689 
L 735.995872 33.476689 
L 746.255082 33.453011 
L 756.514293 44.936697 
L 766.773503 33.476689 
L 777.032714 33.476689 
L 787.291924 33.476689 
L 797.551135 33.476689 
L 807.810345 44.889342 
L 818.069556 33.500367 
L 828.328766 33.476689 
L 838.587977 33.476689 
L 848.847187 33.5714 
" clip-path="url(#p92c6ac18a7)" style="fill: none; stroke-dasharray: 4.44,1.92; stroke-dashoffset: 0; stroke: #2ca02c; stroke-opacity: 0.9; stroke-width: 1.2"/>
   </g>
   <g id="line2d_66">
    <path d="M 458.997187 265.281399 
L 469.256398 265.37611 
L 479.515609 265.37611 
L 489.774819 265.873341 
L 500.03403 265.873341 
L 510.29324 265.849664 
L 520.552451 265.920697 
L 530.811661 265.944374 
L 541.070872 265.944374 
L 551.330082 265.802308 
L 561.589293 265.897019 
L 571.848503 265.944374 
L 582.107714 265.920697 
L 592.366924 265.944374 
L 602.626135 265.612887 
L 612.885345 265.802308 
L 623.144556 265.944374 
L 633.403766 265.944374 
L 643.662977 265.920697 
L 653.922187 265.636564 
L 664.181398 265.754953 
L 674.440609 265.920697 
L 684.699819 265.281399 
L 694.95903 265.352432 
L 705.21824 265.020944 
L 715.477451 265.186688 
L 725.736661 265.352432 
L 735.995872 265.352432 
L 746.255082 265.897019 
L 756.514293 265.234043 
L 766.773503 265.257721 
L 777.032714 265.37611 
L 787.291924 265.636564 
L 797.551135 265.920697 
L 807.810345 265.612887 
L 818.069556 265.257721 
L 828.328766 265.920697 
L 838.587977 265.873341 
L 848.847187 265.612887 
" clip-path="url(#p92c6ac18a7)" style="fill: none; stroke-dasharray: 4.44,1.92; stroke-dashoffset: 0; stroke: #d62728; stroke-opacity: 0.9; stroke-width: 1.2"/>
   </g>
   <g id="line2d_67">
    <path d="M 458.997187 266.039085 
L 469.256398 266.062763 
L 479.515609 266.039085 
L 489.774819 266.039085 
L 500.03403 266.039085 
L 510.29324 266.039085 
L 520.552451 266.062763 
L 530.811661 266.062763 
L 541.070872 266.062763 
L 551.330082 265.99173 
L 561.589293 266.039085 
L 571.848503 266.062763 
L 582.107714 266.062763 
L 592.366924 266.062763 
L 602.626135 265.849664 
L 612.885345 265.920697 
L 623.144556 266.039085 
L 633.403766 266.062763 
L 643.662977 266.039085 
L 653.922187 265.802308 
L 664.181398 265.920697 
L 674.440609 266.062763 
L 684.699819 266.039085 
L 694.95903 266.062763 
L 705.21824 265.849664 
L 715.477451 265.920697 
L 725.736661 266.062763 
L 735.995872 265.897019 
L 746.255082 266.062763 
L 756.514293 266.015408 
L 766.773503 266.039085 
L 777.032714 266.062763 
L 787.291924 266.039085 
L 797.551135 266.062763 
L 807.810345 265.849664 
L 818.069556 265.99173 
L 828.328766 266.086441 
L 838.587977 266.062763 
L 848.847187 265.873341 
" clip-path="url(#p92c6ac18a7)" style="fill: none; stroke-dasharray: 4.44,1.92; stroke-dashoffset: 0; stroke: #9467bd; stroke-opacity: 0.9; stroke-width: 1.2"/>
   </g>
   <g id="line2d_68">
    <path d="M 458.997187 265.47082 
L 469.256398 265.447143 
L 479.515609 265.660242 
L 489.774819 265.47082 
L 500.03403 265.494498 
L 510.29324 265.778631 
L 520.552451 265.612887 
L 530.811661 265.636564 
L 541.070872 265.68392 
L 551.330082 265.447143 
L 561.589293 265.660242 
L 571.848503 265.494498 
L 582.107714 265.541853 
L 592.366924 265.802308 
L 602.626135 265.399787 
L 612.885345 265.660242 
L 623.144556 265.47082 
L 633.403766 265.636564 
L 643.662977 265.754953 
L 653.922187 265.328754 
L 664.181398 265.47082 
L 674.440609 265.589209 
L 684.699819 265.612887 
L 694.95903 265.802308 
L 705.21824 265.47082 
L 715.477451 265.589209 
L 725.736661 265.802308 
L 735.995872 265.660242 
L 746.255082 265.802308 
L 756.514293 265.612887 
L 766.773503 265.589209 
L 777.032714 265.825986 
L 787.291924 265.660242 
L 797.551135 265.660242 
L 807.810345 265.589209 
L 818.069556 265.565531 
L 828.328766 265.802308 
L 838.587977 265.636564 
L 848.847187 265.234043 
" clip-path="url(#p92c6ac18a7)" style="fill: none; stroke-dasharray: 4.44,1.92; stroke-dashoffset: 0; stroke: #8c564b; stroke-opacity: 0.9; stroke-width: 1.2"/>
   </g>
   <g id="line2d_69">
    <path d="M 458.997187 266.015408 
L 469.256398 266.228507 
L 479.515609 266.417929 
L 489.774819 265.565531 
L 500.03403 265.305076 
L 510.29324 265.636564 
L 520.552451 265.636564 
L 530.811661 265.731275 
L 541.070872 266.015408 
L 551.330082 265.518176 
L 561.589293 265.99173 
L 571.848503 265.612887 
L 582.107714 265.660242 
L 592.366924 266.062763 
L 602.626135 265.944374 
L 612.885345 266.275862 
L 623.144556 266.181151 
L 633.403766 266.204829 
L 643.662977 266.441606 
L 653.922187 265.944374 
L 664.181398 265.944374 
L 674.440609 265.612887 
L 684.699819 265.589209 
L 694.95903 266.062763 
L 705.21824 265.399787 
L 715.477451 265.636564 
L 725.736661 265.968052 
L 735.995872 265.234043 
L 746.255082 264.665778 
L 756.514293 265.494498 
L 766.773503 265.565531 
L 777.032714 266.039085 
L 787.291924 265.636564 
L 797.551135 265.68392 
L 807.810345 265.044622 
L 818.069556 265.612887 
L 828.328766 266.039085 
L 838.587977 265.660242 
L 848.847187 265.352432 
" clip-path="url(#p92c6ac18a7)" style="fill: none; stroke-dasharray: 4.44,1.92; stroke-dashoffset: 0; stroke: #e377c2; stroke-opacity: 0.9; stroke-width: 1.2"/>
   </g>
   <g id="line2d_70">
    <path d="M 458.997187 265.849664 
L 469.256398 265.920697 
L 479.515609 265.944374 
L 489.774819 265.944374 
L 500.03403 265.873341 
L 510.29324 265.328754 
L 520.552451 265.257721 
L 530.811661 265.352432 
L 541.070872 265.37611 
L 551.330082 265.873341 
L 561.589293 265.873341 
L 571.848503 265.920697 
L 582.107714 265.897019 
L 592.366924 265.968052 
L 602.626135 265.091977 
L 612.885345 265.186688 
L 623.144556 265.115655 
L 633.403766 265.37611 
L 643.662977 265.328754 
L 653.922187 265.68392 
L 664.181398 265.754953 
L 674.440609 265.944374 
L 684.699819 265.897019 
L 694.95903 265.944374 
L 705.21824 265.707597 
L 715.477451 265.825986 
L 725.736661 265.944374 
L 735.995872 265.920697 
L 746.255082 265.920697 
L 756.514293 265.849664 
L 766.773503 265.873341 
L 777.032714 265.968052 
L 787.291924 265.920697 
L 797.551135 265.920697 
L 807.810345 265.731275 
L 818.069556 265.825986 
L 828.328766 265.920697 
L 838.587977 265.873341 
L 848.847187 265.37611 
" clip-path="url(#p92c6ac18a7)" style="fill: none; stroke-dasharray: 4.44,1.92; stroke-dashoffset: 0; stroke: #7f7f7f; stroke-opacity: 0.9; stroke-width: 1.2"/>
   </g>
   <g id="patch_10">
    <path d="M 458.997187 278.389375 
L 458.997187 21.789375 
" style="fill: none; stroke: #cccccc; stroke-width: 0.8; stroke-linejoin: miter; stroke-linecap: square"/>
   </g>
   <g id="patch_11">
    <path d="M 848.847187 278.389375 
L 848.847187 21.789375 
" style="fill: none; stroke: #cccccc; stroke-width: 0.8; stroke-linejoin: miter; stroke-linecap: square"/>
   </g>
   <g id="patch_12">
    <path d="M 458.997187 278.389375 
L 848.847187 278.389375 
" style="fill: none; stroke: #cccccc; stroke-width: 0.8; stroke-linejoin: miter; stroke-linecap: square"/>
   </g>
   <g id="patch_13">
    <path d="M 458.997187 21.789375 
L 848.847187 21.789375 
" style="fill: none; stroke: #cccccc; stroke-width: 0.8; stroke-linejoin: miter; stroke-linecap: square"/>
   </g>
   <g id="text_40">
    <!-- PE019 — PC2 1 core -->
    <g style="fill: #262626" transform="translate(596.56125 15.789375) scale(0.12 -0.12)">
     <use xlink:href="#ArialMT-50"/>
     <use xlink:href="#ArialMT-45" transform="translate(66.699219 0)"/>
     <use xlink:href="#ArialMT-30" transform="translate(133.398438 0)"/>
     <use xlink:href="#ArialMT-31" transform="translate(189.013672 0)"/>
     <use xlink:href="#ArialMT-39" transform="translate(244.628906 0)"/>
     <use xlink:href="#ArialMT-20" transform="translate(300.244141 0)"/>
     <use xlink:href="#ArialMT-2014" transform="translate(328.027344 0)"/>
     <use xlink:href="#ArialMT-20" transform="translate(428.027344 0)"/>
     <use xlink:href="#ArialMT-50" transform="translate(455.810547 0)"/>
     <use xlink:href="#ArialMT-43" transform="translate(522.509766 0)"/>
     <use xlink:href="#ArialMT-32" transform="translate(594.726562 0)"/>
     <use xlink:href="#ArialMT-20" transform="translate(650.341797 0)"/>
     <use xlink:href="#ArialMT-31" transform="translate(678.125 0)"/>
     <use xlink:href="#ArialMT-20" transform="translate(733.740234 0)"/>
     <use xlink:href="#ArialMT-63" transform="translate(761.523438 0)"/>
     <use xlink:href="#ArialMT-6f" transform="translate(811.523438 0)"/>
     <use xlink:href="#ArialMT-72" transform="translate(867.138672 0)"/>
     <use xlink:href="#ArialMT-65" transform="translate(900.439453 0)"/>
    </g>
   </g>
   <g id="legend_3">
    <g id="patch_14">
     <path d="M 732.122187 85.685156 
L 843.247187 85.685156 
Q 844.847188 85.685156 844.847188 84.085156 
L 844.847188 27.389375 
Q 844.847188 25.789375 843.247187 25.789375 
L 732.122187 25.789375 
Q 730.522187 25.789375 730.522187 27.389375 
L 730.522187 84.085156 
Q 730.522187 85.685156 732.122187 85.685156 
z
" style="fill: #ffffff; opacity: 0.8; stroke: #cccccc; stroke-linejoin: miter"/>
    </g>
    <g id="text_41">
     <!-- CPU -->
     <g style="fill: #262626" transform="translate(778.183359 35.431406) scale(0.09 -0.09)">
      <use xlink:href="#ArialMT-43"/>
      <use xlink:href="#ArialMT-50" transform="translate(72.216797 0)"/>
      <use xlink:href="#ArialMT-55" transform="translate(138.916016 0)"/>
     </g>
    </g>
    <g id="line2d_71">
     <path d="M 733.722188 44.146406 
L 741.722188 44.146406 
L 749.722188 44.146406 
" style="fill: none; stroke: #1f77b4; stroke-width: 2; stroke-linecap: round"/>
    </g>
    <g id="text_42">
     <!-- CPU 0 -->
     <g style="fill: #262626" transform="translate(756.122187 46.946406) scale(0.08 -0.08)">
      <use xlink:href="#ArialMT-43"/>
      <use xlink:href="#ArialMT-50" transform="translate(72.216797 0)"/>
      <use xlink:href="#ArialMT-55" transform="translate(138.916016 0)"/>
      <use xlink:href="#ArialMT-20" transform="translate(211.132812 0)"/>
      <use xlink:href="#ArialMT-30" transform="translate(238.916016 0)"/>
     </g>
    </g>
    <g id="line2d_72">
     <path d="M 733.722188 55.462656 
L 741.722188 55.462656 
L 749.722188 55.462656 
" style="fill: none; stroke: #ff7f0e; stroke-width: 2; stroke-linecap: round"/>
    </g>
    <g id="text_43">
     <!-- CPU 1 -->
     <g style="fill: #262626" transform="translate(756.122187 58.262656) scale(0.08 -0.08)">
      <use xlink:href="#ArialMT-43"/>
      <use xlink:href="#ArialMT-50" transform="translate(72.216797 0)"/>
      <use xlink:href="#ArialMT-55" transform="translate(138.916016 0)"/>
      <use xlink:href="#ArialMT-20" transform="translate(211.132812 0)"/>
      <use xlink:href="#ArialMT-31" transform="translate(238.916016 0)"/>
     </g>
    </g>
    <g id="line2d_73">
     <path d="M 733.722188 66.778906 
L 741.722188 66.778906 
L 749.722188 66.778906 
" style="fill: none; stroke: #2ca02c; stroke-width: 2; stroke-linecap: round"/>
    </g>
    <g id="text_44">
     <!-- CPU 2 -->
     <g style="fill: #262626" transform="translate(756.122187 69.578906) scale(0.08 -0.08)">
      <use xlink:href="#ArialMT-43"/>
      <use xlink:href="#ArialMT-50" transform="translate(72.216797 0)"/>
      <use xlink:href="#ArialMT-55" transform="translate(138.916016 0)"/>
      <use xlink:href="#ArialMT-20" transform="translate(211.132812 0)"/>
      <use xlink:href="#ArialMT-32" transform="translate(238.916016 0)"/>
     </g>
    </g>
    <g id="line2d_74">
     <path d="M 733.722188 78.095156 
L 741.722188 78.095156 
L 749.722188 78.095156 
" style="fill: none; stroke: #d62728; stroke-width: 2; stroke-linecap: round"/>
    </g>
    <g id="text_45">
     <!-- CPU 3 -->
     <g style="fill: #262626" transform="translate(756.122187 80.895156) scale(0.08 -0.08)">
      <use xlink:href="#ArialMT-43"/>
      <use xlink:href="#ArialMT-50" transform="translate(72.216797 0)"/>
      <use xlink:href="#ArialMT-55" transform="translate(138.916016 0)"/>
      <use xlink:href="#ArialMT-20" transform="translate(211.132812 0)"/>
      <use xlink:href="#ArialMT-33" transform="translate(238.916016 0)"/>
     </g>
    </g>
    <g id="line2d_75">
     <path d="M 795.684687 44.146406 
L 803.684687 44.146406 
L 811.684687 44.146406 
" style="fill: none; stroke: #9467bd; stroke-width: 2; stroke-linecap: round"/>
    </g>
    <g id="text_46">
     <!-- CPU 4 -->
     <g style="fill: #262626" transform="translate(818.084687 46.946406) scale(0.08 -0.08)">
      <use xlink:href="#ArialMT-43"/>
      <use xlink:href="#ArialMT-50" transform="translate(72.216797 0)"/>
      <use xlink:href="#ArialMT-55" transform="translate(138.916016 0)"/>
      <use xlink:href="#ArialMT-20" transform="translate(211.132812 0)"/>
      <use xlink:href="#ArialMT-34" transform="translate(238.916016 0)"/>
     </g>
    </g>
    <g id="line2d_76">
     <path d="M 795.684687 55.462656 
L 803.684687 55.462656 
L 811.684687 55.462656 
" style="fill: none; stroke: #8c564b; stroke-width: 2; stroke-linecap: round"/>
    </g>
    <g id="text_47">
     <!-- CPU 5 -->
     <g style="fill: #262626" transform="translate(818.084687 58.262656) scale(0.08 -0.08)">
      <use xlink:href="#ArialMT-43"/>
      <use xlink:href="#ArialMT-50" transform="translate(72.216797 0)"/>
      <use xlink:href="#ArialMT-55" transform="translate(138.916016 0)"/>
      <use xlink:href="#ArialMT-20" transform="translate(211.132812 0)"/>
      <use xlink:href="#ArialMT-35" transform="translate(238.916016 0)"/>
     </g>
    </g>
    <g id="line2d_77">
     <path d="M 795.684687 66.778906 
L 803.684687 66.778906 
L 811.684687 66.778906 
" style="fill: none; stroke: #e377c2; stroke-width: 2; stroke-linecap: round"/>
    </g>
    <g id="text_48">
     <!-- CPU 6 -->
     <g style="fill: #262626" transform="translate(818.084687 69.578906) scale(0.08 -0.08)">
      <use xlink:href="#ArialMT-43"/>
      <use xlink:href="#ArialMT-50" transform="translate(72.216797 0)"/>
      <use xlink:href="#ArialMT-55" transform="translate(138.916016 0)"/>
      <use xlink:href="#ArialMT-20" transform="translate(211.132812 0)"/>
      <use xlink:href="#ArialMT-36" transform="translate(238.916016 0)"/>
     </g>
    </g>
    <g id="line2d_78">
     <path d="M 795.684687 78.095156 
L 803.684687 78.095156 
L 811.684687 78.095156 
" style="fill: none; stroke: #7f7f7f; stroke-width: 2; stroke-linecap: round"/>
    </g>
    <g id="text_49">
     <!-- CPU 7 -->
     <g style="fill: #262626" transform="translate(818.084687 80.895156) scale(0.08 -0.08)">
      <use xlink:href="#ArialMT-43"/>
      <use xlink:href="#ArialMT-50" transform="translate(72.216797 0)"/>
      <use xlink:href="#ArialMT-55" transform="translate(138.916016 0)"/>
      <use xlink:href="#ArialMT-20" transform="translate(211.132812 0)"/>
      <use xlink:href="#ArialMT-37" transform="translate(238.916016 0)"/>
     </g>
    </g>
   </g>
   <g id="legend_4">
    <g id="patch_15">
     <path d="M 464.597187 63.240156 
L 515.543437 63.240156 
Q 517.143437 63.240156 517.143437 61.640156 
L 517.143437 27.389375 
Q 517.143437 25.789375 515.543437 25.789375 
L 464.597187 25.789375 
Q 462.997187 25.789375 462.997187 27.389375 
L 462.997187 61.640156 
Q 462.997187 63.240156 464.597187 63.240156 
z
" style="fill: #ffffff; opacity: 0.8; stroke: #cccccc; stroke-linejoin: miter"/>
    </g>
    <g id="text_50">
     <!-- Variant -->
     <g style="fill: #262626" transform="translate(476.144922 35.431406) scale(0.09 -0.09)">
      <use xlink:href="#ArialMT-56"/>
      <use xlink:href="#ArialMT-61" transform="translate(59.324219 0)"/>
      <use xlink:href="#ArialMT-72" transform="translate(114.939453 0)"/>
      <use xlink:href="#ArialMT-69" transform="translate(148.240234 0)"/>
      <use xlink:href="#ArialMT-61" transform="translate(170.457031 0)"/>
      <use xlink:href="#ArialMT-6e" transform="translate(226.072266 0)"/>
      <use xlink:href="#ArialMT-74" transform="translate(281.6875 0)"/>
     </g>
    </g>
    <g id="line2d_79">
     <path d="M 466.197187 44.146406 
L 474.197187 44.146406 
L 482.197187 44.146406 
" style="fill: none; stroke: #333333; stroke-width: 2; stroke-linecap: round"/>
    </g>
    <g id="text_51">
     <!-- queryA -->
     <g style="fill: #262626" transform="translate(488.597187 46.946406) scale(0.08 -0.08)">
      <use xlink:href="#ArialMT-71"/>
      <use xlink:href="#ArialMT-75" transform="translate(55.615234 0)"/>
      <use xlink:href="#ArialMT-65" transform="translate(111.230469 0)"/>
      <use xlink:href="#ArialMT-72" transform="translate(166.845703 0)"/>
      <use xlink:href="#ArialMT-79" transform="translate(200.146484 0)"/>
      <use xlink:href="#ArialMT-41" transform="translate(250.146484 0)"/>
     </g>
    </g>
    <g id="line2d_80">
     <path d="M 466.197187 55.556406 
L 474.197187 55.556406 
L 482.197187 55.556406 
" style="fill: none; stroke-dasharray: 7.4,3.2; stroke-dashoffset: 0; stroke: #333333; stroke-width: 2"/>
    </g>
    <g id="text_52">
     <!-- queryB -->
     <g style="fill: #262626" transform="translate(488.597187 58.356406) scale(0.08 -0.08)">
      <use xlink:href="#ArialMT-71"/>
      <use xlink:href="#ArialMT-75" transform="translate(55.615234 0)"/>
      <use xlink:href="#ArialMT-65" transform="translate(111.230469 0)"/>
      <use xlink:href="#ArialMT-72" transform="translate(166.845703 0)"/>
      <use xlink:href="#ArialMT-79" transform="translate(200.146484 0)"/>
      <use xlink:href="#ArialMT-42" transform="translate(250.146484 0)"/>
     </g>
    </g>
   </g>
  </g>
 </g>
 <defs>
  <clipPath id="padaa72e302">
   <rect x="44.267188" y="21.789375" width="389.85" height="256.6"/>
  </clipPath>
  <clipPath id="p92c6ac18a7">
   <rect x="458.997187" y="21.789375" width="389.85" height="256.6"/>
  </clipPath>
 </defs>
</svg>
