<?xml version="1.0" encoding="utf-8" standalone="no"?>
<!DOCTYPE svg PUBLIC "-//W3C//DTD SVG 1.1//EN"
  "http://www.w3.org/Graphics/SVG/1.1/DTD/svg11.dtd">
<svg xmlns:xlink="http://www.w3.org/1999/xlink" width="856.047187pt" height="315.119063pt" viewBox="0 0 856.047187 315.119063" xmlns="http://www.w3.org/2000/svg" version="1.1">
 <metadata>
  <rdf:RDF xmlns:dc="http://purl.org/dc/elements/1.1/" xmlns:cc="http://creativecommons.org/ns#" xmlns:rdf="http://www.w3.org/1999/02/22-rdf-syntax-ns#">
   <cc:Work>
    <dc:type rdf:resource="http://purl.org/dc/dcmitype/StillImage"/>
    <dc:date>2026-05-26T16:50:37.463490</dc:date>
    <dc:format>image/svg+xml</dc:format>
    <dc:creator>
     <cc:Agent>
      <dc:title>Matplotlib v3.10.1, https://matplotlib.org/</dc:title>
     </cc:Agent>
    </dc:creator>
   </cc:Work>
  </rdf:RDF>
 </metadata>
 <defs>
  <style type="text/css">*{stroke-linejoin: round; stroke-linecap: butt}</style>
 </defs>
 <g id="figure_1">
  <g id="patch_1">
   <path d="M 0 315.119063 
L 856.047187 315.119063 
L 856.047187 0 
L 0 0 
z
" style="fill: #ffffff"/>
  </g>
  <g id="axes_1">
   <g id="patch_2">
    <path d="M 44.267188 278.389375 
L 434.117188 278.389375 
L 434.117188 21.789375 
L 44.267188 21.789375 
z
" style="fill: #ffffff"/>
   </g>
   <g id="matplotlib.axis_1">
    <g id="xtick_1">
     <g id="line2d_1">
      <path d="M 44.267188 278.389375 
L 44.267188 21.789375 
" clip-path="url(#pbfb28b6d60)" style="fill: none; stroke: #cccccc; stroke-opacity: 0.2; stroke-width: 0.8; stroke-linecap: round"/>
     </g>
     <g id="text_1">
      <!-- 0 -->
      <g style="fill: #262626" transform="translate(41.486719 292.547188) scale(0.1 -0.1)">
       <defs>
        <path id="ArialMT-30" d="M 266 2259 
Q 266 3072 433 3567 
Q 600 4063 929 4331 
Q 1259 4600 1759 4600 
Q 2128 4600 2406 4451 
Q 2684 4303 2865 4023 
Q 3047 3744 3150 3342 
Q 3253 2941 3253 2259 
Q 3253 1453 3087 958 
Q 2922 463 2592 192 
Q 2263 -78 1759 -78 
Q 1097 -78 719 397 
Q 266 969 266 2259 
z
M 844 2259 
Q 844 1131 1108 757 
Q 1372 384 1759 384 
Q 2147 384 2411 759 
Q 2675 1134 2675 2259 
Q 2675 3391 2411 3762 
Q 2147 4134 1753 4134 
Q 1366 4134 1134 3806 
Q 844 3388 844 2259 
z
" transform="scale(0.015625)"/>
       </defs>
       <use xlink:href="#ArialMT-30"/>
      </g>
     </g>
    </g>
    <g id="xtick_2">
     <g id="line2d_2">
      <path d="M 111.482705 278.389375 
L 111.482705 21.789375 
" clip-path="url(#pbfb28b6d60)" style="fill: none; stroke: #cccccc; stroke-opacity: 0.2; stroke-width: 0.8; stroke-linecap: round"/>
     </g>
     <g id="text_2">
      <!-- 20 -->
      <g style="fill: #262626" transform="translate(105.921767 292.547188) scale(0.1 -0.1)">
       <defs>
        <path id="ArialMT-32" d="M 3222 541 
L 3222 0 
L 194 0 
Q 188 203 259 391 
Q 375 700 629 1000 
Q 884 1300 1366 1694 
Q 2113 2306 2375 2664 
Q 2638 3022 2638 3341 
Q 2638 3675 2398 3904 
Q 2159 4134 1775 4134 
Q 1369 4134 1125 3890 
Q 881 3647 878 3216 
L 300 3275 
Q 359 3922 746 4261 
Q 1134 4600 1788 4600 
Q 2447 4600 2831 4234 
Q 3216 3869 3216 3328 
Q 3216 3053 3103 2787 
Q 2991 2522 2730 2228 
Q 2469 1934 1863 1422 
Q 1356 997 1212 845 
Q 1069 694 975 541 
L 3222 541 
z
" transform="scale(0.015625)"/>
       </defs>
       <use xlink:href="#ArialMT-32"/>
       <use xlink:href="#ArialMT-30" transform="translate(55.615234 0)"/>
      </g>
     </g>
    </g>
    <g id="xtick_3">
     <g id="line2d_3">
      <path d="M 178.698222 278.389375 
L 178.698222 21.789375 
" clip-path="url(#pbfb28b6d60)" style="fill: none; stroke: #cccccc; stroke-opacity: 0.2; stroke-width: 0.8; stroke-linecap: round"/>
     </g>
     <g id="text_3">
      <!-- 40 -->
      <g style="fill: #262626" transform="translate(173.137284 292.547188) scale(0.1 -0.1)">
       <defs>
        <path id="ArialMT-34" d="M 2069 0 
L 2069 1097 
L 81 1097 
L 81 1613 
L 2172 4581 
L 2631 4581 
L 2631 1613 
L 3250 1613 
L 3250 1097 
L 2631 1097 
L 2631 0 
L 2069 0 
z
M 2069 1613 
L 2069 3678 
L 634 1613 
L 2069 1613 
z
" transform="scale(0.015625)"/>
       </defs>
       <use xlink:href="#ArialMT-34"/>
       <use xlink:href="#ArialMT-30" transform="translate(55.615234 0)"/>
      </g>
     </g>
    </g>
    <g id="xtick_4">
     <g id="line2d_4">
      <path d="M 245.913739 278.389375 
L 245.913739 21.789375 
" clip-path="url(#pbfb28b6d60)" style="fill: none; stroke: #cccccc; stroke-opacity: 0.2; stroke-width: 0.8; stroke-linecap: round"/>
     </g>
     <g id="text_4">
      <!-- 60 -->
      <g style="fill: #262626" transform="translate(240.352802 292.547188) scale(0.1 -0.1)">
       <defs>
        <path id="ArialMT-36" d="M 3184 3459 
L 2625 3416 
Q 2550 3747 2413 3897 
Q 2184 4138 1850 4138 
Q 1581 4138 1378 3988 
Q 1113 3794 959 3422 
Q 806 3050 800 2363 
Q 1003 2672 1297 2822 
Q 1591 2972 1913 2972 
Q 2475 2972 2870 2558 
Q 3266 2144 3266 1488 
Q 3266 1056 3080 686 
Q 2894 316 2569 119 
Q 2244 -78 1831 -78 
Q 1128 -78 684 439 
Q 241 956 241 2144 
Q 241 3472 731 4075 
Q 1159 4600 1884 4600 
Q 2425 4600 2770 4297 
Q 3116 3994 3184 3459 
z
M 888 1484 
Q 888 1194 1011 928 
Q 1134 663 1356 523 
Q 1578 384 1822 384 
Q 2178 384 2434 671 
Q 2691 959 2691 1453 
Q 2691 1928 2437 2201 
Q 2184 2475 1800 2475 
Q 1419 2475 1153 2201 
Q 888 1928 888 1484 
z
" transform="scale(0.015625)"/>
       </defs>
       <use xlink:href="#ArialMT-36"/>
       <use xlink:href="#ArialMT-30" transform="translate(55.615234 0)"/>
      </g>
     </g>
    </g>
    <g id="xtick_5">
     <g id="line2d_5">
      <path d="M 313.129256 278.389375 
L 313.129256 21.789375 
" clip-path="url(#pbfb28b6d60)" style="fill: none; stroke: #cccccc; stroke-opacity: 0.2; stroke-width: 0.8; stroke-linecap: round"/>
     </g>
     <g id="text_5">
      <!-- 80 -->
      <g style="fill: #262626" transform="translate(307.568319 292.547188) scale(0.1 -0.1)">
       <defs>
        <path id="ArialMT-38" d="M 1131 2484 
Q 781 2613 612 2850 
Q 444 3088 444 3419 
Q 444 3919 803 4259 
Q 1163 4600 1759 4600 
Q 2359 4600 2725 4251 
Q 3091 3903 3091 3403 
Q 3091 3084 2923 2848 
Q 2756 2613 2416 2484 
Q 2838 2347 3058 2040 
Q 3278 1734 3278 1309 
Q 3278 722 2862 322 
Q 2447 -78 1769 -78 
Q 1091 -78 675 323 
Q 259 725 259 1325 
Q 259 1772 486 2073 
Q 713 2375 1131 2484 
z
M 1019 3438 
Q 1019 3113 1228 2906 
Q 1438 2700 1772 2700 
Q 2097 2700 2305 2904 
Q 2513 3109 2513 3406 
Q 2513 3716 2298 3927 
Q 2084 4138 1766 4138 
Q 1444 4138 1231 3931 
Q 1019 3725 1019 3438 
z
M 838 1322 
Q 838 1081 952 856 
Q 1066 631 1291 507 
Q 1516 384 1775 384 
Q 2178 384 2440 643 
Q 2703 903 2703 1303 
Q 2703 1709 2433 1975 
Q 2163 2241 1756 2241 
Q 1359 2241 1098 1978 
Q 838 1716 838 1322 
z
" transform="scale(0.015625)"/>
       </defs>
       <use xlink:href="#ArialMT-38"/>
       <use xlink:href="#ArialMT-30" transform="translate(55.615234 0)"/>
      </g>
     </g>
    </g>
    <g id="xtick_6">
     <g id="line2d_6">
      <path d="M 380.344774 278.389375 
L 380.344774 21.789375 
" clip-path="url(#pbfb28b6d60)" style="fill: none; stroke: #cccccc; stroke-opacity: 0.2; stroke-width: 0.8; stroke-linecap: round"/>
     </g>
     <g id="text_6">
      <!-- 100 -->
      <g style="fill: #262626" transform="translate(372.003367 292.547188) scale(0.1 -0.1)">
       <defs>
        <path id="ArialMT-31" d="M 2384 0 
L 1822 0 
L 1822 3584 
Q 1619 3391 1289 3197 
Q 959 3003 697 2906 
L 697 3450 
Q 1169 3672 1522 3987 
Q 1875 4303 2022 4600 
L 2384 4600 
L 2384 0 
z
" transform="scale(0.015625)"/>
       </defs>
       <use xlink:href="#ArialMT-31"/>
       <use xlink:href="#ArialMT-30" transform="translate(55.615234 0)"/>
       <use xlink:href="#ArialMT-30" transform="translate(111.230469 0)"/>
      </g>
     </g>
    </g>
    <g id="text_7">
     <!-- Elapsed Time (sec) -->
     <g style="fill: #262626" transform="translate(196.400781 305.814375) scale(0.1 -0.1)">
      <defs>
       <path id="ArialMT-45" d="M 506 0 
L 506 4581 
L 3819 4581 
L 3819 4041 
L 1113 4041 
L 1113 2638 
L 3647 2638 
L 3647 2100 
L 1113 2100 
L 1113 541 
L 3925 541 
L 3925 0 
L 506 0 
z
" transform="scale(0.015625)"/>
       <path id="ArialMT-6c" d="M 409 0 
L 409 4581 
L 972 4581 
L 972 0 
L 409 0 
z
" transform="scale(0.015625)"/>
       <path id="ArialMT-61" d="M 2588 409 
Q 2275 144 1986 34 
Q 1697 -75 1366 -75 
Q 819 -75 525 192 
Q 231 459 231 875 
Q 231 1119 342 1320 
Q 453 1522 633 1644 
Q 813 1766 1038 1828 
Q 1203 1872 1538 1913 
Q 2219 1994 2541 2106 
Q 2544 2222 2544 2253 
Q 2544 2597 2384 2738 
Q 2169 2928 1744 2928 
Q 1347 2928 1158 2789 
Q 969 2650 878 2297 
L 328 2372 
Q 403 2725 575 2942 
Q 747 3159 1072 3276 
Q 1397 3394 1825 3394 
Q 2250 3394 2515 3294 
Q 2781 3194 2906 3042 
Q 3031 2891 3081 2659 
Q 3109 2516 3109 2141 
L 3109 1391 
Q 3109 606 3145 398 
Q 3181 191 3288 0 
L 2700 0 
Q 2613 175 2588 409 
z
M 2541 1666 
Q 2234 1541 1622 1453 
Q 1275 1403 1131 1340 
Q 988 1278 909 1158 
Q 831 1038 831 891 
Q 831 666 1001 516 
Q 1172 366 1500 366 
Q 1825 366 2078 508 
Q 2331 650 2450 897 
Q 2541 1088 2541 1459 
L 2541 1666 
z
" transform="scale(0.015625)"/>
       <path id="ArialMT-70" d="M 422 -1272 
L 422 3319 
L 934 3319 
L 934 2888 
Q 1116 3141 1344 3267 
Q 1572 3394 1897 3394 
Q 2322 3394 2647 3175 
Q 2972 2956 3137 2557 
Q 3303 2159 3303 1684 
Q 3303 1175 3120 767 
Q 2938 359 2589 142 
Q 2241 -75 1856 -75 
Q 1575 -75 1351 44 
Q 1128 163 984 344 
L 984 -1272 
L 422 -1272 
z
M 931 1641 
Q 931 1000 1190 694 
Q 1450 388 1819 388 
Q 2194 388 2461 705 
Q 2728 1022 2728 1688 
Q 2728 2322 2467 2637 
Q 2206 2953 1844 2953 
Q 1484 2953 1207 2617 
Q 931 2281 931 1641 
z
" transform="scale(0.015625)"/>
       <path id="ArialMT-73" d="M 197 991 
L 753 1078 
Q 800 744 1014 566 
Q 1228 388 1613 388 
Q 2000 388 2187 545 
Q 2375 703 2375 916 
Q 2375 1106 2209 1216 
Q 2094 1291 1634 1406 
Q 1016 1563 777 1677 
Q 538 1791 414 1992 
Q 291 2194 291 2438 
Q 291 2659 392 2848 
Q 494 3038 669 3163 
Q 800 3259 1026 3326 
Q 1253 3394 1513 3394 
Q 1903 3394 2198 3281 
Q 2494 3169 2634 2976 
Q 2775 2784 2828 2463 
L 2278 2388 
Q 2241 2644 2061 2787 
Q 1881 2931 1553 2931 
Q 1166 2931 1000 2803 
Q 834 2675 834 2503 
Q 834 2394 903 2306 
Q 972 2216 1119 2156 
Q 1203 2125 1616 2013 
Q 2213 1853 2448 1751 
Q 2684 1650 2818 1456 
Q 2953 1263 2953 975 
Q 2953 694 2789 445 
Q 2625 197 2315 61 
Q 2006 -75 1616 -75 
Q 969 -75 630 194 
Q 291 463 197 991 
z
" transform="scale(0.015625)"/>
       <path id="ArialMT-65" d="M 2694 1069 
L 3275 997 
Q 3138 488 2766 206 
Q 2394 -75 1816 -75 
Q 1088 -75 661 373 
Q 234 822 234 1631 
Q 234 2469 665 2931 
Q 1097 3394 1784 3394 
Q 2450 3394 2872 2941 
Q 3294 2488 3294 1666 
Q 3294 1616 3291 1516 
L 816 1516 
Q 847 969 1125 678 
Q 1403 388 1819 388 
Q 2128 388 2347 550 
Q 2566 713 2694 1069 
z
M 847 1978 
L 2700 1978 
Q 2663 2397 2488 2606 
Q 2219 2931 1791 2931 
Q 1403 2931 1139 2672 
Q 875 2413 847 1978 
z
" transform="scale(0.015625)"/>
       <path id="ArialMT-64" d="M 2575 0 
L 2575 419 
Q 2259 -75 1647 -75 
Q 1250 -75 917 144 
Q 584 363 401 755 
Q 219 1147 219 1656 
Q 219 2153 384 2558 
Q 550 2963 881 3178 
Q 1213 3394 1622 3394 
Q 1922 3394 2156 3267 
Q 2391 3141 2538 2938 
L 2538 4581 
L 3097 4581 
L 3097 0 
L 2575 0 
z
M 797 1656 
Q 797 1019 1065 703 
Q 1334 388 1700 388 
Q 2069 388 2326 689 
Q 2584 991 2584 1609 
Q 2584 2291 2321 2609 
Q 2059 2928 1675 2928 
Q 1300 2928 1048 2622 
Q 797 2316 797 1656 
z
" transform="scale(0.015625)"/>
       <path id="ArialMT-20" transform="scale(0.015625)"/>
       <path id="ArialMT-54" d="M 1659 0 
L 1659 4041 
L 150 4041 
L 150 4581 
L 3781 4581 
L 3781 4041 
L 2266 4041 
L 2266 0 
L 1659 0 
z
" transform="scale(0.015625)"/>
       <path id="ArialMT-69" d="M 425 3934 
L 425 4581 
L 988 4581 
L 988 3934 
L 425 3934 
z
M 425 0 
L 425 3319 
L 988 3319 
L 988 0 
L 425 0 
z
" transform="scale(0.015625)"/>
       <path id="ArialMT-6d" d="M 422 0 
L 422 3319 
L 925 3319 
L 925 2853 
Q 1081 3097 1340 3245 
Q 1600 3394 1931 3394 
Q 2300 3394 2536 3241 
Q 2772 3088 2869 2813 
Q 3263 3394 3894 3394 
Q 4388 3394 4653 3120 
Q 4919 2847 4919 2278 
L 4919 0 
L 4359 0 
L 4359 2091 
Q 4359 2428 4304 2576 
Q 4250 2725 4106 2815 
Q 3963 2906 3769 2906 
Q 3419 2906 3187 2673 
Q 2956 2441 2956 1928 
L 2956 0 
L 2394 0 
L 2394 2156 
Q 2394 2531 2256 2718 
Q 2119 2906 1806 2906 
Q 1569 2906 1367 2781 
Q 1166 2656 1075 2415 
Q 984 2175 984 1722 
L 984 0 
L 422 0 
z
" transform="scale(0.015625)"/>
       <path id="ArialMT-28" d="M 1497 -1347 
Q 1031 -759 709 28 
Q 388 816 388 1659 
Q 388 2403 628 3084 
Q 909 3875 1497 4659 
L 1900 4659 
Q 1522 4009 1400 3731 
Q 1209 3300 1100 2831 
Q 966 2247 966 1656 
Q 966 153 1900 -1347 
L 1497 -1347 
z
" transform="scale(0.015625)"/>
       <path id="ArialMT-63" d="M 2588 1216 
L 3141 1144 
Q 3050 572 2676 248 
Q 2303 -75 1759 -75 
Q 1078 -75 664 370 
Q 250 816 250 1647 
Q 250 2184 428 2587 
Q 606 2991 970 3192 
Q 1334 3394 1763 3394 
Q 2303 3394 2647 3120 
Q 2991 2847 3088 2344 
L 2541 2259 
Q 2463 2594 2264 2762 
Q 2066 2931 1784 2931 
Q 1359 2931 1093 2626 
Q 828 2322 828 1663 
Q 828 994 1084 691 
Q 1341 388 1753 388 
Q 2084 388 2306 591 
Q 2528 794 2588 1216 
z
" transform="scale(0.015625)"/>
       <path id="ArialMT-29" d="M 791 -1347 
L 388 -1347 
Q 1322 153 1322 1656 
Q 1322 2244 1188 2822 
Q 1081 3291 891 3722 
Q 769 4003 388 4659 
L 791 4659 
Q 1378 3875 1659 3084 
Q 1900 2403 1900 1659 
Q 1900 816 1576 28 
Q 1253 -759 791 -1347 
z
" transform="scale(0.015625)"/>
      </defs>
      <use xlink:href="#ArialMT-45"/>
      <use xlink:href="#ArialMT-6c" transform="translate(66.699219 0)"/>
      <use xlink:href="#ArialMT-61" transform="translate(88.916016 0)"/>
      <use xlink:href="#ArialMT-70" transform="translate(144.53125 0)"/>
      <use xlink:href="#ArialMT-73" transform="translate(200.146484 0)"/>
      <use xlink:href="#ArialMT-65" transform="translate(250.146484 0)"/>
      <use xlink:href="#ArialMT-64" transform="translate(305.761719 0)"/>
      <use xlink:href="#ArialMT-20" transform="translate(361.376953 0)"/>
      <use xlink:href="#ArialMT-54" transform="translate(387.410156 0)"/>
      <use xlink:href="#ArialMT-69" transform="translate(444.744141 0)"/>
      <use xlink:href="#ArialMT-6d" transform="translate(466.960938 0)"/>
      <use xlink:href="#ArialMT-65" transform="translate(550.261719 0)"/>
      <use xlink:href="#ArialMT-20" transform="translate(605.876953 0)"/>
      <use xlink:href="#ArialMT-28" transform="translate(633.660156 0)"/>
      <use xlink:href="#ArialMT-73" transform="translate(666.960938 0)"/>
      <use xlink:href="#ArialMT-65" transform="translate(716.960938 0)"/>
      <use xlink:href="#ArialMT-63" transform="translate(772.576172 0)"/>
      <use xlink:href="#ArialMT-29" transform="translate(822.576172 0)"/>
     </g>
    </g>
   </g>
   <g id="matplotlib.axis_2">
    <g id="ytick_1">
     <g id="line2d_7">
      <path d="M 44.267188 269.302424 
L 434.117188 269.302424 
" clip-path="url(#pbfb28b6d60)" style="fill: none; stroke: #cccccc; stroke-opacity: 0.2; stroke-width: 0.8; stroke-linecap: round"/>
     </g>
     <g id="text_8">
      <!-- 0 -->
      <g style="fill: #262626" transform="translate(31.70625 272.88133) scale(0.1 -0.1)">
       <use xlink:href="#ArialMT-30"/>
      </g>
     </g>
    </g>
    <g id="ytick_2">
     <g id="line2d_8">
      <path d="M 44.267188 222.0238 
L 434.117188 222.0238 
" clip-path="url(#pbfb28b6d60)" style="fill: none; stroke: #cccccc; stroke-opacity: 0.2; stroke-width: 0.8; stroke-linecap: round"/>
     </g>
     <g id="text_9">
      <!-- 20 -->
      <g style="fill: #262626" transform="translate(26.145313 225.602707) scale(0.1 -0.1)">
       <use xlink:href="#ArialMT-32"/>
       <use xlink:href="#ArialMT-30" transform="translate(55.615234 0)"/>
      </g>
     </g>
    </g>
    <g id="ytick_3">
     <g id="line2d_9">
      <path d="M 44.267188 174.745177 
L 434.117188 174.745177 
" clip-path="url(#pbfb28b6d60)" style="fill: none; stroke: #cccccc; stroke-opacity: 0.2; stroke-width: 0.8; stroke-linecap: round"/>
     </g>
     <g id="text_10">
      <!-- 40 -->
      <g style="fill: #262626" transform="translate(26.145313 178.324083) scale(0.1 -0.1)">
       <use xlink:href="#ArialMT-34"/>
       <use xlink:href="#ArialMT-30" transform="translate(55.615234 0)"/>
      </g>
     </g>
    </g>
    <g id="ytick_4">
     <g id="line2d_10">
      <path d="M 44.267188 127.466554 
L 434.117188 127.466554 
" clip-path="url(#pbfb28b6d60)" style="fill: none; stroke: #cccccc; stroke-opacity: 0.2; stroke-width: 0.8; stroke-linecap: round"/>
     </g>
     <g id="text_11">
      <!-- 60 -->
      <g style="fill: #262626" transform="translate(26.145313 131.04546) scale(0.1 -0.1)">
       <use xlink:href="#ArialMT-36"/>
       <use xlink:href="#ArialMT-30" transform="translate(55.615234 0)"/>
      </g>
     </g>
    </g>
    <g id="ytick_5">
     <g id="line2d_11">
      <path d="M 44.267188 80.18793 
L 434.117188 80.18793 
" clip-path="url(#pbfb28b6d60)" style="fill: none; stroke: #cccccc; stroke-opacity: 0.2; stroke-width: 0.8; stroke-linecap: round"/>
     </g>
     <g id="text_12">
      <!-- 80 -->
      <g style="fill: #262626" transform="translate(26.145313 83.766837) scale(0.1 -0.1)">
       <use xlink:href="#ArialMT-38"/>
       <use xlink:href="#ArialMT-30" transform="translate(55.615234 0)"/>
      </g>
     </g>
    </g>
    <g id="ytick_6">
     <g id="line2d_12">
      <path d="M 44.267188 32.909307 
L 434.117188 32.909307 
" clip-path="url(#pbfb28b6d60)" style="fill: none; stroke: #cccccc; stroke-opacity: 0.2; stroke-width: 0.8; stroke-linecap: round"/>
     </g>
     <g id="text_13">
      <!-- 100 -->
      <g style="fill: #262626" transform="translate(20.584375 36.488213) scale(0.1 -0.1)">
       <use xlink:href="#ArialMT-31"/>
       <use xlink:href="#ArialMT-30" transform="translate(55.615234 0)"/>
       <use xlink:href="#ArialMT-30" transform="translate(111.230469 0)"/>
      </g>
     </g>
    </g>
    <g id="text_14">
     <!-- Busy% -->
     <g style="fill: #262626" transform="translate(14.479688 165.651094) rotate(-90) scale(0.1 -0.1)">
      <defs>
       <path id="ArialMT-42" d="M 469 0 
L 469 4581 
L 2188 4581 
Q 2713 4581 3030 4442 
Q 3347 4303 3526 4014 
Q 3706 3725 3706 3409 
Q 3706 3116 3547 2856 
Q 3388 2597 3066 2438 
Q 3481 2316 3704 2022 
Q 3928 1728 3928 1328 
Q 3928 1006 3792 729 
Q 3656 453 3456 303 
Q 3256 153 2954 76 
Q 2653 0 2216 0 
L 469 0 
z
M 1075 2656 
L 2066 2656 
Q 2469 2656 2644 2709 
Q 2875 2778 2992 2937 
Q 3109 3097 3109 3338 
Q 3109 3566 3000 3739 
Q 2891 3913 2687 3977 
Q 2484 4041 1991 4041 
L 1075 4041 
L 1075 2656 
z
M 1075 541 
L 2216 541 
Q 2509 541 2628 563 
Q 2838 600 2978 687 
Q 3119 775 3209 942 
Q 3300 1109 3300 1328 
Q 3300 1584 3169 1773 
Q 3038 1963 2805 2039 
Q 2572 2116 2134 2116 
L 1075 2116 
L 1075 541 
z
" transform="scale(0.015625)"/>
       <path id="ArialMT-75" d="M 2597 0 
L 2597 488 
Q 2209 -75 1544 -75 
Q 1250 -75 995 37 
Q 741 150 617 320 
Q 494 491 444 738 
Q 409 903 409 1263 
L 409 3319 
L 972 3319 
L 972 1478 
Q 972 1038 1006 884 
Q 1059 663 1231 536 
Q 1403 409 1656 409 
Q 1909 409 2131 539 
Q 2353 669 2445 892 
Q 2538 1116 2538 1541 
L 2538 3319 
L 3100 3319 
L 3100 0 
L 2597 0 
z
" transform="scale(0.015625)"/>
       <path id="ArialMT-79" d="M 397 -1278 
L 334 -750 
Q 519 -800 656 -800 
Q 844 -800 956 -737 
Q 1069 -675 1141 -563 
Q 1194 -478 1313 -144 
Q 1328 -97 1363 -6 
L 103 3319 
L 709 3319 
L 1400 1397 
Q 1534 1031 1641 628 
Q 1738 1016 1872 1384 
L 2581 3319 
L 3144 3319 
L 1881 -56 
Q 1678 -603 1566 -809 
Q 1416 -1088 1222 -1217 
Q 1028 -1347 759 -1347 
Q 597 -1347 397 -1278 
z
" transform="scale(0.015625)"/>
       <path id="ArialMT-25" d="M 372 3481 
Q 372 3972 619 4315 
Q 866 4659 1334 4659 
Q 1766 4659 2048 4351 
Q 2331 4044 2331 3447 
Q 2331 2866 2045 2552 
Q 1759 2238 1341 2238 
Q 925 2238 648 2547 
Q 372 2856 372 3481 
z
M 1350 4272 
Q 1141 4272 1002 4090 
Q 863 3909 863 3425 
Q 863 2984 1003 2804 
Q 1144 2625 1350 2625 
Q 1563 2625 1702 2806 
Q 1841 2988 1841 3469 
Q 1841 3913 1700 4092 
Q 1559 4272 1350 4272 
z
M 1353 -169 
L 3859 4659 
L 4316 4659 
L 1819 -169 
L 1353 -169 
z
M 3334 1075 
Q 3334 1569 3581 1911 
Q 3828 2253 4300 2253 
Q 4731 2253 5014 1945 
Q 5297 1638 5297 1041 
Q 5297 459 5011 145 
Q 4725 -169 4303 -169 
Q 3888 -169 3611 142 
Q 3334 453 3334 1075 
z
M 4316 1866 
Q 4103 1866 3964 1684 
Q 3825 1503 3825 1019 
Q 3825 581 3965 400 
Q 4106 219 4313 219 
Q 4528 219 4667 400 
Q 4806 581 4806 1063 
Q 4806 1506 4665 1686 
Q 4525 1866 4316 1866 
z
" transform="scale(0.015625)"/>
      </defs>
      <use xlink:href="#ArialMT-42"/>
      <use xlink:href="#ArialMT-75" transform="translate(66.699219 0)"/>
      <use xlink:href="#ArialMT-73" transform="translate(122.314453 0)"/>
      <use xlink:href="#ArialMT-79" transform="translate(172.314453 0)"/>
      <use xlink:href="#ArialMT-25" transform="translate(222.314453 0)"/>
     </g>
    </g>
   </g>
   <g id="line2d_13">
    <path d="M 44.267188 145.290595 
L 47.627963 195.713246 
L 50.988739 227.413563 
L 54.349515 160.514311 
L 57.710291 100.186788 
L 61.071067 138.529752 
L 64.431843 151.531373 
L 67.792619 60.236351 
L 71.153394 134.81838 
L 74.51417 178.291074 
L 77.874946 192.261907 
L 81.235722 139.593521 
L 84.596498 201.315763 
L 87.957274 215.286597 
L 91.31805 198.762718 
L 94.678825 241.478954 
L 98.039601 236.491059 
L 101.400377 58.061535 
L 104.761153 254.787886 
L 108.121929 148.292787 
L 111.482705 193.727544 
L 114.843481 149.403835 
L 118.204256 99.524887 
L 121.565032 153.871665 
L 124.925808 111.415461 
L 128.286584 126.733735 
L 131.64736 106.096616 
L 135.008136 83.568352 
L 138.368912 95.198893 
L 141.729688 227.579039 
L 145.090463 59.196222 
L 148.451239 51.229774 
L 151.812015 220.345409 
L 155.172791 256.442638 
L 158.533567 160.537951 
L 161.894343 84.726678 
L 165.255119 184.673688 
L 168.615894 146.921707 
L 171.97667 58.156092 
L 175.337446 253.393167 
L 178.698222 146.898068 
L 182.058998 192.971086 
L 185.419774 265.803805 
L 188.78055 185.099196 
L 192.141325 222.614783 
" clip-path="url(#pbfb28b6d60)" style="fill: none; stroke: #1f77b4; stroke-opacity: 0.9; stroke-width: 1.2; stroke-linecap: round"/>
   </g>
   <g id="line2d_14">
    <path d="M 44.267188 241.904461 
L 47.627963 88.485329 
L 50.988739 50.68607 
L 54.349515 59.456254 
L 57.710291 187.297652 
L 61.071067 175.548914 
L 64.431843 256.891785 
L 67.792619 168.45712 
L 71.153394 118.67273 
L 74.51417 60.520023 
L 77.874946 138.860702 
L 81.235722 59.527172 
L 84.596498 256.702671 
L 87.957274 114.441293 
L 91.31805 49.716858 
L 94.678825 242.519084 
L 98.039601 193.491151 
L 101.400377 110.398971 
L 104.761153 263.510792 
L 108.121929 263.628989 
L 111.482705 263.58171 
L 114.843481 256.088048 
L 118.204256 263.699907 
L 121.565032 263.085285 
L 124.925808 263.321678 
L 128.286584 263.912661 
L 131.64736 263.25076 
L 135.008136 263.818103 
L 138.368912 170.655576 
L 141.729688 167.08604 
L 145.090463 61.465596 
L 148.451239 152.902453 
L 151.812015 209.565883 
L 155.172791 153.3516 
L 158.533567 117.419846 
L 161.894343 70.164862 
L 165.255119 97.468267 
L 168.615894 108.247793 
L 171.97667 159.923329 
L 175.337446 174.130555 
L 178.698222 94.371517 
L 182.058998 143.517646 
L 185.419774 211.787978 
L 188.78055 154.840877 
L 192.141325 227.011695 
" clip-path="url(#pbfb28b6d60)" style="fill: none; stroke: #ff7f0e; stroke-opacity: 0.9; stroke-width: 1.2; stroke-linecap: round"/>
   </g>
   <g id="line2d_15">
    <path d="M 44.267188 263.392596 
L 47.627963 263.558071 
L 50.988739 263.416235 
L 54.349515 262.825252 
L 57.710291 263.9363 
L 61.071067 264.125414 
L 64.431843 263.25076 
L 67.792619 264.054496 
L 71.153394 264.078136 
L 74.51417 263.439874 
L 77.874946 264.030857 
L 81.235722 177.865566 
L 84.596498 263.108924 
L 87.957274 257.695522 
L 91.31805 80.447963 
L 94.678825 151.413176 
L 98.039601 148.056394 
L 101.400377 135.50392 
L 104.761153 175.808946 
L 108.121929 143.564925 
L 111.482705 52.74269 
L 114.843481 108.578744 
L 118.204256 222.662062 
L 121.565032 144.510497 
L 124.925808 93.638699 
L 128.286584 152.216913 
L 131.64736 147.607247 
L 135.008136 174.272391 
L 138.368912 265.094626 
L 141.729688 228.524611 
L 145.090463 170.253708 
L 148.451239 192.900168 
L 151.812015 189.968894 
L 155.172791 50.733348 
L 158.533567 260.248567 
L 161.894343 231.195853 
L 165.255119 144.43958 
L 168.615894 258.522897 
L 171.97667 232.023229 
L 175.337446 256.679031 
L 178.698222 263.723546 
L 182.058998 181.009595 
L 185.419774 117.490764 
L 188.78055 51.182495 
L 192.141325 227.555399 
" clip-path="url(#pbfb28b6d60)" style="fill: none; stroke: #2ca02c; stroke-opacity: 0.9; stroke-width: 1.2; stroke-linecap: round"/>
   </g>
   <g id="line2d_16">
    <path d="M 44.267188 264.172693 
L 47.627963 59.101664 
L 50.988739 200.701141 
L 54.349515 255.071558 
L 57.710291 141.224633 
L 61.071067 136.425853 
L 64.431843 171.128362 
L 67.792619 58.085174 
L 71.153394 210.984242 
L 74.51417 252.282119 
L 77.874946 97.208235 
L 81.235722 258.09739 
L 84.596498 248.665305 
L 87.957274 179.4494 
L 91.31805 212.189847 
L 94.678825 89.052672 
L 98.039601 265.945641 
L 101.400377 123.046002 
L 104.761153 139.61716 
L 108.121929 163.800176 
L 111.482705 229.25743 
L 114.843481 54.161048 
L 118.204256 51.158856 
L 121.565032 60.61458 
L 124.925808 174.957931 
L 128.286584 187.132176 
L 131.64736 200.582945 
L 135.008136 56.974126 
L 138.368912 156.921136 
L 141.729688 263.558071 
L 145.090463 263.747185 
L 148.451239 264.219972 
L 151.812015 130.941533 
L 155.172791 264.480004 
L 158.533567 116.994339 
L 161.894343 87.610674 
L 165.255119 226.775302 
L 168.615894 264.503643 
L 171.97667 264.149054 
L 175.337446 166.022271 
L 178.698222 77.894917 
L 182.058998 248.901698 
L 185.419774 263.9363 
L 188.78055 262.659777 
L 192.141325 263.558071 
" clip-path="url(#pbfb28b6d60)" style="fill: none; stroke: #d62728; stroke-opacity: 0.9; stroke-width: 1.2; stroke-linecap: round"/>
   </g>
   <g id="line2d_17">
    <path d="M 44.267188 177.771009 
L 47.627963 121.367611 
L 50.988739 90.49467 
L 54.349515 162.807325 
L 57.710291 221.787407 
L 61.071067 177.74737 
L 64.431843 173.586851 
L 67.792619 257.009982 
L 71.153394 183.988148 
L 74.51417 150.302129 
L 77.874946 125.126262 
L 81.235722 174.366948 
L 84.596498 121.911316 
L 87.957274 134.038282 
L 91.31805 264.905512 
L 94.678825 261.974237 
L 98.039601 263.179842 
L 101.400377 258.262865 
L 104.761153 68.131882 
L 108.121929 175.643471 
L 111.482705 125.126262 
L 114.843481 174.106916 
L 118.204256 211.764339 
L 121.565032 174.414227 
L 124.925808 212.497158 
L 128.286584 190.323483 
L 131.64736 210.724209 
L 135.008136 233.465227 
L 138.368912 229.990248 
L 141.729688 91.416604 
L 145.090463 258.475619 
L 148.451239 265.780166 
L 151.812015 91.20385 
L 155.172791 66.45349 
L 158.533567 173.539572 
L 161.894343 236.680174 
L 165.255119 138.056965 
L 168.615894 171.861181 
L 171.97667 265.780166 
L 175.337446 81.393535 
L 178.698222 170.490101 
L 182.058998 127.797504 
L 185.419774 57.18688 
L 188.78055 138.009687 
L 192.141325 99.028462 
" clip-path="url(#pbfb28b6d60)" style="fill: none; stroke: #9467bd; stroke-opacity: 0.9; stroke-width: 1.2; stroke-linecap: round"/>
   </g>
   <g id="line2d_18">
    <path d="M 44.267188 82.220911 
L 47.627963 228.382775 
L 50.988739 266.394788 
L 54.349515 266.32387 
L 57.710291 128.932191 
L 61.071067 140.98824 
L 64.431843 76.382001 
L 67.792619 148.269148 
L 71.153394 198.408128 
L 74.51417 265.023708 
L 77.874946 178.07832 
L 81.235722 263.227121 
L 84.596498 71.725057 
L 87.957274 203.112351 
L 91.31805 265.236462 
L 94.678825 76.547476 
L 98.039601 126.662817 
L 101.400377 265.283741 
L 104.761153 264.361807 
L 108.121929 263.747185 
L 111.482705 264.196332 
L 114.843481 264.314529 
L 118.204256 264.149054 
L 121.565032 263.841743 
L 124.925808 263.841743 
L 128.286584 264.314529 
L 131.64736 264.527283 
L 135.008136 263.770825 
L 138.368912 261.454172 
L 141.729688 160.537951 
L 145.090463 265.803805 
L 148.451239 164.532994 
L 151.812015 111.46274 
L 155.172791 164.887584 
L 158.533567 207.131034 
L 161.894343 247.176028 
L 165.255119 219.092526 
L 168.615894 209.022179 
L 171.97667 157.062972 
L 175.337446 150.916751 
L 178.698222 222.827537 
L 182.058998 170.584658 
L 185.419774 101.936097 
L 188.78055 156.873857 
L 192.141325 85.814087 
" clip-path="url(#pbfb28b6d60)" style="fill: none; stroke: #8c564b; stroke-opacity: 0.9; stroke-width: 1.2; stroke-linecap: round"/>
   </g>
   <g id="line2d_19">
    <path d="M 44.267188 265.094626 
L 47.627963 265.189183 
L 50.988739 265.165544 
L 54.349515 264.97643 
L 57.710291 265.236462 
L 61.071067 264.95279 
L 64.431843 264.929151 
L 67.792619 264.645479 
L 71.153394 263.699907 
L 74.51417 264.361807 
L 77.874946 264.527283 
L 81.235722 264.787315 
L 84.596498 264.409086 
L 87.957274 232.141426 
L 91.31805 238.925908 
L 94.678825 173.94144 
L 98.039601 167.913416 
L 101.400377 265.212823 
L 104.761153 135.953067 
L 108.121929 184.95736 
L 111.482705 266.063838 
L 114.843481 205.783593 
L 118.204256 100.304985 
L 121.565032 174.225112 
L 124.925808 228.146382 
L 128.286584 159.686936 
L 131.64736 164.532994 
L 135.008136 137.796933 
L 138.368912 47.683877 
L 141.729688 92.976798 
L 145.090463 138.529752 
L 148.451239 172.121213 
L 151.812015 264.101775 
L 155.172791 264.29089 
L 158.533567 263.345317 
L 161.894343 264.361807 
L 165.255119 220.416327 
L 168.615894 98.981183 
L 171.97667 79.407833 
L 175.337446 255.237033 
L 178.698222 264.480004 
L 182.058998 203.254187 
L 185.419774 196.918851 
L 188.78055 265.520134 
L 192.141325 90.51831 
" clip-path="url(#pbfb28b6d60)" style="fill: none; stroke: #e377c2; stroke-opacity: 0.9; stroke-width: 1.2; stroke-linecap: round"/>
   </g>
   <g id="line2d_20">
    <path d="M 44.267188 66.926277 
L 47.627963 258.310144 
L 50.988739 117.112535 
L 54.349515 73.521645 
L 57.710291 170.395544 
L 61.071067 179.473039 
L 64.431843 147.110822 
L 67.792619 259.255716 
L 71.153394 105.434715 
L 74.51417 70.92132 
L 77.874946 220.109016 
L 81.235722 142.595713 
L 84.596498 75.696461 
L 87.957274 141.200994 
L 91.31805 169.946397 
L 94.678825 258.948405 
L 98.039601 85.766808 
L 101.400377 262.967088 
L 104.761153 178.054681 
L 108.121929 161.554441 
L 111.482705 85.246743 
L 114.843481 266.182034 
L 118.204256 266.016559 
L 121.565032 257.41185 
L 124.925808 144.368662 
L 128.286584 135.078412 
L 131.64736 122.360462 
L 135.008136 266.111117 
L 138.368912 263.983578 
L 141.729688 262.068794 
L 145.090463 263.203481 
L 148.451239 214.790171 
L 151.812015 262.56522 
L 155.172791 257.813718 
L 158.533567 204.483431 
L 161.894343 258.641094 
L 165.255119 247.696093 
L 168.615894 221.078228 
L 171.97667 262.707056 
L 175.337446 167.180597 
L 178.698222 239.233219 
L 182.058998 210.298702 
L 185.419774 263.038006 
L 188.78055 263.628989 
L 192.141325 263.676267 
" clip-path="url(#pbfb28b6d60)" style="fill: none; stroke: #7f7f7f; stroke-opacity: 0.9; stroke-width: 1.2; stroke-linecap: round"/>
   </g>
   <g id="line2d_21">
    <path d="M 44.267188 251.24199 
L 47.627963 248.074322 
L 50.988739 233.583424 
L 54.349515 251.691136 
L 57.710291 258.475619 
" clip-path="url(#pbfb28b6d60)" style="fill: none; stroke-dasharray: 4.44,1.92; stroke-dashoffset: 0; stroke: #1f77b4; stroke-opacity: 0.9; stroke-width: 1.2"/>
   </g>
   <g id="line2d_22">
    <path d="M 44.267188 215.806661 
L 47.627963 250.698285 
L 50.988739 244.00836 
L 54.349515 218.288789 
L 57.710291 112.881098 
" clip-path="url(#pbfb28b6d60)" style="fill: none; stroke-dasharray: 4.44,1.92; stroke-dashoffset: 0; stroke: #ff7f0e; stroke-opacity: 0.9; stroke-width: 1.2"/>
   </g>
   <g id="line2d_23">
    <path d="M 44.267188 209.896833 
L 47.627963 241.006168 
L 50.988739 242.708198 
L 54.349515 235.876437 
L 57.710291 234.930864 
" clip-path="url(#pbfb28b6d60)" style="fill: none; stroke-dasharray: 4.44,1.92; stroke-dashoffset: 0; stroke: #2ca02c; stroke-opacity: 0.9; stroke-width: 1.2"/>
   </g>
   <g id="line2d_24">
    <path d="M 44.267188 236.396502 
L 47.627963 242.353608 
L 50.988739 261.926958 
L 54.349515 242.424526 
L 57.710291 244.528425 
" clip-path="url(#pbfb28b6d60)" style="fill: none; stroke-dasharray: 4.44,1.92; stroke-dashoffset: 0; stroke: #d62728; stroke-opacity: 0.9; stroke-width: 1.2"/>
   </g>
   <g id="line2d_25">
    <path d="M 44.267188 232.448737 
L 47.627963 243.890164 
L 50.988739 205.263528 
L 54.349515 248.381633 
L 57.710291 254.882444 
" clip-path="url(#pbfb28b6d60)" style="fill: none; stroke-dasharray: 4.44,1.92; stroke-dashoffset: 0; stroke: #9467bd; stroke-opacity: 0.9; stroke-width: 1.2"/>
   </g>
   <g id="line2d_26">
    <path d="M 44.267188 242.660919 
L 47.627963 204.956217 
L 50.988739 224.458649 
L 54.349515 228.004546 
L 57.710291 246.443209 
" clip-path="url(#pbfb28b6d60)" style="fill: none; stroke-dasharray: 4.44,1.92; stroke-dashoffset: 0; stroke: #8c564b; stroke-opacity: 0.9; stroke-width: 1.2"/>
   </g>
   <g id="line2d_27">
    <path d="M 44.267188 239.989677 
L 47.627963 235.001782 
L 50.988739 220.770917 
L 54.349515 177.180026 
L 57.710291 263.723546 
" clip-path="url(#pbfb28b6d60)" style="fill: none; stroke-dasharray: 4.44,1.92; stroke-dashoffset: 0; stroke: #e377c2; stroke-opacity: 0.9; stroke-width: 1.2"/>
   </g>
   <g id="line2d_28">
    <path d="M 44.267188 234.907225 
L 47.627963 197.911702 
L 50.988739 231.219493 
L 54.349515 260.83955 
L 57.710291 239.800563 
" clip-path="url(#pbfb28b6d60)" style="fill: none; stroke-dasharray: 4.44,1.92; stroke-dashoffset: 0; stroke: #7f7f7f; stroke-opacity: 0.9; stroke-width: 1.2"/>
   </g>
   <g id="patch_3">
    <path d="M 44.267188 278.389375 
L 44.267188 21.789375 
" style="fill: none; stroke: #cccccc; stroke-width: 0.8; stroke-linejoin: miter; stroke-linecap: square"/>
   </g>
   <g id="patch_4">
    <path d="M 434.117188 278.389375 
L 434.117188 21.789375 
" style="fill: none; stroke: #cccccc; stroke-width: 0.8; stroke-linejoin: miter; stroke-linecap: square"/>
   </g>
   <g id="patch_5">
    <path d="M 44.267188 278.389375 
L 434.117188 278.389375 
" style="fill: none; stroke: #cccccc; stroke-width: 0.8; stroke-linejoin: miter; stroke-linecap: square"/>
   </g>
   <g id="patch_6">
    <path d="M 44.267188 21.789375 
L 434.117188 21.789375 
" style="fill: none; stroke: #cccccc; stroke-width: 0.8; stroke-linejoin: miter; stroke-linecap: square"/>
   </g>
   <g id="text_15">
    <!-- APX1278 — PC2 all cores -->
    <g style="fill: #262626" transform="translate(168.82625 15.789375) scale(0.12 -0.12)">
     <defs>
      <path id="ArialMT-41" d="M -9 0 
L 1750 4581 
L 2403 4581 
L 4278 0 
L 3588 0 
L 3053 1388 
L 1138 1388 
L 634 0 
L -9 0 
z
M 1313 1881 
L 2866 1881 
L 2388 3150 
Q 2169 3728 2063 4100 
Q 1975 3659 1816 3225 
L 1313 1881 
z
" transform="scale(0.015625)"/>
      <path id="ArialMT-50" d="M 494 0 
L 494 4581 
L 2222 4581 
Q 2678 4581 2919 4538 
Q 3256 4481 3484 4323 
Q 3713 4166 3852 3881 
Q 3991 3597 3991 3256 
Q 3991 2672 3619 2267 
Q 3247 1863 2275 1863 
L 1100 1863 
L 1100 0 
L 494 0 
z
M 1100 2403 
L 2284 2403 
Q 2872 2403 3119 2622 
Q 3366 2841 3366 3238 
Q 3366 3525 3220 3729 
Q 3075 3934 2838 4000 
Q 2684 4041 2272 4041 
L 1100 4041 
L 1100 2403 
z
" transform="scale(0.015625)"/>
      <path id="ArialMT-58" d="M 28 0 
L 1800 2388 
L 238 4581 
L 959 4581 
L 1791 3406 
Q 2050 3041 2159 2844 
Q 2313 3094 2522 3366 
L 3444 4581 
L 4103 4581 
L 2494 2422 
L 4228 0 
L 3478 0 
L 2325 1634 
Q 2228 1775 2125 1941 
Q 1972 1691 1906 1597 
L 756 0 
L 28 0 
z
" transform="scale(0.015625)"/>
      <path id="ArialMT-37" d="M 303 3981 
L 303 4522 
L 3269 4522 
L 3269 4084 
Q 2831 3619 2401 2847 
Q 1972 2075 1738 1259 
Q 1569 684 1522 0 
L 944 0 
Q 953 541 1156 1306 
Q 1359 2072 1739 2783 
Q 2119 3494 2547 3981 
L 303 3981 
z
" transform="scale(0.015625)"/>
      <path id="ArialMT-2014" d="M 0 1431 
L 0 1884 
L 6400 1884 
L 6400 1431 
L 0 1431 
z
" transform="scale(0.015625)"/>
      <path id="ArialMT-43" d="M 3763 1606 
L 4369 1453 
Q 4178 706 3683 314 
Q 3188 -78 2472 -78 
Q 1731 -78 1267 223 
Q 803 525 561 1097 
Q 319 1669 319 2325 
Q 319 3041 592 3573 
Q 866 4106 1370 4382 
Q 1875 4659 2481 4659 
Q 3169 4659 3637 4309 
Q 4106 3959 4291 3325 
L 3694 3184 
Q 3534 3684 3231 3912 
Q 2928 4141 2469 4141 
Q 1941 4141 1586 3887 
Q 1231 3634 1087 3207 
Q 944 2781 944 2328 
Q 944 1744 1114 1308 
Q 1284 872 1643 656 
Q 2003 441 2422 441 
Q 2931 441 3284 734 
Q 3638 1028 3763 1606 
z
" transform="scale(0.015625)"/>
      <path id="ArialMT-6f" d="M 213 1659 
Q 213 2581 725 3025 
Q 1153 3394 1769 3394 
Q 2453 3394 2887 2945 
Q 3322 2497 3322 1706 
Q 3322 1066 3130 698 
Q 2938 331 2570 128 
Q 2203 -75 1769 -75 
Q 1072 -75 642 372 
Q 213 819 213 1659 
z
M 791 1659 
Q 791 1022 1069 705 
Q 1347 388 1769 388 
Q 2188 388 2466 706 
Q 2744 1025 2744 1678 
Q 2744 2294 2464 2611 
Q 2184 2928 1769 2928 
Q 1347 2928 1069 2612 
Q 791 2297 791 1659 
z
" transform="scale(0.015625)"/>
      <path id="ArialMT-72" d="M 416 0 
L 416 3319 
L 922 3319 
L 922 2816 
Q 1116 3169 1280 3281 
Q 1444 3394 1641 3394 
Q 1925 3394 2219 3213 
L 2025 2691 
Q 1819 2813 1613 2813 
Q 1428 2813 1281 2702 
Q 1134 2591 1072 2394 
Q 978 2094 978 1738 
L 978 0 
L 416 0 
z
" transform="scale(0.015625)"/>
     </defs>
     <use xlink:href="#ArialMT-41"/>
     <use xlink:href="#ArialMT-50" transform="translate(66.699219 0)"/>
     <use xlink:href="#ArialMT-58" transform="translate(133.398438 0)"/>
     <use xlink:href="#ArialMT-31" transform="translate(200.097656 0)"/>
     <use xlink:href="#ArialMT-32" transform="translate(255.712891 0)"/>
     <use xlink:href="#ArialMT-37" transform="translate(311.328125 0)"/>
     <use xlink:href="#ArialMT-38" transform="translate(366.943359 0)"/>
     <use xlink:href="#ArialMT-20" transform="translate(422.558594 0)"/>
     <use xlink:href="#ArialMT-2014" transform="translate(450.341797 0)"/>
     <use xlink:href="#ArialMT-20" transform="translate(550.341797 0)"/>
     <use xlink:href="#ArialMT-50" transform="translate(578.125 0)"/>
     <use xlink:href="#ArialMT-43" transform="translate(644.824219 0)"/>
     <use xlink:href="#ArialMT-32" transform="translate(717.041016 0)"/>
     <use xlink:href="#ArialMT-20" transform="translate(772.65625 0)"/>
     <use xlink:href="#ArialMT-61" transform="translate(800.439453 0)"/>
     <use xlink:href="#ArialMT-6c" transform="translate(856.054688 0)"/>
     <use xlink:href="#ArialMT-6c" transform="translate(878.271484 0)"/>
     <use xlink:href="#ArialMT-20" transform="translate(900.488281 0)"/>
     <use xlink:href="#ArialMT-63" transform="translate(928.271484 0)"/>
     <use xlink:href="#ArialMT-6f" transform="translate(978.271484 0)"/>
     <use xlink:href="#ArialMT-72" transform="translate(1033.886719 0)"/>
     <use xlink:href="#ArialMT-65" transform="translate(1067.1875 0)"/>
     <use xlink:href="#ArialMT-73" transform="translate(1122.802734 0)"/>
    </g>
   </g>
   <g id="legend_1">
    <g id="patch_7">
     <path d="M 317.392188 85.685156 
L 428.517188 85.685156 
Q 430.117188 85.685156 430.117188 84.085156 
L 430.117188 27.389375 
Q 430.117188 25.789375 428.517188 25.789375 
L 317.392188 25.789375 
Q 315.792188 25.789375 315.792188 27.389375 
L 315.792188 84.085156 
Q 315.792188 85.685156 317.392188 85.685156 
z
" style="fill: #ffffff; opacity: 0.8; stroke: #cccccc; stroke-linejoin: miter"/>
    </g>
    <g id="text_16">
     <!-- CPU -->
     <g style="fill: #262626" transform="translate(363.453359 35.431406) scale(0.09 -0.09)">
      <defs>
       <path id="ArialMT-55" d="M 3500 4581 
L 4106 4581 
L 4106 1934 
Q 4106 1244 3950 837 
Q 3794 431 3386 176 
Q 2978 -78 2316 -78 
Q 1672 -78 1262 144 
Q 853 366 678 786 
Q 503 1206 503 1934 
L 503 4581 
L 1109 4581 
L 1109 1938 
Q 1109 1341 1220 1058 
Q 1331 775 1601 622 
Q 1872 469 2263 469 
Q 2931 469 3215 772 
Q 3500 1075 3500 1938 
L 3500 4581 
z
" transform="scale(0.015625)"/>
      </defs>
      <use xlink:href="#ArialMT-43"/>
      <use xlink:href="#ArialMT-50" transform="translate(72.216797 0)"/>
      <use xlink:href="#ArialMT-55" transform="translate(138.916016 0)"/>
     </g>
    </g>
    <g id="line2d_29">
     <path d="M 318.992188 44.146406 
L 326.992188 44.146406 
L 334.992188 44.146406 
" style="fill: none; stroke: #1f77b4; stroke-width: 2; stroke-linecap: round"/>
    </g>
    <g id="text_17">
     <!-- CPU 0 -->
     <g style="fill: #262626" transform="translate(341.392188 46.946406) scale(0.08 -0.08)">
      <use xlink:href="#ArialMT-43"/>
      <use xlink:href="#ArialMT-50" transform="translate(72.216797 0)"/>
      <use xlink:href="#ArialMT-55" transform="translate(138.916016 0)"/>
      <use xlink:href="#ArialMT-20" transform="translate(211.132812 0)"/>
      <use xlink:href="#ArialMT-30" transform="translate(238.916016 0)"/>
     </g>
    </g>
    <g id="line2d_30">
     <path d="M 318.992188 55.462656 
L 326.992188 55.462656 
L 334.992188 55.462656 
" style="fill: none; stroke: #ff7f0e; stroke-width: 2; stroke-linecap: round"/>
    </g>
    <g id="text_18">
     <!-- CPU 1 -->
     <g style="fill: #262626" transform="translate(341.392188 58.262656) scale(0.08 -0.08)">
      <use xlink:href="#ArialMT-43"/>
      <use xlink:href="#ArialMT-50" transform="translate(72.216797 0)"/>
      <use xlink:href="#ArialMT-55" transform="translate(138.916016 0)"/>
      <use xlink:href="#ArialMT-20" transform="translate(211.132812 0)"/>
      <use xlink:href="#ArialMT-31" transform="translate(238.916016 0)"/>
     </g>
    </g>
    <g id="line2d_31">
     <path d="M 318.992188 66.778906 
L 326.992188 66.778906 
L 334.992188 66.778906 
" style="fill: none; stroke: #2ca02c; stroke-width: 2; stroke-linecap: round"/>
    </g>
    <g id="text_19">
     <!-- CPU 2 -->
     <g style="fill: #262626" transform="translate(341.392188 69.578906) scale(0.08 -0.08)">
      <use xlink:href="#ArialMT-43"/>
      <use xlink:href="#ArialMT-50" transform="translate(72.216797 0)"/>
      <use xlink:href="#ArialMT-55" transform="translate(138.916016 0)"/>
      <use xlink:href="#ArialMT-20" transform="translate(211.132812 0)"/>
      <use xlink:href="#ArialMT-32" transform="translate(238.916016 0)"/>
     </g>
    </g>
    <g id="line2d_32">
     <path d="M 318.992188 78.095156 
L 326.992188 78.095156 
L 334.992188 78.095156 
" style="fill: none; stroke: #d62728; stroke-width: 2; stroke-linecap: round"/>
    </g>
    <g id="text_20">
     <!-- CPU 3 -->
     <g style="fill: #262626" transform="translate(341.392188 80.895156) scale(0.08 -0.08)">
      <defs>
       <path id="ArialMT-33" d="M 269 1209 
L 831 1284 
Q 928 806 1161 595 
Q 1394 384 1728 384 
Q 2125 384 2398 659 
Q 2672 934 2672 1341 
Q 2672 1728 2419 1979 
Q 2166 2231 1775 2231 
Q 1616 2231 1378 2169 
L 1441 2663 
Q 1497 2656 1531 2656 
Q 1891 2656 2178 2843 
Q 2466 3031 2466 3422 
Q 2466 3731 2256 3934 
Q 2047 4138 1716 4138 
Q 1388 4138 1169 3931 
Q 950 3725 888 3313 
L 325 3413 
Q 428 3978 793 4289 
Q 1159 4600 1703 4600 
Q 2078 4600 2393 4439 
Q 2709 4278 2876 4000 
Q 3044 3722 3044 3409 
Q 3044 3113 2884 2869 
Q 2725 2625 2413 2481 
Q 2819 2388 3044 2092 
Q 3269 1797 3269 1353 
Q 3269 753 2831 336 
Q 2394 -81 1725 -81 
Q 1122 -81 723 278 
Q 325 638 269 1209 
z
" transform="scale(0.015625)"/>
      </defs>
      <use xlink:href="#ArialMT-43"/>
      <use xlink:href="#ArialMT-50" transform="translate(72.216797 0)"/>
      <use xlink:href="#ArialMT-55" transform="translate(138.916016 0)"/>
      <use xlink:href="#ArialMT-20" transform="translate(211.132812 0)"/>
      <use xlink:href="#ArialMT-33" transform="translate(238.916016 0)"/>
     </g>
    </g>
    <g id="line2d_33">
     <path d="M 380.954688 44.146406 
L 388.954688 44.146406 
L 396.954688 44.146406 
" style="fill: none; stroke: #9467bd; stroke-width: 2; stroke-linecap: round"/>
    </g>
    <g id="text_21">
     <!-- CPU 4 -->
     <g style="fill: #262626" transform="translate(403.354688 46.946406) scale(0.08 -0.08)">
      <use xlink:href="#ArialMT-43"/>
      <use xlink:href="#ArialMT-50" transform="translate(72.216797 0)"/>
      <use xlink:href="#ArialMT-55" transform="translate(138.916016 0)"/>
      <use xlink:href="#ArialMT-20" transform="translate(211.132812 0)"/>
      <use xlink:href="#ArialMT-34" transform="translate(238.916016 0)"/>
     </g>
    </g>
    <g id="line2d_34">
     <path d="M 380.954688 55.462656 
L 388.954688 55.462656 
L 396.954688 55.462656 
" style="fill: none; stroke: #8c564b; stroke-width: 2; stroke-linecap: round"/>
    </g>
    <g id="text_22">
     <!-- CPU 5 -->
     <g style="fill: #262626" transform="translate(403.354688 58.262656) scale(0.08 -0.08)">
      <defs>
       <path id="ArialMT-35" d="M 266 1200 
L 856 1250 
Q 922 819 1161 601 
Q 1400 384 1738 384 
Q 2144 384 2425 690 
Q 2706 997 2706 1503 
Q 2706 1984 2436 2262 
Q 2166 2541 1728 2541 
Q 1456 2541 1237 2417 
Q 1019 2294 894 2097 
L 366 2166 
L 809 4519 
L 3088 4519 
L 3088 3981 
L 1259 3981 
L 1013 2750 
Q 1425 3038 1878 3038 
Q 2478 3038 2890 2622 
Q 3303 2206 3303 1553 
Q 3303 931 2941 478 
Q 2500 -78 1738 -78 
Q 1113 -78 717 272 
Q 322 622 266 1200 
z
" transform="scale(0.015625)"/>
      </defs>
      <use xlink:href="#ArialMT-43"/>
      <use xlink:href="#ArialMT-50" transform="translate(72.216797 0)"/>
      <use xlink:href="#ArialMT-55" transform="translate(138.916016 0)"/>
      <use xlink:href="#ArialMT-20" transform="translate(211.132812 0)"/>
      <use xlink:href="#ArialMT-35" transform="translate(238.916016 0)"/>
     </g>
    </g>
    <g id="line2d_35">
     <path d="M 380.954688 66.778906 
L 388.954688 66.778906 
L 396.954688 66.778906 
" style="fill: none; stroke: #e377c2; stroke-width: 2; stroke-linecap: round"/>
    </g>
    <g id="text_23">
     <!-- CPU 6 -->
     <g style="fill: #262626" transform="translate(403.354688 69.578906) scale(0.08 -0.08)">
      <use xlink:href="#ArialMT-43"/>
      <use xlink:href="#ArialMT-50" transform="translate(72.216797 0)"/>
      <use xlink:href="#ArialMT-55" transform="translate(138.916016 0)"/>
      <use xlink:href="#ArialMT-20" transform="translate(211.132812 0)"/>
      <use xlink:href="#ArialMT-36" transform="translate(238.916016 0)"/>
     </g>
    </g>
    <g id="line2d_36">
     <path d="M 380.954688 78.095156 
L 388.954688 78.095156 
L 396.954688 78.095156 
" style="fill: none; stroke: #7f7f7f; stroke-width: 2; stroke-linecap: round"/>
    </g>
    <g id="text_24">
     <!-- CPU 7 -->
     <g style="fill: #262626" transform="translate(403.354688 80.895156) scale(0.08 -0.08)">
      <use xlink:href="#ArialMT-43"/>
      <use xlink:href="#ArialMT-50" transform="translate(72.216797 0)"/>
      <use xlink:href="#ArialMT-55" transform="translate(138.916016 0)"/>
      <use xlink:href="#ArialMT-20" transform="translate(211.132812 0)"/>
      <use xlink:href="#ArialMT-37" transform="translate(238.916016 0)"/>
     </g>
    </g>
   </g>
   <g id="legend_2">
    <g id="patch_8">
     <path d="M 49.867188 63.240156 
L 100.813438 63.240156 
Q 102.413438 63.240156 102.413438 61.640156 
L 102.413438 27.389375 
Q 102.413438 25.789375 100.813438 25.789375 
L 49.867188 25.789375 
Q 48.267188 25.789375 48.267188 27.389375 
L 48.267188 61.640156 
Q 48.267188 63.240156 49.867188 63.240156 
z
" style="fill: #ffffff; opacity: 0.8; stroke: #cccccc; stroke-linejoin: miter"/>
    </g>
    <g id="text_25">
     <!-- Variant -->
     <g style="fill: #262626" transform="translate(61.414922 35.431406) scale(0.09 -0.09)">
      <defs>
       <path id="ArialMT-56" d="M 1803 0 
L 28 4581 
L 684 4581 
L 1875 1253 
Q 2019 853 2116 503 
Q 2222 878 2363 1253 
L 3600 4581 
L 4219 4581 
L 2425 0 
L 1803 0 
z
" transform="scale(0.015625)"/>
       <path id="ArialMT-6e" d="M 422 0 
L 422 3319 
L 928 3319 
L 928 2847 
Q 1294 3394 1984 3394 
Q 2284 3394 2536 3286 
Q 2788 3178 2913 3003 
Q 3038 2828 3088 2588 
Q 3119 2431 3119 2041 
L 3119 0 
L 2556 0 
L 2556 2019 
Q 2556 2363 2490 2533 
Q 2425 2703 2258 2804 
Q 2091 2906 1866 2906 
Q 1506 2906 1245 2678 
Q 984 2450 984 1813 
L 984 0 
L 422 0 
z
" transform="scale(0.015625)"/>
       <path id="ArialMT-74" d="M 1650 503 
L 1731 6 
Q 1494 -44 1306 -44 
Q 1000 -44 831 53 
Q 663 150 594 308 
Q 525 466 525 972 
L 525 2881 
L 113 2881 
L 113 3319 
L 525 3319 
L 525 4141 
L 1084 4478 
L 1084 3319 
L 1650 3319 
L 1650 2881 
L 1084 2881 
L 1084 941 
Q 1084 700 1114 631 
Q 1144 563 1211 522 
Q 1278 481 1403 481 
Q 1497 481 1650 503 
z
" transform="scale(0.015625)"/>
      </defs>
      <use xlink:href="#ArialMT-56"/>
      <use xlink:href="#ArialMT-61" transform="translate(59.324219 0)"/>
      <use xlink:href="#ArialMT-72" transform="translate(114.939453 0)"/>
      <use xlink:href="#ArialMT-69" transform="translate(148.240234 0)"/>
      <use xlink:href="#ArialMT-61" transform="translate(170.457031 0)"/>
      <use xlink:href="#ArialMT-6e" transform="translate(226.072266 0)"/>
      <use xlink:href="#ArialMT-74" transform="translate(281.6875 0)"/>
     </g>
    </g>
    <g id="line2d_37">
     <path d="M 51.467188 44.146406 
L 59.467188 44.146406 
L 67.467188 44.146406 
" style="fill: none; stroke: #333333; stroke-width: 2; stroke-linecap: round"/>
    </g>
    <g id="text_26">
     <!-- queryA -->
     <g style="fill: #262626" transform="translate(73.867188 46.946406) scale(0.08 -0.08)">
      <defs>
       <path id="ArialMT-71" d="M 2538 -1272 
L 2538 353 
Q 2406 169 2170 47 
Q 1934 -75 1669 -75 
Q 1078 -75 651 397 
Q 225 869 225 1691 
Q 225 2191 398 2587 
Q 572 2984 901 3189 
Q 1231 3394 1625 3394 
Q 2241 3394 2594 2875 
L 2594 3319 
L 3100 3319 
L 3100 -1272 
L 2538 -1272 
z
M 803 1669 
Q 803 1028 1072 708 
Q 1341 388 1716 388 
Q 2075 388 2334 692 
Q 2594 997 2594 1619 
Q 2594 2281 2320 2615 
Q 2047 2950 1678 2950 
Q 1313 2950 1058 2639 
Q 803 2328 803 1669 
z
" transform="scale(0.015625)"/>
      </defs>
      <use xlink:href="#ArialMT-71"/>
      <use xlink:href="#ArialMT-75" transform="translate(55.615234 0)"/>
      <use xlink:href="#ArialMT-65" transform="translate(111.230469 0)"/>
      <use xlink:href="#ArialMT-72" transform="translate(166.845703 0)"/>
      <use xlink:href="#ArialMT-79" transform="translate(200.146484 0)"/>
      <use xlink:href="#ArialMT-41" transform="translate(250.146484 0)"/>
     </g>
    </g>
    <g id="line2d_38">
     <path d="M 51.467188 55.556406 
L 59.467188 55.556406 
L 67.467188 55.556406 
" style="fill: none; stroke-dasharray: 7.4,3.2; stroke-dashoffset: 0; stroke: #333333; stroke-width: 2"/>
    </g>
    <g id="text_27">
     <!-- queryB -->
     <g style="fill: #262626" transform="translate(73.867188 58.356406) scale(0.08 -0.08)">
      <use xlink:href="#ArialMT-71"/>
      <use xlink:href="#ArialMT-75" transform="translate(55.615234 0)"/>
      <use xlink:href="#ArialMT-65" transform="translate(111.230469 0)"/>
      <use xlink:href="#ArialMT-72" transform="translate(166.845703 0)"/>
      <use xlink:href="#ArialMT-79" transform="translate(200.146484 0)"/>
      <use xlink:href="#ArialMT-42" transform="translate(250.146484 0)"/>
     </g>
    </g>
   </g>
  </g>
  <g id="axes_2">
   <g id="patch_9">
    <path d="M 458.997187 278.389375 
L 848.847187 278.389375 
L 848.847187 21.789375 
L 458.997187 21.789375 
z
" style="fill: #ffffff"/>
   </g>
   <g id="matplotlib.axis_3">
    <g id="xtick_7">
     <g id="line2d_39">
      <path d="M 458.997187 278.389375 
L 458.997187 21.789375 
" clip-path="url(#p6d375c2e7e)" style="fill: none; stroke: #cccccc; stroke-opacity: 0.2; stroke-width: 0.8; stroke-linecap: round"/>
     </g>
     <g id="text_28">
      <!-- 0 -->
      <g style="fill: #262626" transform="translate(456.216719 292.547188) scale(0.1 -0.1)">
       <use xlink:href="#ArialMT-30"/>
      </g>
     </g>
    </g>
    <g id="xtick_8">
     <g id="line2d_40">
      <path d="M 526.212705 278.389375 
L 526.212705 21.789375 
" clip-path="url(#p6d375c2e7e)" style="fill: none; stroke: #cccccc; stroke-opacity: 0.2; stroke-width: 0.8; stroke-linecap: round"/>
     </g>
     <g id="text_29">
      <!-- 20 -->
      <g style="fill: #262626" transform="translate(520.651767 292.547188) scale(0.1 -0.1)">
       <use xlink:href="#ArialMT-32"/>
       <use xlink:href="#ArialMT-30" transform="translate(55.615234 0)"/>
      </g>
     </g>
    </g>
    <g id="xtick_9">
     <g id="line2d_41">
      <path d="M 593.428222 278.389375 
L 593.428222 21.789375 
" clip-path="url(#p6d375c2e7e)" style="fill: none; stroke: #cccccc; stroke-opacity: 0.2; stroke-width: 0.8; stroke-linecap: round"/>
     </g>
     <g id="text_30">
      <!-- 40 -->
      <g style="fill: #262626" transform="translate(587.867284 292.547188) scale(0.1 -0.1)">
       <use xlink:href="#ArialMT-34"/>
       <use xlink:href="#ArialMT-30" transform="translate(55.615234 0)"/>
      </g>
     </g>
    </g>
    <g id="xtick_10">
     <g id="line2d_42">
      <path d="M 660.643739 278.389375 
L 660.643739 21.789375 
" clip-path="url(#p6d375c2e7e)" style="fill: none; stroke: #cccccc; stroke-opacity: 0.2; stroke-width: 0.8; stroke-linecap: round"/>
     </g>
     <g id="text_31">
      <!-- 60 -->
      <g style="fill: #262626" transform="translate(655.082802 292.547188) scale(0.1 -0.1)">
       <use xlink:href="#ArialMT-36"/>
       <use xlink:href="#ArialMT-30" transform="translate(55.615234 0)"/>
      </g>
     </g>
    </g>
    <g id="xtick_11">
     <g id="line2d_43">
      <path d="M 727.859256 278.389375 
L 727.859256 21.789375 
" clip-path="url(#p6d375c2e7e)" style="fill: none; stroke: #cccccc; stroke-opacity: 0.2; stroke-width: 0.8; stroke-linecap: round"/>
     </g>
     <g id="text_32">
      <!-- 80 -->
      <g style="fill: #262626" transform="translate(722.298319 292.547188) scale(0.1 -0.1)">
       <use xlink:href="#ArialMT-38"/>
       <use xlink:href="#ArialMT-30" transform="translate(55.615234 0)"/>
      </g>
     </g>
    </g>
    <g id="xtick_12">
     <g id="line2d_44">
      <path d="M 795.074774 278.389375 
L 795.074774 21.789375 
" clip-path="url(#p6d375c2e7e)" style="fill: none; stroke: #cccccc; stroke-opacity: 0.2; stroke-width: 0.8; stroke-linecap: round"/>
     </g>
     <g id="text_33">
      <!-- 100 -->
      <g style="fill: #262626" transform="translate(786.733367 292.547188) scale(0.1 -0.1)">
       <use xlink:href="#ArialMT-31"/>
       <use xlink:href="#ArialMT-30" transform="translate(55.615234 0)"/>
       <use xlink:href="#ArialMT-30" transform="translate(111.230469 0)"/>
      </g>
     </g>
    </g>
    <g id="text_34">
     <!-- Elapsed Time (sec) -->
     <g style="fill: #262626" transform="translate(611.130781 305.814375) scale(0.1 -0.1)">
      <use xlink:href="#ArialMT-45"/>
      <use xlink:href="#ArialMT-6c" transform="translate(66.699219 0)"/>
      <use xlink:href="#ArialMT-61" transform="translate(88.916016 0)"/>
      <use xlink:href="#ArialMT-70" transform="translate(144.53125 0)"/>
      <use xlink:href="#ArialMT-73" transform="translate(200.146484 0)"/>
      <use xlink:href="#ArialMT-65" transform="translate(250.146484 0)"/>
      <use xlink:href="#ArialMT-64" transform="translate(305.761719 0)"/>
      <use xlink:href="#ArialMT-20" transform="translate(361.376953 0)"/>
      <use xlink:href="#ArialMT-54" transform="translate(387.410156 0)"/>
      <use xlink:href="#ArialMT-69" transform="translate(444.744141 0)"/>
      <use xlink:href="#ArialMT-6d" transform="translate(466.960938 0)"/>
      <use xlink:href="#ArialMT-65" transform="translate(550.261719 0)"/>
      <use xlink:href="#ArialMT-20" transform="translate(605.876953 0)"/>
      <use xlink:href="#ArialMT-28" transform="translate(633.660156 0)"/>
      <use xlink:href="#ArialMT-73" transform="translate(666.960938 0)"/>
      <use xlink:href="#ArialMT-65" transform="translate(716.960938 0)"/>
      <use xlink:href="#ArialMT-63" transform="translate(772.576172 0)"/>
      <use xlink:href="#ArialMT-29" transform="translate(822.576172 0)"/>
     </g>
    </g>
   </g>
   <g id="matplotlib.axis_4">
    <g id="ytick_7">
     <g id="line2d_45">
      <path d="M 458.997187 269.302424 
L 848.847187 269.302424 
" clip-path="url(#p6d375c2e7e)" style="fill: none; stroke: #cccccc; stroke-opacity: 0.2; stroke-width: 0.8; stroke-linecap: round"/>
     </g>
    </g>
    <g id="ytick_8">
     <g id="line2d_46">
      <path d="M 458.997187 222.0238 
L 848.847187 222.0238 
" clip-path="url(#p6d375c2e7e)" style="fill: none; stroke: #cccccc; stroke-opacity: 0.2; stroke-width: 0.8; stroke-linecap: round"/>
     </g>
    </g>
    <g id="ytick_9">
     <g id="line2d_47">
      <path d="M 458.997187 174.745177 
L 848.847187 174.745177 
" clip-path="url(#p6d375c2e7e)" style="fill: none; stroke: #cccccc; stroke-opacity: 0.2; stroke-width: 0.8; stroke-linecap: round"/>
     </g>
    </g>
    <g id="ytick_10">
     <g id="line2d_48">
      <path d="M 458.997187 127.466554 
L 848.847187 127.466554 
" clip-path="url(#p6d375c2e7e)" style="fill: none; stroke: #cccccc; stroke-opacity: 0.2; stroke-width: 0.8; stroke-linecap: round"/>
     </g>
    </g>
    <g id="ytick_11">
     <g id="line2d_49">
      <path d="M 458.997187 80.18793 
L 848.847187 80.18793 
" clip-path="url(#p6d375c2e7e)" style="fill: none; stroke: #cccccc; stroke-opacity: 0.2; stroke-width: 0.8; stroke-linecap: round"/>
     </g>
    </g>
    <g id="ytick_12">
     <g id="line2d_50">
      <path d="M 458.997187 32.909307 
L 848.847187 32.909307 
" clip-path="url(#p6d375c2e7e)" style="fill: none; stroke: #cccccc; stroke-opacity: 0.2; stroke-width: 0.8; stroke-linecap: round"/>
     </g>
    </g>
    <g id="text_35">
     <!-- Busy% -->
     <g style="fill: #262626" transform="translate(452.8925 165.651094) rotate(-90) scale(0.1 -0.1)">
      <use xlink:href="#ArialMT-42"/>
      <use xlink:href="#ArialMT-75" transform="translate(66.699219 0)"/>
      <use xlink:href="#ArialMT-73" transform="translate(122.314453 0)"/>
      <use xlink:href="#ArialMT-79" transform="translate(172.314453 0)"/>
      <use xlink:href="#ArialMT-25" transform="translate(222.314453 0)"/>
     </g>
    </g>
   </g>
   <g id="line2d_51">
    <path d="M 458.997187 264.905512 
L 462.357963 264.881872 
L 465.718739 264.929151 
L 469.079515 264.929151 
L 472.440291 264.97643 
L 475.801067 265.449216 
L 479.161843 265.449216 
L 482.522619 265.496494 
L 485.883394 265.496494 
L 489.24417 265.496494 
L 492.604946 265.378298 
L 495.965722 264.881872 
L 499.326498 265.449216 
L 502.687274 264.929151 
L 506.04805 263.794464 
L 509.408825 264.787315 
L 512.769601 264.881872 
L 516.130377 264.95279 
L 519.491153 265.496494 
L 522.851929 265.496494 
L 526.212705 265.496494 
L 529.573481 265.520134 
L 532.934256 264.905512 
L 536.295032 265.449216 
L 539.655808 265.496494 
L 543.016584 265.496494 
L 546.37736 265.449216 
L 549.738136 265.520134 
L 553.098912 265.520134 
L 556.459687 265.520134 
L 559.820463 265.425576 
L 563.181239 265.472855 
L 566.542015 265.449216 
L 569.902791 265.425576 
L 573.263567 265.449216 
L 576.624343 265.496494 
L 579.985119 265.425576 
L 583.345894 265.472855 
L 586.70667 265.449216 
L 590.067446 265.472855 
L 593.428222 264.881872 
L 596.788998 264.858233 
L 600.149774 264.929151 
L 603.51055 265.472855 
L 606.871325 264.338168 
L 610.232101 265.449216 
L 613.592877 265.449216 
L 616.953653 265.449216 
L 620.314429 265.472855 
L 623.675205 265.472855 
L 627.035981 265.472855 
L 630.396756 265.472855 
L 633.757532 265.472855 
L 637.118308 265.472855 
L 640.479084 265.425576 
L 643.83986 265.449216 
L 647.200636 265.496494 
L 650.561412 265.496494 
L 653.922187 265.425576 
L 657.282963 265.401937 
L 660.643739 265.425576 
L 664.004515 265.425576 
L 667.365291 265.425576 
L 670.726067 265.449216 
L 674.086843 264.905512 
L 677.447619 264.929151 
L 680.808394 264.858233 
L 684.16917 264.905512 
L 687.529946 265.425576 
L 690.890722 265.472855 
L 694.251498 265.425576 
L 697.612274 265.472855 
L 700.97305 265.472855 
L 704.333825 265.449216 
L 707.694601 264.338168 
L 711.055377 265.496494 
L 714.416153 265.496494 
L 717.776929 265.472855 
L 721.137705 265.425576 
L 724.498481 265.520134 
L 727.859256 265.449216 
L 731.220032 265.496494 
L 734.580808 265.472855 
L 737.941584 265.472855 
L 741.30236 265.496494 
L 744.663136 265.496494 
L 748.023912 265.520134 
L 751.384687 265.496494 
L 754.745463 265.496494 
L 758.106239 265.496494 
L 761.467015 265.496494 
L 764.827791 265.496494 
L 768.188567 265.472855 
L 771.549343 265.520134 
L 774.910119 265.496494 
L 778.270894 265.496494 
L 781.63167 265.472855 
L 784.992446 265.496494 
L 788.353222 265.472855 
L 791.713998 265.496494 
L 795.074774 265.449216 
L 798.43555 265.520134 
L 801.796325 265.496494 
L 805.157101 265.496494 
L 808.517877 264.361807 
L 811.878653 265.472855 
L 815.239429 265.496494 
L 818.600205 265.496494 
L 821.960981 265.520134 
L 825.321756 265.472855 
L 828.682532 265.496494 
L 832.043308 265.520134 
L 835.404084 265.472855 
L 838.76486 265.496494 
L 842.125636 265.472855 
L 845.486412 265.472855 
L 848.847187 261.312336 
" clip-path="url(#p6d375c2e7e)" style="fill: none; stroke: #1f77b4; stroke-opacity: 0.9; stroke-width: 1.2; stroke-linecap: round"/>
   </g>
   <g id="line2d_52">
    <path d="M 458.997187 264.905512 
L 462.357963 264.95279 
L 465.718739 264.929151 
L 469.079515 264.834594 
L 472.440291 264.716397 
L 475.801067 264.314529 
L 479.161843 264.409086 
L 482.522619 265.023708 
L 485.883394 264.97643 
L 489.24417 264.858233 
L 492.604946 264.787315 
L 495.965722 264.929151 
L 499.326498 264.314529 
L 502.687274 264.929151 
L 506.04805 264.125414 
L 509.408825 264.858233 
L 512.769601 264.810954 
L 516.130377 264.858233 
L 519.491153 264.29089 
L 522.851929 264.338168 
L 526.212705 264.361807 
L 529.573481 264.409086 
L 532.934256 264.810954 
L 536.295032 264.432725 
L 539.655808 264.810954 
L 543.016584 264.503643 
L 546.37736 264.95279 
L 549.738136 264.787315 
L 553.098912 265.070987 
L 556.459687 264.834594 
L 559.820463 264.834594 
L 563.181239 264.929151 
L 566.542015 264.95279 
L 569.902791 264.95279 
L 573.263567 264.95279 
L 576.624343 265.047348 
L 579.985119 265.023708 
L 583.345894 264.97643 
L 586.70667 264.881872 
L 590.067446 264.834594 
L 593.428222 264.929151 
L 596.788998 264.834594 
L 600.149774 264.97643 
L 603.51055 265.094626 
L 606.871325 263.959939 
L 610.232101 264.929151 
L 613.592877 264.905512 
L 616.953653 264.929151 
L 620.314429 264.95279 
L 623.675205 264.97643 
L 627.035981 265.094626 
L 630.396756 264.881872 
L 633.757532 264.95279 
L 637.118308 264.97643 
L 640.479084 264.95279 
L 643.83986 264.95279 
L 647.200636 264.95279 
L 650.561412 264.574561 
L 653.922187 264.97643 
L 657.282963 265.070987 
L 660.643739 265.094626 
L 664.004515 265.094626 
L 667.365291 265.023708 
L 670.726067 265.070987 
L 674.086843 265.118265 
L 677.447619 265.118265 
L 680.808394 265.118265 
L 684.16917 265.118265 
L 687.529946 265.118265 
L 690.890722 265.118265 
L 694.251498 265.000069 
L 697.612274 265.047348 
L 700.97305 265.118265 
L 704.333825 264.905512 
L 707.694601 264.030857 
L 711.055377 264.456365 
L 714.416153 264.503643 
L 717.776929 264.385447 
L 721.137705 264.432725 
L 724.498481 264.503643 
L 727.859256 264.409086 
L 731.220032 264.432725 
L 734.580808 265.023708 
L 737.941584 264.95279 
L 741.30236 265.023708 
L 744.663136 265.000069 
L 748.023912 265.118265 
L 751.384687 264.95279 
L 754.745463 265.070987 
L 758.106239 265.118265 
L 761.467015 265.070987 
L 764.827791 265.070987 
L 768.188567 264.692758 
L 771.549343 265.118265 
L 774.910119 265.023708 
L 778.270894 265.047348 
L 781.63167 265.047348 
L 784.992446 265.094626 
L 788.353222 265.023708 
L 791.713998 265.023708 
L 795.074774 264.97643 
L 798.43555 264.95279 
L 801.796325 265.000069 
L 805.157101 264.97643 
L 808.517877 264.007218 
L 811.878653 265.070987 
L 815.239429 265.118265 
L 818.600205 265.118265 
L 821.960981 265.118265 
L 825.321756 265.070987 
L 828.682532 265.023708 
L 832.043308 265.070987 
L 835.404084 265.094626 
L 838.76486 265.118265 
L 842.125636 265.094626 
L 845.486412 265.070987 
L 848.847187 261.785123 
" clip-path="url(#p6d375c2e7e)" style="fill: none; stroke: #ff7f0e; stroke-opacity: 0.9; stroke-width: 1.2; stroke-linecap: round"/>
   </g>
   <g id="line2d_53">
    <path d="M 458.997187 33.736683 
L 462.357963 33.50029 
L 465.718739 33.523929 
L 469.079515 33.523929 
L 472.440291 33.689404 
L 475.801067 33.523929 
L 479.161843 33.476651 
L 482.522619 33.665765 
L 485.883394 33.547569 
L 489.24417 33.689404 
L 492.604946 33.50029 
L 495.965722 33.476651 
L 499.326498 33.50029 
L 502.687274 33.50029 
L 506.04805 33.476651 
L 509.408825 33.689404 
L 512.769601 33.476651 
L 516.130377 33.50029 
L 519.491153 33.50029 
L 522.851929 33.523929 
L 526.212705 33.50029 
L 529.573481 33.453011 
L 532.934256 33.523929 
L 536.295032 33.547569 
L 539.655808 33.760322 
L 543.016584 33.50029 
L 546.37736 33.523929 
L 549.738136 33.50029 
L 553.098912 33.453011 
L 556.459687 33.50029 
L 559.820463 33.50029 
L 563.181239 33.523929 
L 566.542015 33.50029 
L 569.902791 33.523929 
L 573.263567 33.523929 
L 576.624343 33.453011 
L 579.985119 33.50029 
L 583.345894 33.523929 
L 586.70667 33.665765 
L 590.067446 33.50029 
L 593.428222 33.476651 
L 596.788998 33.523929 
L 600.149774 33.50029 
L 603.51055 33.642126 
L 606.871325 33.50029 
L 610.232101 33.50029 
L 613.592877 33.50029 
L 616.953653 33.50029 
L 620.314429 33.523929 
L 623.675205 33.50029 
L 627.035981 33.476651 
L 630.396756 33.50029 
L 633.757532 33.50029 
L 637.118308 33.547569 
L 640.479084 33.523929 
L 643.83986 33.50029 
L 647.200636 33.50029 
L 650.561412 33.453011 
L 653.922187 33.50029 
L 657.282963 33.476651 
L 660.643739 33.50029 
L 664.004515 33.665765 
L 667.365291 33.50029 
L 670.726067 33.476651 
L 674.086843 33.476651 
L 677.447619 33.476651 
L 680.808394 33.665765 
L 684.16917 33.50029 
L 687.529946 33.50029 
L 690.890722 33.476651 
L 694.251498 33.642126 
L 697.612274 33.50029 
L 700.97305 33.594847 
L 704.333825 33.618487 
L 707.694601 33.571208 
L 711.055377 33.50029 
L 714.416153 33.476651 
L 717.776929 33.523929 
L 721.137705 33.50029 
L 724.498481 33.453011 
L 727.859256 33.50029 
L 731.220032 33.476651 
L 734.580808 33.50029 
L 737.941584 33.571208 
L 741.30236 33.476651 
L 744.663136 33.50029 
L 748.023912 33.642126 
L 751.384687 33.476651 
L 754.745463 33.50029 
L 758.106239 33.50029 
L 761.467015 33.50029 
L 764.827791 33.50029 
L 768.188567 33.618487 
L 771.549343 33.476651 
L 774.910119 33.594847 
L 778.270894 33.50029 
L 781.63167 33.50029 
L 784.992446 33.476651 
L 788.353222 33.476651 
L 791.713998 33.50029 
L 795.074774 33.476651 
L 798.43555 33.453011 
L 801.796325 33.476651 
L 805.157101 33.571208 
L 808.517877 33.476651 
L 811.878653 33.50029 
L 815.239429 33.476651 
L 818.600205 33.50029 
L 821.960981 33.453011 
L 825.321756 33.50029 
L 828.682532 33.50029 
L 832.043308 33.476651 
L 835.404084 33.50029 
L 838.76486 33.476651 
L 842.125636 33.476651 
L 845.486412 33.453011 
L 848.847187 34.800452 
" clip-path="url(#p6d375c2e7e)" style="fill: none; stroke: #2ca02c; stroke-opacity: 0.9; stroke-width: 1.2; stroke-linecap: round"/>
   </g>
   <g id="line2d_54">
    <path d="M 458.997187 265.378298 
L 462.357963 265.449216 
L 465.718739 265.449216 
L 469.079515 265.449216 
L 472.440291 265.425576 
L 475.801067 265.401937 
L 479.161843 265.449216 
L 482.522619 265.591052 
L 485.883394 265.425576 
L 489.24417 265.449216 
L 492.604946 265.401937 
L 495.965722 265.449216 
L 499.326498 265.449216 
L 502.687274 265.472855 
L 506.04805 265.591052 
L 509.408825 265.401937 
L 512.769601 265.425576 
L 516.130377 265.449216 
L 519.491153 265.425576 
L 522.851929 265.449216 
L 526.212705 265.425576 
L 529.573481 265.591052 
L 532.934256 265.449216 
L 536.295032 265.449216 
L 539.655808 265.378298 
L 543.016584 264.361807 
L 546.37736 264.858233 
L 549.738136 265.260101 
L 553.098912 265.567412 
L 556.459687 265.472855 
L 559.820463 265.425576 
L 563.181239 265.472855 
L 566.542015 265.449216 
L 569.902791 265.449216 
L 573.263567 264.858233 
L 576.624343 264.97643 
L 579.985119 264.929151 
L 583.345894 264.881872 
L 586.70667 265.449216 
L 590.067446 264.905512 
L 593.428222 265.354659 
L 596.788998 265.449216 
L 600.149774 265.449216 
L 603.51055 264.97643 
L 606.871325 265.354659 
L 610.232101 265.378298 
L 613.592877 265.354659 
L 616.953653 265.378298 
L 620.314429 264.787315 
L 623.675205 264.858233 
L 627.035981 264.858233 
L 630.396756 265.283741 
L 633.757532 264.810954 
L 637.118308 264.834594 
L 640.479084 264.834594 
L 643.83986 265.378298 
L 647.200636 265.378298 
L 650.561412 265.449216 
L 653.922187 265.520134 
L 657.282963 265.378298 
L 660.643739 265.378298 
L 664.004515 265.354659 
L 667.365291 265.354659 
L 670.726067 264.810954 
L 674.086843 265.401937 
L 677.447619 265.591052 
L 680.808394 265.378298 
L 684.16917 265.354659 
L 687.529946 264.834594 
L 690.890722 264.787315 
L 694.251498 264.834594 
L 697.612274 264.858233 
L 700.97305 264.834594 
L 704.333825 264.881872 
L 707.694601 264.905512 
L 711.055377 265.378298 
L 714.416153 265.354659 
L 717.776929 265.378298 
L 721.137705 265.401937 
L 724.498481 265.591052 
L 727.859256 265.449216 
L 731.220032 265.354659 
L 734.580808 264.858233 
L 737.941584 264.763676 
L 741.30236 265.449216 
L 744.663136 265.449216 
L 748.023912 265.543773 
L 751.384687 265.472855 
L 754.745463 265.401937 
L 758.106239 265.378298 
L 761.467015 265.354659 
L 764.827791 265.354659 
L 768.188567 265.354659 
L 771.549343 265.425576 
L 774.910119 265.543773 
L 778.270894 265.354659 
L 781.63167 265.378298 
L 784.992446 265.378298 
L 788.353222 265.425576 
L 791.713998 265.472855 
L 795.074774 265.449216 
L 798.43555 265.614691 
L 801.796325 265.449216 
L 805.157101 265.449216 
L 808.517877 265.449216 
L 811.878653 265.425576 
L 815.239429 265.354659 
L 818.600205 265.378298 
L 821.960981 265.567412 
L 825.321756 265.354659 
L 828.682532 265.378298 
L 832.043308 265.354659 
L 835.404084 265.378298 
L 838.76486 265.378298 
L 842.125636 265.378298 
L 845.486412 265.591052 
L 848.847187 253.345888 
" clip-path="url(#p6d375c2e7e)" style="fill: none; stroke: #d62728; stroke-opacity: 0.9; stroke-width: 1.2; stroke-linecap: round"/>
   </g>
   <g id="line2d_55">
    <path d="M 458.997187 265.520134 
L 462.357963 265.709248 
L 465.718739 265.709248 
L 469.079515 265.709248 
L 472.440291 265.709248 
L 475.801067 265.685609 
L 479.161843 265.685609 
L 482.522619 265.709248 
L 485.883394 265.732888 
L 489.24417 265.709248 
L 492.604946 265.685609 
L 495.965722 265.685609 
L 499.326498 265.709248 
L 502.687274 265.709248 
L 506.04805 265.709248 
L 509.408825 265.732888 
L 512.769601 265.732888 
L 516.130377 265.732888 
L 519.491153 265.709248 
L 522.851929 265.709248 
L 526.212705 265.732888 
L 529.573481 265.732888 
L 532.934256 265.709248 
L 536.295032 265.709248 
L 539.655808 265.709248 
L 543.016584 265.685609 
L 546.37736 265.709248 
L 549.738136 265.732888 
L 553.098912 265.756527 
L 556.459687 265.732888 
L 559.820463 265.66197 
L 563.181239 265.732888 
L 566.542015 265.709248 
L 569.902791 264.97643 
L 573.263567 265.66197 
L 576.624343 265.709248 
L 579.985119 265.732888 
L 583.345894 265.732888 
L 586.70667 265.732888 
L 590.067446 265.709248 
L 593.428222 265.685609 
L 596.788998 265.732888 
L 600.149774 265.756527 
L 603.51055 265.732888 
L 606.871325 265.023708 
L 610.232101 265.118265 
L 613.592877 265.66197 
L 616.953653 265.709248 
L 620.314429 265.66197 
L 623.675205 265.732888 
L 627.035981 265.732888 
L 630.396756 265.709248 
L 633.757532 265.756527 
L 637.118308 265.709248 
L 640.479084 265.709248 
L 643.83986 265.165544 
L 647.200636 265.023708 
L 650.561412 265.236462 
L 653.922187 265.709248 
L 657.282963 265.685609 
L 660.643739 265.685609 
L 664.004515 265.543773 
L 667.365291 265.685609 
L 670.726067 265.732888 
L 674.086843 265.756527 
L 677.447619 265.756527 
L 680.808394 265.66197 
L 684.16917 265.732888 
L 687.529946 265.732888 
L 690.890722 265.756527 
L 694.251498 265.709248 
L 697.612274 265.685609 
L 700.97305 265.732888 
L 704.333825 265.732888 
L 707.694601 265.732888 
L 711.055377 265.732888 
L 714.416153 265.709248 
L 717.776929 265.709248 
L 721.137705 265.66197 
L 724.498481 265.756527 
L 727.859256 265.709248 
L 731.220032 265.709248 
L 734.580808 265.709248 
L 737.941584 265.709248 
L 741.30236 265.189183 
L 744.663136 265.189183 
L 748.023912 265.141905 
L 751.384687 265.165544 
L 754.745463 265.189183 
L 758.106239 265.756527 
L 761.467015 265.732888 
L 764.827791 265.66197 
L 768.188567 265.685609 
L 771.549343 265.732888 
L 774.910119 265.732888 
L 778.270894 265.709248 
L 781.63167 265.66197 
L 784.992446 265.709248 
L 788.353222 265.709248 
L 791.713998 265.165544 
L 795.074774 265.685609 
L 798.43555 265.709248 
L 801.796325 265.709248 
L 805.157101 265.685609 
L 808.517877 265.709248 
L 811.878653 265.709248 
L 815.239429 265.685609 
L 818.600205 265.732888 
L 821.960981 265.732888 
L 825.321756 265.63833 
L 828.682532 265.685609 
L 832.043308 265.66197 
L 835.404084 265.709248 
L 838.76486 265.165544 
L 842.125636 265.141905 
L 845.486412 265.732888 
L 848.847187 261.312336 
" clip-path="url(#p6d375c2e7e)" style="fill: none; stroke: #9467bd; stroke-opacity: 0.9; stroke-width: 1.2; stroke-linecap: round"/>
   </g>
   <g id="line2d_56">
    <path d="M 458.997187 265.543773 
L 462.357963 265.567412 
L 465.718739 265.591052 
L 469.079515 265.591052 
L 472.440291 265.496494 
L 475.801067 265.520134 
L 479.161843 265.614691 
L 482.522619 265.591052 
L 485.883394 265.567412 
L 489.24417 264.95279 
L 492.604946 264.858233 
L 495.965722 265.567412 
L 499.326498 265.63833 
L 502.687274 265.66197 
L 506.04805 265.709248 
L 509.408825 265.66197 
L 512.769601 265.66197 
L 516.130377 265.66197 
L 519.491153 265.66197 
L 522.851929 265.591052 
L 526.212705 265.614691 
L 529.573481 265.685609 
L 532.934256 265.567412 
L 536.295032 265.520134 
L 539.655808 264.97643 
L 543.016584 265.543773 
L 546.37736 265.567412 
L 549.738136 264.97643 
L 553.098912 265.047348 
L 556.459687 264.97643 
L 559.820463 265.543773 
L 563.181239 265.520134 
L 566.542015 265.543773 
L 569.902791 265.567412 
L 573.263567 265.567412 
L 576.624343 265.63833 
L 579.985119 265.591052 
L 583.345894 265.591052 
L 586.70667 264.95279 
L 590.067446 265.354659 
L 593.428222 265.63833 
L 596.788998 265.63833 
L 600.149774 265.66197 
L 603.51055 265.63833 
L 606.871325 265.614691 
L 610.232101 265.66197 
L 613.592877 265.070987 
L 616.953653 265.070987 
L 620.314429 265.63833 
L 623.675205 265.66197 
L 627.035981 265.66197 
L 630.396756 265.094626 
L 633.757532 265.63833 
L 637.118308 265.63833 
L 640.479084 265.63833 
L 643.83986 265.63833 
L 647.200636 265.63833 
L 650.561412 265.66197 
L 653.922187 265.047348 
L 657.282963 265.047348 
L 660.643739 265.070987 
L 664.004515 265.023708 
L 667.365291 265.047348 
L 670.726067 265.591052 
L 674.086843 265.66197 
L 677.447619 265.685609 
L 680.808394 265.66197 
L 684.16917 265.66197 
L 687.529946 265.66197 
L 690.890722 265.63833 
L 694.251498 265.66197 
L 697.612274 265.66197 
L 700.97305 265.709248 
L 704.333825 265.614691 
L 707.694601 265.614691 
L 711.055377 265.567412 
L 714.416153 265.66197 
L 717.776929 265.66197 
L 721.137705 265.66197 
L 724.498481 265.685609 
L 727.859256 265.63833 
L 731.220032 265.66197 
L 734.580808 265.63833 
L 737.941584 265.614691 
L 741.30236 265.66197 
L 744.663136 265.66197 
L 748.023912 265.709248 
L 751.384687 265.63833 
L 754.745463 265.66197 
L 758.106239 265.66197 
L 761.467015 265.496494 
L 764.827791 265.496494 
L 768.188567 264.881872 
L 771.549343 264.810954 
L 774.910119 265.047348 
L 778.270894 264.834594 
L 781.63167 264.905512 
L 784.992446 264.834594 
L 788.353222 264.881872 
L 791.713998 265.401937 
L 795.074774 264.905512 
L 798.43555 265.047348 
L 801.796325 264.858233 
L 805.157101 264.858233 
L 808.517877 265.449216 
L 811.878653 265.472855 
L 815.239429 265.496494 
L 818.600205 265.472855 
L 821.960981 265.66197 
L 825.321756 265.449216 
L 828.682532 264.881872 
L 832.043308 265.449216 
L 835.404084 265.496494 
L 838.76486 265.496494 
L 842.125636 265.472855 
L 845.486412 265.023708 
L 848.847187 254.409657 
" clip-path="url(#p6d375c2e7e)" style="fill: none; stroke: #8c564b; stroke-opacity: 0.9; stroke-width: 1.2; stroke-linecap: round"/>
   </g>
   <g id="line2d_57">
    <path d="M 458.997187 266.276592 
L 462.357963 266.371149 
L 465.718739 266.371149 
L 469.079515 266.371149 
L 472.440291 266.34751 
L 475.801067 266.371149 
L 479.161843 266.442067 
L 482.522619 266.631181 
L 485.883394 266.371149 
L 489.24417 266.371149 
L 492.604946 266.34751 
L 495.965722 266.34751 
L 499.326498 266.418428 
L 502.687274 266.418428 
L 506.04805 266.67846 
L 509.408825 266.300231 
L 512.769601 266.34751 
L 516.130377 266.371149 
L 519.491153 266.371149 
L 522.851929 266.371149 
L 526.212705 266.394788 
L 529.573481 266.702099 
L 532.934256 266.32387 
L 536.295032 266.34751 
L 539.655808 266.371149 
L 543.016584 266.371149 
L 546.37736 266.394788 
L 549.738136 266.32387 
L 553.098912 266.725739 
L 556.459687 266.371149 
L 559.820463 266.34751 
L 563.181239 266.371149 
L 566.542015 266.371149 
L 569.902791 266.371149 
L 573.263567 266.371149 
L 576.624343 266.607542 
L 579.985119 266.489346 
L 583.345894 266.371149 
L 586.70667 266.371149 
L 590.067446 266.32387 
L 593.428222 266.371149 
L 596.788998 266.418428 
L 600.149774 266.442067 
L 603.51055 266.631181 
L 606.871325 266.371149 
L 610.232101 266.32387 
L 613.592877 266.371149 
L 616.953653 266.371149 
L 620.314429 266.371149 
L 623.675205 266.442067 
L 627.035981 266.67846 
L 630.396756 266.34751 
L 633.757532 266.371149 
L 637.118308 266.394788 
L 640.479084 266.371149 
L 643.83986 266.394788 
L 647.200636 266.371149 
L 650.561412 266.394788 
L 653.922187 266.560263 
L 657.282963 266.158395 
L 660.643739 266.182034 
L 664.004515 266.158395 
L 667.365291 266.205674 
L 670.726067 266.158395 
L 674.086843 266.229313 
L 677.447619 266.67846 
L 680.808394 266.182034 
L 684.16917 266.182034 
L 687.529946 266.182034 
L 690.890722 266.205674 
L 694.251498 266.182034 
L 697.612274 266.229313 
L 700.97305 266.67846 
L 704.333825 266.111117 
L 707.694601 266.182034 
L 711.055377 266.134756 
L 714.416153 266.182034 
L 717.776929 266.182034 
L 721.137705 266.134756 
L 724.498481 266.725739 
L 727.859256 266.182034 
L 731.220032 266.158395 
L 734.580808 266.205674 
L 737.941584 266.111117 
L 741.30236 266.205674 
L 744.663136 266.205674 
L 748.023912 266.512985 
L 751.384687 266.34751 
L 754.745463 266.205674 
L 758.106239 266.182034 
L 761.467015 266.394788 
L 764.827791 266.418428 
L 768.188567 266.442067 
L 771.549343 266.489346 
L 774.910119 266.67846 
L 778.270894 266.442067 
L 781.63167 266.465706 
L 784.992446 266.418428 
L 788.353222 266.442067 
L 791.713998 266.465706 
L 795.074774 266.489346 
L 798.43555 266.725739 
L 801.796325 266.442067 
L 805.157101 266.442067 
L 808.517877 266.418428 
L 811.878653 266.442067 
L 815.239429 266.442067 
L 818.600205 266.442067 
L 821.960981 266.725739 
L 825.321756 266.465706 
L 828.682532 266.442067 
L 832.043308 266.418428 
L 835.404084 266.442067 
L 838.76486 266.442067 
L 842.125636 266.442067 
L 845.486412 266.725739 
L 848.847187 254.575132 
" clip-path="url(#p6d375c2e7e)" style="fill: none; stroke: #e377c2; stroke-opacity: 0.9; stroke-width: 1.2; stroke-linecap: round"/>
   </g>
   <g id="line2d_58">
    <path d="M 458.997187 265.496494 
L 462.357963 265.543773 
L 465.718739 265.520134 
L 469.079515 265.543773 
L 472.440291 265.520134 
L 475.801067 265.520134 
L 479.161843 265.520134 
L 482.522619 265.000069 
L 485.883394 265.000069 
L 489.24417 265.543773 
L 492.604946 265.543773 
L 495.965722 265.520134 
L 499.326498 265.520134 
L 502.687274 265.543773 
L 506.04805 265.567412 
L 509.408825 265.520134 
L 512.769601 265.496494 
L 516.130377 265.520134 
L 519.491153 265.520134 
L 522.851929 265.520134 
L 526.212705 265.520134 
L 529.573481 265.567412 
L 532.934256 265.496494 
L 536.295032 265.520134 
L 539.655808 265.496494 
L 543.016584 265.520134 
L 546.37736 265.496494 
L 549.738136 265.520134 
L 553.098912 265.520134 
L 556.459687 265.567412 
L 559.820463 264.929151 
L 563.181239 265.047348 
L 566.542015 265.000069 
L 569.902791 265.591052 
L 573.263567 265.567412 
L 576.624343 265.614691 
L 579.985119 265.567412 
L 583.345894 265.591052 
L 586.70667 265.567412 
L 590.067446 265.591052 
L 593.428222 265.567412 
L 596.788998 265.591052 
L 600.149774 265.591052 
L 603.51055 265.614691 
L 606.871325 265.567412 
L 610.232101 265.591052 
L 613.592877 265.567412 
L 616.953653 265.591052 
L 620.314429 265.567412 
L 623.675205 265.591052 
L 627.035981 265.614691 
L 630.396756 265.591052 
L 633.757532 265.567412 
L 637.118308 265.591052 
L 640.479084 265.591052 
L 643.83986 265.591052 
L 647.200636 265.543773 
L 650.561412 265.023708 
L 653.922187 265.591052 
L 657.282963 265.567412 
L 660.643739 265.591052 
L 664.004515 265.567412 
L 667.365291 265.567412 
L 670.726067 265.591052 
L 674.086843 265.591052 
L 677.447619 265.63833 
L 680.808394 265.591052 
L 684.16917 265.591052 
L 687.529946 265.591052 
L 690.890722 265.591052 
L 694.251498 265.567412 
L 697.612274 265.591052 
L 700.97305 265.614691 
L 704.333825 265.591052 
L 707.694601 265.567412 
L 711.055377 265.543773 
L 714.416153 265.543773 
L 717.776929 265.567412 
L 721.137705 265.543773 
L 724.498481 265.591052 
L 727.859256 265.543773 
L 731.220032 265.567412 
L 734.580808 265.543773 
L 737.941584 265.543773 
L 741.30236 265.543773 
L 744.663136 265.567412 
L 748.023912 265.567412 
L 751.384687 265.543773 
L 754.745463 265.520134 
L 758.106239 265.000069 
L 761.467015 265.000069 
L 764.827791 264.97643 
L 768.188567 265.000069 
L 771.549343 265.378298 
L 774.910119 265.567412 
L 778.270894 265.543773 
L 781.63167 265.520134 
L 784.992446 265.567412 
L 788.353222 265.520134 
L 791.713998 265.543773 
L 795.074774 265.543773 
L 798.43555 265.614691 
L 801.796325 265.520134 
L 805.157101 265.567412 
L 808.517877 265.000069 
L 811.878653 264.97643 
L 815.239429 264.97643 
L 818.600205 264.95279 
L 821.960981 265.047348 
L 825.321756 265.023708 
L 828.682532 265.543773 
L 832.043308 264.929151 
L 835.404084 264.95279 
L 838.76486 265.543773 
L 842.125636 265.543773 
L 845.486412 265.614691 
L 848.847187 256.631753 
" clip-path="url(#p6d375c2e7e)" style="fill: none; stroke: #7f7f7f; stroke-opacity: 0.9; stroke-width: 1.2; stroke-linecap: round"/>
   </g>
   <g id="line2d_59">
    <path d="M 458.997187 265.212823 
L 462.357963 265.189183 
L 465.718739 265.212823 
L 469.079515 264.078136 
L 472.440291 264.97643 
" clip-path="url(#p6d375c2e7e)" style="fill: none; stroke-dasharray: 4.44,1.92; stroke-dashoffset: 0; stroke: #1f77b4; stroke-opacity: 0.9; stroke-width: 1.2"/>
   </g>
   <g id="line2d_60">
    <path d="M 458.997187 264.361807 
L 462.357963 264.550922 
L 465.718739 264.480004 
L 469.079515 263.58171 
L 472.440291 264.645479 
" clip-path="url(#p6d375c2e7e)" style="fill: none; stroke-dasharray: 4.44,1.92; stroke-dashoffset: 0; stroke: #ff7f0e; stroke-opacity: 0.9; stroke-width: 1.2"/>
   </g>
   <g id="line2d_61">
    <path d="M 458.997187 34.634977 
L 462.357963 34.422223 
L 465.718739 34.374945 
L 469.079515 34.469502 
L 472.440291 36.171532 
" clip-path="url(#p6d375c2e7e)" style="fill: none; stroke-dasharray: 4.44,1.92; stroke-dashoffset: 0; stroke: #2ca02c; stroke-opacity: 0.9; stroke-width: 1.2"/>
   </g>
   <g id="line2d_62">
    <path d="M 458.997187 261.974237 
L 462.357963 261.997876 
L 465.718739 262.021516 
L 469.079515 261.903319 
L 472.440291 261.832401 
" clip-path="url(#p6d375c2e7e)" style="fill: none; stroke-dasharray: 4.44,1.92; stroke-dashoffset: 0; stroke: #d62728; stroke-opacity: 0.9; stroke-width: 1.2"/>
   </g>
   <g id="line2d_63">
    <path d="M 458.997187 261.548729 
L 462.357963 261.666926 
L 465.718739 261.643287 
L 469.079515 261.501451 
L 472.440291 261.548729 
" clip-path="url(#p6d375c2e7e)" style="fill: none; stroke-dasharray: 4.44,1.92; stroke-dashoffset: 0; stroke: #9467bd; stroke-opacity: 0.9; stroke-width: 1.2"/>
   </g>
   <g id="line2d_64">
    <path d="M 458.997187 262.021516 
L 462.357963 262.186991 
L 465.718739 262.116073 
L 469.079515 262.092434 
L 472.440291 261.950598 
" clip-path="url(#p6d375c2e7e)" style="fill: none; stroke-dasharray: 4.44,1.92; stroke-dashoffset: 0; stroke: #8c564b; stroke-opacity: 0.9; stroke-width: 1.2"/>
   </g>
   <g id="line2d_65">
    <path d="M 458.997187 264.95279 
L 462.357963 264.97643 
L 465.718739 265.000069 
L 469.079515 264.95279 
L 472.440291 265.070987 
" clip-path="url(#p6d375c2e7e)" style="fill: none; stroke-dasharray: 4.44,1.92; stroke-dashoffset: 0; stroke: #e377c2; stroke-opacity: 0.9; stroke-width: 1.2"/>
   </g>
   <g id="line2d_66">
    <path d="M 458.997187 264.669119 
L 462.357963 264.740036 
L 465.718739 264.692758 
L 469.079515 264.716397 
L 472.440291 264.29089 
" clip-path="url(#p6d375c2e7e)" style="fill: none; stroke-dasharray: 4.44,1.92; stroke-dashoffset: 0; stroke: #7f7f7f; stroke-opacity: 0.9; stroke-width: 1.2"/>
   </g>
   <g id="patch_10">
    <path d="M 458.997187 278.389375 
L 458.997187 21.789375 
" style="fill: none; stroke: #cccccc; stroke-width: 0.8; stroke-linejoin: miter; stroke-linecap: square"/>
   </g>
   <g id="patch_11">
    <path d="M 848.847187 278.389375 
L 848.847187 21.789375 
" style="fill: none; stroke: #cccccc; stroke-width: 0.8; stroke-linejoin: miter; stroke-linecap: square"/>
   </g>
   <g id="patch_12">
    <path d="M 458.997187 278.389375 
L 848.847187 278.389375 
" style="fill: none; stroke: #cccccc; stroke-width: 0.8; stroke-linejoin: miter; stroke-linecap: square"/>
   </g>
   <g id="patch_13">
    <path d="M 458.997187 21.789375 
L 848.847187 21.789375 
" style="fill: none; stroke: #cccccc; stroke-width: 0.8; stroke-linejoin: miter; stroke-linecap: square"/>
   </g>
   <g id="text_36">
    <!-- APX1278 — PC2 1 core -->
    <g style="fill: #262626" transform="translate(589.2225 15.789375) scale(0.12 -0.12)">
     <use xlink:href="#ArialMT-41"/>
     <use xlink:href="#ArialMT-50" transform="translate(66.699219 0)"/>
     <use xlink:href="#ArialMT-58" transform="translate(133.398438 0)"/>
     <use xlink:href="#ArialMT-31" transform="translate(200.097656 0)"/>
     <use xlink:href="#ArialMT-32" transform="translate(255.712891 0)"/>
     <use xlink:href="#ArialMT-37" transform="translate(311.328125 0)"/>
     <use xlink:href="#ArialMT-38" transform="translate(366.943359 0)"/>
     <use xlink:href="#ArialMT-20" transform="translate(422.558594 0)"/>
     <use xlink:href="#ArialMT-2014" transform="translate(450.341797 0)"/>
     <use xlink:href="#ArialMT-20" transform="translate(550.341797 0)"/>
     <use xlink:href="#ArialMT-50" transform="translate(578.125 0)"/>
     <use xlink:href="#ArialMT-43" transform="translate(644.824219 0)"/>
     <use xlink:href="#ArialMT-32" transform="translate(717.041016 0)"/>
     <use xlink:href="#ArialMT-20" transform="translate(772.65625 0)"/>
     <use xlink:href="#ArialMT-31" transform="translate(800.439453 0)"/>
     <use xlink:href="#ArialMT-20" transform="translate(856.054688 0)"/>
     <use xlink:href="#ArialMT-63" transform="translate(883.837891 0)"/>
     <use xlink:href="#ArialMT-6f" transform="translate(933.837891 0)"/>
     <use xlink:href="#ArialMT-72" transform="translate(989.453125 0)"/>
     <use xlink:href="#ArialMT-65" transform="translate(1022.753906 0)"/>
    </g>
   </g>
   <g id="legend_3">
    <g id="patch_14">
     <path d="M 732.122187 85.685156 
L 843.247187 85.685156 
Q 844.847188 85.685156 844.847188 84.085156 
L 844.847188 27.389375 
Q 844.847188 25.789375 843.247187 25.789375 
L 732.122187 25.789375 
Q 730.522187 25.789375 730.522187 27.389375 
L 730.522187 84.085156 
Q 730.522187 85.685156 732.122187 85.685156 
z
" style="fill: #ffffff; opacity: 0.8; stroke: #cccccc; stroke-linejoin: miter"/>
    </g>
    <g id="text_37">
     <!-- CPU -->
     <g style="fill: #262626" transform="translate(778.183359 35.431406) scale(0.09 -0.09)">
      <use xlink:href="#ArialMT-43"/>
      <use xlink:href="#ArialMT-50" transform="translate(72.216797 0)"/>
      <use xlink:href="#ArialMT-55" transform="translate(138.916016 0)"/>
     </g>
    </g>
    <g id="line2d_67">
     <path d="M 733.722188 44.146406 
L 741.722188 44.146406 
L 749.722188 44.146406 
" style="fill: none; stroke: #1f77b4; stroke-width: 2; stroke-linecap: round"/>
    </g>
    <g id="text_38">
     <!-- CPU 0 -->
     <g style="fill: #262626" transform="translate(756.122187 46.946406) scale(0.08 -0.08)">
      <use xlink:href="#ArialMT-43"/>
      <use xlink:href="#ArialMT-50" transform="translate(72.216797 0)"/>
      <use xlink:href="#ArialMT-55" transform="translate(138.916016 0)"/>
      <use xlink:href="#ArialMT-20" transform="translate(211.132812 0)"/>
      <use xlink:href="#ArialMT-30" transform="translate(238.916016 0)"/>
     </g>
    </g>
    <g id="line2d_68">
     <path d="M 733.722188 55.462656 
L 741.722188 55.462656 
L 749.722188 55.462656 
" style="fill: none; stroke: #ff7f0e; stroke-width: 2; stroke-linecap: round"/>
    </g>
    <g id="text_39">
     <!-- CPU 1 -->
     <g style="fill: #262626" transform="translate(756.122187 58.262656) scale(0.08 -0.08)">
      <use xlink:href="#ArialMT-43"/>
      <use xlink:href="#ArialMT-50" transform="translate(72.216797 0)"/>
      <use xlink:href="#ArialMT-55" transform="translate(138.916016 0)"/>
      <use xlink:href="#ArialMT-20" transform="translate(211.132812 0)"/>
      <use xlink:href="#ArialMT-31" transform="translate(238.916016 0)"/>
     </g>
    </g>
    <g id="line2d_69">
     <path d="M 733.722188 66.778906 
L 741.722188 66.778906 
L 749.722188 66.778906 
" style="fill: none; stroke: #2ca02c; stroke-width: 2; stroke-linecap: round"/>
    </g>
    <g id="text_40">
     <!-- CPU 2 -->
     <g style="fill: #262626" transform="translate(756.122187 69.578906) scale(0.08 -0.08)">
      <use xlink:href="#ArialMT-43"/>
      <use xlink:href="#ArialMT-50" transform="translate(72.216797 0)"/>
      <use xlink:href="#ArialMT-55" transform="translate(138.916016 0)"/>
      <use xlink:href="#ArialMT-20" transform="translate(211.132812 0)"/>
      <use xlink:href="#ArialMT-32" transform="translate(238.916016 0)"/>
     </g>
    </g>
    <g id="line2d_70">
     <path d="M 733.722188 78.095156 
L 741.722188 78.095156 
L 749.722188 78.095156 
" style="fill: none; stroke: #d62728; stroke-width: 2; stroke-linecap: round"/>
    </g>
    <g id="text_41">
     <!-- CPU 3 -->
     <g style="fill: #262626" transform="translate(756.122187 80.895156) scale(0.08 -0.08)">
      <use xlink:href="#ArialMT-43"/>
      <use xlink:href="#ArialMT-50" transform="translate(72.216797 0)"/>
      <use xlink:href="#ArialMT-55" transform="translate(138.916016 0)"/>
      <use xlink:href="#ArialMT-20" transform="translate(211.132812 0)"/>
      <use xlink:href="#ArialMT-33" transform="translate(238.916016 0)"/>
     </g>
    </g>
    <g id="line2d_71">
     <path d="M 795.684687 44.146406 
L 803.684687 44.146406 
L 811.684687 44.146406 
" style="fill: none; stroke: #9467bd; stroke-width: 2; stroke-linecap: round"/>
    </g>
    <g id="text_42">
     <!-- CPU 4 -->
     <g style="fill: #262626" transform="translate(818.084687 46.946406) scale(0.08 -0.08)">
      <use xlink:href="#ArialMT-43"/>
      <use xlink:href="#ArialMT-50" transform="translate(72.216797 0)"/>
      <use xlink:href="#ArialMT-55" transform="translate(138.916016 0)"/>
      <use xlink:href="#ArialMT-20" transform="translate(211.132812 0)"/>
      <use xlink:href="#ArialMT-34" transform="translate(238.916016 0)"/>
     </g>
    </g>
    <g id="line2d_72">
     <path d="M 795.684687 55.462656 
L 803.684687 55.462656 
L 811.684687 55.462656 
" style="fill: none; stroke: #8c564b; stroke-width: 2; stroke-linecap: round"/>
    </g>
    <g id="text_43">
     <!-- CPU 5 -->
     <g style="fill: #262626" transform="translate(818.084687 58.262656) scale(0.08 -0.08)">
      <use xlink:href="#ArialMT-43"/>
      <use xlink:href="#ArialMT-50" transform="translate(72.216797 0)"/>
      <use xlink:href="#ArialMT-55" transform="translate(138.916016 0)"/>
      <use xlink:href="#ArialMT-20" transform="translate(211.132812 0)"/>
      <use xlink:href="#ArialMT-35" transform="translate(238.916016 0)"/>
     </g>
    </g>
    <g id="line2d_73">
     <path d="M 795.684687 66.778906 
L 803.684687 66.778906 
L 811.684687 66.778906 
" style="fill: none; stroke: #e377c2; stroke-width: 2; stroke-linecap: round"/>
    </g>
    <g id="text_44">
     <!-- CPU 6 -->
     <g style="fill: #262626" transform="translate(818.084687 69.578906) scale(0.08 -0.08)">
      <use xlink:href="#ArialMT-43"/>
      <use xlink:href="#ArialMT-50" transform="translate(72.216797 0)"/>
      <use xlink:href="#ArialMT-55" transform="translate(138.916016 0)"/>
      <use xlink:href="#ArialMT-20" transform="translate(211.132812 0)"/>
      <use xlink:href="#ArialMT-36" transform="translate(238.916016 0)"/>
     </g>
    </g>
    <g id="line2d_74">
     <path d="M 795.684687 78.095156 
L 803.684687 78.095156 
L 811.684687 78.095156 
" style="fill: none; stroke: #7f7f7f; stroke-width: 2; stroke-linecap: round"/>
    </g>
    <g id="text_45">
     <!-- CPU 7 -->
     <g style="fill: #262626" transform="translate(818.084687 80.895156) scale(0.08 -0.08)">
      <use xlink:href="#ArialMT-43"/>
      <use xlink:href="#ArialMT-50" transform="translate(72.216797 0)"/>
      <use xlink:href="#ArialMT-55" transform="translate(138.916016 0)"/>
      <use xlink:href="#ArialMT-20" transform="translate(211.132812 0)"/>
      <use xlink:href="#ArialMT-37" transform="translate(238.916016 0)"/>
     </g>
    </g>
   </g>
   <g id="legend_4">
    <g id="patch_15">
     <path d="M 464.597187 63.240156 
L 515.543437 63.240156 
Q 517.143437 63.240156 517.143437 61.640156 
L 517.143437 27.389375 
Q 517.143437 25.789375 515.543437 25.789375 
L 464.597187 25.789375 
Q 462.997187 25.789375 462.997187 27.389375 
L 462.997187 61.640156 
Q 462.997187 63.240156 464.597187 63.240156 
z
" style="fill: #ffffff; opacity: 0.8; stroke: #cccccc; stroke-linejoin: miter"/>
    </g>
    <g id="text_46">
     <!-- Variant -->
     <g style="fill: #262626" transform="translate(476.144922 35.431406) scale(0.09 -0.09)">
      <use xlink:href="#ArialMT-56"/>
      <use xlink:href="#ArialMT-61" transform="translate(59.324219 0)"/>
      <use xlink:href="#ArialMT-72" transform="translate(114.939453 0)"/>
      <use xlink:href="#ArialMT-69" transform="translate(148.240234 0)"/>
      <use xlink:href="#ArialMT-61" transform="translate(170.457031 0)"/>
      <use xlink:href="#ArialMT-6e" transform="translate(226.072266 0)"/>
      <use xlink:href="#ArialMT-74" transform="translate(281.6875 0)"/>
     </g>
    </g>
    <g id="line2d_75">
     <path d="M 466.197187 44.146406 
L 474.197187 44.146406 
L 482.197187 44.146406 
" style="fill: none; stroke: #333333; stroke-width: 2; stroke-linecap: round"/>
    </g>
    <g id="text_47">
     <!-- queryA -->
     <g style="fill: #262626" transform="translate(488.597187 46.946406) scale(0.08 -0.08)">
      <use xlink:href="#ArialMT-71"/>
      <use xlink:href="#ArialMT-75" transform="translate(55.615234 0)"/>
      <use xlink:href="#ArialMT-65" transform="translate(111.230469 0)"/>
      <use xlink:href="#ArialMT-72" transform="translate(166.845703 0)"/>
      <use xlink:href="#ArialMT-79" transform="translate(200.146484 0)"/>
      <use xlink:href="#ArialMT-41" transform="translate(250.146484 0)"/>
     </g>
    </g>
    <g id="line2d_76">
     <path d="M 466.197187 55.556406 
L 474.197187 55.556406 
L 482.197187 55.556406 
" style="fill: none; stroke-dasharray: 7.4,3.2; stroke-dashoffset: 0; stroke: #333333; stroke-width: 2"/>
    </g>
    <g id="text_48">
     <!-- queryB -->
     <g style="fill: #262626" transform="translate(488.597187 58.356406) scale(0.08 -0.08)">
      <use xlink:href="#ArialMT-71"/>
      <use xlink:href="#ArialMT-75" transform="translate(55.615234 0)"/>
      <use xlink:href="#ArialMT-65" transform="translate(111.230469 0)"/>
      <use xlink:href="#ArialMT-72" transform="translate(166.845703 0)"/>
      <use xlink:href="#ArialMT-79" transform="translate(200.146484 0)"/>
      <use xlink:href="#ArialMT-42" transform="translate(250.146484 0)"/>
     </g>
    </g>
   </g>
  </g>
 </g>
 <defs>
  <clipPath id="pbfb28b6d60">
   <rect x="44.267188" y="21.789375" width="389.85" height="256.6"/>
  </clipPath>
  <clipPath id="p6d375c2e7e">
   <rect x="458.997187" y="21.789375" width="389.85" height="256.6"/>
  </clipPath>
 </defs>
</svg>
