<?xml version="1.0" encoding="utf-8" standalone="no"?>
<!DOCTYPE svg PUBLIC "-//W3C//DTD SVG 1.1//EN"
  "http://www.w3.org/Graphics/SVG/1.1/DTD/svg11.dtd">
<svg xmlns:xlink="http://www.w3.org/1999/xlink" width="855.931875pt" height="279.119063pt" viewBox="0 0 855.931875 279.119063" xmlns="http://www.w3.org/2000/svg" version="1.1">
 <metadata>
  <rdf:RDF xmlns:dc="http://purl.org/dc/elements/1.1/" xmlns:cc="http://creativecommons.org/ns#" xmlns:rdf="http://www.w3.org/1999/02/22-rdf-syntax-ns#">
   <cc:Work>
    <dc:type rdf:resource="http://purl.org/dc/dcmitype/StillImage"/>
    <dc:date>2026-05-26T16:50:38.703141</dc:date>
    <dc:format>image/svg+xml</dc:format>
    <dc:creator>
     <cc:Agent>
      <dc:title>Matplotlib v3.10.1, https://matplotlib.org/</dc:title>
     </cc:Agent>
    </dc:creator>
   </cc:Work>
  </rdf:RDF>
 </metadata>
 <defs>
  <style type="text/css">*{stroke-linejoin: round; stroke-linecap: butt}</style>
 </defs>
 <g id="figure_1">
  <g id="patch_1">
   <path d="M 0 279.119063 
L 855.931875 279.119063 
L 855.931875 0 
L 0 0 
z
" style="fill: #ffffff"/>
  </g>
  <g id="axes_1">
   <g id="patch_2">
    <path d="M 46.953125 242.389375 
L 435.351875 242.389375 
L 435.351875 21.789375 
L 46.953125 21.789375 
z
" style="fill: #ffffff"/>
   </g>
   <g id="matplotlib.axis_1">
    <g id="xtick_1">
     <g id="line2d_1">
      <path d="M 46.953125 242.389375 
L 46.953125 21.789375 
" clip-path="url(#p60c78b8743)" style="fill: none; stroke: #cccccc; stroke-opacity: 0.3; stroke-width: 0.8; stroke-linecap: round"/>
     </g>
     <g id="text_1">
      <!-- 0 -->
      <g style="fill: #262626" transform="translate(44.172656 256.547188) scale(0.1 -0.1)">
       <defs>
        <path id="ArialMT-30" d="M 266 2259 
Q 266 3072 433 3567 
Q 600 4063 929 4331 
Q 1259 4600 1759 4600 
Q 2128 4600 2406 4451 
Q 2684 4303 2865 4023 
Q 3047 3744 3150 3342 
Q 3253 2941 3253 2259 
Q 3253 1453 3087 958 
Q 2922 463 2592 192 
Q 2263 -78 1759 -78 
Q 1097 -78 719 397 
Q 266 969 266 2259 
z
M 844 2259 
Q 844 1131 1108 757 
Q 1372 384 1759 384 
Q 2147 384 2411 759 
Q 2675 1134 2675 2259 
Q 2675 3391 2411 3762 
Q 2147 4134 1753 4134 
Q 1366 4134 1134 3806 
Q 844 3388 844 2259 
z
" transform="scale(0.015625)"/>
       </defs>
       <use xlink:href="#ArialMT-30"/>
      </g>
     </g>
    </g>
    <g id="xtick_2">
     <g id="line2d_2">
      <path d="M 99.724694 242.389375 
L 99.724694 21.789375 
" clip-path="url(#p60c78b8743)" style="fill: none; stroke: #cccccc; stroke-opacity: 0.3; stroke-width: 0.8; stroke-linecap: round"/>
     </g>
     <g id="text_2">
      <!-- 50 -->
      <g style="fill: #262626" transform="translate(94.163757 256.547188) scale(0.1 -0.1)">
       <defs>
        <path id="ArialMT-35" d="M 266 1200 
L 856 1250 
Q 922 819 1161 601 
Q 1400 384 1738 384 
Q 2144 384 2425 690 
Q 2706 997 2706 1503 
Q 2706 1984 2436 2262 
Q 2166 2541 1728 2541 
Q 1456 2541 1237 2417 
Q 1019 2294 894 2097 
L 366 2166 
L 809 4519 
L 3088 4519 
L 3088 3981 
L 1259 3981 
L 1013 2750 
Q 1425 3038 1878 3038 
Q 2478 3038 2890 2622 
Q 3303 2206 3303 1553 
Q 3303 931 2941 478 
Q 2500 -78 1738 -78 
Q 1113 -78 717 272 
Q 322 622 266 1200 
z
" transform="scale(0.015625)"/>
       </defs>
       <use xlink:href="#ArialMT-35"/>
       <use xlink:href="#ArialMT-30" transform="translate(55.615234 0)"/>
      </g>
     </g>
    </g>
    <g id="xtick_3">
     <g id="line2d_3">
      <path d="M 152.496264 242.389375 
L 152.496264 21.789375 
" clip-path="url(#p60c78b8743)" style="fill: none; stroke: #cccccc; stroke-opacity: 0.3; stroke-width: 0.8; stroke-linecap: round"/>
     </g>
     <g id="text_3">
      <!-- 100 -->
      <g style="fill: #262626" transform="translate(144.154857 256.547188) scale(0.1 -0.1)">
       <defs>
        <path id="ArialMT-31" d="M 2384 0 
L 1822 0 
L 1822 3584 
Q 1619 3391 1289 3197 
Q 959 3003 697 2906 
L 697 3450 
Q 1169 3672 1522 3987 
Q 1875 4303 2022 4600 
L 2384 4600 
L 2384 0 
z
" transform="scale(0.015625)"/>
       </defs>
       <use xlink:href="#ArialMT-31"/>
       <use xlink:href="#ArialMT-30" transform="translate(55.615234 0)"/>
       <use xlink:href="#ArialMT-30" transform="translate(111.230469 0)"/>
      </g>
     </g>
    </g>
    <g id="xtick_4">
     <g id="line2d_4">
      <path d="M 205.267833 242.389375 
L 205.267833 21.789375 
" clip-path="url(#p60c78b8743)" style="fill: none; stroke: #cccccc; stroke-opacity: 0.3; stroke-width: 0.8; stroke-linecap: round"/>
     </g>
     <g id="text_4">
      <!-- 150 -->
      <g style="fill: #262626" transform="translate(196.926427 256.547188) scale(0.1 -0.1)">
       <use xlink:href="#ArialMT-31"/>
       <use xlink:href="#ArialMT-35" transform="translate(55.615234 0)"/>
       <use xlink:href="#ArialMT-30" transform="translate(111.230469 0)"/>
      </g>
     </g>
    </g>
    <g id="xtick_5">
     <g id="line2d_5">
      <path d="M 258.039402 242.389375 
L 258.039402 21.789375 
" clip-path="url(#p60c78b8743)" style="fill: none; stroke: #cccccc; stroke-opacity: 0.3; stroke-width: 0.8; stroke-linecap: round"/>
     </g>
     <g id="text_5">
      <!-- 200 -->
      <g style="fill: #262626" transform="translate(249.697996 256.547188) scale(0.1 -0.1)">
       <defs>
        <path id="ArialMT-32" d="M 3222 541 
L 3222 0 
L 194 0 
Q 188 203 259 391 
Q 375 700 629 1000 
Q 884 1300 1366 1694 
Q 2113 2306 2375 2664 
Q 2638 3022 2638 3341 
Q 2638 3675 2398 3904 
Q 2159 4134 1775 4134 
Q 1369 4134 1125 3890 
Q 881 3647 878 3216 
L 300 3275 
Q 359 3922 746 4261 
Q 1134 4600 1788 4600 
Q 2447 4600 2831 4234 
Q 3216 3869 3216 3328 
Q 3216 3053 3103 2787 
Q 2991 2522 2730 2228 
Q 2469 1934 1863 1422 
Q 1356 997 1212 845 
Q 1069 694 975 541 
L 3222 541 
z
" transform="scale(0.015625)"/>
       </defs>
       <use xlink:href="#ArialMT-32"/>
       <use xlink:href="#ArialMT-30" transform="translate(55.615234 0)"/>
       <use xlink:href="#ArialMT-30" transform="translate(111.230469 0)"/>
      </g>
     </g>
    </g>
    <g id="xtick_6">
     <g id="line2d_6">
      <path d="M 310.810971 242.389375 
L 310.810971 21.789375 
" clip-path="url(#p60c78b8743)" style="fill: none; stroke: #cccccc; stroke-opacity: 0.3; stroke-width: 0.8; stroke-linecap: round"/>
     </g>
     <g id="text_6">
      <!-- 250 -->
      <g style="fill: #262626" transform="translate(302.469565 256.547188) scale(0.1 -0.1)">
       <use xlink:href="#ArialMT-32"/>
       <use xlink:href="#ArialMT-35" transform="translate(55.615234 0)"/>
       <use xlink:href="#ArialMT-30" transform="translate(111.230469 0)"/>
      </g>
     </g>
    </g>
    <g id="xtick_7">
     <g id="line2d_7">
      <path d="M 363.582541 242.389375 
L 363.582541 21.789375 
" clip-path="url(#p60c78b8743)" style="fill: none; stroke: #cccccc; stroke-opacity: 0.3; stroke-width: 0.8; stroke-linecap: round"/>
     </g>
     <g id="text_7">
      <!-- 300 -->
      <g style="fill: #262626" transform="translate(355.241135 256.547188) scale(0.1 -0.1)">
       <defs>
        <path id="ArialMT-33" d="M 269 1209 
L 831 1284 
Q 928 806 1161 595 
Q 1394 384 1728 384 
Q 2125 384 2398 659 
Q 2672 934 2672 1341 
Q 2672 1728 2419 1979 
Q 2166 2231 1775 2231 
Q 1616 2231 1378 2169 
L 1441 2663 
Q 1497 2656 1531 2656 
Q 1891 2656 2178 2843 
Q 2466 3031 2466 3422 
Q 2466 3731 2256 3934 
Q 2047 4138 1716 4138 
Q 1388 4138 1169 3931 
Q 950 3725 888 3313 
L 325 3413 
Q 428 3978 793 4289 
Q 1159 4600 1703 4600 
Q 2078 4600 2393 4439 
Q 2709 4278 2876 4000 
Q 3044 3722 3044 3409 
Q 3044 3113 2884 2869 
Q 2725 2625 2413 2481 
Q 2819 2388 3044 2092 
Q 3269 1797 3269 1353 
Q 3269 753 2831 336 
Q 2394 -81 1725 -81 
Q 1122 -81 723 278 
Q 325 638 269 1209 
z
" transform="scale(0.015625)"/>
       </defs>
       <use xlink:href="#ArialMT-33"/>
       <use xlink:href="#ArialMT-30" transform="translate(55.615234 0)"/>
       <use xlink:href="#ArialMT-30" transform="translate(111.230469 0)"/>
      </g>
     </g>
    </g>
    <g id="xtick_8">
     <g id="line2d_8">
      <path d="M 416.35411 242.389375 
L 416.35411 21.789375 
" clip-path="url(#p60c78b8743)" style="fill: none; stroke: #cccccc; stroke-opacity: 0.3; stroke-width: 0.8; stroke-linecap: round"/>
     </g>
     <g id="text_8">
      <!-- 350 -->
      <g style="fill: #262626" transform="translate(408.012704 256.547188) scale(0.1 -0.1)">
       <use xlink:href="#ArialMT-33"/>
       <use xlink:href="#ArialMT-35" transform="translate(55.615234 0)"/>
       <use xlink:href="#ArialMT-30" transform="translate(111.230469 0)"/>
      </g>
     </g>
    </g>
    <g id="text_9">
     <!-- Elapsed Time (sec) -->
     <g style="fill: #262626" transform="translate(198.361094 269.814375) scale(0.1 -0.1)">
      <defs>
       <path id="ArialMT-45" d="M 506 0 
L 506 4581 
L 3819 4581 
L 3819 4041 
L 1113 4041 
L 1113 2638 
L 3647 2638 
L 3647 2100 
L 1113 2100 
L 1113 541 
L 3925 541 
L 3925 0 
L 506 0 
z
" transform="scale(0.015625)"/>
       <path id="ArialMT-6c" d="M 409 0 
L 409 4581 
L 972 4581 
L 972 0 
L 409 0 
z
" transform="scale(0.015625)"/>
       <path id="ArialMT-61" d="M 2588 409 
Q 2275 144 1986 34 
Q 1697 -75 1366 -75 
Q 819 -75 525 192 
Q 231 459 231 875 
Q 231 1119 342 1320 
Q 453 1522 633 1644 
Q 813 1766 1038 1828 
Q 1203 1872 1538 1913 
Q 2219 1994 2541 2106 
Q 2544 2222 2544 2253 
Q 2544 2597 2384 2738 
Q 2169 2928 1744 2928 
Q 1347 2928 1158 2789 
Q 969 2650 878 2297 
L 328 2372 
Q 403 2725 575 2942 
Q 747 3159 1072 3276 
Q 1397 3394 1825 3394 
Q 2250 3394 2515 3294 
Q 2781 3194 2906 3042 
Q 3031 2891 3081 2659 
Q 3109 2516 3109 2141 
L 3109 1391 
Q 3109 606 3145 398 
Q 3181 191 3288 0 
L 2700 0 
Q 2613 175 2588 409 
z
M 2541 1666 
Q 2234 1541 1622 1453 
Q 1275 1403 1131 1340 
Q 988 1278 909 1158 
Q 831 1038 831 891 
Q 831 666 1001 516 
Q 1172 366 1500 366 
Q 1825 366 2078 508 
Q 2331 650 2450 897 
Q 2541 1088 2541 1459 
L 2541 1666 
z
" transform="scale(0.015625)"/>
       <path id="ArialMT-70" d="M 422 -1272 
L 422 3319 
L 934 3319 
L 934 2888 
Q 1116 3141 1344 3267 
Q 1572 3394 1897 3394 
Q 2322 3394 2647 3175 
Q 2972 2956 3137 2557 
Q 3303 2159 3303 1684 
Q 3303 1175 3120 767 
Q 2938 359 2589 142 
Q 2241 -75 1856 -75 
Q 1575 -75 1351 44 
Q 1128 163 984 344 
L 984 -1272 
L 422 -1272 
z
M 931 1641 
Q 931 1000 1190 694 
Q 1450 388 1819 388 
Q 2194 388 2461 705 
Q 2728 1022 2728 1688 
Q 2728 2322 2467 2637 
Q 2206 2953 1844 2953 
Q 1484 2953 1207 2617 
Q 931 2281 931 1641 
z
" transform="scale(0.015625)"/>
       <path id="ArialMT-73" d="M 197 991 
L 753 1078 
Q 800 744 1014 566 
Q 1228 388 1613 388 
Q 2000 388 2187 545 
Q 2375 703 2375 916 
Q 2375 1106 2209 1216 
Q 2094 1291 1634 1406 
Q 1016 1563 777 1677 
Q 538 1791 414 1992 
Q 291 2194 291 2438 
Q 291 2659 392 2848 
Q 494 3038 669 3163 
Q 800 3259 1026 3326 
Q 1253 3394 1513 3394 
Q 1903 3394 2198 3281 
Q 2494 3169 2634 2976 
Q 2775 2784 2828 2463 
L 2278 2388 
Q 2241 2644 2061 2787 
Q 1881 2931 1553 2931 
Q 1166 2931 1000 2803 
Q 834 2675 834 2503 
Q 834 2394 903 2306 
Q 972 2216 1119 2156 
Q 1203 2125 1616 2013 
Q 2213 1853 2448 1751 
Q 2684 1650 2818 1456 
Q 2953 1263 2953 975 
Q 2953 694 2789 445 
Q 2625 197 2315 61 
Q 2006 -75 1616 -75 
Q 969 -75 630 194 
Q 291 463 197 991 
z
" transform="scale(0.015625)"/>
       <path id="ArialMT-65" d="M 2694 1069 
L 3275 997 
Q 3138 488 2766 206 
Q 2394 -75 1816 -75 
Q 1088 -75 661 373 
Q 234 822 234 1631 
Q 234 2469 665 2931 
Q 1097 3394 1784 3394 
Q 2450 3394 2872 2941 
Q 3294 2488 3294 1666 
Q 3294 1616 3291 1516 
L 816 1516 
Q 847 969 1125 678 
Q 1403 388 1819 388 
Q 2128 388 2347 550 
Q 2566 713 2694 1069 
z
M 847 1978 
L 2700 1978 
Q 2663 2397 2488 2606 
Q 2219 2931 1791 2931 
Q 1403 2931 1139 2672 
Q 875 2413 847 1978 
z
" transform="scale(0.015625)"/>
       <path id="ArialMT-64" d="M 2575 0 
L 2575 419 
Q 2259 -75 1647 -75 
Q 1250 -75 917 144 
Q 584 363 401 755 
Q 219 1147 219 1656 
Q 219 2153 384 2558 
Q 550 2963 881 3178 
Q 1213 3394 1622 3394 
Q 1922 3394 2156 3267 
Q 2391 3141 2538 2938 
L 2538 4581 
L 3097 4581 
L 3097 0 
L 2575 0 
z
M 797 1656 
Q 797 1019 1065 703 
Q 1334 388 1700 388 
Q 2069 388 2326 689 
Q 2584 991 2584 1609 
Q 2584 2291 2321 2609 
Q 2059 2928 1675 2928 
Q 1300 2928 1048 2622 
Q 797 2316 797 1656 
z
" transform="scale(0.015625)"/>
       <path id="ArialMT-20" transform="scale(0.015625)"/>
       <path id="ArialMT-54" d="M 1659 0 
L 1659 4041 
L 150 4041 
L 150 4581 
L 3781 4581 
L 3781 4041 
L 2266 4041 
L 2266 0 
L 1659 0 
z
" transform="scale(0.015625)"/>
       <path id="ArialMT-69" d="M 425 3934 
L 425 4581 
L 988 4581 
L 988 3934 
L 425 3934 
z
M 425 0 
L 425 3319 
L 988 3319 
L 988 0 
L 425 0 
z
" transform="scale(0.015625)"/>
       <path id="ArialMT-6d" d="M 422 0 
L 422 3319 
L 925 3319 
L 925 2853 
Q 1081 3097 1340 3245 
Q 1600 3394 1931 3394 
Q 2300 3394 2536 3241 
Q 2772 3088 2869 2813 
Q 3263 3394 3894 3394 
Q 4388 3394 4653 3120 
Q 4919 2847 4919 2278 
L 4919 0 
L 4359 0 
L 4359 2091 
Q 4359 2428 4304 2576 
Q 4250 2725 4106 2815 
Q 3963 2906 3769 2906 
Q 3419 2906 3187 2673 
Q 2956 2441 2956 1928 
L 2956 0 
L 2394 0 
L 2394 2156 
Q 2394 2531 2256 2718 
Q 2119 2906 1806 2906 
Q 1569 2906 1367 2781 
Q 1166 2656 1075 2415 
Q 984 2175 984 1722 
L 984 0 
L 422 0 
z
" transform="scale(0.015625)"/>
       <path id="ArialMT-28" d="M 1497 -1347 
Q 1031 -759 709 28 
Q 388 816 388 1659 
Q 388 2403 628 3084 
Q 909 3875 1497 4659 
L 1900 4659 
Q 1522 4009 1400 3731 
Q 1209 3300 1100 2831 
Q 966 2247 966 1656 
Q 966 153 1900 -1347 
L 1497 -1347 
z
" transform="scale(0.015625)"/>
       <path id="ArialMT-63" d="M 2588 1216 
L 3141 1144 
Q 3050 572 2676 248 
Q 2303 -75 1759 -75 
Q 1078 -75 664 370 
Q 250 816 250 1647 
Q 250 2184 428 2587 
Q 606 2991 970 3192 
Q 1334 3394 1763 3394 
Q 2303 3394 2647 3120 
Q 2991 2847 3088 2344 
L 2541 2259 
Q 2463 2594 2264 2762 
Q 2066 2931 1784 2931 
Q 1359 2931 1093 2626 
Q 828 2322 828 1663 
Q 828 994 1084 691 
Q 1341 388 1753 388 
Q 2084 388 2306 591 
Q 2528 794 2588 1216 
z
" transform="scale(0.015625)"/>
       <path id="ArialMT-29" d="M 791 -1347 
L 388 -1347 
Q 1322 153 1322 1656 
Q 1322 2244 1188 2822 
Q 1081 3291 891 3722 
Q 769 4003 388 4659 
L 791 4659 
Q 1378 3875 1659 3084 
Q 1900 2403 1900 1659 
Q 1900 816 1576 28 
Q 1253 -759 791 -1347 
z
" transform="scale(0.015625)"/>
      </defs>
      <use xlink:href="#ArialMT-45"/>
      <use xlink:href="#ArialMT-6c" transform="translate(66.699219 0)"/>
      <use xlink:href="#ArialMT-61" transform="translate(88.916016 0)"/>
      <use xlink:href="#ArialMT-70" transform="translate(144.53125 0)"/>
      <use xlink:href="#ArialMT-73" transform="translate(200.146484 0)"/>
      <use xlink:href="#ArialMT-65" transform="translate(250.146484 0)"/>
      <use xlink:href="#ArialMT-64" transform="translate(305.761719 0)"/>
      <use xlink:href="#ArialMT-20" transform="translate(361.376953 0)"/>
      <use xlink:href="#ArialMT-54" transform="translate(387.410156 0)"/>
      <use xlink:href="#ArialMT-69" transform="translate(444.744141 0)"/>
      <use xlink:href="#ArialMT-6d" transform="translate(466.960938 0)"/>
      <use xlink:href="#ArialMT-65" transform="translate(550.261719 0)"/>
      <use xlink:href="#ArialMT-20" transform="translate(605.876953 0)"/>
      <use xlink:href="#ArialMT-28" transform="translate(633.660156 0)"/>
      <use xlink:href="#ArialMT-73" transform="translate(666.960938 0)"/>
      <use xlink:href="#ArialMT-65" transform="translate(716.960938 0)"/>
      <use xlink:href="#ArialMT-63" transform="translate(772.576172 0)"/>
      <use xlink:href="#ArialMT-29" transform="translate(822.576172 0)"/>
     </g>
    </g>
   </g>
   <g id="matplotlib.axis_2">
    <g id="ytick_1">
     <g id="line2d_9">
      <path d="M 46.953125 214.240525 
L 435.351875 214.240525 
" clip-path="url(#p60c78b8743)" style="fill: none; stroke: #cccccc; stroke-opacity: 0.3; stroke-width: 0.8; stroke-linecap: round"/>
     </g>
     <g id="text_10">
      <!-- 0.55 -->
      <g style="fill: #262626" transform="translate(20.492188 217.819431) scale(0.1 -0.1)">
       <defs>
        <path id="ArialMT-2e" d="M 581 0 
L 581 641 
L 1222 641 
L 1222 0 
L 581 0 
z
" transform="scale(0.015625)"/>
       </defs>
       <use xlink:href="#ArialMT-30"/>
       <use xlink:href="#ArialMT-2e" transform="translate(55.615234 0)"/>
       <use xlink:href="#ArialMT-35" transform="translate(83.398438 0)"/>
       <use xlink:href="#ArialMT-35" transform="translate(139.013672 0)"/>
      </g>
     </g>
    </g>
    <g id="ytick_2">
     <g id="line2d_10">
      <path d="M 46.953125 184.037896 
L 435.351875 184.037896 
" clip-path="url(#p60c78b8743)" style="fill: none; stroke: #cccccc; stroke-opacity: 0.3; stroke-width: 0.8; stroke-linecap: round"/>
     </g>
     <g id="text_11">
      <!-- 0.60 -->
      <g style="fill: #262626" transform="translate(20.492188 187.616803) scale(0.1 -0.1)">
       <defs>
        <path id="ArialMT-36" d="M 3184 3459 
L 2625 3416 
Q 2550 3747 2413 3897 
Q 2184 4138 1850 4138 
Q 1581 4138 1378 3988 
Q 1113 3794 959 3422 
Q 806 3050 800 2363 
Q 1003 2672 1297 2822 
Q 1591 2972 1913 2972 
Q 2475 2972 2870 2558 
Q 3266 2144 3266 1488 
Q 3266 1056 3080 686 
Q 2894 316 2569 119 
Q 2244 -78 1831 -78 
Q 1128 -78 684 439 
Q 241 956 241 2144 
Q 241 3472 731 4075 
Q 1159 4600 1884 4600 
Q 2425 4600 2770 4297 
Q 3116 3994 3184 3459 
z
M 888 1484 
Q 888 1194 1011 928 
Q 1134 663 1356 523 
Q 1578 384 1822 384 
Q 2178 384 2434 671 
Q 2691 959 2691 1453 
Q 2691 1928 2437 2201 
Q 2184 2475 1800 2475 
Q 1419 2475 1153 2201 
Q 888 1928 888 1484 
z
" transform="scale(0.015625)"/>
       </defs>
       <use xlink:href="#ArialMT-30"/>
       <use xlink:href="#ArialMT-2e" transform="translate(55.615234 0)"/>
       <use xlink:href="#ArialMT-36" transform="translate(83.398438 0)"/>
       <use xlink:href="#ArialMT-30" transform="translate(139.013672 0)"/>
      </g>
     </g>
    </g>
    <g id="ytick_3">
     <g id="line2d_11">
      <path d="M 46.953125 153.835268 
L 435.351875 153.835268 
" clip-path="url(#p60c78b8743)" style="fill: none; stroke: #cccccc; stroke-opacity: 0.3; stroke-width: 0.8; stroke-linecap: round"/>
     </g>
     <g id="text_12">
      <!-- 0.65 -->
      <g style="fill: #262626" transform="translate(20.492188 157.414174) scale(0.1 -0.1)">
       <use xlink:href="#ArialMT-30"/>
       <use xlink:href="#ArialMT-2e" transform="translate(55.615234 0)"/>
       <use xlink:href="#ArialMT-36" transform="translate(83.398438 0)"/>
       <use xlink:href="#ArialMT-35" transform="translate(139.013672 0)"/>
      </g>
     </g>
    </g>
    <g id="ytick_4">
     <g id="line2d_12">
      <path d="M 46.953125 123.632639 
L 435.351875 123.632639 
" clip-path="url(#p60c78b8743)" style="fill: none; stroke: #cccccc; stroke-opacity: 0.3; stroke-width: 0.8; stroke-linecap: round"/>
     </g>
     <g id="text_13">
      <!-- 0.70 -->
      <g style="fill: #262626" transform="translate(20.492188 127.211545) scale(0.1 -0.1)">
       <defs>
        <path id="ArialMT-37" d="M 303 3981 
L 303 4522 
L 3269 4522 
L 3269 4084 
Q 2831 3619 2401 2847 
Q 1972 2075 1738 1259 
Q 1569 684 1522 0 
L 944 0 
Q 953 541 1156 1306 
Q 1359 2072 1739 2783 
Q 2119 3494 2547 3981 
L 303 3981 
z
" transform="scale(0.015625)"/>
       </defs>
       <use xlink:href="#ArialMT-30"/>
       <use xlink:href="#ArialMT-2e" transform="translate(55.615234 0)"/>
       <use xlink:href="#ArialMT-37" transform="translate(83.398438 0)"/>
       <use xlink:href="#ArialMT-30" transform="translate(139.013672 0)"/>
      </g>
     </g>
    </g>
    <g id="ytick_5">
     <g id="line2d_13">
      <path d="M 46.953125 93.43001 
L 435.351875 93.43001 
" clip-path="url(#p60c78b8743)" style="fill: none; stroke: #cccccc; stroke-opacity: 0.3; stroke-width: 0.8; stroke-linecap: round"/>
     </g>
     <g id="text_14">
      <!-- 0.75 -->
      <g style="fill: #262626" transform="translate(20.492188 97.008917) scale(0.1 -0.1)">
       <use xlink:href="#ArialMT-30"/>
       <use xlink:href="#ArialMT-2e" transform="translate(55.615234 0)"/>
       <use xlink:href="#ArialMT-37" transform="translate(83.398438 0)"/>
       <use xlink:href="#ArialMT-35" transform="translate(139.013672 0)"/>
      </g>
     </g>
    </g>
    <g id="ytick_6">
     <g id="line2d_14">
      <path d="M 46.953125 63.227382 
L 435.351875 63.227382 
" clip-path="url(#p60c78b8743)" style="fill: none; stroke: #cccccc; stroke-opacity: 0.3; stroke-width: 0.8; stroke-linecap: round"/>
     </g>
     <g id="text_15">
      <!-- 0.80 -->
      <g style="fill: #262626" transform="translate(20.492188 66.806288) scale(0.1 -0.1)">
       <defs>
        <path id="ArialMT-38" d="M 1131 2484 
Q 781 2613 612 2850 
Q 444 3088 444 3419 
Q 444 3919 803 4259 
Q 1163 4600 1759 4600 
Q 2359 4600 2725 4251 
Q 3091 3903 3091 3403 
Q 3091 3084 2923 2848 
Q 2756 2613 2416 2484 
Q 2838 2347 3058 2040 
Q 3278 1734 3278 1309 
Q 3278 722 2862 322 
Q 2447 -78 1769 -78 
Q 1091 -78 675 323 
Q 259 725 259 1325 
Q 259 1772 486 2073 
Q 713 2375 1131 2484 
z
M 1019 3438 
Q 1019 3113 1228 2906 
Q 1438 2700 1772 2700 
Q 2097 2700 2305 2904 
Q 2513 3109 2513 3406 
Q 2513 3716 2298 3927 
Q 2084 4138 1766 4138 
Q 1444 4138 1231 3931 
Q 1019 3725 1019 3438 
z
M 838 1322 
Q 838 1081 952 856 
Q 1066 631 1291 507 
Q 1516 384 1775 384 
Q 2178 384 2440 643 
Q 2703 903 2703 1303 
Q 2703 1709 2433 1975 
Q 2163 2241 1756 2241 
Q 1359 2241 1098 1978 
Q 838 1716 838 1322 
z
" transform="scale(0.015625)"/>
       </defs>
       <use xlink:href="#ArialMT-30"/>
       <use xlink:href="#ArialMT-2e" transform="translate(55.615234 0)"/>
       <use xlink:href="#ArialMT-38" transform="translate(83.398438 0)"/>
       <use xlink:href="#ArialMT-30" transform="translate(139.013672 0)"/>
      </g>
     </g>
    </g>
    <g id="ytick_7">
     <g id="line2d_15">
      <path d="M 46.953125 33.024753 
L 435.351875 33.024753 
" clip-path="url(#p60c78b8743)" style="fill: none; stroke: #cccccc; stroke-opacity: 0.3; stroke-width: 0.8; stroke-linecap: round"/>
     </g>
     <g id="text_16">
      <!-- 0.85 -->
      <g style="fill: #262626" transform="translate(20.492188 36.603659) scale(0.1 -0.1)">
       <use xlink:href="#ArialMT-30"/>
       <use xlink:href="#ArialMT-2e" transform="translate(55.615234 0)"/>
       <use xlink:href="#ArialMT-38" transform="translate(83.398438 0)"/>
       <use xlink:href="#ArialMT-35" transform="translate(139.013672 0)"/>
      </g>
     </g>
    </g>
    <g id="text_17">
     <!-- Mean pkg_j per 1s Bin -->
     <g style="fill: #262626" transform="translate(14.3875 181.837031) rotate(-90) scale(0.1 -0.1)">
      <defs>
       <path id="ArialMT-4d" d="M 475 0 
L 475 4581 
L 1388 4581 
L 2472 1338 
Q 2622 884 2691 659 
Q 2769 909 2934 1394 
L 4031 4581 
L 4847 4581 
L 4847 0 
L 4263 0 
L 4263 3834 
L 2931 0 
L 2384 0 
L 1059 3900 
L 1059 0 
L 475 0 
z
" transform="scale(0.015625)"/>
       <path id="ArialMT-6e" d="M 422 0 
L 422 3319 
L 928 3319 
L 928 2847 
Q 1294 3394 1984 3394 
Q 2284 3394 2536 3286 
Q 2788 3178 2913 3003 
Q 3038 2828 3088 2588 
Q 3119 2431 3119 2041 
L 3119 0 
L 2556 0 
L 2556 2019 
Q 2556 2363 2490 2533 
Q 2425 2703 2258 2804 
Q 2091 2906 1866 2906 
Q 1506 2906 1245 2678 
Q 984 2450 984 1813 
L 984 0 
L 422 0 
z
" transform="scale(0.015625)"/>
       <path id="ArialMT-6b" d="M 425 0 
L 425 4581 
L 988 4581 
L 988 1969 
L 2319 3319 
L 3047 3319 
L 1778 2088 
L 3175 0 
L 2481 0 
L 1384 1697 
L 988 1316 
L 988 0 
L 425 0 
z
" transform="scale(0.015625)"/>
       <path id="ArialMT-67" d="M 319 -275 
L 866 -356 
Q 900 -609 1056 -725 
Q 1266 -881 1628 -881 
Q 2019 -881 2231 -725 
Q 2444 -569 2519 -288 
Q 2563 -116 2559 434 
Q 2191 0 1641 0 
Q 956 0 581 494 
Q 206 988 206 1678 
Q 206 2153 378 2554 
Q 550 2956 876 3175 
Q 1203 3394 1644 3394 
Q 2231 3394 2613 2919 
L 2613 3319 
L 3131 3319 
L 3131 450 
Q 3131 -325 2973 -648 
Q 2816 -972 2473 -1159 
Q 2131 -1347 1631 -1347 
Q 1038 -1347 672 -1080 
Q 306 -813 319 -275 
z
M 784 1719 
Q 784 1066 1043 766 
Q 1303 466 1694 466 
Q 2081 466 2343 764 
Q 2606 1063 2606 1700 
Q 2606 2309 2336 2618 
Q 2066 2928 1684 2928 
Q 1309 2928 1046 2623 
Q 784 2319 784 1719 
z
" transform="scale(0.015625)"/>
       <path id="ArialMT-5f" d="M -97 -1272 
L -97 -866 
L 3631 -866 
L 3631 -1272 
L -97 -1272 
z
" transform="scale(0.015625)"/>
       <path id="ArialMT-6a" d="M 419 3928 
L 419 4581 
L 981 4581 
L 981 3928 
L 419 3928 
z
M -294 -1288 
L -188 -809 
Q -19 -853 78 -853 
Q 250 -853 334 -739 
Q 419 -625 419 -169 
L 419 3319 
L 981 3319 
L 981 -181 
Q 981 -794 822 -1034 
Q 619 -1347 147 -1347 
Q -81 -1347 -294 -1288 
z
" transform="scale(0.015625)"/>
       <path id="ArialMT-72" d="M 416 0 
L 416 3319 
L 922 3319 
L 922 2816 
Q 1116 3169 1280 3281 
Q 1444 3394 1641 3394 
Q 1925 3394 2219 3213 
L 2025 2691 
Q 1819 2813 1613 2813 
Q 1428 2813 1281 2702 
Q 1134 2591 1072 2394 
Q 978 2094 978 1738 
L 978 0 
L 416 0 
z
" transform="scale(0.015625)"/>
       <path id="ArialMT-42" d="M 469 0 
L 469 4581 
L 2188 4581 
Q 2713 4581 3030 4442 
Q 3347 4303 3526 4014 
Q 3706 3725 3706 3409 
Q 3706 3116 3547 2856 
Q 3388 2597 3066 2438 
Q 3481 2316 3704 2022 
Q 3928 1728 3928 1328 
Q 3928 1006 3792 729 
Q 3656 453 3456 303 
Q 3256 153 2954 76 
Q 2653 0 2216 0 
L 469 0 
z
M 1075 2656 
L 2066 2656 
Q 2469 2656 2644 2709 
Q 2875 2778 2992 2937 
Q 3109 3097 3109 3338 
Q 3109 3566 3000 3739 
Q 2891 3913 2687 3977 
Q 2484 4041 1991 4041 
L 1075 4041 
L 1075 2656 
z
M 1075 541 
L 2216 541 
Q 2509 541 2628 563 
Q 2838 600 2978 687 
Q 3119 775 3209 942 
Q 3300 1109 3300 1328 
Q 3300 1584 3169 1773 
Q 3038 1963 2805 2039 
Q 2572 2116 2134 2116 
L 1075 2116 
L 1075 541 
z
" transform="scale(0.015625)"/>
      </defs>
      <use xlink:href="#ArialMT-4d"/>
      <use xlink:href="#ArialMT-65" transform="translate(83.300781 0)"/>
      <use xlink:href="#ArialMT-61" transform="translate(138.916016 0)"/>
      <use xlink:href="#ArialMT-6e" transform="translate(194.53125 0)"/>
      <use xlink:href="#ArialMT-20" transform="translate(250.146484 0)"/>
      <use xlink:href="#ArialMT-70" transform="translate(277.929688 0)"/>
      <use xlink:href="#ArialMT-6b" transform="translate(333.544922 0)"/>
      <use xlink:href="#ArialMT-67" transform="translate(383.544922 0)"/>
      <use xlink:href="#ArialMT-5f" transform="translate(439.160156 0)"/>
      <use xlink:href="#ArialMT-6a" transform="translate(494.775391 0)"/>
      <use xlink:href="#ArialMT-20" transform="translate(516.992188 0)"/>
      <use xlink:href="#ArialMT-70" transform="translate(544.775391 0)"/>
      <use xlink:href="#ArialMT-65" transform="translate(600.390625 0)"/>
      <use xlink:href="#ArialMT-72" transform="translate(656.005859 0)"/>
      <use xlink:href="#ArialMT-20" transform="translate(689.306641 0)"/>
      <use xlink:href="#ArialMT-31" transform="translate(717.089844 0)"/>
      <use xlink:href="#ArialMT-73" transform="translate(772.705078 0)"/>
      <use xlink:href="#ArialMT-20" transform="translate(822.705078 0)"/>
      <use xlink:href="#ArialMT-42" transform="translate(850.488281 0)"/>
      <use xlink:href="#ArialMT-69" transform="translate(917.1875 0)"/>
      <use xlink:href="#ArialMT-6e" transform="translate(939.404297 0)"/>
     </g>
    </g>
   </g>
   <g id="line2d_16">
    <path d="M 46.953125 101.282694 
L 48.008556 61.415224 
L 49.063988 60.811171 
L 50.119419 66.851697 
L 51.174851 55.978751 
L 52.230282 53.56254 
L 53.285713 53.56254 
L 54.341145 62.623329 
L 55.396576 54.770646 
L 56.452007 55.374698 
L 57.507439 54.166593 
L 58.56287 62.623329 
L 59.618302 55.374698 
L 60.673733 55.374698 
L 61.729164 62.623329 
L 62.784596 55.374698 
L 63.840027 55.374698 
L 64.895459 55.978751 
L 65.95089 58.999014 
L 67.006321 47.522015 
L 68.061753 49.938225 
L 69.117184 48.126067 
L 70.172615 57.186856 
L 71.228047 49.938225 
L 72.283478 48.73012 
L 73.33891 57.186856 
L 74.394341 48.126067 
L 75.449772 49.938225 
L 76.505204 49.334172 
L 77.560635 55.978751 
L 78.616067 46.917962 
L 79.671498 49.132822 
L 80.726929 46.917962 
L 81.782361 53.56254 
L 82.837792 42.689594 
L 83.893224 40.877436 
L 84.948655 49.938225 
L 86.004086 45.105804 
L 87.059518 45.709857 
L 88.114949 48.126067 
L 89.17038 46.917962 
L 90.225812 43.293647 
L 91.281243 43.293647 
L 92.336675 43.897699 
L 93.392106 49.334172 
L 94.447537 42.689594 
L 95.502969 43.293647 
L 96.5584 51.750383 
L 97.613832 45.709857 
L 98.669263 43.897699 
L 99.724694 46.31391 
L 100.780126 55.978751 
L 101.835557 46.31391 
L 102.890988 48.73012 
L 103.94642 48.73012 
L 105.001851 48.126067 
L 106.057283 41.481489 
L 107.112714 43.293647 
L 108.168145 49.938225 
L 109.223577 44.501752 
L 110.279008 43.897699 
L 111.33444 43.897699 
L 112.389871 49.334172 
L 113.445302 40.877436 
L 115.556165 45.709857 
L 116.611596 43.897699 
L 117.667028 43.897699 
L 118.722459 42.421126 
L 119.777891 51.750383 
L 120.833322 42.085541 
L 121.888753 42.689594 
L 122.944185 43.897699 
L 123.999616 49.334172 
L 125.055048 38.461226 
L 126.110479 40.877436 
L 127.16591 43.897699 
L 128.221342 49.334172 
L 129.276773 31.816648 
L 130.332204 42.689594 
L 131.387636 49.938225 
L 132.443067 38.461226 
L 133.498499 40.273384 
L 134.55393 37.857173 
L 135.609361 48.126067 
L 136.664793 37.253121 
L 137.720224 37.253121 
L 138.775656 45.105804 
L 139.831087 45.709857 
L 140.886518 43.897699 
L 141.94195 43.897699 
L 142.997381 49.938225 
L 144.052813 37.857173 
L 145.108244 36.045016 
L 146.163675 38.461226 
L 147.219107 45.105804 
L 148.274538 37.253121 
L 149.329969 36.649068 
L 150.385401 48.73012 
L 151.440832 43.897699 
L 152.496264 43.293647 
L 153.551695 43.897699 
L 154.607126 48.126067 
L 155.662558 37.857173 
L 156.717989 40.877436 
L 157.773421 37.857173 
L 158.828852 49.132822 
L 159.884283 43.293647 
L 160.939715 40.877436 
L 161.995146 48.73012 
L 163.050577 43.897699 
L 165.16144 42.689594 
L 166.216872 48.126067 
L 167.272303 39.669331 
L 168.327734 39.065279 
L 169.383166 37.857173 
L 170.438597 51.14633 
L 171.494029 43.293647 
L 172.54946 43.897699 
L 173.604891 51.750383 
L 174.660323 42.689594 
L 176.771185 43.897699 
L 177.826617 51.750383 
L 178.882048 45.709857 
L 179.93748 42.085541 
L 180.992911 43.897699 
L 182.048342 52.958488 
L 183.103774 43.293647 
L 184.159205 43.293647 
L 185.214637 52.354435 
L 186.270068 43.897699 
L 187.325499 43.897699 
L 188.380931 43.293647 
L 189.436362 48.126067 
L 190.491793 37.857173 
L 191.547225 38.461226 
L 192.602656 43.897699 
L 193.658088 47.522015 
L 194.713519 40.877436 
L 195.76895 41.481489 
L 196.824382 51.14633 
L 197.879813 43.897699 
L 198.935245 44.501752 
L 199.990676 46.31391 
L 201.046107 53.56254 
L 202.101539 46.31391 
L 203.15697 43.897699 
L 204.212401 45.105804 
L 205.267833 50.542278 
L 206.323264 42.085541 
L 207.378696 41.481489 
L 208.434127 49.334172 
L 209.489558 40.273384 
L 210.54499 42.085541 
L 211.600421 43.293647 
L 212.655853 46.917962 
L 213.711284 39.669331 
L 214.766715 42.085541 
L 215.822147 40.877436 
L 216.877578 49.334172 
L 217.93301 39.669331 
L 218.988441 41.481489 
L 220.043872 51.14633 
L 221.099304 46.917962 
L 222.154735 43.293647 
L 223.210166 44.501752 
L 224.265598 49.334172 
L 225.321029 39.669331 
L 226.376461 40.273384 
L 227.431892 43.293647 
L 228.487323 44.501752 
L 229.542755 39.669331 
L 230.598186 37.05177 
L 231.653618 48.126067 
L 232.709049 40.877436 
L 233.76448 42.085541 
L 234.819912 42.689594 
L 235.875343 47.522015 
L 236.930774 40.273384 
L 237.986206 42.689594 
L 239.041637 42.085541 
L 240.097069 52.354435 
L 241.1525 42.689594 
L 242.207931 43.897699 
L 243.263363 50.542278 
L 244.318794 40.877436 
L 245.374226 40.877436 
L 246.429657 38.461226 
L 247.485088 48.126067 
L 248.54052 38.461226 
L 249.595951 36.649068 
L 250.651382 45.105804 
L 251.706814 48.126067 
L 252.762245 45.709857 
L 253.817677 45.709857 
L 254.873108 53.56254 
L 255.928539 45.709857 
L 256.983971 45.105804 
L 258.039402 46.917962 
L 259.094834 52.958488 
L 260.150265 46.31391 
L 261.205696 43.293647 
L 262.261128 49.938225 
L 263.316559 42.085541 
L 264.37199 38.461226 
L 265.427422 40.273384 
L 266.482853 50.475161 
L 267.538285 40.877436 
L 268.593716 42.689594 
L 269.649147 43.293647 
L 270.704579 52.958488 
L 271.76001 45.709857 
L 272.815442 45.105804 
L 273.870873 49.334172 
L 274.926304 45.105804 
L 275.981736 43.293647 
L 277.037167 45.105804 
L 278.092599 52.958488 
L 279.14803 48.126067 
L 280.203461 48.126067 
L 281.258893 47.522015 
L 282.314324 52.958488 
L 283.369755 46.31391 
L 284.425187 45.709857 
L 285.480618 53.56254 
L 286.53605 44.501752 
L 287.591481 43.897699 
L 288.646912 47.522015 
L 289.702344 49.334172 
L 290.757775 41.481489 
L 291.813207 39.065279 
L 292.868638 42.689594 
L 293.924069 55.374698 
L 294.979501 49.334172 
L 296.034932 49.334172 
L 297.090363 54.770646 
L 298.145795 44.501752 
L 299.201226 46.31391 
L 300.256658 46.31391 
L 301.312089 52.958488 
L 302.36752 45.709857 
L 303.422952 48.73012 
L 304.478383 45.105804 
L 305.533815 57.186856 
L 306.589246 47.119313 
L 307.644677 48.73012 
L 308.700109 54.166593 
L 309.75554 48.73012 
L 310.810971 46.917962 
L 312.921834 50.542278 
L 313.977266 41.481489 
L 315.032697 37.253121 
L 316.088128 43.293647 
L 317.14356 47.522015 
L 318.198991 37.253121 
L 319.254423 34.836911 
L 320.309854 46.31391 
L 321.365285 39.065279 
L 322.420717 39.669331 
L 323.476148 39.669331 
L 324.531579 48.73012 
L 325.587011 40.877436 
L 326.642442 40.877436 
L 327.697874 39.065279 
L 328.753305 48.73012 
L 329.808736 40.273384 
L 330.864168 39.065279 
L 331.919599 49.938225 
L 332.975031 42.689594 
L 334.030462 41.481489 
L 335.085893 42.085541 
L 336.141325 48.126067 
L 337.196756 39.065279 
L 338.252187 40.273384 
L 339.307619 44.501752 
L 340.36305 45.776974 
L 341.418482 41.481489 
L 342.473913 40.877436 
L 343.529344 49.938225 
L 344.584776 38.461226 
L 345.640207 40.273384 
L 346.695639 37.253121 
L 347.75107 49.334172 
L 348.806501 37.253121 
L 350.917364 39.669331 
L 351.972796 45.105804 
L 353.028227 40.273384 
L 354.083658 42.085541 
L 355.13909 51.14633 
L 356.194521 37.857173 
L 357.249952 37.253121 
L 358.305384 40.877436 
L 359.360815 48.126067 
L 360.416247 39.669331 
L 361.471678 40.273384 
L 362.527109 42.085541 
L 363.582541 43.293647 
L 364.637972 39.669331 
L 365.693404 40.877436 
L 366.748835 46.917962 
L 367.804266 37.253121 
L 368.859698 39.065279 
L 369.915129 39.669331 
L 370.97056 53.56254 
L 372.025992 45.709857 
L 373.081423 45.709857 
L 374.136855 47.119313 
L 375.192286 51.750383 
L 376.247717 43.897699 
L 377.303149 45.709857 
L 378.35858 51.750383 
L 379.414012 43.897699 
L 380.469443 48.126067 
L 382.580306 46.917962 
L 383.635737 37.253121 
L 384.691168 37.253121 
L 385.7466 45.105804 
L 386.802031 48.126067 
L 387.857463 47.522015 
L 388.912894 45.709857 
L 389.968325 53.56254 
L 391.023757 48.126067 
L 393.13462 46.917962 
L 394.190051 49.938225 
L 395.245482 39.669331 
L 396.300914 39.065279 
L 397.356345 48.126067 
L 398.411776 37.857173 
L 399.467208 41.481489 
L 400.522639 39.065279 
L 401.578071 46.31391 
L 402.633502 38.461226 
L 403.688933 37.857173 
L 404.744365 40.877436 
L 405.799796 44.501752 
L 406.855228 39.669331 
L 407.910659 39.669331 
L 408.96609 45.105804 
L 410.021522 37.72294 
L 411.076953 39.669331 
L 412.132385 37.253121 
L 413.187816 47.522015 
L 414.243247 35.440963 
L 415.298679 37.857173 
L 416.35411 39.065279 
L 417.409541 47.522015 
L 418.464973 37.857173 
L 419.520404 36.649068 
L 420.575836 43.897699 
L 421.631267 35.440963 
L 422.686698 37.857173 
L 423.74213 35.440963 
L 424.797561 41.481489 
L 425.852993 37.253121 
L 426.908424 36.649068 
L 427.963855 39.669331 
L 429.019287 48.126067 
L 430.074718 42.689594 
L 431.130149 43.897699 
L 432.185581 122.625885 
L 432.185581 122.625885 
" clip-path="url(#p60c78b8743)" style="fill: none; stroke: #1f77b4; stroke-width: 2; stroke-linecap: round"/>
   </g>
   <g id="line2d_17">
    <path d="M 46.953125 111.551587 
L 48.008556 70.476012 
L 49.063988 72.892223 
L 50.119419 63.831434 
L 51.174851 60.811171 
L 52.230282 60.811171 
L 53.285713 65.039539 
L 54.341145 62.623329 
L 55.396576 61.415224 
L 56.452007 59.603066 
L 57.507439 60.207119 
L 58.56287 57.790908 
L 60.673733 61.415224 
L 61.729164 56.582803 
L 62.784596 57.790908 
L 63.840027 59.603066 
L 64.895459 58.394961 
L 65.95089 59.603066 
L 67.006321 61.415224 
L 68.061753 58.394961 
L 69.117184 60.811171 
L 71.228047 62.019276 
L 72.283478 60.207119 
L 73.33891 61.415224 
L 74.394341 59.603066 
L 75.449772 56.582803 
L 76.505204 59.603066 
L 77.560635 58.394961 
L 78.616067 56.515686 
L 79.671498 58.999014 
L 80.726929 58.394961 
L 81.782361 53.56254 
L 82.837792 63.227382 
L 83.893224 57.790908 
L 84.948655 61.415224 
L 86.004086 55.978751 
L 87.059518 58.999014 
L 88.114949 58.999014 
L 89.17038 55.374698 
L 90.225812 58.394961 
L 91.281243 58.394961 
L 92.336675 58.999014 
L 93.392106 55.978751 
L 95.502969 55.978751 
L 96.5584 55.374698 
L 97.613832 57.790908 
L 98.669263 58.999014 
L 99.724694 55.374698 
L 100.780126 58.999014 
L 101.835557 57.790908 
L 102.890988 55.374698 
L 103.94642 58.394961 
L 105.001851 55.374698 
L 106.057283 55.374698 
L 107.112714 58.394961 
L 108.168145 57.186856 
L 109.223577 56.582803 
L 110.279008 57.790908 
L 111.33444 55.978751 
L 112.389871 55.173347 
L 113.445302 58.999014 
L 114.500734 58.394961 
L 115.556165 56.582803 
L 116.611596 55.978751 
L 117.667028 58.394961 
L 118.722459 57.186856 
L 119.777891 58.394961 
L 120.833322 56.582803 
L 121.888753 55.978751 
L 122.944185 60.811171 
L 125.055048 54.770646 
L 126.110479 58.999014 
L 127.16591 59.603066 
L 128.221342 58.999014 
L 129.276773 62.019276 
L 130.332204 59.603066 
L 131.387636 58.999014 
L 132.443067 60.207119 
L 133.498499 62.623329 
L 134.55393 60.207119 
L 135.609361 60.811171 
L 136.664793 60.207119 
L 137.720224 60.207119 
L 138.775656 58.999014 
L 139.831087 61.415224 
L 140.886518 59.603066 
L 141.94195 60.811171 
L 142.997381 60.207119 
L 144.052813 61.415224 
L 145.108244 60.207119 
L 147.219107 60.207119 
L 149.329969 60.811171 
L 150.385401 54.770646 
L 151.440832 63.227382 
L 152.496264 55.374698 
L 153.551695 55.374698 
L 154.607126 61.415224 
L 155.662558 57.790908 
L 156.717989 55.978751 
L 157.773421 56.582803 
L 158.828852 55.978751 
L 159.884283 60.811171 
L 161.995146 60.811171 
L 163.050577 56.582803 
L 164.106009 60.207119 
L 165.16144 62.019276 
L 166.216872 60.207119 
L 167.272303 61.415224 
L 168.327734 58.999014 
L 169.383166 62.623329 
L 170.438597 63.227382 
L 171.494029 61.415224 
L 172.54946 60.207119 
L 175.715754 62.019276 
L 176.771185 64.435487 
L 177.826617 64.569721 
L 178.882048 58.999014 
L 179.93748 65.039539 
L 180.992911 62.623329 
L 182.048342 63.831434 
L 183.103774 62.623329 
L 185.214637 62.623329 
L 186.270068 65.039539 
L 187.325499 62.019276 
L 189.436362 60.811171 
L 190.491793 63.831434 
L 191.547225 61.415224 
L 192.602656 62.019276 
L 193.658088 64.435487 
L 194.713519 64.435487 
L 195.76895 88.396239 
L 195.76895 88.396239 
" clip-path="url(#p60c78b8743)" style="fill: none; stroke: #ff7f0e; stroke-width: 2; stroke-linecap: round"/>
   </g>
   <g id="patch_3">
    <path d="M 46.953125 242.389375 
L 46.953125 21.789375 
" style="fill: none; stroke: #cccccc; stroke-width: 0.8; stroke-linejoin: miter; stroke-linecap: square"/>
   </g>
   <g id="patch_4">
    <path d="M 435.351875 242.389375 
L 435.351875 21.789375 
" style="fill: none; stroke: #cccccc; stroke-width: 0.8; stroke-linejoin: miter; stroke-linecap: square"/>
   </g>
   <g id="patch_5">
    <path d="M 46.953125 242.389375 
L 435.351875 242.389375 
" style="fill: none; stroke: #cccccc; stroke-width: 0.8; stroke-linejoin: miter; stroke-linecap: square"/>
   </g>
   <g id="patch_6">
    <path d="M 46.953125 21.789375 
L 435.351875 21.789375 
" style="fill: none; stroke: #cccccc; stroke-width: 0.8; stroke-linejoin: miter; stroke-linecap: square"/>
   </g>
   <g id="text_18">
    <!-- PE017 — PC1 all cores -->
    <g style="fill: #262626" transform="translate(178.125313 15.789375) scale(0.12 -0.12)">
     <defs>
      <path id="ArialMT-50" d="M 494 0 
L 494 4581 
L 2222 4581 
Q 2678 4581 2919 4538 
Q 3256 4481 3484 4323 
Q 3713 4166 3852 3881 
Q 3991 3597 3991 3256 
Q 3991 2672 3619 2267 
Q 3247 1863 2275 1863 
L 1100 1863 
L 1100 0 
L 494 0 
z
M 1100 2403 
L 2284 2403 
Q 2872 2403 3119 2622 
Q 3366 2841 3366 3238 
Q 3366 3525 3220 3729 
Q 3075 3934 2838 4000 
Q 2684 4041 2272 4041 
L 1100 4041 
L 1100 2403 
z
" transform="scale(0.015625)"/>
      <path id="ArialMT-2014" d="M 0 1431 
L 0 1884 
L 6400 1884 
L 6400 1431 
L 0 1431 
z
" transform="scale(0.015625)"/>
      <path id="ArialMT-43" d="M 3763 1606 
L 4369 1453 
Q 4178 706 3683 314 
Q 3188 -78 2472 -78 
Q 1731 -78 1267 223 
Q 803 525 561 1097 
Q 319 1669 319 2325 
Q 319 3041 592 3573 
Q 866 4106 1370 4382 
Q 1875 4659 2481 4659 
Q 3169 4659 3637 4309 
Q 4106 3959 4291 3325 
L 3694 3184 
Q 3534 3684 3231 3912 
Q 2928 4141 2469 4141 
Q 1941 4141 1586 3887 
Q 1231 3634 1087 3207 
Q 944 2781 944 2328 
Q 944 1744 1114 1308 
Q 1284 872 1643 656 
Q 2003 441 2422 441 
Q 2931 441 3284 734 
Q 3638 1028 3763 1606 
z
" transform="scale(0.015625)"/>
      <path id="ArialMT-6f" d="M 213 1659 
Q 213 2581 725 3025 
Q 1153 3394 1769 3394 
Q 2453 3394 2887 2945 
Q 3322 2497 3322 1706 
Q 3322 1066 3130 698 
Q 2938 331 2570 128 
Q 2203 -75 1769 -75 
Q 1072 -75 642 372 
Q 213 819 213 1659 
z
M 791 1659 
Q 791 1022 1069 705 
Q 1347 388 1769 388 
Q 2188 388 2466 706 
Q 2744 1025 2744 1678 
Q 2744 2294 2464 2611 
Q 2184 2928 1769 2928 
Q 1347 2928 1069 2612 
Q 791 2297 791 1659 
z
" transform="scale(0.015625)"/>
     </defs>
     <use xlink:href="#ArialMT-50"/>
     <use xlink:href="#ArialMT-45" transform="translate(66.699219 0)"/>
     <use xlink:href="#ArialMT-30" transform="translate(133.398438 0)"/>
     <use xlink:href="#ArialMT-31" transform="translate(189.013672 0)"/>
     <use xlink:href="#ArialMT-37" transform="translate(244.628906 0)"/>
     <use xlink:href="#ArialMT-20" transform="translate(300.244141 0)"/>
     <use xlink:href="#ArialMT-2014" transform="translate(328.027344 0)"/>
     <use xlink:href="#ArialMT-20" transform="translate(428.027344 0)"/>
     <use xlink:href="#ArialMT-50" transform="translate(455.810547 0)"/>
     <use xlink:href="#ArialMT-43" transform="translate(522.509766 0)"/>
     <use xlink:href="#ArialMT-31" transform="translate(594.726562 0)"/>
     <use xlink:href="#ArialMT-20" transform="translate(650.341797 0)"/>
     <use xlink:href="#ArialMT-61" transform="translate(678.125 0)"/>
     <use xlink:href="#ArialMT-6c" transform="translate(733.740234 0)"/>
     <use xlink:href="#ArialMT-6c" transform="translate(755.957031 0)"/>
     <use xlink:href="#ArialMT-20" transform="translate(778.173828 0)"/>
     <use xlink:href="#ArialMT-63" transform="translate(805.957031 0)"/>
     <use xlink:href="#ArialMT-6f" transform="translate(855.957031 0)"/>
     <use xlink:href="#ArialMT-72" transform="translate(911.572266 0)"/>
     <use xlink:href="#ArialMT-65" transform="translate(944.873047 0)"/>
     <use xlink:href="#ArialMT-73" transform="translate(1000.488281 0)"/>
    </g>
   </g>
   <g id="legend_1">
    <g id="patch_7">
     <path d="M 53.953125 237.389375 
L 117.635938 237.389375 
Q 119.635938 237.389375 119.635938 235.389375 
L 119.635938 207.864375 
Q 119.635938 205.864375 117.635938 205.864375 
L 53.953125 205.864375 
Q 51.953125 205.864375 51.953125 207.864375 
L 51.953125 235.389375 
Q 51.953125 237.389375 53.953125 237.389375 
z
" style="fill: #ffffff; opacity: 0.8; stroke: #cccccc; stroke-linejoin: miter"/>
    </g>
    <g id="line2d_18">
     <path d="M 55.953125 213.522188 
L 65.953125 213.522188 
L 75.953125 213.522188 
" style="fill: none; stroke: #1f77b4; stroke-width: 2; stroke-linecap: round"/>
    </g>
    <g id="text_19">
     <!-- queryA -->
     <g style="fill: #262626" transform="translate(83.953125 217.022188) scale(0.1 -0.1)">
      <defs>
       <path id="ArialMT-71" d="M 2538 -1272 
L 2538 353 
Q 2406 169 2170 47 
Q 1934 -75 1669 -75 
Q 1078 -75 651 397 
Q 225 869 225 1691 
Q 225 2191 398 2587 
Q 572 2984 901 3189 
Q 1231 3394 1625 3394 
Q 2241 3394 2594 2875 
L 2594 3319 
L 3100 3319 
L 3100 -1272 
L 2538 -1272 
z
M 803 1669 
Q 803 1028 1072 708 
Q 1341 388 1716 388 
Q 2075 388 2334 692 
Q 2594 997 2594 1619 
Q 2594 2281 2320 2615 
Q 2047 2950 1678 2950 
Q 1313 2950 1058 2639 
Q 803 2328 803 1669 
z
" transform="scale(0.015625)"/>
       <path id="ArialMT-75" d="M 2597 0 
L 2597 488 
Q 2209 -75 1544 -75 
Q 1250 -75 995 37 
Q 741 150 617 320 
Q 494 491 444 738 
Q 409 903 409 1263 
L 409 3319 
L 972 3319 
L 972 1478 
Q 972 1038 1006 884 
Q 1059 663 1231 536 
Q 1403 409 1656 409 
Q 1909 409 2131 539 
Q 2353 669 2445 892 
Q 2538 1116 2538 1541 
L 2538 3319 
L 3100 3319 
L 3100 0 
L 2597 0 
z
" transform="scale(0.015625)"/>
       <path id="ArialMT-79" d="M 397 -1278 
L 334 -750 
Q 519 -800 656 -800 
Q 844 -800 956 -737 
Q 1069 -675 1141 -563 
Q 1194 -478 1313 -144 
Q 1328 -97 1363 -6 
L 103 3319 
L 709 3319 
L 1400 1397 
Q 1534 1031 1641 628 
Q 1738 1016 1872 1384 
L 2581 3319 
L 3144 3319 
L 1881 -56 
Q 1678 -603 1566 -809 
Q 1416 -1088 1222 -1217 
Q 1028 -1347 759 -1347 
Q 597 -1347 397 -1278 
z
" transform="scale(0.015625)"/>
       <path id="ArialMT-41" d="M -9 0 
L 1750 4581 
L 2403 4581 
L 4278 0 
L 3588 0 
L 3053 1388 
L 1138 1388 
L 634 0 
L -9 0 
z
M 1313 1881 
L 2866 1881 
L 2388 3150 
Q 2169 3728 2063 4100 
Q 1975 3659 1816 3225 
L 1313 1881 
z
" transform="scale(0.015625)"/>
      </defs>
      <use xlink:href="#ArialMT-71"/>
      <use xlink:href="#ArialMT-75" transform="translate(55.615234 0)"/>
      <use xlink:href="#ArialMT-65" transform="translate(111.230469 0)"/>
      <use xlink:href="#ArialMT-72" transform="translate(166.845703 0)"/>
      <use xlink:href="#ArialMT-79" transform="translate(200.146484 0)"/>
      <use xlink:href="#ArialMT-41" transform="translate(250.146484 0)"/>
     </g>
    </g>
    <g id="line2d_19">
     <path d="M 55.953125 227.784688 
L 65.953125 227.784688 
L 75.953125 227.784688 
" style="fill: none; stroke: #ff7f0e; stroke-width: 2; stroke-linecap: round"/>
    </g>
    <g id="text_20">
     <!-- queryB -->
     <g style="fill: #262626" transform="translate(83.953125 231.284688) scale(0.1 -0.1)">
      <use xlink:href="#ArialMT-71"/>
      <use xlink:href="#ArialMT-75" transform="translate(55.615234 0)"/>
      <use xlink:href="#ArialMT-65" transform="translate(111.230469 0)"/>
      <use xlink:href="#ArialMT-72" transform="translate(166.845703 0)"/>
      <use xlink:href="#ArialMT-79" transform="translate(200.146484 0)"/>
      <use xlink:href="#ArialMT-42" transform="translate(250.146484 0)"/>
     </g>
    </g>
   </g>
  </g>
  <g id="axes_2">
   <g id="patch_8">
    <path d="M 460.333125 242.389375 
L 848.731875 242.389375 
L 848.731875 21.789375 
L 460.333125 21.789375 
z
" style="fill: #ffffff"/>
   </g>
   <g id="matplotlib.axis_3">
    <g id="xtick_9">
     <g id="line2d_20">
      <path d="M 460.333125 242.389375 
L 460.333125 21.789375 
" clip-path="url(#pdf64446e8f)" style="fill: none; stroke: #cccccc; stroke-opacity: 0.3; stroke-width: 0.8; stroke-linecap: round"/>
     </g>
     <g id="text_21">
      <!-- 0 -->
      <g style="fill: #262626" transform="translate(457.552656 256.547188) scale(0.1 -0.1)">
       <use xlink:href="#ArialMT-30"/>
      </g>
     </g>
    </g>
    <g id="xtick_10">
     <g id="line2d_21">
      <path d="M 513.104694 242.389375 
L 513.104694 21.789375 
" clip-path="url(#pdf64446e8f)" style="fill: none; stroke: #cccccc; stroke-opacity: 0.3; stroke-width: 0.8; stroke-linecap: round"/>
     </g>
     <g id="text_22">
      <!-- 50 -->
      <g style="fill: #262626" transform="translate(507.543757 256.547188) scale(0.1 -0.1)">
       <use xlink:href="#ArialMT-35"/>
       <use xlink:href="#ArialMT-30" transform="translate(55.615234 0)"/>
      </g>
     </g>
    </g>
    <g id="xtick_11">
     <g id="line2d_22">
      <path d="M 565.876264 242.389375 
L 565.876264 21.789375 
" clip-path="url(#pdf64446e8f)" style="fill: none; stroke: #cccccc; stroke-opacity: 0.3; stroke-width: 0.8; stroke-linecap: round"/>
     </g>
     <g id="text_23">
      <!-- 100 -->
      <g style="fill: #262626" transform="translate(557.534857 256.547188) scale(0.1 -0.1)">
       <use xlink:href="#ArialMT-31"/>
       <use xlink:href="#ArialMT-30" transform="translate(55.615234 0)"/>
       <use xlink:href="#ArialMT-30" transform="translate(111.230469 0)"/>
      </g>
     </g>
    </g>
    <g id="xtick_12">
     <g id="line2d_23">
      <path d="M 618.647833 242.389375 
L 618.647833 21.789375 
" clip-path="url(#pdf64446e8f)" style="fill: none; stroke: #cccccc; stroke-opacity: 0.3; stroke-width: 0.8; stroke-linecap: round"/>
     </g>
     <g id="text_24">
      <!-- 150 -->
      <g style="fill: #262626" transform="translate(610.306427 256.547188) scale(0.1 -0.1)">
       <use xlink:href="#ArialMT-31"/>
       <use xlink:href="#ArialMT-35" transform="translate(55.615234 0)"/>
       <use xlink:href="#ArialMT-30" transform="translate(111.230469 0)"/>
      </g>
     </g>
    </g>
    <g id="xtick_13">
     <g id="line2d_24">
      <path d="M 671.419402 242.389375 
L 671.419402 21.789375 
" clip-path="url(#pdf64446e8f)" style="fill: none; stroke: #cccccc; stroke-opacity: 0.3; stroke-width: 0.8; stroke-linecap: round"/>
     </g>
     <g id="text_25">
      <!-- 200 -->
      <g style="fill: #262626" transform="translate(663.077996 256.547188) scale(0.1 -0.1)">
       <use xlink:href="#ArialMT-32"/>
       <use xlink:href="#ArialMT-30" transform="translate(55.615234 0)"/>
       <use xlink:href="#ArialMT-30" transform="translate(111.230469 0)"/>
      </g>
     </g>
    </g>
    <g id="xtick_14">
     <g id="line2d_25">
      <path d="M 724.190971 242.389375 
L 724.190971 21.789375 
" clip-path="url(#pdf64446e8f)" style="fill: none; stroke: #cccccc; stroke-opacity: 0.3; stroke-width: 0.8; stroke-linecap: round"/>
     </g>
     <g id="text_26">
      <!-- 250 -->
      <g style="fill: #262626" transform="translate(715.849565 256.547188) scale(0.1 -0.1)">
       <use xlink:href="#ArialMT-32"/>
       <use xlink:href="#ArialMT-35" transform="translate(55.615234 0)"/>
       <use xlink:href="#ArialMT-30" transform="translate(111.230469 0)"/>
      </g>
     </g>
    </g>
    <g id="xtick_15">
     <g id="line2d_26">
      <path d="M 776.962541 242.389375 
L 776.962541 21.789375 
" clip-path="url(#pdf64446e8f)" style="fill: none; stroke: #cccccc; stroke-opacity: 0.3; stroke-width: 0.8; stroke-linecap: round"/>
     </g>
     <g id="text_27">
      <!-- 300 -->
      <g style="fill: #262626" transform="translate(768.621135 256.547188) scale(0.1 -0.1)">
       <use xlink:href="#ArialMT-33"/>
       <use xlink:href="#ArialMT-30" transform="translate(55.615234 0)"/>
       <use xlink:href="#ArialMT-30" transform="translate(111.230469 0)"/>
      </g>
     </g>
    </g>
    <g id="xtick_16">
     <g id="line2d_27">
      <path d="M 829.73411 242.389375 
L 829.73411 21.789375 
" clip-path="url(#pdf64446e8f)" style="fill: none; stroke: #cccccc; stroke-opacity: 0.3; stroke-width: 0.8; stroke-linecap: round"/>
     </g>
     <g id="text_28">
      <!-- 350 -->
      <g style="fill: #262626" transform="translate(821.392704 256.547188) scale(0.1 -0.1)">
       <use xlink:href="#ArialMT-33"/>
       <use xlink:href="#ArialMT-35" transform="translate(55.615234 0)"/>
       <use xlink:href="#ArialMT-30" transform="translate(111.230469 0)"/>
      </g>
     </g>
    </g>
    <g id="text_29">
     <!-- Elapsed Time (sec) -->
     <g style="fill: #262626" transform="translate(611.741094 269.814375) scale(0.1 -0.1)">
      <use xlink:href="#ArialMT-45"/>
      <use xlink:href="#ArialMT-6c" transform="translate(66.699219 0)"/>
      <use xlink:href="#ArialMT-61" transform="translate(88.916016 0)"/>
      <use xlink:href="#ArialMT-70" transform="translate(144.53125 0)"/>
      <use xlink:href="#ArialMT-73" transform="translate(200.146484 0)"/>
      <use xlink:href="#ArialMT-65" transform="translate(250.146484 0)"/>
      <use xlink:href="#ArialMT-64" transform="translate(305.761719 0)"/>
      <use xlink:href="#ArialMT-20" transform="translate(361.376953 0)"/>
      <use xlink:href="#ArialMT-54" transform="translate(387.410156 0)"/>
      <use xlink:href="#ArialMT-69" transform="translate(444.744141 0)"/>
      <use xlink:href="#ArialMT-6d" transform="translate(466.960938 0)"/>
      <use xlink:href="#ArialMT-65" transform="translate(550.261719 0)"/>
      <use xlink:href="#ArialMT-20" transform="translate(605.876953 0)"/>
      <use xlink:href="#ArialMT-28" transform="translate(633.660156 0)"/>
      <use xlink:href="#ArialMT-73" transform="translate(666.960938 0)"/>
      <use xlink:href="#ArialMT-65" transform="translate(716.960938 0)"/>
      <use xlink:href="#ArialMT-63" transform="translate(772.576172 0)"/>
      <use xlink:href="#ArialMT-29" transform="translate(822.576172 0)"/>
     </g>
    </g>
   </g>
   <g id="matplotlib.axis_4">
    <g id="ytick_8">
     <g id="line2d_28">
      <path d="M 460.333125 214.240525 
L 848.731875 214.240525 
" clip-path="url(#pdf64446e8f)" style="fill: none; stroke: #cccccc; stroke-opacity: 0.3; stroke-width: 0.8; stroke-linecap: round"/>
     </g>
    </g>
    <g id="ytick_9">
     <g id="line2d_29">
      <path d="M 460.333125 184.037896 
L 848.731875 184.037896 
" clip-path="url(#pdf64446e8f)" style="fill: none; stroke: #cccccc; stroke-opacity: 0.3; stroke-width: 0.8; stroke-linecap: round"/>
     </g>
    </g>
    <g id="ytick_10">
     <g id="line2d_30">
      <path d="M 460.333125 153.835268 
L 848.731875 153.835268 
" clip-path="url(#pdf64446e8f)" style="fill: none; stroke: #cccccc; stroke-opacity: 0.3; stroke-width: 0.8; stroke-linecap: round"/>
     </g>
    </g>
    <g id="ytick_11">
     <g id="line2d_31">
      <path d="M 460.333125 123.632639 
L 848.731875 123.632639 
" clip-path="url(#pdf64446e8f)" style="fill: none; stroke: #cccccc; stroke-opacity: 0.3; stroke-width: 0.8; stroke-linecap: round"/>
     </g>
    </g>
    <g id="ytick_12">
     <g id="line2d_32">
      <path d="M 460.333125 93.43001 
L 848.731875 93.43001 
" clip-path="url(#pdf64446e8f)" style="fill: none; stroke: #cccccc; stroke-opacity: 0.3; stroke-width: 0.8; stroke-linecap: round"/>
     </g>
    </g>
    <g id="ytick_13">
     <g id="line2d_33">
      <path d="M 460.333125 63.227382 
L 848.731875 63.227382 
" clip-path="url(#pdf64446e8f)" style="fill: none; stroke: #cccccc; stroke-opacity: 0.3; stroke-width: 0.8; stroke-linecap: round"/>
     </g>
    </g>
    <g id="ytick_14">
     <g id="line2d_34">
      <path d="M 460.333125 33.024753 
L 848.731875 33.024753 
" clip-path="url(#pdf64446e8f)" style="fill: none; stroke: #cccccc; stroke-opacity: 0.3; stroke-width: 0.8; stroke-linecap: round"/>
     </g>
    </g>
    <g id="text_30">
     <!-- Mean pkg_j per 1s Bin -->
     <g style="fill: #262626" transform="translate(454.228438 181.837031) rotate(-90) scale(0.1 -0.1)">
      <use xlink:href="#ArialMT-4d"/>
      <use xlink:href="#ArialMT-65" transform="translate(83.300781 0)"/>
      <use xlink:href="#ArialMT-61" transform="translate(138.916016 0)"/>
      <use xlink:href="#ArialMT-6e" transform="translate(194.53125 0)"/>
      <use xlink:href="#ArialMT-20" transform="translate(250.146484 0)"/>
      <use xlink:href="#ArialMT-70" transform="translate(277.929688 0)"/>
      <use xlink:href="#ArialMT-6b" transform="translate(333.544922 0)"/>
      <use xlink:href="#ArialMT-67" transform="translate(383.544922 0)"/>
      <use xlink:href="#ArialMT-5f" transform="translate(439.160156 0)"/>
      <use xlink:href="#ArialMT-6a" transform="translate(494.775391 0)"/>
      <use xlink:href="#ArialMT-20" transform="translate(516.992188 0)"/>
      <use xlink:href="#ArialMT-70" transform="translate(544.775391 0)"/>
      <use xlink:href="#ArialMT-65" transform="translate(600.390625 0)"/>
      <use xlink:href="#ArialMT-72" transform="translate(656.005859 0)"/>
      <use xlink:href="#ArialMT-20" transform="translate(689.306641 0)"/>
      <use xlink:href="#ArialMT-31" transform="translate(717.089844 0)"/>
      <use xlink:href="#ArialMT-73" transform="translate(772.705078 0)"/>
      <use xlink:href="#ArialMT-20" transform="translate(822.705078 0)"/>
      <use xlink:href="#ArialMT-42" transform="translate(850.488281 0)"/>
      <use xlink:href="#ArialMT-69" transform="translate(917.1875 0)"/>
      <use xlink:href="#ArialMT-6e" transform="translate(939.404297 0)"/>
     </g>
    </g>
   </g>
   <g id="line2d_35">
    <path d="M 460.333125 105.511062 
L 461.388556 92.221905 
L 462.443988 91.0138 
L 463.499419 100.074589 
L 464.554851 86.785432 
L 465.610282 86.181379 
L 466.665713 87.389485 
L 467.721145 94.034063 
L 468.776576 82.557064 
L 469.832007 80.140854 
L 470.887439 80.140854 
L 471.94287 87.993537 
L 472.998302 80.744906 
L 474.053733 80.140854 
L 475.109164 85.577327 
L 476.164596 80.140854 
L 477.220027 83.161117 
L 478.275459 83.765169 
L 479.33089 91.0138 
L 480.386321 86.181379 
L 481.441753 84.369222 
L 482.497184 84.973274 
L 483.552615 92.825958 
L 484.608047 84.369222 
L 485.663478 80.140854 
L 486.71891 89.201642 
L 487.774341 83.161117 
L 488.829772 82.020128 
L 489.885204 81.953011 
L 490.940635 91.0138 
L 491.996067 81.348959 
L 493.051498 81.348959 
L 494.106929 78.932748 
L 495.162361 90.409747 
L 496.217792 80.140854 
L 497.273224 79.536801 
L 498.328655 84.973274 
L 499.384086 79.536801 
L 501.494949 79.536801 
L 502.55038 85.577327 
L 503.605812 80.140854 
L 504.661243 80.140854 
L 505.716675 78.328696 
L 506.772106 88.59759 
L 507.827537 79.536801 
L 508.882969 80.140854 
L 509.9384 83.765169 
L 510.993832 81.348959 
L 512.049263 80.140854 
L 513.104694 75.912486 
L 514.160126 84.369222 
L 515.215557 75.308433 
L 516.270988 76.516538 
L 517.32642 74.70438 
L 518.381851 86.181379 
L 519.437283 77.724643 
L 520.492714 76.516538 
L 521.548145 76.516538 
L 522.603577 81.953011 
L 523.659008 74.70438 
L 524.71444 76.516538 
L 525.769871 83.765169 
L 526.825302 73.496275 
L 527.880734 79.536801 
L 528.936165 77.120591 
L 529.991596 87.993537 
L 531.047028 80.140854 
L 532.102459 77.120591 
L 533.157891 82.557064 
L 534.213322 84.369222 
L 535.268753 78.328696 
L 536.324185 79.536801 
L 537.379616 84.369222 
L 538.435048 77.724643 
L 539.490479 77.120591 
L 540.54591 75.912486 
L 541.601342 84.973274 
L 542.656773 77.120591 
L 543.712204 75.979603 
L 544.767636 76.516538 
L 545.823067 84.369222 
L 546.878499 77.120591 
L 547.93393 75.912486 
L 548.989361 83.765169 
L 550.044793 74.100328 
L 551.100224 73.496275 
L 552.155656 74.100328 
L 553.211087 84.369222 
L 554.266518 75.912486 
L 555.32195 76.516538 
L 556.377381 74.70438 
L 557.432813 84.973274 
L 558.488244 76.516538 
L 559.543675 75.912486 
L 560.599107 83.161117 
L 561.654538 74.100328 
L 562.709969 74.100328 
L 563.765401 74.70438 
L 564.820832 82.557064 
L 565.876264 73.496275 
L 566.931695 73.496275 
L 567.987126 74.70438 
L 569.042558 81.953011 
L 570.097989 74.100328 
L 571.153421 74.100328 
L 572.208852 81.348959 
L 573.264283 76.516538 
L 574.319715 72.28817 
L 575.375146 75.912486 
L 576.430577 81.953011 
L 577.486009 74.100328 
L 578.54144 74.100328 
L 579.596872 72.28817 
L 580.652303 80.744906 
L 581.707734 72.28817 
L 582.763166 70.476012 
L 583.818597 78.328696 
L 584.874029 71.684118 
L 585.92946 67.45575 
L 586.984891 72.892223 
L 588.040323 81.348959 
L 589.095754 74.70438 
L 590.151185 77.120591 
L 591.206617 76.516538 
L 592.262048 85.577327 
L 593.31748 77.120591 
L 594.372911 79.536801 
L 595.428342 83.765169 
L 596.483774 74.70438 
L 597.539205 75.912486 
L 598.594637 76.516538 
L 599.650068 86.718315 
L 600.705499 75.308433 
L 601.760931 72.892223 
L 602.816362 80.140854 
L 603.871793 88.59759 
L 604.927225 74.70438 
L 605.982656 73.496275 
L 607.038088 77.120591 
L 608.093519 81.348959 
L 609.14895 75.308433 
L 610.204382 73.496275 
L 611.259813 80.140854 
L 612.315245 74.100328 
L 613.370676 75.308433 
L 614.426107 73.496275 
L 615.481539 83.161117 
L 616.53697 75.308433 
L 617.592401 73.496275 
L 618.647833 78.932748 
L 619.703264 81.953011 
L 620.758696 75.308433 
L 621.814127 74.100328 
L 622.869558 82.557064 
L 623.92499 75.308433 
L 624.980421 72.892223 
L 626.035853 74.100328 
L 627.091284 82.691298 
L 628.146715 75.912486 
L 629.202147 74.100328 
L 630.257578 73.496275 
L 631.31301 84.973274 
L 632.368441 73.496275 
L 633.423872 73.496275 
L 634.479304 83.765169 
L 635.534735 74.100328 
L 636.590166 74.100328 
L 637.645598 72.892223 
L 638.701029 83.161117 
L 639.756461 73.496275 
L 640.811892 73.496275 
L 641.867323 74.70438 
L 642.922755 84.369222 
L 643.978186 73.496275 
L 645.033618 72.28817 
L 646.089049 81.348959 
L 647.14448 74.70438 
L 648.199912 74.100328 
L 649.255343 74.100328 
L 650.310774 80.140854 
L 651.366206 74.100328 
L 652.421637 73.496275 
L 653.477069 74.100328 
L 654.5325 83.161117 
L 655.587931 72.28817 
L 656.643363 73.496275 
L 657.698794 81.348959 
L 658.754226 77.321942 
L 659.809657 74.100328 
L 660.865088 72.892223 
L 661.92052 81.348959 
L 662.975951 72.892223 
L 664.031382 72.892223 
L 665.086814 71.684118 
L 666.142245 80.744906 
L 667.197677 72.892223 
L 668.253108 74.100328 
L 670.363971 80.140854 
L 671.419402 72.28817 
L 672.474834 71.080065 
L 673.530265 81.348959 
L 674.585696 74.100328 
L 675.641128 71.080065 
L 676.696559 73.496275 
L 677.75199 82.557064 
L 678.807422 74.70438 
L 679.862853 76.516538 
L 680.918285 77.724643 
L 681.973716 81.348959 
L 683.029147 74.70438 
L 684.084579 72.892223 
L 685.14001 85.577327 
L 686.195442 74.100328 
L 687.250873 72.28817 
L 688.306304 71.952585 
L 689.361736 81.953011 
L 690.417167 74.100328 
L 691.472599 69.267907 
L 692.52803 68.059802 
L 693.583461 75.308433 
L 694.638893 67.45575 
L 695.694324 68.059802 
L 696.749755 77.724643 
L 697.805187 68.663855 
L 698.860618 70.476012 
L 699.91605 61.415224 
L 700.971481 82.557064 
L 702.026912 74.100328 
L 703.082344 74.70438 
L 704.137775 71.080065 
L 705.193207 83.765169 
L 706.248638 74.70438 
L 707.304069 73.496275 
L 708.359501 84.369222 
L 709.414932 73.496275 
L 710.470363 75.308433 
L 711.525795 75.308433 
L 712.581226 85.577327 
L 713.636658 74.100328 
L 714.692089 74.100328 
L 715.74752 72.623755 
L 716.802952 81.953011 
L 717.858383 74.100328 
L 718.913815 72.892223 
L 719.969246 80.140854 
L 721.024677 74.70438 
L 722.080109 72.892223 
L 723.13554 73.496275 
L 724.190971 80.140854 
L 725.246403 73.496275 
L 726.301834 72.892223 
L 727.357266 72.892223 
L 728.412697 81.953011 
L 729.468128 72.892223 
L 730.52356 71.684118 
L 731.578991 75.308433 
L 732.634423 75.308433 
L 733.689854 72.28817 
L 734.745285 72.892223 
L 735.800717 77.120591 
L 736.856148 67.45575 
L 737.911579 72.28817 
L 738.967011 71.684118 
L 740.022442 81.953011 
L 741.077874 72.28817 
L 742.133305 70.476012 
L 743.188736 71.281416 
L 744.244168 78.932748 
L 745.299599 69.267907 
L 746.355031 69.87196 
L 747.410462 74.100328 
L 748.465893 68.059802 
L 749.521325 71.080065 
L 750.576756 69.267907 
L 751.632188 80.140854 
L 752.687619 68.059802 
L 753.74305 69.87196 
L 754.798482 76.516538 
L 755.853913 75.912486 
L 756.909344 71.684118 
L 757.964776 66.247644 
L 759.020207 77.120591 
L 760.075639 69.267907 
L 761.13107 66.851697 
L 762.186501 69.267907 
L 763.241933 75.912486 
L 764.297364 68.663855 
L 765.352796 66.851697 
L 766.408227 71.080065 
L 767.463658 71.080065 
L 768.51909 70.476012 
L 769.574521 69.267907 
L 770.629952 74.637264 
L 771.685384 67.45575 
L 772.740815 66.247644 
L 773.796247 66.851697 
L 774.851678 79.536801 
L 775.907109 66.851697 
L 776.962541 65.643592 
L 778.017972 69.267907 
L 779.073404 72.28817 
L 780.128835 68.663855 
L 781.184266 68.059802 
L 782.239698 81.348959 
L 783.295129 68.059802 
L 784.35056 69.87196 
L 785.405992 68.663855 
L 786.461423 78.328696 
L 787.516855 66.247644 
L 788.572286 66.247644 
L 789.627717 68.663855 
L 790.683149 72.892223 
L 791.73858 69.267907 
L 792.794012 68.059802 
L 793.849443 75.912486 
L 794.904874 65.643592 
L 795.960306 68.059802 
L 797.015737 68.663855 
L 798.071168 80.140854 
L 799.1266 66.851697 
L 800.182031 67.925568 
L 801.237463 68.663855 
L 802.292894 74.100328 
L 803.348325 62.019276 
L 804.403757 62.019276 
L 805.459188 72.892223 
L 806.51462 61.415224 
L 807.570051 61.415224 
L 808.625482 62.623329 
L 809.680914 72.28817 
L 810.736345 67.45575 
L 811.791776 68.663855 
L 813.902639 77.120591 
L 814.958071 66.247644 
L 816.013502 68.059802 
L 817.068933 76.516538 
L 818.124365 66.851697 
L 820.235228 68.059802 
L 821.290659 80.140854 
L 822.34609 67.45575 
L 823.401522 66.247644 
L 824.456953 75.912486 
L 825.512385 75.912486 
L 826.567816 66.247644 
L 827.623247 67.45575 
L 828.678679 74.70438 
L 829.73411 67.45575 
L 830.789541 66.247644 
L 831.844973 70.610246 
L 832.900404 76.516538 
L 833.955836 67.45575 
L 835.011267 67.45575 
L 836.066698 66.851697 
L 837.12213 79.536801 
L 838.177561 66.247644 
L 839.232993 67.45575 
L 840.288424 77.724643 
L 841.343855 68.059802 
L 842.399287 68.059802 
L 843.454718 66.247644 
L 844.510149 74.100328 
L 845.565581 67.45575 
L 846.621012 68.059802 
L 847.676444 68.059802 
L 848.731875 232.362102 
L 848.731875 232.362102 
" clip-path="url(#pdf64446e8f)" style="fill: none; stroke: #1f77b4; stroke-width: 2; stroke-linecap: round"/>
   </g>
   <g id="line2d_36">
    <path d="M 460.333125 109.135377 
L 461.388556 102.490799 
L 462.443988 103.094851 
L 463.499419 98.262431 
L 464.554851 100.074589 
L 465.610282 99.470536 
L 466.665713 98.262431 
L 467.721145 98.262431 
L 468.776576 96.450273 
L 469.832007 98.262431 
L 470.887439 98.262431 
L 471.94287 97.054326 
L 472.998302 97.658378 
L 474.053733 97.658378 
L 475.109164 96.450273 
L 476.164596 98.866483 
L 477.220027 98.262431 
L 478.275459 97.054326 
L 479.33089 98.262431 
L 480.386321 98.262431 
L 481.441753 97.658378 
L 482.497184 96.785858 
L 483.552615 98.262431 
L 485.663478 97.054326 
L 486.71891 98.262431 
L 487.774341 96.450273 
L 488.829772 97.054326 
L 489.885204 97.054326 
L 490.940635 95.242168 
L 491.996067 94.638115 
L 493.051498 95.846221 
L 494.106929 94.638115 
L 495.162361 96.450273 
L 496.217792 96.450273 
L 497.273224 99.470536 
L 498.328655 97.658378 
L 499.384086 94.638115 
L 500.439518 96.450273 
L 501.494949 97.054326 
L 502.55038 94.10118 
L 503.605812 95.846221 
L 504.661243 98.262431 
L 505.716675 97.054326 
L 506.772106 100.074589 
L 507.827537 97.054326 
L 508.882969 91.617853 
L 509.9384 91.0138 
L 510.993832 92.825958 
L 512.049263 91.617853 
L 513.104694 92.221905 
L 514.160126 91.0138 
L 516.270988 92.221905 
L 517.32642 91.617853 
L 518.381851 92.221905 
L 519.437283 95.242168 
L 520.492714 96.450273 
L 521.548145 98.128197 
L 522.603577 95.846221 
L 523.659008 96.450273 
L 524.71444 95.242168 
L 525.769871 94.638115 
L 526.825302 95.242168 
L 527.880734 98.866483 
L 528.936165 95.846221 
L 529.991596 96.450273 
L 531.047028 94.034063 
L 532.102459 97.658378 
L 533.157891 97.658378 
L 534.213322 94.034063 
L 535.268753 95.242168 
L 536.324185 92.825958 
L 537.379616 95.242168 
L 538.435048 94.034063 
L 539.490479 94.638115 
L 540.54591 94.638115 
L 541.601342 94.10118 
L 542.656773 92.221905 
L 543.712204 93.43001 
L 544.767636 95.242168 
L 545.823067 95.242168 
L 546.878499 93.43001 
L 547.93393 97.054326 
L 548.989361 93.43001 
L 550.044793 92.825958 
L 551.100224 93.43001 
L 552.155656 92.825958 
L 553.211087 94.034063 
L 554.266518 91.0138 
L 555.32195 92.825958 
L 556.377381 93.43001 
L 557.432813 91.617853 
L 558.488244 93.43001 
L 559.543675 91.0138 
L 560.599107 92.221905 
L 562.709969 93.43001 
L 563.765401 92.825958 
L 564.820832 93.43001 
L 565.876264 91.617853 
L 566.931695 94.034063 
L 567.987126 91.617853 
L 569.042558 91.0138 
L 570.097989 92.221905 
L 571.153421 94.034063 
L 572.208852 91.617853 
L 573.264283 93.43001 
L 574.319715 91.617853 
L 575.375146 91.0138 
L 577.486009 94.638115 
L 579.596872 92.221905 
L 580.652303 92.221905 
L 581.707734 92.825958 
L 582.763166 92.221905 
L 583.818597 91.416502 
L 584.874029 91.0138 
L 585.92946 93.43001 
L 588.040323 92.221905 
L 589.095754 92.221905 
L 590.151185 91.617853 
L 591.206617 94.034063 
L 592.262048 93.43001 
L 594.372911 89.805695 
L 595.428342 91.617853 
L 596.483774 92.825958 
L 597.539205 92.825958 
L 598.594637 94.034063 
L 599.650068 92.221905 
L 600.705499 91.617853 
L 601.760931 93.43001 
L 602.816362 92.221905 
L 603.871793 94.10118 
L 604.927225 91.617853 
L 608.093519 93.43001 
L 609.14895 92.825958 
L 610.204382 92.825958 
L 611.259813 115.175903 
L 611.259813 115.175903 
" clip-path="url(#pdf64446e8f)" style="fill: none; stroke: #ff7f0e; stroke-width: 2; stroke-linecap: round"/>
   </g>
   <g id="patch_9">
    <path d="M 460.333125 242.389375 
L 460.333125 21.789375 
" style="fill: none; stroke: #cccccc; stroke-width: 0.8; stroke-linejoin: miter; stroke-linecap: square"/>
   </g>
   <g id="patch_10">
    <path d="M 848.731875 242.389375 
L 848.731875 21.789375 
" style="fill: none; stroke: #cccccc; stroke-width: 0.8; stroke-linejoin: miter; stroke-linecap: square"/>
   </g>
   <g id="patch_11">
    <path d="M 460.333125 242.389375 
L 848.731875 242.389375 
" style="fill: none; stroke: #cccccc; stroke-width: 0.8; stroke-linejoin: miter; stroke-linecap: square"/>
   </g>
   <g id="patch_12">
    <path d="M 460.333125 21.789375 
L 848.731875 21.789375 
" style="fill: none; stroke: #cccccc; stroke-width: 0.8; stroke-linejoin: miter; stroke-linecap: square"/>
   </g>
   <g id="text_31">
    <!-- PE017 — PC1 1 core -->
    <g style="fill: #262626" transform="translate(597.171563 15.789375) scale(0.12 -0.12)">
     <use xlink:href="#ArialMT-50"/>
     <use xlink:href="#ArialMT-45" transform="translate(66.699219 0)"/>
     <use xlink:href="#ArialMT-30" transform="translate(133.398438 0)"/>
     <use xlink:href="#ArialMT-31" transform="translate(189.013672 0)"/>
     <use xlink:href="#ArialMT-37" transform="translate(244.628906 0)"/>
     <use xlink:href="#ArialMT-20" transform="translate(300.244141 0)"/>
     <use xlink:href="#ArialMT-2014" transform="translate(328.027344 0)"/>
     <use xlink:href="#ArialMT-20" transform="translate(428.027344 0)"/>
     <use xlink:href="#ArialMT-50" transform="translate(455.810547 0)"/>
     <use xlink:href="#ArialMT-43" transform="translate(522.509766 0)"/>
     <use xlink:href="#ArialMT-31" transform="translate(594.726562 0)"/>
     <use xlink:href="#ArialMT-20" transform="translate(650.341797 0)"/>
     <use xlink:href="#ArialMT-31" transform="translate(678.125 0)"/>
     <use xlink:href="#ArialMT-20" transform="translate(733.740234 0)"/>
     <use xlink:href="#ArialMT-63" transform="translate(761.523438 0)"/>
     <use xlink:href="#ArialMT-6f" transform="translate(811.523438 0)"/>
     <use xlink:href="#ArialMT-72" transform="translate(867.138672 0)"/>
     <use xlink:href="#ArialMT-65" transform="translate(900.439453 0)"/>
    </g>
   </g>
   <g id="legend_2">
    <g id="patch_13">
     <path d="M 778.049062 58.314375 
L 841.731875 58.314375 
Q 843.731875 58.314375 843.731875 56.314375 
L 843.731875 28.789375 
Q 843.731875 26.789375 841.731875 26.789375 
L 778.049062 26.789375 
Q 776.049062 26.789375 776.049062 28.789375 
L 776.049062 56.314375 
Q 776.049062 58.314375 778.049062 58.314375 
z
" style="fill: #ffffff; opacity: 0.8; stroke: #cccccc; stroke-linejoin: miter"/>
    </g>
    <g id="line2d_37">
     <path d="M 780.049062 34.447188 
L 790.049062 34.447188 
L 800.049062 34.447188 
" style="fill: none; stroke: #1f77b4; stroke-width: 2; stroke-linecap: round"/>
    </g>
    <g id="text_32">
     <!-- queryA -->
     <g style="fill: #262626" transform="translate(808.049062 37.947188) scale(0.1 -0.1)">
      <use xlink:href="#ArialMT-71"/>
      <use xlink:href="#ArialMT-75" transform="translate(55.615234 0)"/>
      <use xlink:href="#ArialMT-65" transform="translate(111.230469 0)"/>
      <use xlink:href="#ArialMT-72" transform="translate(166.845703 0)"/>
      <use xlink:href="#ArialMT-79" transform="translate(200.146484 0)"/>
      <use xlink:href="#ArialMT-41" transform="translate(250.146484 0)"/>
     </g>
    </g>
    <g id="line2d_38">
     <path d="M 780.049062 48.709688 
L 790.049062 48.709688 
L 800.049062 48.709688 
" style="fill: none; stroke: #ff7f0e; stroke-width: 2; stroke-linecap: round"/>
    </g>
    <g id="text_33">
     <!-- queryB -->
     <g style="fill: #262626" transform="translate(808.049062 52.209688) scale(0.1 -0.1)">
      <use xlink:href="#ArialMT-71"/>
      <use xlink:href="#ArialMT-75" transform="translate(55.615234 0)"/>
      <use xlink:href="#ArialMT-65" transform="translate(111.230469 0)"/>
      <use xlink:href="#ArialMT-72" transform="translate(166.845703 0)"/>
      <use xlink:href="#ArialMT-79" transform="translate(200.146484 0)"/>
      <use xlink:href="#ArialMT-42" transform="translate(250.146484 0)"/>
     </g>
    </g>
   </g>
  </g>
 </g>
 <defs>
  <clipPath id="p60c78b8743">
   <rect x="46.953125" y="21.789375" width="388.39875" height="220.6"/>
  </clipPath>
  <clipPath id="pdf64446e8f">
   <rect x="460.333125" y="21.789375" width="388.39875" height="220.6"/>
  </clipPath>
 </defs>
</svg>
