<?xml version="1.0" encoding="utf-8" standalone="no"?>
<!DOCTYPE svg PUBLIC "-//W3C//DTD SVG 1.1//EN"
  "http://www.w3.org/Graphics/SVG/1.1/DTD/svg11.dtd">
<svg xmlns:xlink="http://www.w3.org/1999/xlink" width="856.082656pt" height="315.119063pt" viewBox="0 0 856.082656 315.119063" xmlns="http://www.w3.org/2000/svg" version="1.1">
 <metadata>
  <rdf:RDF xmlns:dc="http://purl.org/dc/elements/1.1/" xmlns:cc="http://creativecommons.org/ns#" xmlns:rdf="http://www.w3.org/1999/02/22-rdf-syntax-ns#">
   <cc:Work>
    <dc:type rdf:resource="http://purl.org/dc/dcmitype/StillImage"/>
    <dc:date>2026-05-26T16:50:38.456905</dc:date>
    <dc:format>image/svg+xml</dc:format>
    <dc:creator>
     <cc:Agent>
      <dc:title>Matplotlib v3.10.1, https://matplotlib.org/</dc:title>
     </cc:Agent>
    </dc:creator>
   </cc:Work>
  </rdf:RDF>
 </metadata>
 <defs>
  <style type="text/css">*{stroke-linejoin: round; stroke-linecap: butt}</style>
 </defs>
 <g id="figure_1">
  <g id="patch_1">
   <path d="M 0 315.119063 
L 856.082656 315.119063 
L 856.082656 0 
L 0 0 
z
" style="fill: #ffffff"/>
  </g>
  <g id="axes_1">
   <g id="patch_2">
    <path d="M 44.267188 278.389375 
L 431.372187 278.389375 
L 431.372187 21.789375 
L 44.267188 21.789375 
z
" style="fill: #ffffff"/>
   </g>
   <g id="matplotlib.axis_1">
    <g id="xtick_1">
     <g id="line2d_1">
      <path d="M 44.267188 278.389375 
L 44.267188 21.789375 
" clip-path="url(#pf6c955ac14)" style="fill: none; stroke: #cccccc; stroke-opacity: 0.2; stroke-width: 0.8; stroke-linecap: round"/>
     </g>
     <g id="text_1">
      <!-- 0 -->
      <g style="fill: #262626" transform="translate(41.486719 292.547188) scale(0.1 -0.1)">
       <defs>
        <path id="ArialMT-30" d="M 266 2259 
Q 266 3072 433 3567 
Q 600 4063 929 4331 
Q 1259 4600 1759 4600 
Q 2128 4600 2406 4451 
Q 2684 4303 2865 4023 
Q 3047 3744 3150 3342 
Q 3253 2941 3253 2259 
Q 3253 1453 3087 958 
Q 2922 463 2592 192 
Q 2263 -78 1759 -78 
Q 1097 -78 719 397 
Q 266 969 266 2259 
z
M 844 2259 
Q 844 1131 1108 757 
Q 1372 384 1759 384 
Q 2147 384 2411 759 
Q 2675 1134 2675 2259 
Q 2675 3391 2411 3762 
Q 2147 4134 1753 4134 
Q 1366 4134 1134 3806 
Q 844 3388 844 2259 
z
" transform="scale(0.015625)"/>
       </defs>
       <use xlink:href="#ArialMT-30"/>
      </g>
     </g>
    </g>
    <g id="xtick_2">
     <g id="line2d_2">
      <path d="M 99.567902 278.389375 
L 99.567902 21.789375 
" clip-path="url(#pf6c955ac14)" style="fill: none; stroke: #cccccc; stroke-opacity: 0.2; stroke-width: 0.8; stroke-linecap: round"/>
     </g>
     <g id="text_2">
      <!-- 1 -->
      <g style="fill: #262626" transform="translate(96.787433 292.547188) scale(0.1 -0.1)">
       <defs>
        <path id="ArialMT-31" d="M 2384 0 
L 1822 0 
L 1822 3584 
Q 1619 3391 1289 3197 
Q 959 3003 697 2906 
L 697 3450 
Q 1169 3672 1522 3987 
Q 1875 4303 2022 4600 
L 2384 4600 
L 2384 0 
z
" transform="scale(0.015625)"/>
       </defs>
       <use xlink:href="#ArialMT-31"/>
      </g>
     </g>
    </g>
    <g id="xtick_3">
     <g id="line2d_3">
      <path d="M 154.868616 278.389375 
L 154.868616 21.789375 
" clip-path="url(#pf6c955ac14)" style="fill: none; stroke: #cccccc; stroke-opacity: 0.2; stroke-width: 0.8; stroke-linecap: round"/>
     </g>
     <g id="text_3">
      <!-- 2 -->
      <g style="fill: #262626" transform="translate(152.088147 292.547188) scale(0.1 -0.1)">
       <defs>
        <path id="ArialMT-32" d="M 3222 541 
L 3222 0 
L 194 0 
Q 188 203 259 391 
Q 375 700 629 1000 
Q 884 1300 1366 1694 
Q 2113 2306 2375 2664 
Q 2638 3022 2638 3341 
Q 2638 3675 2398 3904 
Q 2159 4134 1775 4134 
Q 1369 4134 1125 3890 
Q 881 3647 878 3216 
L 300 3275 
Q 359 3922 746 4261 
Q 1134 4600 1788 4600 
Q 2447 4600 2831 4234 
Q 3216 3869 3216 3328 
Q 3216 3053 3103 2787 
Q 2991 2522 2730 2228 
Q 2469 1934 1863 1422 
Q 1356 997 1212 845 
Q 1069 694 975 541 
L 3222 541 
z
" transform="scale(0.015625)"/>
       </defs>
       <use xlink:href="#ArialMT-32"/>
      </g>
     </g>
    </g>
    <g id="xtick_4">
     <g id="line2d_4">
      <path d="M 210.16933 278.389375 
L 210.16933 21.789375 
" clip-path="url(#pf6c955ac14)" style="fill: none; stroke: #cccccc; stroke-opacity: 0.2; stroke-width: 0.8; stroke-linecap: round"/>
     </g>
     <g id="text_4">
      <!-- 3 -->
      <g style="fill: #262626" transform="translate(207.388862 292.547188) scale(0.1 -0.1)">
       <defs>
        <path id="ArialMT-33" d="M 269 1209 
L 831 1284 
Q 928 806 1161 595 
Q 1394 384 1728 384 
Q 2125 384 2398 659 
Q 2672 934 2672 1341 
Q 2672 1728 2419 1979 
Q 2166 2231 1775 2231 
Q 1616 2231 1378 2169 
L 1441 2663 
Q 1497 2656 1531 2656 
Q 1891 2656 2178 2843 
Q 2466 3031 2466 3422 
Q 2466 3731 2256 3934 
Q 2047 4138 1716 4138 
Q 1388 4138 1169 3931 
Q 950 3725 888 3313 
L 325 3413 
Q 428 3978 793 4289 
Q 1159 4600 1703 4600 
Q 2078 4600 2393 4439 
Q 2709 4278 2876 4000 
Q 3044 3722 3044 3409 
Q 3044 3113 2884 2869 
Q 2725 2625 2413 2481 
Q 2819 2388 3044 2092 
Q 3269 1797 3269 1353 
Q 3269 753 2831 336 
Q 2394 -81 1725 -81 
Q 1122 -81 723 278 
Q 325 638 269 1209 
z
" transform="scale(0.015625)"/>
       </defs>
       <use xlink:href="#ArialMT-33"/>
      </g>
     </g>
    </g>
    <g id="xtick_5">
     <g id="line2d_5">
      <path d="M 265.470045 278.389375 
L 265.470045 21.789375 
" clip-path="url(#pf6c955ac14)" style="fill: none; stroke: #cccccc; stroke-opacity: 0.2; stroke-width: 0.8; stroke-linecap: round"/>
     </g>
     <g id="text_5">
      <!-- 4 -->
      <g style="fill: #262626" transform="translate(262.689576 292.547188) scale(0.1 -0.1)">
       <defs>
        <path id="ArialMT-34" d="M 2069 0 
L 2069 1097 
L 81 1097 
L 81 1613 
L 2172 4581 
L 2631 4581 
L 2631 1613 
L 3250 1613 
L 3250 1097 
L 2631 1097 
L 2631 0 
L 2069 0 
z
M 2069 1613 
L 2069 3678 
L 634 1613 
L 2069 1613 
z
" transform="scale(0.015625)"/>
       </defs>
       <use xlink:href="#ArialMT-34"/>
      </g>
     </g>
    </g>
    <g id="xtick_6">
     <g id="line2d_6">
      <path d="M 320.770759 278.389375 
L 320.770759 21.789375 
" clip-path="url(#pf6c955ac14)" style="fill: none; stroke: #cccccc; stroke-opacity: 0.2; stroke-width: 0.8; stroke-linecap: round"/>
     </g>
     <g id="text_6">
      <!-- 5 -->
      <g style="fill: #262626" transform="translate(317.99029 292.547188) scale(0.1 -0.1)">
       <defs>
        <path id="ArialMT-35" d="M 266 1200 
L 856 1250 
Q 922 819 1161 601 
Q 1400 384 1738 384 
Q 2144 384 2425 690 
Q 2706 997 2706 1503 
Q 2706 1984 2436 2262 
Q 2166 2541 1728 2541 
Q 1456 2541 1237 2417 
Q 1019 2294 894 2097 
L 366 2166 
L 809 4519 
L 3088 4519 
L 3088 3981 
L 1259 3981 
L 1013 2750 
Q 1425 3038 1878 3038 
Q 2478 3038 2890 2622 
Q 3303 2206 3303 1553 
Q 3303 931 2941 478 
Q 2500 -78 1738 -78 
Q 1113 -78 717 272 
Q 322 622 266 1200 
z
" transform="scale(0.015625)"/>
       </defs>
       <use xlink:href="#ArialMT-35"/>
      </g>
     </g>
    </g>
    <g id="xtick_7">
     <g id="line2d_7">
      <path d="M 376.071473 278.389375 
L 376.071473 21.789375 
" clip-path="url(#pf6c955ac14)" style="fill: none; stroke: #cccccc; stroke-opacity: 0.2; stroke-width: 0.8; stroke-linecap: round"/>
     </g>
     <g id="text_7">
      <!-- 6 -->
      <g style="fill: #262626" transform="translate(373.291004 292.547188) scale(0.1 -0.1)">
       <defs>
        <path id="ArialMT-36" d="M 3184 3459 
L 2625 3416 
Q 2550 3747 2413 3897 
Q 2184 4138 1850 4138 
Q 1581 4138 1378 3988 
Q 1113 3794 959 3422 
Q 806 3050 800 2363 
Q 1003 2672 1297 2822 
Q 1591 2972 1913 2972 
Q 2475 2972 2870 2558 
Q 3266 2144 3266 1488 
Q 3266 1056 3080 686 
Q 2894 316 2569 119 
Q 2244 -78 1831 -78 
Q 1128 -78 684 439 
Q 241 956 241 2144 
Q 241 3472 731 4075 
Q 1159 4600 1884 4600 
Q 2425 4600 2770 4297 
Q 3116 3994 3184 3459 
z
M 888 1484 
Q 888 1194 1011 928 
Q 1134 663 1356 523 
Q 1578 384 1822 384 
Q 2178 384 2434 671 
Q 2691 959 2691 1453 
Q 2691 1928 2437 2201 
Q 2184 2475 1800 2475 
Q 1419 2475 1153 2201 
Q 888 1928 888 1484 
z
" transform="scale(0.015625)"/>
       </defs>
       <use xlink:href="#ArialMT-36"/>
      </g>
     </g>
    </g>
    <g id="xtick_8">
     <g id="line2d_8">
      <path d="M 431.372187 278.389375 
L 431.372187 21.789375 
" clip-path="url(#pf6c955ac14)" style="fill: none; stroke: #cccccc; stroke-opacity: 0.2; stroke-width: 0.8; stroke-linecap: round"/>
     </g>
     <g id="text_8">
      <!-- 7 -->
      <g style="fill: #262626" transform="translate(428.591719 292.547188) scale(0.1 -0.1)">
       <defs>
        <path id="ArialMT-37" d="M 303 3981 
L 303 4522 
L 3269 4522 
L 3269 4084 
Q 2831 3619 2401 2847 
Q 1972 2075 1738 1259 
Q 1569 684 1522 0 
L 944 0 
Q 953 541 1156 1306 
Q 1359 2072 1739 2783 
Q 2119 3494 2547 3981 
L 303 3981 
z
" transform="scale(0.015625)"/>
       </defs>
       <use xlink:href="#ArialMT-37"/>
      </g>
     </g>
    </g>
    <g id="text_9">
     <!-- Elapsed Time (sec) -->
     <g style="fill: #262626" transform="translate(195.028281 305.814375) scale(0.1 -0.1)">
      <defs>
       <path id="ArialMT-45" d="M 506 0 
L 506 4581 
L 3819 4581 
L 3819 4041 
L 1113 4041 
L 1113 2638 
L 3647 2638 
L 3647 2100 
L 1113 2100 
L 1113 541 
L 3925 541 
L 3925 0 
L 506 0 
z
" transform="scale(0.015625)"/>
       <path id="ArialMT-6c" d="M 409 0 
L 409 4581 
L 972 4581 
L 972 0 
L 409 0 
z
" transform="scale(0.015625)"/>
       <path id="ArialMT-61" d="M 2588 409 
Q 2275 144 1986 34 
Q 1697 -75 1366 -75 
Q 819 -75 525 192 
Q 231 459 231 875 
Q 231 1119 342 1320 
Q 453 1522 633 1644 
Q 813 1766 1038 1828 
Q 1203 1872 1538 1913 
Q 2219 1994 2541 2106 
Q 2544 2222 2544 2253 
Q 2544 2597 2384 2738 
Q 2169 2928 1744 2928 
Q 1347 2928 1158 2789 
Q 969 2650 878 2297 
L 328 2372 
Q 403 2725 575 2942 
Q 747 3159 1072 3276 
Q 1397 3394 1825 3394 
Q 2250 3394 2515 3294 
Q 2781 3194 2906 3042 
Q 3031 2891 3081 2659 
Q 3109 2516 3109 2141 
L 3109 1391 
Q 3109 606 3145 398 
Q 3181 191 3288 0 
L 2700 0 
Q 2613 175 2588 409 
z
M 2541 1666 
Q 2234 1541 1622 1453 
Q 1275 1403 1131 1340 
Q 988 1278 909 1158 
Q 831 1038 831 891 
Q 831 666 1001 516 
Q 1172 366 1500 366 
Q 1825 366 2078 508 
Q 2331 650 2450 897 
Q 2541 1088 2541 1459 
L 2541 1666 
z
" transform="scale(0.015625)"/>
       <path id="ArialMT-70" d="M 422 -1272 
L 422 3319 
L 934 3319 
L 934 2888 
Q 1116 3141 1344 3267 
Q 1572 3394 1897 3394 
Q 2322 3394 2647 3175 
Q 2972 2956 3137 2557 
Q 3303 2159 3303 1684 
Q 3303 1175 3120 767 
Q 2938 359 2589 142 
Q 2241 -75 1856 -75 
Q 1575 -75 1351 44 
Q 1128 163 984 344 
L 984 -1272 
L 422 -1272 
z
M 931 1641 
Q 931 1000 1190 694 
Q 1450 388 1819 388 
Q 2194 388 2461 705 
Q 2728 1022 2728 1688 
Q 2728 2322 2467 2637 
Q 2206 2953 1844 2953 
Q 1484 2953 1207 2617 
Q 931 2281 931 1641 
z
" transform="scale(0.015625)"/>
       <path id="ArialMT-73" d="M 197 991 
L 753 1078 
Q 800 744 1014 566 
Q 1228 388 1613 388 
Q 2000 388 2187 545 
Q 2375 703 2375 916 
Q 2375 1106 2209 1216 
Q 2094 1291 1634 1406 
Q 1016 1563 777 1677 
Q 538 1791 414 1992 
Q 291 2194 291 2438 
Q 291 2659 392 2848 
Q 494 3038 669 3163 
Q 800 3259 1026 3326 
Q 1253 3394 1513 3394 
Q 1903 3394 2198 3281 
Q 2494 3169 2634 2976 
Q 2775 2784 2828 2463 
L 2278 2388 
Q 2241 2644 2061 2787 
Q 1881 2931 1553 2931 
Q 1166 2931 1000 2803 
Q 834 2675 834 2503 
Q 834 2394 903 2306 
Q 972 2216 1119 2156 
Q 1203 2125 1616 2013 
Q 2213 1853 2448 1751 
Q 2684 1650 2818 1456 
Q 2953 1263 2953 975 
Q 2953 694 2789 445 
Q 2625 197 2315 61 
Q 2006 -75 1616 -75 
Q 969 -75 630 194 
Q 291 463 197 991 
z
" transform="scale(0.015625)"/>
       <path id="ArialMT-65" d="M 2694 1069 
L 3275 997 
Q 3138 488 2766 206 
Q 2394 -75 1816 -75 
Q 1088 -75 661 373 
Q 234 822 234 1631 
Q 234 2469 665 2931 
Q 1097 3394 1784 3394 
Q 2450 3394 2872 2941 
Q 3294 2488 3294 1666 
Q 3294 1616 3291 1516 
L 816 1516 
Q 847 969 1125 678 
Q 1403 388 1819 388 
Q 2128 388 2347 550 
Q 2566 713 2694 1069 
z
M 847 1978 
L 2700 1978 
Q 2663 2397 2488 2606 
Q 2219 2931 1791 2931 
Q 1403 2931 1139 2672 
Q 875 2413 847 1978 
z
" transform="scale(0.015625)"/>
       <path id="ArialMT-64" d="M 2575 0 
L 2575 419 
Q 2259 -75 1647 -75 
Q 1250 -75 917 144 
Q 584 363 401 755 
Q 219 1147 219 1656 
Q 219 2153 384 2558 
Q 550 2963 881 3178 
Q 1213 3394 1622 3394 
Q 1922 3394 2156 3267 
Q 2391 3141 2538 2938 
L 2538 4581 
L 3097 4581 
L 3097 0 
L 2575 0 
z
M 797 1656 
Q 797 1019 1065 703 
Q 1334 388 1700 388 
Q 2069 388 2326 689 
Q 2584 991 2584 1609 
Q 2584 2291 2321 2609 
Q 2059 2928 1675 2928 
Q 1300 2928 1048 2622 
Q 797 2316 797 1656 
z
" transform="scale(0.015625)"/>
       <path id="ArialMT-20" transform="scale(0.015625)"/>
       <path id="ArialMT-54" d="M 1659 0 
L 1659 4041 
L 150 4041 
L 150 4581 
L 3781 4581 
L 3781 4041 
L 2266 4041 
L 2266 0 
L 1659 0 
z
" transform="scale(0.015625)"/>
       <path id="ArialMT-69" d="M 425 3934 
L 425 4581 
L 988 4581 
L 988 3934 
L 425 3934 
z
M 425 0 
L 425 3319 
L 988 3319 
L 988 0 
L 425 0 
z
" transform="scale(0.015625)"/>
       <path id="ArialMT-6d" d="M 422 0 
L 422 3319 
L 925 3319 
L 925 2853 
Q 1081 3097 1340 3245 
Q 1600 3394 1931 3394 
Q 2300 3394 2536 3241 
Q 2772 3088 2869 2813 
Q 3263 3394 3894 3394 
Q 4388 3394 4653 3120 
Q 4919 2847 4919 2278 
L 4919 0 
L 4359 0 
L 4359 2091 
Q 4359 2428 4304 2576 
Q 4250 2725 4106 2815 
Q 3963 2906 3769 2906 
Q 3419 2906 3187 2673 
Q 2956 2441 2956 1928 
L 2956 0 
L 2394 0 
L 2394 2156 
Q 2394 2531 2256 2718 
Q 2119 2906 1806 2906 
Q 1569 2906 1367 2781 
Q 1166 2656 1075 2415 
Q 984 2175 984 1722 
L 984 0 
L 422 0 
z
" transform="scale(0.015625)"/>
       <path id="ArialMT-28" d="M 1497 -1347 
Q 1031 -759 709 28 
Q 388 816 388 1659 
Q 388 2403 628 3084 
Q 909 3875 1497 4659 
L 1900 4659 
Q 1522 4009 1400 3731 
Q 1209 3300 1100 2831 
Q 966 2247 966 1656 
Q 966 153 1900 -1347 
L 1497 -1347 
z
" transform="scale(0.015625)"/>
       <path id="ArialMT-63" d="M 2588 1216 
L 3141 1144 
Q 3050 572 2676 248 
Q 2303 -75 1759 -75 
Q 1078 -75 664 370 
Q 250 816 250 1647 
Q 250 2184 428 2587 
Q 606 2991 970 3192 
Q 1334 3394 1763 3394 
Q 2303 3394 2647 3120 
Q 2991 2847 3088 2344 
L 2541 2259 
Q 2463 2594 2264 2762 
Q 2066 2931 1784 2931 
Q 1359 2931 1093 2626 
Q 828 2322 828 1663 
Q 828 994 1084 691 
Q 1341 388 1753 388 
Q 2084 388 2306 591 
Q 2528 794 2588 1216 
z
" transform="scale(0.015625)"/>
       <path id="ArialMT-29" d="M 791 -1347 
L 388 -1347 
Q 1322 153 1322 1656 
Q 1322 2244 1188 2822 
Q 1081 3291 891 3722 
Q 769 4003 388 4659 
L 791 4659 
Q 1378 3875 1659 3084 
Q 1900 2403 1900 1659 
Q 1900 816 1576 28 
Q 1253 -759 791 -1347 
z
" transform="scale(0.015625)"/>
      </defs>
      <use xlink:href="#ArialMT-45"/>
      <use xlink:href="#ArialMT-6c" transform="translate(66.699219 0)"/>
      <use xlink:href="#ArialMT-61" transform="translate(88.916016 0)"/>
      <use xlink:href="#ArialMT-70" transform="translate(144.53125 0)"/>
      <use xlink:href="#ArialMT-73" transform="translate(200.146484 0)"/>
      <use xlink:href="#ArialMT-65" transform="translate(250.146484 0)"/>
      <use xlink:href="#ArialMT-64" transform="translate(305.761719 0)"/>
      <use xlink:href="#ArialMT-20" transform="translate(361.376953 0)"/>
      <use xlink:href="#ArialMT-54" transform="translate(387.410156 0)"/>
      <use xlink:href="#ArialMT-69" transform="translate(444.744141 0)"/>
      <use xlink:href="#ArialMT-6d" transform="translate(466.960938 0)"/>
      <use xlink:href="#ArialMT-65" transform="translate(550.261719 0)"/>
      <use xlink:href="#ArialMT-20" transform="translate(605.876953 0)"/>
      <use xlink:href="#ArialMT-28" transform="translate(633.660156 0)"/>
      <use xlink:href="#ArialMT-73" transform="translate(666.960938 0)"/>
      <use xlink:href="#ArialMT-65" transform="translate(716.960938 0)"/>
      <use xlink:href="#ArialMT-63" transform="translate(772.576172 0)"/>
      <use xlink:href="#ArialMT-29" transform="translate(822.576172 0)"/>
     </g>
    </g>
   </g>
   <g id="matplotlib.axis_2">
    <g id="ytick_1">
     <g id="line2d_9">
      <path d="M 44.267188 270.434518 
L 431.372187 270.434518 
" clip-path="url(#pf6c955ac14)" style="fill: none; stroke: #cccccc; stroke-opacity: 0.2; stroke-width: 0.8; stroke-linecap: round"/>
     </g>
     <g id="text_10">
      <!-- 0 -->
      <g style="fill: #262626" transform="translate(31.70625 274.013424) scale(0.1 -0.1)">
       <use xlink:href="#ArialMT-30"/>
      </g>
     </g>
    </g>
    <g id="ytick_2">
     <g id="line2d_10">
      <path d="M 44.267188 222.886062 
L 431.372187 222.886062 
" clip-path="url(#pf6c955ac14)" style="fill: none; stroke: #cccccc; stroke-opacity: 0.2; stroke-width: 0.8; stroke-linecap: round"/>
     </g>
     <g id="text_11">
      <!-- 20 -->
      <g style="fill: #262626" transform="translate(26.145313 226.464968) scale(0.1 -0.1)">
       <use xlink:href="#ArialMT-32"/>
       <use xlink:href="#ArialMT-30" transform="translate(55.615234 0)"/>
      </g>
     </g>
    </g>
    <g id="ytick_3">
     <g id="line2d_11">
      <path d="M 44.267188 175.337605 
L 431.372187 175.337605 
" clip-path="url(#pf6c955ac14)" style="fill: none; stroke: #cccccc; stroke-opacity: 0.2; stroke-width: 0.8; stroke-linecap: round"/>
     </g>
     <g id="text_12">
      <!-- 40 -->
      <g style="fill: #262626" transform="translate(26.145313 178.916512) scale(0.1 -0.1)">
       <use xlink:href="#ArialMT-34"/>
       <use xlink:href="#ArialMT-30" transform="translate(55.615234 0)"/>
      </g>
     </g>
    </g>
    <g id="ytick_4">
     <g id="line2d_12">
      <path d="M 44.267188 127.789149 
L 431.372187 127.789149 
" clip-path="url(#pf6c955ac14)" style="fill: none; stroke: #cccccc; stroke-opacity: 0.2; stroke-width: 0.8; stroke-linecap: round"/>
     </g>
     <g id="text_13">
      <!-- 60 -->
      <g style="fill: #262626" transform="translate(26.145313 131.368055) scale(0.1 -0.1)">
       <use xlink:href="#ArialMT-36"/>
       <use xlink:href="#ArialMT-30" transform="translate(55.615234 0)"/>
      </g>
     </g>
    </g>
    <g id="ytick_5">
     <g id="line2d_13">
      <path d="M 44.267188 80.240692 
L 431.372187 80.240692 
" clip-path="url(#pf6c955ac14)" style="fill: none; stroke: #cccccc; stroke-opacity: 0.2; stroke-width: 0.8; stroke-linecap: round"/>
     </g>
     <g id="text_14">
      <!-- 80 -->
      <g style="fill: #262626" transform="translate(26.145313 83.819599) scale(0.1 -0.1)">
       <defs>
        <path id="ArialMT-38" d="M 1131 2484 
Q 781 2613 612 2850 
Q 444 3088 444 3419 
Q 444 3919 803 4259 
Q 1163 4600 1759 4600 
Q 2359 4600 2725 4251 
Q 3091 3903 3091 3403 
Q 3091 3084 2923 2848 
Q 2756 2613 2416 2484 
Q 2838 2347 3058 2040 
Q 3278 1734 3278 1309 
Q 3278 722 2862 322 
Q 2447 -78 1769 -78 
Q 1091 -78 675 323 
Q 259 725 259 1325 
Q 259 1772 486 2073 
Q 713 2375 1131 2484 
z
M 1019 3438 
Q 1019 3113 1228 2906 
Q 1438 2700 1772 2700 
Q 2097 2700 2305 2904 
Q 2513 3109 2513 3406 
Q 2513 3716 2298 3927 
Q 2084 4138 1766 4138 
Q 1444 4138 1231 3931 
Q 1019 3725 1019 3438 
z
M 838 1322 
Q 838 1081 952 856 
Q 1066 631 1291 507 
Q 1516 384 1775 384 
Q 2178 384 2440 643 
Q 2703 903 2703 1303 
Q 2703 1709 2433 1975 
Q 2163 2241 1756 2241 
Q 1359 2241 1098 1978 
Q 838 1716 838 1322 
z
" transform="scale(0.015625)"/>
       </defs>
       <use xlink:href="#ArialMT-38"/>
       <use xlink:href="#ArialMT-30" transform="translate(55.615234 0)"/>
      </g>
     </g>
    </g>
    <g id="ytick_6">
     <g id="line2d_14">
      <path d="M 44.267188 32.692236 
L 431.372187 32.692236 
" clip-path="url(#pf6c955ac14)" style="fill: none; stroke: #cccccc; stroke-opacity: 0.2; stroke-width: 0.8; stroke-linecap: round"/>
     </g>
     <g id="text_15">
      <!-- 100 -->
      <g style="fill: #262626" transform="translate(20.584375 36.271142) scale(0.1 -0.1)">
       <use xlink:href="#ArialMT-31"/>
       <use xlink:href="#ArialMT-30" transform="translate(55.615234 0)"/>
       <use xlink:href="#ArialMT-30" transform="translate(111.230469 0)"/>
      </g>
     </g>
    </g>
    <g id="text_16">
     <!-- Busy% -->
     <g style="fill: #262626" transform="translate(14.479688 165.651094) rotate(-90) scale(0.1 -0.1)">
      <defs>
       <path id="ArialMT-42" d="M 469 0 
L 469 4581 
L 2188 4581 
Q 2713 4581 3030 4442 
Q 3347 4303 3526 4014 
Q 3706 3725 3706 3409 
Q 3706 3116 3547 2856 
Q 3388 2597 3066 2438 
Q 3481 2316 3704 2022 
Q 3928 1728 3928 1328 
Q 3928 1006 3792 729 
Q 3656 453 3456 303 
Q 3256 153 2954 76 
Q 2653 0 2216 0 
L 469 0 
z
M 1075 2656 
L 2066 2656 
Q 2469 2656 2644 2709 
Q 2875 2778 2992 2937 
Q 3109 3097 3109 3338 
Q 3109 3566 3000 3739 
Q 2891 3913 2687 3977 
Q 2484 4041 1991 4041 
L 1075 4041 
L 1075 2656 
z
M 1075 541 
L 2216 541 
Q 2509 541 2628 563 
Q 2838 600 2978 687 
Q 3119 775 3209 942 
Q 3300 1109 3300 1328 
Q 3300 1584 3169 1773 
Q 3038 1963 2805 2039 
Q 2572 2116 2134 2116 
L 1075 2116 
L 1075 541 
z
" transform="scale(0.015625)"/>
       <path id="ArialMT-75" d="M 2597 0 
L 2597 488 
Q 2209 -75 1544 -75 
Q 1250 -75 995 37 
Q 741 150 617 320 
Q 494 491 444 738 
Q 409 903 409 1263 
L 409 3319 
L 972 3319 
L 972 1478 
Q 972 1038 1006 884 
Q 1059 663 1231 536 
Q 1403 409 1656 409 
Q 1909 409 2131 539 
Q 2353 669 2445 892 
Q 2538 1116 2538 1541 
L 2538 3319 
L 3100 3319 
L 3100 0 
L 2597 0 
z
" transform="scale(0.015625)"/>
       <path id="ArialMT-79" d="M 397 -1278 
L 334 -750 
Q 519 -800 656 -800 
Q 844 -800 956 -737 
Q 1069 -675 1141 -563 
Q 1194 -478 1313 -144 
Q 1328 -97 1363 -6 
L 103 3319 
L 709 3319 
L 1400 1397 
Q 1534 1031 1641 628 
Q 1738 1016 1872 1384 
L 2581 3319 
L 3144 3319 
L 1881 -56 
Q 1678 -603 1566 -809 
Q 1416 -1088 1222 -1217 
Q 1028 -1347 759 -1347 
Q 597 -1347 397 -1278 
z
" transform="scale(0.015625)"/>
       <path id="ArialMT-25" d="M 372 3481 
Q 372 3972 619 4315 
Q 866 4659 1334 4659 
Q 1766 4659 2048 4351 
Q 2331 4044 2331 3447 
Q 2331 2866 2045 2552 
Q 1759 2238 1341 2238 
Q 925 2238 648 2547 
Q 372 2856 372 3481 
z
M 1350 4272 
Q 1141 4272 1002 4090 
Q 863 3909 863 3425 
Q 863 2984 1003 2804 
Q 1144 2625 1350 2625 
Q 1563 2625 1702 2806 
Q 1841 2988 1841 3469 
Q 1841 3913 1700 4092 
Q 1559 4272 1350 4272 
z
M 1353 -169 
L 3859 4659 
L 4316 4659 
L 1819 -169 
L 1353 -169 
z
M 3334 1075 
Q 3334 1569 3581 1911 
Q 3828 2253 4300 2253 
Q 4731 2253 5014 1945 
Q 5297 1638 5297 1041 
Q 5297 459 5011 145 
Q 4725 -169 4303 -169 
Q 3888 -169 3611 142 
Q 3334 453 3334 1075 
z
M 4316 1866 
Q 4103 1866 3964 1684 
Q 3825 1503 3825 1019 
Q 3825 581 3965 400 
Q 4106 219 4313 219 
Q 4528 219 4667 400 
Q 4806 581 4806 1063 
Q 4806 1506 4665 1686 
Q 4525 1866 4316 1866 
z
" transform="scale(0.015625)"/>
      </defs>
      <use xlink:href="#ArialMT-42"/>
      <use xlink:href="#ArialMT-75" transform="translate(66.699219 0)"/>
      <use xlink:href="#ArialMT-73" transform="translate(122.314453 0)"/>
      <use xlink:href="#ArialMT-79" transform="translate(172.314453 0)"/>
      <use xlink:href="#ArialMT-25" transform="translate(222.314453 0)"/>
     </g>
    </g>
   </g>
   <g id="line2d_15">
    <path d="M 44.267188 241.144669 
L 99.567902 244.282867 
L 154.868616 237.26947 
L 210.16933 234.202594 
L 265.470045 221.792447 
L 320.770759 263.159604 
L 376.071473 229.661717 
L 431.372187 218.654249 
" clip-path="url(#pf6c955ac14)" style="fill: none; stroke: #1f77b4; stroke-opacity: 0.9; stroke-width: 1.2; stroke-linecap: round"/>
   </g>
   <g id="line2d_16">
    <path d="M 44.267188 229.233781 
L 99.567902 225.382356 
L 154.868616 215.39718 
L 210.16933 238.95744 
L 265.470045 244.092673 
L 320.770759 199.135608 
L 376.071473 253.74501 
L 431.372187 214.042049 
" clip-path="url(#pf6c955ac14)" style="fill: none; stroke: #ff7f0e; stroke-opacity: 0.9; stroke-width: 1.2; stroke-linecap: round"/>
   </g>
   <g id="line2d_17">
    <path d="M 44.267188 238.030245 
L 99.567902 236.223404 
L 154.868616 246.446322 
L 210.16933 214.77905 
L 265.470045 241.453734 
L 320.770759 231.016848 
L 376.071473 227.664682 
L 431.372187 263.30225 
" clip-path="url(#pf6c955ac14)" style="fill: none; stroke: #2ca02c; stroke-opacity: 0.9; stroke-width: 1.2; stroke-linecap: round"/>
   </g>
   <g id="line2d_18">
    <path d="M 44.267188 241.643928 
L 99.567902 229.305103 
L 154.868616 237.911374 
L 210.16933 246.018386 
L 265.470045 253.649913 
L 320.770759 257.073402 
L 376.071473 260.544439 
L 431.372187 254.291817 
" clip-path="url(#pf6c955ac14)" style="fill: none; stroke: #d62728; stroke-opacity: 0.9; stroke-width: 1.2; stroke-linecap: round"/>
   </g>
   <g id="line2d_19">
    <path d="M 44.267188 233.513142 
L 99.567902 228.449231 
L 154.868616 235.367532 
L 210.16933 221.388285 
L 265.470045 218.32141 
L 320.770759 241.144669 
L 376.071473 225.358582 
L 431.372187 257.025854 
" clip-path="url(#pf6c955ac14)" style="fill: none; stroke: #9467bd; stroke-opacity: 0.9; stroke-width: 1.2; stroke-linecap: round"/>
   </g>
   <g id="line2d_20">
    <path d="M 44.267188 204.413486 
L 99.567902 216.63344 
L 154.868616 247.967873 
L 210.16933 232.348205 
L 265.470045 206.220328 
L 320.770759 218.273862 
L 376.071473 207.337717 
L 431.372187 265.323059 
" clip-path="url(#pf6c955ac14)" style="fill: none; stroke: #8c564b; stroke-opacity: 0.9; stroke-width: 1.2; stroke-linecap: round"/>
   </g>
   <g id="line2d_21">
    <path d="M 44.267188 231.325913 
L 99.567902 246.446322 
L 154.868616 203.98555 
L 210.16933 237.863826 
L 265.470045 233.632013 
L 320.770759 246.04216 
L 376.071473 211.331787 
L 431.372187 143.646559 
" clip-path="url(#pf6c955ac14)" style="fill: none; stroke: #e377c2; stroke-opacity: 0.9; stroke-width: 1.2; stroke-linecap: round"/>
   </g>
   <g id="line2d_22">
    <path d="M 44.267188 263.444895 
L 99.567902 255.813368 
L 154.868616 257.572661 
L 210.16933 255.956013 
L 265.470045 262.755443 
L 320.770759 224.859323 
L 376.071473 264.609832 
L 431.372187 263.539992 
" clip-path="url(#pf6c955ac14)" style="fill: none; stroke: #7f7f7f; stroke-opacity: 0.9; stroke-width: 1.2; stroke-linecap: round"/>
   </g>
   <g id="line2d_23">
    <path d="M 44.267188 248.538454 
L 99.567902 222.909836 
L 154.868616 240.217474 
L 210.16933 229.091135 
L 265.470045 261.756925 
L 320.770759 263.872831 
L 376.071473 264.8238 
L 431.372187 264.467187 
" clip-path="url(#pf6c955ac14)" style="fill: none; stroke-dasharray: 4.44,1.92; stroke-dashoffset: 0; stroke: #1f77b4; stroke-opacity: 0.9; stroke-width: 1.2"/>
   </g>
   <g id="line2d_24">
    <path d="M 44.267188 202.29758 
L 99.567902 194.000375 
L 154.868616 208.217363 
L 210.16933 235.106015 
L 265.470045 240.502765 
L 320.770759 212.805789 
L 376.071473 196.496668 
L 431.372187 263.706412 
" clip-path="url(#pf6c955ac14)" style="fill: none; stroke-dasharray: 4.44,1.92; stroke-dashoffset: 0; stroke: #ff7f0e; stroke-opacity: 0.9; stroke-width: 1.2"/>
   </g>
   <g id="line2d_25">
    <path d="M 44.267188 220.461091 
L 99.567902 243.046607 
L 154.868616 197.400089 
L 210.16933 258.428533 
L 265.470045 189.19798 
L 320.770759 190.386692 
L 376.071473 241.239766 
L 431.372187 263.016959 
" clip-path="url(#pf6c955ac14)" style="fill: none; stroke-dasharray: 4.44,1.92; stroke-dashoffset: 0; stroke: #2ca02c; stroke-opacity: 0.9; stroke-width: 1.2"/>
   </g>
   <g id="line2d_26">
    <path d="M 44.267188 260.068955 
L 99.567902 260.045181 
L 154.868616 246.018386 
L 210.16933 259.474599 
L 265.470045 253.340848 
L 320.770759 246.20858 
L 376.071473 254.101623 
L 431.372187 262.161087 
" clip-path="url(#pf6c955ac14)" style="fill: none; stroke-dasharray: 4.44,1.92; stroke-dashoffset: 0; stroke: #d62728; stroke-opacity: 0.9; stroke-width: 1.2"/>
   </g>
   <g id="line2d_27">
    <path d="M 44.267188 218.868217 
L 99.567902 226.737487 
L 154.868616 228.045069 
L 210.16933 219.842961 
L 265.470045 260.568214 
L 320.770759 260.425568 
L 376.071473 260.805956 
L 431.372187 180.686807 
" clip-path="url(#pf6c955ac14)" style="fill: none; stroke-dasharray: 4.44,1.92; stroke-dashoffset: 0; stroke: #9467bd; stroke-opacity: 0.9; stroke-width: 1.2"/>
   </g>
   <g id="line2d_28">
    <path d="M 44.267188 240.550313 
L 99.567902 240.859378 
L 154.868616 265.061543 
L 210.16933 243.593415 
L 265.470045 189.411948 
L 320.770759 222.838513 
L 376.071473 222.505674 
L 431.372187 192.90676 
" clip-path="url(#pf6c955ac14)" style="fill: none; stroke-dasharray: 4.44,1.92; stroke-dashoffset: 0; stroke: #8c564b; stroke-opacity: 0.9; stroke-width: 1.2"/>
   </g>
   <g id="line2d_29">
    <path d="M 44.267188 226.309551 
L 99.567902 226.262002 
L 154.868616 227.212971 
L 210.16933 172.413375 
L 265.470045 262.375055 
L 320.770759 246.707838 
L 376.071473 202.487774 
L 431.372187 204.389712 
" clip-path="url(#pf6c955ac14)" style="fill: none; stroke-dasharray: 4.44,1.92; stroke-dashoffset: 0; stroke: #e377c2; stroke-opacity: 0.9; stroke-width: 1.2"/>
   </g>
   <g id="line2d_30">
    <path d="M 44.267188 264.776252 
L 99.567902 265.061543 
L 154.868616 264.752478 
L 210.16933 262.018441 
L 265.470045 222.101512 
L 320.770759 235.367532 
L 376.071473 236.556243 
L 431.372187 247.254646 
" clip-path="url(#pf6c955ac14)" style="fill: none; stroke-dasharray: 4.44,1.92; stroke-dashoffset: 0; stroke: #7f7f7f; stroke-opacity: 0.9; stroke-width: 1.2"/>
   </g>
   <g id="patch_3">
    <path d="M 44.267188 278.389375 
L 44.267188 21.789375 
" style="fill: none; stroke: #cccccc; stroke-width: 0.8; stroke-linejoin: miter; stroke-linecap: square"/>
   </g>
   <g id="patch_4">
    <path d="M 431.372187 278.389375 
L 431.372187 21.789375 
" style="fill: none; stroke: #cccccc; stroke-width: 0.8; stroke-linejoin: miter; stroke-linecap: square"/>
   </g>
   <g id="patch_5">
    <path d="M 44.267188 278.389375 
L 431.372187 278.389375 
" style="fill: none; stroke: #cccccc; stroke-width: 0.8; stroke-linejoin: miter; stroke-linecap: square"/>
   </g>
   <g id="patch_6">
    <path d="M 44.267188 21.789375 
L 431.372187 21.789375 
" style="fill: none; stroke: #cccccc; stroke-width: 0.8; stroke-linejoin: miter; stroke-linecap: square"/>
   </g>
   <g id="text_17">
    <!-- PE002 — PC2 all cores -->
    <g style="fill: #262626" transform="translate(174.7925 15.789375) scale(0.12 -0.12)">
     <defs>
      <path id="ArialMT-50" d="M 494 0 
L 494 4581 
L 2222 4581 
Q 2678 4581 2919 4538 
Q 3256 4481 3484 4323 
Q 3713 4166 3852 3881 
Q 3991 3597 3991 3256 
Q 3991 2672 3619 2267 
Q 3247 1863 2275 1863 
L 1100 1863 
L 1100 0 
L 494 0 
z
M 1100 2403 
L 2284 2403 
Q 2872 2403 3119 2622 
Q 3366 2841 3366 3238 
Q 3366 3525 3220 3729 
Q 3075 3934 2838 4000 
Q 2684 4041 2272 4041 
L 1100 4041 
L 1100 2403 
z
" transform="scale(0.015625)"/>
      <path id="ArialMT-2014" d="M 0 1431 
L 0 1884 
L 6400 1884 
L 6400 1431 
L 0 1431 
z
" transform="scale(0.015625)"/>
      <path id="ArialMT-43" d="M 3763 1606 
L 4369 1453 
Q 4178 706 3683 314 
Q 3188 -78 2472 -78 
Q 1731 -78 1267 223 
Q 803 525 561 1097 
Q 319 1669 319 2325 
Q 319 3041 592 3573 
Q 866 4106 1370 4382 
Q 1875 4659 2481 4659 
Q 3169 4659 3637 4309 
Q 4106 3959 4291 3325 
L 3694 3184 
Q 3534 3684 3231 3912 
Q 2928 4141 2469 4141 
Q 1941 4141 1586 3887 
Q 1231 3634 1087 3207 
Q 944 2781 944 2328 
Q 944 1744 1114 1308 
Q 1284 872 1643 656 
Q 2003 441 2422 441 
Q 2931 441 3284 734 
Q 3638 1028 3763 1606 
z
" transform="scale(0.015625)"/>
      <path id="ArialMT-6f" d="M 213 1659 
Q 213 2581 725 3025 
Q 1153 3394 1769 3394 
Q 2453 3394 2887 2945 
Q 3322 2497 3322 1706 
Q 3322 1066 3130 698 
Q 2938 331 2570 128 
Q 2203 -75 1769 -75 
Q 1072 -75 642 372 
Q 213 819 213 1659 
z
M 791 1659 
Q 791 1022 1069 705 
Q 1347 388 1769 388 
Q 2188 388 2466 706 
Q 2744 1025 2744 1678 
Q 2744 2294 2464 2611 
Q 2184 2928 1769 2928 
Q 1347 2928 1069 2612 
Q 791 2297 791 1659 
z
" transform="scale(0.015625)"/>
      <path id="ArialMT-72" d="M 416 0 
L 416 3319 
L 922 3319 
L 922 2816 
Q 1116 3169 1280 3281 
Q 1444 3394 1641 3394 
Q 1925 3394 2219 3213 
L 2025 2691 
Q 1819 2813 1613 2813 
Q 1428 2813 1281 2702 
Q 1134 2591 1072 2394 
Q 978 2094 978 1738 
L 978 0 
L 416 0 
z
" transform="scale(0.015625)"/>
     </defs>
     <use xlink:href="#ArialMT-50"/>
     <use xlink:href="#ArialMT-45" transform="translate(66.699219 0)"/>
     <use xlink:href="#ArialMT-30" transform="translate(133.398438 0)"/>
     <use xlink:href="#ArialMT-30" transform="translate(189.013672 0)"/>
     <use xlink:href="#ArialMT-32" transform="translate(244.628906 0)"/>
     <use xlink:href="#ArialMT-20" transform="translate(300.244141 0)"/>
     <use xlink:href="#ArialMT-2014" transform="translate(328.027344 0)"/>
     <use xlink:href="#ArialMT-20" transform="translate(428.027344 0)"/>
     <use xlink:href="#ArialMT-50" transform="translate(455.810547 0)"/>
     <use xlink:href="#ArialMT-43" transform="translate(522.509766 0)"/>
     <use xlink:href="#ArialMT-32" transform="translate(594.726562 0)"/>
     <use xlink:href="#ArialMT-20" transform="translate(650.341797 0)"/>
     <use xlink:href="#ArialMT-61" transform="translate(678.125 0)"/>
     <use xlink:href="#ArialMT-6c" transform="translate(733.740234 0)"/>
     <use xlink:href="#ArialMT-6c" transform="translate(755.957031 0)"/>
     <use xlink:href="#ArialMT-20" transform="translate(778.173828 0)"/>
     <use xlink:href="#ArialMT-63" transform="translate(805.957031 0)"/>
     <use xlink:href="#ArialMT-6f" transform="translate(855.957031 0)"/>
     <use xlink:href="#ArialMT-72" transform="translate(911.572266 0)"/>
     <use xlink:href="#ArialMT-65" transform="translate(944.873047 0)"/>
     <use xlink:href="#ArialMT-73" transform="translate(1000.488281 0)"/>
    </g>
   </g>
   <g id="legend_1">
    <g id="patch_7">
     <path d="M 314.647188 85.685156 
L 425.772188 85.685156 
Q 427.372188 85.685156 427.372188 84.085156 
L 427.372188 27.389375 
Q 427.372188 25.789375 425.772188 25.789375 
L 314.647188 25.789375 
Q 313.047188 25.789375 313.047188 27.389375 
L 313.047188 84.085156 
Q 313.047188 85.685156 314.647188 85.685156 
z
" style="fill: #ffffff; opacity: 0.8; stroke: #cccccc; stroke-linejoin: miter"/>
    </g>
    <g id="text_18">
     <!-- CPU -->
     <g style="fill: #262626" transform="translate(360.708359 35.431406) scale(0.09 -0.09)">
      <defs>
       <path id="ArialMT-55" d="M 3500 4581 
L 4106 4581 
L 4106 1934 
Q 4106 1244 3950 837 
Q 3794 431 3386 176 
Q 2978 -78 2316 -78 
Q 1672 -78 1262 144 
Q 853 366 678 786 
Q 503 1206 503 1934 
L 503 4581 
L 1109 4581 
L 1109 1938 
Q 1109 1341 1220 1058 
Q 1331 775 1601 622 
Q 1872 469 2263 469 
Q 2931 469 3215 772 
Q 3500 1075 3500 1938 
L 3500 4581 
z
" transform="scale(0.015625)"/>
      </defs>
      <use xlink:href="#ArialMT-43"/>
      <use xlink:href="#ArialMT-50" transform="translate(72.216797 0)"/>
      <use xlink:href="#ArialMT-55" transform="translate(138.916016 0)"/>
     </g>
    </g>
    <g id="line2d_31">
     <path d="M 316.247188 44.146406 
L 324.247188 44.146406 
L 332.247188 44.146406 
" style="fill: none; stroke: #1f77b4; stroke-width: 2; stroke-linecap: round"/>
    </g>
    <g id="text_19">
     <!-- CPU 0 -->
     <g style="fill: #262626" transform="translate(338.647188 46.946406) scale(0.08 -0.08)">
      <use xlink:href="#ArialMT-43"/>
      <use xlink:href="#ArialMT-50" transform="translate(72.216797 0)"/>
      <use xlink:href="#ArialMT-55" transform="translate(138.916016 0)"/>
      <use xlink:href="#ArialMT-20" transform="translate(211.132812 0)"/>
      <use xlink:href="#ArialMT-30" transform="translate(238.916016 0)"/>
     </g>
    </g>
    <g id="line2d_32">
     <path d="M 316.247188 55.462656 
L 324.247188 55.462656 
L 332.247188 55.462656 
" style="fill: none; stroke: #ff7f0e; stroke-width: 2; stroke-linecap: round"/>
    </g>
    <g id="text_20">
     <!-- CPU 1 -->
     <g style="fill: #262626" transform="translate(338.647188 58.262656) scale(0.08 -0.08)">
      <use xlink:href="#ArialMT-43"/>
      <use xlink:href="#ArialMT-50" transform="translate(72.216797 0)"/>
      <use xlink:href="#ArialMT-55" transform="translate(138.916016 0)"/>
      <use xlink:href="#ArialMT-20" transform="translate(211.132812 0)"/>
      <use xlink:href="#ArialMT-31" transform="translate(238.916016 0)"/>
     </g>
    </g>
    <g id="line2d_33">
     <path d="M 316.247188 66.778906 
L 324.247188 66.778906 
L 332.247188 66.778906 
" style="fill: none; stroke: #2ca02c; stroke-width: 2; stroke-linecap: round"/>
    </g>
    <g id="text_21">
     <!-- CPU 2 -->
     <g style="fill: #262626" transform="translate(338.647188 69.578906) scale(0.08 -0.08)">
      <use xlink:href="#ArialMT-43"/>
      <use xlink:href="#ArialMT-50" transform="translate(72.216797 0)"/>
      <use xlink:href="#ArialMT-55" transform="translate(138.916016 0)"/>
      <use xlink:href="#ArialMT-20" transform="translate(211.132812 0)"/>
      <use xlink:href="#ArialMT-32" transform="translate(238.916016 0)"/>
     </g>
    </g>
    <g id="line2d_34">
     <path d="M 316.247188 78.095156 
L 324.247188 78.095156 
L 332.247188 78.095156 
" style="fill: none; stroke: #d62728; stroke-width: 2; stroke-linecap: round"/>
    </g>
    <g id="text_22">
     <!-- CPU 3 -->
     <g style="fill: #262626" transform="translate(338.647188 80.895156) scale(0.08 -0.08)">
      <use xlink:href="#ArialMT-43"/>
      <use xlink:href="#ArialMT-50" transform="translate(72.216797 0)"/>
      <use xlink:href="#ArialMT-55" transform="translate(138.916016 0)"/>
      <use xlink:href="#ArialMT-20" transform="translate(211.132812 0)"/>
      <use xlink:href="#ArialMT-33" transform="translate(238.916016 0)"/>
     </g>
    </g>
    <g id="line2d_35">
     <path d="M 378.209688 44.146406 
L 386.209688 44.146406 
L 394.209688 44.146406 
" style="fill: none; stroke: #9467bd; stroke-width: 2; stroke-linecap: round"/>
    </g>
    <g id="text_23">
     <!-- CPU 4 -->
     <g style="fill: #262626" transform="translate(400.609688 46.946406) scale(0.08 -0.08)">
      <use xlink:href="#ArialMT-43"/>
      <use xlink:href="#ArialMT-50" transform="translate(72.216797 0)"/>
      <use xlink:href="#ArialMT-55" transform="translate(138.916016 0)"/>
      <use xlink:href="#ArialMT-20" transform="translate(211.132812 0)"/>
      <use xlink:href="#ArialMT-34" transform="translate(238.916016 0)"/>
     </g>
    </g>
    <g id="line2d_36">
     <path d="M 378.209688 55.462656 
L 386.209688 55.462656 
L 394.209688 55.462656 
" style="fill: none; stroke: #8c564b; stroke-width: 2; stroke-linecap: round"/>
    </g>
    <g id="text_24">
     <!-- CPU 5 -->
     <g style="fill: #262626" transform="translate(400.609688 58.262656) scale(0.08 -0.08)">
      <use xlink:href="#ArialMT-43"/>
      <use xlink:href="#ArialMT-50" transform="translate(72.216797 0)"/>
      <use xlink:href="#ArialMT-55" transform="translate(138.916016 0)"/>
      <use xlink:href="#ArialMT-20" transform="translate(211.132812 0)"/>
      <use xlink:href="#ArialMT-35" transform="translate(238.916016 0)"/>
     </g>
    </g>
    <g id="line2d_37">
     <path d="M 378.209688 66.778906 
L 386.209688 66.778906 
L 394.209688 66.778906 
" style="fill: none; stroke: #e377c2; stroke-width: 2; stroke-linecap: round"/>
    </g>
    <g id="text_25">
     <!-- CPU 6 -->
     <g style="fill: #262626" transform="translate(400.609688 69.578906) scale(0.08 -0.08)">
      <use xlink:href="#ArialMT-43"/>
      <use xlink:href="#ArialMT-50" transform="translate(72.216797 0)"/>
      <use xlink:href="#ArialMT-55" transform="translate(138.916016 0)"/>
      <use xlink:href="#ArialMT-20" transform="translate(211.132812 0)"/>
      <use xlink:href="#ArialMT-36" transform="translate(238.916016 0)"/>
     </g>
    </g>
    <g id="line2d_38">
     <path d="M 378.209688 78.095156 
L 386.209688 78.095156 
L 394.209688 78.095156 
" style="fill: none; stroke: #7f7f7f; stroke-width: 2; stroke-linecap: round"/>
    </g>
    <g id="text_26">
     <!-- CPU 7 -->
     <g style="fill: #262626" transform="translate(400.609688 80.895156) scale(0.08 -0.08)">
      <use xlink:href="#ArialMT-43"/>
      <use xlink:href="#ArialMT-50" transform="translate(72.216797 0)"/>
      <use xlink:href="#ArialMT-55" transform="translate(138.916016 0)"/>
      <use xlink:href="#ArialMT-20" transform="translate(211.132812 0)"/>
      <use xlink:href="#ArialMT-37" transform="translate(238.916016 0)"/>
     </g>
    </g>
   </g>
   <g id="legend_2">
    <g id="patch_8">
     <path d="M 49.867188 63.240156 
L 100.813438 63.240156 
Q 102.413438 63.240156 102.413438 61.640156 
L 102.413438 27.389375 
Q 102.413438 25.789375 100.813438 25.789375 
L 49.867188 25.789375 
Q 48.267188 25.789375 48.267188 27.389375 
L 48.267188 61.640156 
Q 48.267188 63.240156 49.867188 63.240156 
z
" style="fill: #ffffff; opacity: 0.8; stroke: #cccccc; stroke-linejoin: miter"/>
    </g>
    <g id="text_27">
     <!-- Variant -->
     <g style="fill: #262626" transform="translate(61.414922 35.431406) scale(0.09 -0.09)">
      <defs>
       <path id="ArialMT-56" d="M 1803 0 
L 28 4581 
L 684 4581 
L 1875 1253 
Q 2019 853 2116 503 
Q 2222 878 2363 1253 
L 3600 4581 
L 4219 4581 
L 2425 0 
L 1803 0 
z
" transform="scale(0.015625)"/>
       <path id="ArialMT-6e" d="M 422 0 
L 422 3319 
L 928 3319 
L 928 2847 
Q 1294 3394 1984 3394 
Q 2284 3394 2536 3286 
Q 2788 3178 2913 3003 
Q 3038 2828 3088 2588 
Q 3119 2431 3119 2041 
L 3119 0 
L 2556 0 
L 2556 2019 
Q 2556 2363 2490 2533 
Q 2425 2703 2258 2804 
Q 2091 2906 1866 2906 
Q 1506 2906 1245 2678 
Q 984 2450 984 1813 
L 984 0 
L 422 0 
z
" transform="scale(0.015625)"/>
       <path id="ArialMT-74" d="M 1650 503 
L 1731 6 
Q 1494 -44 1306 -44 
Q 1000 -44 831 53 
Q 663 150 594 308 
Q 525 466 525 972 
L 525 2881 
L 113 2881 
L 113 3319 
L 525 3319 
L 525 4141 
L 1084 4478 
L 1084 3319 
L 1650 3319 
L 1650 2881 
L 1084 2881 
L 1084 941 
Q 1084 700 1114 631 
Q 1144 563 1211 522 
Q 1278 481 1403 481 
Q 1497 481 1650 503 
z
" transform="scale(0.015625)"/>
      </defs>
      <use xlink:href="#ArialMT-56"/>
      <use xlink:href="#ArialMT-61" transform="translate(59.324219 0)"/>
      <use xlink:href="#ArialMT-72" transform="translate(114.939453 0)"/>
      <use xlink:href="#ArialMT-69" transform="translate(148.240234 0)"/>
      <use xlink:href="#ArialMT-61" transform="translate(170.457031 0)"/>
      <use xlink:href="#ArialMT-6e" transform="translate(226.072266 0)"/>
      <use xlink:href="#ArialMT-74" transform="translate(281.6875 0)"/>
     </g>
    </g>
    <g id="line2d_39">
     <path d="M 51.467188 44.146406 
L 59.467188 44.146406 
L 67.467188 44.146406 
" style="fill: none; stroke: #333333; stroke-width: 2; stroke-linecap: round"/>
    </g>
    <g id="text_28">
     <!-- queryA -->
     <g style="fill: #262626" transform="translate(73.867188 46.946406) scale(0.08 -0.08)">
      <defs>
       <path id="ArialMT-71" d="M 2538 -1272 
L 2538 353 
Q 2406 169 2170 47 
Q 1934 -75 1669 -75 
Q 1078 -75 651 397 
Q 225 869 225 1691 
Q 225 2191 398 2587 
Q 572 2984 901 3189 
Q 1231 3394 1625 3394 
Q 2241 3394 2594 2875 
L 2594 3319 
L 3100 3319 
L 3100 -1272 
L 2538 -1272 
z
M 803 1669 
Q 803 1028 1072 708 
Q 1341 388 1716 388 
Q 2075 388 2334 692 
Q 2594 997 2594 1619 
Q 2594 2281 2320 2615 
Q 2047 2950 1678 2950 
Q 1313 2950 1058 2639 
Q 803 2328 803 1669 
z
" transform="scale(0.015625)"/>
       <path id="ArialMT-41" d="M -9 0 
L 1750 4581 
L 2403 4581 
L 4278 0 
L 3588 0 
L 3053 1388 
L 1138 1388 
L 634 0 
L -9 0 
z
M 1313 1881 
L 2866 1881 
L 2388 3150 
Q 2169 3728 2063 4100 
Q 1975 3659 1816 3225 
L 1313 1881 
z
" transform="scale(0.015625)"/>
      </defs>
      <use xlink:href="#ArialMT-71"/>
      <use xlink:href="#ArialMT-75" transform="translate(55.615234 0)"/>
      <use xlink:href="#ArialMT-65" transform="translate(111.230469 0)"/>
      <use xlink:href="#ArialMT-72" transform="translate(166.845703 0)"/>
      <use xlink:href="#ArialMT-79" transform="translate(200.146484 0)"/>
      <use xlink:href="#ArialMT-41" transform="translate(250.146484 0)"/>
     </g>
    </g>
    <g id="line2d_40">
     <path d="M 51.467188 55.556406 
L 59.467188 55.556406 
L 67.467188 55.556406 
" style="fill: none; stroke-dasharray: 7.4,3.2; stroke-dashoffset: 0; stroke: #333333; stroke-width: 2"/>
    </g>
    <g id="text_29">
     <!-- queryB -->
     <g style="fill: #262626" transform="translate(73.867188 58.356406) scale(0.08 -0.08)">
      <use xlink:href="#ArialMT-71"/>
      <use xlink:href="#ArialMT-75" transform="translate(55.615234 0)"/>
      <use xlink:href="#ArialMT-65" transform="translate(111.230469 0)"/>
      <use xlink:href="#ArialMT-72" transform="translate(166.845703 0)"/>
      <use xlink:href="#ArialMT-79" transform="translate(200.146484 0)"/>
      <use xlink:href="#ArialMT-42" transform="translate(250.146484 0)"/>
     </g>
    </g>
   </g>
  </g>
  <g id="axes_2">
   <g id="patch_9">
    <path d="M 458.997187 278.389375 
L 846.102187 278.389375 
L 846.102187 21.789375 
L 458.997187 21.789375 
z
" style="fill: #ffffff"/>
   </g>
   <g id="matplotlib.axis_3">
    <g id="xtick_9">
     <g id="line2d_41">
      <path d="M 458.997187 278.389375 
L 458.997187 21.789375 
" clip-path="url(#pf5424a19ed)" style="fill: none; stroke: #cccccc; stroke-opacity: 0.2; stroke-width: 0.8; stroke-linecap: round"/>
     </g>
     <g id="text_30">
      <!-- 0 -->
      <g style="fill: #262626" transform="translate(456.216719 292.547188) scale(0.1 -0.1)">
       <use xlink:href="#ArialMT-30"/>
      </g>
     </g>
    </g>
    <g id="xtick_10">
     <g id="line2d_42">
      <path d="M 514.297902 278.389375 
L 514.297902 21.789375 
" clip-path="url(#pf5424a19ed)" style="fill: none; stroke: #cccccc; stroke-opacity: 0.2; stroke-width: 0.8; stroke-linecap: round"/>
     </g>
     <g id="text_31">
      <!-- 1 -->
      <g style="fill: #262626" transform="translate(511.517433 292.547188) scale(0.1 -0.1)">
       <use xlink:href="#ArialMT-31"/>
      </g>
     </g>
    </g>
    <g id="xtick_11">
     <g id="line2d_43">
      <path d="M 569.598616 278.389375 
L 569.598616 21.789375 
" clip-path="url(#pf5424a19ed)" style="fill: none; stroke: #cccccc; stroke-opacity: 0.2; stroke-width: 0.8; stroke-linecap: round"/>
     </g>
     <g id="text_32">
      <!-- 2 -->
      <g style="fill: #262626" transform="translate(566.818147 292.547188) scale(0.1 -0.1)">
       <use xlink:href="#ArialMT-32"/>
      </g>
     </g>
    </g>
    <g id="xtick_12">
     <g id="line2d_44">
      <path d="M 624.89933 278.389375 
L 624.89933 21.789375 
" clip-path="url(#pf5424a19ed)" style="fill: none; stroke: #cccccc; stroke-opacity: 0.2; stroke-width: 0.8; stroke-linecap: round"/>
     </g>
     <g id="text_33">
      <!-- 3 -->
      <g style="fill: #262626" transform="translate(622.118862 292.547188) scale(0.1 -0.1)">
       <use xlink:href="#ArialMT-33"/>
      </g>
     </g>
    </g>
    <g id="xtick_13">
     <g id="line2d_45">
      <path d="M 680.200045 278.389375 
L 680.200045 21.789375 
" clip-path="url(#pf5424a19ed)" style="fill: none; stroke: #cccccc; stroke-opacity: 0.2; stroke-width: 0.8; stroke-linecap: round"/>
     </g>
     <g id="text_34">
      <!-- 4 -->
      <g style="fill: #262626" transform="translate(677.419576 292.547188) scale(0.1 -0.1)">
       <use xlink:href="#ArialMT-34"/>
      </g>
     </g>
    </g>
    <g id="xtick_14">
     <g id="line2d_46">
      <path d="M 735.500759 278.389375 
L 735.500759 21.789375 
" clip-path="url(#pf5424a19ed)" style="fill: none; stroke: #cccccc; stroke-opacity: 0.2; stroke-width: 0.8; stroke-linecap: round"/>
     </g>
     <g id="text_35">
      <!-- 5 -->
      <g style="fill: #262626" transform="translate(732.72029 292.547188) scale(0.1 -0.1)">
       <use xlink:href="#ArialMT-35"/>
      </g>
     </g>
    </g>
    <g id="xtick_15">
     <g id="line2d_47">
      <path d="M 790.801473 278.389375 
L 790.801473 21.789375 
" clip-path="url(#pf5424a19ed)" style="fill: none; stroke: #cccccc; stroke-opacity: 0.2; stroke-width: 0.8; stroke-linecap: round"/>
     </g>
     <g id="text_36">
      <!-- 6 -->
      <g style="fill: #262626" transform="translate(788.021004 292.547188) scale(0.1 -0.1)">
       <use xlink:href="#ArialMT-36"/>
      </g>
     </g>
    </g>
    <g id="xtick_16">
     <g id="line2d_48">
      <path d="M 846.102187 278.389375 
L 846.102187 21.789375 
" clip-path="url(#pf5424a19ed)" style="fill: none; stroke: #cccccc; stroke-opacity: 0.2; stroke-width: 0.8; stroke-linecap: round"/>
     </g>
     <g id="text_37">
      <!-- 7 -->
      <g style="fill: #262626" transform="translate(843.321719 292.547188) scale(0.1 -0.1)">
       <use xlink:href="#ArialMT-37"/>
      </g>
     </g>
    </g>
    <g id="text_38">
     <!-- Elapsed Time (sec) -->
     <g style="fill: #262626" transform="translate(609.758281 305.814375) scale(0.1 -0.1)">
      <use xlink:href="#ArialMT-45"/>
      <use xlink:href="#ArialMT-6c" transform="translate(66.699219 0)"/>
      <use xlink:href="#ArialMT-61" transform="translate(88.916016 0)"/>
      <use xlink:href="#ArialMT-70" transform="translate(144.53125 0)"/>
      <use xlink:href="#ArialMT-73" transform="translate(200.146484 0)"/>
      <use xlink:href="#ArialMT-65" transform="translate(250.146484 0)"/>
      <use xlink:href="#ArialMT-64" transform="translate(305.761719 0)"/>
      <use xlink:href="#ArialMT-20" transform="translate(361.376953 0)"/>
      <use xlink:href="#ArialMT-54" transform="translate(387.410156 0)"/>
      <use xlink:href="#ArialMT-69" transform="translate(444.744141 0)"/>
      <use xlink:href="#ArialMT-6d" transform="translate(466.960938 0)"/>
      <use xlink:href="#ArialMT-65" transform="translate(550.261719 0)"/>
      <use xlink:href="#ArialMT-20" transform="translate(605.876953 0)"/>
      <use xlink:href="#ArialMT-28" transform="translate(633.660156 0)"/>
      <use xlink:href="#ArialMT-73" transform="translate(666.960938 0)"/>
      <use xlink:href="#ArialMT-65" transform="translate(716.960938 0)"/>
      <use xlink:href="#ArialMT-63" transform="translate(772.576172 0)"/>
      <use xlink:href="#ArialMT-29" transform="translate(822.576172 0)"/>
     </g>
    </g>
   </g>
   <g id="matplotlib.axis_4">
    <g id="ytick_7">
     <g id="line2d_49">
      <path d="M 458.997187 270.434518 
L 846.102187 270.434518 
" clip-path="url(#pf5424a19ed)" style="fill: none; stroke: #cccccc; stroke-opacity: 0.2; stroke-width: 0.8; stroke-linecap: round"/>
     </g>
    </g>
    <g id="ytick_8">
     <g id="line2d_50">
      <path d="M 458.997187 222.886062 
L 846.102187 222.886062 
" clip-path="url(#pf5424a19ed)" style="fill: none; stroke: #cccccc; stroke-opacity: 0.2; stroke-width: 0.8; stroke-linecap: round"/>
     </g>
    </g>
    <g id="ytick_9">
     <g id="line2d_51">
      <path d="M 458.997187 175.337605 
L 846.102187 175.337605 
" clip-path="url(#pf5424a19ed)" style="fill: none; stroke: #cccccc; stroke-opacity: 0.2; stroke-width: 0.8; stroke-linecap: round"/>
     </g>
    </g>
    <g id="ytick_10">
     <g id="line2d_52">
      <path d="M 458.997187 127.789149 
L 846.102187 127.789149 
" clip-path="url(#pf5424a19ed)" style="fill: none; stroke: #cccccc; stroke-opacity: 0.2; stroke-width: 0.8; stroke-linecap: round"/>
     </g>
    </g>
    <g id="ytick_11">
     <g id="line2d_53">
      <path d="M 458.997187 80.240692 
L 846.102187 80.240692 
" clip-path="url(#pf5424a19ed)" style="fill: none; stroke: #cccccc; stroke-opacity: 0.2; stroke-width: 0.8; stroke-linecap: round"/>
     </g>
    </g>
    <g id="ytick_12">
     <g id="line2d_54">
      <path d="M 458.997187 32.692236 
L 846.102187 32.692236 
" clip-path="url(#pf5424a19ed)" style="fill: none; stroke: #cccccc; stroke-opacity: 0.2; stroke-width: 0.8; stroke-linecap: round"/>
     </g>
    </g>
    <g id="text_39">
     <!-- Busy% -->
     <g style="fill: #262626" transform="translate(452.8925 165.651094) rotate(-90) scale(0.1 -0.1)">
      <use xlink:href="#ArialMT-42"/>
      <use xlink:href="#ArialMT-75" transform="translate(66.699219 0)"/>
      <use xlink:href="#ArialMT-73" transform="translate(122.314453 0)"/>
      <use xlink:href="#ArialMT-79" transform="translate(172.314453 0)"/>
      <use xlink:href="#ArialMT-25" transform="translate(222.314453 0)"/>
     </g>
    </g>
   </g>
   <g id="line2d_55">
    <path d="M 458.997187 266.345351 
L 514.297902 266.440448 
L 569.598616 266.416674 
L 624.89933 266.416674 
L 680.200045 266.416674 
L 735.500759 266.416674 
L 790.801473 266.440448 
L 846.102187 266.321577 
" clip-path="url(#pf5424a19ed)" style="fill: none; stroke: #1f77b4; stroke-opacity: 0.9; stroke-width: 1.2; stroke-linecap: round"/>
   </g>
   <g id="line2d_56">
    <path d="M 458.997187 265.750995 
L 514.297902 266.083834 
L 569.598616 265.77477 
L 624.89933 265.964963 
L 680.200045 265.941189 
L 735.500759 265.204188 
L 790.801473 264.966446 
L 846.102187 265.988738 
" clip-path="url(#pf5424a19ed)" style="fill: none; stroke: #ff7f0e; stroke-opacity: 0.9; stroke-width: 1.2; stroke-linecap: round"/>
   </g>
   <g id="line2d_57">
    <path d="M 458.997187 33.762076 
L 514.297902 33.571883 
L 569.598616 33.571883 
L 624.89933 33.809625 
L 680.200045 33.785851 
L 735.500759 33.738302 
L 790.801473 33.619431 
L 846.102187 34.380206 
" clip-path="url(#pf5424a19ed)" style="fill: none; stroke: #2ca02c; stroke-opacity: 0.9; stroke-width: 1.2; stroke-linecap: round"/>
   </g>
   <g id="line2d_58">
    <path d="M 458.997187 265.846092 
L 514.297902 266.22648 
L 569.598616 266.559319 
L 624.89933 266.369125 
L 680.200045 266.583093 
L 735.500759 266.511771 
L 790.801473 266.606867 
L 846.102187 266.535545 
" clip-path="url(#pf5424a19ed)" style="fill: none; stroke: #d62728; stroke-opacity: 0.9; stroke-width: 1.2; stroke-linecap: round"/>
   </g>
   <g id="line2d_59">
    <path d="M 458.997187 266.274028 
L 514.297902 266.345351 
L 569.598616 266.178931 
L 624.89933 264.37209 
L 680.200045 264.229445 
L 735.500759 264.53851 
L 790.801473 265.44193 
L 846.102187 266.202706 
" clip-path="url(#pf5424a19ed)" style="fill: none; stroke: #9467bd; stroke-opacity: 0.9; stroke-width: 1.2; stroke-linecap: round"/>
   </g>
   <g id="line2d_60">
    <path d="M 458.997187 264.657381 
L 514.297902 264.99022 
L 569.598616 265.013994 
L 624.89933 264.847575 
L 680.200045 264.99022 
L 735.500759 264.99022 
L 790.801473 264.728703 
L 846.102187 264.752478 
" clip-path="url(#pf5424a19ed)" style="fill: none; stroke: #8c564b; stroke-opacity: 0.9; stroke-width: 1.2; stroke-linecap: round"/>
   </g>
   <g id="line2d_61">
    <path d="M 458.997187 262.303732 
L 514.297902 261.590505 
L 569.598616 261.947119 
L 624.89933 263.777734 
L 680.200045 264.086799 
L 735.500759 264.681155 
L 790.801473 263.326024 
L 846.102187 262.351281 
" clip-path="url(#pf5424a19ed)" style="fill: none; stroke: #e377c2; stroke-opacity: 0.9; stroke-width: 1.2; stroke-linecap: round"/>
   </g>
   <g id="line2d_62">
    <path d="M 458.997187 266.202706 
L 514.297902 266.274028 
L 569.598616 266.274028 
L 624.89933 266.274028 
L 680.200045 266.274028 
L 735.500759 266.250254 
L 790.801473 266.22648 
L 846.102187 266.131383 
" clip-path="url(#pf5424a19ed)" style="fill: none; stroke: #7f7f7f; stroke-opacity: 0.9; stroke-width: 1.2; stroke-linecap: round"/>
   </g>
   <g id="line2d_63">
    <path d="M 458.997187 266.440448 
L 514.297902 266.440448 
L 569.598616 266.464222 
L 624.89933 266.297803 
L 680.200045 266.036286 
L 735.500759 266.083834 
L 790.801473 266.06006 
L 846.102187 265.941189 
" clip-path="url(#pf5424a19ed)" style="fill: none; stroke-dasharray: 4.44,1.92; stroke-dashoffset: 0; stroke: #1f77b4; stroke-opacity: 0.9; stroke-width: 1.2"/>
   </g>
   <g id="line2d_64">
    <path d="M 458.997187 265.061543 
L 514.297902 265.085317 
L 569.598616 265.085317 
L 624.89933 265.727221 
L 680.200045 265.941189 
L 735.500759 265.727221 
L 790.801473 265.727221 
L 846.102187 265.227962 
" clip-path="url(#pf5424a19ed)" style="fill: none; stroke-dasharray: 4.44,1.92; stroke-dashoffset: 0; stroke: #ff7f0e; stroke-opacity: 0.9; stroke-width: 1.2"/>
   </g>
   <g id="line2d_65">
    <path d="M 458.997187 33.548108 
L 514.297902 33.548108 
L 569.598616 33.548108 
L 624.89933 33.50056 
L 680.200045 33.524334 
L 735.500759 33.453011 
L 790.801473 33.453011 
L 846.102187 34.332658 
" clip-path="url(#pf5424a19ed)" style="fill: none; stroke-dasharray: 4.44,1.92; stroke-dashoffset: 0; stroke: #2ca02c; stroke-opacity: 0.9; stroke-width: 1.2"/>
   </g>
   <g id="line2d_66">
    <path d="M 458.997187 266.67819 
L 514.297902 266.701964 
L 569.598616 266.701964 
L 624.89933 266.701964 
L 680.200045 266.725739 
L 735.500759 266.131383 
L 790.801473 266.083834 
L 846.102187 266.559319 
" clip-path="url(#pf5424a19ed)" style="fill: none; stroke-dasharray: 4.44,1.92; stroke-dashoffset: 0; stroke: #d62728; stroke-opacity: 0.9; stroke-width: 1.2"/>
   </g>
   <g id="line2d_67">
    <path d="M 458.997187 266.297803 
L 514.297902 266.321577 
L 569.598616 266.511771 
L 624.89933 266.297803 
L 680.200045 266.22648 
L 735.500759 266.297803 
L 790.801473 266.321577 
L 846.102187 266.583093 
" clip-path="url(#pf5424a19ed)" style="fill: none; stroke-dasharray: 4.44,1.92; stroke-dashoffset: 0; stroke: #9467bd; stroke-opacity: 0.9; stroke-width: 1.2"/>
   </g>
   <g id="line2d_68">
    <path d="M 458.997187 264.776252 
L 514.297902 264.847575 
L 569.598616 264.8238 
L 624.89933 264.800026 
L 680.200045 264.704929 
L 735.500759 264.871349 
L 790.801473 264.752478 
L 846.102187 264.633607 
" clip-path="url(#pf5424a19ed)" style="fill: none; stroke-dasharray: 4.44,1.92; stroke-dashoffset: 0; stroke: #8c564b; stroke-opacity: 0.9; stroke-width: 1.2"/>
   </g>
   <g id="line2d_69">
    <path d="M 458.997187 262.184861 
L 514.297902 262.422603 
L 569.598616 262.446378 
L 624.89933 262.422603 
L 680.200045 262.184861 
L 735.500759 262.279958 
L 790.801473 262.303732 
L 846.102187 260.805956 
" clip-path="url(#pf5424a19ed)" style="fill: none; stroke-dasharray: 4.44,1.92; stroke-dashoffset: 0; stroke: #e377c2; stroke-opacity: 0.9; stroke-width: 1.2"/>
   </g>
   <g id="line2d_70">
    <path d="M 458.997187 266.297803 
L 514.297902 266.392899 
L 569.598616 266.131383 
L 624.89933 265.846092 
L 680.200045 265.964963 
L 735.500759 266.630642 
L 790.801473 266.654416 
L 846.102187 266.155157 
" clip-path="url(#pf5424a19ed)" style="fill: none; stroke-dasharray: 4.44,1.92; stroke-dashoffset: 0; stroke: #7f7f7f; stroke-opacity: 0.9; stroke-width: 1.2"/>
   </g>
   <g id="patch_10">
    <path d="M 458.997187 278.389375 
L 458.997187 21.789375 
" style="fill: none; stroke: #cccccc; stroke-width: 0.8; stroke-linejoin: miter; stroke-linecap: square"/>
   </g>
   <g id="patch_11">
    <path d="M 846.102187 278.389375 
L 846.102187 21.789375 
" style="fill: none; stroke: #cccccc; stroke-width: 0.8; stroke-linejoin: miter; stroke-linecap: square"/>
   </g>
   <g id="patch_12">
    <path d="M 458.997187 278.389375 
L 846.102187 278.389375 
" style="fill: none; stroke: #cccccc; stroke-width: 0.8; stroke-linejoin: miter; stroke-linecap: square"/>
   </g>
   <g id="patch_13">
    <path d="M 458.997187 21.789375 
L 846.102187 21.789375 
" style="fill: none; stroke: #cccccc; stroke-width: 0.8; stroke-linejoin: miter; stroke-linecap: square"/>
   </g>
   <g id="text_40">
    <!-- PE002 — PC2 1 core -->
    <g style="fill: #262626" transform="translate(595.18875 15.789375) scale(0.12 -0.12)">
     <use xlink:href="#ArialMT-50"/>
     <use xlink:href="#ArialMT-45" transform="translate(66.699219 0)"/>
     <use xlink:href="#ArialMT-30" transform="translate(133.398438 0)"/>
     <use xlink:href="#ArialMT-30" transform="translate(189.013672 0)"/>
     <use xlink:href="#ArialMT-32" transform="translate(244.628906 0)"/>
     <use xlink:href="#ArialMT-20" transform="translate(300.244141 0)"/>
     <use xlink:href="#ArialMT-2014" transform="translate(328.027344 0)"/>
     <use xlink:href="#ArialMT-20" transform="translate(428.027344 0)"/>
     <use xlink:href="#ArialMT-50" transform="translate(455.810547 0)"/>
     <use xlink:href="#ArialMT-43" transform="translate(522.509766 0)"/>
     <use xlink:href="#ArialMT-32" transform="translate(594.726562 0)"/>
     <use xlink:href="#ArialMT-20" transform="translate(650.341797 0)"/>
     <use xlink:href="#ArialMT-31" transform="translate(678.125 0)"/>
     <use xlink:href="#ArialMT-20" transform="translate(733.740234 0)"/>
     <use xlink:href="#ArialMT-63" transform="translate(761.523438 0)"/>
     <use xlink:href="#ArialMT-6f" transform="translate(811.523438 0)"/>
     <use xlink:href="#ArialMT-72" transform="translate(867.138672 0)"/>
     <use xlink:href="#ArialMT-65" transform="translate(900.439453 0)"/>
    </g>
   </g>
   <g id="legend_3">
    <g id="patch_14">
     <path d="M 729.377187 85.685156 
L 840.502187 85.685156 
Q 842.102187 85.685156 842.102187 84.085156 
L 842.102187 27.389375 
Q 842.102187 25.789375 840.502187 25.789375 
L 729.377187 25.789375 
Q 727.777187 25.789375 727.777187 27.389375 
L 727.777187 84.085156 
Q 727.777187 85.685156 729.377187 85.685156 
z
" style="fill: #ffffff; opacity: 0.8; stroke: #cccccc; stroke-linejoin: miter"/>
    </g>
    <g id="text_41">
     <!-- CPU -->
     <g style="fill: #262626" transform="translate(775.438359 35.431406) scale(0.09 -0.09)">
      <use xlink:href="#ArialMT-43"/>
      <use xlink:href="#ArialMT-50" transform="translate(72.216797 0)"/>
      <use xlink:href="#ArialMT-55" transform="translate(138.916016 0)"/>
     </g>
    </g>
    <g id="line2d_71">
     <path d="M 730.977187 44.146406 
L 738.977187 44.146406 
L 746.977187 44.146406 
" style="fill: none; stroke: #1f77b4; stroke-width: 2; stroke-linecap: round"/>
    </g>
    <g id="text_42">
     <!-- CPU 0 -->
     <g style="fill: #262626" transform="translate(753.377187 46.946406) scale(0.08 -0.08)">
      <use xlink:href="#ArialMT-43"/>
      <use xlink:href="#ArialMT-50" transform="translate(72.216797 0)"/>
      <use xlink:href="#ArialMT-55" transform="translate(138.916016 0)"/>
      <use xlink:href="#ArialMT-20" transform="translate(211.132812 0)"/>
      <use xlink:href="#ArialMT-30" transform="translate(238.916016 0)"/>
     </g>
    </g>
    <g id="line2d_72">
     <path d="M 730.977187 55.462656 
L 738.977187 55.462656 
L 746.977187 55.462656 
" style="fill: none; stroke: #ff7f0e; stroke-width: 2; stroke-linecap: round"/>
    </g>
    <g id="text_43">
     <!-- CPU 1 -->
     <g style="fill: #262626" transform="translate(753.377187 58.262656) scale(0.08 -0.08)">
      <use xlink:href="#ArialMT-43"/>
      <use xlink:href="#ArialMT-50" transform="translate(72.216797 0)"/>
      <use xlink:href="#ArialMT-55" transform="translate(138.916016 0)"/>
      <use xlink:href="#ArialMT-20" transform="translate(211.132812 0)"/>
      <use xlink:href="#ArialMT-31" transform="translate(238.916016 0)"/>
     </g>
    </g>
    <g id="line2d_73">
     <path d="M 730.977187 66.778906 
L 738.977187 66.778906 
L 746.977187 66.778906 
" style="fill: none; stroke: #2ca02c; stroke-width: 2; stroke-linecap: round"/>
    </g>
    <g id="text_44">
     <!-- CPU 2 -->
     <g style="fill: #262626" transform="translate(753.377187 69.578906) scale(0.08 -0.08)">
      <use xlink:href="#ArialMT-43"/>
      <use xlink:href="#ArialMT-50" transform="translate(72.216797 0)"/>
      <use xlink:href="#ArialMT-55" transform="translate(138.916016 0)"/>
      <use xlink:href="#ArialMT-20" transform="translate(211.132812 0)"/>
      <use xlink:href="#ArialMT-32" transform="translate(238.916016 0)"/>
     </g>
    </g>
    <g id="line2d_74">
     <path d="M 730.977187 78.095156 
L 738.977187 78.095156 
L 746.977187 78.095156 
" style="fill: none; stroke: #d62728; stroke-width: 2; stroke-linecap: round"/>
    </g>
    <g id="text_45">
     <!-- CPU 3 -->
     <g style="fill: #262626" transform="translate(753.377187 80.895156) scale(0.08 -0.08)">
      <use xlink:href="#ArialMT-43"/>
      <use xlink:href="#ArialMT-50" transform="translate(72.216797 0)"/>
      <use xlink:href="#ArialMT-55" transform="translate(138.916016 0)"/>
      <use xlink:href="#ArialMT-20" transform="translate(211.132812 0)"/>
      <use xlink:href="#ArialMT-33" transform="translate(238.916016 0)"/>
     </g>
    </g>
    <g id="line2d_75">
     <path d="M 792.939687 44.146406 
L 800.939687 44.146406 
L 808.939687 44.146406 
" style="fill: none; stroke: #9467bd; stroke-width: 2; stroke-linecap: round"/>
    </g>
    <g id="text_46">
     <!-- CPU 4 -->
     <g style="fill: #262626" transform="translate(815.339687 46.946406) scale(0.08 -0.08)">
      <use xlink:href="#ArialMT-43"/>
      <use xlink:href="#ArialMT-50" transform="translate(72.216797 0)"/>
      <use xlink:href="#ArialMT-55" transform="translate(138.916016 0)"/>
      <use xlink:href="#ArialMT-20" transform="translate(211.132812 0)"/>
      <use xlink:href="#ArialMT-34" transform="translate(238.916016 0)"/>
     </g>
    </g>
    <g id="line2d_76">
     <path d="M 792.939687 55.462656 
L 800.939687 55.462656 
L 808.939687 55.462656 
" style="fill: none; stroke: #8c564b; stroke-width: 2; stroke-linecap: round"/>
    </g>
    <g id="text_47">
     <!-- CPU 5 -->
     <g style="fill: #262626" transform="translate(815.339687 58.262656) scale(0.08 -0.08)">
      <use xlink:href="#ArialMT-43"/>
      <use xlink:href="#ArialMT-50" transform="translate(72.216797 0)"/>
      <use xlink:href="#ArialMT-55" transform="translate(138.916016 0)"/>
      <use xlink:href="#ArialMT-20" transform="translate(211.132812 0)"/>
      <use xlink:href="#ArialMT-35" transform="translate(238.916016 0)"/>
     </g>
    </g>
    <g id="line2d_77">
     <path d="M 792.939687 66.778906 
L 800.939687 66.778906 
L 808.939687 66.778906 
" style="fill: none; stroke: #e377c2; stroke-width: 2; stroke-linecap: round"/>
    </g>
    <g id="text_48">
     <!-- CPU 6 -->
     <g style="fill: #262626" transform="translate(815.339687 69.578906) scale(0.08 -0.08)">
      <use xlink:href="#ArialMT-43"/>
      <use xlink:href="#ArialMT-50" transform="translate(72.216797 0)"/>
      <use xlink:href="#ArialMT-55" transform="translate(138.916016 0)"/>
      <use xlink:href="#ArialMT-20" transform="translate(211.132812 0)"/>
      <use xlink:href="#ArialMT-36" transform="translate(238.916016 0)"/>
     </g>
    </g>
    <g id="line2d_78">
     <path d="M 792.939687 78.095156 
L 800.939687 78.095156 
L 808.939687 78.095156 
" style="fill: none; stroke: #7f7f7f; stroke-width: 2; stroke-linecap: round"/>
    </g>
    <g id="text_49">
     <!-- CPU 7 -->
     <g style="fill: #262626" transform="translate(815.339687 80.895156) scale(0.08 -0.08)">
      <use xlink:href="#ArialMT-43"/>
      <use xlink:href="#ArialMT-50" transform="translate(72.216797 0)"/>
      <use xlink:href="#ArialMT-55" transform="translate(138.916016 0)"/>
      <use xlink:href="#ArialMT-20" transform="translate(211.132812 0)"/>
      <use xlink:href="#ArialMT-37" transform="translate(238.916016 0)"/>
     </g>
    </g>
   </g>
   <g id="legend_4">
    <g id="patch_15">
     <path d="M 464.597187 63.240156 
L 515.543437 63.240156 
Q 517.143437 63.240156 517.143437 61.640156 
L 517.143437 27.389375 
Q 517.143437 25.789375 515.543437 25.789375 
L 464.597187 25.789375 
Q 462.997187 25.789375 462.997187 27.389375 
L 462.997187 61.640156 
Q 462.997187 63.240156 464.597187 63.240156 
z
" style="fill: #ffffff; opacity: 0.8; stroke: #cccccc; stroke-linejoin: miter"/>
    </g>
    <g id="text_50">
     <!-- Variant -->
     <g style="fill: #262626" transform="translate(476.144922 35.431406) scale(0.09 -0.09)">
      <use xlink:href="#ArialMT-56"/>
      <use xlink:href="#ArialMT-61" transform="translate(59.324219 0)"/>
      <use xlink:href="#ArialMT-72" transform="translate(114.939453 0)"/>
      <use xlink:href="#ArialMT-69" transform="translate(148.240234 0)"/>
      <use xlink:href="#ArialMT-61" transform="translate(170.457031 0)"/>
      <use xlink:href="#ArialMT-6e" transform="translate(226.072266 0)"/>
      <use xlink:href="#ArialMT-74" transform="translate(281.6875 0)"/>
     </g>
    </g>
    <g id="line2d_79">
     <path d="M 466.197187 44.146406 
L 474.197187 44.146406 
L 482.197187 44.146406 
" style="fill: none; stroke: #333333; stroke-width: 2; stroke-linecap: round"/>
    </g>
    <g id="text_51">
     <!-- queryA -->
     <g style="fill: #262626" transform="translate(488.597187 46.946406) scale(0.08 -0.08)">
      <use xlink:href="#ArialMT-71"/>
      <use xlink:href="#ArialMT-75" transform="translate(55.615234 0)"/>
      <use xlink:href="#ArialMT-65" transform="translate(111.230469 0)"/>
      <use xlink:href="#ArialMT-72" transform="translate(166.845703 0)"/>
      <use xlink:href="#ArialMT-79" transform="translate(200.146484 0)"/>
      <use xlink:href="#ArialMT-41" transform="translate(250.146484 0)"/>
     </g>
    </g>
    <g id="line2d_80">
     <path d="M 466.197187 55.556406 
L 474.197187 55.556406 
L 482.197187 55.556406 
" style="fill: none; stroke-dasharray: 7.4,3.2; stroke-dashoffset: 0; stroke: #333333; stroke-width: 2"/>
    </g>
    <g id="text_52">
     <!-- queryB -->
     <g style="fill: #262626" transform="translate(488.597187 58.356406) scale(0.08 -0.08)">
      <use xlink:href="#ArialMT-71"/>
      <use xlink:href="#ArialMT-75" transform="translate(55.615234 0)"/>
      <use xlink:href="#ArialMT-65" transform="translate(111.230469 0)"/>
      <use xlink:href="#ArialMT-72" transform="translate(166.845703 0)"/>
      <use xlink:href="#ArialMT-79" transform="translate(200.146484 0)"/>
      <use xlink:href="#ArialMT-42" transform="translate(250.146484 0)"/>
     </g>
    </g>
   </g>
  </g>
 </g>
 <defs>
  <clipPath id="pf6c955ac14">
   <rect x="44.267188" y="21.789375" width="387.105" height="256.6"/>
  </clipPath>
  <clipPath id="pf5424a19ed">
   <rect x="458.997187" y="21.789375" width="387.105" height="256.6"/>
  </clipPath>
 </defs>
</svg>
