<?xml version="1.0" encoding="utf-8" standalone="no"?>
<!DOCTYPE svg PUBLIC "-//W3C//DTD SVG 1.1//EN"
  "http://www.w3.org/Graphics/SVG/1.1/DTD/svg11.dtd">
<svg xmlns:xlink="http://www.w3.org/1999/xlink" width="855.860937pt" height="279.119063pt" viewBox="0 0 855.860937 279.119063" xmlns="http://www.w3.org/2000/svg" version="1.1">
 <metadata>
  <rdf:RDF xmlns:dc="http://purl.org/dc/elements/1.1/" xmlns:cc="http://creativecommons.org/ns#" xmlns:rdf="http://www.w3.org/1999/02/22-rdf-syntax-ns#">
   <cc:Work>
    <dc:type rdf:resource="http://purl.org/dc/dcmitype/StillImage"/>
    <dc:date>2026-05-26T16:50:38.909798</dc:date>
    <dc:format>image/svg+xml</dc:format>
    <dc:creator>
     <cc:Agent>
      <dc:title>Matplotlib v3.10.1, https://matplotlib.org/</dc:title>
     </cc:Agent>
    </dc:creator>
   </cc:Work>
  </rdf:RDF>
 </metadata>
 <defs>
  <style type="text/css">*{stroke-linejoin: round; stroke-linecap: butt}</style>
 </defs>
 <g id="figure_1">
  <g id="patch_1">
   <path d="M 0 279.119063 
L 855.860937 279.119063 
L 855.860937 0 
L 0 0 
z
" style="fill: #ffffff"/>
  </g>
  <g id="axes_1">
   <g id="patch_2">
    <path d="M 41.392188 242.389375 
L 432.535937 242.389375 
L 432.535937 21.789375 
L 41.392188 21.789375 
z
" style="fill: #ffffff"/>
   </g>
   <g id="matplotlib.axis_1">
    <g id="xtick_1">
     <g id="line2d_1">
      <path d="M 41.392188 242.389375 
L 41.392188 21.789375 
" clip-path="url(#pd7af6ee8ed)" style="fill: none; stroke: #cccccc; stroke-opacity: 0.3; stroke-width: 0.8; stroke-linecap: round"/>
     </g>
     <g id="text_1">
      <!-- 0 -->
      <g style="fill: #262626" transform="translate(38.611719 256.547188) scale(0.1 -0.1)">
       <defs>
        <path id="ArialMT-30" d="M 266 2259 
Q 266 3072 433 3567 
Q 600 4063 929 4331 
Q 1259 4600 1759 4600 
Q 2128 4600 2406 4451 
Q 2684 4303 2865 4023 
Q 3047 3744 3150 3342 
Q 3253 2941 3253 2259 
Q 3253 1453 3087 958 
Q 2922 463 2592 192 
Q 2263 -78 1759 -78 
Q 1097 -78 719 397 
Q 266 969 266 2259 
z
M 844 2259 
Q 844 1131 1108 757 
Q 1372 384 1759 384 
Q 2147 384 2411 759 
Q 2675 1134 2675 2259 
Q 2675 3391 2411 3762 
Q 2147 4134 1753 4134 
Q 1366 4134 1134 3806 
Q 844 3388 844 2259 
z
" transform="scale(0.015625)"/>
       </defs>
       <use xlink:href="#ArialMT-30"/>
      </g>
     </g>
    </g>
    <g id="xtick_2">
     <g id="line2d_2">
      <path d="M 113.826215 242.389375 
L 113.826215 21.789375 
" clip-path="url(#pd7af6ee8ed)" style="fill: none; stroke: #cccccc; stroke-opacity: 0.3; stroke-width: 0.8; stroke-linecap: round"/>
     </g>
     <g id="text_2">
      <!-- 50 -->
      <g style="fill: #262626" transform="translate(108.265278 256.547188) scale(0.1 -0.1)">
       <defs>
        <path id="ArialMT-35" d="M 266 1200 
L 856 1250 
Q 922 819 1161 601 
Q 1400 384 1738 384 
Q 2144 384 2425 690 
Q 2706 997 2706 1503 
Q 2706 1984 2436 2262 
Q 2166 2541 1728 2541 
Q 1456 2541 1237 2417 
Q 1019 2294 894 2097 
L 366 2166 
L 809 4519 
L 3088 4519 
L 3088 3981 
L 1259 3981 
L 1013 2750 
Q 1425 3038 1878 3038 
Q 2478 3038 2890 2622 
Q 3303 2206 3303 1553 
Q 3303 931 2941 478 
Q 2500 -78 1738 -78 
Q 1113 -78 717 272 
Q 322 622 266 1200 
z
" transform="scale(0.015625)"/>
       </defs>
       <use xlink:href="#ArialMT-35"/>
       <use xlink:href="#ArialMT-30" transform="translate(55.615234 0)"/>
      </g>
     </g>
    </g>
    <g id="xtick_3">
     <g id="line2d_3">
      <path d="M 186.260243 242.389375 
L 186.260243 21.789375 
" clip-path="url(#pd7af6ee8ed)" style="fill: none; stroke: #cccccc; stroke-opacity: 0.3; stroke-width: 0.8; stroke-linecap: round"/>
     </g>
     <g id="text_3">
      <!-- 100 -->
      <g style="fill: #262626" transform="translate(177.918837 256.547188) scale(0.1 -0.1)">
       <defs>
        <path id="ArialMT-31" d="M 2384 0 
L 1822 0 
L 1822 3584 
Q 1619 3391 1289 3197 
Q 959 3003 697 2906 
L 697 3450 
Q 1169 3672 1522 3987 
Q 1875 4303 2022 4600 
L 2384 4600 
L 2384 0 
z
" transform="scale(0.015625)"/>
       </defs>
       <use xlink:href="#ArialMT-31"/>
       <use xlink:href="#ArialMT-30" transform="translate(55.615234 0)"/>
       <use xlink:href="#ArialMT-30" transform="translate(111.230469 0)"/>
      </g>
     </g>
    </g>
    <g id="xtick_4">
     <g id="line2d_4">
      <path d="M 258.694271 242.389375 
L 258.694271 21.789375 
" clip-path="url(#pd7af6ee8ed)" style="fill: none; stroke: #cccccc; stroke-opacity: 0.3; stroke-width: 0.8; stroke-linecap: round"/>
     </g>
     <g id="text_4">
      <!-- 150 -->
      <g style="fill: #262626" transform="translate(250.352865 256.547188) scale(0.1 -0.1)">
       <use xlink:href="#ArialMT-31"/>
       <use xlink:href="#ArialMT-35" transform="translate(55.615234 0)"/>
       <use xlink:href="#ArialMT-30" transform="translate(111.230469 0)"/>
      </g>
     </g>
    </g>
    <g id="xtick_5">
     <g id="line2d_5">
      <path d="M 331.128299 242.389375 
L 331.128299 21.789375 
" clip-path="url(#pd7af6ee8ed)" style="fill: none; stroke: #cccccc; stroke-opacity: 0.3; stroke-width: 0.8; stroke-linecap: round"/>
     </g>
     <g id="text_5">
      <!-- 200 -->
      <g style="fill: #262626" transform="translate(322.786892 256.547188) scale(0.1 -0.1)">
       <defs>
        <path id="ArialMT-32" d="M 3222 541 
L 3222 0 
L 194 0 
Q 188 203 259 391 
Q 375 700 629 1000 
Q 884 1300 1366 1694 
Q 2113 2306 2375 2664 
Q 2638 3022 2638 3341 
Q 2638 3675 2398 3904 
Q 2159 4134 1775 4134 
Q 1369 4134 1125 3890 
Q 881 3647 878 3216 
L 300 3275 
Q 359 3922 746 4261 
Q 1134 4600 1788 4600 
Q 2447 4600 2831 4234 
Q 3216 3869 3216 3328 
Q 3216 3053 3103 2787 
Q 2991 2522 2730 2228 
Q 2469 1934 1863 1422 
Q 1356 997 1212 845 
Q 1069 694 975 541 
L 3222 541 
z
" transform="scale(0.015625)"/>
       </defs>
       <use xlink:href="#ArialMT-32"/>
       <use xlink:href="#ArialMT-30" transform="translate(55.615234 0)"/>
       <use xlink:href="#ArialMT-30" transform="translate(111.230469 0)"/>
      </g>
     </g>
    </g>
    <g id="xtick_6">
     <g id="line2d_6">
      <path d="M 403.562326 242.389375 
L 403.562326 21.789375 
" clip-path="url(#pd7af6ee8ed)" style="fill: none; stroke: #cccccc; stroke-opacity: 0.3; stroke-width: 0.8; stroke-linecap: round"/>
     </g>
     <g id="text_6">
      <!-- 250 -->
      <g style="fill: #262626" transform="translate(395.22092 256.547188) scale(0.1 -0.1)">
       <use xlink:href="#ArialMT-32"/>
       <use xlink:href="#ArialMT-35" transform="translate(55.615234 0)"/>
       <use xlink:href="#ArialMT-30" transform="translate(111.230469 0)"/>
      </g>
     </g>
    </g>
    <g id="text_7">
     <!-- Elapsed Time (sec) -->
     <g style="fill: #262626" transform="translate(194.172656 269.814375) scale(0.1 -0.1)">
      <defs>
       <path id="ArialMT-45" d="M 506 0 
L 506 4581 
L 3819 4581 
L 3819 4041 
L 1113 4041 
L 1113 2638 
L 3647 2638 
L 3647 2100 
L 1113 2100 
L 1113 541 
L 3925 541 
L 3925 0 
L 506 0 
z
" transform="scale(0.015625)"/>
       <path id="ArialMT-6c" d="M 409 0 
L 409 4581 
L 972 4581 
L 972 0 
L 409 0 
z
" transform="scale(0.015625)"/>
       <path id="ArialMT-61" d="M 2588 409 
Q 2275 144 1986 34 
Q 1697 -75 1366 -75 
Q 819 -75 525 192 
Q 231 459 231 875 
Q 231 1119 342 1320 
Q 453 1522 633 1644 
Q 813 1766 1038 1828 
Q 1203 1872 1538 1913 
Q 2219 1994 2541 2106 
Q 2544 2222 2544 2253 
Q 2544 2597 2384 2738 
Q 2169 2928 1744 2928 
Q 1347 2928 1158 2789 
Q 969 2650 878 2297 
L 328 2372 
Q 403 2725 575 2942 
Q 747 3159 1072 3276 
Q 1397 3394 1825 3394 
Q 2250 3394 2515 3294 
Q 2781 3194 2906 3042 
Q 3031 2891 3081 2659 
Q 3109 2516 3109 2141 
L 3109 1391 
Q 3109 606 3145 398 
Q 3181 191 3288 0 
L 2700 0 
Q 2613 175 2588 409 
z
M 2541 1666 
Q 2234 1541 1622 1453 
Q 1275 1403 1131 1340 
Q 988 1278 909 1158 
Q 831 1038 831 891 
Q 831 666 1001 516 
Q 1172 366 1500 366 
Q 1825 366 2078 508 
Q 2331 650 2450 897 
Q 2541 1088 2541 1459 
L 2541 1666 
z
" transform="scale(0.015625)"/>
       <path id="ArialMT-70" d="M 422 -1272 
L 422 3319 
L 934 3319 
L 934 2888 
Q 1116 3141 1344 3267 
Q 1572 3394 1897 3394 
Q 2322 3394 2647 3175 
Q 2972 2956 3137 2557 
Q 3303 2159 3303 1684 
Q 3303 1175 3120 767 
Q 2938 359 2589 142 
Q 2241 -75 1856 -75 
Q 1575 -75 1351 44 
Q 1128 163 984 344 
L 984 -1272 
L 422 -1272 
z
M 931 1641 
Q 931 1000 1190 694 
Q 1450 388 1819 388 
Q 2194 388 2461 705 
Q 2728 1022 2728 1688 
Q 2728 2322 2467 2637 
Q 2206 2953 1844 2953 
Q 1484 2953 1207 2617 
Q 931 2281 931 1641 
z
" transform="scale(0.015625)"/>
       <path id="ArialMT-73" d="M 197 991 
L 753 1078 
Q 800 744 1014 566 
Q 1228 388 1613 388 
Q 2000 388 2187 545 
Q 2375 703 2375 916 
Q 2375 1106 2209 1216 
Q 2094 1291 1634 1406 
Q 1016 1563 777 1677 
Q 538 1791 414 1992 
Q 291 2194 291 2438 
Q 291 2659 392 2848 
Q 494 3038 669 3163 
Q 800 3259 1026 3326 
Q 1253 3394 1513 3394 
Q 1903 3394 2198 3281 
Q 2494 3169 2634 2976 
Q 2775 2784 2828 2463 
L 2278 2388 
Q 2241 2644 2061 2787 
Q 1881 2931 1553 2931 
Q 1166 2931 1000 2803 
Q 834 2675 834 2503 
Q 834 2394 903 2306 
Q 972 2216 1119 2156 
Q 1203 2125 1616 2013 
Q 2213 1853 2448 1751 
Q 2684 1650 2818 1456 
Q 2953 1263 2953 975 
Q 2953 694 2789 445 
Q 2625 197 2315 61 
Q 2006 -75 1616 -75 
Q 969 -75 630 194 
Q 291 463 197 991 
z
" transform="scale(0.015625)"/>
       <path id="ArialMT-65" d="M 2694 1069 
L 3275 997 
Q 3138 488 2766 206 
Q 2394 -75 1816 -75 
Q 1088 -75 661 373 
Q 234 822 234 1631 
Q 234 2469 665 2931 
Q 1097 3394 1784 3394 
Q 2450 3394 2872 2941 
Q 3294 2488 3294 1666 
Q 3294 1616 3291 1516 
L 816 1516 
Q 847 969 1125 678 
Q 1403 388 1819 388 
Q 2128 388 2347 550 
Q 2566 713 2694 1069 
z
M 847 1978 
L 2700 1978 
Q 2663 2397 2488 2606 
Q 2219 2931 1791 2931 
Q 1403 2931 1139 2672 
Q 875 2413 847 1978 
z
" transform="scale(0.015625)"/>
       <path id="ArialMT-64" d="M 2575 0 
L 2575 419 
Q 2259 -75 1647 -75 
Q 1250 -75 917 144 
Q 584 363 401 755 
Q 219 1147 219 1656 
Q 219 2153 384 2558 
Q 550 2963 881 3178 
Q 1213 3394 1622 3394 
Q 1922 3394 2156 3267 
Q 2391 3141 2538 2938 
L 2538 4581 
L 3097 4581 
L 3097 0 
L 2575 0 
z
M 797 1656 
Q 797 1019 1065 703 
Q 1334 388 1700 388 
Q 2069 388 2326 689 
Q 2584 991 2584 1609 
Q 2584 2291 2321 2609 
Q 2059 2928 1675 2928 
Q 1300 2928 1048 2622 
Q 797 2316 797 1656 
z
" transform="scale(0.015625)"/>
       <path id="ArialMT-20" transform="scale(0.015625)"/>
       <path id="ArialMT-54" d="M 1659 0 
L 1659 4041 
L 150 4041 
L 150 4581 
L 3781 4581 
L 3781 4041 
L 2266 4041 
L 2266 0 
L 1659 0 
z
" transform="scale(0.015625)"/>
       <path id="ArialMT-69" d="M 425 3934 
L 425 4581 
L 988 4581 
L 988 3934 
L 425 3934 
z
M 425 0 
L 425 3319 
L 988 3319 
L 988 0 
L 425 0 
z
" transform="scale(0.015625)"/>
       <path id="ArialMT-6d" d="M 422 0 
L 422 3319 
L 925 3319 
L 925 2853 
Q 1081 3097 1340 3245 
Q 1600 3394 1931 3394 
Q 2300 3394 2536 3241 
Q 2772 3088 2869 2813 
Q 3263 3394 3894 3394 
Q 4388 3394 4653 3120 
Q 4919 2847 4919 2278 
L 4919 0 
L 4359 0 
L 4359 2091 
Q 4359 2428 4304 2576 
Q 4250 2725 4106 2815 
Q 3963 2906 3769 2906 
Q 3419 2906 3187 2673 
Q 2956 2441 2956 1928 
L 2956 0 
L 2394 0 
L 2394 2156 
Q 2394 2531 2256 2718 
Q 2119 2906 1806 2906 
Q 1569 2906 1367 2781 
Q 1166 2656 1075 2415 
Q 984 2175 984 1722 
L 984 0 
L 422 0 
z
" transform="scale(0.015625)"/>
       <path id="ArialMT-28" d="M 1497 -1347 
Q 1031 -759 709 28 
Q 388 816 388 1659 
Q 388 2403 628 3084 
Q 909 3875 1497 4659 
L 1900 4659 
Q 1522 4009 1400 3731 
Q 1209 3300 1100 2831 
Q 966 2247 966 1656 
Q 966 153 1900 -1347 
L 1497 -1347 
z
" transform="scale(0.015625)"/>
       <path id="ArialMT-63" d="M 2588 1216 
L 3141 1144 
Q 3050 572 2676 248 
Q 2303 -75 1759 -75 
Q 1078 -75 664 370 
Q 250 816 250 1647 
Q 250 2184 428 2587 
Q 606 2991 970 3192 
Q 1334 3394 1763 3394 
Q 2303 3394 2647 3120 
Q 2991 2847 3088 2344 
L 2541 2259 
Q 2463 2594 2264 2762 
Q 2066 2931 1784 2931 
Q 1359 2931 1093 2626 
Q 828 2322 828 1663 
Q 828 994 1084 691 
Q 1341 388 1753 388 
Q 2084 388 2306 591 
Q 2528 794 2588 1216 
z
" transform="scale(0.015625)"/>
       <path id="ArialMT-29" d="M 791 -1347 
L 388 -1347 
Q 1322 153 1322 1656 
Q 1322 2244 1188 2822 
Q 1081 3291 891 3722 
Q 769 4003 388 4659 
L 791 4659 
Q 1378 3875 1659 3084 
Q 1900 2403 1900 1659 
Q 1900 816 1576 28 
Q 1253 -759 791 -1347 
z
" transform="scale(0.015625)"/>
      </defs>
      <use xlink:href="#ArialMT-45"/>
      <use xlink:href="#ArialMT-6c" transform="translate(66.699219 0)"/>
      <use xlink:href="#ArialMT-61" transform="translate(88.916016 0)"/>
      <use xlink:href="#ArialMT-70" transform="translate(144.53125 0)"/>
      <use xlink:href="#ArialMT-73" transform="translate(200.146484 0)"/>
      <use xlink:href="#ArialMT-65" transform="translate(250.146484 0)"/>
      <use xlink:href="#ArialMT-64" transform="translate(305.761719 0)"/>
      <use xlink:href="#ArialMT-20" transform="translate(361.376953 0)"/>
      <use xlink:href="#ArialMT-54" transform="translate(387.410156 0)"/>
      <use xlink:href="#ArialMT-69" transform="translate(444.744141 0)"/>
      <use xlink:href="#ArialMT-6d" transform="translate(466.960938 0)"/>
      <use xlink:href="#ArialMT-65" transform="translate(550.261719 0)"/>
      <use xlink:href="#ArialMT-20" transform="translate(605.876953 0)"/>
      <use xlink:href="#ArialMT-28" transform="translate(633.660156 0)"/>
      <use xlink:href="#ArialMT-73" transform="translate(666.960938 0)"/>
      <use xlink:href="#ArialMT-65" transform="translate(716.960938 0)"/>
      <use xlink:href="#ArialMT-63" transform="translate(772.576172 0)"/>
      <use xlink:href="#ArialMT-29" transform="translate(822.576172 0)"/>
     </g>
    </g>
   </g>
   <g id="matplotlib.axis_2">
    <g id="ytick_1">
     <g id="line2d_7">
      <path d="M 41.392188 232.362102 
L 432.535937 232.362102 
" clip-path="url(#pd7af6ee8ed)" style="fill: none; stroke: #cccccc; stroke-opacity: 0.3; stroke-width: 0.8; stroke-linecap: round"/>
     </g>
     <g id="text_8">
      <!-- 0.8 -->
      <g style="fill: #262626" transform="translate(20.492188 235.941009) scale(0.1 -0.1)">
       <defs>
        <path id="ArialMT-2e" d="M 581 0 
L 581 641 
L 1222 641 
L 1222 0 
L 581 0 
z
" transform="scale(0.015625)"/>
        <path id="ArialMT-38" d="M 1131 2484 
Q 781 2613 612 2850 
Q 444 3088 444 3419 
Q 444 3919 803 4259 
Q 1163 4600 1759 4600 
Q 2359 4600 2725 4251 
Q 3091 3903 3091 3403 
Q 3091 3084 2923 2848 
Q 2756 2613 2416 2484 
Q 2838 2347 3058 2040 
Q 3278 1734 3278 1309 
Q 3278 722 2862 322 
Q 2447 -78 1769 -78 
Q 1091 -78 675 323 
Q 259 725 259 1325 
Q 259 1772 486 2073 
Q 713 2375 1131 2484 
z
M 1019 3438 
Q 1019 3113 1228 2906 
Q 1438 2700 1772 2700 
Q 2097 2700 2305 2904 
Q 2513 3109 2513 3406 
Q 2513 3716 2298 3927 
Q 2084 4138 1766 4138 
Q 1444 4138 1231 3931 
Q 1019 3725 1019 3438 
z
M 838 1322 
Q 838 1081 952 856 
Q 1066 631 1291 507 
Q 1516 384 1775 384 
Q 2178 384 2440 643 
Q 2703 903 2703 1303 
Q 2703 1709 2433 1975 
Q 2163 2241 1756 2241 
Q 1359 2241 1098 1978 
Q 838 1716 838 1322 
z
" transform="scale(0.015625)"/>
       </defs>
       <use xlink:href="#ArialMT-30"/>
       <use xlink:href="#ArialMT-2e" transform="translate(55.615234 0)"/>
       <use xlink:href="#ArialMT-38" transform="translate(83.398438 0)"/>
      </g>
     </g>
    </g>
    <g id="ytick_2">
     <g id="line2d_8">
      <path d="M 41.392188 198.600241 
L 432.535937 198.600241 
" clip-path="url(#pd7af6ee8ed)" style="fill: none; stroke: #cccccc; stroke-opacity: 0.3; stroke-width: 0.8; stroke-linecap: round"/>
     </g>
     <g id="text_9">
      <!-- 0.9 -->
      <g style="fill: #262626" transform="translate(20.492188 202.179147) scale(0.1 -0.1)">
       <defs>
        <path id="ArialMT-39" d="M 350 1059 
L 891 1109 
Q 959 728 1153 556 
Q 1347 384 1650 384 
Q 1909 384 2104 503 
Q 2300 622 2425 820 
Q 2550 1019 2634 1356 
Q 2719 1694 2719 2044 
Q 2719 2081 2716 2156 
Q 2547 1888 2255 1720 
Q 1963 1553 1622 1553 
Q 1053 1553 659 1965 
Q 266 2378 266 3053 
Q 266 3750 677 4175 
Q 1088 4600 1706 4600 
Q 2153 4600 2523 4359 
Q 2894 4119 3086 3673 
Q 3278 3228 3278 2384 
Q 3278 1506 3087 986 
Q 2897 466 2520 194 
Q 2144 -78 1638 -78 
Q 1100 -78 759 220 
Q 419 519 350 1059 
z
M 2653 3081 
Q 2653 3566 2395 3850 
Q 2138 4134 1775 4134 
Q 1400 4134 1122 3828 
Q 844 3522 844 3034 
Q 844 2597 1108 2323 
Q 1372 2050 1759 2050 
Q 2150 2050 2401 2323 
Q 2653 2597 2653 3081 
z
" transform="scale(0.015625)"/>
       </defs>
       <use xlink:href="#ArialMT-30"/>
       <use xlink:href="#ArialMT-2e" transform="translate(55.615234 0)"/>
       <use xlink:href="#ArialMT-39" transform="translate(83.398438 0)"/>
      </g>
     </g>
    </g>
    <g id="ytick_3">
     <g id="line2d_9">
      <path d="M 41.392188 164.83838 
L 432.535937 164.83838 
" clip-path="url(#pd7af6ee8ed)" style="fill: none; stroke: #cccccc; stroke-opacity: 0.3; stroke-width: 0.8; stroke-linecap: round"/>
     </g>
     <g id="text_10">
      <!-- 1.0 -->
      <g style="fill: #262626" transform="translate(20.492188 168.417286) scale(0.1 -0.1)">
       <use xlink:href="#ArialMT-31"/>
       <use xlink:href="#ArialMT-2e" transform="translate(55.615234 0)"/>
       <use xlink:href="#ArialMT-30" transform="translate(83.398438 0)"/>
      </g>
     </g>
    </g>
    <g id="ytick_4">
     <g id="line2d_10">
      <path d="M 41.392188 131.076519 
L 432.535937 131.076519 
" clip-path="url(#pd7af6ee8ed)" style="fill: none; stroke: #cccccc; stroke-opacity: 0.3; stroke-width: 0.8; stroke-linecap: round"/>
     </g>
     <g id="text_11">
      <!-- 1.1 -->
      <g style="fill: #262626" transform="translate(20.492188 134.655425) scale(0.1 -0.1)">
       <use xlink:href="#ArialMT-31"/>
       <use xlink:href="#ArialMT-2e" transform="translate(55.615234 0)"/>
       <use xlink:href="#ArialMT-31" transform="translate(83.398438 0)"/>
      </g>
     </g>
    </g>
    <g id="ytick_5">
     <g id="line2d_11">
      <path d="M 41.392188 97.314658 
L 432.535937 97.314658 
" clip-path="url(#pd7af6ee8ed)" style="fill: none; stroke: #cccccc; stroke-opacity: 0.3; stroke-width: 0.8; stroke-linecap: round"/>
     </g>
     <g id="text_12">
      <!-- 1.2 -->
      <g style="fill: #262626" transform="translate(20.492188 100.893564) scale(0.1 -0.1)">
       <use xlink:href="#ArialMT-31"/>
       <use xlink:href="#ArialMT-2e" transform="translate(55.615234 0)"/>
       <use xlink:href="#ArialMT-32" transform="translate(83.398438 0)"/>
      </g>
     </g>
    </g>
    <g id="ytick_6">
     <g id="line2d_12">
      <path d="M 41.392188 63.552797 
L 432.535937 63.552797 
" clip-path="url(#pd7af6ee8ed)" style="fill: none; stroke: #cccccc; stroke-opacity: 0.3; stroke-width: 0.8; stroke-linecap: round"/>
     </g>
     <g id="text_13">
      <!-- 1.3 -->
      <g style="fill: #262626" transform="translate(20.492188 67.131703) scale(0.1 -0.1)">
       <defs>
        <path id="ArialMT-33" d="M 269 1209 
L 831 1284 
Q 928 806 1161 595 
Q 1394 384 1728 384 
Q 2125 384 2398 659 
Q 2672 934 2672 1341 
Q 2672 1728 2419 1979 
Q 2166 2231 1775 2231 
Q 1616 2231 1378 2169 
L 1441 2663 
Q 1497 2656 1531 2656 
Q 1891 2656 2178 2843 
Q 2466 3031 2466 3422 
Q 2466 3731 2256 3934 
Q 2047 4138 1716 4138 
Q 1388 4138 1169 3931 
Q 950 3725 888 3313 
L 325 3413 
Q 428 3978 793 4289 
Q 1159 4600 1703 4600 
Q 2078 4600 2393 4439 
Q 2709 4278 2876 4000 
Q 3044 3722 3044 3409 
Q 3044 3113 2884 2869 
Q 2725 2625 2413 2481 
Q 2819 2388 3044 2092 
Q 3269 1797 3269 1353 
Q 3269 753 2831 336 
Q 2394 -81 1725 -81 
Q 1122 -81 723 278 
Q 325 638 269 1209 
z
" transform="scale(0.015625)"/>
       </defs>
       <use xlink:href="#ArialMT-31"/>
       <use xlink:href="#ArialMT-2e" transform="translate(55.615234 0)"/>
       <use xlink:href="#ArialMT-33" transform="translate(83.398438 0)"/>
      </g>
     </g>
    </g>
    <g id="ytick_7">
     <g id="line2d_13">
      <path d="M 41.392188 29.790936 
L 432.535937 29.790936 
" clip-path="url(#pd7af6ee8ed)" style="fill: none; stroke: #cccccc; stroke-opacity: 0.3; stroke-width: 0.8; stroke-linecap: round"/>
     </g>
     <g id="text_14">
      <!-- 1.4 -->
      <g style="fill: #262626" transform="translate(20.492188 33.369842) scale(0.1 -0.1)">
       <defs>
        <path id="ArialMT-34" d="M 2069 0 
L 2069 1097 
L 81 1097 
L 81 1613 
L 2172 4581 
L 2631 4581 
L 2631 1613 
L 3250 1613 
L 3250 1097 
L 2631 1097 
L 2631 0 
L 2069 0 
z
M 2069 1613 
L 2069 3678 
L 634 1613 
L 2069 1613 
z
" transform="scale(0.015625)"/>
       </defs>
       <use xlink:href="#ArialMT-31"/>
       <use xlink:href="#ArialMT-2e" transform="translate(55.615234 0)"/>
       <use xlink:href="#ArialMT-34" transform="translate(83.398438 0)"/>
      </g>
     </g>
    </g>
    <g id="text_15">
     <!-- Mean pkg_j per 1s Bin -->
     <g style="fill: #262626" transform="translate(14.3875 181.837031) rotate(-90) scale(0.1 -0.1)">
      <defs>
       <path id="ArialMT-4d" d="M 475 0 
L 475 4581 
L 1388 4581 
L 2472 1338 
Q 2622 884 2691 659 
Q 2769 909 2934 1394 
L 4031 4581 
L 4847 4581 
L 4847 0 
L 4263 0 
L 4263 3834 
L 2931 0 
L 2384 0 
L 1059 3900 
L 1059 0 
L 475 0 
z
" transform="scale(0.015625)"/>
       <path id="ArialMT-6e" d="M 422 0 
L 422 3319 
L 928 3319 
L 928 2847 
Q 1294 3394 1984 3394 
Q 2284 3394 2536 3286 
Q 2788 3178 2913 3003 
Q 3038 2828 3088 2588 
Q 3119 2431 3119 2041 
L 3119 0 
L 2556 0 
L 2556 2019 
Q 2556 2363 2490 2533 
Q 2425 2703 2258 2804 
Q 2091 2906 1866 2906 
Q 1506 2906 1245 2678 
Q 984 2450 984 1813 
L 984 0 
L 422 0 
z
" transform="scale(0.015625)"/>
       <path id="ArialMT-6b" d="M 425 0 
L 425 4581 
L 988 4581 
L 988 1969 
L 2319 3319 
L 3047 3319 
L 1778 2088 
L 3175 0 
L 2481 0 
L 1384 1697 
L 988 1316 
L 988 0 
L 425 0 
z
" transform="scale(0.015625)"/>
       <path id="ArialMT-67" d="M 319 -275 
L 866 -356 
Q 900 -609 1056 -725 
Q 1266 -881 1628 -881 
Q 2019 -881 2231 -725 
Q 2444 -569 2519 -288 
Q 2563 -116 2559 434 
Q 2191 0 1641 0 
Q 956 0 581 494 
Q 206 988 206 1678 
Q 206 2153 378 2554 
Q 550 2956 876 3175 
Q 1203 3394 1644 3394 
Q 2231 3394 2613 2919 
L 2613 3319 
L 3131 3319 
L 3131 450 
Q 3131 -325 2973 -648 
Q 2816 -972 2473 -1159 
Q 2131 -1347 1631 -1347 
Q 1038 -1347 672 -1080 
Q 306 -813 319 -275 
z
M 784 1719 
Q 784 1066 1043 766 
Q 1303 466 1694 466 
Q 2081 466 2343 764 
Q 2606 1063 2606 1700 
Q 2606 2309 2336 2618 
Q 2066 2928 1684 2928 
Q 1309 2928 1046 2623 
Q 784 2319 784 1719 
z
" transform="scale(0.015625)"/>
       <path id="ArialMT-5f" d="M -97 -1272 
L -97 -866 
L 3631 -866 
L 3631 -1272 
L -97 -1272 
z
" transform="scale(0.015625)"/>
       <path id="ArialMT-6a" d="M 419 3928 
L 419 4581 
L 981 4581 
L 981 3928 
L 419 3928 
z
M -294 -1288 
L -188 -809 
Q -19 -853 78 -853 
Q 250 -853 334 -739 
Q 419 -625 419 -169 
L 419 3319 
L 981 3319 
L 981 -181 
Q 981 -794 822 -1034 
Q 619 -1347 147 -1347 
Q -81 -1347 -294 -1288 
z
" transform="scale(0.015625)"/>
       <path id="ArialMT-72" d="M 416 0 
L 416 3319 
L 922 3319 
L 922 2816 
Q 1116 3169 1280 3281 
Q 1444 3394 1641 3394 
Q 1925 3394 2219 3213 
L 2025 2691 
Q 1819 2813 1613 2813 
Q 1428 2813 1281 2702 
Q 1134 2591 1072 2394 
Q 978 2094 978 1738 
L 978 0 
L 416 0 
z
" transform="scale(0.015625)"/>
       <path id="ArialMT-42" d="M 469 0 
L 469 4581 
L 2188 4581 
Q 2713 4581 3030 4442 
Q 3347 4303 3526 4014 
Q 3706 3725 3706 3409 
Q 3706 3116 3547 2856 
Q 3388 2597 3066 2438 
Q 3481 2316 3704 2022 
Q 3928 1728 3928 1328 
Q 3928 1006 3792 729 
Q 3656 453 3456 303 
Q 3256 153 2954 76 
Q 2653 0 2216 0 
L 469 0 
z
M 1075 2656 
L 2066 2656 
Q 2469 2656 2644 2709 
Q 2875 2778 2992 2937 
Q 3109 3097 3109 3338 
Q 3109 3566 3000 3739 
Q 2891 3913 2687 3977 
Q 2484 4041 1991 4041 
L 1075 4041 
L 1075 2656 
z
M 1075 541 
L 2216 541 
Q 2509 541 2628 563 
Q 2838 600 2978 687 
Q 3119 775 3209 942 
Q 3300 1109 3300 1328 
Q 3300 1584 3169 1773 
Q 3038 1963 2805 2039 
Q 2572 2116 2134 2116 
L 1075 2116 
L 1075 541 
z
" transform="scale(0.015625)"/>
      </defs>
      <use xlink:href="#ArialMT-4d"/>
      <use xlink:href="#ArialMT-65" transform="translate(83.300781 0)"/>
      <use xlink:href="#ArialMT-61" transform="translate(138.916016 0)"/>
      <use xlink:href="#ArialMT-6e" transform="translate(194.53125 0)"/>
      <use xlink:href="#ArialMT-20" transform="translate(250.146484 0)"/>
      <use xlink:href="#ArialMT-70" transform="translate(277.929688 0)"/>
      <use xlink:href="#ArialMT-6b" transform="translate(333.544922 0)"/>
      <use xlink:href="#ArialMT-67" transform="translate(383.544922 0)"/>
      <use xlink:href="#ArialMT-5f" transform="translate(439.160156 0)"/>
      <use xlink:href="#ArialMT-6a" transform="translate(494.775391 0)"/>
      <use xlink:href="#ArialMT-20" transform="translate(516.992188 0)"/>
      <use xlink:href="#ArialMT-70" transform="translate(544.775391 0)"/>
      <use xlink:href="#ArialMT-65" transform="translate(600.390625 0)"/>
      <use xlink:href="#ArialMT-72" transform="translate(656.005859 0)"/>
      <use xlink:href="#ArialMT-20" transform="translate(689.306641 0)"/>
      <use xlink:href="#ArialMT-31" transform="translate(717.089844 0)"/>
      <use xlink:href="#ArialMT-73" transform="translate(772.705078 0)"/>
      <use xlink:href="#ArialMT-20" transform="translate(822.705078 0)"/>
      <use xlink:href="#ArialMT-42" transform="translate(850.488281 0)"/>
      <use xlink:href="#ArialMT-69" transform="translate(917.1875 0)"/>
      <use xlink:href="#ArialMT-6e" transform="translate(939.404297 0)"/>
     </g>
    </g>
   </g>
   <g id="line2d_14">
    <path d="M 41.392188 87.1861 
L 42.840868 75.369448 
L 44.289549 80.096109 
L 45.738229 75.03183 
L 47.18691 73.343737 
L 48.63559 76.719923 
L 50.084271 70.980407 
L 52.981632 76.382304 
L 54.430313 68.279458 
L 55.878993 70.642788 
L 57.327674 69.967551 
L 58.776354 65.916127 
L 60.225035 73.343737 
L 61.673715 68.279458 
L 63.122396 60.51423 
L 64.571076 72.6685 
L 66.019757 66.591365 
L 67.468438 71.993262 
L 68.917118 65.578509 
L 70.365799 61.189467 
L 71.814479 69.629932 
L 73.26316 65.578509 
L 74.71184 71.655644 
L 76.160521 64.903272 
L 77.609201 61.527085 
L 79.057882 69.292313 
L 80.506563 64.903272 
L 81.955243 65.24089 
L 83.403924 70.980407 
L 84.852604 59.838992 
L 86.301285 70.305169 
L 87.749965 62.202323 
L 89.198646 64.228034 
L 90.647326 70.305169 
L 92.096007 55.112332 
L 93.544688 62.202323 
L 94.993368 70.980407 
L 96.442049 67.60422 
L 97.890729 70.642788 
L 99.33941 58.150899 
L 100.78809 61.864704 
L 102.236771 67.941839 
L 103.685451 60.51423 
L 105.134132 63.215178 
L 106.582813 63.215178 
L 108.031493 56.800425 
L 109.480174 69.292313 
L 110.928854 59.838992 
L 112.377535 60.851848 
L 113.826215 66.591365 
L 115.274896 58.488518 
L 116.723576 58.826137 
L 118.172257 67.266602 
L 119.620938 60.176611 
L 121.069618 67.60422 
L 122.518299 58.826137 
L 123.966979 61.189467 
L 125.41566 66.591365 
L 126.86434 61.527085 
L 128.313021 55.787569 
L 129.761701 65.578509 
L 131.210382 60.176611 
L 132.659063 66.253746 
L 134.107743 56.800425 
L 135.556424 57.138044 
L 137.005104 60.176611 
L 138.453785 59.838992 
L 139.902465 62.87756 
L 141.351146 62.87756 
L 142.799826 56.462806 
L 144.248507 64.228034 
L 145.697187 55.787569 
L 147.145868 58.488518 
L 148.594549 67.266602 
L 150.043229 59.163755 
L 151.49191 60.176611 
L 152.94059 58.150899 
L 154.389271 56.462806 
L 155.837951 66.253746 
L 157.286632 58.150899 
L 158.735313 56.125188 
L 160.183993 63.215178 
L 161.632674 57.475662 
L 163.081354 62.87756 
L 164.530035 58.488518 
L 165.978715 55.112332 
L 167.427396 63.890416 
L 168.876076 58.150899 
L 170.324757 59.501374 
L 171.773438 59.501374 
L 173.222118 56.125188 
L 174.670799 62.539941 
L 176.119479 55.44995 
L 177.56816 56.800425 
L 179.01684 61.864704 
L 180.465521 43.670812 
L 181.914201 55.44995 
L 183.362882 63.215178 
L 184.811563 55.112332 
L 186.260243 61.527085 
L 187.708924 31.816648 
L 189.157604 55.112332 
L 190.606285 63.890416 
L 192.054965 57.475662 
L 193.503646 58.150899 
L 194.952326 58.150899 
L 196.401007 54.099476 
L 197.849688 63.890416 
L 199.298368 56.800425 
L 200.747049 55.44995 
L 202.195729 63.552797 
L 203.64441 53.08662 
L 205.09309 53.08662 
L 206.541771 59.163755 
L 207.990451 56.800425 
L 209.439132 63.215178 
L 210.887812 53.761857 
L 212.336493 56.800425 
L 213.785174 35.417913 
L 215.233854 56.462806 
L 216.682535 57.138044 
L 218.131215 58.826137 
L 219.579896 55.787569 
L 221.028576 63.890416 
L 222.477257 51.736146 
L 223.925938 56.800425 
L 225.374618 59.838992 
L 226.823299 53.08662 
L 228.271979 60.51423 
L 229.72066 55.787569 
L 231.16934 54.099476 
L 232.618021 58.150899 
L 234.066701 52.073764 
L 235.515382 56.462806 
L 236.964063 61.864704 
L 238.412743 51.736146 
L 239.861424 59.838992 
L 241.310104 52.749002 
L 242.758785 54.774713 
L 244.207465 62.539941 
L 245.656146 54.774713 
L 247.104826 52.411383 
L 248.553507 60.176611 
L 250.002187 55.44995 
L 251.450868 60.851848 
L 252.899549 54.437095 
L 254.348229 54.437095 
L 255.79691 60.51423 
L 257.24559 52.298843 
L 258.694271 55.787569 
L 260.142951 58.826137 
L 261.591632 53.08662 
L 263.040313 61.527085 
L 264.488993 49.372815 
L 265.937674 54.774713 
L 267.386354 61.864704 
L 268.835035 35.530452 
L 270.283715 54.099476 
L 271.732396 57.813281 
L 273.181076 51.060909 
L 274.629757 61.864704 
L 276.078438 53.424239 
L 277.527118 56.462806 
L 278.975799 61.189467 
L 280.424479 56.125188 
L 281.87316 54.437095 
L 283.32184 59.163755 
L 284.770521 54.774713 
L 286.219201 60.851848 
L 287.667882 52.073764 
L 289.116562 55.112332 
L 290.565243 59.163755 
L 292.013924 54.774713 
L 293.462604 52.749002 
L 294.911285 56.800425 
L 296.359965 53.761857 
L 297.808646 60.51423 
L 299.257326 51.060909 
L 300.706007 49.372815 
L 302.154688 58.488518 
L 303.603368 54.099476 
L 305.052049 56.800425 
L 306.500729 56.050161 
L 307.94941 52.411383 
L 309.39809 62.202323 
L 310.846771 55.44995 
L 312.295451 55.44995 
L 313.744132 58.488518 
L 315.192812 52.411383 
L 316.641493 53.761857 
L 318.090174 61.527085 
L 319.538854 56.800425 
L 320.987535 63.215178 
L 322.436215 52.749002 
L 323.884896 51.060909 
L 325.333576 63.890416 
L 326.782257 56.125188 
L 328.230937 58.488518 
L 329.679618 58.826137 
L 331.128299 53.08662 
L 332.576979 57.138044 
L 334.02566 55.787569 
L 335.47434 54.774713 
L 336.923021 61.864704 
L 338.371701 52.073764 
L 339.820382 59.838992 
L 341.269063 54.774713 
L 342.717743 54.437095 
L 344.166424 63.215178 
L 345.615104 53.08662 
L 347.063785 55.112332 
L 348.512465 59.838992 
L 349.961146 54.099476 
L 351.409826 64.565653 
L 352.858507 54.437095 
L 354.307188 55.787569 
L 355.755868 64.228034 
L 357.204549 51.398527 
L 358.653229 57.475662 
L 360.10191 54.774713 
L 361.55059 57.475662 
L 362.999271 64.565653 
L 364.447951 54.774713 
L 365.896632 53.424239 
L 367.345312 62.202323 
L 368.793993 57.138044 
L 370.242674 58.150899 
L 371.691354 60.51423 
L 373.140035 56.125188 
L 374.588715 62.202323 
L 376.037396 55.787569 
L 377.486076 56.462806 
L 378.934757 59.501374 
L 380.383438 56.125188 
L 381.832118 57.813281 
L 383.280799 57.813281 
L 384.729479 56.125188 
L 386.17816 62.539941 
L 387.62684 54.437095 
L 389.075521 56.425293 
L 390.524201 61.527085 
L 391.972882 52.749002 
L 393.421563 57.813281 
L 394.870243 59.838992 
L 396.318924 56.800425 
L 397.767604 60.51423 
L 399.216285 55.44995 
L 400.664965 54.774713 
L 402.113646 62.202323 
L 403.562326 55.44995 
L 405.011007 58.826137 
L 406.459687 58.488518 
L 407.908368 55.787569 
L 409.357049 61.864704 
L 410.805729 56.800425 
L 412.25441 57.475662 
L 413.70309 60.176611 
L 415.151771 57.813281 
L 416.600451 59.501374 
L 418.049132 60.851848 
L 419.497813 56.800425 
L 420.946493 60.176611 
L 422.395174 55.44995 
L 423.843854 54.774713 
L 425.292535 60.176611 
L 425.292535 60.176611 
" clip-path="url(#pd7af6ee8ed)" style="fill: none; stroke: #1f77b4; stroke-width: 2; stroke-linecap: round"/>
   </g>
   <g id="line2d_15">
    <path d="M 41.392188 90.224667 
L 42.840868 88.198956 
L 44.289549 87.523718 
L 45.738229 88.198956 
L 47.18691 82.121821 
L 48.63559 84.147532 
L 50.084271 86.848481 
L 51.532951 84.485151 
L 52.981632 85.835625 
L 54.430313 85.498007 
L 55.878993 81.446583 
L 57.327674 81.446583 
L 58.776354 83.472295 
L 60.225035 82.459439 
L 61.673715 81.108965 
L 63.122396 77.39516 
L 64.571076 82.797058 
L 66.019757 78.070397 
L 67.468438 78.408016 
L 68.917118 78.745635 
L 70.365799 75.369448 
L 71.814479 80.096109 
L 73.26316 75.707067 
L 74.71184 78.745635 
L 76.160521 77.732779 
L 77.609201 74.356593 
L 79.057882 77.732779 
L 80.506563 78.745635 
L 81.955243 77.39516 
L 83.403924 77.39516 
L 84.852604 74.018974 
L 86.301285 76.719923 
L 87.749965 79.420872 
L 89.198646 77.39516 
L 90.647326 76.382304 
L 92.096007 73.681355 
L 93.544688 77.39516 
L 94.993368 78.408016 
L 96.442049 78.070397 
L 97.890729 78.070397 
L 99.33941 73.343737 
L 100.78809 76.719923 
L 102.236771 79.083253 
L 103.685451 77.732779 
L 105.134132 74.018974 
L 106.582813 69.292313 
L 108.031493 75.03183 
L 109.480174 74.018974 
L 110.928854 76.044686 
L 112.377535 73.681355 
L 113.826215 69.292313 
L 115.274896 68.42951 
L 116.723576 74.356593 
L 118.172257 75.369448 
L 119.620938 68.954695 
L 121.069618 73.343737 
L 122.518299 69.967551 
L 123.966979 73.006118 
L 125.41566 74.356593 
L 126.86434 74.694211 
L 128.313021 70.305169 
L 129.761701 71.655644 
L 131.210382 68.279458 
L 132.659063 74.356593 
L 134.107743 73.343737 
L 135.556424 70.642788 
L 137.005104 70.305169 
L 138.453785 71.655644 
L 139.902465 75.707067 
L 141.351146 74.694211 
L 142.799826 73.343737 
L 144.248507 73.006118 
L 145.697187 76.719923 
L 147.145868 72.6685 
L 148.594549 75.369448 
L 150.043229 74.356593 
L 151.49191 72.6685 
L 152.94059 75.707067 
L 154.389271 76.382304 
L 155.837951 71.655644 
L 157.286632 75.03183 
L 158.735313 71.993262 
L 160.183993 75.369448 
L 161.632674 75.03183 
L 163.081354 73.343737 
L 164.530035 75.369448 
L 165.978715 71.993262 
L 167.427396 74.018974 
L 168.876076 74.694211 
L 170.324757 74.694211 
L 171.773438 70.305169 
L 173.222118 70.980407 
L 174.670799 74.356593 
L 176.119479 73.343737 
L 177.56816 75.369448 
L 179.01684 75.369448 
L 180.465521 70.642788 
L 181.914201 72.330881 
L 183.362882 191.847869 
" clip-path="url(#pd7af6ee8ed)" style="fill: none; stroke: #ff7f0e; stroke-width: 2; stroke-linecap: round"/>
   </g>
   <g id="patch_3">
    <path d="M 41.392188 242.389375 
L 41.392188 21.789375 
" style="fill: none; stroke: #cccccc; stroke-width: 0.8; stroke-linejoin: miter; stroke-linecap: square"/>
   </g>
   <g id="patch_4">
    <path d="M 432.535937 242.389375 
L 432.535937 21.789375 
" style="fill: none; stroke: #cccccc; stroke-width: 0.8; stroke-linejoin: miter; stroke-linecap: square"/>
   </g>
   <g id="patch_5">
    <path d="M 41.392188 242.389375 
L 432.535938 242.389375 
" style="fill: none; stroke: #cccccc; stroke-width: 0.8; stroke-linejoin: miter; stroke-linecap: square"/>
   </g>
   <g id="patch_6">
    <path d="M 41.392188 21.789375 
L 432.535938 21.789375 
" style="fill: none; stroke: #cccccc; stroke-width: 0.8; stroke-linejoin: miter; stroke-linecap: square"/>
   </g>
   <g id="text_16">
    <!-- PE017 — PC2 all cores -->
    <g style="fill: #262626" transform="translate(173.936875 15.789375) scale(0.12 -0.12)">
     <defs>
      <path id="ArialMT-50" d="M 494 0 
L 494 4581 
L 2222 4581 
Q 2678 4581 2919 4538 
Q 3256 4481 3484 4323 
Q 3713 4166 3852 3881 
Q 3991 3597 3991 3256 
Q 3991 2672 3619 2267 
Q 3247 1863 2275 1863 
L 1100 1863 
L 1100 0 
L 494 0 
z
M 1100 2403 
L 2284 2403 
Q 2872 2403 3119 2622 
Q 3366 2841 3366 3238 
Q 3366 3525 3220 3729 
Q 3075 3934 2838 4000 
Q 2684 4041 2272 4041 
L 1100 4041 
L 1100 2403 
z
" transform="scale(0.015625)"/>
      <path id="ArialMT-37" d="M 303 3981 
L 303 4522 
L 3269 4522 
L 3269 4084 
Q 2831 3619 2401 2847 
Q 1972 2075 1738 1259 
Q 1569 684 1522 0 
L 944 0 
Q 953 541 1156 1306 
Q 1359 2072 1739 2783 
Q 2119 3494 2547 3981 
L 303 3981 
z
" transform="scale(0.015625)"/>
      <path id="ArialMT-2014" d="M 0 1431 
L 0 1884 
L 6400 1884 
L 6400 1431 
L 0 1431 
z
" transform="scale(0.015625)"/>
      <path id="ArialMT-43" d="M 3763 1606 
L 4369 1453 
Q 4178 706 3683 314 
Q 3188 -78 2472 -78 
Q 1731 -78 1267 223 
Q 803 525 561 1097 
Q 319 1669 319 2325 
Q 319 3041 592 3573 
Q 866 4106 1370 4382 
Q 1875 4659 2481 4659 
Q 3169 4659 3637 4309 
Q 4106 3959 4291 3325 
L 3694 3184 
Q 3534 3684 3231 3912 
Q 2928 4141 2469 4141 
Q 1941 4141 1586 3887 
Q 1231 3634 1087 3207 
Q 944 2781 944 2328 
Q 944 1744 1114 1308 
Q 1284 872 1643 656 
Q 2003 441 2422 441 
Q 2931 441 3284 734 
Q 3638 1028 3763 1606 
z
" transform="scale(0.015625)"/>
      <path id="ArialMT-6f" d="M 213 1659 
Q 213 2581 725 3025 
Q 1153 3394 1769 3394 
Q 2453 3394 2887 2945 
Q 3322 2497 3322 1706 
Q 3322 1066 3130 698 
Q 2938 331 2570 128 
Q 2203 -75 1769 -75 
Q 1072 -75 642 372 
Q 213 819 213 1659 
z
M 791 1659 
Q 791 1022 1069 705 
Q 1347 388 1769 388 
Q 2188 388 2466 706 
Q 2744 1025 2744 1678 
Q 2744 2294 2464 2611 
Q 2184 2928 1769 2928 
Q 1347 2928 1069 2612 
Q 791 2297 791 1659 
z
" transform="scale(0.015625)"/>
     </defs>
     <use xlink:href="#ArialMT-50"/>
     <use xlink:href="#ArialMT-45" transform="translate(66.699219 0)"/>
     <use xlink:href="#ArialMT-30" transform="translate(133.398438 0)"/>
     <use xlink:href="#ArialMT-31" transform="translate(189.013672 0)"/>
     <use xlink:href="#ArialMT-37" transform="translate(244.628906 0)"/>
     <use xlink:href="#ArialMT-20" transform="translate(300.244141 0)"/>
     <use xlink:href="#ArialMT-2014" transform="translate(328.027344 0)"/>
     <use xlink:href="#ArialMT-20" transform="translate(428.027344 0)"/>
     <use xlink:href="#ArialMT-50" transform="translate(455.810547 0)"/>
     <use xlink:href="#ArialMT-43" transform="translate(522.509766 0)"/>
     <use xlink:href="#ArialMT-32" transform="translate(594.726562 0)"/>
     <use xlink:href="#ArialMT-20" transform="translate(650.341797 0)"/>
     <use xlink:href="#ArialMT-61" transform="translate(678.125 0)"/>
     <use xlink:href="#ArialMT-6c" transform="translate(733.740234 0)"/>
     <use xlink:href="#ArialMT-6c" transform="translate(755.957031 0)"/>
     <use xlink:href="#ArialMT-20" transform="translate(778.173828 0)"/>
     <use xlink:href="#ArialMT-63" transform="translate(805.957031 0)"/>
     <use xlink:href="#ArialMT-6f" transform="translate(855.957031 0)"/>
     <use xlink:href="#ArialMT-72" transform="translate(911.572266 0)"/>
     <use xlink:href="#ArialMT-65" transform="translate(944.873047 0)"/>
     <use xlink:href="#ArialMT-73" transform="translate(1000.488281 0)"/>
    </g>
   </g>
   <g id="legend_1">
    <g id="patch_7">
     <path d="M 48.392188 237.389375 
L 112.075 237.389375 
Q 114.075 237.389375 114.075 235.389375 
L 114.075 207.864375 
Q 114.075 205.864375 112.075 205.864375 
L 48.392188 205.864375 
Q 46.392188 205.864375 46.392188 207.864375 
L 46.392188 235.389375 
Q 46.392188 237.389375 48.392188 237.389375 
z
" style="fill: #ffffff; opacity: 0.8; stroke: #cccccc; stroke-linejoin: miter"/>
    </g>
    <g id="line2d_16">
     <path d="M 50.392188 213.522188 
L 60.392188 213.522188 
L 70.392188 213.522188 
" style="fill: none; stroke: #1f77b4; stroke-width: 2; stroke-linecap: round"/>
    </g>
    <g id="text_17">
     <!-- queryA -->
     <g style="fill: #262626" transform="translate(78.392188 217.022188) scale(0.1 -0.1)">
      <defs>
       <path id="ArialMT-71" d="M 2538 -1272 
L 2538 353 
Q 2406 169 2170 47 
Q 1934 -75 1669 -75 
Q 1078 -75 651 397 
Q 225 869 225 1691 
Q 225 2191 398 2587 
Q 572 2984 901 3189 
Q 1231 3394 1625 3394 
Q 2241 3394 2594 2875 
L 2594 3319 
L 3100 3319 
L 3100 -1272 
L 2538 -1272 
z
M 803 1669 
Q 803 1028 1072 708 
Q 1341 388 1716 388 
Q 2075 388 2334 692 
Q 2594 997 2594 1619 
Q 2594 2281 2320 2615 
Q 2047 2950 1678 2950 
Q 1313 2950 1058 2639 
Q 803 2328 803 1669 
z
" transform="scale(0.015625)"/>
       <path id="ArialMT-75" d="M 2597 0 
L 2597 488 
Q 2209 -75 1544 -75 
Q 1250 -75 995 37 
Q 741 150 617 320 
Q 494 491 444 738 
Q 409 903 409 1263 
L 409 3319 
L 972 3319 
L 972 1478 
Q 972 1038 1006 884 
Q 1059 663 1231 536 
Q 1403 409 1656 409 
Q 1909 409 2131 539 
Q 2353 669 2445 892 
Q 2538 1116 2538 1541 
L 2538 3319 
L 3100 3319 
L 3100 0 
L 2597 0 
z
" transform="scale(0.015625)"/>
       <path id="ArialMT-79" d="M 397 -1278 
L 334 -750 
Q 519 -800 656 -800 
Q 844 -800 956 -737 
Q 1069 -675 1141 -563 
Q 1194 -478 1313 -144 
Q 1328 -97 1363 -6 
L 103 3319 
L 709 3319 
L 1400 1397 
Q 1534 1031 1641 628 
Q 1738 1016 1872 1384 
L 2581 3319 
L 3144 3319 
L 1881 -56 
Q 1678 -603 1566 -809 
Q 1416 -1088 1222 -1217 
Q 1028 -1347 759 -1347 
Q 597 -1347 397 -1278 
z
" transform="scale(0.015625)"/>
       <path id="ArialMT-41" d="M -9 0 
L 1750 4581 
L 2403 4581 
L 4278 0 
L 3588 0 
L 3053 1388 
L 1138 1388 
L 634 0 
L -9 0 
z
M 1313 1881 
L 2866 1881 
L 2388 3150 
Q 2169 3728 2063 4100 
Q 1975 3659 1816 3225 
L 1313 1881 
z
" transform="scale(0.015625)"/>
      </defs>
      <use xlink:href="#ArialMT-71"/>
      <use xlink:href="#ArialMT-75" transform="translate(55.615234 0)"/>
      <use xlink:href="#ArialMT-65" transform="translate(111.230469 0)"/>
      <use xlink:href="#ArialMT-72" transform="translate(166.845703 0)"/>
      <use xlink:href="#ArialMT-79" transform="translate(200.146484 0)"/>
      <use xlink:href="#ArialMT-41" transform="translate(250.146484 0)"/>
     </g>
    </g>
    <g id="line2d_17">
     <path d="M 50.392188 227.784688 
L 60.392188 227.784688 
L 70.392188 227.784688 
" style="fill: none; stroke: #ff7f0e; stroke-width: 2; stroke-linecap: round"/>
    </g>
    <g id="text_18">
     <!-- queryB -->
     <g style="fill: #262626" transform="translate(78.392188 231.284688) scale(0.1 -0.1)">
      <use xlink:href="#ArialMT-71"/>
      <use xlink:href="#ArialMT-75" transform="translate(55.615234 0)"/>
      <use xlink:href="#ArialMT-65" transform="translate(111.230469 0)"/>
      <use xlink:href="#ArialMT-72" transform="translate(166.845703 0)"/>
      <use xlink:href="#ArialMT-79" transform="translate(200.146484 0)"/>
      <use xlink:href="#ArialMT-42" transform="translate(250.146484 0)"/>
     </g>
    </g>
   </g>
  </g>
  <g id="axes_2">
   <g id="patch_8">
    <path d="M 457.517187 242.389375 
L 848.660937 242.389375 
L 848.660937 21.789375 
L 457.517187 21.789375 
z
" style="fill: #ffffff"/>
   </g>
   <g id="matplotlib.axis_3">
    <g id="xtick_7">
     <g id="line2d_18">
      <path d="M 457.517187 242.389375 
L 457.517187 21.789375 
" clip-path="url(#p068c350b4d)" style="fill: none; stroke: #cccccc; stroke-opacity: 0.3; stroke-width: 0.8; stroke-linecap: round"/>
     </g>
     <g id="text_19">
      <!-- 0 -->
      <g style="fill: #262626" transform="translate(454.736719 256.547188) scale(0.1 -0.1)">
       <use xlink:href="#ArialMT-30"/>
      </g>
     </g>
    </g>
    <g id="xtick_8">
     <g id="line2d_19">
      <path d="M 529.951215 242.389375 
L 529.951215 21.789375 
" clip-path="url(#p068c350b4d)" style="fill: none; stroke: #cccccc; stroke-opacity: 0.3; stroke-width: 0.8; stroke-linecap: round"/>
     </g>
     <g id="text_20">
      <!-- 50 -->
      <g style="fill: #262626" transform="translate(524.390278 256.547188) scale(0.1 -0.1)">
       <use xlink:href="#ArialMT-35"/>
       <use xlink:href="#ArialMT-30" transform="translate(55.615234 0)"/>
      </g>
     </g>
    </g>
    <g id="xtick_9">
     <g id="line2d_20">
      <path d="M 602.385243 242.389375 
L 602.385243 21.789375 
" clip-path="url(#p068c350b4d)" style="fill: none; stroke: #cccccc; stroke-opacity: 0.3; stroke-width: 0.8; stroke-linecap: round"/>
     </g>
     <g id="text_21">
      <!-- 100 -->
      <g style="fill: #262626" transform="translate(594.043837 256.547188) scale(0.1 -0.1)">
       <use xlink:href="#ArialMT-31"/>
       <use xlink:href="#ArialMT-30" transform="translate(55.615234 0)"/>
       <use xlink:href="#ArialMT-30" transform="translate(111.230469 0)"/>
      </g>
     </g>
    </g>
    <g id="xtick_10">
     <g id="line2d_21">
      <path d="M 674.819271 242.389375 
L 674.819271 21.789375 
" clip-path="url(#p068c350b4d)" style="fill: none; stroke: #cccccc; stroke-opacity: 0.3; stroke-width: 0.8; stroke-linecap: round"/>
     </g>
     <g id="text_22">
      <!-- 150 -->
      <g style="fill: #262626" transform="translate(666.477865 256.547188) scale(0.1 -0.1)">
       <use xlink:href="#ArialMT-31"/>
       <use xlink:href="#ArialMT-35" transform="translate(55.615234 0)"/>
       <use xlink:href="#ArialMT-30" transform="translate(111.230469 0)"/>
      </g>
     </g>
    </g>
    <g id="xtick_11">
     <g id="line2d_22">
      <path d="M 747.253299 242.389375 
L 747.253299 21.789375 
" clip-path="url(#p068c350b4d)" style="fill: none; stroke: #cccccc; stroke-opacity: 0.3; stroke-width: 0.8; stroke-linecap: round"/>
     </g>
     <g id="text_23">
      <!-- 200 -->
      <g style="fill: #262626" transform="translate(738.911892 256.547188) scale(0.1 -0.1)">
       <use xlink:href="#ArialMT-32"/>
       <use xlink:href="#ArialMT-30" transform="translate(55.615234 0)"/>
       <use xlink:href="#ArialMT-30" transform="translate(111.230469 0)"/>
      </g>
     </g>
    </g>
    <g id="xtick_12">
     <g id="line2d_23">
      <path d="M 819.687326 242.389375 
L 819.687326 21.789375 
" clip-path="url(#p068c350b4d)" style="fill: none; stroke: #cccccc; stroke-opacity: 0.3; stroke-width: 0.8; stroke-linecap: round"/>
     </g>
     <g id="text_24">
      <!-- 250 -->
      <g style="fill: #262626" transform="translate(811.34592 256.547188) scale(0.1 -0.1)">
       <use xlink:href="#ArialMT-32"/>
       <use xlink:href="#ArialMT-35" transform="translate(55.615234 0)"/>
       <use xlink:href="#ArialMT-30" transform="translate(111.230469 0)"/>
      </g>
     </g>
    </g>
    <g id="text_25">
     <!-- Elapsed Time (sec) -->
     <g style="fill: #262626" transform="translate(610.297656 269.814375) scale(0.1 -0.1)">
      <use xlink:href="#ArialMT-45"/>
      <use xlink:href="#ArialMT-6c" transform="translate(66.699219 0)"/>
      <use xlink:href="#ArialMT-61" transform="translate(88.916016 0)"/>
      <use xlink:href="#ArialMT-70" transform="translate(144.53125 0)"/>
      <use xlink:href="#ArialMT-73" transform="translate(200.146484 0)"/>
      <use xlink:href="#ArialMT-65" transform="translate(250.146484 0)"/>
      <use xlink:href="#ArialMT-64" transform="translate(305.761719 0)"/>
      <use xlink:href="#ArialMT-20" transform="translate(361.376953 0)"/>
      <use xlink:href="#ArialMT-54" transform="translate(387.410156 0)"/>
      <use xlink:href="#ArialMT-69" transform="translate(444.744141 0)"/>
      <use xlink:href="#ArialMT-6d" transform="translate(466.960938 0)"/>
      <use xlink:href="#ArialMT-65" transform="translate(550.261719 0)"/>
      <use xlink:href="#ArialMT-20" transform="translate(605.876953 0)"/>
      <use xlink:href="#ArialMT-28" transform="translate(633.660156 0)"/>
      <use xlink:href="#ArialMT-73" transform="translate(666.960938 0)"/>
      <use xlink:href="#ArialMT-65" transform="translate(716.960938 0)"/>
      <use xlink:href="#ArialMT-63" transform="translate(772.576172 0)"/>
      <use xlink:href="#ArialMT-29" transform="translate(822.576172 0)"/>
     </g>
    </g>
   </g>
   <g id="matplotlib.axis_4">
    <g id="ytick_8">
     <g id="line2d_24">
      <path d="M 457.517187 232.362102 
L 848.660937 232.362102 
" clip-path="url(#p068c350b4d)" style="fill: none; stroke: #cccccc; stroke-opacity: 0.3; stroke-width: 0.8; stroke-linecap: round"/>
     </g>
    </g>
    <g id="ytick_9">
     <g id="line2d_25">
      <path d="M 457.517187 198.600241 
L 848.660937 198.600241 
" clip-path="url(#p068c350b4d)" style="fill: none; stroke: #cccccc; stroke-opacity: 0.3; stroke-width: 0.8; stroke-linecap: round"/>
     </g>
    </g>
    <g id="ytick_10">
     <g id="line2d_26">
      <path d="M 457.517187 164.83838 
L 848.660937 164.83838 
" clip-path="url(#p068c350b4d)" style="fill: none; stroke: #cccccc; stroke-opacity: 0.3; stroke-width: 0.8; stroke-linecap: round"/>
     </g>
    </g>
    <g id="ytick_11">
     <g id="line2d_27">
      <path d="M 457.517187 131.076519 
L 848.660937 131.076519 
" clip-path="url(#p068c350b4d)" style="fill: none; stroke: #cccccc; stroke-opacity: 0.3; stroke-width: 0.8; stroke-linecap: round"/>
     </g>
    </g>
    <g id="ytick_12">
     <g id="line2d_28">
      <path d="M 457.517187 97.314658 
L 848.660937 97.314658 
" clip-path="url(#p068c350b4d)" style="fill: none; stroke: #cccccc; stroke-opacity: 0.3; stroke-width: 0.8; stroke-linecap: round"/>
     </g>
    </g>
    <g id="ytick_13">
     <g id="line2d_29">
      <path d="M 457.517187 63.552797 
L 848.660937 63.552797 
" clip-path="url(#p068c350b4d)" style="fill: none; stroke: #cccccc; stroke-opacity: 0.3; stroke-width: 0.8; stroke-linecap: round"/>
     </g>
    </g>
    <g id="ytick_14">
     <g id="line2d_30">
      <path d="M 457.517187 29.790936 
L 848.660937 29.790936 
" clip-path="url(#p068c350b4d)" style="fill: none; stroke: #cccccc; stroke-opacity: 0.3; stroke-width: 0.8; stroke-linecap: round"/>
     </g>
    </g>
    <g id="text_26">
     <!-- Mean pkg_j per 1s Bin -->
     <g style="fill: #262626" transform="translate(451.4125 181.837031) rotate(-90) scale(0.1 -0.1)">
      <use xlink:href="#ArialMT-4d"/>
      <use xlink:href="#ArialMT-65" transform="translate(83.300781 0)"/>
      <use xlink:href="#ArialMT-61" transform="translate(138.916016 0)"/>
      <use xlink:href="#ArialMT-6e" transform="translate(194.53125 0)"/>
      <use xlink:href="#ArialMT-20" transform="translate(250.146484 0)"/>
      <use xlink:href="#ArialMT-70" transform="translate(277.929688 0)"/>
      <use xlink:href="#ArialMT-6b" transform="translate(333.544922 0)"/>
      <use xlink:href="#ArialMT-67" transform="translate(383.544922 0)"/>
      <use xlink:href="#ArialMT-5f" transform="translate(439.160156 0)"/>
      <use xlink:href="#ArialMT-6a" transform="translate(494.775391 0)"/>
      <use xlink:href="#ArialMT-20" transform="translate(516.992188 0)"/>
      <use xlink:href="#ArialMT-70" transform="translate(544.775391 0)"/>
      <use xlink:href="#ArialMT-65" transform="translate(600.390625 0)"/>
      <use xlink:href="#ArialMT-72" transform="translate(656.005859 0)"/>
      <use xlink:href="#ArialMT-20" transform="translate(689.306641 0)"/>
      <use xlink:href="#ArialMT-31" transform="translate(717.089844 0)"/>
      <use xlink:href="#ArialMT-73" transform="translate(772.705078 0)"/>
      <use xlink:href="#ArialMT-20" transform="translate(822.705078 0)"/>
      <use xlink:href="#ArialMT-42" transform="translate(850.488281 0)"/>
      <use xlink:href="#ArialMT-69" transform="translate(917.1875 0)"/>
      <use xlink:href="#ArialMT-6e" transform="translate(939.404297 0)"/>
     </g>
    </g>
   </g>
   <g id="line2d_31">
    <path d="M 457.517187 90.562286 
L 458.965868 78.745635 
L 460.414549 85.498007 
L 461.863229 82.121821 
L 463.31191 80.096109 
L 464.76059 67.941839 
L 466.209271 76.382304 
L 467.657951 79.083253 
L 469.106632 85.835625 
L 470.555312 75.369448 
L 472.003993 82.459439 
L 473.452674 75.707067 
L 474.901354 71.655644 
L 476.350035 84.147532 
L 477.798715 73.006118 
L 479.247396 53.799371 
L 480.696076 80.771346 
L 482.144757 71.655644 
L 483.593437 76.719923 
L 485.042118 74.018974 
L 486.490799 66.928983 
L 487.939479 76.382304 
L 489.38816 72.6685 
L 490.83684 71.993262 
L 492.285521 78.408016 
L 493.734201 67.60422 
L 495.182882 74.356593 
L 496.631562 74.018974 
L 498.080243 70.305169 
L 499.528924 77.732779 
L 500.977604 64.228034 
L 502.426285 70.642788 
L 503.874965 80.096109 
L 505.323646 69.967551 
L 506.772326 68.954695 
L 508.221007 73.343737 
L 509.669687 69.292313 
L 511.118368 76.719923 
L 512.567049 68.279458 
L 514.015729 68.279458 
L 515.46441 70.980407 
L 516.91309 63.927929 
L 518.361771 68.617076 
L 519.810451 75.707067 
L 521.259132 68.617076 
L 522.707812 70.642788 
L 524.156493 68.954695 
L 525.605174 65.578509 
L 527.053854 76.382304 
L 528.502535 67.941839 
L 529.951215 64.565653 
L 531.399896 74.356593 
L 532.848576 62.202323 
L 534.297257 65.916127 
L 535.745937 75.369448 
L 537.194618 63.890416 
L 538.643299 74.356593 
L 540.091979 66.591365 
L 541.54066 62.202323 
L 542.98934 70.642788 
L 544.438021 66.591365 
L 545.886701 50.72329 
L 547.335382 73.343737 
L 548.784062 61.864704 
L 550.232743 65.803588 
L 551.681424 67.266602 
L 553.130104 60.51423 
L 554.578785 73.006118 
L 556.027465 65.916127 
L 557.476146 66.591365 
L 558.924826 68.617076 
L 560.373507 59.163755 
L 563.270868 68.617076 
L 564.719549 65.578509 
L 566.168229 74.356593 
L 567.61691 60.851848 
L 569.06559 64.565653 
L 570.514271 71.655644 
L 571.962951 64.903272 
L 573.411632 66.928983 
L 574.860312 64.565653 
L 576.308993 65.24089 
L 577.757674 70.642788 
L 579.206354 63.890416 
L 580.655035 64.228034 
L 582.103715 67.941839 
L 583.552396 62.202323 
L 585.001076 64.903272 
L 586.449757 71.318025 
L 587.898437 64.565653 
L 589.347118 66.17872 
L 590.795799 65.916127 
L 592.244479 62.539941 
L 593.69316 73.343737 
L 595.14184 62.539941 
L 596.590521 62.87756 
L 598.039201 70.305169 
L 599.487882 63.890416 
L 600.936562 62.202323 
L 602.385243 70.642788 
L 603.833924 62.539941 
L 605.282604 69.292313 
L 606.731285 63.890416 
L 608.179965 62.87756 
L 609.628646 68.954695 
L 612.526007 60.51423 
L 613.974687 70.980407 
L 615.423368 63.890416 
L 616.872049 68.617076 
L 618.320729 62.87756 
L 619.76941 62.202323 
L 621.21809 66.928983 
L 622.666771 64.228034 
L 624.115451 62.539941 
L 625.564132 71.993262 
L 627.012812 60.851848 
L 628.461493 68.617076 
L 631.358854 60.551743 
L 632.807535 69.967551 
L 634.256215 61.864704 
L 635.704896 63.215178 
L 637.153576 68.279458 
L 638.602257 61.527085 
L 640.050937 60.51423 
L 641.499618 69.292313 
L 642.948299 62.87756 
L 644.396979 72.330881 
L 645.84566 61.864704 
L 647.29434 63.215178 
L 648.743021 68.954695 
L 650.191701 61.189467 
L 651.640382 61.864704 
L 653.089062 69.967551 
L 654.537743 60.851848 
L 655.986424 72.330881 
L 657.435104 62.202323 
L 658.883785 62.539941 
L 660.332465 70.642788 
L 661.781146 62.87756 
L 663.229826 62.87756 
L 664.678507 69.629932 
L 666.127187 61.864704 
L 667.575868 64.228034 
L 670.473229 64.228034 
L 671.92191 69.967551 
L 673.37059 62.202323 
L 674.819271 60.51423 
L 676.267951 66.928983 
L 677.716632 63.215178 
L 679.165312 60.176611 
L 680.613993 69.967551 
L 682.062674 63.552797 
L 683.511354 67.679247 
L 684.960035 63.552797 
L 686.408715 61.189467 
L 687.857396 68.954695 
L 689.306076 62.87756 
L 690.754757 60.851848 
L 692.203437 67.941839 
L 693.652118 60.51423 
L 695.100799 65.578509 
L 696.549479 65.24089 
L 697.99816 61.189467 
L 699.44684 66.591365 
L 700.895521 58.826137 
L 702.344201 61.189467 
L 703.792882 72.330881 
L 705.241562 61.864704 
L 706.690243 64.903272 
L 708.138924 65.916127 
L 709.587604 59.501374 
L 711.036285 69.967551 
L 712.484965 61.864704 
L 713.933646 63.215178 
L 715.382326 68.279458 
L 716.831007 60.51423 
L 718.279687 63.890416 
L 719.728368 66.253746 
L 721.177049 62.539941 
L 722.625729 68.954695 
L 724.07441 60.851848 
L 725.52309 62.87756 
L 726.971771 66.928983 
L 728.420451 61.189467 
L 729.869132 59.426347 
L 731.317812 68.617076 
L 732.766493 63.890416 
L 734.215174 69.629932 
L 735.663854 61.189467 
L 737.112535 62.87756 
L 738.561215 67.941839 
L 740.009896 60.176611 
L 741.458576 64.565653 
L 742.907257 69.967551 
L 744.355937 61.527085 
L 745.804618 64.565653 
L 747.253299 67.266602 
L 748.701979 63.552797 
L 750.15066 71.993262 
L 751.59934 65.916127 
L 753.048021 61.864704 
L 754.496701 69.629932 
L 755.945382 64.903272 
L 757.394062 61.189467 
L 758.842743 71.318025 
L 760.291424 62.87756 
L 761.740104 69.629932 
L 763.188785 60.51423 
L 764.637465 60.176611 
L 766.086146 67.941839 
L 767.534826 61.864704 
L 768.983507 58.826137 
L 770.432187 68.954695 
L 771.880868 59.838992 
L 773.329549 66.591365 
L 774.778229 60.851848 
L 776.22691 58.826137 
L 777.67559 71.318025 
L 779.124271 58.488518 
L 780.572951 62.202323 
L 782.021632 69.967551 
L 783.470312 60.851848 
L 784.918993 62.427402 
L 786.367674 66.591365 
L 787.816354 59.838992 
L 789.265035 69.629932 
L 790.713715 60.851848 
L 792.162396 63.215178 
L 793.611076 64.565653 
L 795.059757 62.87756 
L 796.508437 61.527085 
L 797.957118 67.60422 
L 799.405799 62.87756 
L 800.854479 66.253746 
L 802.30316 65.578509 
L 803.75184 62.87756 
L 805.200521 71.655644 
L 806.649201 60.51423 
L 808.097882 63.215178 
L 809.546562 68.279458 
L 810.995243 63.890416 
L 812.443924 65.578509 
L 813.892604 66.928983 
L 815.341285 62.87756 
L 816.789965 71.318025 
L 818.238646 63.215178 
L 819.687326 63.890416 
L 821.136007 70.642788 
L 822.584687 60.851848 
L 824.033368 63.552797 
L 825.482049 70.305169 
L 826.930729 63.552797 
L 828.37941 69.629932 
L 829.82809 64.903272 
L 831.276771 41.945206 
L 832.725451 70.980407 
L 834.174132 63.890416 
L 835.622812 62.202323 
L 837.071493 68.279458 
L 838.520174 60.851848 
L 839.968854 65.578509 
L 841.417535 64.565653 
L 842.866215 60.851848 
L 844.314896 68.954695 
L 845.763576 61.527085 
L 847.212257 62.539941 
L 848.660937 102.941635 
L 848.660937 102.941635 
" clip-path="url(#p068c350b4d)" style="fill: none; stroke: #1f77b4; stroke-width: 2; stroke-linecap: round"/>
   </g>
   <g id="line2d_32">
    <path d="M 457.517187 95.288946 
L 458.965868 90.899905 
L 460.414549 89.887049 
L 461.863229 89.887049 
L 463.31191 89.887049 
L 464.76059 73.006118 
L 466.209271 85.160388 
L 467.657951 87.861337 
L 469.106632 87.861337 
L 470.555312 88.536574 
L 472.003993 63.927929 
L 473.452674 87.1861 
L 474.901354 82.459439 
L 476.350035 86.173244 
L 477.798715 84.147532 
L 479.247396 82.121821 
L 480.696076 83.134676 
L 482.144757 83.134676 
L 483.593437 80.433728 
L 485.042118 83.809914 
L 486.490799 65.428456 
L 487.939479 83.809914 
L 489.38816 81.446583 
L 490.83684 80.096109 
L 492.285521 79.083253 
L 493.734201 78.408016 
L 495.182882 84.82277 
L 496.631562 80.096109 
L 498.080243 81.108965 
L 499.528924 82.459439 
L 500.977604 76.382304 
L 502.426285 81.108965 
L 503.874965 78.745635 
L 505.323646 80.433728 
L 506.772326 80.771346 
L 508.221007 78.408016 
L 509.669687 80.096109 
L 511.118368 79.083253 
L 512.567049 81.108965 
L 514.015729 75.932146 
L 515.46441 80.096109 
L 516.91309 77.057542 
L 518.361771 79.75849 
L 519.810451 79.75849 
L 521.259132 73.343737 
L 522.707812 77.39516 
L 524.156493 74.694211 
L 525.605174 81.108965 
L 527.053854 80.433728 
L 528.502535 78.745635 
L 529.951215 76.382304 
L 531.399896 74.018974 
L 532.848576 76.382304 
L 534.297257 79.420872 
L 535.745937 80.096109 
L 537.194618 77.732779 
L 538.643299 79.420872 
L 540.091979 80.096109 
L 541.54066 74.806751 
L 542.98934 77.39516 
L 544.438021 77.732779 
L 545.886701 75.707067 
L 547.335382 80.433728 
L 548.784062 79.420872 
L 550.232743 75.707067 
L 551.681424 78.745635 
L 553.130104 75.707067 
L 554.578785 73.343737 
L 556.027465 79.420872 
L 557.476146 79.420872 
L 558.924826 76.719923 
L 560.373507 75.707067 
L 561.822187 76.044686 
L 563.270868 75.707067 
L 564.719549 76.719923 
L 566.168229 79.083253 
L 567.61691 69.554906 
L 569.06559 76.044686 
L 570.514271 77.057542 
L 571.962951 75.03183 
L 573.411632 78.745635 
L 574.860312 75.03183 
L 576.308993 74.018974 
L 577.757674 79.083253 
L 579.206354 78.408016 
L 580.655035 76.044686 
L 582.103715 77.057542 
L 583.552396 75.369448 
L 585.001076 75.369448 
L 586.449757 75.707067 
L 587.898437 78.745635 
L 589.347118 77.057542 
L 590.795799 73.343737 
L 592.244479 77.807805 
L 593.69316 73.343737 
L 595.14184 80.433728 
L 596.590521 59.838992 
L 598.039201 77.732779 
L 599.487882 76.719923 
L 600.936562 232.362102 
" clip-path="url(#p068c350b4d)" style="fill: none; stroke: #ff7f0e; stroke-width: 2; stroke-linecap: round"/>
   </g>
   <g id="patch_9">
    <path d="M 457.517187 242.389375 
L 457.517187 21.789375 
" style="fill: none; stroke: #cccccc; stroke-width: 0.8; stroke-linejoin: miter; stroke-linecap: square"/>
   </g>
   <g id="patch_10">
    <path d="M 848.660937 242.389375 
L 848.660937 21.789375 
" style="fill: none; stroke: #cccccc; stroke-width: 0.8; stroke-linejoin: miter; stroke-linecap: square"/>
   </g>
   <g id="patch_11">
    <path d="M 457.517187 242.389375 
L 848.660937 242.389375 
" style="fill: none; stroke: #cccccc; stroke-width: 0.8; stroke-linejoin: miter; stroke-linecap: square"/>
   </g>
   <g id="patch_12">
    <path d="M 457.517187 21.789375 
L 848.660937 21.789375 
" style="fill: none; stroke: #cccccc; stroke-width: 0.8; stroke-linejoin: miter; stroke-linecap: square"/>
   </g>
   <g id="text_27">
    <!-- PE017 — PC2 1 core -->
    <g style="fill: #262626" transform="translate(595.728125 15.789375) scale(0.12 -0.12)">
     <use xlink:href="#ArialMT-50"/>
     <use xlink:href="#ArialMT-45" transform="translate(66.699219 0)"/>
     <use xlink:href="#ArialMT-30" transform="translate(133.398438 0)"/>
     <use xlink:href="#ArialMT-31" transform="translate(189.013672 0)"/>
     <use xlink:href="#ArialMT-37" transform="translate(244.628906 0)"/>
     <use xlink:href="#ArialMT-20" transform="translate(300.244141 0)"/>
     <use xlink:href="#ArialMT-2014" transform="translate(328.027344 0)"/>
     <use xlink:href="#ArialMT-20" transform="translate(428.027344 0)"/>
     <use xlink:href="#ArialMT-50" transform="translate(455.810547 0)"/>
     <use xlink:href="#ArialMT-43" transform="translate(522.509766 0)"/>
     <use xlink:href="#ArialMT-32" transform="translate(594.726562 0)"/>
     <use xlink:href="#ArialMT-20" transform="translate(650.341797 0)"/>
     <use xlink:href="#ArialMT-31" transform="translate(678.125 0)"/>
     <use xlink:href="#ArialMT-20" transform="translate(733.740234 0)"/>
     <use xlink:href="#ArialMT-63" transform="translate(761.523438 0)"/>
     <use xlink:href="#ArialMT-6f" transform="translate(811.523438 0)"/>
     <use xlink:href="#ArialMT-72" transform="translate(867.138672 0)"/>
     <use xlink:href="#ArialMT-65" transform="translate(900.439453 0)"/>
    </g>
   </g>
   <g id="legend_2">
    <g id="patch_13">
     <path d="M 464.517187 237.389375 
L 528.2 237.389375 
Q 530.2 237.389375 530.2 235.389375 
L 530.2 207.864375 
Q 530.2 205.864375 528.2 205.864375 
L 464.517187 205.864375 
Q 462.517187 205.864375 462.517187 207.864375 
L 462.517187 235.389375 
Q 462.517187 237.389375 464.517187 237.389375 
z
" style="fill: #ffffff; opacity: 0.8; stroke: #cccccc; stroke-linejoin: miter"/>
    </g>
    <g id="line2d_33">
     <path d="M 466.517187 213.522188 
L 476.517187 213.522188 
L 486.517187 213.522188 
" style="fill: none; stroke: #1f77b4; stroke-width: 2; stroke-linecap: round"/>
    </g>
    <g id="text_28">
     <!-- queryA -->
     <g style="fill: #262626" transform="translate(494.517187 217.022188) scale(0.1 -0.1)">
      <use xlink:href="#ArialMT-71"/>
      <use xlink:href="#ArialMT-75" transform="translate(55.615234 0)"/>
      <use xlink:href="#ArialMT-65" transform="translate(111.230469 0)"/>
      <use xlink:href="#ArialMT-72" transform="translate(166.845703 0)"/>
      <use xlink:href="#ArialMT-79" transform="translate(200.146484 0)"/>
      <use xlink:href="#ArialMT-41" transform="translate(250.146484 0)"/>
     </g>
    </g>
    <g id="line2d_34">
     <path d="M 466.517187 227.784688 
L 476.517187 227.784688 
L 486.517187 227.784688 
" style="fill: none; stroke: #ff7f0e; stroke-width: 2; stroke-linecap: round"/>
    </g>
    <g id="text_29">
     <!-- queryB -->
     <g style="fill: #262626" transform="translate(494.517187 231.284688) scale(0.1 -0.1)">
      <use xlink:href="#ArialMT-71"/>
      <use xlink:href="#ArialMT-75" transform="translate(55.615234 0)"/>
      <use xlink:href="#ArialMT-65" transform="translate(111.230469 0)"/>
      <use xlink:href="#ArialMT-72" transform="translate(166.845703 0)"/>
      <use xlink:href="#ArialMT-79" transform="translate(200.146484 0)"/>
      <use xlink:href="#ArialMT-42" transform="translate(250.146484 0)"/>
     </g>
    </g>
   </g>
  </g>
 </g>
 <defs>
  <clipPath id="pd7af6ee8ed">
   <rect x="41.392188" y="21.789375" width="391.14375" height="220.6"/>
  </clipPath>
  <clipPath id="p068c350b4d">
   <rect x="457.517187" y="21.789375" width="391.14375" height="220.6"/>
  </clipPath>
 </defs>
</svg>
