<?xml version="1.0" encoding="utf-8" standalone="no"?>
<!DOCTYPE svg PUBLIC "-//W3C//DTD SVG 1.1//EN"
  "http://www.w3.org/Graphics/SVG/1.1/DTD/svg11.dtd">
<svg xmlns:xlink="http://www.w3.org/1999/xlink" width="855.860937pt" height="279.119063pt" viewBox="0 0 855.860937 279.119063" xmlns="http://www.w3.org/2000/svg" version="1.1">
 <metadata>
  <rdf:RDF xmlns:dc="http://purl.org/dc/elements/1.1/" xmlns:cc="http://creativecommons.org/ns#" xmlns:rdf="http://www.w3.org/1999/02/22-rdf-syntax-ns#">
   <cc:Work>
    <dc:type rdf:resource="http://purl.org/dc/dcmitype/StillImage"/>
    <dc:date>2026-05-26T16:50:29.520244</dc:date>
    <dc:format>image/svg+xml</dc:format>
    <dc:creator>
     <cc:Agent>
      <dc:title>Matplotlib v3.10.1, https://matplotlib.org/</dc:title>
     </cc:Agent>
    </dc:creator>
   </cc:Work>
  </rdf:RDF>
 </metadata>
 <defs>
  <style type="text/css">*{stroke-linejoin: round; stroke-linecap: butt}</style>
 </defs>
 <g id="figure_1">
  <g id="patch_1">
   <path d="M 0 279.119063 
L 855.860937 279.119063 
L 855.860937 0 
L 0 0 
z
" style="fill: #ffffff"/>
  </g>
  <g id="axes_1">
   <g id="patch_2">
    <path d="M 41.392188 242.389375 
L 432.535937 242.389375 
L 432.535937 21.789375 
L 41.392188 21.789375 
z
" style="fill: #ffffff"/>
   </g>
   <g id="matplotlib.axis_1">
    <g id="xtick_1">
     <g id="line2d_1">
      <path d="M 41.392188 242.389375 
L 41.392188 21.789375 
" clip-path="url(#pef6fe54419)" style="fill: none; stroke: #cccccc; stroke-opacity: 0.3; stroke-width: 0.8; stroke-linecap: round"/>
     </g>
     <g id="text_1">
      <!-- 0 -->
      <g style="fill: #262626" transform="translate(38.611719 256.547188) scale(0.1 -0.1)">
       <defs>
        <path id="ArialMT-30" d="M 266 2259 
Q 266 3072 433 3567 
Q 600 4063 929 4331 
Q 1259 4600 1759 4600 
Q 2128 4600 2406 4451 
Q 2684 4303 2865 4023 
Q 3047 3744 3150 3342 
Q 3253 2941 3253 2259 
Q 3253 1453 3087 958 
Q 2922 463 2592 192 
Q 2263 -78 1759 -78 
Q 1097 -78 719 397 
Q 266 969 266 2259 
z
M 844 2259 
Q 844 1131 1108 757 
Q 1372 384 1759 384 
Q 2147 384 2411 759 
Q 2675 1134 2675 2259 
Q 2675 3391 2411 3762 
Q 2147 4134 1753 4134 
Q 1366 4134 1134 3806 
Q 844 3388 844 2259 
z
" transform="scale(0.015625)"/>
       </defs>
       <use xlink:href="#ArialMT-30"/>
      </g>
     </g>
    </g>
    <g id="xtick_2">
     <g id="line2d_2">
      <path d="M 114.915449 242.389375 
L 114.915449 21.789375 
" clip-path="url(#pef6fe54419)" style="fill: none; stroke: #cccccc; stroke-opacity: 0.3; stroke-width: 0.8; stroke-linecap: round"/>
     </g>
     <g id="text_2">
      <!-- 50 -->
      <g style="fill: #262626" transform="translate(109.354511 256.547188) scale(0.1 -0.1)">
       <defs>
        <path id="ArialMT-35" d="M 266 1200 
L 856 1250 
Q 922 819 1161 601 
Q 1400 384 1738 384 
Q 2144 384 2425 690 
Q 2706 997 2706 1503 
Q 2706 1984 2436 2262 
Q 2166 2541 1728 2541 
Q 1456 2541 1237 2417 
Q 1019 2294 894 2097 
L 366 2166 
L 809 4519 
L 3088 4519 
L 3088 3981 
L 1259 3981 
L 1013 2750 
Q 1425 3038 1878 3038 
Q 2478 3038 2890 2622 
Q 3303 2206 3303 1553 
Q 3303 931 2941 478 
Q 2500 -78 1738 -78 
Q 1113 -78 717 272 
Q 322 622 266 1200 
z
" transform="scale(0.015625)"/>
       </defs>
       <use xlink:href="#ArialMT-35"/>
       <use xlink:href="#ArialMT-30" transform="translate(55.615234 0)"/>
      </g>
     </g>
    </g>
    <g id="xtick_3">
     <g id="line2d_3">
      <path d="M 188.43871 242.389375 
L 188.43871 21.789375 
" clip-path="url(#pef6fe54419)" style="fill: none; stroke: #cccccc; stroke-opacity: 0.3; stroke-width: 0.8; stroke-linecap: round"/>
     </g>
     <g id="text_3">
      <!-- 100 -->
      <g style="fill: #262626" transform="translate(180.097304 256.547188) scale(0.1 -0.1)">
       <defs>
        <path id="ArialMT-31" d="M 2384 0 
L 1822 0 
L 1822 3584 
Q 1619 3391 1289 3197 
Q 959 3003 697 2906 
L 697 3450 
Q 1169 3672 1522 3987 
Q 1875 4303 2022 4600 
L 2384 4600 
L 2384 0 
z
" transform="scale(0.015625)"/>
       </defs>
       <use xlink:href="#ArialMT-31"/>
       <use xlink:href="#ArialMT-30" transform="translate(55.615234 0)"/>
       <use xlink:href="#ArialMT-30" transform="translate(111.230469 0)"/>
      </g>
     </g>
    </g>
    <g id="xtick_4">
     <g id="line2d_4">
      <path d="M 261.961971 242.389375 
L 261.961971 21.789375 
" clip-path="url(#pef6fe54419)" style="fill: none; stroke: #cccccc; stroke-opacity: 0.3; stroke-width: 0.8; stroke-linecap: round"/>
     </g>
     <g id="text_4">
      <!-- 150 -->
      <g style="fill: #262626" transform="translate(253.620565 256.547188) scale(0.1 -0.1)">
       <use xlink:href="#ArialMT-31"/>
       <use xlink:href="#ArialMT-35" transform="translate(55.615234 0)"/>
       <use xlink:href="#ArialMT-30" transform="translate(111.230469 0)"/>
      </g>
     </g>
    </g>
    <g id="xtick_5">
     <g id="line2d_5">
      <path d="M 335.485233 242.389375 
L 335.485233 21.789375 
" clip-path="url(#pef6fe54419)" style="fill: none; stroke: #cccccc; stroke-opacity: 0.3; stroke-width: 0.8; stroke-linecap: round"/>
     </g>
     <g id="text_5">
      <!-- 200 -->
      <g style="fill: #262626" transform="translate(327.143826 256.547188) scale(0.1 -0.1)">
       <defs>
        <path id="ArialMT-32" d="M 3222 541 
L 3222 0 
L 194 0 
Q 188 203 259 391 
Q 375 700 629 1000 
Q 884 1300 1366 1694 
Q 2113 2306 2375 2664 
Q 2638 3022 2638 3341 
Q 2638 3675 2398 3904 
Q 2159 4134 1775 4134 
Q 1369 4134 1125 3890 
Q 881 3647 878 3216 
L 300 3275 
Q 359 3922 746 4261 
Q 1134 4600 1788 4600 
Q 2447 4600 2831 4234 
Q 3216 3869 3216 3328 
Q 3216 3053 3103 2787 
Q 2991 2522 2730 2228 
Q 2469 1934 1863 1422 
Q 1356 997 1212 845 
Q 1069 694 975 541 
L 3222 541 
z
" transform="scale(0.015625)"/>
       </defs>
       <use xlink:href="#ArialMT-32"/>
       <use xlink:href="#ArialMT-30" transform="translate(55.615234 0)"/>
       <use xlink:href="#ArialMT-30" transform="translate(111.230469 0)"/>
      </g>
     </g>
    </g>
    <g id="xtick_6">
     <g id="line2d_6">
      <path d="M 409.008494 242.389375 
L 409.008494 21.789375 
" clip-path="url(#pef6fe54419)" style="fill: none; stroke: #cccccc; stroke-opacity: 0.3; stroke-width: 0.8; stroke-linecap: round"/>
     </g>
     <g id="text_6">
      <!-- 250 -->
      <g style="fill: #262626" transform="translate(400.667088 256.547188) scale(0.1 -0.1)">
       <use xlink:href="#ArialMT-32"/>
       <use xlink:href="#ArialMT-35" transform="translate(55.615234 0)"/>
       <use xlink:href="#ArialMT-30" transform="translate(111.230469 0)"/>
      </g>
     </g>
    </g>
    <g id="text_7">
     <!-- Elapsed Time (sec) -->
     <g style="fill: #262626" transform="translate(194.172656 269.814375) scale(0.1 -0.1)">
      <defs>
       <path id="ArialMT-45" d="M 506 0 
L 506 4581 
L 3819 4581 
L 3819 4041 
L 1113 4041 
L 1113 2638 
L 3647 2638 
L 3647 2100 
L 1113 2100 
L 1113 541 
L 3925 541 
L 3925 0 
L 506 0 
z
" transform="scale(0.015625)"/>
       <path id="ArialMT-6c" d="M 409 0 
L 409 4581 
L 972 4581 
L 972 0 
L 409 0 
z
" transform="scale(0.015625)"/>
       <path id="ArialMT-61" d="M 2588 409 
Q 2275 144 1986 34 
Q 1697 -75 1366 -75 
Q 819 -75 525 192 
Q 231 459 231 875 
Q 231 1119 342 1320 
Q 453 1522 633 1644 
Q 813 1766 1038 1828 
Q 1203 1872 1538 1913 
Q 2219 1994 2541 2106 
Q 2544 2222 2544 2253 
Q 2544 2597 2384 2738 
Q 2169 2928 1744 2928 
Q 1347 2928 1158 2789 
Q 969 2650 878 2297 
L 328 2372 
Q 403 2725 575 2942 
Q 747 3159 1072 3276 
Q 1397 3394 1825 3394 
Q 2250 3394 2515 3294 
Q 2781 3194 2906 3042 
Q 3031 2891 3081 2659 
Q 3109 2516 3109 2141 
L 3109 1391 
Q 3109 606 3145 398 
Q 3181 191 3288 0 
L 2700 0 
Q 2613 175 2588 409 
z
M 2541 1666 
Q 2234 1541 1622 1453 
Q 1275 1403 1131 1340 
Q 988 1278 909 1158 
Q 831 1038 831 891 
Q 831 666 1001 516 
Q 1172 366 1500 366 
Q 1825 366 2078 508 
Q 2331 650 2450 897 
Q 2541 1088 2541 1459 
L 2541 1666 
z
" transform="scale(0.015625)"/>
       <path id="ArialMT-70" d="M 422 -1272 
L 422 3319 
L 934 3319 
L 934 2888 
Q 1116 3141 1344 3267 
Q 1572 3394 1897 3394 
Q 2322 3394 2647 3175 
Q 2972 2956 3137 2557 
Q 3303 2159 3303 1684 
Q 3303 1175 3120 767 
Q 2938 359 2589 142 
Q 2241 -75 1856 -75 
Q 1575 -75 1351 44 
Q 1128 163 984 344 
L 984 -1272 
L 422 -1272 
z
M 931 1641 
Q 931 1000 1190 694 
Q 1450 388 1819 388 
Q 2194 388 2461 705 
Q 2728 1022 2728 1688 
Q 2728 2322 2467 2637 
Q 2206 2953 1844 2953 
Q 1484 2953 1207 2617 
Q 931 2281 931 1641 
z
" transform="scale(0.015625)"/>
       <path id="ArialMT-73" d="M 197 991 
L 753 1078 
Q 800 744 1014 566 
Q 1228 388 1613 388 
Q 2000 388 2187 545 
Q 2375 703 2375 916 
Q 2375 1106 2209 1216 
Q 2094 1291 1634 1406 
Q 1016 1563 777 1677 
Q 538 1791 414 1992 
Q 291 2194 291 2438 
Q 291 2659 392 2848 
Q 494 3038 669 3163 
Q 800 3259 1026 3326 
Q 1253 3394 1513 3394 
Q 1903 3394 2198 3281 
Q 2494 3169 2634 2976 
Q 2775 2784 2828 2463 
L 2278 2388 
Q 2241 2644 2061 2787 
Q 1881 2931 1553 2931 
Q 1166 2931 1000 2803 
Q 834 2675 834 2503 
Q 834 2394 903 2306 
Q 972 2216 1119 2156 
Q 1203 2125 1616 2013 
Q 2213 1853 2448 1751 
Q 2684 1650 2818 1456 
Q 2953 1263 2953 975 
Q 2953 694 2789 445 
Q 2625 197 2315 61 
Q 2006 -75 1616 -75 
Q 969 -75 630 194 
Q 291 463 197 991 
z
" transform="scale(0.015625)"/>
       <path id="ArialMT-65" d="M 2694 1069 
L 3275 997 
Q 3138 488 2766 206 
Q 2394 -75 1816 -75 
Q 1088 -75 661 373 
Q 234 822 234 1631 
Q 234 2469 665 2931 
Q 1097 3394 1784 3394 
Q 2450 3394 2872 2941 
Q 3294 2488 3294 1666 
Q 3294 1616 3291 1516 
L 816 1516 
Q 847 969 1125 678 
Q 1403 388 1819 388 
Q 2128 388 2347 550 
Q 2566 713 2694 1069 
z
M 847 1978 
L 2700 1978 
Q 2663 2397 2488 2606 
Q 2219 2931 1791 2931 
Q 1403 2931 1139 2672 
Q 875 2413 847 1978 
z
" transform="scale(0.015625)"/>
       <path id="ArialMT-64" d="M 2575 0 
L 2575 419 
Q 2259 -75 1647 -75 
Q 1250 -75 917 144 
Q 584 363 401 755 
Q 219 1147 219 1656 
Q 219 2153 384 2558 
Q 550 2963 881 3178 
Q 1213 3394 1622 3394 
Q 1922 3394 2156 3267 
Q 2391 3141 2538 2938 
L 2538 4581 
L 3097 4581 
L 3097 0 
L 2575 0 
z
M 797 1656 
Q 797 1019 1065 703 
Q 1334 388 1700 388 
Q 2069 388 2326 689 
Q 2584 991 2584 1609 
Q 2584 2291 2321 2609 
Q 2059 2928 1675 2928 
Q 1300 2928 1048 2622 
Q 797 2316 797 1656 
z
" transform="scale(0.015625)"/>
       <path id="ArialMT-20" transform="scale(0.015625)"/>
       <path id="ArialMT-54" d="M 1659 0 
L 1659 4041 
L 150 4041 
L 150 4581 
L 3781 4581 
L 3781 4041 
L 2266 4041 
L 2266 0 
L 1659 0 
z
" transform="scale(0.015625)"/>
       <path id="ArialMT-69" d="M 425 3934 
L 425 4581 
L 988 4581 
L 988 3934 
L 425 3934 
z
M 425 0 
L 425 3319 
L 988 3319 
L 988 0 
L 425 0 
z
" transform="scale(0.015625)"/>
       <path id="ArialMT-6d" d="M 422 0 
L 422 3319 
L 925 3319 
L 925 2853 
Q 1081 3097 1340 3245 
Q 1600 3394 1931 3394 
Q 2300 3394 2536 3241 
Q 2772 3088 2869 2813 
Q 3263 3394 3894 3394 
Q 4388 3394 4653 3120 
Q 4919 2847 4919 2278 
L 4919 0 
L 4359 0 
L 4359 2091 
Q 4359 2428 4304 2576 
Q 4250 2725 4106 2815 
Q 3963 2906 3769 2906 
Q 3419 2906 3187 2673 
Q 2956 2441 2956 1928 
L 2956 0 
L 2394 0 
L 2394 2156 
Q 2394 2531 2256 2718 
Q 2119 2906 1806 2906 
Q 1569 2906 1367 2781 
Q 1166 2656 1075 2415 
Q 984 2175 984 1722 
L 984 0 
L 422 0 
z
" transform="scale(0.015625)"/>
       <path id="ArialMT-28" d="M 1497 -1347 
Q 1031 -759 709 28 
Q 388 816 388 1659 
Q 388 2403 628 3084 
Q 909 3875 1497 4659 
L 1900 4659 
Q 1522 4009 1400 3731 
Q 1209 3300 1100 2831 
Q 966 2247 966 1656 
Q 966 153 1900 -1347 
L 1497 -1347 
z
" transform="scale(0.015625)"/>
       <path id="ArialMT-63" d="M 2588 1216 
L 3141 1144 
Q 3050 572 2676 248 
Q 2303 -75 1759 -75 
Q 1078 -75 664 370 
Q 250 816 250 1647 
Q 250 2184 428 2587 
Q 606 2991 970 3192 
Q 1334 3394 1763 3394 
Q 2303 3394 2647 3120 
Q 2991 2847 3088 2344 
L 2541 2259 
Q 2463 2594 2264 2762 
Q 2066 2931 1784 2931 
Q 1359 2931 1093 2626 
Q 828 2322 828 1663 
Q 828 994 1084 691 
Q 1341 388 1753 388 
Q 2084 388 2306 591 
Q 2528 794 2588 1216 
z
" transform="scale(0.015625)"/>
       <path id="ArialMT-29" d="M 791 -1347 
L 388 -1347 
Q 1322 153 1322 1656 
Q 1322 2244 1188 2822 
Q 1081 3291 891 3722 
Q 769 4003 388 4659 
L 791 4659 
Q 1378 3875 1659 3084 
Q 1900 2403 1900 1659 
Q 1900 816 1576 28 
Q 1253 -759 791 -1347 
z
" transform="scale(0.015625)"/>
      </defs>
      <use xlink:href="#ArialMT-45"/>
      <use xlink:href="#ArialMT-6c" transform="translate(66.699219 0)"/>
      <use xlink:href="#ArialMT-61" transform="translate(88.916016 0)"/>
      <use xlink:href="#ArialMT-70" transform="translate(144.53125 0)"/>
      <use xlink:href="#ArialMT-73" transform="translate(200.146484 0)"/>
      <use xlink:href="#ArialMT-65" transform="translate(250.146484 0)"/>
      <use xlink:href="#ArialMT-64" transform="translate(305.761719 0)"/>
      <use xlink:href="#ArialMT-20" transform="translate(361.376953 0)"/>
      <use xlink:href="#ArialMT-54" transform="translate(387.410156 0)"/>
      <use xlink:href="#ArialMT-69" transform="translate(444.744141 0)"/>
      <use xlink:href="#ArialMT-6d" transform="translate(466.960938 0)"/>
      <use xlink:href="#ArialMT-65" transform="translate(550.261719 0)"/>
      <use xlink:href="#ArialMT-20" transform="translate(605.876953 0)"/>
      <use xlink:href="#ArialMT-28" transform="translate(633.660156 0)"/>
      <use xlink:href="#ArialMT-73" transform="translate(666.960938 0)"/>
      <use xlink:href="#ArialMT-65" transform="translate(716.960938 0)"/>
      <use xlink:href="#ArialMT-63" transform="translate(772.576172 0)"/>
      <use xlink:href="#ArialMT-29" transform="translate(822.576172 0)"/>
     </g>
    </g>
   </g>
   <g id="matplotlib.axis_2">
    <g id="ytick_1">
     <g id="line2d_7">
      <path d="M 41.392188 225.804758 
L 432.535937 225.804758 
" clip-path="url(#pef6fe54419)" style="fill: none; stroke: #cccccc; stroke-opacity: 0.3; stroke-width: 0.8; stroke-linecap: round"/>
     </g>
     <g id="text_8">
      <!-- 0.8 -->
      <g style="fill: #262626" transform="translate(20.492188 229.383664) scale(0.1 -0.1)">
       <defs>
        <path id="ArialMT-2e" d="M 581 0 
L 581 641 
L 1222 641 
L 1222 0 
L 581 0 
z
" transform="scale(0.015625)"/>
        <path id="ArialMT-38" d="M 1131 2484 
Q 781 2613 612 2850 
Q 444 3088 444 3419 
Q 444 3919 803 4259 
Q 1163 4600 1759 4600 
Q 2359 4600 2725 4251 
Q 3091 3903 3091 3403 
Q 3091 3084 2923 2848 
Q 2756 2613 2416 2484 
Q 2838 2347 3058 2040 
Q 3278 1734 3278 1309 
Q 3278 722 2862 322 
Q 2447 -78 1769 -78 
Q 1091 -78 675 323 
Q 259 725 259 1325 
Q 259 1772 486 2073 
Q 713 2375 1131 2484 
z
M 1019 3438 
Q 1019 3113 1228 2906 
Q 1438 2700 1772 2700 
Q 2097 2700 2305 2904 
Q 2513 3109 2513 3406 
Q 2513 3716 2298 3927 
Q 2084 4138 1766 4138 
Q 1444 4138 1231 3931 
Q 1019 3725 1019 3438 
z
M 838 1322 
Q 838 1081 952 856 
Q 1066 631 1291 507 
Q 1516 384 1775 384 
Q 2178 384 2440 643 
Q 2703 903 2703 1303 
Q 2703 1709 2433 1975 
Q 2163 2241 1756 2241 
Q 1359 2241 1098 1978 
Q 838 1716 838 1322 
z
" transform="scale(0.015625)"/>
       </defs>
       <use xlink:href="#ArialMT-30"/>
       <use xlink:href="#ArialMT-2e" transform="translate(55.615234 0)"/>
       <use xlink:href="#ArialMT-38" transform="translate(83.398438 0)"/>
      </g>
     </g>
    </g>
    <g id="ytick_2">
     <g id="line2d_8">
      <path d="M 41.392188 201.214716 
L 432.535937 201.214716 
" clip-path="url(#pef6fe54419)" style="fill: none; stroke: #cccccc; stroke-opacity: 0.3; stroke-width: 0.8; stroke-linecap: round"/>
     </g>
     <g id="text_9">
      <!-- 1.0 -->
      <g style="fill: #262626" transform="translate(20.492188 204.793622) scale(0.1 -0.1)">
       <use xlink:href="#ArialMT-31"/>
       <use xlink:href="#ArialMT-2e" transform="translate(55.615234 0)"/>
       <use xlink:href="#ArialMT-30" transform="translate(83.398438 0)"/>
      </g>
     </g>
    </g>
    <g id="ytick_3">
     <g id="line2d_9">
      <path d="M 41.392188 176.624673 
L 432.535937 176.624673 
" clip-path="url(#pef6fe54419)" style="fill: none; stroke: #cccccc; stroke-opacity: 0.3; stroke-width: 0.8; stroke-linecap: round"/>
     </g>
     <g id="text_10">
      <!-- 1.2 -->
      <g style="fill: #262626" transform="translate(20.492188 180.20358) scale(0.1 -0.1)">
       <use xlink:href="#ArialMT-31"/>
       <use xlink:href="#ArialMT-2e" transform="translate(55.615234 0)"/>
       <use xlink:href="#ArialMT-32" transform="translate(83.398438 0)"/>
      </g>
     </g>
    </g>
    <g id="ytick_4">
     <g id="line2d_10">
      <path d="M 41.392188 152.034631 
L 432.535937 152.034631 
" clip-path="url(#pef6fe54419)" style="fill: none; stroke: #cccccc; stroke-opacity: 0.3; stroke-width: 0.8; stroke-linecap: round"/>
     </g>
     <g id="text_11">
      <!-- 1.4 -->
      <g style="fill: #262626" transform="translate(20.492188 155.613538) scale(0.1 -0.1)">
       <defs>
        <path id="ArialMT-34" d="M 2069 0 
L 2069 1097 
L 81 1097 
L 81 1613 
L 2172 4581 
L 2631 4581 
L 2631 1613 
L 3250 1613 
L 3250 1097 
L 2631 1097 
L 2631 0 
L 2069 0 
z
M 2069 1613 
L 2069 3678 
L 634 1613 
L 2069 1613 
z
" transform="scale(0.015625)"/>
       </defs>
       <use xlink:href="#ArialMT-31"/>
       <use xlink:href="#ArialMT-2e" transform="translate(55.615234 0)"/>
       <use xlink:href="#ArialMT-34" transform="translate(83.398438 0)"/>
      </g>
     </g>
    </g>
    <g id="ytick_5">
     <g id="line2d_11">
      <path d="M 41.392188 127.444589 
L 432.535937 127.444589 
" clip-path="url(#pef6fe54419)" style="fill: none; stroke: #cccccc; stroke-opacity: 0.3; stroke-width: 0.8; stroke-linecap: round"/>
     </g>
     <g id="text_12">
      <!-- 1.6 -->
      <g style="fill: #262626" transform="translate(20.492188 131.023496) scale(0.1 -0.1)">
       <defs>
        <path id="ArialMT-36" d="M 3184 3459 
L 2625 3416 
Q 2550 3747 2413 3897 
Q 2184 4138 1850 4138 
Q 1581 4138 1378 3988 
Q 1113 3794 959 3422 
Q 806 3050 800 2363 
Q 1003 2672 1297 2822 
Q 1591 2972 1913 2972 
Q 2475 2972 2870 2558 
Q 3266 2144 3266 1488 
Q 3266 1056 3080 686 
Q 2894 316 2569 119 
Q 2244 -78 1831 -78 
Q 1128 -78 684 439 
Q 241 956 241 2144 
Q 241 3472 731 4075 
Q 1159 4600 1884 4600 
Q 2425 4600 2770 4297 
Q 3116 3994 3184 3459 
z
M 888 1484 
Q 888 1194 1011 928 
Q 1134 663 1356 523 
Q 1578 384 1822 384 
Q 2178 384 2434 671 
Q 2691 959 2691 1453 
Q 2691 1928 2437 2201 
Q 2184 2475 1800 2475 
Q 1419 2475 1153 2201 
Q 888 1928 888 1484 
z
" transform="scale(0.015625)"/>
       </defs>
       <use xlink:href="#ArialMT-31"/>
       <use xlink:href="#ArialMT-2e" transform="translate(55.615234 0)"/>
       <use xlink:href="#ArialMT-36" transform="translate(83.398438 0)"/>
      </g>
     </g>
    </g>
    <g id="ytick_6">
     <g id="line2d_12">
      <path d="M 41.392188 102.854547 
L 432.535937 102.854547 
" clip-path="url(#pef6fe54419)" style="fill: none; stroke: #cccccc; stroke-opacity: 0.3; stroke-width: 0.8; stroke-linecap: round"/>
     </g>
     <g id="text_13">
      <!-- 1.8 -->
      <g style="fill: #262626" transform="translate(20.492188 106.433453) scale(0.1 -0.1)">
       <use xlink:href="#ArialMT-31"/>
       <use xlink:href="#ArialMT-2e" transform="translate(55.615234 0)"/>
       <use xlink:href="#ArialMT-38" transform="translate(83.398438 0)"/>
      </g>
     </g>
    </g>
    <g id="ytick_7">
     <g id="line2d_13">
      <path d="M 41.392188 78.264505 
L 432.535937 78.264505 
" clip-path="url(#pef6fe54419)" style="fill: none; stroke: #cccccc; stroke-opacity: 0.3; stroke-width: 0.8; stroke-linecap: round"/>
     </g>
     <g id="text_14">
      <!-- 2.0 -->
      <g style="fill: #262626" transform="translate(20.492188 81.843411) scale(0.1 -0.1)">
       <use xlink:href="#ArialMT-32"/>
       <use xlink:href="#ArialMT-2e" transform="translate(55.615234 0)"/>
       <use xlink:href="#ArialMT-30" transform="translate(83.398438 0)"/>
      </g>
     </g>
    </g>
    <g id="ytick_8">
     <g id="line2d_14">
      <path d="M 41.392188 53.674463 
L 432.535937 53.674463 
" clip-path="url(#pef6fe54419)" style="fill: none; stroke: #cccccc; stroke-opacity: 0.3; stroke-width: 0.8; stroke-linecap: round"/>
     </g>
     <g id="text_15">
      <!-- 2.2 -->
      <g style="fill: #262626" transform="translate(20.492188 57.253369) scale(0.1 -0.1)">
       <use xlink:href="#ArialMT-32"/>
       <use xlink:href="#ArialMT-2e" transform="translate(55.615234 0)"/>
       <use xlink:href="#ArialMT-32" transform="translate(83.398438 0)"/>
      </g>
     </g>
    </g>
    <g id="ytick_9">
     <g id="line2d_15">
      <path d="M 41.392188 29.084421 
L 432.535937 29.084421 
" clip-path="url(#pef6fe54419)" style="fill: none; stroke: #cccccc; stroke-opacity: 0.3; stroke-width: 0.8; stroke-linecap: round"/>
     </g>
     <g id="text_16">
      <!-- 2.4 -->
      <g style="fill: #262626" transform="translate(20.492188 32.663327) scale(0.1 -0.1)">
       <use xlink:href="#ArialMT-32"/>
       <use xlink:href="#ArialMT-2e" transform="translate(55.615234 0)"/>
       <use xlink:href="#ArialMT-34" transform="translate(83.398438 0)"/>
      </g>
     </g>
    </g>
    <g id="text_17">
     <!-- Mean pkg_j per 1s Bin -->
     <g style="fill: #262626" transform="translate(14.3875 181.837031) rotate(-90) scale(0.1 -0.1)">
      <defs>
       <path id="ArialMT-4d" d="M 475 0 
L 475 4581 
L 1388 4581 
L 2472 1338 
Q 2622 884 2691 659 
Q 2769 909 2934 1394 
L 4031 4581 
L 4847 4581 
L 4847 0 
L 4263 0 
L 4263 3834 
L 2931 0 
L 2384 0 
L 1059 3900 
L 1059 0 
L 475 0 
z
" transform="scale(0.015625)"/>
       <path id="ArialMT-6e" d="M 422 0 
L 422 3319 
L 928 3319 
L 928 2847 
Q 1294 3394 1984 3394 
Q 2284 3394 2536 3286 
Q 2788 3178 2913 3003 
Q 3038 2828 3088 2588 
Q 3119 2431 3119 2041 
L 3119 0 
L 2556 0 
L 2556 2019 
Q 2556 2363 2490 2533 
Q 2425 2703 2258 2804 
Q 2091 2906 1866 2906 
Q 1506 2906 1245 2678 
Q 984 2450 984 1813 
L 984 0 
L 422 0 
z
" transform="scale(0.015625)"/>
       <path id="ArialMT-6b" d="M 425 0 
L 425 4581 
L 988 4581 
L 988 1969 
L 2319 3319 
L 3047 3319 
L 1778 2088 
L 3175 0 
L 2481 0 
L 1384 1697 
L 988 1316 
L 988 0 
L 425 0 
z
" transform="scale(0.015625)"/>
       <path id="ArialMT-67" d="M 319 -275 
L 866 -356 
Q 900 -609 1056 -725 
Q 1266 -881 1628 -881 
Q 2019 -881 2231 -725 
Q 2444 -569 2519 -288 
Q 2563 -116 2559 434 
Q 2191 0 1641 0 
Q 956 0 581 494 
Q 206 988 206 1678 
Q 206 2153 378 2554 
Q 550 2956 876 3175 
Q 1203 3394 1644 3394 
Q 2231 3394 2613 2919 
L 2613 3319 
L 3131 3319 
L 3131 450 
Q 3131 -325 2973 -648 
Q 2816 -972 2473 -1159 
Q 2131 -1347 1631 -1347 
Q 1038 -1347 672 -1080 
Q 306 -813 319 -275 
z
M 784 1719 
Q 784 1066 1043 766 
Q 1303 466 1694 466 
Q 2081 466 2343 764 
Q 2606 1063 2606 1700 
Q 2606 2309 2336 2618 
Q 2066 2928 1684 2928 
Q 1309 2928 1046 2623 
Q 784 2319 784 1719 
z
" transform="scale(0.015625)"/>
       <path id="ArialMT-5f" d="M -97 -1272 
L -97 -866 
L 3631 -866 
L 3631 -1272 
L -97 -1272 
z
" transform="scale(0.015625)"/>
       <path id="ArialMT-6a" d="M 419 3928 
L 419 4581 
L 981 4581 
L 981 3928 
L 419 3928 
z
M -294 -1288 
L -188 -809 
Q -19 -853 78 -853 
Q 250 -853 334 -739 
Q 419 -625 419 -169 
L 419 3319 
L 981 3319 
L 981 -181 
Q 981 -794 822 -1034 
Q 619 -1347 147 -1347 
Q -81 -1347 -294 -1288 
z
" transform="scale(0.015625)"/>
       <path id="ArialMT-72" d="M 416 0 
L 416 3319 
L 922 3319 
L 922 2816 
Q 1116 3169 1280 3281 
Q 1444 3394 1641 3394 
Q 1925 3394 2219 3213 
L 2025 2691 
Q 1819 2813 1613 2813 
Q 1428 2813 1281 2702 
Q 1134 2591 1072 2394 
Q 978 2094 978 1738 
L 978 0 
L 416 0 
z
" transform="scale(0.015625)"/>
       <path id="ArialMT-42" d="M 469 0 
L 469 4581 
L 2188 4581 
Q 2713 4581 3030 4442 
Q 3347 4303 3526 4014 
Q 3706 3725 3706 3409 
Q 3706 3116 3547 2856 
Q 3388 2597 3066 2438 
Q 3481 2316 3704 2022 
Q 3928 1728 3928 1328 
Q 3928 1006 3792 729 
Q 3656 453 3456 303 
Q 3256 153 2954 76 
Q 2653 0 2216 0 
L 469 0 
z
M 1075 2656 
L 2066 2656 
Q 2469 2656 2644 2709 
Q 2875 2778 2992 2937 
Q 3109 3097 3109 3338 
Q 3109 3566 3000 3739 
Q 2891 3913 2687 3977 
Q 2484 4041 1991 4041 
L 1075 4041 
L 1075 2656 
z
M 1075 541 
L 2216 541 
Q 2509 541 2628 563 
Q 2838 600 2978 687 
Q 3119 775 3209 942 
Q 3300 1109 3300 1328 
Q 3300 1584 3169 1773 
Q 3038 1963 2805 2039 
Q 2572 2116 2134 2116 
L 1075 2116 
L 1075 541 
z
" transform="scale(0.015625)"/>
      </defs>
      <use xlink:href="#ArialMT-4d"/>
      <use xlink:href="#ArialMT-65" transform="translate(83.300781 0)"/>
      <use xlink:href="#ArialMT-61" transform="translate(138.916016 0)"/>
      <use xlink:href="#ArialMT-6e" transform="translate(194.53125 0)"/>
      <use xlink:href="#ArialMT-20" transform="translate(250.146484 0)"/>
      <use xlink:href="#ArialMT-70" transform="translate(277.929688 0)"/>
      <use xlink:href="#ArialMT-6b" transform="translate(333.544922 0)"/>
      <use xlink:href="#ArialMT-67" transform="translate(383.544922 0)"/>
      <use xlink:href="#ArialMT-5f" transform="translate(439.160156 0)"/>
      <use xlink:href="#ArialMT-6a" transform="translate(494.775391 0)"/>
      <use xlink:href="#ArialMT-20" transform="translate(516.992188 0)"/>
      <use xlink:href="#ArialMT-70" transform="translate(544.775391 0)"/>
      <use xlink:href="#ArialMT-65" transform="translate(600.390625 0)"/>
      <use xlink:href="#ArialMT-72" transform="translate(656.005859 0)"/>
      <use xlink:href="#ArialMT-20" transform="translate(689.306641 0)"/>
      <use xlink:href="#ArialMT-31" transform="translate(717.089844 0)"/>
      <use xlink:href="#ArialMT-73" transform="translate(772.705078 0)"/>
      <use xlink:href="#ArialMT-20" transform="translate(822.705078 0)"/>
      <use xlink:href="#ArialMT-42" transform="translate(850.488281 0)"/>
      <use xlink:href="#ArialMT-69" transform="translate(917.1875 0)"/>
      <use xlink:href="#ArialMT-6e" transform="translate(939.404297 0)"/>
     </g>
    </g>
   </g>
   <g id="line2d_16">
    <path d="M 41.392188 94.616883 
L 42.862653 67.076036 
L 44.333118 66.707185 
L 45.803583 69.65799 
L 47.274048 68.797339 
L 48.744514 63.51048 
L 50.214979 64.617032 
L 51.685444 69.28914 
L 53.155909 71.871094 
L 54.626375 71.256343 
L 56.09684 61.789177 
L 57.567305 63.75638 
L 59.03777 63.75638 
L 60.508235 59.944924 
L 61.978701 68.182588 
L 63.449166 66.338335 
L 64.919631 62.526878 
L 66.390096 62.035077 
L 67.860562 66.789152 
L 69.331027 67.813737 
L 70.801492 58.346571 
L 72.271957 68.305538 
L 73.742422 64.371131 
L 75.212888 69.166189 
L 76.683353 68.920289 
L 78.153818 68.059638 
L 79.624283 68.674389 
L 81.094749 68.551438 
L 82.565214 68.428488 
L 84.035679 68.920289 
L 85.506144 65.969484 
L 86.976609 70.149791 
L 88.447075 64.125231 
L 89.91754 66.707185 
L 91.388005 66.092434 
L 92.85847 65.354733 
L 94.328936 65.55965 
L 95.799401 66.215384 
L 97.269866 65.477683 
L 98.740331 63.87933 
L 100.210797 63.75638 
L 101.681262 66.215384 
L 103.151727 64.494081 
L 104.622192 69.41209 
L 106.092657 62.280978 
L 107.563123 63.018679 
L 109.033588 64.371131 
L 110.504053 64.617032 
L 111.974518 63.51048 
L 113.444984 64.125231 
L 114.915449 63.38753 
L 116.385914 64.248181 
L 117.856379 65.231783 
L 119.326844 65.231783 
L 120.79731 68.428488 
L 122.267775 59.576073 
L 123.73824 65.354733 
L 125.208705 66.830135 
L 126.679171 66.215384 
L 128.149636 66.461285 
L 129.620101 64.494081 
L 131.090566 65.231783 
L 132.561031 66.584235 
L 134.031497 66.830135 
L 135.501962 64.985882 
L 136.972427 70.518642 
L 138.442892 60.067874 
L 139.913358 66.092434 
L 141.383823 66.092434 
L 142.854288 65.969484 
L 144.324753 64.862932 
L 145.795219 63.141629 
L 147.265684 62.895729 
L 148.736149 64.985882 
L 150.206614 64.862932 
L 151.677079 64.125231 
L 153.147545 62.280978 
L 154.61801 68.797339 
L 156.088475 60.559675 
L 157.55894 65.354733 
L 159.029406 66.584235 
L 160.499871 66.461285 
L 161.970336 69.28914 
L 163.440801 64.739982 
L 164.911266 69.043239 
L 166.381732 65.108833 
L 167.852197 54.781015 
L 169.322662 64.617032 
L 170.793127 62.895729 
L 172.263593 61.543276 
L 173.734058 64.371131 
L 175.204523 82.128655 
" clip-path="url(#pef6fe54419)" style="fill: none; stroke: #1f77b4; stroke-width: 2; stroke-linecap: round"/>
   </g>
   <g id="line2d_17">
    <path d="M 41.392188 101.993896 
L 42.862653 71.133393 
L 44.333118 69.043239 
L 45.803583 69.903891 
L 47.274048 69.780941 
L 48.744514 67.444887 
L 50.214979 68.797339 
L 51.685444 69.41209 
L 53.155909 69.28914 
L 54.626375 68.920289 
L 56.09684 65.477683 
L 57.567305 69.41209 
L 59.03777 54.781015 
L 60.508235 63.87933 
L 61.978701 66.953086 
L 63.449166 64.985882 
L 64.919631 66.707185 
L 66.390096 67.813737 
L 67.860562 65.969484 
L 69.331027 67.076036 
L 70.801492 64.494081 
L 72.271957 67.198986 
L 73.742422 73.469447 
L 75.212888 62.035077 
L 76.683353 64.125231 
L 78.153818 49.3029 
L 79.624283 66.215384 
L 81.094749 62.649828 
L 82.565214 63.38753 
L 84.035679 63.38753 
L 85.506144 60.313774 
L 86.976609 62.895729 
L 88.447075 64.002281 
L 89.91754 68.305538 
L 91.388005 61.789177 
L 92.85847 62.772779 
L 94.328936 63.141629 
L 95.799401 63.87933 
L 97.269866 63.264579 
L 98.740331 64.248181 
L 100.210797 63.018679 
L 101.681262 63.018679 
L 103.151727 61.543276 
L 104.622192 64.371131 
L 106.092657 64.494081 
L 107.563123 58.469521 
L 109.033588 61.297376 
L 110.504053 61.789177 
L 111.974518 60.436725 
L 113.444984 60.559675 
L 114.915449 31.816648 
L 116.385914 69.043239 
L 117.856379 64.125231 
L 119.326844 62.526878 
L 120.79731 64.002281 
L 122.267775 60.805575 
L 123.73824 68.182588 
L 125.208705 62.690812 
L 126.679171 64.494081 
L 128.149636 63.38753 
L 129.620101 62.649828 
L 131.090566 64.371131 
L 132.561031 64.248181 
L 134.031497 70.518642 
L 135.501962 64.494081 
L 136.972427 63.87933 
L 138.442892 64.002281 
L 139.913358 71.133393 
L 141.383823 67.198986 
L 142.854288 62.772779 
L 144.324753 63.63343 
L 145.795219 68.797339 
L 147.265684 68.551438 
L 148.736149 63.38753 
L 150.206614 69.903891 
L 151.677079 62.895729 
L 153.147545 58.223621 
L 154.61801 57.85477 
L 156.088475 60.067874 
L 157.55894 61.543276 
L 159.029406 66.584235 
L 160.499871 70.149791 
L 161.970336 65.846534 
L 163.440801 59.207222 
L 164.911266 60.436725 
L 166.381732 62.280978 
L 167.852197 67.567837 
L 169.322662 62.526878 
L 170.793127 61.297376 
L 172.263593 60.559675 
L 173.734058 75.5596 
L 175.204523 62.964034 
" clip-path="url(#pef6fe54419)" style="fill: none; stroke: #ff7f0e; stroke-width: 2; stroke-linecap: round"/>
   </g>
   <g id="patch_3">
    <path d="M 41.392188 242.389375 
L 41.392188 21.789375 
" style="fill: none; stroke: #cccccc; stroke-width: 0.8; stroke-linejoin: miter; stroke-linecap: square"/>
   </g>
   <g id="patch_4">
    <path d="M 432.535937 242.389375 
L 432.535937 21.789375 
" style="fill: none; stroke: #cccccc; stroke-width: 0.8; stroke-linejoin: miter; stroke-linecap: square"/>
   </g>
   <g id="patch_5">
    <path d="M 41.392188 242.389375 
L 432.535937 242.389375 
" style="fill: none; stroke: #cccccc; stroke-width: 0.8; stroke-linejoin: miter; stroke-linecap: square"/>
   </g>
   <g id="patch_6">
    <path d="M 41.392188 21.789375 
L 432.535937 21.789375 
" style="fill: none; stroke: #cccccc; stroke-width: 0.8; stroke-linejoin: miter; stroke-linecap: square"/>
   </g>
   <g id="text_18">
    <!-- APX1092 — PC2 all cores -->
    <g style="fill: #262626" transform="translate(166.598125 15.789375) scale(0.12 -0.12)">
     <defs>
      <path id="ArialMT-41" d="M -9 0 
L 1750 4581 
L 2403 4581 
L 4278 0 
L 3588 0 
L 3053 1388 
L 1138 1388 
L 634 0 
L -9 0 
z
M 1313 1881 
L 2866 1881 
L 2388 3150 
Q 2169 3728 2063 4100 
Q 1975 3659 1816 3225 
L 1313 1881 
z
" transform="scale(0.015625)"/>
      <path id="ArialMT-50" d="M 494 0 
L 494 4581 
L 2222 4581 
Q 2678 4581 2919 4538 
Q 3256 4481 3484 4323 
Q 3713 4166 3852 3881 
Q 3991 3597 3991 3256 
Q 3991 2672 3619 2267 
Q 3247 1863 2275 1863 
L 1100 1863 
L 1100 0 
L 494 0 
z
M 1100 2403 
L 2284 2403 
Q 2872 2403 3119 2622 
Q 3366 2841 3366 3238 
Q 3366 3525 3220 3729 
Q 3075 3934 2838 4000 
Q 2684 4041 2272 4041 
L 1100 4041 
L 1100 2403 
z
" transform="scale(0.015625)"/>
      <path id="ArialMT-58" d="M 28 0 
L 1800 2388 
L 238 4581 
L 959 4581 
L 1791 3406 
Q 2050 3041 2159 2844 
Q 2313 3094 2522 3366 
L 3444 4581 
L 4103 4581 
L 2494 2422 
L 4228 0 
L 3478 0 
L 2325 1634 
Q 2228 1775 2125 1941 
Q 1972 1691 1906 1597 
L 756 0 
L 28 0 
z
" transform="scale(0.015625)"/>
      <path id="ArialMT-39" d="M 350 1059 
L 891 1109 
Q 959 728 1153 556 
Q 1347 384 1650 384 
Q 1909 384 2104 503 
Q 2300 622 2425 820 
Q 2550 1019 2634 1356 
Q 2719 1694 2719 2044 
Q 2719 2081 2716 2156 
Q 2547 1888 2255 1720 
Q 1963 1553 1622 1553 
Q 1053 1553 659 1965 
Q 266 2378 266 3053 
Q 266 3750 677 4175 
Q 1088 4600 1706 4600 
Q 2153 4600 2523 4359 
Q 2894 4119 3086 3673 
Q 3278 3228 3278 2384 
Q 3278 1506 3087 986 
Q 2897 466 2520 194 
Q 2144 -78 1638 -78 
Q 1100 -78 759 220 
Q 419 519 350 1059 
z
M 2653 3081 
Q 2653 3566 2395 3850 
Q 2138 4134 1775 4134 
Q 1400 4134 1122 3828 
Q 844 3522 844 3034 
Q 844 2597 1108 2323 
Q 1372 2050 1759 2050 
Q 2150 2050 2401 2323 
Q 2653 2597 2653 3081 
z
" transform="scale(0.015625)"/>
      <path id="ArialMT-2014" d="M 0 1431 
L 0 1884 
L 6400 1884 
L 6400 1431 
L 0 1431 
z
" transform="scale(0.015625)"/>
      <path id="ArialMT-43" d="M 3763 1606 
L 4369 1453 
Q 4178 706 3683 314 
Q 3188 -78 2472 -78 
Q 1731 -78 1267 223 
Q 803 525 561 1097 
Q 319 1669 319 2325 
Q 319 3041 592 3573 
Q 866 4106 1370 4382 
Q 1875 4659 2481 4659 
Q 3169 4659 3637 4309 
Q 4106 3959 4291 3325 
L 3694 3184 
Q 3534 3684 3231 3912 
Q 2928 4141 2469 4141 
Q 1941 4141 1586 3887 
Q 1231 3634 1087 3207 
Q 944 2781 944 2328 
Q 944 1744 1114 1308 
Q 1284 872 1643 656 
Q 2003 441 2422 441 
Q 2931 441 3284 734 
Q 3638 1028 3763 1606 
z
" transform="scale(0.015625)"/>
      <path id="ArialMT-6f" d="M 213 1659 
Q 213 2581 725 3025 
Q 1153 3394 1769 3394 
Q 2453 3394 2887 2945 
Q 3322 2497 3322 1706 
Q 3322 1066 3130 698 
Q 2938 331 2570 128 
Q 2203 -75 1769 -75 
Q 1072 -75 642 372 
Q 213 819 213 1659 
z
M 791 1659 
Q 791 1022 1069 705 
Q 1347 388 1769 388 
Q 2188 388 2466 706 
Q 2744 1025 2744 1678 
Q 2744 2294 2464 2611 
Q 2184 2928 1769 2928 
Q 1347 2928 1069 2612 
Q 791 2297 791 1659 
z
" transform="scale(0.015625)"/>
     </defs>
     <use xlink:href="#ArialMT-41"/>
     <use xlink:href="#ArialMT-50" transform="translate(66.699219 0)"/>
     <use xlink:href="#ArialMT-58" transform="translate(133.398438 0)"/>
     <use xlink:href="#ArialMT-31" transform="translate(200.097656 0)"/>
     <use xlink:href="#ArialMT-30" transform="translate(255.712891 0)"/>
     <use xlink:href="#ArialMT-39" transform="translate(311.328125 0)"/>
     <use xlink:href="#ArialMT-32" transform="translate(366.943359 0)"/>
     <use xlink:href="#ArialMT-20" transform="translate(422.558594 0)"/>
     <use xlink:href="#ArialMT-2014" transform="translate(450.341797 0)"/>
     <use xlink:href="#ArialMT-20" transform="translate(550.341797 0)"/>
     <use xlink:href="#ArialMT-50" transform="translate(578.125 0)"/>
     <use xlink:href="#ArialMT-43" transform="translate(644.824219 0)"/>
     <use xlink:href="#ArialMT-32" transform="translate(717.041016 0)"/>
     <use xlink:href="#ArialMT-20" transform="translate(772.65625 0)"/>
     <use xlink:href="#ArialMT-61" transform="translate(800.439453 0)"/>
     <use xlink:href="#ArialMT-6c" transform="translate(856.054688 0)"/>
     <use xlink:href="#ArialMT-6c" transform="translate(878.271484 0)"/>
     <use xlink:href="#ArialMT-20" transform="translate(900.488281 0)"/>
     <use xlink:href="#ArialMT-63" transform="translate(928.271484 0)"/>
     <use xlink:href="#ArialMT-6f" transform="translate(978.271484 0)"/>
     <use xlink:href="#ArialMT-72" transform="translate(1033.886719 0)"/>
     <use xlink:href="#ArialMT-65" transform="translate(1067.1875 0)"/>
     <use xlink:href="#ArialMT-73" transform="translate(1122.802734 0)"/>
    </g>
   </g>
   <g id="legend_1">
    <g id="patch_7">
     <path d="M 361.853125 58.314375 
L 425.535937 58.314375 
Q 427.535937 58.314375 427.535937 56.314375 
L 427.535937 28.789375 
Q 427.535937 26.789375 425.535937 26.789375 
L 361.853125 26.789375 
Q 359.853125 26.789375 359.853125 28.789375 
L 359.853125 56.314375 
Q 359.853125 58.314375 361.853125 58.314375 
z
" style="fill: #ffffff; opacity: 0.8; stroke: #cccccc; stroke-linejoin: miter"/>
    </g>
    <g id="line2d_18">
     <path d="M 363.853125 34.447188 
L 373.853125 34.447188 
L 383.853125 34.447188 
" style="fill: none; stroke: #1f77b4; stroke-width: 2; stroke-linecap: round"/>
    </g>
    <g id="text_19">
     <!-- queryA -->
     <g style="fill: #262626" transform="translate(391.853125 37.947188) scale(0.1 -0.1)">
      <defs>
       <path id="ArialMT-71" d="M 2538 -1272 
L 2538 353 
Q 2406 169 2170 47 
Q 1934 -75 1669 -75 
Q 1078 -75 651 397 
Q 225 869 225 1691 
Q 225 2191 398 2587 
Q 572 2984 901 3189 
Q 1231 3394 1625 3394 
Q 2241 3394 2594 2875 
L 2594 3319 
L 3100 3319 
L 3100 -1272 
L 2538 -1272 
z
M 803 1669 
Q 803 1028 1072 708 
Q 1341 388 1716 388 
Q 2075 388 2334 692 
Q 2594 997 2594 1619 
Q 2594 2281 2320 2615 
Q 2047 2950 1678 2950 
Q 1313 2950 1058 2639 
Q 803 2328 803 1669 
z
" transform="scale(0.015625)"/>
       <path id="ArialMT-75" d="M 2597 0 
L 2597 488 
Q 2209 -75 1544 -75 
Q 1250 -75 995 37 
Q 741 150 617 320 
Q 494 491 444 738 
Q 409 903 409 1263 
L 409 3319 
L 972 3319 
L 972 1478 
Q 972 1038 1006 884 
Q 1059 663 1231 536 
Q 1403 409 1656 409 
Q 1909 409 2131 539 
Q 2353 669 2445 892 
Q 2538 1116 2538 1541 
L 2538 3319 
L 3100 3319 
L 3100 0 
L 2597 0 
z
" transform="scale(0.015625)"/>
       <path id="ArialMT-79" d="M 397 -1278 
L 334 -750 
Q 519 -800 656 -800 
Q 844 -800 956 -737 
Q 1069 -675 1141 -563 
Q 1194 -478 1313 -144 
Q 1328 -97 1363 -6 
L 103 3319 
L 709 3319 
L 1400 1397 
Q 1534 1031 1641 628 
Q 1738 1016 1872 1384 
L 2581 3319 
L 3144 3319 
L 1881 -56 
Q 1678 -603 1566 -809 
Q 1416 -1088 1222 -1217 
Q 1028 -1347 759 -1347 
Q 597 -1347 397 -1278 
z
" transform="scale(0.015625)"/>
      </defs>
      <use xlink:href="#ArialMT-71"/>
      <use xlink:href="#ArialMT-75" transform="translate(55.615234 0)"/>
      <use xlink:href="#ArialMT-65" transform="translate(111.230469 0)"/>
      <use xlink:href="#ArialMT-72" transform="translate(166.845703 0)"/>
      <use xlink:href="#ArialMT-79" transform="translate(200.146484 0)"/>
      <use xlink:href="#ArialMT-41" transform="translate(250.146484 0)"/>
     </g>
    </g>
    <g id="line2d_19">
     <path d="M 363.853125 48.709688 
L 373.853125 48.709688 
L 383.853125 48.709688 
" style="fill: none; stroke: #ff7f0e; stroke-width: 2; stroke-linecap: round"/>
    </g>
    <g id="text_20">
     <!-- queryB -->
     <g style="fill: #262626" transform="translate(391.853125 52.209688) scale(0.1 -0.1)">
      <use xlink:href="#ArialMT-71"/>
      <use xlink:href="#ArialMT-75" transform="translate(55.615234 0)"/>
      <use xlink:href="#ArialMT-65" transform="translate(111.230469 0)"/>
      <use xlink:href="#ArialMT-72" transform="translate(166.845703 0)"/>
      <use xlink:href="#ArialMT-79" transform="translate(200.146484 0)"/>
      <use xlink:href="#ArialMT-42" transform="translate(250.146484 0)"/>
     </g>
    </g>
   </g>
  </g>
  <g id="axes_2">
   <g id="patch_8">
    <path d="M 457.517187 242.389375 
L 848.660937 242.389375 
L 848.660937 21.789375 
L 457.517187 21.789375 
z
" style="fill: #ffffff"/>
   </g>
   <g id="matplotlib.axis_3">
    <g id="xtick_7">
     <g id="line2d_20">
      <path d="M 457.517187 242.389375 
L 457.517187 21.789375 
" clip-path="url(#p7e3e0d08f9)" style="fill: none; stroke: #cccccc; stroke-opacity: 0.3; stroke-width: 0.8; stroke-linecap: round"/>
     </g>
     <g id="text_21">
      <!-- 0 -->
      <g style="fill: #262626" transform="translate(454.736719 256.547188) scale(0.1 -0.1)">
       <use xlink:href="#ArialMT-30"/>
      </g>
     </g>
    </g>
    <g id="xtick_8">
     <g id="line2d_21">
      <path d="M 531.040449 242.389375 
L 531.040449 21.789375 
" clip-path="url(#p7e3e0d08f9)" style="fill: none; stroke: #cccccc; stroke-opacity: 0.3; stroke-width: 0.8; stroke-linecap: round"/>
     </g>
     <g id="text_22">
      <!-- 50 -->
      <g style="fill: #262626" transform="translate(525.479511 256.547188) scale(0.1 -0.1)">
       <use xlink:href="#ArialMT-35"/>
       <use xlink:href="#ArialMT-30" transform="translate(55.615234 0)"/>
      </g>
     </g>
    </g>
    <g id="xtick_9">
     <g id="line2d_22">
      <path d="M 604.56371 242.389375 
L 604.56371 21.789375 
" clip-path="url(#p7e3e0d08f9)" style="fill: none; stroke: #cccccc; stroke-opacity: 0.3; stroke-width: 0.8; stroke-linecap: round"/>
     </g>
     <g id="text_23">
      <!-- 100 -->
      <g style="fill: #262626" transform="translate(596.222304 256.547188) scale(0.1 -0.1)">
       <use xlink:href="#ArialMT-31"/>
       <use xlink:href="#ArialMT-30" transform="translate(55.615234 0)"/>
       <use xlink:href="#ArialMT-30" transform="translate(111.230469 0)"/>
      </g>
     </g>
    </g>
    <g id="xtick_10">
     <g id="line2d_23">
      <path d="M 678.086971 242.389375 
L 678.086971 21.789375 
" clip-path="url(#p7e3e0d08f9)" style="fill: none; stroke: #cccccc; stroke-opacity: 0.3; stroke-width: 0.8; stroke-linecap: round"/>
     </g>
     <g id="text_24">
      <!-- 150 -->
      <g style="fill: #262626" transform="translate(669.745565 256.547188) scale(0.1 -0.1)">
       <use xlink:href="#ArialMT-31"/>
       <use xlink:href="#ArialMT-35" transform="translate(55.615234 0)"/>
       <use xlink:href="#ArialMT-30" transform="translate(111.230469 0)"/>
      </g>
     </g>
    </g>
    <g id="xtick_11">
     <g id="line2d_24">
      <path d="M 751.610233 242.389375 
L 751.610233 21.789375 
" clip-path="url(#p7e3e0d08f9)" style="fill: none; stroke: #cccccc; stroke-opacity: 0.3; stroke-width: 0.8; stroke-linecap: round"/>
     </g>
     <g id="text_25">
      <!-- 200 -->
      <g style="fill: #262626" transform="translate(743.268826 256.547188) scale(0.1 -0.1)">
       <use xlink:href="#ArialMT-32"/>
       <use xlink:href="#ArialMT-30" transform="translate(55.615234 0)"/>
       <use xlink:href="#ArialMT-30" transform="translate(111.230469 0)"/>
      </g>
     </g>
    </g>
    <g id="xtick_12">
     <g id="line2d_25">
      <path d="M 825.133494 242.389375 
L 825.133494 21.789375 
" clip-path="url(#p7e3e0d08f9)" style="fill: none; stroke: #cccccc; stroke-opacity: 0.3; stroke-width: 0.8; stroke-linecap: round"/>
     </g>
     <g id="text_26">
      <!-- 250 -->
      <g style="fill: #262626" transform="translate(816.792088 256.547188) scale(0.1 -0.1)">
       <use xlink:href="#ArialMT-32"/>
       <use xlink:href="#ArialMT-35" transform="translate(55.615234 0)"/>
       <use xlink:href="#ArialMT-30" transform="translate(111.230469 0)"/>
      </g>
     </g>
    </g>
    <g id="text_27">
     <!-- Elapsed Time (sec) -->
     <g style="fill: #262626" transform="translate(610.297656 269.814375) scale(0.1 -0.1)">
      <use xlink:href="#ArialMT-45"/>
      <use xlink:href="#ArialMT-6c" transform="translate(66.699219 0)"/>
      <use xlink:href="#ArialMT-61" transform="translate(88.916016 0)"/>
      <use xlink:href="#ArialMT-70" transform="translate(144.53125 0)"/>
      <use xlink:href="#ArialMT-73" transform="translate(200.146484 0)"/>
      <use xlink:href="#ArialMT-65" transform="translate(250.146484 0)"/>
      <use xlink:href="#ArialMT-64" transform="translate(305.761719 0)"/>
      <use xlink:href="#ArialMT-20" transform="translate(361.376953 0)"/>
      <use xlink:href="#ArialMT-54" transform="translate(387.410156 0)"/>
      <use xlink:href="#ArialMT-69" transform="translate(444.744141 0)"/>
      <use xlink:href="#ArialMT-6d" transform="translate(466.960938 0)"/>
      <use xlink:href="#ArialMT-65" transform="translate(550.261719 0)"/>
      <use xlink:href="#ArialMT-20" transform="translate(605.876953 0)"/>
      <use xlink:href="#ArialMT-28" transform="translate(633.660156 0)"/>
      <use xlink:href="#ArialMT-73" transform="translate(666.960938 0)"/>
      <use xlink:href="#ArialMT-65" transform="translate(716.960938 0)"/>
      <use xlink:href="#ArialMT-63" transform="translate(772.576172 0)"/>
      <use xlink:href="#ArialMT-29" transform="translate(822.576172 0)"/>
     </g>
    </g>
   </g>
   <g id="matplotlib.axis_4">
    <g id="ytick_10">
     <g id="line2d_26">
      <path d="M 457.517187 225.804758 
L 848.660937 225.804758 
" clip-path="url(#p7e3e0d08f9)" style="fill: none; stroke: #cccccc; stroke-opacity: 0.3; stroke-width: 0.8; stroke-linecap: round"/>
     </g>
    </g>
    <g id="ytick_11">
     <g id="line2d_27">
      <path d="M 457.517187 201.214716 
L 848.660937 201.214716 
" clip-path="url(#p7e3e0d08f9)" style="fill: none; stroke: #cccccc; stroke-opacity: 0.3; stroke-width: 0.8; stroke-linecap: round"/>
     </g>
    </g>
    <g id="ytick_12">
     <g id="line2d_28">
      <path d="M 457.517187 176.624673 
L 848.660937 176.624673 
" clip-path="url(#p7e3e0d08f9)" style="fill: none; stroke: #cccccc; stroke-opacity: 0.3; stroke-width: 0.8; stroke-linecap: round"/>
     </g>
    </g>
    <g id="ytick_13">
     <g id="line2d_29">
      <path d="M 457.517187 152.034631 
L 848.660937 152.034631 
" clip-path="url(#p7e3e0d08f9)" style="fill: none; stroke: #cccccc; stroke-opacity: 0.3; stroke-width: 0.8; stroke-linecap: round"/>
     </g>
    </g>
    <g id="ytick_14">
     <g id="line2d_30">
      <path d="M 457.517187 127.444589 
L 848.660937 127.444589 
" clip-path="url(#p7e3e0d08f9)" style="fill: none; stroke: #cccccc; stroke-opacity: 0.3; stroke-width: 0.8; stroke-linecap: round"/>
     </g>
    </g>
    <g id="ytick_15">
     <g id="line2d_31">
      <path d="M 457.517187 102.854547 
L 848.660937 102.854547 
" clip-path="url(#p7e3e0d08f9)" style="fill: none; stroke: #cccccc; stroke-opacity: 0.3; stroke-width: 0.8; stroke-linecap: round"/>
     </g>
    </g>
    <g id="ytick_16">
     <g id="line2d_32">
      <path d="M 457.517187 78.264505 
L 848.660937 78.264505 
" clip-path="url(#p7e3e0d08f9)" style="fill: none; stroke: #cccccc; stroke-opacity: 0.3; stroke-width: 0.8; stroke-linecap: round"/>
     </g>
    </g>
    <g id="ytick_17">
     <g id="line2d_33">
      <path d="M 457.517187 53.674463 
L 848.660937 53.674463 
" clip-path="url(#p7e3e0d08f9)" style="fill: none; stroke: #cccccc; stroke-opacity: 0.3; stroke-width: 0.8; stroke-linecap: round"/>
     </g>
    </g>
    <g id="ytick_18">
     <g id="line2d_34">
      <path d="M 457.517187 29.084421 
L 848.660937 29.084421 
" clip-path="url(#p7e3e0d08f9)" style="fill: none; stroke: #cccccc; stroke-opacity: 0.3; stroke-width: 0.8; stroke-linecap: round"/>
     </g>
    </g>
    <g id="text_28">
     <!-- Mean pkg_j per 1s Bin -->
     <g style="fill: #262626" transform="translate(451.4125 181.837031) rotate(-90) scale(0.1 -0.1)">
      <use xlink:href="#ArialMT-4d"/>
      <use xlink:href="#ArialMT-65" transform="translate(83.300781 0)"/>
      <use xlink:href="#ArialMT-61" transform="translate(138.916016 0)"/>
      <use xlink:href="#ArialMT-6e" transform="translate(194.53125 0)"/>
      <use xlink:href="#ArialMT-20" transform="translate(250.146484 0)"/>
      <use xlink:href="#ArialMT-70" transform="translate(277.929688 0)"/>
      <use xlink:href="#ArialMT-6b" transform="translate(333.544922 0)"/>
      <use xlink:href="#ArialMT-67" transform="translate(383.544922 0)"/>
      <use xlink:href="#ArialMT-5f" transform="translate(439.160156 0)"/>
      <use xlink:href="#ArialMT-6a" transform="translate(494.775391 0)"/>
      <use xlink:href="#ArialMT-20" transform="translate(516.992188 0)"/>
      <use xlink:href="#ArialMT-70" transform="translate(544.775391 0)"/>
      <use xlink:href="#ArialMT-65" transform="translate(600.390625 0)"/>
      <use xlink:href="#ArialMT-72" transform="translate(656.005859 0)"/>
      <use xlink:href="#ArialMT-20" transform="translate(689.306641 0)"/>
      <use xlink:href="#ArialMT-31" transform="translate(717.089844 0)"/>
      <use xlink:href="#ArialMT-73" transform="translate(772.705078 0)"/>
      <use xlink:href="#ArialMT-20" transform="translate(822.705078 0)"/>
      <use xlink:href="#ArialMT-42" transform="translate(850.488281 0)"/>
      <use xlink:href="#ArialMT-69" transform="translate(917.1875 0)"/>
      <use xlink:href="#ArialMT-6e" transform="translate(939.404297 0)"/>
     </g>
    </g>
   </g>
   <g id="line2d_35">
    <path d="M 457.517187 213.263836 
L 458.987653 212.894986 
L 460.458118 201.706516 
L 461.928583 205.026172 
L 463.399048 202.198317 
L 464.869514 192.485251 
L 466.339979 202.567168 
L 467.810444 200.231114 
L 469.280909 198.14096 
L 470.751375 200.231114 
L 472.22184 187.143747 
L 473.692305 201.460616 
L 475.16277 201.829467 
L 476.633235 196.296707 
L 478.103701 201.829467 
L 479.574166 196.173757 
L 481.044631 199.862263 
L 482.515096 201.214716 
L 483.985562 195.559006 
L 485.456027 201.706516 
L 486.926492 199.616363 
L 488.396957 196.296707 
L 489.867422 201.829467 
L 491.337888 194.206554 
L 492.808353 201.706516 
L 494.278818 200.108164 
L 495.749283 196.911458 
L 497.219749 201.214716 
L 498.690214 201.214716 
L 500.160679 195.681956 
L 501.631144 199.739313 
L 503.101609 196.173757 
L 504.572075 200.231114 
L 506.04254 200.968815 
L 507.513005 195.340428 
L 508.98347 200.231114 
L 510.453936 199.001612 
L 511.924401 197.034408 
L 513.394866 200.231114 
L 514.865331 195.804906 
L 516.335797 200.108164 
L 517.806262 199.985213 
L 519.276727 193.468852 
L 520.747192 201.460616 
L 522.217657 196.665558 
L 523.688123 199.247512 
L 525.158588 199.862263 
L 526.629053 194.083603 
L 528.099518 200.968815 
L 529.569984 200.845865 
L 531.040449 196.173757 
L 532.510914 199.862263 
L 533.981379 194.821305 
L 535.451844 200.722915 
L 536.92231 200.845865 
L 538.392775 194.944255 
L 539.86324 199.985213 
L 541.333705 198.386861 
L 542.804171 196.419657 
L 544.274636 199.616363 
L 545.745101 194.575404 
L 547.215566 200.108164 
L 548.686031 199.711991 
L 550.156497 194.206554 
L 551.626962 202.690118 
L 553.097427 199.862263 
L 554.567892 195.681956 
L 556.038358 200.231114 
L 557.508823 195.436056 
L 558.979288 200.108164 
L 560.449753 200.354064 
L 561.920219 194.821305 
L 563.390684 201.337666 
L 564.861149 190.026246 
L 566.331614 200.395048 
L 567.802079 200.845865 
L 569.272545 194.821305 
L 570.74301 200.354064 
L 572.213475 201.829467 
L 573.68394 196.665558 
L 575.154406 201.583566 
L 576.624871 197.403259 
L 578.095336 199.739313 
L 579.565801 201.214716 
L 581.036266 197.403259 
L 582.506732 202.321267 
L 583.977197 202.444218 
L 585.447662 193.468852 
L 586.918127 199.985213 
L 588.388593 196.788508 
L 589.859058 201.829467 
L 591.329523 201.460616 
L 592.799988 195.313105 
L 594.270453 200.722915 
L 595.740919 195.804906 
L 597.211384 193.837703 
L 598.681849 201.952417 
L 600.152314 193.591803 
L 601.62278 201.337666 
L 603.093245 205.640923 
L 604.56371 196.911458 
L 606.034175 204.657321 
L 607.504641 203.304869 
L 608.975106 199.862263 
L 610.445571 204.903222 
L 611.916036 197.034408 
L 613.386501 204.903222 
L 614.856967 203.79667 
L 616.327432 196.911458 
L 617.797897 202.936019 
L 619.268362 203.427819 
L 620.738828 197.403259 
L 622.209293 203.79667 
L 623.679758 198.509811 
L 625.150223 202.936019 
L 626.620688 202.936019 
L 628.091154 196.173757 
L 629.561619 204.534371 
L 631.032084 201.583566 
L 632.502549 195.804906 
L 633.973015 202.198317 
L 635.44348 196.173757 
L 636.913945 202.075367 
L 638.38441 203.181919 
L 639.854875 194.793982 
L 641.325341 201.706516 
L 642.795806 203.181919 
L 644.266271 195.804906 
L 645.736736 201.337666 
L 647.207202 198.263911 
L 648.677667 200.108164 
L 650.148132 201.460616 
L 651.618597 196.173757 
L 653.089062 205.026172 
L 654.559528 204.657321 
L 656.029993 197.157359 
L 657.500458 206.378624 
L 658.970923 196.911458 
L 660.441389 204.657321 
L 661.911854 205.886824 
L 663.382319 196.419657 
L 664.852784 206.378624 
L 666.32325 204.288471 
L 667.793715 199.739313 
L 669.26418 205.763873 
L 670.734645 196.788508 
L 672.20511 204.288471 
L 673.675576 204.288471 
L 675.146041 195.190155 
L 676.616506 204.220165 
L 678.086971 204.288471 
L 679.557437 196.911458 
L 681.027902 206.132724 
L 682.498367 197.526209 
L 683.968832 205.886824 
L 685.439297 203.058969 
L 686.909763 194.821305 
L 688.380228 201.583566 
L 689.850693 203.181919 
L 691.321158 199.001612 
L 692.791624 205.272073 
L 694.262089 196.911458 
L 695.732554 205.640923 
L 697.203019 204.903222 
L 698.673484 197.89506 
L 700.14395 200.968815 
L 701.614415 199.028934 
L 703.08488 195.436056 
L 704.555345 205.763873 
L 706.025811 195.927857 
L 707.496276 204.534371 
L 708.966741 204.288471 
L 710.437206 196.542608 
L 711.907672 206.132724 
L 713.378137 203.67372 
L 714.848602 197.77211 
L 716.319067 206.378624 
L 717.789532 198.632761 
L 719.259998 204.165521 
L 720.730463 202.690118 
L 722.200928 196.419657 
L 723.671393 200.722915 
L 725.141859 202.444218 
L 726.612324 197.157359 
L 728.082789 205.763873 
L 729.553254 198.755711 
L 731.023719 199.985213 
L 732.494185 206.132724 
L 733.96465 195.559006 
L 735.435115 204.493388 
L 736.90558 203.55077 
L 738.376046 194.575404 
L 739.846511 205.640923 
L 741.316976 198.509811 
L 742.787441 199.001612 
L 744.257906 200.231114 
L 745.728372 194.329504 
L 747.198837 200.354064 
L 748.669302 199.370462 
L 750.139767 193.837703 
L 751.610233 200.354064 
L 753.080698 195.067205 
L 754.551163 199.493413 
L 756.021628 200.354064 
L 757.492094 194.821305 
L 758.962559 200.108164 
L 760.433024 198.01801 
L 761.903489 194.329504 
L 763.373954 200.354064 
L 764.84442 193.222952 
L 766.314885 200.231114 
L 767.78535 199.001612 
L 769.255815 194.247537 
L 770.726281 200.477014 
L 772.196746 197.649159 
L 773.667211 197.280309 
L 775.137676 200.354064 
L 776.608141 194.083603 
L 778.078607 200.477014 
L 779.549072 200.231114 
L 781.019537 194.452454 
L 782.490002 200.599965 
L 783.960468 195.313105 
L 785.430933 200.231114 
L 786.901398 200.722915 
L 788.371863 195.313105 
L 789.842328 200.354064 
L 791.312794 199.739313 
L 792.783259 195.804906 
L 794.253724 200.845865 
L 795.724189 194.821305 
L 797.194655 201.091765 
L 798.66512 199.862263 
L 800.135585 195.927857 
L 801.60605 200.354064 
L 803.076516 198.509811 
L 804.546981 197.526209 
L 806.017446 200.845865 
L 807.487911 195.190155 
L 808.958376 200.804882 
L 810.428842 199.985213 
L 811.899307 195.190155 
L 813.369772 200.354064 
L 814.840237 197.649159 
L 816.310703 198.509811 
L 817.781168 201.337666 
L 819.251633 196.542608 
L 820.722098 201.706516 
L 822.192563 202.321267 
L 823.663029 195.313105 
L 825.133494 201.706516 
L 826.603959 198.263911 
L 829.54489 201.337666 
L 831.015355 196.542608 
L 832.48582 201.706516 
L 833.956285 200.231114 
L 835.42675 195.067205 
L 836.897216 201.583566 
L 838.367681 196.911458 
L 839.838146 200.722915 
L 841.308611 200.968815 
L 842.779077 194.083603 
L 844.249542 198.755711 
L 845.720007 200.968815 
L 847.190472 232.362102 
L 847.190472 232.362102 
" clip-path="url(#p7e3e0d08f9)" style="fill: none; stroke: #1f77b4; stroke-width: 2; stroke-linecap: round"/>
   </g>
   <g id="line2d_36">
    <path d="M 457.517187 214.862189 
L 458.987653 214.862189 
L 460.458118 201.829467 
L 461.928583 208.099927 
L 463.399048 202.936019 
L 464.869514 196.542608 
L 466.339979 202.075367 
L 467.810444 199.001612 
L 469.280909 196.911458 
L 470.751375 201.337666 
L 472.22184 195.681956 
L 473.692305 201.460616 
L 475.16277 201.952417 
L 476.633235 196.173757 
L 478.103701 201.091765 
L 479.574166 194.698354 
L 481.044631 200.108164 
L 482.515096 201.583566 
L 483.985562 194.329504 
L 485.456027 201.091765 
L 486.926492 193.291258 
L 488.396957 195.804906 
L 489.867422 201.214716 
L 491.337888 194.698354 
L 492.808353 201.214716 
L 494.278818 199.739313 
L 495.749283 194.821305 
L 497.219749 201.460616 
L 498.690214 200.477014 
L 500.160679 198.14096 
L 501.631144 201.460616 
L 503.101609 194.329504 
L 504.572075 204.411421 
L 506.04254 203.67372 
L 507.513005 195.927857 
L 508.98347 202.198317 
L 510.453936 201.583566 
L 511.924401 199.493413 
L 513.394866 203.67372 
L 514.865331 198.01801 
L 516.335797 201.583566 
L 517.806262 203.79667 
L 519.276727 195.067205 
L 520.747192 206.132724 
L 522.217657 203.67372 
L 523.688123 198.386861 
L 525.158588 207.116326 
L 526.629053 198.263911 
L 528.099518 206.624525 
L 529.569984 203.67372 
L 531.040449 194.329504 
L 532.510914 206.624525 
L 533.981379 204.411421 
L 535.451844 195.927857 
L 536.92231 202.075367 
L 538.392775 196.050807 
L 539.86324 199.370462 
L 541.333705 200.477014 
L 542.804171 195.067205 
L 544.274636 200.231114 
L 545.745101 197.649159 
L 547.215566 197.403259 
L 548.686031 199.493413 
L 550.156497 194.698354 
L 551.626962 201.078104 
L 553.097427 201.091765 
L 554.567892 195.559006 
L 556.038358 201.214716 
L 557.508823 197.89506 
L 558.979288 197.77211 
L 560.449753 200.845865 
L 561.920219 195.067205 
L 563.390684 202.198317 
L 564.861149 200.968815 
L 566.331614 196.542608 
L 567.802079 201.460616 
L 569.272545 197.280309 
L 570.74301 199.862263 
L 572.213475 202.198317 
L 573.68394 195.804906 
L 575.154406 201.952417 
L 576.624871 201.952417 
L 578.095336 197.034408 
L 579.565801 202.567168 
L 581.036266 190.395097 
L 582.506732 202.198317 
L 583.977197 201.487938 
L 585.447662 196.419657 
L 586.918127 203.058969 
L 588.388593 200.354064 
L 589.859058 194.329504 
L 591.329523 200.477014 
L 592.799988 197.89506 
L 594.270453 202.567168 
L 595.740919 201.337666 
L 597.211384 196.665558 
L 598.681849 203.181919 
L 600.152314 200.968815 
L 601.62278 197.649159 
L 603.093245 202.321267 
L 604.56371 197.157359 
L 606.034175 202.936019 
L 607.504641 203.058969 
L 608.975106 196.542608 
L 610.445571 202.444218 
L 611.916036 201.829467 
L 613.386501 197.526209 
L 614.856967 201.337666 
L 616.327432 196.173757 
L 617.797897 201.952417 
L 619.268362 202.813068 
L 620.738828 196.173757 
L 622.209293 202.444218 
L 623.679758 203.181919 
L 625.150223 197.403259 
L 626.620688 202.198317 
L 628.091154 198.14096 
L 629.561619 199.616363 
L 631.032084 201.460616 
L 632.502549 193.345902 
L 633.973015 204.780272 
L 635.44348 199.862263 
L 636.913945 198.878662 
L 638.38441 205.395023 
L 639.854875 197.157359 
L 641.325341 204.165521 
L 644.266271 196.542608 
L 645.736736 204.657321 
L 647.207202 203.304869 
L 648.677667 198.386861 
L 650.148132 203.304869 
L 651.618597 196.173757 
L 653.089062 205.640923 
L 654.559528 204.657321 
L 656.029993 197.157359 
L 657.500458 205.395023 
L 658.970923 203.79667 
L 660.441389 198.209266 
L 661.911854 205.149122 
L 663.382319 198.386861 
L 664.852784 203.427819 
L 666.32325 204.903222 
L 667.793715 196.542608 
L 669.26418 205.517973 
L 670.734645 203.79667 
L 672.20511 197.649159 
L 673.675576 206.132724 
L 675.146041 198.01801 
L 676.616506 202.813068 
L 678.086971 204.657321 
L 679.557437 196.050807 
L 681.027902 206.132724 
L 682.498367 200.968815 
L 683.968832 198.509811 
L 685.439297 205.149122 
L 686.909763 199.001612 
L 688.380228 202.690118 
L 689.850693 201.706516 
L 691.321158 197.526209 
L 692.791624 205.272073 
L 694.262089 205.149122 
L 695.732554 197.77211 
L 697.203019 204.493388 
L 698.673484 202.198317 
L 700.14395 200.599965 
L 701.614415 205.395023 
L 703.08488 196.788508 
L 704.555345 204.780272 
L 706.025811 202.690118 
L 707.496276 195.804906 
L 708.966741 205.395023 
L 710.437206 203.304869 
L 711.907672 199.739313 
L 713.378137 205.640923 
L 714.848602 196.911458 
L 716.319067 204.657321 
L 717.789532 205.886824 
L 719.259998 197.403259 
L 720.730463 205.395023 
L 722.200928 203.304869 
L 723.671393 202.075367 
L 725.141859 208.591728 
L 726.612324 199.985213 
L 728.082789 204.903222 
L 729.553254 206.378624 
L 731.023719 194.698354 
L 732.494185 206.255674 
L 733.96465 205.149122 
L 735.435115 199.124562 
L 736.90558 206.255674 
L 738.376046 197.116375 
L 739.846511 204.657321 
L 741.316976 206.993375 
L 742.787441 197.157359 
L 744.257906 206.870425 
L 745.728372 203.427819 
L 747.198837 197.403259 
L 748.669302 206.624525 
L 750.139767 198.632761 
L 751.610233 204.288471 
L 753.080698 206.009774 
L 754.551163 196.665558 
L 756.021628 204.780272 
L 757.492094 205.149122 
L 758.962559 197.89506 
L 760.433024 206.378624 
L 761.903489 199.862263 
L 763.373954 202.690118 
L 764.84442 202.936019 
L 766.314885 194.821305 
L 767.78535 203.427819 
L 769.255815 203.058969 
L 770.726281 197.89506 
L 772.196746 203.67372 
L 773.667211 198.01801 
L 775.137676 200.231114 
L 776.608141 202.936019 
L 778.078607 196.706541 
L 779.549072 206.870425 
L 781.019537 206.009774 
L 782.490002 193.960653 
L 783.960468 205.395023 
L 786.901398 197.526209 
L 788.371863 204.903222 
L 789.842328 196.542608 
L 791.312794 206.870425 
L 792.783259 206.132724 
L 794.253724 195.681956 
L 795.724189 205.517973 
L 797.194655 200.845865 
L 798.66512 200.599965 
L 800.135585 205.763873 
L 801.60605 198.755711 
L 803.076516 205.763873 
L 804.546981 206.255674 
L 806.017446 193.222952 
L 807.487911 205.763873 
L 808.958376 202.690118 
L 810.428842 201.706516 
L 811.899307 206.870425 
L 813.369772 196.911458 
L 814.840237 206.542558 
L 816.310703 206.255674 
L 817.781168 196.419657 
L 819.251633 205.395023 
L 822.192563 199.001612 
L 823.663029 206.624525 
L 825.133494 196.788508 
L 826.603959 203.91962 
L 828.074424 201.706516 
L 829.54489 196.788508 
L 831.015355 206.747475 
L 832.48582 203.058969 
L 833.956285 199.739313 
L 835.42675 202.813068 
L 836.897216 196.542608 
L 838.367681 206.255674 
L 839.838146 206.255674 
L 841.308611 197.403259 
L 842.779077 205.395023 
L 844.249542 204.411421 
L 845.720007 199.493413 
L 847.190472 205.886824 
L 848.660937 203.212657 
L 848.660937 203.212657 
" clip-path="url(#p7e3e0d08f9)" style="fill: none; stroke: #ff7f0e; stroke-width: 2; stroke-linecap: round"/>
   </g>
   <g id="patch_9">
    <path d="M 457.517187 242.389375 
L 457.517187 21.789375 
" style="fill: none; stroke: #cccccc; stroke-width: 0.8; stroke-linejoin: miter; stroke-linecap: square"/>
   </g>
   <g id="patch_10">
    <path d="M 848.660937 242.389375 
L 848.660937 21.789375 
" style="fill: none; stroke: #cccccc; stroke-width: 0.8; stroke-linejoin: miter; stroke-linecap: square"/>
   </g>
   <g id="patch_11">
    <path d="M 457.517187 242.389375 
L 848.660937 242.389375 
" style="fill: none; stroke: #cccccc; stroke-width: 0.8; stroke-linejoin: miter; stroke-linecap: square"/>
   </g>
   <g id="patch_12">
    <path d="M 457.517187 21.789375 
L 848.660937 21.789375 
" style="fill: none; stroke: #cccccc; stroke-width: 0.8; stroke-linejoin: miter; stroke-linecap: square"/>
   </g>
   <g id="text_29">
    <!-- APX1092 — PC2 1 core -->
    <g style="fill: #262626" transform="translate(588.389375 15.789375) scale(0.12 -0.12)">
     <use xlink:href="#ArialMT-41"/>
     <use xlink:href="#ArialMT-50" transform="translate(66.699219 0)"/>
     <use xlink:href="#ArialMT-58" transform="translate(133.398438 0)"/>
     <use xlink:href="#ArialMT-31" transform="translate(200.097656 0)"/>
     <use xlink:href="#ArialMT-30" transform="translate(255.712891 0)"/>
     <use xlink:href="#ArialMT-39" transform="translate(311.328125 0)"/>
     <use xlink:href="#ArialMT-32" transform="translate(366.943359 0)"/>
     <use xlink:href="#ArialMT-20" transform="translate(422.558594 0)"/>
     <use xlink:href="#ArialMT-2014" transform="translate(450.341797 0)"/>
     <use xlink:href="#ArialMT-20" transform="translate(550.341797 0)"/>
     <use xlink:href="#ArialMT-50" transform="translate(578.125 0)"/>
     <use xlink:href="#ArialMT-43" transform="translate(644.824219 0)"/>
     <use xlink:href="#ArialMT-32" transform="translate(717.041016 0)"/>
     <use xlink:href="#ArialMT-20" transform="translate(772.65625 0)"/>
     <use xlink:href="#ArialMT-31" transform="translate(800.439453 0)"/>
     <use xlink:href="#ArialMT-20" transform="translate(856.054688 0)"/>
     <use xlink:href="#ArialMT-63" transform="translate(883.837891 0)"/>
     <use xlink:href="#ArialMT-6f" transform="translate(933.837891 0)"/>
     <use xlink:href="#ArialMT-72" transform="translate(989.453125 0)"/>
     <use xlink:href="#ArialMT-65" transform="translate(1022.753906 0)"/>
    </g>
   </g>
   <g id="legend_2">
    <g id="patch_13">
     <path d="M 777.978125 58.314375 
L 841.660937 58.314375 
Q 843.660937 58.314375 843.660937 56.314375 
L 843.660937 28.789375 
Q 843.660937 26.789375 841.660937 26.789375 
L 777.978125 26.789375 
Q 775.978125 26.789375 775.978125 28.789375 
L 775.978125 56.314375 
Q 775.978125 58.314375 777.978125 58.314375 
z
" style="fill: #ffffff; opacity: 0.8; stroke: #cccccc; stroke-linejoin: miter"/>
    </g>
    <g id="line2d_37">
     <path d="M 779.978125 34.447188 
L 789.978125 34.447188 
L 799.978125 34.447188 
" style="fill: none; stroke: #1f77b4; stroke-width: 2; stroke-linecap: round"/>
    </g>
    <g id="text_30">
     <!-- queryA -->
     <g style="fill: #262626" transform="translate(807.978125 37.947188) scale(0.1 -0.1)">
      <use xlink:href="#ArialMT-71"/>
      <use xlink:href="#ArialMT-75" transform="translate(55.615234 0)"/>
      <use xlink:href="#ArialMT-65" transform="translate(111.230469 0)"/>
      <use xlink:href="#ArialMT-72" transform="translate(166.845703 0)"/>
      <use xlink:href="#ArialMT-79" transform="translate(200.146484 0)"/>
      <use xlink:href="#ArialMT-41" transform="translate(250.146484 0)"/>
     </g>
    </g>
    <g id="line2d_38">
     <path d="M 779.978125 48.709688 
L 789.978125 48.709688 
L 799.978125 48.709688 
" style="fill: none; stroke: #ff7f0e; stroke-width: 2; stroke-linecap: round"/>
    </g>
    <g id="text_31">
     <!-- queryB -->
     <g style="fill: #262626" transform="translate(807.978125 52.209688) scale(0.1 -0.1)">
      <use xlink:href="#ArialMT-71"/>
      <use xlink:href="#ArialMT-75" transform="translate(55.615234 0)"/>
      <use xlink:href="#ArialMT-65" transform="translate(111.230469 0)"/>
      <use xlink:href="#ArialMT-72" transform="translate(166.845703 0)"/>
      <use xlink:href="#ArialMT-79" transform="translate(200.146484 0)"/>
      <use xlink:href="#ArialMT-42" transform="translate(250.146484 0)"/>
     </g>
    </g>
   </g>
  </g>
 </g>
 <defs>
  <clipPath id="pef6fe54419">
   <rect x="41.392188" y="21.789375" width="391.14375" height="220.6"/>
  </clipPath>
  <clipPath id="p7e3e0d08f9">
   <rect x="457.517187" y="21.789375" width="391.14375" height="220.6"/>
  </clipPath>
 </defs>
</svg>
