<?xml version="1.0" encoding="utf-8" standalone="no"?>
<!DOCTYPE svg PUBLIC "-//W3C//DTD SVG 1.1//EN"
  "http://www.w3.org/Graphics/SVG/1.1/DTD/svg11.dtd">
<svg xmlns:xlink="http://www.w3.org/1999/xlink" width="855.877344pt" height="279.119063pt" viewBox="0 0 855.877344 279.119063" xmlns="http://www.w3.org/2000/svg" version="1.1">
 <metadata>
  <rdf:RDF xmlns:dc="http://purl.org/dc/elements/1.1/" xmlns:cc="http://creativecommons.org/ns#" xmlns:rdf="http://www.w3.org/1999/02/22-rdf-syntax-ns#">
   <cc:Work>
    <dc:type rdf:resource="http://purl.org/dc/dcmitype/StillImage"/>
    <dc:date>2026-05-26T16:50:31.839913</dc:date>
    <dc:format>image/svg+xml</dc:format>
    <dc:creator>
     <cc:Agent>
      <dc:title>Matplotlib v3.10.1, https://matplotlib.org/</dc:title>
     </cc:Agent>
    </dc:creator>
   </cc:Work>
  </rdf:RDF>
 </metadata>
 <defs>
  <style type="text/css">*{stroke-linejoin: round; stroke-linecap: butt}</style>
 </defs>
 <g id="figure_1">
  <g id="patch_1">
   <path d="M 0 279.119063 
L 855.877344 279.119063 
L 855.877344 0 
L 0 0 
z
" style="fill: #ffffff"/>
  </g>
  <g id="axes_1">
   <g id="patch_2">
    <path d="M 41.392188 242.389375 
L 424.210937 242.389375 
L 424.210937 21.789375 
L 41.392188 21.789375 
z
" style="fill: #ffffff"/>
   </g>
   <g id="matplotlib.axis_1">
    <g id="xtick_1">
     <g id="line2d_1">
      <path d="M 41.392188 242.389375 
L 41.392188 21.789375 
" clip-path="url(#pac21bc5675)" style="fill: none; stroke: #cccccc; stroke-opacity: 0.3; stroke-width: 0.8; stroke-linecap: round"/>
     </g>
     <g id="text_1">
      <!-- 0 -->
      <g style="fill: #262626" transform="translate(38.611719 256.547188) scale(0.1 -0.1)">
       <defs>
        <path id="ArialMT-30" d="M 266 2259 
Q 266 3072 433 3567 
Q 600 4063 929 4331 
Q 1259 4600 1759 4600 
Q 2128 4600 2406 4451 
Q 2684 4303 2865 4023 
Q 3047 3744 3150 3342 
Q 3253 2941 3253 2259 
Q 3253 1453 3087 958 
Q 2922 463 2592 192 
Q 2263 -78 1759 -78 
Q 1097 -78 719 397 
Q 266 969 266 2259 
z
M 844 2259 
Q 844 1131 1108 757 
Q 1372 384 1759 384 
Q 2147 384 2411 759 
Q 2675 1134 2675 2259 
Q 2675 3391 2411 3762 
Q 2147 4134 1753 4134 
Q 1366 4134 1134 3806 
Q 844 3388 844 2259 
z
" transform="scale(0.015625)"/>
       </defs>
       <use xlink:href="#ArialMT-30"/>
      </g>
     </g>
    </g>
    <g id="xtick_2">
     <g id="line2d_2">
      <path d="M 83.927604 242.389375 
L 83.927604 21.789375 
" clip-path="url(#pac21bc5675)" style="fill: none; stroke: #cccccc; stroke-opacity: 0.3; stroke-width: 0.8; stroke-linecap: round"/>
     </g>
     <g id="text_2">
      <!-- 25 -->
      <g style="fill: #262626" transform="translate(78.366667 256.547188) scale(0.1 -0.1)">
       <defs>
        <path id="ArialMT-32" d="M 3222 541 
L 3222 0 
L 194 0 
Q 188 203 259 391 
Q 375 700 629 1000 
Q 884 1300 1366 1694 
Q 2113 2306 2375 2664 
Q 2638 3022 2638 3341 
Q 2638 3675 2398 3904 
Q 2159 4134 1775 4134 
Q 1369 4134 1125 3890 
Q 881 3647 878 3216 
L 300 3275 
Q 359 3922 746 4261 
Q 1134 4600 1788 4600 
Q 2447 4600 2831 4234 
Q 3216 3869 3216 3328 
Q 3216 3053 3103 2787 
Q 2991 2522 2730 2228 
Q 2469 1934 1863 1422 
Q 1356 997 1212 845 
Q 1069 694 975 541 
L 3222 541 
z
" transform="scale(0.015625)"/>
        <path id="ArialMT-35" d="M 266 1200 
L 856 1250 
Q 922 819 1161 601 
Q 1400 384 1738 384 
Q 2144 384 2425 690 
Q 2706 997 2706 1503 
Q 2706 1984 2436 2262 
Q 2166 2541 1728 2541 
Q 1456 2541 1237 2417 
Q 1019 2294 894 2097 
L 366 2166 
L 809 4519 
L 3088 4519 
L 3088 3981 
L 1259 3981 
L 1013 2750 
Q 1425 3038 1878 3038 
Q 2478 3038 2890 2622 
Q 3303 2206 3303 1553 
Q 3303 931 2941 478 
Q 2500 -78 1738 -78 
Q 1113 -78 717 272 
Q 322 622 266 1200 
z
" transform="scale(0.015625)"/>
       </defs>
       <use xlink:href="#ArialMT-32"/>
       <use xlink:href="#ArialMT-35" transform="translate(55.615234 0)"/>
      </g>
     </g>
    </g>
    <g id="xtick_3">
     <g id="line2d_3">
      <path d="M 126.463021 242.389375 
L 126.463021 21.789375 
" clip-path="url(#pac21bc5675)" style="fill: none; stroke: #cccccc; stroke-opacity: 0.3; stroke-width: 0.8; stroke-linecap: round"/>
     </g>
     <g id="text_3">
      <!-- 50 -->
      <g style="fill: #262626" transform="translate(120.902083 256.547188) scale(0.1 -0.1)">
       <use xlink:href="#ArialMT-35"/>
       <use xlink:href="#ArialMT-30" transform="translate(55.615234 0)"/>
      </g>
     </g>
    </g>
    <g id="xtick_4">
     <g id="line2d_4">
      <path d="M 168.998437 242.389375 
L 168.998437 21.789375 
" clip-path="url(#pac21bc5675)" style="fill: none; stroke: #cccccc; stroke-opacity: 0.3; stroke-width: 0.8; stroke-linecap: round"/>
     </g>
     <g id="text_4">
      <!-- 75 -->
      <g style="fill: #262626" transform="translate(163.4375 256.547188) scale(0.1 -0.1)">
       <defs>
        <path id="ArialMT-37" d="M 303 3981 
L 303 4522 
L 3269 4522 
L 3269 4084 
Q 2831 3619 2401 2847 
Q 1972 2075 1738 1259 
Q 1569 684 1522 0 
L 944 0 
Q 953 541 1156 1306 
Q 1359 2072 1739 2783 
Q 2119 3494 2547 3981 
L 303 3981 
z
" transform="scale(0.015625)"/>
       </defs>
       <use xlink:href="#ArialMT-37"/>
       <use xlink:href="#ArialMT-35" transform="translate(55.615234 0)"/>
      </g>
     </g>
    </g>
    <g id="xtick_5">
     <g id="line2d_5">
      <path d="M 211.533854 242.389375 
L 211.533854 21.789375 
" clip-path="url(#pac21bc5675)" style="fill: none; stroke: #cccccc; stroke-opacity: 0.3; stroke-width: 0.8; stroke-linecap: round"/>
     </g>
     <g id="text_5">
      <!-- 100 -->
      <g style="fill: #262626" transform="translate(203.192448 256.547188) scale(0.1 -0.1)">
       <defs>
        <path id="ArialMT-31" d="M 2384 0 
L 1822 0 
L 1822 3584 
Q 1619 3391 1289 3197 
Q 959 3003 697 2906 
L 697 3450 
Q 1169 3672 1522 3987 
Q 1875 4303 2022 4600 
L 2384 4600 
L 2384 0 
z
" transform="scale(0.015625)"/>
       </defs>
       <use xlink:href="#ArialMT-31"/>
       <use xlink:href="#ArialMT-30" transform="translate(55.615234 0)"/>
       <use xlink:href="#ArialMT-30" transform="translate(111.230469 0)"/>
      </g>
     </g>
    </g>
    <g id="xtick_6">
     <g id="line2d_6">
      <path d="M 254.069271 242.389375 
L 254.069271 21.789375 
" clip-path="url(#pac21bc5675)" style="fill: none; stroke: #cccccc; stroke-opacity: 0.3; stroke-width: 0.8; stroke-linecap: round"/>
     </g>
     <g id="text_6">
      <!-- 125 -->
      <g style="fill: #262626" transform="translate(245.727865 256.547188) scale(0.1 -0.1)">
       <use xlink:href="#ArialMT-31"/>
       <use xlink:href="#ArialMT-32" transform="translate(55.615234 0)"/>
       <use xlink:href="#ArialMT-35" transform="translate(111.230469 0)"/>
      </g>
     </g>
    </g>
    <g id="xtick_7">
     <g id="line2d_7">
      <path d="M 296.604687 242.389375 
L 296.604687 21.789375 
" clip-path="url(#pac21bc5675)" style="fill: none; stroke: #cccccc; stroke-opacity: 0.3; stroke-width: 0.8; stroke-linecap: round"/>
     </g>
     <g id="text_7">
      <!-- 150 -->
      <g style="fill: #262626" transform="translate(288.263281 256.547188) scale(0.1 -0.1)">
       <use xlink:href="#ArialMT-31"/>
       <use xlink:href="#ArialMT-35" transform="translate(55.615234 0)"/>
       <use xlink:href="#ArialMT-30" transform="translate(111.230469 0)"/>
      </g>
     </g>
    </g>
    <g id="xtick_8">
     <g id="line2d_8">
      <path d="M 339.140104 242.389375 
L 339.140104 21.789375 
" clip-path="url(#pac21bc5675)" style="fill: none; stroke: #cccccc; stroke-opacity: 0.3; stroke-width: 0.8; stroke-linecap: round"/>
     </g>
     <g id="text_8">
      <!-- 175 -->
      <g style="fill: #262626" transform="translate(330.798698 256.547188) scale(0.1 -0.1)">
       <use xlink:href="#ArialMT-31"/>
       <use xlink:href="#ArialMT-37" transform="translate(55.615234 0)"/>
       <use xlink:href="#ArialMT-35" transform="translate(111.230469 0)"/>
      </g>
     </g>
    </g>
    <g id="xtick_9">
     <g id="line2d_9">
      <path d="M 381.675521 242.389375 
L 381.675521 21.789375 
" clip-path="url(#pac21bc5675)" style="fill: none; stroke: #cccccc; stroke-opacity: 0.3; stroke-width: 0.8; stroke-linecap: round"/>
     </g>
     <g id="text_9">
      <!-- 200 -->
      <g style="fill: #262626" transform="translate(373.334115 256.547188) scale(0.1 -0.1)">
       <use xlink:href="#ArialMT-32"/>
       <use xlink:href="#ArialMT-30" transform="translate(55.615234 0)"/>
       <use xlink:href="#ArialMT-30" transform="translate(111.230469 0)"/>
      </g>
     </g>
    </g>
    <g id="xtick_10">
     <g id="line2d_10">
      <path d="M 424.210937 242.389375 
L 424.210937 21.789375 
" clip-path="url(#pac21bc5675)" style="fill: none; stroke: #cccccc; stroke-opacity: 0.3; stroke-width: 0.8; stroke-linecap: round"/>
     </g>
     <g id="text_10">
      <!-- 225 -->
      <g style="fill: #262626" transform="translate(415.869531 256.547188) scale(0.1 -0.1)">
       <use xlink:href="#ArialMT-32"/>
       <use xlink:href="#ArialMT-32" transform="translate(55.615234 0)"/>
       <use xlink:href="#ArialMT-35" transform="translate(111.230469 0)"/>
      </g>
     </g>
    </g>
    <g id="text_11">
     <!-- Elapsed Time (sec) -->
     <g style="fill: #262626" transform="translate(190.010156 269.814375) scale(0.1 -0.1)">
      <defs>
       <path id="ArialMT-45" d="M 506 0 
L 506 4581 
L 3819 4581 
L 3819 4041 
L 1113 4041 
L 1113 2638 
L 3647 2638 
L 3647 2100 
L 1113 2100 
L 1113 541 
L 3925 541 
L 3925 0 
L 506 0 
z
" transform="scale(0.015625)"/>
       <path id="ArialMT-6c" d="M 409 0 
L 409 4581 
L 972 4581 
L 972 0 
L 409 0 
z
" transform="scale(0.015625)"/>
       <path id="ArialMT-61" d="M 2588 409 
Q 2275 144 1986 34 
Q 1697 -75 1366 -75 
Q 819 -75 525 192 
Q 231 459 231 875 
Q 231 1119 342 1320 
Q 453 1522 633 1644 
Q 813 1766 1038 1828 
Q 1203 1872 1538 1913 
Q 2219 1994 2541 2106 
Q 2544 2222 2544 2253 
Q 2544 2597 2384 2738 
Q 2169 2928 1744 2928 
Q 1347 2928 1158 2789 
Q 969 2650 878 2297 
L 328 2372 
Q 403 2725 575 2942 
Q 747 3159 1072 3276 
Q 1397 3394 1825 3394 
Q 2250 3394 2515 3294 
Q 2781 3194 2906 3042 
Q 3031 2891 3081 2659 
Q 3109 2516 3109 2141 
L 3109 1391 
Q 3109 606 3145 398 
Q 3181 191 3288 0 
L 2700 0 
Q 2613 175 2588 409 
z
M 2541 1666 
Q 2234 1541 1622 1453 
Q 1275 1403 1131 1340 
Q 988 1278 909 1158 
Q 831 1038 831 891 
Q 831 666 1001 516 
Q 1172 366 1500 366 
Q 1825 366 2078 508 
Q 2331 650 2450 897 
Q 2541 1088 2541 1459 
L 2541 1666 
z
" transform="scale(0.015625)"/>
       <path id="ArialMT-70" d="M 422 -1272 
L 422 3319 
L 934 3319 
L 934 2888 
Q 1116 3141 1344 3267 
Q 1572 3394 1897 3394 
Q 2322 3394 2647 3175 
Q 2972 2956 3137 2557 
Q 3303 2159 3303 1684 
Q 3303 1175 3120 767 
Q 2938 359 2589 142 
Q 2241 -75 1856 -75 
Q 1575 -75 1351 44 
Q 1128 163 984 344 
L 984 -1272 
L 422 -1272 
z
M 931 1641 
Q 931 1000 1190 694 
Q 1450 388 1819 388 
Q 2194 388 2461 705 
Q 2728 1022 2728 1688 
Q 2728 2322 2467 2637 
Q 2206 2953 1844 2953 
Q 1484 2953 1207 2617 
Q 931 2281 931 1641 
z
" transform="scale(0.015625)"/>
       <path id="ArialMT-73" d="M 197 991 
L 753 1078 
Q 800 744 1014 566 
Q 1228 388 1613 388 
Q 2000 388 2187 545 
Q 2375 703 2375 916 
Q 2375 1106 2209 1216 
Q 2094 1291 1634 1406 
Q 1016 1563 777 1677 
Q 538 1791 414 1992 
Q 291 2194 291 2438 
Q 291 2659 392 2848 
Q 494 3038 669 3163 
Q 800 3259 1026 3326 
Q 1253 3394 1513 3394 
Q 1903 3394 2198 3281 
Q 2494 3169 2634 2976 
Q 2775 2784 2828 2463 
L 2278 2388 
Q 2241 2644 2061 2787 
Q 1881 2931 1553 2931 
Q 1166 2931 1000 2803 
Q 834 2675 834 2503 
Q 834 2394 903 2306 
Q 972 2216 1119 2156 
Q 1203 2125 1616 2013 
Q 2213 1853 2448 1751 
Q 2684 1650 2818 1456 
Q 2953 1263 2953 975 
Q 2953 694 2789 445 
Q 2625 197 2315 61 
Q 2006 -75 1616 -75 
Q 969 -75 630 194 
Q 291 463 197 991 
z
" transform="scale(0.015625)"/>
       <path id="ArialMT-65" d="M 2694 1069 
L 3275 997 
Q 3138 488 2766 206 
Q 2394 -75 1816 -75 
Q 1088 -75 661 373 
Q 234 822 234 1631 
Q 234 2469 665 2931 
Q 1097 3394 1784 3394 
Q 2450 3394 2872 2941 
Q 3294 2488 3294 1666 
Q 3294 1616 3291 1516 
L 816 1516 
Q 847 969 1125 678 
Q 1403 388 1819 388 
Q 2128 388 2347 550 
Q 2566 713 2694 1069 
z
M 847 1978 
L 2700 1978 
Q 2663 2397 2488 2606 
Q 2219 2931 1791 2931 
Q 1403 2931 1139 2672 
Q 875 2413 847 1978 
z
" transform="scale(0.015625)"/>
       <path id="ArialMT-64" d="M 2575 0 
L 2575 419 
Q 2259 -75 1647 -75 
Q 1250 -75 917 144 
Q 584 363 401 755 
Q 219 1147 219 1656 
Q 219 2153 384 2558 
Q 550 2963 881 3178 
Q 1213 3394 1622 3394 
Q 1922 3394 2156 3267 
Q 2391 3141 2538 2938 
L 2538 4581 
L 3097 4581 
L 3097 0 
L 2575 0 
z
M 797 1656 
Q 797 1019 1065 703 
Q 1334 388 1700 388 
Q 2069 388 2326 689 
Q 2584 991 2584 1609 
Q 2584 2291 2321 2609 
Q 2059 2928 1675 2928 
Q 1300 2928 1048 2622 
Q 797 2316 797 1656 
z
" transform="scale(0.015625)"/>
       <path id="ArialMT-20" transform="scale(0.015625)"/>
       <path id="ArialMT-54" d="M 1659 0 
L 1659 4041 
L 150 4041 
L 150 4581 
L 3781 4581 
L 3781 4041 
L 2266 4041 
L 2266 0 
L 1659 0 
z
" transform="scale(0.015625)"/>
       <path id="ArialMT-69" d="M 425 3934 
L 425 4581 
L 988 4581 
L 988 3934 
L 425 3934 
z
M 425 0 
L 425 3319 
L 988 3319 
L 988 0 
L 425 0 
z
" transform="scale(0.015625)"/>
       <path id="ArialMT-6d" d="M 422 0 
L 422 3319 
L 925 3319 
L 925 2853 
Q 1081 3097 1340 3245 
Q 1600 3394 1931 3394 
Q 2300 3394 2536 3241 
Q 2772 3088 2869 2813 
Q 3263 3394 3894 3394 
Q 4388 3394 4653 3120 
Q 4919 2847 4919 2278 
L 4919 0 
L 4359 0 
L 4359 2091 
Q 4359 2428 4304 2576 
Q 4250 2725 4106 2815 
Q 3963 2906 3769 2906 
Q 3419 2906 3187 2673 
Q 2956 2441 2956 1928 
L 2956 0 
L 2394 0 
L 2394 2156 
Q 2394 2531 2256 2718 
Q 2119 2906 1806 2906 
Q 1569 2906 1367 2781 
Q 1166 2656 1075 2415 
Q 984 2175 984 1722 
L 984 0 
L 422 0 
z
" transform="scale(0.015625)"/>
       <path id="ArialMT-28" d="M 1497 -1347 
Q 1031 -759 709 28 
Q 388 816 388 1659 
Q 388 2403 628 3084 
Q 909 3875 1497 4659 
L 1900 4659 
Q 1522 4009 1400 3731 
Q 1209 3300 1100 2831 
Q 966 2247 966 1656 
Q 966 153 1900 -1347 
L 1497 -1347 
z
" transform="scale(0.015625)"/>
       <path id="ArialMT-63" d="M 2588 1216 
L 3141 1144 
Q 3050 572 2676 248 
Q 2303 -75 1759 -75 
Q 1078 -75 664 370 
Q 250 816 250 1647 
Q 250 2184 428 2587 
Q 606 2991 970 3192 
Q 1334 3394 1763 3394 
Q 2303 3394 2647 3120 
Q 2991 2847 3088 2344 
L 2541 2259 
Q 2463 2594 2264 2762 
Q 2066 2931 1784 2931 
Q 1359 2931 1093 2626 
Q 828 2322 828 1663 
Q 828 994 1084 691 
Q 1341 388 1753 388 
Q 2084 388 2306 591 
Q 2528 794 2588 1216 
z
" transform="scale(0.015625)"/>
       <path id="ArialMT-29" d="M 791 -1347 
L 388 -1347 
Q 1322 153 1322 1656 
Q 1322 2244 1188 2822 
Q 1081 3291 891 3722 
Q 769 4003 388 4659 
L 791 4659 
Q 1378 3875 1659 3084 
Q 1900 2403 1900 1659 
Q 1900 816 1576 28 
Q 1253 -759 791 -1347 
z
" transform="scale(0.015625)"/>
      </defs>
      <use xlink:href="#ArialMT-45"/>
      <use xlink:href="#ArialMT-6c" transform="translate(66.699219 0)"/>
      <use xlink:href="#ArialMT-61" transform="translate(88.916016 0)"/>
      <use xlink:href="#ArialMT-70" transform="translate(144.53125 0)"/>
      <use xlink:href="#ArialMT-73" transform="translate(200.146484 0)"/>
      <use xlink:href="#ArialMT-65" transform="translate(250.146484 0)"/>
      <use xlink:href="#ArialMT-64" transform="translate(305.761719 0)"/>
      <use xlink:href="#ArialMT-20" transform="translate(361.376953 0)"/>
      <use xlink:href="#ArialMT-54" transform="translate(387.410156 0)"/>
      <use xlink:href="#ArialMT-69" transform="translate(444.744141 0)"/>
      <use xlink:href="#ArialMT-6d" transform="translate(466.960938 0)"/>
      <use xlink:href="#ArialMT-65" transform="translate(550.261719 0)"/>
      <use xlink:href="#ArialMT-20" transform="translate(605.876953 0)"/>
      <use xlink:href="#ArialMT-28" transform="translate(633.660156 0)"/>
      <use xlink:href="#ArialMT-73" transform="translate(666.960938 0)"/>
      <use xlink:href="#ArialMT-65" transform="translate(716.960938 0)"/>
      <use xlink:href="#ArialMT-63" transform="translate(772.576172 0)"/>
      <use xlink:href="#ArialMT-29" transform="translate(822.576172 0)"/>
     </g>
    </g>
   </g>
   <g id="matplotlib.axis_2">
    <g id="ytick_1">
     <g id="line2d_11">
      <path d="M 41.392188 223.797884 
L 424.210937 223.797884 
" clip-path="url(#pac21bc5675)" style="fill: none; stroke: #cccccc; stroke-opacity: 0.3; stroke-width: 0.8; stroke-linecap: round"/>
     </g>
     <g id="text_12">
      <!-- 0.7 -->
      <g style="fill: #262626" transform="translate(20.492188 227.37679) scale(0.1 -0.1)">
       <defs>
        <path id="ArialMT-2e" d="M 581 0 
L 581 641 
L 1222 641 
L 1222 0 
L 581 0 
z
" transform="scale(0.015625)"/>
       </defs>
       <use xlink:href="#ArialMT-30"/>
       <use xlink:href="#ArialMT-2e" transform="translate(55.615234 0)"/>
       <use xlink:href="#ArialMT-37" transform="translate(83.398438 0)"/>
      </g>
     </g>
    </g>
    <g id="ytick_2">
     <g id="line2d_12">
      <path d="M 41.392188 188.113639 
L 424.210937 188.113639 
" clip-path="url(#pac21bc5675)" style="fill: none; stroke: #cccccc; stroke-opacity: 0.3; stroke-width: 0.8; stroke-linecap: round"/>
     </g>
     <g id="text_13">
      <!-- 0.8 -->
      <g style="fill: #262626" transform="translate(20.492188 191.692545) scale(0.1 -0.1)">
       <defs>
        <path id="ArialMT-38" d="M 1131 2484 
Q 781 2613 612 2850 
Q 444 3088 444 3419 
Q 444 3919 803 4259 
Q 1163 4600 1759 4600 
Q 2359 4600 2725 4251 
Q 3091 3903 3091 3403 
Q 3091 3084 2923 2848 
Q 2756 2613 2416 2484 
Q 2838 2347 3058 2040 
Q 3278 1734 3278 1309 
Q 3278 722 2862 322 
Q 2447 -78 1769 -78 
Q 1091 -78 675 323 
Q 259 725 259 1325 
Q 259 1772 486 2073 
Q 713 2375 1131 2484 
z
M 1019 3438 
Q 1019 3113 1228 2906 
Q 1438 2700 1772 2700 
Q 2097 2700 2305 2904 
Q 2513 3109 2513 3406 
Q 2513 3716 2298 3927 
Q 2084 4138 1766 4138 
Q 1444 4138 1231 3931 
Q 1019 3725 1019 3438 
z
M 838 1322 
Q 838 1081 952 856 
Q 1066 631 1291 507 
Q 1516 384 1775 384 
Q 2178 384 2440 643 
Q 2703 903 2703 1303 
Q 2703 1709 2433 1975 
Q 2163 2241 1756 2241 
Q 1359 2241 1098 1978 
Q 838 1716 838 1322 
z
" transform="scale(0.015625)"/>
       </defs>
       <use xlink:href="#ArialMT-30"/>
       <use xlink:href="#ArialMT-2e" transform="translate(55.615234 0)"/>
       <use xlink:href="#ArialMT-38" transform="translate(83.398438 0)"/>
      </g>
     </g>
    </g>
    <g id="ytick_3">
     <g id="line2d_13">
      <path d="M 41.392188 152.429394 
L 424.210937 152.429394 
" clip-path="url(#pac21bc5675)" style="fill: none; stroke: #cccccc; stroke-opacity: 0.3; stroke-width: 0.8; stroke-linecap: round"/>
     </g>
     <g id="text_14">
      <!-- 0.9 -->
      <g style="fill: #262626" transform="translate(20.492188 156.008301) scale(0.1 -0.1)">
       <defs>
        <path id="ArialMT-39" d="M 350 1059 
L 891 1109 
Q 959 728 1153 556 
Q 1347 384 1650 384 
Q 1909 384 2104 503 
Q 2300 622 2425 820 
Q 2550 1019 2634 1356 
Q 2719 1694 2719 2044 
Q 2719 2081 2716 2156 
Q 2547 1888 2255 1720 
Q 1963 1553 1622 1553 
Q 1053 1553 659 1965 
Q 266 2378 266 3053 
Q 266 3750 677 4175 
Q 1088 4600 1706 4600 
Q 2153 4600 2523 4359 
Q 2894 4119 3086 3673 
Q 3278 3228 3278 2384 
Q 3278 1506 3087 986 
Q 2897 466 2520 194 
Q 2144 -78 1638 -78 
Q 1100 -78 759 220 
Q 419 519 350 1059 
z
M 2653 3081 
Q 2653 3566 2395 3850 
Q 2138 4134 1775 4134 
Q 1400 4134 1122 3828 
Q 844 3522 844 3034 
Q 844 2597 1108 2323 
Q 1372 2050 1759 2050 
Q 2150 2050 2401 2323 
Q 2653 2597 2653 3081 
z
" transform="scale(0.015625)"/>
       </defs>
       <use xlink:href="#ArialMT-30"/>
       <use xlink:href="#ArialMT-2e" transform="translate(55.615234 0)"/>
       <use xlink:href="#ArialMT-39" transform="translate(83.398438 0)"/>
      </g>
     </g>
    </g>
    <g id="ytick_4">
     <g id="line2d_14">
      <path d="M 41.392188 116.74515 
L 424.210937 116.74515 
" clip-path="url(#pac21bc5675)" style="fill: none; stroke: #cccccc; stroke-opacity: 0.3; stroke-width: 0.8; stroke-linecap: round"/>
     </g>
     <g id="text_15">
      <!-- 1.0 -->
      <g style="fill: #262626" transform="translate(20.492188 120.324056) scale(0.1 -0.1)">
       <use xlink:href="#ArialMT-31"/>
       <use xlink:href="#ArialMT-2e" transform="translate(55.615234 0)"/>
       <use xlink:href="#ArialMT-30" transform="translate(83.398438 0)"/>
      </g>
     </g>
    </g>
    <g id="ytick_5">
     <g id="line2d_15">
      <path d="M 41.392188 81.060905 
L 424.210937 81.060905 
" clip-path="url(#pac21bc5675)" style="fill: none; stroke: #cccccc; stroke-opacity: 0.3; stroke-width: 0.8; stroke-linecap: round"/>
     </g>
     <g id="text_16">
      <!-- 1.1 -->
      <g style="fill: #262626" transform="translate(20.492188 84.639811) scale(0.1 -0.1)">
       <use xlink:href="#ArialMT-31"/>
       <use xlink:href="#ArialMT-2e" transform="translate(55.615234 0)"/>
       <use xlink:href="#ArialMT-31" transform="translate(83.398438 0)"/>
      </g>
     </g>
    </g>
    <g id="ytick_6">
     <g id="line2d_16">
      <path d="M 41.392188 45.376661 
L 424.210937 45.376661 
" clip-path="url(#pac21bc5675)" style="fill: none; stroke: #cccccc; stroke-opacity: 0.3; stroke-width: 0.8; stroke-linecap: round"/>
     </g>
     <g id="text_17">
      <!-- 1.2 -->
      <g style="fill: #262626" transform="translate(20.492188 48.955567) scale(0.1 -0.1)">
       <use xlink:href="#ArialMT-31"/>
       <use xlink:href="#ArialMT-2e" transform="translate(55.615234 0)"/>
       <use xlink:href="#ArialMT-32" transform="translate(83.398438 0)"/>
      </g>
     </g>
    </g>
    <g id="text_18">
     <!-- Mean pkg_j per 1s Bin -->
     <g style="fill: #262626" transform="translate(14.3875 181.837031) rotate(-90) scale(0.1 -0.1)">
      <defs>
       <path id="ArialMT-4d" d="M 475 0 
L 475 4581 
L 1388 4581 
L 2472 1338 
Q 2622 884 2691 659 
Q 2769 909 2934 1394 
L 4031 4581 
L 4847 4581 
L 4847 0 
L 4263 0 
L 4263 3834 
L 2931 0 
L 2384 0 
L 1059 3900 
L 1059 0 
L 475 0 
z
" transform="scale(0.015625)"/>
       <path id="ArialMT-6e" d="M 422 0 
L 422 3319 
L 928 3319 
L 928 2847 
Q 1294 3394 1984 3394 
Q 2284 3394 2536 3286 
Q 2788 3178 2913 3003 
Q 3038 2828 3088 2588 
Q 3119 2431 3119 2041 
L 3119 0 
L 2556 0 
L 2556 2019 
Q 2556 2363 2490 2533 
Q 2425 2703 2258 2804 
Q 2091 2906 1866 2906 
Q 1506 2906 1245 2678 
Q 984 2450 984 1813 
L 984 0 
L 422 0 
z
" transform="scale(0.015625)"/>
       <path id="ArialMT-6b" d="M 425 0 
L 425 4581 
L 988 4581 
L 988 1969 
L 2319 3319 
L 3047 3319 
L 1778 2088 
L 3175 0 
L 2481 0 
L 1384 1697 
L 988 1316 
L 988 0 
L 425 0 
z
" transform="scale(0.015625)"/>
       <path id="ArialMT-67" d="M 319 -275 
L 866 -356 
Q 900 -609 1056 -725 
Q 1266 -881 1628 -881 
Q 2019 -881 2231 -725 
Q 2444 -569 2519 -288 
Q 2563 -116 2559 434 
Q 2191 0 1641 0 
Q 956 0 581 494 
Q 206 988 206 1678 
Q 206 2153 378 2554 
Q 550 2956 876 3175 
Q 1203 3394 1644 3394 
Q 2231 3394 2613 2919 
L 2613 3319 
L 3131 3319 
L 3131 450 
Q 3131 -325 2973 -648 
Q 2816 -972 2473 -1159 
Q 2131 -1347 1631 -1347 
Q 1038 -1347 672 -1080 
Q 306 -813 319 -275 
z
M 784 1719 
Q 784 1066 1043 766 
Q 1303 466 1694 466 
Q 2081 466 2343 764 
Q 2606 1063 2606 1700 
Q 2606 2309 2336 2618 
Q 2066 2928 1684 2928 
Q 1309 2928 1046 2623 
Q 784 2319 784 1719 
z
" transform="scale(0.015625)"/>
       <path id="ArialMT-5f" d="M -97 -1272 
L -97 -866 
L 3631 -866 
L 3631 -1272 
L -97 -1272 
z
" transform="scale(0.015625)"/>
       <path id="ArialMT-6a" d="M 419 3928 
L 419 4581 
L 981 4581 
L 981 3928 
L 419 3928 
z
M -294 -1288 
L -188 -809 
Q -19 -853 78 -853 
Q 250 -853 334 -739 
Q 419 -625 419 -169 
L 419 3319 
L 981 3319 
L 981 -181 
Q 981 -794 822 -1034 
Q 619 -1347 147 -1347 
Q -81 -1347 -294 -1288 
z
" transform="scale(0.015625)"/>
       <path id="ArialMT-72" d="M 416 0 
L 416 3319 
L 922 3319 
L 922 2816 
Q 1116 3169 1280 3281 
Q 1444 3394 1641 3394 
Q 1925 3394 2219 3213 
L 2025 2691 
Q 1819 2813 1613 2813 
Q 1428 2813 1281 2702 
Q 1134 2591 1072 2394 
Q 978 2094 978 1738 
L 978 0 
L 416 0 
z
" transform="scale(0.015625)"/>
       <path id="ArialMT-42" d="M 469 0 
L 469 4581 
L 2188 4581 
Q 2713 4581 3030 4442 
Q 3347 4303 3526 4014 
Q 3706 3725 3706 3409 
Q 3706 3116 3547 2856 
Q 3388 2597 3066 2438 
Q 3481 2316 3704 2022 
Q 3928 1728 3928 1328 
Q 3928 1006 3792 729 
Q 3656 453 3456 303 
Q 3256 153 2954 76 
Q 2653 0 2216 0 
L 469 0 
z
M 1075 2656 
L 2066 2656 
Q 2469 2656 2644 2709 
Q 2875 2778 2992 2937 
Q 3109 3097 3109 3338 
Q 3109 3566 3000 3739 
Q 2891 3913 2687 3977 
Q 2484 4041 1991 4041 
L 1075 4041 
L 1075 2656 
z
M 1075 541 
L 2216 541 
Q 2509 541 2628 563 
Q 2838 600 2978 687 
Q 3119 775 3209 942 
Q 3300 1109 3300 1328 
Q 3300 1584 3169 1773 
Q 3038 1963 2805 2039 
Q 2572 2116 2134 2116 
L 1075 2116 
L 1075 541 
z
" transform="scale(0.015625)"/>
      </defs>
      <use xlink:href="#ArialMT-4d"/>
      <use xlink:href="#ArialMT-65" transform="translate(83.300781 0)"/>
      <use xlink:href="#ArialMT-61" transform="translate(138.916016 0)"/>
      <use xlink:href="#ArialMT-6e" transform="translate(194.53125 0)"/>
      <use xlink:href="#ArialMT-20" transform="translate(250.146484 0)"/>
      <use xlink:href="#ArialMT-70" transform="translate(277.929688 0)"/>
      <use xlink:href="#ArialMT-6b" transform="translate(333.544922 0)"/>
      <use xlink:href="#ArialMT-67" transform="translate(383.544922 0)"/>
      <use xlink:href="#ArialMT-5f" transform="translate(439.160156 0)"/>
      <use xlink:href="#ArialMT-6a" transform="translate(494.775391 0)"/>
      <use xlink:href="#ArialMT-20" transform="translate(516.992188 0)"/>
      <use xlink:href="#ArialMT-70" transform="translate(544.775391 0)"/>
      <use xlink:href="#ArialMT-65" transform="translate(600.390625 0)"/>
      <use xlink:href="#ArialMT-72" transform="translate(656.005859 0)"/>
      <use xlink:href="#ArialMT-20" transform="translate(689.306641 0)"/>
      <use xlink:href="#ArialMT-31" transform="translate(717.089844 0)"/>
      <use xlink:href="#ArialMT-73" transform="translate(772.705078 0)"/>
      <use xlink:href="#ArialMT-20" transform="translate(822.705078 0)"/>
      <use xlink:href="#ArialMT-42" transform="translate(850.488281 0)"/>
      <use xlink:href="#ArialMT-69" transform="translate(917.1875 0)"/>
      <use xlink:href="#ArialMT-6e" transform="translate(939.404297 0)"/>
     </g>
    </g>
   </g>
   <g id="line2d_17">
    <path d="M 41.392188 96.40513 
L 43.093604 66.073523 
L 44.795021 66.073523 
L 46.496438 61.434571 
L 48.197854 61.791413 
L 49.899271 59.293516 
L 51.600688 58.579831 
L 53.302104 59.293516 
L 55.003521 53.227194 
L 56.704937 50.015612 
L 58.406354 55.368249 
L 60.107771 56.438776 
L 61.809188 56.081934 
L 63.510604 55.011407 
L 65.212021 55.725092 
L 66.913438 54.654564 
L 68.614854 55.368249 
L 70.316271 52.870352 
L 72.017687 50.729297 
L 73.719104 43.949291 
L 75.420521 52.51351 
L 77.121938 52.156667 
L 78.823354 51.799825 
L 80.524771 51.442982 
L 82.226187 51.799825 
L 83.927604 51.799825 
L 85.629021 50.372455 
L 87.330437 50.372455 
L 89.031854 39.429287 
L 90.733271 49.301928 
L 92.434687 47.874558 
L 94.136104 48.2314 
L 95.837521 49.301928 
L 97.538938 48.945085 
L 99.240354 48.945085 
L 100.941771 48.588243 
L 102.643187 47.517715 
L 104.344604 48.2314 
L 106.046021 37.169284 
L 107.747437 48.2314 
L 109.448854 48.2314 
L 111.150271 48.2314 
L 112.851687 48.2314 
L 114.553104 47.517715 
L 116.254521 47.517715 
L 117.955937 47.874558 
L 119.657354 48.945085 
L 121.358771 46.447188 
L 123.060187 37.169284 
L 124.761604 45.019818 
L 126.463021 47.160873 
L 128.164437 45.733503 
L 129.865854 46.090346 
L 131.567271 49.341577 
L 133.268687 45.733503 
L 134.970104 44.662976 
L 136.671521 46.090346 
L 138.372937 37.882969 
L 140.074354 41.451394 
L 141.775771 45.376661 
L 143.477187 45.376661 
L 145.178604 45.376661 
L 146.880021 44.306133 
L 148.581437 45.019818 
L 150.282854 45.019818 
L 151.984271 45.019818 
L 153.685687 45.376661 
L 155.387104 40.024024 
L 157.088521 38.239812 
L 158.789937 44.306133 
L 160.491354 45.376661 
L 162.192771 45.019818 
L 163.894187 44.306133 
L 165.595604 45.376661 
L 167.297021 37.882969 
L 168.998437 47.160873 
L 170.699854 45.019818 
L 172.401271 40.737709 
L 174.102687 37.526127 
L 175.804104 44.662976 
L 177.505521 44.306133 
L 179.206937 45.019818 
L 180.908354 43.592448 
L 182.609771 43.592448 
L 184.311187 44.980169 
L 186.012604 43.949291 
L 187.714021 40.737709 
L 189.415437 31.816648 
L 191.116854 42.521921 
L 192.818271 41.808236 
L 194.519687 41.808236 
L 196.221104 43.235606 
L 197.922521 42.878764 
L 199.623937 43.592448 
L 201.325354 44.662976 
L 203.026771 45.019818 
L 204.728187 45.376661 
L 206.429604 33.244018 
L 208.131021 44.662976 
L 209.832437 46.090346 
L 211.533854 45.019818 
L 213.235271 46.090346 
L 214.936687 44.306133 
L 216.638104 46.090346 
L 218.339521 47.160873 
L 220.040937 45.733503 
L 221.742354 46.80403 
L 223.443771 35.02823 
L 225.145187 45.376661 
L 226.846604 45.019818 
L 228.548021 46.090346 
L 230.249437 95.334603 
" clip-path="url(#pac21bc5675)" style="fill: none; stroke: #1f77b4; stroke-width: 2; stroke-linecap: round"/>
   </g>
   <g id="line2d_18">
    <path d="M 41.392188 108.537774 
L 43.093604 51.442982 
L 44.795021 49.301928 
L 46.496438 47.517715 
L 48.197854 46.80403 
L 49.899271 59.293516 
L 51.600688 47.517715 
L 53.302104 46.447188 
L 55.003521 43.949291 
L 56.704937 49.65877 
L 58.406354 51.442982 
L 60.107771 45.376661 
L 61.809188 44.662976 
L 63.510604 43.235606 
L 65.212021 54.297722 
L 66.913438 41.451394 
L 68.614854 42.165079 
L 70.316271 42.878764 
L 72.017687 42.165079 
L 73.719104 52.51351 
L 75.420521 41.808236 
L 77.121938 40.737709 
L 78.823354 41.451394 
L 80.524771 52.51351 
L 82.226187 41.451394 
L 83.927604 42.204728 
L 85.629021 40.737709 
L 87.330437 38.953497 
L 89.031854 45.733503 
L 90.733271 41.808236 
L 92.434687 37.882969 
L 94.136104 38.596654 
L 95.837521 38.239812 
L 97.538938 49.301928 
L 99.240354 36.098757 
L 100.941771 38.596654 
L 102.643187 39.310339 
L 104.344604 41.808236 
L 106.046021 43.949291 
L 107.747437 37.882969 
L 109.448854 38.239812 
L 111.150271 37.526127 
L 112.851687 50.729297 
L 114.553104 37.526127 
L 116.254521 40.024024 
L 117.955937 40.737709 
L 119.657354 40.380866 
L 121.358771 49.65877 
L 123.060187 38.953497 
L 124.761604 42.601219 
L 126.463021 40.737709 
L 128.164437 40.024024 
L 129.865854 51.799825 
L 131.567271 38.953497 
L 133.268687 39.667182 
L 134.970104 40.737709 
L 136.671521 51.442982 
L 138.372937 41.808236 
L 140.074354 40.380866 
L 141.775771 41.094551 
L 143.477187 40.380866 
L 145.178604 50.729297 
L 146.880021 39.310339 
L 148.581437 40.380866 
L 150.282854 39.667182 
L 151.984271 47.160873 
L 153.685687 42.521921 
L 155.387104 39.667182 
L 157.088521 40.024024 
L 158.789937 39.310339 
L 160.491354 50.015612 
L 162.192771 38.953497 
L 163.894187 38.953497 
L 165.595604 39.667182 
L 167.297021 42.521921 
L 168.998437 46.447188 
L 170.699854 40.380866 
L 172.401271 41.015253 
L 174.102687 38.953497 
L 175.804104 39.667182 
L 177.505521 50.372455 
L 179.206937 38.239812 
L 180.908354 63.932468 
" clip-path="url(#pac21bc5675)" style="fill: none; stroke: #ff7f0e; stroke-width: 2; stroke-linecap: round"/>
   </g>
   <g id="patch_3">
    <path d="M 41.392188 242.389375 
L 41.392188 21.789375 
" style="fill: none; stroke: #cccccc; stroke-width: 0.8; stroke-linejoin: miter; stroke-linecap: square"/>
   </g>
   <g id="patch_4">
    <path d="M 424.210937 242.389375 
L 424.210937 21.789375 
" style="fill: none; stroke: #cccccc; stroke-width: 0.8; stroke-linejoin: miter; stroke-linecap: square"/>
   </g>
   <g id="patch_5">
    <path d="M 41.392188 242.389375 
L 424.210937 242.389375 
" style="fill: none; stroke: #cccccc; stroke-width: 0.8; stroke-linejoin: miter; stroke-linecap: square"/>
   </g>
   <g id="patch_6">
    <path d="M 41.392188 21.789375 
L 424.210937 21.789375 
" style="fill: none; stroke: #cccccc; stroke-width: 0.8; stroke-linejoin: miter; stroke-linecap: square"/>
   </g>
   <g id="text_19">
    <!-- APX1145 — PC1 all cores -->
    <g style="fill: #262626" transform="translate(162.878125 15.789375) scale(0.12 -0.12)">
     <defs>
      <path id="ArialMT-41" d="M -9 0 
L 1750 4581 
L 2403 4581 
L 4278 0 
L 3588 0 
L 3053 1388 
L 1138 1388 
L 634 0 
L -9 0 
z
M 1313 1881 
L 2866 1881 
L 2388 3150 
Q 2169 3728 2063 4100 
Q 1975 3659 1816 3225 
L 1313 1881 
z
" transform="scale(0.015625)"/>
      <path id="ArialMT-50" d="M 494 0 
L 494 4581 
L 2222 4581 
Q 2678 4581 2919 4538 
Q 3256 4481 3484 4323 
Q 3713 4166 3852 3881 
Q 3991 3597 3991 3256 
Q 3991 2672 3619 2267 
Q 3247 1863 2275 1863 
L 1100 1863 
L 1100 0 
L 494 0 
z
M 1100 2403 
L 2284 2403 
Q 2872 2403 3119 2622 
Q 3366 2841 3366 3238 
Q 3366 3525 3220 3729 
Q 3075 3934 2838 4000 
Q 2684 4041 2272 4041 
L 1100 4041 
L 1100 2403 
z
" transform="scale(0.015625)"/>
      <path id="ArialMT-58" d="M 28 0 
L 1800 2388 
L 238 4581 
L 959 4581 
L 1791 3406 
Q 2050 3041 2159 2844 
Q 2313 3094 2522 3366 
L 3444 4581 
L 4103 4581 
L 2494 2422 
L 4228 0 
L 3478 0 
L 2325 1634 
Q 2228 1775 2125 1941 
Q 1972 1691 1906 1597 
L 756 0 
L 28 0 
z
" transform="scale(0.015625)"/>
      <path id="ArialMT-34" d="M 2069 0 
L 2069 1097 
L 81 1097 
L 81 1613 
L 2172 4581 
L 2631 4581 
L 2631 1613 
L 3250 1613 
L 3250 1097 
L 2631 1097 
L 2631 0 
L 2069 0 
z
M 2069 1613 
L 2069 3678 
L 634 1613 
L 2069 1613 
z
" transform="scale(0.015625)"/>
      <path id="ArialMT-2014" d="M 0 1431 
L 0 1884 
L 6400 1884 
L 6400 1431 
L 0 1431 
z
" transform="scale(0.015625)"/>
      <path id="ArialMT-43" d="M 3763 1606 
L 4369 1453 
Q 4178 706 3683 314 
Q 3188 -78 2472 -78 
Q 1731 -78 1267 223 
Q 803 525 561 1097 
Q 319 1669 319 2325 
Q 319 3041 592 3573 
Q 866 4106 1370 4382 
Q 1875 4659 2481 4659 
Q 3169 4659 3637 4309 
Q 4106 3959 4291 3325 
L 3694 3184 
Q 3534 3684 3231 3912 
Q 2928 4141 2469 4141 
Q 1941 4141 1586 3887 
Q 1231 3634 1087 3207 
Q 944 2781 944 2328 
Q 944 1744 1114 1308 
Q 1284 872 1643 656 
Q 2003 441 2422 441 
Q 2931 441 3284 734 
Q 3638 1028 3763 1606 
z
" transform="scale(0.015625)"/>
      <path id="ArialMT-6f" d="M 213 1659 
Q 213 2581 725 3025 
Q 1153 3394 1769 3394 
Q 2453 3394 2887 2945 
Q 3322 2497 3322 1706 
Q 3322 1066 3130 698 
Q 2938 331 2570 128 
Q 2203 -75 1769 -75 
Q 1072 -75 642 372 
Q 213 819 213 1659 
z
M 791 1659 
Q 791 1022 1069 705 
Q 1347 388 1769 388 
Q 2188 388 2466 706 
Q 2744 1025 2744 1678 
Q 2744 2294 2464 2611 
Q 2184 2928 1769 2928 
Q 1347 2928 1069 2612 
Q 791 2297 791 1659 
z
" transform="scale(0.015625)"/>
     </defs>
     <use xlink:href="#ArialMT-41"/>
     <use xlink:href="#ArialMT-50" transform="translate(66.699219 0)"/>
     <use xlink:href="#ArialMT-58" transform="translate(133.398438 0)"/>
     <use xlink:href="#ArialMT-31" transform="translate(200.097656 0)"/>
     <use xlink:href="#ArialMT-31" transform="translate(248.337891 0)"/>
     <use xlink:href="#ArialMT-34" transform="translate(303.953125 0)"/>
     <use xlink:href="#ArialMT-35" transform="translate(359.568359 0)"/>
     <use xlink:href="#ArialMT-20" transform="translate(415.183594 0)"/>
     <use xlink:href="#ArialMT-2014" transform="translate(442.966797 0)"/>
     <use xlink:href="#ArialMT-20" transform="translate(542.966797 0)"/>
     <use xlink:href="#ArialMT-50" transform="translate(570.75 0)"/>
     <use xlink:href="#ArialMT-43" transform="translate(637.449219 0)"/>
     <use xlink:href="#ArialMT-31" transform="translate(709.666016 0)"/>
     <use xlink:href="#ArialMT-20" transform="translate(765.28125 0)"/>
     <use xlink:href="#ArialMT-61" transform="translate(793.064453 0)"/>
     <use xlink:href="#ArialMT-6c" transform="translate(848.679688 0)"/>
     <use xlink:href="#ArialMT-6c" transform="translate(870.896484 0)"/>
     <use xlink:href="#ArialMT-20" transform="translate(893.113281 0)"/>
     <use xlink:href="#ArialMT-63" transform="translate(920.896484 0)"/>
     <use xlink:href="#ArialMT-6f" transform="translate(970.896484 0)"/>
     <use xlink:href="#ArialMT-72" transform="translate(1026.511719 0)"/>
     <use xlink:href="#ArialMT-65" transform="translate(1059.8125 0)"/>
     <use xlink:href="#ArialMT-73" transform="translate(1115.427734 0)"/>
    </g>
   </g>
   <g id="legend_1">
    <g id="patch_7">
     <path d="M 353.528125 58.314375 
L 417.210937 58.314375 
Q 419.210937 58.314375 419.210937 56.314375 
L 419.210937 28.789375 
Q 419.210937 26.789375 417.210937 26.789375 
L 353.528125 26.789375 
Q 351.528125 26.789375 351.528125 28.789375 
L 351.528125 56.314375 
Q 351.528125 58.314375 353.528125 58.314375 
z
" style="fill: #ffffff; opacity: 0.8; stroke: #cccccc; stroke-linejoin: miter"/>
    </g>
    <g id="line2d_19">
     <path d="M 355.528125 34.447188 
L 365.528125 34.447188 
L 375.528125 34.447188 
" style="fill: none; stroke: #1f77b4; stroke-width: 2; stroke-linecap: round"/>
    </g>
    <g id="text_20">
     <!-- queryA -->
     <g style="fill: #262626" transform="translate(383.528125 37.947188) scale(0.1 -0.1)">
      <defs>
       <path id="ArialMT-71" d="M 2538 -1272 
L 2538 353 
Q 2406 169 2170 47 
Q 1934 -75 1669 -75 
Q 1078 -75 651 397 
Q 225 869 225 1691 
Q 225 2191 398 2587 
Q 572 2984 901 3189 
Q 1231 3394 1625 3394 
Q 2241 3394 2594 2875 
L 2594 3319 
L 3100 3319 
L 3100 -1272 
L 2538 -1272 
z
M 803 1669 
Q 803 1028 1072 708 
Q 1341 388 1716 388 
Q 2075 388 2334 692 
Q 2594 997 2594 1619 
Q 2594 2281 2320 2615 
Q 2047 2950 1678 2950 
Q 1313 2950 1058 2639 
Q 803 2328 803 1669 
z
" transform="scale(0.015625)"/>
       <path id="ArialMT-75" d="M 2597 0 
L 2597 488 
Q 2209 -75 1544 -75 
Q 1250 -75 995 37 
Q 741 150 617 320 
Q 494 491 444 738 
Q 409 903 409 1263 
L 409 3319 
L 972 3319 
L 972 1478 
Q 972 1038 1006 884 
Q 1059 663 1231 536 
Q 1403 409 1656 409 
Q 1909 409 2131 539 
Q 2353 669 2445 892 
Q 2538 1116 2538 1541 
L 2538 3319 
L 3100 3319 
L 3100 0 
L 2597 0 
z
" transform="scale(0.015625)"/>
       <path id="ArialMT-79" d="M 397 -1278 
L 334 -750 
Q 519 -800 656 -800 
Q 844 -800 956 -737 
Q 1069 -675 1141 -563 
Q 1194 -478 1313 -144 
Q 1328 -97 1363 -6 
L 103 3319 
L 709 3319 
L 1400 1397 
Q 1534 1031 1641 628 
Q 1738 1016 1872 1384 
L 2581 3319 
L 3144 3319 
L 1881 -56 
Q 1678 -603 1566 -809 
Q 1416 -1088 1222 -1217 
Q 1028 -1347 759 -1347 
Q 597 -1347 397 -1278 
z
" transform="scale(0.015625)"/>
      </defs>
      <use xlink:href="#ArialMT-71"/>
      <use xlink:href="#ArialMT-75" transform="translate(55.615234 0)"/>
      <use xlink:href="#ArialMT-65" transform="translate(111.230469 0)"/>
      <use xlink:href="#ArialMT-72" transform="translate(166.845703 0)"/>
      <use xlink:href="#ArialMT-79" transform="translate(200.146484 0)"/>
      <use xlink:href="#ArialMT-41" transform="translate(250.146484 0)"/>
     </g>
    </g>
    <g id="line2d_20">
     <path d="M 355.528125 48.709688 
L 365.528125 48.709688 
L 375.528125 48.709688 
" style="fill: none; stroke: #ff7f0e; stroke-width: 2; stroke-linecap: round"/>
    </g>
    <g id="text_21">
     <!-- queryB -->
     <g style="fill: #262626" transform="translate(383.528125 52.209688) scale(0.1 -0.1)">
      <use xlink:href="#ArialMT-71"/>
      <use xlink:href="#ArialMT-75" transform="translate(55.615234 0)"/>
      <use xlink:href="#ArialMT-65" transform="translate(111.230469 0)"/>
      <use xlink:href="#ArialMT-72" transform="translate(166.845703 0)"/>
      <use xlink:href="#ArialMT-79" transform="translate(200.146484 0)"/>
      <use xlink:href="#ArialMT-42" transform="translate(250.146484 0)"/>
     </g>
    </g>
   </g>
  </g>
  <g id="axes_2">
   <g id="patch_8">
    <path d="M 457.517187 242.389375 
L 840.335937 242.389375 
L 840.335937 21.789375 
L 457.517187 21.789375 
z
" style="fill: #ffffff"/>
   </g>
   <g id="matplotlib.axis_3">
    <g id="xtick_11">
     <g id="line2d_21">
      <path d="M 457.517187 242.389375 
L 457.517187 21.789375 
" clip-path="url(#p98c75b49e8)" style="fill: none; stroke: #cccccc; stroke-opacity: 0.3; stroke-width: 0.8; stroke-linecap: round"/>
     </g>
     <g id="text_22">
      <!-- 0 -->
      <g style="fill: #262626" transform="translate(454.736719 256.547188) scale(0.1 -0.1)">
       <use xlink:href="#ArialMT-30"/>
      </g>
     </g>
    </g>
    <g id="xtick_12">
     <g id="line2d_22">
      <path d="M 500.052604 242.389375 
L 500.052604 21.789375 
" clip-path="url(#p98c75b49e8)" style="fill: none; stroke: #cccccc; stroke-opacity: 0.3; stroke-width: 0.8; stroke-linecap: round"/>
     </g>
     <g id="text_23">
      <!-- 25 -->
      <g style="fill: #262626" transform="translate(494.491667 256.547188) scale(0.1 -0.1)">
       <use xlink:href="#ArialMT-32"/>
       <use xlink:href="#ArialMT-35" transform="translate(55.615234 0)"/>
      </g>
     </g>
    </g>
    <g id="xtick_13">
     <g id="line2d_23">
      <path d="M 542.588021 242.389375 
L 542.588021 21.789375 
" clip-path="url(#p98c75b49e8)" style="fill: none; stroke: #cccccc; stroke-opacity: 0.3; stroke-width: 0.8; stroke-linecap: round"/>
     </g>
     <g id="text_24">
      <!-- 50 -->
      <g style="fill: #262626" transform="translate(537.027083 256.547188) scale(0.1 -0.1)">
       <use xlink:href="#ArialMT-35"/>
       <use xlink:href="#ArialMT-30" transform="translate(55.615234 0)"/>
      </g>
     </g>
    </g>
    <g id="xtick_14">
     <g id="line2d_24">
      <path d="M 585.123437 242.389375 
L 585.123437 21.789375 
" clip-path="url(#p98c75b49e8)" style="fill: none; stroke: #cccccc; stroke-opacity: 0.3; stroke-width: 0.8; stroke-linecap: round"/>
     </g>
     <g id="text_25">
      <!-- 75 -->
      <g style="fill: #262626" transform="translate(579.5625 256.547188) scale(0.1 -0.1)">
       <use xlink:href="#ArialMT-37"/>
       <use xlink:href="#ArialMT-35" transform="translate(55.615234 0)"/>
      </g>
     </g>
    </g>
    <g id="xtick_15">
     <g id="line2d_25">
      <path d="M 627.658854 242.389375 
L 627.658854 21.789375 
" clip-path="url(#p98c75b49e8)" style="fill: none; stroke: #cccccc; stroke-opacity: 0.3; stroke-width: 0.8; stroke-linecap: round"/>
     </g>
     <g id="text_26">
      <!-- 100 -->
      <g style="fill: #262626" transform="translate(619.317448 256.547188) scale(0.1 -0.1)">
       <use xlink:href="#ArialMT-31"/>
       <use xlink:href="#ArialMT-30" transform="translate(55.615234 0)"/>
       <use xlink:href="#ArialMT-30" transform="translate(111.230469 0)"/>
      </g>
     </g>
    </g>
    <g id="xtick_16">
     <g id="line2d_26">
      <path d="M 670.194271 242.389375 
L 670.194271 21.789375 
" clip-path="url(#p98c75b49e8)" style="fill: none; stroke: #cccccc; stroke-opacity: 0.3; stroke-width: 0.8; stroke-linecap: round"/>
     </g>
     <g id="text_27">
      <!-- 125 -->
      <g style="fill: #262626" transform="translate(661.852865 256.547188) scale(0.1 -0.1)">
       <use xlink:href="#ArialMT-31"/>
       <use xlink:href="#ArialMT-32" transform="translate(55.615234 0)"/>
       <use xlink:href="#ArialMT-35" transform="translate(111.230469 0)"/>
      </g>
     </g>
    </g>
    <g id="xtick_17">
     <g id="line2d_27">
      <path d="M 712.729687 242.389375 
L 712.729687 21.789375 
" clip-path="url(#p98c75b49e8)" style="fill: none; stroke: #cccccc; stroke-opacity: 0.3; stroke-width: 0.8; stroke-linecap: round"/>
     </g>
     <g id="text_28">
      <!-- 150 -->
      <g style="fill: #262626" transform="translate(704.388281 256.547188) scale(0.1 -0.1)">
       <use xlink:href="#ArialMT-31"/>
       <use xlink:href="#ArialMT-35" transform="translate(55.615234 0)"/>
       <use xlink:href="#ArialMT-30" transform="translate(111.230469 0)"/>
      </g>
     </g>
    </g>
    <g id="xtick_18">
     <g id="line2d_28">
      <path d="M 755.265104 242.389375 
L 755.265104 21.789375 
" clip-path="url(#p98c75b49e8)" style="fill: none; stroke: #cccccc; stroke-opacity: 0.3; stroke-width: 0.8; stroke-linecap: round"/>
     </g>
     <g id="text_29">
      <!-- 175 -->
      <g style="fill: #262626" transform="translate(746.923698 256.547188) scale(0.1 -0.1)">
       <use xlink:href="#ArialMT-31"/>
       <use xlink:href="#ArialMT-37" transform="translate(55.615234 0)"/>
       <use xlink:href="#ArialMT-35" transform="translate(111.230469 0)"/>
      </g>
     </g>
    </g>
    <g id="xtick_19">
     <g id="line2d_29">
      <path d="M 797.800521 242.389375 
L 797.800521 21.789375 
" clip-path="url(#p98c75b49e8)" style="fill: none; stroke: #cccccc; stroke-opacity: 0.3; stroke-width: 0.8; stroke-linecap: round"/>
     </g>
     <g id="text_30">
      <!-- 200 -->
      <g style="fill: #262626" transform="translate(789.459115 256.547188) scale(0.1 -0.1)">
       <use xlink:href="#ArialMT-32"/>
       <use xlink:href="#ArialMT-30" transform="translate(55.615234 0)"/>
       <use xlink:href="#ArialMT-30" transform="translate(111.230469 0)"/>
      </g>
     </g>
    </g>
    <g id="xtick_20">
     <g id="line2d_30">
      <path d="M 840.335937 242.389375 
L 840.335937 21.789375 
" clip-path="url(#p98c75b49e8)" style="fill: none; stroke: #cccccc; stroke-opacity: 0.3; stroke-width: 0.8; stroke-linecap: round"/>
     </g>
     <g id="text_31">
      <!-- 225 -->
      <g style="fill: #262626" transform="translate(831.994531 256.547188) scale(0.1 -0.1)">
       <use xlink:href="#ArialMT-32"/>
       <use xlink:href="#ArialMT-32" transform="translate(55.615234 0)"/>
       <use xlink:href="#ArialMT-35" transform="translate(111.230469 0)"/>
      </g>
     </g>
    </g>
    <g id="text_32">
     <!-- Elapsed Time (sec) -->
     <g style="fill: #262626" transform="translate(606.135156 269.814375) scale(0.1 -0.1)">
      <use xlink:href="#ArialMT-45"/>
      <use xlink:href="#ArialMT-6c" transform="translate(66.699219 0)"/>
      <use xlink:href="#ArialMT-61" transform="translate(88.916016 0)"/>
      <use xlink:href="#ArialMT-70" transform="translate(144.53125 0)"/>
      <use xlink:href="#ArialMT-73" transform="translate(200.146484 0)"/>
      <use xlink:href="#ArialMT-65" transform="translate(250.146484 0)"/>
      <use xlink:href="#ArialMT-64" transform="translate(305.761719 0)"/>
      <use xlink:href="#ArialMT-20" transform="translate(361.376953 0)"/>
      <use xlink:href="#ArialMT-54" transform="translate(387.410156 0)"/>
      <use xlink:href="#ArialMT-69" transform="translate(444.744141 0)"/>
      <use xlink:href="#ArialMT-6d" transform="translate(466.960938 0)"/>
      <use xlink:href="#ArialMT-65" transform="translate(550.261719 0)"/>
      <use xlink:href="#ArialMT-20" transform="translate(605.876953 0)"/>
      <use xlink:href="#ArialMT-28" transform="translate(633.660156 0)"/>
      <use xlink:href="#ArialMT-73" transform="translate(666.960938 0)"/>
      <use xlink:href="#ArialMT-65" transform="translate(716.960938 0)"/>
      <use xlink:href="#ArialMT-63" transform="translate(772.576172 0)"/>
      <use xlink:href="#ArialMT-29" transform="translate(822.576172 0)"/>
     </g>
    </g>
   </g>
   <g id="matplotlib.axis_4">
    <g id="ytick_7">
     <g id="line2d_31">
      <path d="M 457.517187 223.797884 
L 840.335937 223.797884 
" clip-path="url(#p98c75b49e8)" style="fill: none; stroke: #cccccc; stroke-opacity: 0.3; stroke-width: 0.8; stroke-linecap: round"/>
     </g>
    </g>
    <g id="ytick_8">
     <g id="line2d_32">
      <path d="M 457.517187 188.113639 
L 840.335937 188.113639 
" clip-path="url(#p98c75b49e8)" style="fill: none; stroke: #cccccc; stroke-opacity: 0.3; stroke-width: 0.8; stroke-linecap: round"/>
     </g>
    </g>
    <g id="ytick_9">
     <g id="line2d_33">
      <path d="M 457.517187 152.429394 
L 840.335937 152.429394 
" clip-path="url(#p98c75b49e8)" style="fill: none; stroke: #cccccc; stroke-opacity: 0.3; stroke-width: 0.8; stroke-linecap: round"/>
     </g>
    </g>
    <g id="ytick_10">
     <g id="line2d_34">
      <path d="M 457.517187 116.74515 
L 840.335937 116.74515 
" clip-path="url(#p98c75b49e8)" style="fill: none; stroke: #cccccc; stroke-opacity: 0.3; stroke-width: 0.8; stroke-linecap: round"/>
     </g>
    </g>
    <g id="ytick_11">
     <g id="line2d_35">
      <path d="M 457.517187 81.060905 
L 840.335937 81.060905 
" clip-path="url(#p98c75b49e8)" style="fill: none; stroke: #cccccc; stroke-opacity: 0.3; stroke-width: 0.8; stroke-linecap: round"/>
     </g>
    </g>
    <g id="ytick_12">
     <g id="line2d_36">
      <path d="M 457.517187 45.376661 
L 840.335937 45.376661 
" clip-path="url(#p98c75b49e8)" style="fill: none; stroke: #cccccc; stroke-opacity: 0.3; stroke-width: 0.8; stroke-linecap: round"/>
     </g>
    </g>
    <g id="text_33">
     <!-- Mean pkg_j per 1s Bin -->
     <g style="fill: #262626" transform="translate(451.4125 181.837031) rotate(-90) scale(0.1 -0.1)">
      <use xlink:href="#ArialMT-4d"/>
      <use xlink:href="#ArialMT-65" transform="translate(83.300781 0)"/>
      <use xlink:href="#ArialMT-61" transform="translate(138.916016 0)"/>
      <use xlink:href="#ArialMT-6e" transform="translate(194.53125 0)"/>
      <use xlink:href="#ArialMT-20" transform="translate(250.146484 0)"/>
      <use xlink:href="#ArialMT-70" transform="translate(277.929688 0)"/>
      <use xlink:href="#ArialMT-6b" transform="translate(333.544922 0)"/>
      <use xlink:href="#ArialMT-67" transform="translate(383.544922 0)"/>
      <use xlink:href="#ArialMT-5f" transform="translate(439.160156 0)"/>
      <use xlink:href="#ArialMT-6a" transform="translate(494.775391 0)"/>
      <use xlink:href="#ArialMT-20" transform="translate(516.992188 0)"/>
      <use xlink:href="#ArialMT-70" transform="translate(544.775391 0)"/>
      <use xlink:href="#ArialMT-65" transform="translate(600.390625 0)"/>
      <use xlink:href="#ArialMT-72" transform="translate(656.005859 0)"/>
      <use xlink:href="#ArialMT-20" transform="translate(689.306641 0)"/>
      <use xlink:href="#ArialMT-31" transform="translate(717.089844 0)"/>
      <use xlink:href="#ArialMT-73" transform="translate(772.705078 0)"/>
      <use xlink:href="#ArialMT-20" transform="translate(822.705078 0)"/>
      <use xlink:href="#ArialMT-42" transform="translate(850.488281 0)"/>
      <use xlink:href="#ArialMT-69" transform="translate(917.1875 0)"/>
      <use xlink:href="#ArialMT-6e" transform="translate(939.404297 0)"/>
     </g>
    </g>
   </g>
   <g id="line2d_37">
    <path d="M 457.517187 220.586302 
L 459.218604 216.661035 
L 460.920021 217.731562 
L 464.322854 215.590507 
L 466.024271 215.94735 
L 467.725687 215.233665 
L 469.427104 215.590507 
L 472.829937 214.163138 
L 474.531354 214.163138 
L 476.232771 214.876822 
L 477.934187 214.163138 
L 479.635604 213.09261 
L 481.337021 213.449453 
L 483.038437 213.449453 
L 484.739854 214.163138 
L 486.441271 212.735768 
L 488.142687 213.09261 
L 489.844104 214.51998 
L 491.545521 214.163138 
L 493.246937 205.955761 
L 494.948354 213.09261 
L 496.649771 212.735768 
L 498.351187 213.09261 
L 500.052604 211.308398 
L 501.754021 212.022083 
L 503.455437 212.378925 
L 505.156854 211.66524 
L 506.858271 213.449453 
L 508.559687 212.022083 
L 510.261104 211.66524 
L 511.962521 212.735768 
L 515.365354 213.449453 
L 517.066771 212.735768 
L 518.768187 212.378925 
L 520.469604 212.735768 
L 522.171021 214.51998 
L 523.872437 214.51998 
L 525.573854 212.735768 
L 527.275271 214.163138 
L 528.976687 213.806295 
L 530.678104 214.163138 
L 532.379521 213.449453 
L 534.080937 213.489102 
L 535.782354 212.735768 
L 537.483771 214.876822 
L 539.185187 212.022083 
L 540.886604 210.951556 
L 542.588021 210.594713 
L 544.289437 209.881028 
L 545.990854 210.594713 
L 547.692271 209.881028 
L 549.393687 210.237871 
L 551.095104 210.951556 
L 552.796521 212.022083 
L 554.497937 212.735768 
L 556.199354 212.735768 
L 557.900771 212.378925 
L 559.602187 211.66524 
L 561.303604 213.09261 
L 563.005021 211.66524 
L 564.706437 214.163138 
L 566.407854 213.806295 
L 568.109271 211.66524 
L 569.810687 212.299627 
L 571.512104 212.378925 
L 573.213521 213.09261 
L 574.914937 212.378925 
L 576.616354 211.308398 
L 578.317771 211.308398 
L 580.019187 212.735768 
L 581.720604 211.66524 
L 583.422021 211.308398 
L 585.123437 212.378925 
L 586.824854 211.66524 
L 588.526271 211.66524 
L 590.227687 210.951556 
L 591.929104 212.022083 
L 593.630521 209.524186 
L 595.331937 211.66524 
L 597.033354 212.378925 
L 598.734771 212.378925 
L 600.436187 211.308398 
L 602.137604 212.022083 
L 603.839021 211.66524 
L 605.540437 213.449453 
L 607.241854 212.022083 
L 608.943271 212.299627 
L 610.644687 212.735768 
L 612.346104 211.66524 
L 614.047521 213.449453 
L 615.748937 211.66524 
L 617.450354 211.308398 
L 619.151771 212.378925 
L 620.853187 211.308398 
L 622.554604 212.378925 
L 624.256021 212.378925 
L 625.957437 211.66524 
L 627.658854 211.308398 
L 631.061687 212.022083 
L 632.763104 210.951556 
L 634.464521 212.378925 
L 637.867354 211.66524 
L 642.971604 211.66524 
L 644.673021 212.735768 
L 646.374437 211.308398 
L 648.075854 213.806295 
L 649.777271 212.378925 
L 651.478687 211.110152 
L 653.180104 211.66524 
L 654.881521 212.735768 
L 656.582937 211.66524 
L 659.985771 212.378925 
L 661.687187 212.378925 
L 663.388604 212.735768 
L 665.090021 211.308398 
L 666.791437 212.022083 
L 668.492854 212.378925 
L 671.895687 212.378925 
L 673.597104 210.594713 
L 675.298521 210.237871 
L 676.999937 212.378925 
L 678.701354 212.735768 
L 680.402771 212.378925 
L 682.104187 210.594713 
L 683.805604 212.022083 
L 685.507021 211.308398 
L 687.208437 212.378925 
L 688.909854 212.378925 
L 690.611271 212.696119 
L 692.312687 212.378925 
L 694.014104 214.163138 
L 695.715521 212.378925 
L 697.416937 212.378925 
L 699.118354 211.66524 
L 700.819771 213.09261 
L 702.521187 212.735768 
L 704.222604 213.09261 
L 705.924021 212.735768 
L 707.625437 209.524186 
L 709.326854 209.881028 
L 711.028271 208.810501 
L 712.729687 209.524186 
L 714.431104 209.881028 
L 716.132521 208.810501 
L 717.833937 209.167343 
L 719.535354 210.237871 
L 721.236771 211.66524 
L 722.938187 212.022083 
L 724.639604 212.735768 
L 726.341021 213.09261 
L 728.042437 212.022083 
L 729.743854 213.449453 
L 731.445271 212.696119 
L 733.146687 212.378925 
L 734.848104 212.378925 
L 738.250937 213.09261 
L 739.952354 210.951556 
L 741.653771 213.09261 
L 743.355187 212.735768 
L 745.056604 212.735768 
L 746.758021 211.66524 
L 748.459437 212.022083 
L 750.160854 211.66524 
L 751.862271 211.66524 
L 753.563687 212.378925 
L 755.265104 212.378925 
L 756.966521 211.66524 
L 758.667937 212.378925 
L 760.369354 212.735768 
L 762.070771 211.66524 
L 763.772187 212.022083 
L 765.473604 211.66524 
L 767.175021 211.506644 
L 768.876437 212.022083 
L 770.577854 212.378925 
L 772.279271 211.66524 
L 773.980687 211.66524 
L 775.682104 212.022083 
L 777.383521 211.308398 
L 780.786354 212.022083 
L 782.487771 210.237871 
L 784.189187 212.022083 
L 785.890604 213.09261 
L 787.592021 211.66524 
L 789.293437 212.378925 
L 790.994854 211.66524 
L 792.696271 212.022083 
L 797.800521 212.022083 
L 801.203354 211.308398 
L 802.904771 212.022083 
L 804.606187 211.66524 
L 809.710437 211.66524 
L 811.411854 211.903135 
L 813.113271 212.735768 
L 814.814687 211.308398 
L 816.516104 213.09261 
L 818.217521 212.378925 
L 819.918937 211.308398 
L 821.620354 212.735768 
L 823.321771 210.951556 
L 826.724604 212.378925 
L 828.426021 212.022083 
L 830.127437 212.378925 
L 831.828854 211.308398 
L 833.530271 212.022083 
L 835.231687 212.378925 
L 838.634521 211.66524 
L 840.335937 232.362102 
L 840.335937 232.362102 
" clip-path="url(#p98c75b49e8)" style="fill: none; stroke: #1f77b4; stroke-width: 2; stroke-linecap: round"/>
   </g>
   <g id="line2d_38">
    <path d="M 457.517187 217.017877 
L 459.218604 212.735768 
L 460.920021 212.735768 
L 462.621437 213.806295 
L 464.322854 211.308398 
L 466.024271 208.096816 
L 467.725687 209.524186 
L 469.427104 208.810501 
L 471.128521 209.524186 
L 472.829937 208.096816 
L 474.531354 205.598919 
L 476.232771 207.383131 
L 477.934187 207.383131 
L 479.635604 208.453658 
L 481.337021 207.383131 
L 483.038437 208.453658 
L 484.739854 209.881028 
L 486.441271 209.881028 
L 488.142687 208.096816 
L 489.844104 208.096816 
L 491.545521 207.026289 
L 493.246937 208.453658 
L 494.948354 208.334711 
L 496.649771 206.669446 
L 498.351187 207.739974 
L 500.052604 206.669446 
L 501.754021 208.810501 
L 503.455437 208.810501 
L 506.858271 208.096816 
L 508.559687 208.096816 
L 511.962521 208.810501 
L 513.663937 208.453658 
L 517.066771 207.026289 
L 518.768187 208.096816 
L 520.469604 208.453658 
L 522.171021 208.453658 
L 523.872437 208.096816 
L 525.573854 208.334711 
L 527.275271 207.739974 
L 528.976687 207.383131 
L 530.678104 207.739974 
L 532.379521 207.739974 
L 535.782354 206.312604 
L 537.483771 207.026289 
L 539.185187 205.955761 
L 540.886604 207.026289 
L 542.588021 205.598919 
L 544.289437 206.669446 
L 545.990854 206.312604 
L 547.692271 205.242076 
L 549.393687 207.383131 
L 551.095104 205.242076 
L 552.796521 206.312604 
L 554.497937 207.739974 
L 556.199354 206.312604 
L 557.900771 208.453658 
L 559.602187 206.748744 
L 561.303604 207.383131 
L 563.005021 207.383131 
L 564.706437 205.955761 
L 566.407854 208.096816 
L 569.810687 205.955761 
L 571.512104 205.598919 
L 573.213521 207.026289 
L 574.914937 206.312604 
L 576.616354 206.669446 
L 578.317771 205.598919 
L 580.019187 208.810501 
L 581.720604 208.810501 
L 583.422021 207.739974 
L 585.123437 209.167343 
L 586.824854 207.026289 
L 588.526271 208.096816 
L 590.227687 208.334711 
L 591.929104 209.524186 
L 593.630521 207.383131 
L 595.331937 204.885234 
L 597.033354 206.669446 
L 598.734771 207.739974 
L 600.436187 205.955761 
L 602.137604 207.739974 
L 603.839021 207.739974 
L 605.540437 205.598919 
L 607.241854 209.167343 
L 608.943271 205.598919 
L 610.644687 206.312604 
L 612.346104 208.810501 
L 614.047521 207.383131 
L 615.748937 208.096816 
L 617.450354 207.026289 
L 619.151771 207.383131 
L 620.853187 206.669446 
L 622.554604 208.453658 
L 624.256021 207.541728 
L 625.957437 208.810501 
L 627.658854 208.096816 
L 629.360271 208.453658 
L 631.061687 206.312604 
L 632.763104 208.810501 
L 634.464521 207.026289 
L 636.165937 207.739974 
L 637.867354 205.955761 
L 639.568771 204.528391 
L 641.270187 203.457864 
L 642.971604 204.528391 
L 644.673021 204.528391 
L 646.374437 203.101022 
L 648.075854 205.598919 
L 649.777271 203.814707 
L 651.478687 205.955761 
L 653.180104 207.383131 
L 654.881521 206.669446 
L 658.284354 207.383131 
L 659.985771 208.453658 
L 661.687187 207.145236 
L 663.388604 207.739974 
L 665.090021 209.167343 
L 666.791437 207.383131 
L 670.194271 207.383131 
L 671.895687 205.598919 
L 673.597104 207.026289 
L 675.298521 207.739974 
L 676.999937 206.669446 
L 678.701354 207.383131 
L 680.402771 205.242076 
L 683.805604 205.955761 
L 685.507021 205.242076 
L 687.208437 207.026289 
L 688.909854 206.312604 
L 690.611271 203.457864 
L 692.312687 205.598919 
L 694.014104 205.162778 
L 695.715521 205.598919 
L 697.416937 209.881028 
L 699.118354 204.528391 
L 700.819771 206.669446 
L 702.521187 206.312604 
L 704.222604 205.242076 
L 705.924021 205.242076 
L 707.625437 204.885234 
L 709.326854 206.312604 
L 711.028271 204.885234 
L 712.729687 205.242076 
L 714.431104 206.669446 
L 716.132521 205.598919 
L 717.833937 205.955761 
L 721.236771 205.242076 
L 722.938187 205.955761 
L 724.639604 205.955761 
L 726.341021 204.885234 
L 728.042437 205.955761 
L 729.743854 207.938219 
L 729.743854 207.938219 
" clip-path="url(#p98c75b49e8)" style="fill: none; stroke: #ff7f0e; stroke-width: 2; stroke-linecap: round"/>
   </g>
   <g id="patch_9">
    <path d="M 457.517187 242.389375 
L 457.517187 21.789375 
" style="fill: none; stroke: #cccccc; stroke-width: 0.8; stroke-linejoin: miter; stroke-linecap: square"/>
   </g>
   <g id="patch_10">
    <path d="M 840.335937 242.389375 
L 840.335937 21.789375 
" style="fill: none; stroke: #cccccc; stroke-width: 0.8; stroke-linejoin: miter; stroke-linecap: square"/>
   </g>
   <g id="patch_11">
    <path d="M 457.517187 242.389375 
L 840.335937 242.389375 
" style="fill: none; stroke: #cccccc; stroke-width: 0.8; stroke-linejoin: miter; stroke-linecap: square"/>
   </g>
   <g id="patch_12">
    <path d="M 457.517187 21.789375 
L 840.335937 21.789375 
" style="fill: none; stroke: #cccccc; stroke-width: 0.8; stroke-linejoin: miter; stroke-linecap: square"/>
   </g>
   <g id="text_34">
    <!-- APX1145 — PC1 1 core -->
    <g style="fill: #262626" transform="translate(584.669375 15.789375) scale(0.12 -0.12)">
     <use xlink:href="#ArialMT-41"/>
     <use xlink:href="#ArialMT-50" transform="translate(66.699219 0)"/>
     <use xlink:href="#ArialMT-58" transform="translate(133.398438 0)"/>
     <use xlink:href="#ArialMT-31" transform="translate(200.097656 0)"/>
     <use xlink:href="#ArialMT-31" transform="translate(248.337891 0)"/>
     <use xlink:href="#ArialMT-34" transform="translate(303.953125 0)"/>
     <use xlink:href="#ArialMT-35" transform="translate(359.568359 0)"/>
     <use xlink:href="#ArialMT-20" transform="translate(415.183594 0)"/>
     <use xlink:href="#ArialMT-2014" transform="translate(442.966797 0)"/>
     <use xlink:href="#ArialMT-20" transform="translate(542.966797 0)"/>
     <use xlink:href="#ArialMT-50" transform="translate(570.75 0)"/>
     <use xlink:href="#ArialMT-43" transform="translate(637.449219 0)"/>
     <use xlink:href="#ArialMT-31" transform="translate(709.666016 0)"/>
     <use xlink:href="#ArialMT-20" transform="translate(765.28125 0)"/>
     <use xlink:href="#ArialMT-31" transform="translate(793.064453 0)"/>
     <use xlink:href="#ArialMT-20" transform="translate(848.679688 0)"/>
     <use xlink:href="#ArialMT-63" transform="translate(876.462891 0)"/>
     <use xlink:href="#ArialMT-6f" transform="translate(926.462891 0)"/>
     <use xlink:href="#ArialMT-72" transform="translate(982.078125 0)"/>
     <use xlink:href="#ArialMT-65" transform="translate(1015.378906 0)"/>
    </g>
   </g>
   <g id="legend_2">
    <g id="patch_13">
     <path d="M 769.653125 58.314375 
L 833.335937 58.314375 
Q 835.335937 58.314375 835.335937 56.314375 
L 835.335937 28.789375 
Q 835.335937 26.789375 833.335937 26.789375 
L 769.653125 26.789375 
Q 767.653125 26.789375 767.653125 28.789375 
L 767.653125 56.314375 
Q 767.653125 58.314375 769.653125 58.314375 
z
" style="fill: #ffffff; opacity: 0.8; stroke: #cccccc; stroke-linejoin: miter"/>
    </g>
    <g id="line2d_39">
     <path d="M 771.653125 34.447188 
L 781.653125 34.447188 
L 791.653125 34.447188 
" style="fill: none; stroke: #1f77b4; stroke-width: 2; stroke-linecap: round"/>
    </g>
    <g id="text_35">
     <!-- queryA -->
     <g style="fill: #262626" transform="translate(799.653125 37.947188) scale(0.1 -0.1)">
      <use xlink:href="#ArialMT-71"/>
      <use xlink:href="#ArialMT-75" transform="translate(55.615234 0)"/>
      <use xlink:href="#ArialMT-65" transform="translate(111.230469 0)"/>
      <use xlink:href="#ArialMT-72" transform="translate(166.845703 0)"/>
      <use xlink:href="#ArialMT-79" transform="translate(200.146484 0)"/>
      <use xlink:href="#ArialMT-41" transform="translate(250.146484 0)"/>
     </g>
    </g>
    <g id="line2d_40">
     <path d="M 771.653125 48.709688 
L 781.653125 48.709688 
L 791.653125 48.709688 
" style="fill: none; stroke: #ff7f0e; stroke-width: 2; stroke-linecap: round"/>
    </g>
    <g id="text_36">
     <!-- queryB -->
     <g style="fill: #262626" transform="translate(799.653125 52.209688) scale(0.1 -0.1)">
      <use xlink:href="#ArialMT-71"/>
      <use xlink:href="#ArialMT-75" transform="translate(55.615234 0)"/>
      <use xlink:href="#ArialMT-65" transform="translate(111.230469 0)"/>
      <use xlink:href="#ArialMT-72" transform="translate(166.845703 0)"/>
      <use xlink:href="#ArialMT-79" transform="translate(200.146484 0)"/>
      <use xlink:href="#ArialMT-42" transform="translate(250.146484 0)"/>
     </g>
    </g>
   </g>
  </g>
 </g>
 <defs>
  <clipPath id="pac21bc5675">
   <rect x="41.392188" y="21.789375" width="382.81875" height="220.6"/>
  </clipPath>
  <clipPath id="p98c75b49e8">
   <rect x="457.517187" y="21.789375" width="382.81875" height="220.6"/>
  </clipPath>
 </defs>
</svg>
