<?xml version="1.0" encoding="utf-8" standalone="no"?>
<!DOCTYPE svg PUBLIC "-//W3C//DTD SVG 1.1//EN"
  "http://www.w3.org/Graphics/SVG/1.1/DTD/svg11.dtd">
<svg xmlns:xlink="http://www.w3.org/1999/xlink" width="855.860937pt" height="279.119063pt" viewBox="0 0 855.860937 279.119063" xmlns="http://www.w3.org/2000/svg" version="1.1">
 <metadata>
  <rdf:RDF xmlns:dc="http://purl.org/dc/elements/1.1/" xmlns:cc="http://creativecommons.org/ns#" xmlns:rdf="http://www.w3.org/1999/02/22-rdf-syntax-ns#">
   <cc:Work>
    <dc:type rdf:resource="http://purl.org/dc/dcmitype/StillImage"/>
    <dc:date>2026-05-26T16:50:33.297763</dc:date>
    <dc:format>image/svg+xml</dc:format>
    <dc:creator>
     <cc:Agent>
      <dc:title>Matplotlib v3.10.1, https://matplotlib.org/</dc:title>
     </cc:Agent>
    </dc:creator>
   </cc:Work>
  </rdf:RDF>
 </metadata>
 <defs>
  <style type="text/css">*{stroke-linejoin: round; stroke-linecap: butt}</style>
 </defs>
 <g id="figure_1">
  <g id="patch_1">
   <path d="M 0 279.119063 
L 855.860937 279.119063 
L 855.860937 0 
L 0 0 
z
" style="fill: #ffffff"/>
  </g>
  <g id="axes_1">
   <g id="patch_2">
    <path d="M 41.392188 242.389375 
L 432.535937 242.389375 
L 432.535937 21.789375 
L 41.392188 21.789375 
z
" style="fill: #ffffff"/>
   </g>
   <g id="matplotlib.axis_1">
    <g id="xtick_1">
     <g id="line2d_1">
      <path d="M 41.392188 242.389375 
L 41.392188 21.789375 
" clip-path="url(#pbbcaa0011f)" style="fill: none; stroke: #cccccc; stroke-opacity: 0.3; stroke-width: 0.8; stroke-linecap: round"/>
     </g>
     <g id="text_1">
      <!-- 0 -->
      <g style="fill: #262626" transform="translate(38.611719 256.547188) scale(0.1 -0.1)">
       <defs>
        <path id="ArialMT-30" d="M 266 2259 
Q 266 3072 433 3567 
Q 600 4063 929 4331 
Q 1259 4600 1759 4600 
Q 2128 4600 2406 4451 
Q 2684 4303 2865 4023 
Q 3047 3744 3150 3342 
Q 3253 2941 3253 2259 
Q 3253 1453 3087 958 
Q 2922 463 2592 192 
Q 2263 -78 1759 -78 
Q 1097 -78 719 397 
Q 266 969 266 2259 
z
M 844 2259 
Q 844 1131 1108 757 
Q 1372 384 1759 384 
Q 2147 384 2411 759 
Q 2675 1134 2675 2259 
Q 2675 3391 2411 3762 
Q 2147 4134 1753 4134 
Q 1366 4134 1134 3806 
Q 844 3388 844 2259 
z
" transform="scale(0.015625)"/>
       </defs>
       <use xlink:href="#ArialMT-30"/>
      </g>
     </g>
    </g>
    <g id="xtick_2">
     <g id="line2d_2">
      <path d="M 93.199307 242.389375 
L 93.199307 21.789375 
" clip-path="url(#pbbcaa0011f)" style="fill: none; stroke: #cccccc; stroke-opacity: 0.3; stroke-width: 0.8; stroke-linecap: round"/>
     </g>
     <g id="text_2">
      <!-- 20 -->
      <g style="fill: #262626" transform="translate(87.638369 256.547188) scale(0.1 -0.1)">
       <defs>
        <path id="ArialMT-32" d="M 3222 541 
L 3222 0 
L 194 0 
Q 188 203 259 391 
Q 375 700 629 1000 
Q 884 1300 1366 1694 
Q 2113 2306 2375 2664 
Q 2638 3022 2638 3341 
Q 2638 3675 2398 3904 
Q 2159 4134 1775 4134 
Q 1369 4134 1125 3890 
Q 881 3647 878 3216 
L 300 3275 
Q 359 3922 746 4261 
Q 1134 4600 1788 4600 
Q 2447 4600 2831 4234 
Q 3216 3869 3216 3328 
Q 3216 3053 3103 2787 
Q 2991 2522 2730 2228 
Q 2469 1934 1863 1422 
Q 1356 997 1212 845 
Q 1069 694 975 541 
L 3222 541 
z
" transform="scale(0.015625)"/>
       </defs>
       <use xlink:href="#ArialMT-32"/>
       <use xlink:href="#ArialMT-30" transform="translate(55.615234 0)"/>
      </g>
     </g>
    </g>
    <g id="xtick_3">
     <g id="line2d_3">
      <path d="M 145.006426 242.389375 
L 145.006426 21.789375 
" clip-path="url(#pbbcaa0011f)" style="fill: none; stroke: #cccccc; stroke-opacity: 0.3; stroke-width: 0.8; stroke-linecap: round"/>
     </g>
     <g id="text_3">
      <!-- 40 -->
      <g style="fill: #262626" transform="translate(139.445488 256.547188) scale(0.1 -0.1)">
       <defs>
        <path id="ArialMT-34" d="M 2069 0 
L 2069 1097 
L 81 1097 
L 81 1613 
L 2172 4581 
L 2631 4581 
L 2631 1613 
L 3250 1613 
L 3250 1097 
L 2631 1097 
L 2631 0 
L 2069 0 
z
M 2069 1613 
L 2069 3678 
L 634 1613 
L 2069 1613 
z
" transform="scale(0.015625)"/>
       </defs>
       <use xlink:href="#ArialMT-34"/>
       <use xlink:href="#ArialMT-30" transform="translate(55.615234 0)"/>
      </g>
     </g>
    </g>
    <g id="xtick_4">
     <g id="line2d_4">
      <path d="M 196.813545 242.389375 
L 196.813545 21.789375 
" clip-path="url(#pbbcaa0011f)" style="fill: none; stroke: #cccccc; stroke-opacity: 0.3; stroke-width: 0.8; stroke-linecap: round"/>
     </g>
     <g id="text_4">
      <!-- 60 -->
      <g style="fill: #262626" transform="translate(191.252608 256.547188) scale(0.1 -0.1)">
       <defs>
        <path id="ArialMT-36" d="M 3184 3459 
L 2625 3416 
Q 2550 3747 2413 3897 
Q 2184 4138 1850 4138 
Q 1581 4138 1378 3988 
Q 1113 3794 959 3422 
Q 806 3050 800 2363 
Q 1003 2672 1297 2822 
Q 1591 2972 1913 2972 
Q 2475 2972 2870 2558 
Q 3266 2144 3266 1488 
Q 3266 1056 3080 686 
Q 2894 316 2569 119 
Q 2244 -78 1831 -78 
Q 1128 -78 684 439 
Q 241 956 241 2144 
Q 241 3472 731 4075 
Q 1159 4600 1884 4600 
Q 2425 4600 2770 4297 
Q 3116 3994 3184 3459 
z
M 888 1484 
Q 888 1194 1011 928 
Q 1134 663 1356 523 
Q 1578 384 1822 384 
Q 2178 384 2434 671 
Q 2691 959 2691 1453 
Q 2691 1928 2437 2201 
Q 2184 2475 1800 2475 
Q 1419 2475 1153 2201 
Q 888 1928 888 1484 
z
" transform="scale(0.015625)"/>
       </defs>
       <use xlink:href="#ArialMT-36"/>
       <use xlink:href="#ArialMT-30" transform="translate(55.615234 0)"/>
      </g>
     </g>
    </g>
    <g id="xtick_5">
     <g id="line2d_5">
      <path d="M 248.620664 242.389375 
L 248.620664 21.789375 
" clip-path="url(#pbbcaa0011f)" style="fill: none; stroke: #cccccc; stroke-opacity: 0.3; stroke-width: 0.8; stroke-linecap: round"/>
     </g>
     <g id="text_5">
      <!-- 80 -->
      <g style="fill: #262626" transform="translate(243.059727 256.547188) scale(0.1 -0.1)">
       <defs>
        <path id="ArialMT-38" d="M 1131 2484 
Q 781 2613 612 2850 
Q 444 3088 444 3419 
Q 444 3919 803 4259 
Q 1163 4600 1759 4600 
Q 2359 4600 2725 4251 
Q 3091 3903 3091 3403 
Q 3091 3084 2923 2848 
Q 2756 2613 2416 2484 
Q 2838 2347 3058 2040 
Q 3278 1734 3278 1309 
Q 3278 722 2862 322 
Q 2447 -78 1769 -78 
Q 1091 -78 675 323 
Q 259 725 259 1325 
Q 259 1772 486 2073 
Q 713 2375 1131 2484 
z
M 1019 3438 
Q 1019 3113 1228 2906 
Q 1438 2700 1772 2700 
Q 2097 2700 2305 2904 
Q 2513 3109 2513 3406 
Q 2513 3716 2298 3927 
Q 2084 4138 1766 4138 
Q 1444 4138 1231 3931 
Q 1019 3725 1019 3438 
z
M 838 1322 
Q 838 1081 952 856 
Q 1066 631 1291 507 
Q 1516 384 1775 384 
Q 2178 384 2440 643 
Q 2703 903 2703 1303 
Q 2703 1709 2433 1975 
Q 2163 2241 1756 2241 
Q 1359 2241 1098 1978 
Q 838 1716 838 1322 
z
" transform="scale(0.015625)"/>
       </defs>
       <use xlink:href="#ArialMT-38"/>
       <use xlink:href="#ArialMT-30" transform="translate(55.615234 0)"/>
      </g>
     </g>
    </g>
    <g id="xtick_6">
     <g id="line2d_6">
      <path d="M 300.427784 242.389375 
L 300.427784 21.789375 
" clip-path="url(#pbbcaa0011f)" style="fill: none; stroke: #cccccc; stroke-opacity: 0.3; stroke-width: 0.8; stroke-linecap: round"/>
     </g>
     <g id="text_6">
      <!-- 100 -->
      <g style="fill: #262626" transform="translate(292.086377 256.547188) scale(0.1 -0.1)">
       <defs>
        <path id="ArialMT-31" d="M 2384 0 
L 1822 0 
L 1822 3584 
Q 1619 3391 1289 3197 
Q 959 3003 697 2906 
L 697 3450 
Q 1169 3672 1522 3987 
Q 1875 4303 2022 4600 
L 2384 4600 
L 2384 0 
z
" transform="scale(0.015625)"/>
       </defs>
       <use xlink:href="#ArialMT-31"/>
       <use xlink:href="#ArialMT-30" transform="translate(55.615234 0)"/>
       <use xlink:href="#ArialMT-30" transform="translate(111.230469 0)"/>
      </g>
     </g>
    </g>
    <g id="xtick_7">
     <g id="line2d_7">
      <path d="M 352.234903 242.389375 
L 352.234903 21.789375 
" clip-path="url(#pbbcaa0011f)" style="fill: none; stroke: #cccccc; stroke-opacity: 0.3; stroke-width: 0.8; stroke-linecap: round"/>
     </g>
     <g id="text_7">
      <!-- 120 -->
      <g style="fill: #262626" transform="translate(343.893496 256.547188) scale(0.1 -0.1)">
       <use xlink:href="#ArialMT-31"/>
       <use xlink:href="#ArialMT-32" transform="translate(55.615234 0)"/>
       <use xlink:href="#ArialMT-30" transform="translate(111.230469 0)"/>
      </g>
     </g>
    </g>
    <g id="xtick_8">
     <g id="line2d_8">
      <path d="M 404.042022 242.389375 
L 404.042022 21.789375 
" clip-path="url(#pbbcaa0011f)" style="fill: none; stroke: #cccccc; stroke-opacity: 0.3; stroke-width: 0.8; stroke-linecap: round"/>
     </g>
     <g id="text_8">
      <!-- 140 -->
      <g style="fill: #262626" transform="translate(395.700616 256.547188) scale(0.1 -0.1)">
       <use xlink:href="#ArialMT-31"/>
       <use xlink:href="#ArialMT-34" transform="translate(55.615234 0)"/>
       <use xlink:href="#ArialMT-30" transform="translate(111.230469 0)"/>
      </g>
     </g>
    </g>
    <g id="text_9">
     <!-- Elapsed Time (sec) -->
     <g style="fill: #262626" transform="translate(194.172656 269.814375) scale(0.1 -0.1)">
      <defs>
       <path id="ArialMT-45" d="M 506 0 
L 506 4581 
L 3819 4581 
L 3819 4041 
L 1113 4041 
L 1113 2638 
L 3647 2638 
L 3647 2100 
L 1113 2100 
L 1113 541 
L 3925 541 
L 3925 0 
L 506 0 
z
" transform="scale(0.015625)"/>
       <path id="ArialMT-6c" d="M 409 0 
L 409 4581 
L 972 4581 
L 972 0 
L 409 0 
z
" transform="scale(0.015625)"/>
       <path id="ArialMT-61" d="M 2588 409 
Q 2275 144 1986 34 
Q 1697 -75 1366 -75 
Q 819 -75 525 192 
Q 231 459 231 875 
Q 231 1119 342 1320 
Q 453 1522 633 1644 
Q 813 1766 1038 1828 
Q 1203 1872 1538 1913 
Q 2219 1994 2541 2106 
Q 2544 2222 2544 2253 
Q 2544 2597 2384 2738 
Q 2169 2928 1744 2928 
Q 1347 2928 1158 2789 
Q 969 2650 878 2297 
L 328 2372 
Q 403 2725 575 2942 
Q 747 3159 1072 3276 
Q 1397 3394 1825 3394 
Q 2250 3394 2515 3294 
Q 2781 3194 2906 3042 
Q 3031 2891 3081 2659 
Q 3109 2516 3109 2141 
L 3109 1391 
Q 3109 606 3145 398 
Q 3181 191 3288 0 
L 2700 0 
Q 2613 175 2588 409 
z
M 2541 1666 
Q 2234 1541 1622 1453 
Q 1275 1403 1131 1340 
Q 988 1278 909 1158 
Q 831 1038 831 891 
Q 831 666 1001 516 
Q 1172 366 1500 366 
Q 1825 366 2078 508 
Q 2331 650 2450 897 
Q 2541 1088 2541 1459 
L 2541 1666 
z
" transform="scale(0.015625)"/>
       <path id="ArialMT-70" d="M 422 -1272 
L 422 3319 
L 934 3319 
L 934 2888 
Q 1116 3141 1344 3267 
Q 1572 3394 1897 3394 
Q 2322 3394 2647 3175 
Q 2972 2956 3137 2557 
Q 3303 2159 3303 1684 
Q 3303 1175 3120 767 
Q 2938 359 2589 142 
Q 2241 -75 1856 -75 
Q 1575 -75 1351 44 
Q 1128 163 984 344 
L 984 -1272 
L 422 -1272 
z
M 931 1641 
Q 931 1000 1190 694 
Q 1450 388 1819 388 
Q 2194 388 2461 705 
Q 2728 1022 2728 1688 
Q 2728 2322 2467 2637 
Q 2206 2953 1844 2953 
Q 1484 2953 1207 2617 
Q 931 2281 931 1641 
z
" transform="scale(0.015625)"/>
       <path id="ArialMT-73" d="M 197 991 
L 753 1078 
Q 800 744 1014 566 
Q 1228 388 1613 388 
Q 2000 388 2187 545 
Q 2375 703 2375 916 
Q 2375 1106 2209 1216 
Q 2094 1291 1634 1406 
Q 1016 1563 777 1677 
Q 538 1791 414 1992 
Q 291 2194 291 2438 
Q 291 2659 392 2848 
Q 494 3038 669 3163 
Q 800 3259 1026 3326 
Q 1253 3394 1513 3394 
Q 1903 3394 2198 3281 
Q 2494 3169 2634 2976 
Q 2775 2784 2828 2463 
L 2278 2388 
Q 2241 2644 2061 2787 
Q 1881 2931 1553 2931 
Q 1166 2931 1000 2803 
Q 834 2675 834 2503 
Q 834 2394 903 2306 
Q 972 2216 1119 2156 
Q 1203 2125 1616 2013 
Q 2213 1853 2448 1751 
Q 2684 1650 2818 1456 
Q 2953 1263 2953 975 
Q 2953 694 2789 445 
Q 2625 197 2315 61 
Q 2006 -75 1616 -75 
Q 969 -75 630 194 
Q 291 463 197 991 
z
" transform="scale(0.015625)"/>
       <path id="ArialMT-65" d="M 2694 1069 
L 3275 997 
Q 3138 488 2766 206 
Q 2394 -75 1816 -75 
Q 1088 -75 661 373 
Q 234 822 234 1631 
Q 234 2469 665 2931 
Q 1097 3394 1784 3394 
Q 2450 3394 2872 2941 
Q 3294 2488 3294 1666 
Q 3294 1616 3291 1516 
L 816 1516 
Q 847 969 1125 678 
Q 1403 388 1819 388 
Q 2128 388 2347 550 
Q 2566 713 2694 1069 
z
M 847 1978 
L 2700 1978 
Q 2663 2397 2488 2606 
Q 2219 2931 1791 2931 
Q 1403 2931 1139 2672 
Q 875 2413 847 1978 
z
" transform="scale(0.015625)"/>
       <path id="ArialMT-64" d="M 2575 0 
L 2575 419 
Q 2259 -75 1647 -75 
Q 1250 -75 917 144 
Q 584 363 401 755 
Q 219 1147 219 1656 
Q 219 2153 384 2558 
Q 550 2963 881 3178 
Q 1213 3394 1622 3394 
Q 1922 3394 2156 3267 
Q 2391 3141 2538 2938 
L 2538 4581 
L 3097 4581 
L 3097 0 
L 2575 0 
z
M 797 1656 
Q 797 1019 1065 703 
Q 1334 388 1700 388 
Q 2069 388 2326 689 
Q 2584 991 2584 1609 
Q 2584 2291 2321 2609 
Q 2059 2928 1675 2928 
Q 1300 2928 1048 2622 
Q 797 2316 797 1656 
z
" transform="scale(0.015625)"/>
       <path id="ArialMT-20" transform="scale(0.015625)"/>
       <path id="ArialMT-54" d="M 1659 0 
L 1659 4041 
L 150 4041 
L 150 4581 
L 3781 4581 
L 3781 4041 
L 2266 4041 
L 2266 0 
L 1659 0 
z
" transform="scale(0.015625)"/>
       <path id="ArialMT-69" d="M 425 3934 
L 425 4581 
L 988 4581 
L 988 3934 
L 425 3934 
z
M 425 0 
L 425 3319 
L 988 3319 
L 988 0 
L 425 0 
z
" transform="scale(0.015625)"/>
       <path id="ArialMT-6d" d="M 422 0 
L 422 3319 
L 925 3319 
L 925 2853 
Q 1081 3097 1340 3245 
Q 1600 3394 1931 3394 
Q 2300 3394 2536 3241 
Q 2772 3088 2869 2813 
Q 3263 3394 3894 3394 
Q 4388 3394 4653 3120 
Q 4919 2847 4919 2278 
L 4919 0 
L 4359 0 
L 4359 2091 
Q 4359 2428 4304 2576 
Q 4250 2725 4106 2815 
Q 3963 2906 3769 2906 
Q 3419 2906 3187 2673 
Q 2956 2441 2956 1928 
L 2956 0 
L 2394 0 
L 2394 2156 
Q 2394 2531 2256 2718 
Q 2119 2906 1806 2906 
Q 1569 2906 1367 2781 
Q 1166 2656 1075 2415 
Q 984 2175 984 1722 
L 984 0 
L 422 0 
z
" transform="scale(0.015625)"/>
       <path id="ArialMT-28" d="M 1497 -1347 
Q 1031 -759 709 28 
Q 388 816 388 1659 
Q 388 2403 628 3084 
Q 909 3875 1497 4659 
L 1900 4659 
Q 1522 4009 1400 3731 
Q 1209 3300 1100 2831 
Q 966 2247 966 1656 
Q 966 153 1900 -1347 
L 1497 -1347 
z
" transform="scale(0.015625)"/>
       <path id="ArialMT-63" d="M 2588 1216 
L 3141 1144 
Q 3050 572 2676 248 
Q 2303 -75 1759 -75 
Q 1078 -75 664 370 
Q 250 816 250 1647 
Q 250 2184 428 2587 
Q 606 2991 970 3192 
Q 1334 3394 1763 3394 
Q 2303 3394 2647 3120 
Q 2991 2847 3088 2344 
L 2541 2259 
Q 2463 2594 2264 2762 
Q 2066 2931 1784 2931 
Q 1359 2931 1093 2626 
Q 828 2322 828 1663 
Q 828 994 1084 691 
Q 1341 388 1753 388 
Q 2084 388 2306 591 
Q 2528 794 2588 1216 
z
" transform="scale(0.015625)"/>
       <path id="ArialMT-29" d="M 791 -1347 
L 388 -1347 
Q 1322 153 1322 1656 
Q 1322 2244 1188 2822 
Q 1081 3291 891 3722 
Q 769 4003 388 4659 
L 791 4659 
Q 1378 3875 1659 3084 
Q 1900 2403 1900 1659 
Q 1900 816 1576 28 
Q 1253 -759 791 -1347 
z
" transform="scale(0.015625)"/>
      </defs>
      <use xlink:href="#ArialMT-45"/>
      <use xlink:href="#ArialMT-6c" transform="translate(66.699219 0)"/>
      <use xlink:href="#ArialMT-61" transform="translate(88.916016 0)"/>
      <use xlink:href="#ArialMT-70" transform="translate(144.53125 0)"/>
      <use xlink:href="#ArialMT-73" transform="translate(200.146484 0)"/>
      <use xlink:href="#ArialMT-65" transform="translate(250.146484 0)"/>
      <use xlink:href="#ArialMT-64" transform="translate(305.761719 0)"/>
      <use xlink:href="#ArialMT-20" transform="translate(361.376953 0)"/>
      <use xlink:href="#ArialMT-54" transform="translate(387.410156 0)"/>
      <use xlink:href="#ArialMT-69" transform="translate(444.744141 0)"/>
      <use xlink:href="#ArialMT-6d" transform="translate(466.960938 0)"/>
      <use xlink:href="#ArialMT-65" transform="translate(550.261719 0)"/>
      <use xlink:href="#ArialMT-20" transform="translate(605.876953 0)"/>
      <use xlink:href="#ArialMT-28" transform="translate(633.660156 0)"/>
      <use xlink:href="#ArialMT-73" transform="translate(666.960938 0)"/>
      <use xlink:href="#ArialMT-65" transform="translate(716.960938 0)"/>
      <use xlink:href="#ArialMT-63" transform="translate(772.576172 0)"/>
      <use xlink:href="#ArialMT-29" transform="translate(822.576172 0)"/>
     </g>
    </g>
   </g>
   <g id="matplotlib.axis_2">
    <g id="ytick_1">
     <g id="line2d_9">
      <path d="M 41.392188 242.014023 
L 432.535937 242.014023 
" clip-path="url(#pbbcaa0011f)" style="fill: none; stroke: #cccccc; stroke-opacity: 0.3; stroke-width: 0.8; stroke-linecap: round"/>
     </g>
     <g id="text_10">
      <!-- 0.9 -->
      <g style="fill: #262626" transform="translate(20.492188 245.592929) scale(0.1 -0.1)">
       <defs>
        <path id="ArialMT-2e" d="M 581 0 
L 581 641 
L 1222 641 
L 1222 0 
L 581 0 
z
" transform="scale(0.015625)"/>
        <path id="ArialMT-39" d="M 350 1059 
L 891 1109 
Q 959 728 1153 556 
Q 1347 384 1650 384 
Q 1909 384 2104 503 
Q 2300 622 2425 820 
Q 2550 1019 2634 1356 
Q 2719 1694 2719 2044 
Q 2719 2081 2716 2156 
Q 2547 1888 2255 1720 
Q 1963 1553 1622 1553 
Q 1053 1553 659 1965 
Q 266 2378 266 3053 
Q 266 3750 677 4175 
Q 1088 4600 1706 4600 
Q 2153 4600 2523 4359 
Q 2894 4119 3086 3673 
Q 3278 3228 3278 2384 
Q 3278 1506 3087 986 
Q 2897 466 2520 194 
Q 2144 -78 1638 -78 
Q 1100 -78 759 220 
Q 419 519 350 1059 
z
M 2653 3081 
Q 2653 3566 2395 3850 
Q 2138 4134 1775 4134 
Q 1400 4134 1122 3828 
Q 844 3522 844 3034 
Q 844 2597 1108 2323 
Q 1372 2050 1759 2050 
Q 2150 2050 2401 2323 
Q 2653 2597 2653 3081 
z
" transform="scale(0.015625)"/>
       </defs>
       <use xlink:href="#ArialMT-30"/>
       <use xlink:href="#ArialMT-2e" transform="translate(55.615234 0)"/>
       <use xlink:href="#ArialMT-39" transform="translate(83.398438 0)"/>
      </g>
     </g>
    </g>
    <g id="ytick_2">
     <g id="line2d_10">
      <path d="M 41.392188 193.754421 
L 432.535937 193.754421 
" clip-path="url(#pbbcaa0011f)" style="fill: none; stroke: #cccccc; stroke-opacity: 0.3; stroke-width: 0.8; stroke-linecap: round"/>
     </g>
     <g id="text_11">
      <!-- 1.0 -->
      <g style="fill: #262626" transform="translate(20.492188 197.333327) scale(0.1 -0.1)">
       <use xlink:href="#ArialMT-31"/>
       <use xlink:href="#ArialMT-2e" transform="translate(55.615234 0)"/>
       <use xlink:href="#ArialMT-30" transform="translate(83.398438 0)"/>
      </g>
     </g>
    </g>
    <g id="ytick_3">
     <g id="line2d_11">
      <path d="M 41.392188 145.49482 
L 432.535937 145.49482 
" clip-path="url(#pbbcaa0011f)" style="fill: none; stroke: #cccccc; stroke-opacity: 0.3; stroke-width: 0.8; stroke-linecap: round"/>
     </g>
     <g id="text_12">
      <!-- 1.1 -->
      <g style="fill: #262626" transform="translate(20.492188 149.073726) scale(0.1 -0.1)">
       <use xlink:href="#ArialMT-31"/>
       <use xlink:href="#ArialMT-2e" transform="translate(55.615234 0)"/>
       <use xlink:href="#ArialMT-31" transform="translate(83.398438 0)"/>
      </g>
     </g>
    </g>
    <g id="ytick_4">
     <g id="line2d_12">
      <path d="M 41.392188 97.235218 
L 432.535937 97.235218 
" clip-path="url(#pbbcaa0011f)" style="fill: none; stroke: #cccccc; stroke-opacity: 0.3; stroke-width: 0.8; stroke-linecap: round"/>
     </g>
     <g id="text_13">
      <!-- 1.2 -->
      <g style="fill: #262626" transform="translate(20.492188 100.814125) scale(0.1 -0.1)">
       <use xlink:href="#ArialMT-31"/>
       <use xlink:href="#ArialMT-2e" transform="translate(55.615234 0)"/>
       <use xlink:href="#ArialMT-32" transform="translate(83.398438 0)"/>
      </g>
     </g>
    </g>
    <g id="ytick_5">
     <g id="line2d_13">
      <path d="M 41.392188 48.975617 
L 432.535937 48.975617 
" clip-path="url(#pbbcaa0011f)" style="fill: none; stroke: #cccccc; stroke-opacity: 0.3; stroke-width: 0.8; stroke-linecap: round"/>
     </g>
     <g id="text_14">
      <!-- 1.3 -->
      <g style="fill: #262626" transform="translate(20.492188 52.554523) scale(0.1 -0.1)">
       <defs>
        <path id="ArialMT-33" d="M 269 1209 
L 831 1284 
Q 928 806 1161 595 
Q 1394 384 1728 384 
Q 2125 384 2398 659 
Q 2672 934 2672 1341 
Q 2672 1728 2419 1979 
Q 2166 2231 1775 2231 
Q 1616 2231 1378 2169 
L 1441 2663 
Q 1497 2656 1531 2656 
Q 1891 2656 2178 2843 
Q 2466 3031 2466 3422 
Q 2466 3731 2256 3934 
Q 2047 4138 1716 4138 
Q 1388 4138 1169 3931 
Q 950 3725 888 3313 
L 325 3413 
Q 428 3978 793 4289 
Q 1159 4600 1703 4600 
Q 2078 4600 2393 4439 
Q 2709 4278 2876 4000 
Q 3044 3722 3044 3409 
Q 3044 3113 2884 2869 
Q 2725 2625 2413 2481 
Q 2819 2388 3044 2092 
Q 3269 1797 3269 1353 
Q 3269 753 2831 336 
Q 2394 -81 1725 -81 
Q 1122 -81 723 278 
Q 325 638 269 1209 
z
" transform="scale(0.015625)"/>
       </defs>
       <use xlink:href="#ArialMT-31"/>
       <use xlink:href="#ArialMT-2e" transform="translate(55.615234 0)"/>
       <use xlink:href="#ArialMT-33" transform="translate(83.398438 0)"/>
      </g>
     </g>
    </g>
    <g id="text_15">
     <!-- Mean pkg_j per 1s Bin -->
     <g style="fill: #262626" transform="translate(14.3875 181.837031) rotate(-90) scale(0.1 -0.1)">
      <defs>
       <path id="ArialMT-4d" d="M 475 0 
L 475 4581 
L 1388 4581 
L 2472 1338 
Q 2622 884 2691 659 
Q 2769 909 2934 1394 
L 4031 4581 
L 4847 4581 
L 4847 0 
L 4263 0 
L 4263 3834 
L 2931 0 
L 2384 0 
L 1059 3900 
L 1059 0 
L 475 0 
z
" transform="scale(0.015625)"/>
       <path id="ArialMT-6e" d="M 422 0 
L 422 3319 
L 928 3319 
L 928 2847 
Q 1294 3394 1984 3394 
Q 2284 3394 2536 3286 
Q 2788 3178 2913 3003 
Q 3038 2828 3088 2588 
Q 3119 2431 3119 2041 
L 3119 0 
L 2556 0 
L 2556 2019 
Q 2556 2363 2490 2533 
Q 2425 2703 2258 2804 
Q 2091 2906 1866 2906 
Q 1506 2906 1245 2678 
Q 984 2450 984 1813 
L 984 0 
L 422 0 
z
" transform="scale(0.015625)"/>
       <path id="ArialMT-6b" d="M 425 0 
L 425 4581 
L 988 4581 
L 988 1969 
L 2319 3319 
L 3047 3319 
L 1778 2088 
L 3175 0 
L 2481 0 
L 1384 1697 
L 988 1316 
L 988 0 
L 425 0 
z
" transform="scale(0.015625)"/>
       <path id="ArialMT-67" d="M 319 -275 
L 866 -356 
Q 900 -609 1056 -725 
Q 1266 -881 1628 -881 
Q 2019 -881 2231 -725 
Q 2444 -569 2519 -288 
Q 2563 -116 2559 434 
Q 2191 0 1641 0 
Q 956 0 581 494 
Q 206 988 206 1678 
Q 206 2153 378 2554 
Q 550 2956 876 3175 
Q 1203 3394 1644 3394 
Q 2231 3394 2613 2919 
L 2613 3319 
L 3131 3319 
L 3131 450 
Q 3131 -325 2973 -648 
Q 2816 -972 2473 -1159 
Q 2131 -1347 1631 -1347 
Q 1038 -1347 672 -1080 
Q 306 -813 319 -275 
z
M 784 1719 
Q 784 1066 1043 766 
Q 1303 466 1694 466 
Q 2081 466 2343 764 
Q 2606 1063 2606 1700 
Q 2606 2309 2336 2618 
Q 2066 2928 1684 2928 
Q 1309 2928 1046 2623 
Q 784 2319 784 1719 
z
" transform="scale(0.015625)"/>
       <path id="ArialMT-5f" d="M -97 -1272 
L -97 -866 
L 3631 -866 
L 3631 -1272 
L -97 -1272 
z
" transform="scale(0.015625)"/>
       <path id="ArialMT-6a" d="M 419 3928 
L 419 4581 
L 981 4581 
L 981 3928 
L 419 3928 
z
M -294 -1288 
L -188 -809 
Q -19 -853 78 -853 
Q 250 -853 334 -739 
Q 419 -625 419 -169 
L 419 3319 
L 981 3319 
L 981 -181 
Q 981 -794 822 -1034 
Q 619 -1347 147 -1347 
Q -81 -1347 -294 -1288 
z
" transform="scale(0.015625)"/>
       <path id="ArialMT-72" d="M 416 0 
L 416 3319 
L 922 3319 
L 922 2816 
Q 1116 3169 1280 3281 
Q 1444 3394 1641 3394 
Q 1925 3394 2219 3213 
L 2025 2691 
Q 1819 2813 1613 2813 
Q 1428 2813 1281 2702 
Q 1134 2591 1072 2394 
Q 978 2094 978 1738 
L 978 0 
L 416 0 
z
" transform="scale(0.015625)"/>
       <path id="ArialMT-42" d="M 469 0 
L 469 4581 
L 2188 4581 
Q 2713 4581 3030 4442 
Q 3347 4303 3526 4014 
Q 3706 3725 3706 3409 
Q 3706 3116 3547 2856 
Q 3388 2597 3066 2438 
Q 3481 2316 3704 2022 
Q 3928 1728 3928 1328 
Q 3928 1006 3792 729 
Q 3656 453 3456 303 
Q 3256 153 2954 76 
Q 2653 0 2216 0 
L 469 0 
z
M 1075 2656 
L 2066 2656 
Q 2469 2656 2644 2709 
Q 2875 2778 2992 2937 
Q 3109 3097 3109 3338 
Q 3109 3566 3000 3739 
Q 2891 3913 2687 3977 
Q 2484 4041 1991 4041 
L 1075 4041 
L 1075 2656 
z
M 1075 541 
L 2216 541 
Q 2509 541 2628 563 
Q 2838 600 2978 687 
Q 3119 775 3209 942 
Q 3300 1109 3300 1328 
Q 3300 1584 3169 1773 
Q 3038 1963 2805 2039 
Q 2572 2116 2134 2116 
L 1075 2116 
L 1075 541 
z
" transform="scale(0.015625)"/>
      </defs>
      <use xlink:href="#ArialMT-4d"/>
      <use xlink:href="#ArialMT-65" transform="translate(83.300781 0)"/>
      <use xlink:href="#ArialMT-61" transform="translate(138.916016 0)"/>
      <use xlink:href="#ArialMT-6e" transform="translate(194.53125 0)"/>
      <use xlink:href="#ArialMT-20" transform="translate(250.146484 0)"/>
      <use xlink:href="#ArialMT-70" transform="translate(277.929688 0)"/>
      <use xlink:href="#ArialMT-6b" transform="translate(333.544922 0)"/>
      <use xlink:href="#ArialMT-67" transform="translate(383.544922 0)"/>
      <use xlink:href="#ArialMT-5f" transform="translate(439.160156 0)"/>
      <use xlink:href="#ArialMT-6a" transform="translate(494.775391 0)"/>
      <use xlink:href="#ArialMT-20" transform="translate(516.992188 0)"/>
      <use xlink:href="#ArialMT-70" transform="translate(544.775391 0)"/>
      <use xlink:href="#ArialMT-65" transform="translate(600.390625 0)"/>
      <use xlink:href="#ArialMT-72" transform="translate(656.005859 0)"/>
      <use xlink:href="#ArialMT-20" transform="translate(689.306641 0)"/>
      <use xlink:href="#ArialMT-31" transform="translate(717.089844 0)"/>
      <use xlink:href="#ArialMT-73" transform="translate(772.705078 0)"/>
      <use xlink:href="#ArialMT-20" transform="translate(822.705078 0)"/>
      <use xlink:href="#ArialMT-42" transform="translate(850.488281 0)"/>
      <use xlink:href="#ArialMT-69" transform="translate(917.1875 0)"/>
      <use xlink:href="#ArialMT-6e" transform="translate(939.404297 0)"/>
     </g>
    </g>
   </g>
   <g id="line2d_14">
    <path d="M 41.392188 79.861762 
L 43.982543 79.379166 
L 46.572899 75.518398 
L 49.163255 74.07061 
L 51.753611 69.727246 
L 54.343967 64.901286 
L 56.934323 62.970901 
L 59.524679 62.970901 
L 62.115035 65.383882 
L 64.705391 62.005709 
L 67.295747 66.83167 
L 69.886103 35.945525 
L 72.476459 58.144941 
L 75.066815 67.314266 
L 77.657171 67.796862 
L 80.247527 63.936094 
L 82.837883 31.816648 
L 85.428239 62.488305 
L 88.018595 56.697153 
L 90.608951 62.005709 
L 93.199307 64.41869 
L 95.789663 59.592729 
L 98.380019 64.901286 
L 100.970375 63.453498 
L 103.560731 59.592729 
L 106.151087 66.349074 
L 108.741442 62.488305 
L 111.331798 62.970901 
L 113.922154 64.901286 
L 116.51251 61.523113 
L 119.102866 57.179749 
L 121.693222 62.005709 
L 124.283578 63.936094 
L 126.873934 64.901286 
L 129.46429 63.453498 
L 132.054646 58.627537 
L 134.645002 54.337795 
L 137.235358 64.901286 
L 139.825714 63.936094 
L 142.41607 60.557921 
L 145.006426 61.040517 
L 147.596782 62.488305 
L 150.187138 61.040517 
L 152.777494 63.936094 
L 155.36785 65.866478 
L 157.958206 64.41869 
L 160.548562 63.453498 
L 163.138918 62.970901 
L 165.729274 57.179749 
L 168.31963 69.727246 
L 170.909986 67.796862 
L 173.500341 61.040517 
L 176.090697 69.24465 
L 178.681053 54.284173 
L 181.271409 62.005709 
L 183.861765 64.901286 
L 186.452121 64.901286 
L 189.042477 62.005709 
L 191.632833 59.592729 
L 194.223189 65.383882 
L 196.813545 63.453498 
L 199.403901 64.901286 
L 201.994257 67.796862 
L 204.584613 60.557921 
L 207.174969 64.901286 
L 209.765325 60.075325 
L 212.355681 58.627537 
L 214.946037 66.83167 
L 217.536393 65.383882 
L 220.126749 59.592729 
L 222.717105 66.134586 
L 225.307461 62.488305 
L 227.897817 58.627537 
L 230.488173 68.279458 
L 233.078529 67.796862 
L 235.668885 62.970901 
L 238.25924 63.936094 
L 240.849596 62.970901 
L 243.439952 58.627537 
L 246.030308 66.349074 
L 248.620664 63.936094 
L 251.21102 62.005709 
L 253.801376 59.110133 
L 256.391732 66.349074 
L 258.982088 62.005709 
L 261.572444 69.24465 
L 264.1628 68.279458 
L 266.753156 37.875909 
L 269.343512 65.866478 
L 271.933868 62.005709 
L 274.524224 62.005709 
L 277.11458 66.83167 
L 279.704936 63.989715 
L 282.295292 61.523113 
L 284.885648 64.41869 
L 287.476004 66.83167 
L 290.06636 61.523113 
L 292.656716 64.901286 
L 295.247072 66.349074 
L 297.837428 58.144941 
L 300.427784 62.005709 
L 303.018139 67.314266 
L 305.608495 60.557921 
L 308.198851 65.866478 
L 310.789207 67.796862 
L 313.379563 62.970901 
L 315.969919 62.970901 
L 318.560275 39.806293 
L 321.150631 64.41869 
L 323.740987 65.866478 
L 326.331343 67.796862 
L 328.921699 64.901286 
L 331.512055 63.453498 
L 334.102411 66.349074 
L 336.692767 58.144941 
L 339.283123 67.796862 
L 341.873479 66.83167 
L 344.463835 59.699973 
L 347.054191 64.41869 
L 349.644547 65.383882 
L 352.234903 62.005709 
L 354.825259 65.866478 
L 357.415615 64.901286 
L 360.005971 67.796862 
L 362.596327 61.523113 
L 365.186683 68.279458 
L 367.777038 62.005709 
L 370.367394 62.970901 
L 372.95775 67.314266 
L 375.548106 69.727246 
L 378.138462 66.83167 
L 380.728818 72.622822 
L 383.319174 64.41869 
L 385.90953 69.727246 
L 388.499886 73.105418 
L 391.090242 70.692438 
L 393.680598 67.796862 
L 396.270954 69.24465 
L 401.451666 74.07061 
L 404.042022 75.035802 
L 406.632378 73.588014 
L 409.222734 62.005709 
L 411.81309 66.349074 
L 414.403446 66.349074 
L 416.993802 69.24465 
L 419.584158 68.762054 
L 422.174514 63.936094 
L 424.76487 35.570172 
L 427.355226 125.225787 
L 427.355226 125.225787 
" clip-path="url(#pbbcaa0011f)" style="fill: none; stroke: #1f77b4; stroke-width: 2; stroke-linecap: round"/>
   </g>
   <g id="line2d_15">
    <path d="M 41.392188 99.648199 
L 43.982543 92.891854 
L 46.572899 89.031086 
L 49.163255 86.618106 
L 51.753611 86.618106 
L 54.343967 51.871193 
L 56.934323 86.13551 
L 59.524679 89.513682 
L 62.115035 88.54849 
L 64.705391 87.100702 
L 67.295747 80.826954 
L 69.886103 81.792146 
L 72.476459 82.274742 
L 75.066815 85.652914 
L 77.657171 86.13551 
L 80.247527 77.931378 
L 82.837883 85.652914 
L 85.428239 82.757338 
L 88.018595 79.379166 
L 90.608951 80.344358 
L 93.199307 73.105418 
L 95.789663 80.344358 
L 98.380019 80.826954 
L 100.970375 74.553206 
L 103.560731 70.209842 
L 106.151087 71.175034 
L 108.741442 77.448782 
L 111.331798 77.931378 
L 113.922154 79.379166 
L 116.51251 78.89657 
L 119.102866 42.701869 
L 121.693222 74.07061 
L 124.283578 77.931378 
L 126.873934 77.931378 
L 129.46429 77.448782 
L 132.054646 73.105418 
L 134.645002 71.65763 
L 137.235358 77.931378 
L 139.825714 74.07061 
L 142.41607 74.553206 
L 145.006426 76.000994 
L 147.596782 70.692438 
L 152.777494 70.692438 
L 155.36785 75.250289 
L 157.958206 70.209842 
L 160.548562 70.692438 
L 163.138918 72.622822 
L 165.729274 67.796862 
L 168.31963 74.553206 
L 170.909986 69.727246 
L 173.500341 68.762054 
L 176.090697 74.07061 
L 178.681053 69.24465 
L 181.271409 75.035802 
L 183.861765 74.07061 
L 186.452121 74.553206 
L 189.042477 79.379166 
L 191.632833 76.48359 
L 194.223189 70.209842 
L 196.813545 71.65763 
L 199.403901 71.175034 
L 201.994257 72.140226 
L 204.584613 73.588014 
L 207.174969 74.07061 
L 209.765325 68.279458 
L 212.355681 69.727246 
L 214.946037 73.105418 
L 217.536393 71.65763 
L 222.717105 70.692438 
L 225.307461 67.314266 
L 227.897817 67.796862 
L 230.488173 73.105418 
L 233.078529 71.65763 
L 235.668885 69.24465 
L 238.25924 72.140226 
L 240.849596 62.970901 
L 243.439952 71.175034 
L 246.030308 74.07061 
L 248.620664 69.24465 
L 251.21102 71.65763 
L 253.801376 70.209842 
L 256.391732 67.796862 
L 258.982088 68.279458 
L 261.572444 67.796862 
L 264.1628 71.175034 
L 266.753156 67.74324 
L 269.343512 72.622822 
L 271.933868 69.24465 
L 274.524224 68.279458 
L 277.11458 71.175034 
L 279.704936 70.209842 
L 282.295292 66.349074 
L 284.885648 71.65763 
L 287.476004 60.557921 
L 290.06636 69.24465 
L 292.656716 73.105418 
L 295.247072 69.24465 
L 297.837428 68.762054 
L 300.427784 71.65763 
L 303.018139 66.83167 
L 305.608495 72.140226 
L 308.198851 68.762054 
L 310.789207 73.588014 
L 313.379563 70.692438 
L 315.969919 69.24465 
L 318.560275 67.314266 
L 321.150631 64.901286 
L 323.740987 71.65763 
L 326.331343 72.140226 
L 328.921699 64.41869 
L 331.512055 70.692438 
L 334.102411 67.314266 
L 336.692767 68.279458 
L 339.283123 70.692438 
L 341.873479 69.727246 
L 344.463835 67.796862 
L 347.054191 67.314266 
L 349.644547 64.41869 
L 352.234903 68.279458 
L 354.825259 68.279458 
L 357.415615 71.65763 
L 360.005971 64.901286 
L 362.596327 72.140226 
L 365.186683 65.383882 
L 367.777038 53.801577 
L 370.367394 71.175034 
L 372.95775 63.936094 
L 375.548106 71.175034 
L 378.138462 72.140226 
L 380.728818 68.279458 
L 383.319174 69.24465 
L 385.90953 72.140226 
L 388.499886 67.314266 
L 391.090242 65.866478 
L 393.680598 67.796862 
L 396.270954 67.796862 
L 398.86131 68.762054 
L 401.451666 66.349074 
L 404.042022 69.727246 
L 406.632378 63.936094 
L 409.222734 67.796862 
L 414.403446 62.005709 
L 416.993802 71.175034 
L 419.584158 67.796862 
L 422.174514 68.762054 
L 424.76487 71.175034 
L 427.355226 67.796862 
L 429.945582 232.362102 
L 429.945582 232.362102 
" clip-path="url(#pbbcaa0011f)" style="fill: none; stroke: #ff7f0e; stroke-width: 2; stroke-linecap: round"/>
   </g>
   <g id="patch_3">
    <path d="M 41.392188 242.389375 
L 41.392188 21.789375 
" style="fill: none; stroke: #cccccc; stroke-width: 0.8; stroke-linejoin: miter; stroke-linecap: square"/>
   </g>
   <g id="patch_4">
    <path d="M 432.535937 242.389375 
L 432.535937 21.789375 
" style="fill: none; stroke: #cccccc; stroke-width: 0.8; stroke-linejoin: miter; stroke-linecap: square"/>
   </g>
   <g id="patch_5">
    <path d="M 41.392188 242.389375 
L 432.535937 242.389375 
" style="fill: none; stroke: #cccccc; stroke-width: 0.8; stroke-linejoin: miter; stroke-linecap: square"/>
   </g>
   <g id="patch_6">
    <path d="M 41.392188 21.789375 
L 432.535937 21.789375 
" style="fill: none; stroke: #cccccc; stroke-width: 0.8; stroke-linejoin: miter; stroke-linecap: square"/>
   </g>
   <g id="text_16">
    <!-- APX1173 — PC2 all cores -->
    <g style="fill: #262626" transform="translate(167.040625 15.789375) scale(0.12 -0.12)">
     <defs>
      <path id="ArialMT-41" d="M -9 0 
L 1750 4581 
L 2403 4581 
L 4278 0 
L 3588 0 
L 3053 1388 
L 1138 1388 
L 634 0 
L -9 0 
z
M 1313 1881 
L 2866 1881 
L 2388 3150 
Q 2169 3728 2063 4100 
Q 1975 3659 1816 3225 
L 1313 1881 
z
" transform="scale(0.015625)"/>
      <path id="ArialMT-50" d="M 494 0 
L 494 4581 
L 2222 4581 
Q 2678 4581 2919 4538 
Q 3256 4481 3484 4323 
Q 3713 4166 3852 3881 
Q 3991 3597 3991 3256 
Q 3991 2672 3619 2267 
Q 3247 1863 2275 1863 
L 1100 1863 
L 1100 0 
L 494 0 
z
M 1100 2403 
L 2284 2403 
Q 2872 2403 3119 2622 
Q 3366 2841 3366 3238 
Q 3366 3525 3220 3729 
Q 3075 3934 2838 4000 
Q 2684 4041 2272 4041 
L 1100 4041 
L 1100 2403 
z
" transform="scale(0.015625)"/>
      <path id="ArialMT-58" d="M 28 0 
L 1800 2388 
L 238 4581 
L 959 4581 
L 1791 3406 
Q 2050 3041 2159 2844 
Q 2313 3094 2522 3366 
L 3444 4581 
L 4103 4581 
L 2494 2422 
L 4228 0 
L 3478 0 
L 2325 1634 
Q 2228 1775 2125 1941 
Q 1972 1691 1906 1597 
L 756 0 
L 28 0 
z
" transform="scale(0.015625)"/>
      <path id="ArialMT-37" d="M 303 3981 
L 303 4522 
L 3269 4522 
L 3269 4084 
Q 2831 3619 2401 2847 
Q 1972 2075 1738 1259 
Q 1569 684 1522 0 
L 944 0 
Q 953 541 1156 1306 
Q 1359 2072 1739 2783 
Q 2119 3494 2547 3981 
L 303 3981 
z
" transform="scale(0.015625)"/>
      <path id="ArialMT-2014" d="M 0 1431 
L 0 1884 
L 6400 1884 
L 6400 1431 
L 0 1431 
z
" transform="scale(0.015625)"/>
      <path id="ArialMT-43" d="M 3763 1606 
L 4369 1453 
Q 4178 706 3683 314 
Q 3188 -78 2472 -78 
Q 1731 -78 1267 223 
Q 803 525 561 1097 
Q 319 1669 319 2325 
Q 319 3041 592 3573 
Q 866 4106 1370 4382 
Q 1875 4659 2481 4659 
Q 3169 4659 3637 4309 
Q 4106 3959 4291 3325 
L 3694 3184 
Q 3534 3684 3231 3912 
Q 2928 4141 2469 4141 
Q 1941 4141 1586 3887 
Q 1231 3634 1087 3207 
Q 944 2781 944 2328 
Q 944 1744 1114 1308 
Q 1284 872 1643 656 
Q 2003 441 2422 441 
Q 2931 441 3284 734 
Q 3638 1028 3763 1606 
z
" transform="scale(0.015625)"/>
      <path id="ArialMT-6f" d="M 213 1659 
Q 213 2581 725 3025 
Q 1153 3394 1769 3394 
Q 2453 3394 2887 2945 
Q 3322 2497 3322 1706 
Q 3322 1066 3130 698 
Q 2938 331 2570 128 
Q 2203 -75 1769 -75 
Q 1072 -75 642 372 
Q 213 819 213 1659 
z
M 791 1659 
Q 791 1022 1069 705 
Q 1347 388 1769 388 
Q 2188 388 2466 706 
Q 2744 1025 2744 1678 
Q 2744 2294 2464 2611 
Q 2184 2928 1769 2928 
Q 1347 2928 1069 2612 
Q 791 2297 791 1659 
z
" transform="scale(0.015625)"/>
     </defs>
     <use xlink:href="#ArialMT-41"/>
     <use xlink:href="#ArialMT-50" transform="translate(66.699219 0)"/>
     <use xlink:href="#ArialMT-58" transform="translate(133.398438 0)"/>
     <use xlink:href="#ArialMT-31" transform="translate(200.097656 0)"/>
     <use xlink:href="#ArialMT-31" transform="translate(248.337891 0)"/>
     <use xlink:href="#ArialMT-37" transform="translate(303.953125 0)"/>
     <use xlink:href="#ArialMT-33" transform="translate(359.568359 0)"/>
     <use xlink:href="#ArialMT-20" transform="translate(415.183594 0)"/>
     <use xlink:href="#ArialMT-2014" transform="translate(442.966797 0)"/>
     <use xlink:href="#ArialMT-20" transform="translate(542.966797 0)"/>
     <use xlink:href="#ArialMT-50" transform="translate(570.75 0)"/>
     <use xlink:href="#ArialMT-43" transform="translate(637.449219 0)"/>
     <use xlink:href="#ArialMT-32" transform="translate(709.666016 0)"/>
     <use xlink:href="#ArialMT-20" transform="translate(765.28125 0)"/>
     <use xlink:href="#ArialMT-61" transform="translate(793.064453 0)"/>
     <use xlink:href="#ArialMT-6c" transform="translate(848.679688 0)"/>
     <use xlink:href="#ArialMT-6c" transform="translate(870.896484 0)"/>
     <use xlink:href="#ArialMT-20" transform="translate(893.113281 0)"/>
     <use xlink:href="#ArialMT-63" transform="translate(920.896484 0)"/>
     <use xlink:href="#ArialMT-6f" transform="translate(970.896484 0)"/>
     <use xlink:href="#ArialMT-72" transform="translate(1026.511719 0)"/>
     <use xlink:href="#ArialMT-65" transform="translate(1059.8125 0)"/>
     <use xlink:href="#ArialMT-73" transform="translate(1115.427734 0)"/>
    </g>
   </g>
   <g id="legend_1">
    <g id="patch_7">
     <path d="M 48.392188 237.389375 
L 112.075 237.389375 
Q 114.075 237.389375 114.075 235.389375 
L 114.075 207.864375 
Q 114.075 205.864375 112.075 205.864375 
L 48.392188 205.864375 
Q 46.392188 205.864375 46.392188 207.864375 
L 46.392188 235.389375 
Q 46.392188 237.389375 48.392188 237.389375 
z
" style="fill: #ffffff; opacity: 0.8; stroke: #cccccc; stroke-linejoin: miter"/>
    </g>
    <g id="line2d_16">
     <path d="M 50.392188 213.522188 
L 60.392188 213.522188 
L 70.392188 213.522188 
" style="fill: none; stroke: #1f77b4; stroke-width: 2; stroke-linecap: round"/>
    </g>
    <g id="text_17">
     <!-- queryA -->
     <g style="fill: #262626" transform="translate(78.392188 217.022188) scale(0.1 -0.1)">
      <defs>
       <path id="ArialMT-71" d="M 2538 -1272 
L 2538 353 
Q 2406 169 2170 47 
Q 1934 -75 1669 -75 
Q 1078 -75 651 397 
Q 225 869 225 1691 
Q 225 2191 398 2587 
Q 572 2984 901 3189 
Q 1231 3394 1625 3394 
Q 2241 3394 2594 2875 
L 2594 3319 
L 3100 3319 
L 3100 -1272 
L 2538 -1272 
z
M 803 1669 
Q 803 1028 1072 708 
Q 1341 388 1716 388 
Q 2075 388 2334 692 
Q 2594 997 2594 1619 
Q 2594 2281 2320 2615 
Q 2047 2950 1678 2950 
Q 1313 2950 1058 2639 
Q 803 2328 803 1669 
z
" transform="scale(0.015625)"/>
       <path id="ArialMT-75" d="M 2597 0 
L 2597 488 
Q 2209 -75 1544 -75 
Q 1250 -75 995 37 
Q 741 150 617 320 
Q 494 491 444 738 
Q 409 903 409 1263 
L 409 3319 
L 972 3319 
L 972 1478 
Q 972 1038 1006 884 
Q 1059 663 1231 536 
Q 1403 409 1656 409 
Q 1909 409 2131 539 
Q 2353 669 2445 892 
Q 2538 1116 2538 1541 
L 2538 3319 
L 3100 3319 
L 3100 0 
L 2597 0 
z
" transform="scale(0.015625)"/>
       <path id="ArialMT-79" d="M 397 -1278 
L 334 -750 
Q 519 -800 656 -800 
Q 844 -800 956 -737 
Q 1069 -675 1141 -563 
Q 1194 -478 1313 -144 
Q 1328 -97 1363 -6 
L 103 3319 
L 709 3319 
L 1400 1397 
Q 1534 1031 1641 628 
Q 1738 1016 1872 1384 
L 2581 3319 
L 3144 3319 
L 1881 -56 
Q 1678 -603 1566 -809 
Q 1416 -1088 1222 -1217 
Q 1028 -1347 759 -1347 
Q 597 -1347 397 -1278 
z
" transform="scale(0.015625)"/>
      </defs>
      <use xlink:href="#ArialMT-71"/>
      <use xlink:href="#ArialMT-75" transform="translate(55.615234 0)"/>
      <use xlink:href="#ArialMT-65" transform="translate(111.230469 0)"/>
      <use xlink:href="#ArialMT-72" transform="translate(166.845703 0)"/>
      <use xlink:href="#ArialMT-79" transform="translate(200.146484 0)"/>
      <use xlink:href="#ArialMT-41" transform="translate(250.146484 0)"/>
     </g>
    </g>
    <g id="line2d_17">
     <path d="M 50.392188 227.784688 
L 60.392188 227.784688 
L 70.392188 227.784688 
" style="fill: none; stroke: #ff7f0e; stroke-width: 2; stroke-linecap: round"/>
    </g>
    <g id="text_18">
     <!-- queryB -->
     <g style="fill: #262626" transform="translate(78.392188 231.284688) scale(0.1 -0.1)">
      <use xlink:href="#ArialMT-71"/>
      <use xlink:href="#ArialMT-75" transform="translate(55.615234 0)"/>
      <use xlink:href="#ArialMT-65" transform="translate(111.230469 0)"/>
      <use xlink:href="#ArialMT-72" transform="translate(166.845703 0)"/>
      <use xlink:href="#ArialMT-79" transform="translate(200.146484 0)"/>
      <use xlink:href="#ArialMT-42" transform="translate(250.146484 0)"/>
     </g>
    </g>
   </g>
  </g>
  <g id="axes_2">
   <g id="patch_8">
    <path d="M 457.517187 242.389375 
L 848.660937 242.389375 
L 848.660937 21.789375 
L 457.517187 21.789375 
z
" style="fill: #ffffff"/>
   </g>
   <g id="matplotlib.axis_3">
    <g id="xtick_9">
     <g id="line2d_18">
      <path d="M 457.517187 242.389375 
L 457.517187 21.789375 
" clip-path="url(#p6e6100813d)" style="fill: none; stroke: #cccccc; stroke-opacity: 0.3; stroke-width: 0.8; stroke-linecap: round"/>
     </g>
     <g id="text_19">
      <!-- 0 -->
      <g style="fill: #262626" transform="translate(454.736719 256.547188) scale(0.1 -0.1)">
       <use xlink:href="#ArialMT-30"/>
      </g>
     </g>
    </g>
    <g id="xtick_10">
     <g id="line2d_19">
      <path d="M 509.324307 242.389375 
L 509.324307 21.789375 
" clip-path="url(#p6e6100813d)" style="fill: none; stroke: #cccccc; stroke-opacity: 0.3; stroke-width: 0.8; stroke-linecap: round"/>
     </g>
     <g id="text_20">
      <!-- 20 -->
      <g style="fill: #262626" transform="translate(503.763369 256.547188) scale(0.1 -0.1)">
       <use xlink:href="#ArialMT-32"/>
       <use xlink:href="#ArialMT-30" transform="translate(55.615234 0)"/>
      </g>
     </g>
    </g>
    <g id="xtick_11">
     <g id="line2d_20">
      <path d="M 561.131426 242.389375 
L 561.131426 21.789375 
" clip-path="url(#p6e6100813d)" style="fill: none; stroke: #cccccc; stroke-opacity: 0.3; stroke-width: 0.8; stroke-linecap: round"/>
     </g>
     <g id="text_21">
      <!-- 40 -->
      <g style="fill: #262626" transform="translate(555.570488 256.547188) scale(0.1 -0.1)">
       <use xlink:href="#ArialMT-34"/>
       <use xlink:href="#ArialMT-30" transform="translate(55.615234 0)"/>
      </g>
     </g>
    </g>
    <g id="xtick_12">
     <g id="line2d_21">
      <path d="M 612.938545 242.389375 
L 612.938545 21.789375 
" clip-path="url(#p6e6100813d)" style="fill: none; stroke: #cccccc; stroke-opacity: 0.3; stroke-width: 0.8; stroke-linecap: round"/>
     </g>
     <g id="text_22">
      <!-- 60 -->
      <g style="fill: #262626" transform="translate(607.377608 256.547188) scale(0.1 -0.1)">
       <use xlink:href="#ArialMT-36"/>
       <use xlink:href="#ArialMT-30" transform="translate(55.615234 0)"/>
      </g>
     </g>
    </g>
    <g id="xtick_13">
     <g id="line2d_22">
      <path d="M 664.745664 242.389375 
L 664.745664 21.789375 
" clip-path="url(#p6e6100813d)" style="fill: none; stroke: #cccccc; stroke-opacity: 0.3; stroke-width: 0.8; stroke-linecap: round"/>
     </g>
     <g id="text_23">
      <!-- 80 -->
      <g style="fill: #262626" transform="translate(659.184727 256.547188) scale(0.1 -0.1)">
       <use xlink:href="#ArialMT-38"/>
       <use xlink:href="#ArialMT-30" transform="translate(55.615234 0)"/>
      </g>
     </g>
    </g>
    <g id="xtick_14">
     <g id="line2d_23">
      <path d="M 716.552784 242.389375 
L 716.552784 21.789375 
" clip-path="url(#p6e6100813d)" style="fill: none; stroke: #cccccc; stroke-opacity: 0.3; stroke-width: 0.8; stroke-linecap: round"/>
     </g>
     <g id="text_24">
      <!-- 100 -->
      <g style="fill: #262626" transform="translate(708.211377 256.547188) scale(0.1 -0.1)">
       <use xlink:href="#ArialMT-31"/>
       <use xlink:href="#ArialMT-30" transform="translate(55.615234 0)"/>
       <use xlink:href="#ArialMT-30" transform="translate(111.230469 0)"/>
      </g>
     </g>
    </g>
    <g id="xtick_15">
     <g id="line2d_24">
      <path d="M 768.359903 242.389375 
L 768.359903 21.789375 
" clip-path="url(#p6e6100813d)" style="fill: none; stroke: #cccccc; stroke-opacity: 0.3; stroke-width: 0.8; stroke-linecap: round"/>
     </g>
     <g id="text_25">
      <!-- 120 -->
      <g style="fill: #262626" transform="translate(760.018496 256.547188) scale(0.1 -0.1)">
       <use xlink:href="#ArialMT-31"/>
       <use xlink:href="#ArialMT-32" transform="translate(55.615234 0)"/>
       <use xlink:href="#ArialMT-30" transform="translate(111.230469 0)"/>
      </g>
     </g>
    </g>
    <g id="xtick_16">
     <g id="line2d_25">
      <path d="M 820.167022 242.389375 
L 820.167022 21.789375 
" clip-path="url(#p6e6100813d)" style="fill: none; stroke: #cccccc; stroke-opacity: 0.3; stroke-width: 0.8; stroke-linecap: round"/>
     </g>
     <g id="text_26">
      <!-- 140 -->
      <g style="fill: #262626" transform="translate(811.825616 256.547188) scale(0.1 -0.1)">
       <use xlink:href="#ArialMT-31"/>
       <use xlink:href="#ArialMT-34" transform="translate(55.615234 0)"/>
       <use xlink:href="#ArialMT-30" transform="translate(111.230469 0)"/>
      </g>
     </g>
    </g>
    <g id="text_27">
     <!-- Elapsed Time (sec) -->
     <g style="fill: #262626" transform="translate(610.297656 269.814375) scale(0.1 -0.1)">
      <use xlink:href="#ArialMT-45"/>
      <use xlink:href="#ArialMT-6c" transform="translate(66.699219 0)"/>
      <use xlink:href="#ArialMT-61" transform="translate(88.916016 0)"/>
      <use xlink:href="#ArialMT-70" transform="translate(144.53125 0)"/>
      <use xlink:href="#ArialMT-73" transform="translate(200.146484 0)"/>
      <use xlink:href="#ArialMT-65" transform="translate(250.146484 0)"/>
      <use xlink:href="#ArialMT-64" transform="translate(305.761719 0)"/>
      <use xlink:href="#ArialMT-20" transform="translate(361.376953 0)"/>
      <use xlink:href="#ArialMT-54" transform="translate(387.410156 0)"/>
      <use xlink:href="#ArialMT-69" transform="translate(444.744141 0)"/>
      <use xlink:href="#ArialMT-6d" transform="translate(466.960938 0)"/>
      <use xlink:href="#ArialMT-65" transform="translate(550.261719 0)"/>
      <use xlink:href="#ArialMT-20" transform="translate(605.876953 0)"/>
      <use xlink:href="#ArialMT-28" transform="translate(633.660156 0)"/>
      <use xlink:href="#ArialMT-73" transform="translate(666.960938 0)"/>
      <use xlink:href="#ArialMT-65" transform="translate(716.960938 0)"/>
      <use xlink:href="#ArialMT-63" transform="translate(772.576172 0)"/>
      <use xlink:href="#ArialMT-29" transform="translate(822.576172 0)"/>
     </g>
    </g>
   </g>
   <g id="matplotlib.axis_4">
    <g id="ytick_6">
     <g id="line2d_26">
      <path d="M 457.517187 242.014023 
L 848.660937 242.014023 
" clip-path="url(#p6e6100813d)" style="fill: none; stroke: #cccccc; stroke-opacity: 0.3; stroke-width: 0.8; stroke-linecap: round"/>
     </g>
    </g>
    <g id="ytick_7">
     <g id="line2d_27">
      <path d="M 457.517187 193.754421 
L 848.660937 193.754421 
" clip-path="url(#p6e6100813d)" style="fill: none; stroke: #cccccc; stroke-opacity: 0.3; stroke-width: 0.8; stroke-linecap: round"/>
     </g>
    </g>
    <g id="ytick_8">
     <g id="line2d_28">
      <path d="M 457.517187 145.49482 
L 848.660937 145.49482 
" clip-path="url(#p6e6100813d)" style="fill: none; stroke: #cccccc; stroke-opacity: 0.3; stroke-width: 0.8; stroke-linecap: round"/>
     </g>
    </g>
    <g id="ytick_9">
     <g id="line2d_29">
      <path d="M 457.517187 97.235218 
L 848.660937 97.235218 
" clip-path="url(#p6e6100813d)" style="fill: none; stroke: #cccccc; stroke-opacity: 0.3; stroke-width: 0.8; stroke-linecap: round"/>
     </g>
    </g>
    <g id="ytick_10">
     <g id="line2d_30">
      <path d="M 457.517187 48.975617 
L 848.660937 48.975617 
" clip-path="url(#p6e6100813d)" style="fill: none; stroke: #cccccc; stroke-opacity: 0.3; stroke-width: 0.8; stroke-linecap: round"/>
     </g>
    </g>
    <g id="text_28">
     <!-- Mean pkg_j per 1s Bin -->
     <g style="fill: #262626" transform="translate(451.4125 181.837031) rotate(-90) scale(0.1 -0.1)">
      <use xlink:href="#ArialMT-4d"/>
      <use xlink:href="#ArialMT-65" transform="translate(83.300781 0)"/>
      <use xlink:href="#ArialMT-61" transform="translate(138.916016 0)"/>
      <use xlink:href="#ArialMT-6e" transform="translate(194.53125 0)"/>
      <use xlink:href="#ArialMT-20" transform="translate(250.146484 0)"/>
      <use xlink:href="#ArialMT-70" transform="translate(277.929688 0)"/>
      <use xlink:href="#ArialMT-6b" transform="translate(333.544922 0)"/>
      <use xlink:href="#ArialMT-67" transform="translate(383.544922 0)"/>
      <use xlink:href="#ArialMT-5f" transform="translate(439.160156 0)"/>
      <use xlink:href="#ArialMT-6a" transform="translate(494.775391 0)"/>
      <use xlink:href="#ArialMT-20" transform="translate(516.992188 0)"/>
      <use xlink:href="#ArialMT-70" transform="translate(544.775391 0)"/>
      <use xlink:href="#ArialMT-65" transform="translate(600.390625 0)"/>
      <use xlink:href="#ArialMT-72" transform="translate(656.005859 0)"/>
      <use xlink:href="#ArialMT-20" transform="translate(689.306641 0)"/>
      <use xlink:href="#ArialMT-31" transform="translate(717.089844 0)"/>
      <use xlink:href="#ArialMT-73" transform="translate(772.705078 0)"/>
      <use xlink:href="#ArialMT-20" transform="translate(822.705078 0)"/>
      <use xlink:href="#ArialMT-42" transform="translate(850.488281 0)"/>
      <use xlink:href="#ArialMT-69" transform="translate(917.1875 0)"/>
      <use xlink:href="#ArialMT-6e" transform="translate(939.404297 0)"/>
     </g>
    </g>
   </g>
   <g id="line2d_31">
    <path d="M 457.517187 96.270026 
L 460.107543 97.717814 
L 462.697899 93.857046 
L 465.288255 92.891854 
L 467.878611 91.444066 
L 470.468967 56.697153 
L 473.059323 81.30955 
L 475.649679 89.031086 
L 478.240035 89.513682 
L 480.830391 80.826954 
L 483.420747 82.274742 
L 486.011103 81.792146 
L 488.601459 79.379166 
L 491.191815 84.205126 
L 493.782171 83.239934 
L 496.372527 55.410231 
L 498.962883 83.239934 
L 501.553239 78.413974 
L 504.143595 77.448782 
L 506.733951 83.72253 
L 509.324307 77.448782 
L 511.914663 81.30955 
L 514.505019 84.687722 
L 517.095375 80.826954 
L 519.685731 77.448782 
L 522.276087 76.48359 
L 524.866442 83.239934 
L 527.456798 78.413974 
L 532.63751 80.344358 
L 535.227866 71.175034 
L 537.818222 81.30955 
L 540.408578 82.274742 
L 542.998934 76.966186 
L 545.58929 82.274742 
L 548.179646 57.018884 
L 550.770002 76.48359 
L 553.360358 80.826954 
L 555.950714 79.379166 
L 558.54107 76.000994 
L 563.721782 76.000994 
L 566.312138 78.413974 
L 568.902494 80.344358 
L 571.49285 81.30955 
L 574.083206 74.553206 
L 576.673562 78.89657 
L 579.263918 78.413974 
L 581.854274 78.413974 
L 584.44463 80.344358 
L 587.034986 74.553206 
L 589.625341 74.07061 
L 592.215697 79.379166 
L 594.806053 74.07061 
L 597.396409 77.448782 
L 599.986765 76.000994 
L 602.577121 77.448782 
L 605.167477 76.966186 
L 610.348189 77.931378 
L 612.938545 76.000994 
L 615.528901 76.858942 
L 618.119257 82.274742 
L 620.709613 76.966186 
L 623.299969 80.826954 
L 625.890325 70.692438 
L 628.480681 70.209842 
L 631.071037 77.931378 
L 633.661393 78.89657 
L 636.251749 76.000994 
L 638.842105 76.000994 
L 641.432461 69.24465 
L 644.022817 72.140226 
L 646.613173 77.931378 
L 649.203529 80.826954 
L 651.793885 77.448782 
L 656.974596 78.413974 
L 659.564952 74.07061 
L 662.155308 81.30955 
L 664.745664 81.30955 
L 667.33602 72.622822 
L 669.926376 76.966186 
L 672.516732 76.966186 
L 675.107088 75.035802 
L 677.697444 77.448782 
L 680.2878 75.518398 
L 682.878156 72.140226 
L 685.468512 70.692438 
L 688.058868 71.496764 
L 690.649224 73.105418 
L 693.23958 74.07061 
L 695.829936 74.07061 
L 698.420292 69.24465 
L 701.010648 74.07061 
L 703.601004 75.035802 
L 706.19136 72.140226 
L 708.781716 73.588014 
L 711.372072 72.622822 
L 713.962428 68.762054 
L 716.552784 74.553206 
L 721.733495 67.796862 
L 724.323851 77.448782 
L 726.914207 74.553206 
L 729.504563 67.796862 
L 732.094919 68.279458 
L 734.685275 71.175034 
L 737.275631 71.175034 
L 739.865987 62.970901 
L 742.456343 77.39516 
L 745.046699 69.727246 
L 747.637055 72.622822 
L 750.227411 74.07061 
L 752.817767 47.527829 
L 755.408123 74.07061 
L 757.998479 76.966186 
L 760.588835 64.901286 
L 763.179191 70.692438 
L 765.769547 69.727246 
L 770.950259 74.553206 
L 773.540615 73.588014 
L 776.130971 66.349074 
L 778.721327 68.762054 
L 781.311683 76.48359 
L 783.902038 70.209842 
L 786.492394 72.622822 
L 789.08275 76.858942 
L 791.673106 66.83167 
L 794.263462 74.553206 
L 796.853818 72.622822 
L 799.444174 69.24465 
L 802.03453 68.762054 
L 804.624886 70.209842 
L 807.215242 67.314266 
L 809.805598 72.622822 
L 812.395954 69.24465 
L 814.98631 65.383882 
L 817.576666 52.353789 
L 820.167022 75.518398 
L 822.757378 68.279458 
L 825.347734 71.175034 
L 827.93809 69.888111 
L 830.528446 68.279458 
L 833.118802 72.140226 
L 835.709158 73.588014 
L 838.299514 67.314266 
L 840.88987 64.41869 
L 843.480226 106.283894 
L 843.480226 106.283894 
" clip-path="url(#p6e6100813d)" style="fill: none; stroke: #1f77b4; stroke-width: 2; stroke-linecap: round"/>
   </g>
   <g id="line2d_32">
    <path d="M 457.517187 94.822238 
L 460.107543 100.130795 
L 462.697899 93.37445 
L 465.288255 95.78743 
L 467.878611 95.78743 
L 470.468967 89.031086 
L 473.059323 89.031086 
L 475.649679 90.96147 
L 478.240035 89.996278 
L 480.830391 89.513682 
L 483.420747 86.13551 
L 486.011103 83.239934 
L 488.601459 84.687722 
L 491.191815 72.622822 
L 493.782171 86.13551 
L 496.372527 79.379166 
L 498.962883 88.065894 
L 501.553239 76.48359 
L 504.143595 86.618106 
L 506.733951 89.996278 
L 509.324307 79.003814 
L 511.914663 88.065894 
L 514.505019 85.170318 
L 517.095375 68.762054 
L 519.685731 84.205126 
L 522.276087 79.861762 
L 524.866442 83.239934 
L 527.456798 82.757338 
L 530.047154 80.344358 
L 532.63751 78.413974 
L 535.227866 77.931378 
L 537.818222 85.170318 
L 540.408578 81.30955 
L 542.998934 82.274742 
L 545.58929 82.757338 
L 548.179646 74.553206 
L 550.770002 83.239934 
L 553.360358 81.30955 
L 555.950714 78.413974 
L 558.54107 84.205126 
L 561.131426 82.757338 
L 563.721782 73.588014 
L 566.312138 84.205126 
L 568.902494 75.035802 
L 571.49285 79.379166 
L 574.083206 84.687722 
L 576.673562 78.89657 
L 579.263918 76.48359 
L 581.854274 80.826954 
L 584.44463 79.861762 
L 587.034986 80.826954 
L 589.625341 79.379166 
L 592.215697 80.826954 
L 594.806053 76.966186 
L 597.396409 81.792146 
L 599.986765 80.826954 
L 602.577121 77.931378 
L 605.167477 78.89657 
L 607.757833 78.413974 
L 610.348189 76.48359 
L 612.938545 83.72253 
L 615.528901 76.000994 
L 618.119257 81.792146 
L 620.709613 81.30955 
L 623.299969 80.344358 
L 625.890325 79.540031 
L 628.480681 75.035802 
L 631.071037 80.826954 
L 633.661393 77.448782 
L 636.251749 78.413974 
L 638.842105 78.89657 
L 641.432461 76.000994 
L 644.022817 82.757338 
L 646.613173 73.588014 
L 649.203529 54.766769 
L 651.793885 79.003814 
L 654.38424 73.588014 
L 656.974596 81.30955 
L 659.564952 83.72253 
L 662.155308 76.966186 
L 664.745664 81.30955 
L 667.33602 79.861762 
L 669.926376 79.379166 
L 672.516732 80.826954 
L 675.107088 76.000994 
L 677.697444 79.861762 
L 680.2878 79.861762 
L 682.878156 76.48359 
L 685.468512 80.344358 
L 688.058868 79.379166 
L 690.649224 75.518398 
L 693.23958 81.792146 
L 695.829936 78.413974 
L 698.420292 79.861762 
L 701.010648 75.518398 
L 703.601004 80.826954 
L 706.19136 71.65763 
L 708.781716 74.553206 
L 711.372072 82.274742 
L 713.962428 71.65763 
L 716.552784 80.826954 
L 719.143139 83.239934 
L 721.733495 73.588014 
L 724.323851 75.250289 
L 726.914207 74.553206 
L 729.504563 78.413974 
L 732.094919 78.89657 
L 734.685275 77.931378 
L 737.275631 75.518398 
L 739.865987 78.89657 
L 742.456343 83.239934 
L 745.046699 76.000994 
L 750.227411 81.792146 
L 752.817767 75.518398 
L 755.408123 80.826954 
L 757.998479 77.931378 
L 760.588835 73.588014 
L 763.179191 79.379166 
L 765.769547 74.553206 
L 768.359903 71.175034 
L 770.950259 79.379166 
L 773.540615 77.448782 
L 776.130971 77.448782 
L 778.721327 81.30955 
L 781.311683 74.714071 
L 783.902038 75.518398 
L 786.492394 81.792146 
L 789.08275 75.518398 
L 791.673106 78.89657 
L 794.263462 75.518398 
L 796.853818 78.413974 
L 799.444174 74.07061 
L 802.03453 71.175034 
L 804.624886 78.413974 
L 807.215242 72.622822 
L 809.805598 77.448782 
L 812.395954 77.448782 
L 814.98631 73.105418 
L 817.576666 79.379166 
L 820.167022 73.588014 
L 822.757378 78.89657 
L 825.347734 79.379166 
L 827.93809 75.035802 
L 830.528446 73.588014 
L 833.118802 76.966186 
L 835.709158 76.48359 
L 838.299514 79.003814 
L 840.88987 77.448782 
L 843.480226 75.035802 
L 846.070582 78.413974 
L 848.660937 115.466623 
L 848.660937 115.466623 
" clip-path="url(#p6e6100813d)" style="fill: none; stroke: #ff7f0e; stroke-width: 2; stroke-linecap: round"/>
   </g>
   <g id="patch_9">
    <path d="M 457.517187 242.389375 
L 457.517187 21.789375 
" style="fill: none; stroke: #cccccc; stroke-width: 0.8; stroke-linejoin: miter; stroke-linecap: square"/>
   </g>
   <g id="patch_10">
    <path d="M 848.660937 242.389375 
L 848.660937 21.789375 
" style="fill: none; stroke: #cccccc; stroke-width: 0.8; stroke-linejoin: miter; stroke-linecap: square"/>
   </g>
   <g id="patch_11">
    <path d="M 457.517187 242.389375 
L 848.660937 242.389375 
" style="fill: none; stroke: #cccccc; stroke-width: 0.8; stroke-linejoin: miter; stroke-linecap: square"/>
   </g>
   <g id="patch_12">
    <path d="M 457.517187 21.789375 
L 848.660937 21.789375 
" style="fill: none; stroke: #cccccc; stroke-width: 0.8; stroke-linejoin: miter; stroke-linecap: square"/>
   </g>
   <g id="text_29">
    <!-- APX1173 — PC2 1 core -->
    <g style="fill: #262626" transform="translate(588.831875 15.789375) scale(0.12 -0.12)">
     <use xlink:href="#ArialMT-41"/>
     <use xlink:href="#ArialMT-50" transform="translate(66.699219 0)"/>
     <use xlink:href="#ArialMT-58" transform="translate(133.398438 0)"/>
     <use xlink:href="#ArialMT-31" transform="translate(200.097656 0)"/>
     <use xlink:href="#ArialMT-31" transform="translate(248.337891 0)"/>
     <use xlink:href="#ArialMT-37" transform="translate(303.953125 0)"/>
     <use xlink:href="#ArialMT-33" transform="translate(359.568359 0)"/>
     <use xlink:href="#ArialMT-20" transform="translate(415.183594 0)"/>
     <use xlink:href="#ArialMT-2014" transform="translate(442.966797 0)"/>
     <use xlink:href="#ArialMT-20" transform="translate(542.966797 0)"/>
     <use xlink:href="#ArialMT-50" transform="translate(570.75 0)"/>
     <use xlink:href="#ArialMT-43" transform="translate(637.449219 0)"/>
     <use xlink:href="#ArialMT-32" transform="translate(709.666016 0)"/>
     <use xlink:href="#ArialMT-20" transform="translate(765.28125 0)"/>
     <use xlink:href="#ArialMT-31" transform="translate(793.064453 0)"/>
     <use xlink:href="#ArialMT-20" transform="translate(848.679688 0)"/>
     <use xlink:href="#ArialMT-63" transform="translate(876.462891 0)"/>
     <use xlink:href="#ArialMT-6f" transform="translate(926.462891 0)"/>
     <use xlink:href="#ArialMT-72" transform="translate(982.078125 0)"/>
     <use xlink:href="#ArialMT-65" transform="translate(1015.378906 0)"/>
    </g>
   </g>
   <g id="legend_2">
    <g id="patch_13">
     <path d="M 464.517187 237.389375 
L 528.2 237.389375 
Q 530.2 237.389375 530.2 235.389375 
L 530.2 207.864375 
Q 530.2 205.864375 528.2 205.864375 
L 464.517187 205.864375 
Q 462.517187 205.864375 462.517187 207.864375 
L 462.517187 235.389375 
Q 462.517187 237.389375 464.517187 237.389375 
z
" style="fill: #ffffff; opacity: 0.8; stroke: #cccccc; stroke-linejoin: miter"/>
    </g>
    <g id="line2d_33">
     <path d="M 466.517187 213.522188 
L 476.517187 213.522188 
L 486.517187 213.522188 
" style="fill: none; stroke: #1f77b4; stroke-width: 2; stroke-linecap: round"/>
    </g>
    <g id="text_30">
     <!-- queryA -->
     <g style="fill: #262626" transform="translate(494.517187 217.022188) scale(0.1 -0.1)">
      <use xlink:href="#ArialMT-71"/>
      <use xlink:href="#ArialMT-75" transform="translate(55.615234 0)"/>
      <use xlink:href="#ArialMT-65" transform="translate(111.230469 0)"/>
      <use xlink:href="#ArialMT-72" transform="translate(166.845703 0)"/>
      <use xlink:href="#ArialMT-79" transform="translate(200.146484 0)"/>
      <use xlink:href="#ArialMT-41" transform="translate(250.146484 0)"/>
     </g>
    </g>
    <g id="line2d_34">
     <path d="M 466.517187 227.784688 
L 476.517187 227.784688 
L 486.517187 227.784688 
" style="fill: none; stroke: #ff7f0e; stroke-width: 2; stroke-linecap: round"/>
    </g>
    <g id="text_31">
     <!-- queryB -->
     <g style="fill: #262626" transform="translate(494.517187 231.284688) scale(0.1 -0.1)">
      <use xlink:href="#ArialMT-71"/>
      <use xlink:href="#ArialMT-75" transform="translate(55.615234 0)"/>
      <use xlink:href="#ArialMT-65" transform="translate(111.230469 0)"/>
      <use xlink:href="#ArialMT-72" transform="translate(166.845703 0)"/>
      <use xlink:href="#ArialMT-79" transform="translate(200.146484 0)"/>
      <use xlink:href="#ArialMT-42" transform="translate(250.146484 0)"/>
     </g>
    </g>
   </g>
  </g>
 </g>
 <defs>
  <clipPath id="pbbcaa0011f">
   <rect x="41.392188" y="21.789375" width="391.14375" height="220.6"/>
  </clipPath>
  <clipPath id="p6e6100813d">
   <rect x="457.517187" y="21.789375" width="391.14375" height="220.6"/>
  </clipPath>
 </defs>
</svg>
