<?xml version="1.0" encoding="utf-8" standalone="no"?>
<!DOCTYPE svg PUBLIC "-//W3C//DTD SVG 1.1//EN"
  "http://www.w3.org/Graphics/SVG/1.1/DTD/svg11.dtd">
<svg xmlns:xlink="http://www.w3.org/1999/xlink" width="855.931875pt" height="279.119063pt" viewBox="0 0 855.931875 279.119063" xmlns="http://www.w3.org/2000/svg" version="1.1">
 <metadata>
  <rdf:RDF xmlns:dc="http://purl.org/dc/elements/1.1/" xmlns:cc="http://creativecommons.org/ns#" xmlns:rdf="http://www.w3.org/1999/02/22-rdf-syntax-ns#">
   <cc:Work>
    <dc:type rdf:resource="http://purl.org/dc/dcmitype/StillImage"/>
    <dc:date>2026-05-26T16:50:30.599082</dc:date>
    <dc:format>image/svg+xml</dc:format>
    <dc:creator>
     <cc:Agent>
      <dc:title>Matplotlib v3.10.1, https://matplotlib.org/</dc:title>
     </cc:Agent>
    </dc:creator>
   </cc:Work>
  </rdf:RDF>
 </metadata>
 <defs>
  <style type="text/css">*{stroke-linejoin: round; stroke-linecap: butt}</style>
 </defs>
 <g id="figure_1">
  <g id="patch_1">
   <path d="M 0 279.119063 
L 855.931875 279.119063 
L 855.931875 0 
L 0 0 
z
" style="fill: #ffffff"/>
  </g>
  <g id="axes_1">
   <g id="patch_2">
    <path d="M 46.953125 242.389375 
L 435.351875 242.389375 
L 435.351875 21.789375 
L 46.953125 21.789375 
z
" style="fill: #ffffff"/>
   </g>
   <g id="matplotlib.axis_1">
    <g id="xtick_1">
     <g id="line2d_1">
      <path d="M 46.953125 242.389375 
L 46.953125 21.789375 
" clip-path="url(#p83bae6e4b7)" style="fill: none; stroke: #cccccc; stroke-opacity: 0.3; stroke-width: 0.8; stroke-linecap: round"/>
     </g>
     <g id="text_1">
      <!-- 0 -->
      <g style="fill: #262626" transform="translate(44.172656 256.547188) scale(0.1 -0.1)">
       <defs>
        <path id="ArialMT-30" d="M 266 2259 
Q 266 3072 433 3567 
Q 600 4063 929 4331 
Q 1259 4600 1759 4600 
Q 2128 4600 2406 4451 
Q 2684 4303 2865 4023 
Q 3047 3744 3150 3342 
Q 3253 2941 3253 2259 
Q 3253 1453 3087 958 
Q 2922 463 2592 192 
Q 2263 -78 1759 -78 
Q 1097 -78 719 397 
Q 266 969 266 2259 
z
M 844 2259 
Q 844 1131 1108 757 
Q 1372 384 1759 384 
Q 2147 384 2411 759 
Q 2675 1134 2675 2259 
Q 2675 3391 2411 3762 
Q 2147 4134 1753 4134 
Q 1366 4134 1134 3806 
Q 844 3388 844 2259 
z
" transform="scale(0.015625)"/>
       </defs>
       <use xlink:href="#ArialMT-30"/>
      </g>
     </g>
    </g>
    <g id="xtick_2">
     <g id="line2d_2">
      <path d="M 93.635667 242.389375 
L 93.635667 21.789375 
" clip-path="url(#p83bae6e4b7)" style="fill: none; stroke: #cccccc; stroke-opacity: 0.3; stroke-width: 0.8; stroke-linecap: round"/>
     </g>
     <g id="text_2">
      <!-- 25 -->
      <g style="fill: #262626" transform="translate(88.07473 256.547188) scale(0.1 -0.1)">
       <defs>
        <path id="ArialMT-32" d="M 3222 541 
L 3222 0 
L 194 0 
Q 188 203 259 391 
Q 375 700 629 1000 
Q 884 1300 1366 1694 
Q 2113 2306 2375 2664 
Q 2638 3022 2638 3341 
Q 2638 3675 2398 3904 
Q 2159 4134 1775 4134 
Q 1369 4134 1125 3890 
Q 881 3647 878 3216 
L 300 3275 
Q 359 3922 746 4261 
Q 1134 4600 1788 4600 
Q 2447 4600 2831 4234 
Q 3216 3869 3216 3328 
Q 3216 3053 3103 2787 
Q 2991 2522 2730 2228 
Q 2469 1934 1863 1422 
Q 1356 997 1212 845 
Q 1069 694 975 541 
L 3222 541 
z
" transform="scale(0.015625)"/>
        <path id="ArialMT-35" d="M 266 1200 
L 856 1250 
Q 922 819 1161 601 
Q 1400 384 1738 384 
Q 2144 384 2425 690 
Q 2706 997 2706 1503 
Q 2706 1984 2436 2262 
Q 2166 2541 1728 2541 
Q 1456 2541 1237 2417 
Q 1019 2294 894 2097 
L 366 2166 
L 809 4519 
L 3088 4519 
L 3088 3981 
L 1259 3981 
L 1013 2750 
Q 1425 3038 1878 3038 
Q 2478 3038 2890 2622 
Q 3303 2206 3303 1553 
Q 3303 931 2941 478 
Q 2500 -78 1738 -78 
Q 1113 -78 717 272 
Q 322 622 266 1200 
z
" transform="scale(0.015625)"/>
       </defs>
       <use xlink:href="#ArialMT-32"/>
       <use xlink:href="#ArialMT-35" transform="translate(55.615234 0)"/>
      </g>
     </g>
    </g>
    <g id="xtick_3">
     <g id="line2d_3">
      <path d="M 140.318209 242.389375 
L 140.318209 21.789375 
" clip-path="url(#p83bae6e4b7)" style="fill: none; stroke: #cccccc; stroke-opacity: 0.3; stroke-width: 0.8; stroke-linecap: round"/>
     </g>
     <g id="text_3">
      <!-- 50 -->
      <g style="fill: #262626" transform="translate(134.757272 256.547188) scale(0.1 -0.1)">
       <use xlink:href="#ArialMT-35"/>
       <use xlink:href="#ArialMT-30" transform="translate(55.615234 0)"/>
      </g>
     </g>
    </g>
    <g id="xtick_4">
     <g id="line2d_4">
      <path d="M 187.000751 242.389375 
L 187.000751 21.789375 
" clip-path="url(#p83bae6e4b7)" style="fill: none; stroke: #cccccc; stroke-opacity: 0.3; stroke-width: 0.8; stroke-linecap: round"/>
     </g>
     <g id="text_4">
      <!-- 75 -->
      <g style="fill: #262626" transform="translate(181.439814 256.547188) scale(0.1 -0.1)">
       <defs>
        <path id="ArialMT-37" d="M 303 3981 
L 303 4522 
L 3269 4522 
L 3269 4084 
Q 2831 3619 2401 2847 
Q 1972 2075 1738 1259 
Q 1569 684 1522 0 
L 944 0 
Q 953 541 1156 1306 
Q 1359 2072 1739 2783 
Q 2119 3494 2547 3981 
L 303 3981 
z
" transform="scale(0.015625)"/>
       </defs>
       <use xlink:href="#ArialMT-37"/>
       <use xlink:href="#ArialMT-35" transform="translate(55.615234 0)"/>
      </g>
     </g>
    </g>
    <g id="xtick_5">
     <g id="line2d_5">
      <path d="M 233.683293 242.389375 
L 233.683293 21.789375 
" clip-path="url(#p83bae6e4b7)" style="fill: none; stroke: #cccccc; stroke-opacity: 0.3; stroke-width: 0.8; stroke-linecap: round"/>
     </g>
     <g id="text_5">
      <!-- 100 -->
      <g style="fill: #262626" transform="translate(225.341887 256.547188) scale(0.1 -0.1)">
       <defs>
        <path id="ArialMT-31" d="M 2384 0 
L 1822 0 
L 1822 3584 
Q 1619 3391 1289 3197 
Q 959 3003 697 2906 
L 697 3450 
Q 1169 3672 1522 3987 
Q 1875 4303 2022 4600 
L 2384 4600 
L 2384 0 
z
" transform="scale(0.015625)"/>
       </defs>
       <use xlink:href="#ArialMT-31"/>
       <use xlink:href="#ArialMT-30" transform="translate(55.615234 0)"/>
       <use xlink:href="#ArialMT-30" transform="translate(111.230469 0)"/>
      </g>
     </g>
    </g>
    <g id="xtick_6">
     <g id="line2d_6">
      <path d="M 280.365835 242.389375 
L 280.365835 21.789375 
" clip-path="url(#p83bae6e4b7)" style="fill: none; stroke: #cccccc; stroke-opacity: 0.3; stroke-width: 0.8; stroke-linecap: round"/>
     </g>
     <g id="text_6">
      <!-- 125 -->
      <g style="fill: #262626" transform="translate(272.024429 256.547188) scale(0.1 -0.1)">
       <use xlink:href="#ArialMT-31"/>
       <use xlink:href="#ArialMT-32" transform="translate(55.615234 0)"/>
       <use xlink:href="#ArialMT-35" transform="translate(111.230469 0)"/>
      </g>
     </g>
    </g>
    <g id="xtick_7">
     <g id="line2d_7">
      <path d="M 327.048377 242.389375 
L 327.048377 21.789375 
" clip-path="url(#p83bae6e4b7)" style="fill: none; stroke: #cccccc; stroke-opacity: 0.3; stroke-width: 0.8; stroke-linecap: round"/>
     </g>
     <g id="text_7">
      <!-- 150 -->
      <g style="fill: #262626" transform="translate(318.706971 256.547188) scale(0.1 -0.1)">
       <use xlink:href="#ArialMT-31"/>
       <use xlink:href="#ArialMT-35" transform="translate(55.615234 0)"/>
       <use xlink:href="#ArialMT-30" transform="translate(111.230469 0)"/>
      </g>
     </g>
    </g>
    <g id="xtick_8">
     <g id="line2d_8">
      <path d="M 373.730919 242.389375 
L 373.730919 21.789375 
" clip-path="url(#p83bae6e4b7)" style="fill: none; stroke: #cccccc; stroke-opacity: 0.3; stroke-width: 0.8; stroke-linecap: round"/>
     </g>
     <g id="text_8">
      <!-- 175 -->
      <g style="fill: #262626" transform="translate(365.389513 256.547188) scale(0.1 -0.1)">
       <use xlink:href="#ArialMT-31"/>
       <use xlink:href="#ArialMT-37" transform="translate(55.615234 0)"/>
       <use xlink:href="#ArialMT-35" transform="translate(111.230469 0)"/>
      </g>
     </g>
    </g>
    <g id="xtick_9">
     <g id="line2d_9">
      <path d="M 420.413462 242.389375 
L 420.413462 21.789375 
" clip-path="url(#p83bae6e4b7)" style="fill: none; stroke: #cccccc; stroke-opacity: 0.3; stroke-width: 0.8; stroke-linecap: round"/>
     </g>
     <g id="text_9">
      <!-- 200 -->
      <g style="fill: #262626" transform="translate(412.072055 256.547188) scale(0.1 -0.1)">
       <use xlink:href="#ArialMT-32"/>
       <use xlink:href="#ArialMT-30" transform="translate(55.615234 0)"/>
       <use xlink:href="#ArialMT-30" transform="translate(111.230469 0)"/>
      </g>
     </g>
    </g>
    <g id="text_10">
     <!-- Elapsed Time (sec) -->
     <g style="fill: #262626" transform="translate(198.361094 269.814375) scale(0.1 -0.1)">
      <defs>
       <path id="ArialMT-45" d="M 506 0 
L 506 4581 
L 3819 4581 
L 3819 4041 
L 1113 4041 
L 1113 2638 
L 3647 2638 
L 3647 2100 
L 1113 2100 
L 1113 541 
L 3925 541 
L 3925 0 
L 506 0 
z
" transform="scale(0.015625)"/>
       <path id="ArialMT-6c" d="M 409 0 
L 409 4581 
L 972 4581 
L 972 0 
L 409 0 
z
" transform="scale(0.015625)"/>
       <path id="ArialMT-61" d="M 2588 409 
Q 2275 144 1986 34 
Q 1697 -75 1366 -75 
Q 819 -75 525 192 
Q 231 459 231 875 
Q 231 1119 342 1320 
Q 453 1522 633 1644 
Q 813 1766 1038 1828 
Q 1203 1872 1538 1913 
Q 2219 1994 2541 2106 
Q 2544 2222 2544 2253 
Q 2544 2597 2384 2738 
Q 2169 2928 1744 2928 
Q 1347 2928 1158 2789 
Q 969 2650 878 2297 
L 328 2372 
Q 403 2725 575 2942 
Q 747 3159 1072 3276 
Q 1397 3394 1825 3394 
Q 2250 3394 2515 3294 
Q 2781 3194 2906 3042 
Q 3031 2891 3081 2659 
Q 3109 2516 3109 2141 
L 3109 1391 
Q 3109 606 3145 398 
Q 3181 191 3288 0 
L 2700 0 
Q 2613 175 2588 409 
z
M 2541 1666 
Q 2234 1541 1622 1453 
Q 1275 1403 1131 1340 
Q 988 1278 909 1158 
Q 831 1038 831 891 
Q 831 666 1001 516 
Q 1172 366 1500 366 
Q 1825 366 2078 508 
Q 2331 650 2450 897 
Q 2541 1088 2541 1459 
L 2541 1666 
z
" transform="scale(0.015625)"/>
       <path id="ArialMT-70" d="M 422 -1272 
L 422 3319 
L 934 3319 
L 934 2888 
Q 1116 3141 1344 3267 
Q 1572 3394 1897 3394 
Q 2322 3394 2647 3175 
Q 2972 2956 3137 2557 
Q 3303 2159 3303 1684 
Q 3303 1175 3120 767 
Q 2938 359 2589 142 
Q 2241 -75 1856 -75 
Q 1575 -75 1351 44 
Q 1128 163 984 344 
L 984 -1272 
L 422 -1272 
z
M 931 1641 
Q 931 1000 1190 694 
Q 1450 388 1819 388 
Q 2194 388 2461 705 
Q 2728 1022 2728 1688 
Q 2728 2322 2467 2637 
Q 2206 2953 1844 2953 
Q 1484 2953 1207 2617 
Q 931 2281 931 1641 
z
" transform="scale(0.015625)"/>
       <path id="ArialMT-73" d="M 197 991 
L 753 1078 
Q 800 744 1014 566 
Q 1228 388 1613 388 
Q 2000 388 2187 545 
Q 2375 703 2375 916 
Q 2375 1106 2209 1216 
Q 2094 1291 1634 1406 
Q 1016 1563 777 1677 
Q 538 1791 414 1992 
Q 291 2194 291 2438 
Q 291 2659 392 2848 
Q 494 3038 669 3163 
Q 800 3259 1026 3326 
Q 1253 3394 1513 3394 
Q 1903 3394 2198 3281 
Q 2494 3169 2634 2976 
Q 2775 2784 2828 2463 
L 2278 2388 
Q 2241 2644 2061 2787 
Q 1881 2931 1553 2931 
Q 1166 2931 1000 2803 
Q 834 2675 834 2503 
Q 834 2394 903 2306 
Q 972 2216 1119 2156 
Q 1203 2125 1616 2013 
Q 2213 1853 2448 1751 
Q 2684 1650 2818 1456 
Q 2953 1263 2953 975 
Q 2953 694 2789 445 
Q 2625 197 2315 61 
Q 2006 -75 1616 -75 
Q 969 -75 630 194 
Q 291 463 197 991 
z
" transform="scale(0.015625)"/>
       <path id="ArialMT-65" d="M 2694 1069 
L 3275 997 
Q 3138 488 2766 206 
Q 2394 -75 1816 -75 
Q 1088 -75 661 373 
Q 234 822 234 1631 
Q 234 2469 665 2931 
Q 1097 3394 1784 3394 
Q 2450 3394 2872 2941 
Q 3294 2488 3294 1666 
Q 3294 1616 3291 1516 
L 816 1516 
Q 847 969 1125 678 
Q 1403 388 1819 388 
Q 2128 388 2347 550 
Q 2566 713 2694 1069 
z
M 847 1978 
L 2700 1978 
Q 2663 2397 2488 2606 
Q 2219 2931 1791 2931 
Q 1403 2931 1139 2672 
Q 875 2413 847 1978 
z
" transform="scale(0.015625)"/>
       <path id="ArialMT-64" d="M 2575 0 
L 2575 419 
Q 2259 -75 1647 -75 
Q 1250 -75 917 144 
Q 584 363 401 755 
Q 219 1147 219 1656 
Q 219 2153 384 2558 
Q 550 2963 881 3178 
Q 1213 3394 1622 3394 
Q 1922 3394 2156 3267 
Q 2391 3141 2538 2938 
L 2538 4581 
L 3097 4581 
L 3097 0 
L 2575 0 
z
M 797 1656 
Q 797 1019 1065 703 
Q 1334 388 1700 388 
Q 2069 388 2326 689 
Q 2584 991 2584 1609 
Q 2584 2291 2321 2609 
Q 2059 2928 1675 2928 
Q 1300 2928 1048 2622 
Q 797 2316 797 1656 
z
" transform="scale(0.015625)"/>
       <path id="ArialMT-20" transform="scale(0.015625)"/>
       <path id="ArialMT-54" d="M 1659 0 
L 1659 4041 
L 150 4041 
L 150 4581 
L 3781 4581 
L 3781 4041 
L 2266 4041 
L 2266 0 
L 1659 0 
z
" transform="scale(0.015625)"/>
       <path id="ArialMT-69" d="M 425 3934 
L 425 4581 
L 988 4581 
L 988 3934 
L 425 3934 
z
M 425 0 
L 425 3319 
L 988 3319 
L 988 0 
L 425 0 
z
" transform="scale(0.015625)"/>
       <path id="ArialMT-6d" d="M 422 0 
L 422 3319 
L 925 3319 
L 925 2853 
Q 1081 3097 1340 3245 
Q 1600 3394 1931 3394 
Q 2300 3394 2536 3241 
Q 2772 3088 2869 2813 
Q 3263 3394 3894 3394 
Q 4388 3394 4653 3120 
Q 4919 2847 4919 2278 
L 4919 0 
L 4359 0 
L 4359 2091 
Q 4359 2428 4304 2576 
Q 4250 2725 4106 2815 
Q 3963 2906 3769 2906 
Q 3419 2906 3187 2673 
Q 2956 2441 2956 1928 
L 2956 0 
L 2394 0 
L 2394 2156 
Q 2394 2531 2256 2718 
Q 2119 2906 1806 2906 
Q 1569 2906 1367 2781 
Q 1166 2656 1075 2415 
Q 984 2175 984 1722 
L 984 0 
L 422 0 
z
" transform="scale(0.015625)"/>
       <path id="ArialMT-28" d="M 1497 -1347 
Q 1031 -759 709 28 
Q 388 816 388 1659 
Q 388 2403 628 3084 
Q 909 3875 1497 4659 
L 1900 4659 
Q 1522 4009 1400 3731 
Q 1209 3300 1100 2831 
Q 966 2247 966 1656 
Q 966 153 1900 -1347 
L 1497 -1347 
z
" transform="scale(0.015625)"/>
       <path id="ArialMT-63" d="M 2588 1216 
L 3141 1144 
Q 3050 572 2676 248 
Q 2303 -75 1759 -75 
Q 1078 -75 664 370 
Q 250 816 250 1647 
Q 250 2184 428 2587 
Q 606 2991 970 3192 
Q 1334 3394 1763 3394 
Q 2303 3394 2647 3120 
Q 2991 2847 3088 2344 
L 2541 2259 
Q 2463 2594 2264 2762 
Q 2066 2931 1784 2931 
Q 1359 2931 1093 2626 
Q 828 2322 828 1663 
Q 828 994 1084 691 
Q 1341 388 1753 388 
Q 2084 388 2306 591 
Q 2528 794 2588 1216 
z
" transform="scale(0.015625)"/>
       <path id="ArialMT-29" d="M 791 -1347 
L 388 -1347 
Q 1322 153 1322 1656 
Q 1322 2244 1188 2822 
Q 1081 3291 891 3722 
Q 769 4003 388 4659 
L 791 4659 
Q 1378 3875 1659 3084 
Q 1900 2403 1900 1659 
Q 1900 816 1576 28 
Q 1253 -759 791 -1347 
z
" transform="scale(0.015625)"/>
      </defs>
      <use xlink:href="#ArialMT-45"/>
      <use xlink:href="#ArialMT-6c" transform="translate(66.699219 0)"/>
      <use xlink:href="#ArialMT-61" transform="translate(88.916016 0)"/>
      <use xlink:href="#ArialMT-70" transform="translate(144.53125 0)"/>
      <use xlink:href="#ArialMT-73" transform="translate(200.146484 0)"/>
      <use xlink:href="#ArialMT-65" transform="translate(250.146484 0)"/>
      <use xlink:href="#ArialMT-64" transform="translate(305.761719 0)"/>
      <use xlink:href="#ArialMT-20" transform="translate(361.376953 0)"/>
      <use xlink:href="#ArialMT-54" transform="translate(387.410156 0)"/>
      <use xlink:href="#ArialMT-69" transform="translate(444.744141 0)"/>
      <use xlink:href="#ArialMT-6d" transform="translate(466.960938 0)"/>
      <use xlink:href="#ArialMT-65" transform="translate(550.261719 0)"/>
      <use xlink:href="#ArialMT-20" transform="translate(605.876953 0)"/>
      <use xlink:href="#ArialMT-28" transform="translate(633.660156 0)"/>
      <use xlink:href="#ArialMT-73" transform="translate(666.960938 0)"/>
      <use xlink:href="#ArialMT-65" transform="translate(716.960938 0)"/>
      <use xlink:href="#ArialMT-63" transform="translate(772.576172 0)"/>
      <use xlink:href="#ArialMT-29" transform="translate(822.576172 0)"/>
     </g>
    </g>
   </g>
   <g id="matplotlib.axis_2">
    <g id="ytick_1">
     <g id="line2d_10">
      <path d="M 46.953125 220.353392 
L 435.351875 220.353392 
" clip-path="url(#p83bae6e4b7)" style="fill: none; stroke: #cccccc; stroke-opacity: 0.3; stroke-width: 0.8; stroke-linecap: round"/>
     </g>
     <g id="text_11">
      <!-- 0.50 -->
      <g style="fill: #262626" transform="translate(20.492188 223.932299) scale(0.1 -0.1)">
       <defs>
        <path id="ArialMT-2e" d="M 581 0 
L 581 641 
L 1222 641 
L 1222 0 
L 581 0 
z
" transform="scale(0.015625)"/>
       </defs>
       <use xlink:href="#ArialMT-30"/>
       <use xlink:href="#ArialMT-2e" transform="translate(55.615234 0)"/>
       <use xlink:href="#ArialMT-35" transform="translate(83.398438 0)"/>
       <use xlink:href="#ArialMT-30" transform="translate(139.013672 0)"/>
      </g>
     </g>
    </g>
    <g id="ytick_2">
     <g id="line2d_11">
      <path d="M 46.953125 190.331618 
L 435.351875 190.331618 
" clip-path="url(#p83bae6e4b7)" style="fill: none; stroke: #cccccc; stroke-opacity: 0.3; stroke-width: 0.8; stroke-linecap: round"/>
     </g>
     <g id="text_12">
      <!-- 0.55 -->
      <g style="fill: #262626" transform="translate(20.492188 193.910524) scale(0.1 -0.1)">
       <use xlink:href="#ArialMT-30"/>
       <use xlink:href="#ArialMT-2e" transform="translate(55.615234 0)"/>
       <use xlink:href="#ArialMT-35" transform="translate(83.398438 0)"/>
       <use xlink:href="#ArialMT-35" transform="translate(139.013672 0)"/>
      </g>
     </g>
    </g>
    <g id="ytick_3">
     <g id="line2d_12">
      <path d="M 46.953125 160.309843 
L 435.351875 160.309843 
" clip-path="url(#p83bae6e4b7)" style="fill: none; stroke: #cccccc; stroke-opacity: 0.3; stroke-width: 0.8; stroke-linecap: round"/>
     </g>
     <g id="text_13">
      <!-- 0.60 -->
      <g style="fill: #262626" transform="translate(20.492188 163.888749) scale(0.1 -0.1)">
       <defs>
        <path id="ArialMT-36" d="M 3184 3459 
L 2625 3416 
Q 2550 3747 2413 3897 
Q 2184 4138 1850 4138 
Q 1581 4138 1378 3988 
Q 1113 3794 959 3422 
Q 806 3050 800 2363 
Q 1003 2672 1297 2822 
Q 1591 2972 1913 2972 
Q 2475 2972 2870 2558 
Q 3266 2144 3266 1488 
Q 3266 1056 3080 686 
Q 2894 316 2569 119 
Q 2244 -78 1831 -78 
Q 1128 -78 684 439 
Q 241 956 241 2144 
Q 241 3472 731 4075 
Q 1159 4600 1884 4600 
Q 2425 4600 2770 4297 
Q 3116 3994 3184 3459 
z
M 888 1484 
Q 888 1194 1011 928 
Q 1134 663 1356 523 
Q 1578 384 1822 384 
Q 2178 384 2434 671 
Q 2691 959 2691 1453 
Q 2691 1928 2437 2201 
Q 2184 2475 1800 2475 
Q 1419 2475 1153 2201 
Q 888 1928 888 1484 
z
" transform="scale(0.015625)"/>
       </defs>
       <use xlink:href="#ArialMT-30"/>
       <use xlink:href="#ArialMT-2e" transform="translate(55.615234 0)"/>
       <use xlink:href="#ArialMT-36" transform="translate(83.398438 0)"/>
       <use xlink:href="#ArialMT-30" transform="translate(139.013672 0)"/>
      </g>
     </g>
    </g>
    <g id="ytick_4">
     <g id="line2d_13">
      <path d="M 46.953125 130.288069 
L 435.351875 130.288069 
" clip-path="url(#p83bae6e4b7)" style="fill: none; stroke: #cccccc; stroke-opacity: 0.3; stroke-width: 0.8; stroke-linecap: round"/>
     </g>
     <g id="text_14">
      <!-- 0.65 -->
      <g style="fill: #262626" transform="translate(20.492188 133.866975) scale(0.1 -0.1)">
       <use xlink:href="#ArialMT-30"/>
       <use xlink:href="#ArialMT-2e" transform="translate(55.615234 0)"/>
       <use xlink:href="#ArialMT-36" transform="translate(83.398438 0)"/>
       <use xlink:href="#ArialMT-35" transform="translate(139.013672 0)"/>
      </g>
     </g>
    </g>
    <g id="ytick_5">
     <g id="line2d_14">
      <path d="M 46.953125 100.266294 
L 435.351875 100.266294 
" clip-path="url(#p83bae6e4b7)" style="fill: none; stroke: #cccccc; stroke-opacity: 0.3; stroke-width: 0.8; stroke-linecap: round"/>
     </g>
     <g id="text_15">
      <!-- 0.70 -->
      <g style="fill: #262626" transform="translate(20.492188 103.8452) scale(0.1 -0.1)">
       <use xlink:href="#ArialMT-30"/>
       <use xlink:href="#ArialMT-2e" transform="translate(55.615234 0)"/>
       <use xlink:href="#ArialMT-37" transform="translate(83.398438 0)"/>
       <use xlink:href="#ArialMT-30" transform="translate(139.013672 0)"/>
      </g>
     </g>
    </g>
    <g id="ytick_6">
     <g id="line2d_15">
      <path d="M 46.953125 70.244519 
L 435.351875 70.244519 
" clip-path="url(#p83bae6e4b7)" style="fill: none; stroke: #cccccc; stroke-opacity: 0.3; stroke-width: 0.8; stroke-linecap: round"/>
     </g>
     <g id="text_16">
      <!-- 0.75 -->
      <g style="fill: #262626" transform="translate(20.492188 73.823426) scale(0.1 -0.1)">
       <use xlink:href="#ArialMT-30"/>
       <use xlink:href="#ArialMT-2e" transform="translate(55.615234 0)"/>
       <use xlink:href="#ArialMT-37" transform="translate(83.398438 0)"/>
       <use xlink:href="#ArialMT-35" transform="translate(139.013672 0)"/>
      </g>
     </g>
    </g>
    <g id="ytick_7">
     <g id="line2d_16">
      <path d="M 46.953125 40.222745 
L 435.351875 40.222745 
" clip-path="url(#p83bae6e4b7)" style="fill: none; stroke: #cccccc; stroke-opacity: 0.3; stroke-width: 0.8; stroke-linecap: round"/>
     </g>
     <g id="text_17">
      <!-- 0.80 -->
      <g style="fill: #262626" transform="translate(20.492188 43.801651) scale(0.1 -0.1)">
       <defs>
        <path id="ArialMT-38" d="M 1131 2484 
Q 781 2613 612 2850 
Q 444 3088 444 3419 
Q 444 3919 803 4259 
Q 1163 4600 1759 4600 
Q 2359 4600 2725 4251 
Q 3091 3903 3091 3403 
Q 3091 3084 2923 2848 
Q 2756 2613 2416 2484 
Q 2838 2347 3058 2040 
Q 3278 1734 3278 1309 
Q 3278 722 2862 322 
Q 2447 -78 1769 -78 
Q 1091 -78 675 323 
Q 259 725 259 1325 
Q 259 1772 486 2073 
Q 713 2375 1131 2484 
z
M 1019 3438 
Q 1019 3113 1228 2906 
Q 1438 2700 1772 2700 
Q 2097 2700 2305 2904 
Q 2513 3109 2513 3406 
Q 2513 3716 2298 3927 
Q 2084 4138 1766 4138 
Q 1444 4138 1231 3931 
Q 1019 3725 1019 3438 
z
M 838 1322 
Q 838 1081 952 856 
Q 1066 631 1291 507 
Q 1516 384 1775 384 
Q 2178 384 2440 643 
Q 2703 903 2703 1303 
Q 2703 1709 2433 1975 
Q 2163 2241 1756 2241 
Q 1359 2241 1098 1978 
Q 838 1716 838 1322 
z
" transform="scale(0.015625)"/>
       </defs>
       <use xlink:href="#ArialMT-30"/>
       <use xlink:href="#ArialMT-2e" transform="translate(55.615234 0)"/>
       <use xlink:href="#ArialMT-38" transform="translate(83.398438 0)"/>
       <use xlink:href="#ArialMT-30" transform="translate(139.013672 0)"/>
      </g>
     </g>
    </g>
    <g id="text_18">
     <!-- Mean pkg_j per 1s Bin -->
     <g style="fill: #262626" transform="translate(14.3875 181.837031) rotate(-90) scale(0.1 -0.1)">
      <defs>
       <path id="ArialMT-4d" d="M 475 0 
L 475 4581 
L 1388 4581 
L 2472 1338 
Q 2622 884 2691 659 
Q 2769 909 2934 1394 
L 4031 4581 
L 4847 4581 
L 4847 0 
L 4263 0 
L 4263 3834 
L 2931 0 
L 2384 0 
L 1059 3900 
L 1059 0 
L 475 0 
z
" transform="scale(0.015625)"/>
       <path id="ArialMT-6e" d="M 422 0 
L 422 3319 
L 928 3319 
L 928 2847 
Q 1294 3394 1984 3394 
Q 2284 3394 2536 3286 
Q 2788 3178 2913 3003 
Q 3038 2828 3088 2588 
Q 3119 2431 3119 2041 
L 3119 0 
L 2556 0 
L 2556 2019 
Q 2556 2363 2490 2533 
Q 2425 2703 2258 2804 
Q 2091 2906 1866 2906 
Q 1506 2906 1245 2678 
Q 984 2450 984 1813 
L 984 0 
L 422 0 
z
" transform="scale(0.015625)"/>
       <path id="ArialMT-6b" d="M 425 0 
L 425 4581 
L 988 4581 
L 988 1969 
L 2319 3319 
L 3047 3319 
L 1778 2088 
L 3175 0 
L 2481 0 
L 1384 1697 
L 988 1316 
L 988 0 
L 425 0 
z
" transform="scale(0.015625)"/>
       <path id="ArialMT-67" d="M 319 -275 
L 866 -356 
Q 900 -609 1056 -725 
Q 1266 -881 1628 -881 
Q 2019 -881 2231 -725 
Q 2444 -569 2519 -288 
Q 2563 -116 2559 434 
Q 2191 0 1641 0 
Q 956 0 581 494 
Q 206 988 206 1678 
Q 206 2153 378 2554 
Q 550 2956 876 3175 
Q 1203 3394 1644 3394 
Q 2231 3394 2613 2919 
L 2613 3319 
L 3131 3319 
L 3131 450 
Q 3131 -325 2973 -648 
Q 2816 -972 2473 -1159 
Q 2131 -1347 1631 -1347 
Q 1038 -1347 672 -1080 
Q 306 -813 319 -275 
z
M 784 1719 
Q 784 1066 1043 766 
Q 1303 466 1694 466 
Q 2081 466 2343 764 
Q 2606 1063 2606 1700 
Q 2606 2309 2336 2618 
Q 2066 2928 1684 2928 
Q 1309 2928 1046 2623 
Q 784 2319 784 1719 
z
" transform="scale(0.015625)"/>
       <path id="ArialMT-5f" d="M -97 -1272 
L -97 -866 
L 3631 -866 
L 3631 -1272 
L -97 -1272 
z
" transform="scale(0.015625)"/>
       <path id="ArialMT-6a" d="M 419 3928 
L 419 4581 
L 981 4581 
L 981 3928 
L 419 3928 
z
M -294 -1288 
L -188 -809 
Q -19 -853 78 -853 
Q 250 -853 334 -739 
Q 419 -625 419 -169 
L 419 3319 
L 981 3319 
L 981 -181 
Q 981 -794 822 -1034 
Q 619 -1347 147 -1347 
Q -81 -1347 -294 -1288 
z
" transform="scale(0.015625)"/>
       <path id="ArialMT-72" d="M 416 0 
L 416 3319 
L 922 3319 
L 922 2816 
Q 1116 3169 1280 3281 
Q 1444 3394 1641 3394 
Q 1925 3394 2219 3213 
L 2025 2691 
Q 1819 2813 1613 2813 
Q 1428 2813 1281 2702 
Q 1134 2591 1072 2394 
Q 978 2094 978 1738 
L 978 0 
L 416 0 
z
" transform="scale(0.015625)"/>
       <path id="ArialMT-42" d="M 469 0 
L 469 4581 
L 2188 4581 
Q 2713 4581 3030 4442 
Q 3347 4303 3526 4014 
Q 3706 3725 3706 3409 
Q 3706 3116 3547 2856 
Q 3388 2597 3066 2438 
Q 3481 2316 3704 2022 
Q 3928 1728 3928 1328 
Q 3928 1006 3792 729 
Q 3656 453 3456 303 
Q 3256 153 2954 76 
Q 2653 0 2216 0 
L 469 0 
z
M 1075 2656 
L 2066 2656 
Q 2469 2656 2644 2709 
Q 2875 2778 2992 2937 
Q 3109 3097 3109 3338 
Q 3109 3566 3000 3739 
Q 2891 3913 2687 3977 
Q 2484 4041 1991 4041 
L 1075 4041 
L 1075 2656 
z
M 1075 541 
L 2216 541 
Q 2509 541 2628 563 
Q 2838 600 2978 687 
Q 3119 775 3209 942 
Q 3300 1109 3300 1328 
Q 3300 1584 3169 1773 
Q 3038 1963 2805 2039 
Q 2572 2116 2134 2116 
L 1075 2116 
L 1075 541 
z
" transform="scale(0.015625)"/>
      </defs>
      <use xlink:href="#ArialMT-4d"/>
      <use xlink:href="#ArialMT-65" transform="translate(83.300781 0)"/>
      <use xlink:href="#ArialMT-61" transform="translate(138.916016 0)"/>
      <use xlink:href="#ArialMT-6e" transform="translate(194.53125 0)"/>
      <use xlink:href="#ArialMT-20" transform="translate(250.146484 0)"/>
      <use xlink:href="#ArialMT-70" transform="translate(277.929688 0)"/>
      <use xlink:href="#ArialMT-6b" transform="translate(333.544922 0)"/>
      <use xlink:href="#ArialMT-67" transform="translate(383.544922 0)"/>
      <use xlink:href="#ArialMT-5f" transform="translate(439.160156 0)"/>
      <use xlink:href="#ArialMT-6a" transform="translate(494.775391 0)"/>
      <use xlink:href="#ArialMT-20" transform="translate(516.992188 0)"/>
      <use xlink:href="#ArialMT-70" transform="translate(544.775391 0)"/>
      <use xlink:href="#ArialMT-65" transform="translate(600.390625 0)"/>
      <use xlink:href="#ArialMT-72" transform="translate(656.005859 0)"/>
      <use xlink:href="#ArialMT-20" transform="translate(689.306641 0)"/>
      <use xlink:href="#ArialMT-31" transform="translate(717.089844 0)"/>
      <use xlink:href="#ArialMT-73" transform="translate(772.705078 0)"/>
      <use xlink:href="#ArialMT-20" transform="translate(822.705078 0)"/>
      <use xlink:href="#ArialMT-42" transform="translate(850.488281 0)"/>
      <use xlink:href="#ArialMT-69" transform="translate(917.1875 0)"/>
      <use xlink:href="#ArialMT-6e" transform="translate(939.404297 0)"/>
     </g>
    </g>
   </g>
   <g id="line2d_17">
    <path d="M 46.953125 74.447568 
L 48.820427 37.220567 
L 50.687728 39.622309 
L 52.55503 41.423616 
L 54.422332 35.419261 
L 56.289633 37.821003 
L 58.156935 38.421438 
L 61.891538 37.220567 
L 63.75884 37.821003 
L 65.626142 39.021874 
L 67.493444 39.021874 
L 69.360745 35.419261 
L 71.228047 38.421438 
L 73.095349 37.220567 
L 74.96265 37.821003 
L 76.829952 36.620132 
L 78.697254 33.617954 
L 80.564555 36.019696 
L 82.431857 37.821003 
L 84.299159 36.019696 
L 86.16646 39.021874 
L 88.033762 34.818825 
L 89.901064 32.417083 
L 91.768365 35.419261 
L 93.635667 40.222745 
L 95.502969 37.821003 
L 97.37027 39.021874 
L 99.237572 39.021874 
L 101.104874 38.421438 
L 102.972175 36.620132 
L 104.839477 37.220567 
L 106.706779 35.419261 
L 108.574081 34.21839 
L 110.441382 36.019696 
L 112.308684 36.620132 
L 114.175986 38.421438 
L 116.043287 35.419261 
L 117.910589 39.021874 
L 119.777891 36.019696 
L 123.512494 34.818825 
L 125.379796 40.222745 
L 127.247097 37.220567 
L 129.114399 36.620132 
L 130.981701 33.617954 
L 132.849002 40.222745 
L 134.716304 39.622309 
L 136.583606 33.017519 
L 138.450907 33.617954 
L 140.318209 39.622309 
L 142.185511 37.821003 
L 144.052813 34.818825 
L 145.920114 33.017519 
L 147.787416 39.021874 
L 149.654718 39.021874 
L 151.522019 34.818825 
L 153.389321 36.620132 
L 157.123924 39.021874 
L 158.991226 33.617954 
L 162.725829 32.417083 
L 164.593131 36.620132 
L 166.460433 36.620132 
L 168.327734 40.222745 
L 170.195036 36.620132 
L 172.062338 35.419261 
L 173.929639 36.019696 
L 175.796941 43.558497 
L 177.664243 39.021874 
L 179.531544 34.818825 
L 181.398846 36.019696 
L 183.266148 41.423616 
L 185.13345 39.622309 
L 187.000751 37.220567 
L 188.868053 35.419261 
L 190.735355 34.818825 
L 192.602656 34.818825 
L 194.469958 40.82318 
L 196.33726 41.423616 
L 198.204561 40.222745 
L 200.071863 39.622309 
L 201.939165 36.019696 
L 203.806466 36.620132 
L 205.673768 39.622309 
L 207.54107 38.421438 
L 209.408371 39.021874 
L 211.275673 40.82318 
L 213.142975 38.421438 
L 215.010276 39.021874 
L 216.877578 39.021874 
L 218.74488 38.421438 
L 222.479483 36.019696 
L 224.346785 37.821003 
L 226.214087 37.821003 
L 228.081388 38.421438 
L 229.94869 37.821003 
L 231.815992 42.024051 
L 233.683293 41.423616 
L 235.550595 39.622309 
L 237.417897 39.555594 
L 241.1525 38.421438 
L 243.019802 40.222745 
L 244.887103 40.222745 
L 246.754405 39.021874 
L 248.621707 39.622309 
L 250.489008 37.220567 
L 254.223612 40.82318 
L 256.090913 37.821003 
L 257.958215 39.021874 
L 259.825517 37.821003 
L 261.692819 38.421438 
L 263.56012 42.024051 
L 265.427422 40.82318 
L 267.294724 42.024051 
L 269.162025 42.624487 
L 271.029327 39.021874 
L 272.896629 39.021874 
L 274.76393 38.421438 
L 276.631232 42.624487 
L 278.498534 37.220567 
L 280.365835 39.021874 
L 282.233137 38.421438 
L 285.96774 39.622309 
L 287.835042 36.620132 
L 289.702344 36.019696 
L 291.569645 41.423616 
L 293.436947 39.622309 
L 295.304249 40.222745 
L 297.17155 37.821003 
L 299.038852 38.421438 
L 300.906154 36.620132 
L 302.773456 38.888444 
L 304.640757 39.021874 
L 306.508059 40.222745 
L 308.375361 42.024051 
L 310.242662 39.622309 
L 312.109964 40.82318 
L 313.977266 37.821003 
L 315.844567 39.021874 
L 317.711869 40.82318 
L 319.579171 43.224922 
L 321.446472 39.021874 
L 323.313774 38.421438 
L 325.181076 37.220567 
L 327.048377 37.821003 
L 328.915679 39.622309 
L 330.782981 39.021874 
L 332.650282 37.220567 
L 334.517584 38.421438 
L 336.384886 37.821003 
L 338.252188 39.622309 
L 340.119489 39.021874 
L 341.986791 39.622309 
L 343.854093 40.82318 
L 345.721394 40.82318 
L 347.588696 41.423616 
L 349.455998 43.224922 
L 351.323299 40.222745 
L 353.190601 36.019696 
L 355.057903 37.821003 
L 356.925204 40.222745 
L 358.792506 39.622309 
L 360.659808 39.622309 
L 362.527109 39.021874 
L 364.394411 37.554142 
L 366.261713 37.821003 
L 368.129014 39.021874 
L 369.996316 45.026229 
L 371.863618 39.622309 
L 373.730919 35.419261 
L 375.598221 39.622309 
L 377.465523 44.425793 
L 379.332825 40.222745 
L 381.200126 38.421438 
L 383.067428 37.821003 
L 384.93473 43.825358 
L 386.802031 41.423616 
L 388.669333 36.019696 
L 390.536635 37.821003 
L 392.403936 43.825358 
L 394.271238 41.423616 
L 396.13854 37.821003 
L 398.005841 37.220567 
L 399.873143 42.024051 
L 401.740445 45.026229 
L 403.607746 40.82318 
L 405.475048 42.624487 
L 407.34235 42.624487 
L 409.209651 44.425793 
L 411.076953 37.821003 
L 412.944255 40.82318 
L 414.811556 42.024051 
L 416.678858 41.423616 
L 418.54616 42.024051 
L 420.413462 45.026229 
L 422.280763 40.82318 
L 424.148065 43.224922 
L 426.015367 39.622309 
L 429.74997 39.555594 
L 431.617272 43.825358 
L 433.484573 45.369335 
L 433.484573 45.369335 
" clip-path="url(#p83bae6e4b7)" style="fill: none; stroke: #1f77b4; stroke-width: 2; stroke-linecap: round"/>
   </g>
   <g id="line2d_18">
    <path d="M 46.953125 94.862374 
L 48.820427 41.423616 
L 50.687728 46.827535 
L 52.55503 45.026229 
L 54.422332 44.425793 
L 56.289633 44.425793 
L 58.156935 43.224922 
L 60.024237 40.82318 
L 61.891538 40.82318 
L 63.75884 43.224922 
L 65.626142 43.825358 
L 67.493444 43.224922 
L 69.360745 42.024051 
L 71.228047 40.222745 
L 73.095349 40.222745 
L 74.96265 42.624487 
L 76.829952 39.622309 
L 78.697254 43.825358 
L 80.564555 42.624487 
L 82.431857 38.421438 
L 84.299159 39.622309 
L 86.16646 39.021874 
L 88.033762 39.021874 
L 89.901064 45.026229 
L 91.768365 38.421438 
L 95.502969 39.622309 
L 97.37027 40.82318 
L 99.237572 38.421438 
L 102.972175 37.220567 
L 104.839477 39.555594 
L 106.706779 37.821003 
L 108.574081 38.421438 
L 110.441382 38.421438 
L 112.308684 37.821003 
L 114.175986 39.021874 
L 116.043287 38.421438 
L 117.910589 38.421438 
L 119.777891 43.224922 
L 121.645192 39.622309 
L 123.512494 40.82318 
L 125.379796 37.821003 
L 127.247097 39.021874 
L 129.114399 39.622309 
L 130.981701 37.821003 
L 132.849002 34.21839 
L 134.716304 39.622309 
L 136.583606 37.220567 
L 138.450907 39.021874 
L 140.318209 42.024051 
L 142.185511 39.021874 
L 144.052813 40.82318 
L 145.920114 38.421438 
L 147.787416 38.421438 
L 149.654718 39.021874 
L 151.522019 42.624487 
L 155.256623 40.222745 
L 158.991226 40.222745 
L 160.858528 38.421438 
L 162.725829 40.222745 
L 164.593131 36.886992 
L 166.460433 39.622309 
L 168.327734 40.222745 
L 172.062338 39.021874 
L 173.929639 40.222745 
L 175.796941 39.622309 
L 177.664243 37.821003 
L 179.531544 39.622309 
L 181.398846 42.024051 
L 183.266148 39.021874 
L 185.13345 39.622309 
L 187.000751 39.021874 
L 188.868053 37.821003 
L 190.735355 39.622309 
L 192.602656 39.021874 
L 194.469958 40.222745 
L 196.33726 39.021874 
L 198.204561 40.82318 
L 200.071863 40.222745 
L 201.939165 34.21839 
L 203.806466 40.222745 
L 205.673768 37.220567 
L 207.54107 39.622309 
L 209.408371 40.82318 
L 211.275673 39.622309 
L 213.142975 40.222745 
L 215.010276 37.821003 
L 216.877578 38.421438 
L 218.74488 39.622309 
L 220.612181 39.021874 
L 222.479483 39.622309 
L 224.346785 39.021874 
L 226.214087 39.622309 
L 228.081388 38.421438 
L 229.94869 37.554142 
L 231.815992 40.222745 
L 233.683293 40.82318 
L 235.550595 38.421438 
L 237.417897 37.220567 
L 239.285198 37.220567 
L 241.1525 39.021874 
L 243.019802 38.421438 
L 244.887103 38.421438 
L 246.754405 39.021874 
L 250.489008 39.021874 
L 252.35631 35.419261 
L 254.223612 34.818825 
L 256.090913 40.82318 
L 257.958215 36.620132 
L 259.825517 36.019696 
L 261.692819 39.021874 
L 263.56012 39.021874 
L 267.294724 37.821003 
L 269.162025 40.222745 
L 271.029327 39.021874 
L 272.896629 38.421438 
L 274.76393 38.421438 
L 276.631232 37.220567 
L 278.498534 36.620132 
L 280.365835 35.419261 
L 282.233137 33.617954 
L 284.100439 33.017519 
L 287.835042 42.891347 
L 289.702344 38.421438 
L 291.569645 31.816648 
L 293.436947 36.620132 
L 295.304249 37.220567 
L 297.17155 35.419261 
L 299.038852 35.419261 
L 300.906154 40.222745 
L 302.773456 39.622309 
L 304.640757 36.019696 
L 306.508059 37.220567 
L 308.375361 39.622309 
L 310.242662 38.421438 
L 312.109964 34.818825 
L 313.977266 36.019696 
L 317.711869 37.220567 
L 319.579171 36.620132 
L 321.446472 37.220567 
L 323.313774 38.421438 
L 327.048377 36.019696 
L 328.915679 33.617954 
L 330.782981 36.019696 
L 332.650282 37.220567 
L 334.517584 39.021874 
L 336.384886 37.220567 
L 338.252188 33.617954 
L 340.119489 33.617954 
L 341.986791 35.419261 
L 343.854093 34.21839 
L 345.721394 34.88554 
L 347.588696 34.818825 
L 349.455998 37.821003 
L 351.323299 39.021874 
L 353.190601 36.620132 
L 355.057903 37.821003 
L 356.925204 35.419261 
L 358.792506 35.419261 
L 360.659808 40.222745 
L 362.527109 36.019696 
L 364.394411 39.622309 
L 366.261713 36.019696 
L 368.129014 39.021874 
L 369.996316 38.421438 
L 371.863618 36.620132 
L 373.730919 36.019696 
L 375.598221 38.421438 
L 377.465523 36.620132 
L 379.332825 37.220567 
L 381.200126 37.220567 
L 383.067428 37.821003 
L 384.93473 37.220567 
L 386.802031 38.421438 
L 388.669333 39.021874 
L 390.536635 37.220567 
L 392.403936 36.620132 
L 394.271238 89.25831 
L 394.271238 89.25831 
" clip-path="url(#p83bae6e4b7)" style="fill: none; stroke: #ff7f0e; stroke-width: 2; stroke-linecap: round"/>
   </g>
   <g id="patch_3">
    <path d="M 46.953125 242.389375 
L 46.953125 21.789375 
" style="fill: none; stroke: #cccccc; stroke-width: 0.8; stroke-linejoin: miter; stroke-linecap: square"/>
   </g>
   <g id="patch_4">
    <path d="M 435.351875 242.389375 
L 435.351875 21.789375 
" style="fill: none; stroke: #cccccc; stroke-width: 0.8; stroke-linejoin: miter; stroke-linecap: square"/>
   </g>
   <g id="patch_5">
    <path d="M 46.953125 242.389375 
L 435.351875 242.389375 
" style="fill: none; stroke: #cccccc; stroke-width: 0.8; stroke-linejoin: miter; stroke-linecap: square"/>
   </g>
   <g id="patch_6">
    <path d="M 46.953125 21.789375 
L 435.351875 21.789375 
" style="fill: none; stroke: #cccccc; stroke-width: 0.8; stroke-linejoin: miter; stroke-linecap: square"/>
   </g>
   <g id="text_19">
    <!-- APX1130 — PC1 all cores -->
    <g style="fill: #262626" transform="translate(171.229062 15.789375) scale(0.12 -0.12)">
     <defs>
      <path id="ArialMT-41" d="M -9 0 
L 1750 4581 
L 2403 4581 
L 4278 0 
L 3588 0 
L 3053 1388 
L 1138 1388 
L 634 0 
L -9 0 
z
M 1313 1881 
L 2866 1881 
L 2388 3150 
Q 2169 3728 2063 4100 
Q 1975 3659 1816 3225 
L 1313 1881 
z
" transform="scale(0.015625)"/>
      <path id="ArialMT-50" d="M 494 0 
L 494 4581 
L 2222 4581 
Q 2678 4581 2919 4538 
Q 3256 4481 3484 4323 
Q 3713 4166 3852 3881 
Q 3991 3597 3991 3256 
Q 3991 2672 3619 2267 
Q 3247 1863 2275 1863 
L 1100 1863 
L 1100 0 
L 494 0 
z
M 1100 2403 
L 2284 2403 
Q 2872 2403 3119 2622 
Q 3366 2841 3366 3238 
Q 3366 3525 3220 3729 
Q 3075 3934 2838 4000 
Q 2684 4041 2272 4041 
L 1100 4041 
L 1100 2403 
z
" transform="scale(0.015625)"/>
      <path id="ArialMT-58" d="M 28 0 
L 1800 2388 
L 238 4581 
L 959 4581 
L 1791 3406 
Q 2050 3041 2159 2844 
Q 2313 3094 2522 3366 
L 3444 4581 
L 4103 4581 
L 2494 2422 
L 4228 0 
L 3478 0 
L 2325 1634 
Q 2228 1775 2125 1941 
Q 1972 1691 1906 1597 
L 756 0 
L 28 0 
z
" transform="scale(0.015625)"/>
      <path id="ArialMT-33" d="M 269 1209 
L 831 1284 
Q 928 806 1161 595 
Q 1394 384 1728 384 
Q 2125 384 2398 659 
Q 2672 934 2672 1341 
Q 2672 1728 2419 1979 
Q 2166 2231 1775 2231 
Q 1616 2231 1378 2169 
L 1441 2663 
Q 1497 2656 1531 2656 
Q 1891 2656 2178 2843 
Q 2466 3031 2466 3422 
Q 2466 3731 2256 3934 
Q 2047 4138 1716 4138 
Q 1388 4138 1169 3931 
Q 950 3725 888 3313 
L 325 3413 
Q 428 3978 793 4289 
Q 1159 4600 1703 4600 
Q 2078 4600 2393 4439 
Q 2709 4278 2876 4000 
Q 3044 3722 3044 3409 
Q 3044 3113 2884 2869 
Q 2725 2625 2413 2481 
Q 2819 2388 3044 2092 
Q 3269 1797 3269 1353 
Q 3269 753 2831 336 
Q 2394 -81 1725 -81 
Q 1122 -81 723 278 
Q 325 638 269 1209 
z
" transform="scale(0.015625)"/>
      <path id="ArialMT-2014" d="M 0 1431 
L 0 1884 
L 6400 1884 
L 6400 1431 
L 0 1431 
z
" transform="scale(0.015625)"/>
      <path id="ArialMT-43" d="M 3763 1606 
L 4369 1453 
Q 4178 706 3683 314 
Q 3188 -78 2472 -78 
Q 1731 -78 1267 223 
Q 803 525 561 1097 
Q 319 1669 319 2325 
Q 319 3041 592 3573 
Q 866 4106 1370 4382 
Q 1875 4659 2481 4659 
Q 3169 4659 3637 4309 
Q 4106 3959 4291 3325 
L 3694 3184 
Q 3534 3684 3231 3912 
Q 2928 4141 2469 4141 
Q 1941 4141 1586 3887 
Q 1231 3634 1087 3207 
Q 944 2781 944 2328 
Q 944 1744 1114 1308 
Q 1284 872 1643 656 
Q 2003 441 2422 441 
Q 2931 441 3284 734 
Q 3638 1028 3763 1606 
z
" transform="scale(0.015625)"/>
      <path id="ArialMT-6f" d="M 213 1659 
Q 213 2581 725 3025 
Q 1153 3394 1769 3394 
Q 2453 3394 2887 2945 
Q 3322 2497 3322 1706 
Q 3322 1066 3130 698 
Q 2938 331 2570 128 
Q 2203 -75 1769 -75 
Q 1072 -75 642 372 
Q 213 819 213 1659 
z
M 791 1659 
Q 791 1022 1069 705 
Q 1347 388 1769 388 
Q 2188 388 2466 706 
Q 2744 1025 2744 1678 
Q 2744 2294 2464 2611 
Q 2184 2928 1769 2928 
Q 1347 2928 1069 2612 
Q 791 2297 791 1659 
z
" transform="scale(0.015625)"/>
     </defs>
     <use xlink:href="#ArialMT-41"/>
     <use xlink:href="#ArialMT-50" transform="translate(66.699219 0)"/>
     <use xlink:href="#ArialMT-58" transform="translate(133.398438 0)"/>
     <use xlink:href="#ArialMT-31" transform="translate(200.097656 0)"/>
     <use xlink:href="#ArialMT-31" transform="translate(248.337891 0)"/>
     <use xlink:href="#ArialMT-33" transform="translate(303.953125 0)"/>
     <use xlink:href="#ArialMT-30" transform="translate(359.568359 0)"/>
     <use xlink:href="#ArialMT-20" transform="translate(415.183594 0)"/>
     <use xlink:href="#ArialMT-2014" transform="translate(442.966797 0)"/>
     <use xlink:href="#ArialMT-20" transform="translate(542.966797 0)"/>
     <use xlink:href="#ArialMT-50" transform="translate(570.75 0)"/>
     <use xlink:href="#ArialMT-43" transform="translate(637.449219 0)"/>
     <use xlink:href="#ArialMT-31" transform="translate(709.666016 0)"/>
     <use xlink:href="#ArialMT-20" transform="translate(765.28125 0)"/>
     <use xlink:href="#ArialMT-61" transform="translate(793.064453 0)"/>
     <use xlink:href="#ArialMT-6c" transform="translate(848.679688 0)"/>
     <use xlink:href="#ArialMT-6c" transform="translate(870.896484 0)"/>
     <use xlink:href="#ArialMT-20" transform="translate(893.113281 0)"/>
     <use xlink:href="#ArialMT-63" transform="translate(920.896484 0)"/>
     <use xlink:href="#ArialMT-6f" transform="translate(970.896484 0)"/>
     <use xlink:href="#ArialMT-72" transform="translate(1026.511719 0)"/>
     <use xlink:href="#ArialMT-65" transform="translate(1059.8125 0)"/>
     <use xlink:href="#ArialMT-73" transform="translate(1115.427734 0)"/>
    </g>
   </g>
   <g id="legend_1">
    <g id="patch_7">
     <path d="M 53.953125 237.389375 
L 117.635938 237.389375 
Q 119.635938 237.389375 119.635938 235.389375 
L 119.635938 207.864375 
Q 119.635938 205.864375 117.635938 205.864375 
L 53.953125 205.864375 
Q 51.953125 205.864375 51.953125 207.864375 
L 51.953125 235.389375 
Q 51.953125 237.389375 53.953125 237.389375 
z
" style="fill: #ffffff; opacity: 0.8; stroke: #cccccc; stroke-linejoin: miter"/>
    </g>
    <g id="line2d_19">
     <path d="M 55.953125 213.522188 
L 65.953125 213.522188 
L 75.953125 213.522188 
" style="fill: none; stroke: #1f77b4; stroke-width: 2; stroke-linecap: round"/>
    </g>
    <g id="text_20">
     <!-- queryA -->
     <g style="fill: #262626" transform="translate(83.953125 217.022188) scale(0.1 -0.1)">
      <defs>
       <path id="ArialMT-71" d="M 2538 -1272 
L 2538 353 
Q 2406 169 2170 47 
Q 1934 -75 1669 -75 
Q 1078 -75 651 397 
Q 225 869 225 1691 
Q 225 2191 398 2587 
Q 572 2984 901 3189 
Q 1231 3394 1625 3394 
Q 2241 3394 2594 2875 
L 2594 3319 
L 3100 3319 
L 3100 -1272 
L 2538 -1272 
z
M 803 1669 
Q 803 1028 1072 708 
Q 1341 388 1716 388 
Q 2075 388 2334 692 
Q 2594 997 2594 1619 
Q 2594 2281 2320 2615 
Q 2047 2950 1678 2950 
Q 1313 2950 1058 2639 
Q 803 2328 803 1669 
z
" transform="scale(0.015625)"/>
       <path id="ArialMT-75" d="M 2597 0 
L 2597 488 
Q 2209 -75 1544 -75 
Q 1250 -75 995 37 
Q 741 150 617 320 
Q 494 491 444 738 
Q 409 903 409 1263 
L 409 3319 
L 972 3319 
L 972 1478 
Q 972 1038 1006 884 
Q 1059 663 1231 536 
Q 1403 409 1656 409 
Q 1909 409 2131 539 
Q 2353 669 2445 892 
Q 2538 1116 2538 1541 
L 2538 3319 
L 3100 3319 
L 3100 0 
L 2597 0 
z
" transform="scale(0.015625)"/>
       <path id="ArialMT-79" d="M 397 -1278 
L 334 -750 
Q 519 -800 656 -800 
Q 844 -800 956 -737 
Q 1069 -675 1141 -563 
Q 1194 -478 1313 -144 
Q 1328 -97 1363 -6 
L 103 3319 
L 709 3319 
L 1400 1397 
Q 1534 1031 1641 628 
Q 1738 1016 1872 1384 
L 2581 3319 
L 3144 3319 
L 1881 -56 
Q 1678 -603 1566 -809 
Q 1416 -1088 1222 -1217 
Q 1028 -1347 759 -1347 
Q 597 -1347 397 -1278 
z
" transform="scale(0.015625)"/>
      </defs>
      <use xlink:href="#ArialMT-71"/>
      <use xlink:href="#ArialMT-75" transform="translate(55.615234 0)"/>
      <use xlink:href="#ArialMT-65" transform="translate(111.230469 0)"/>
      <use xlink:href="#ArialMT-72" transform="translate(166.845703 0)"/>
      <use xlink:href="#ArialMT-79" transform="translate(200.146484 0)"/>
      <use xlink:href="#ArialMT-41" transform="translate(250.146484 0)"/>
     </g>
    </g>
    <g id="line2d_20">
     <path d="M 55.953125 227.784688 
L 65.953125 227.784688 
L 75.953125 227.784688 
" style="fill: none; stroke: #ff7f0e; stroke-width: 2; stroke-linecap: round"/>
    </g>
    <g id="text_21">
     <!-- queryB -->
     <g style="fill: #262626" transform="translate(83.953125 231.284688) scale(0.1 -0.1)">
      <use xlink:href="#ArialMT-71"/>
      <use xlink:href="#ArialMT-75" transform="translate(55.615234 0)"/>
      <use xlink:href="#ArialMT-65" transform="translate(111.230469 0)"/>
      <use xlink:href="#ArialMT-72" transform="translate(166.845703 0)"/>
      <use xlink:href="#ArialMT-79" transform="translate(200.146484 0)"/>
      <use xlink:href="#ArialMT-42" transform="translate(250.146484 0)"/>
     </g>
    </g>
   </g>
  </g>
  <g id="axes_2">
   <g id="patch_8">
    <path d="M 460.333125 242.389375 
L 848.731875 242.389375 
L 848.731875 21.789375 
L 460.333125 21.789375 
z
" style="fill: #ffffff"/>
   </g>
   <g id="matplotlib.axis_3">
    <g id="xtick_10">
     <g id="line2d_21">
      <path d="M 460.333125 242.389375 
L 460.333125 21.789375 
" clip-path="url(#p571ed99262)" style="fill: none; stroke: #cccccc; stroke-opacity: 0.3; stroke-width: 0.8; stroke-linecap: round"/>
     </g>
     <g id="text_22">
      <!-- 0 -->
      <g style="fill: #262626" transform="translate(457.552656 256.547188) scale(0.1 -0.1)">
       <use xlink:href="#ArialMT-30"/>
      </g>
     </g>
    </g>
    <g id="xtick_11">
     <g id="line2d_22">
      <path d="M 507.015667 242.389375 
L 507.015667 21.789375 
" clip-path="url(#p571ed99262)" style="fill: none; stroke: #cccccc; stroke-opacity: 0.3; stroke-width: 0.8; stroke-linecap: round"/>
     </g>
     <g id="text_23">
      <!-- 25 -->
      <g style="fill: #262626" transform="translate(501.45473 256.547188) scale(0.1 -0.1)">
       <use xlink:href="#ArialMT-32"/>
       <use xlink:href="#ArialMT-35" transform="translate(55.615234 0)"/>
      </g>
     </g>
    </g>
    <g id="xtick_12">
     <g id="line2d_23">
      <path d="M 553.698209 242.389375 
L 553.698209 21.789375 
" clip-path="url(#p571ed99262)" style="fill: none; stroke: #cccccc; stroke-opacity: 0.3; stroke-width: 0.8; stroke-linecap: round"/>
     </g>
     <g id="text_24">
      <!-- 50 -->
      <g style="fill: #262626" transform="translate(548.137272 256.547188) scale(0.1 -0.1)">
       <use xlink:href="#ArialMT-35"/>
       <use xlink:href="#ArialMT-30" transform="translate(55.615234 0)"/>
      </g>
     </g>
    </g>
    <g id="xtick_13">
     <g id="line2d_24">
      <path d="M 600.380751 242.389375 
L 600.380751 21.789375 
" clip-path="url(#p571ed99262)" style="fill: none; stroke: #cccccc; stroke-opacity: 0.3; stroke-width: 0.8; stroke-linecap: round"/>
     </g>
     <g id="text_25">
      <!-- 75 -->
      <g style="fill: #262626" transform="translate(594.819814 256.547188) scale(0.1 -0.1)">
       <use xlink:href="#ArialMT-37"/>
       <use xlink:href="#ArialMT-35" transform="translate(55.615234 0)"/>
      </g>
     </g>
    </g>
    <g id="xtick_14">
     <g id="line2d_25">
      <path d="M 647.063293 242.389375 
L 647.063293 21.789375 
" clip-path="url(#p571ed99262)" style="fill: none; stroke: #cccccc; stroke-opacity: 0.3; stroke-width: 0.8; stroke-linecap: round"/>
     </g>
     <g id="text_26">
      <!-- 100 -->
      <g style="fill: #262626" transform="translate(638.721887 256.547188) scale(0.1 -0.1)">
       <use xlink:href="#ArialMT-31"/>
       <use xlink:href="#ArialMT-30" transform="translate(55.615234 0)"/>
       <use xlink:href="#ArialMT-30" transform="translate(111.230469 0)"/>
      </g>
     </g>
    </g>
    <g id="xtick_15">
     <g id="line2d_26">
      <path d="M 693.745835 242.389375 
L 693.745835 21.789375 
" clip-path="url(#p571ed99262)" style="fill: none; stroke: #cccccc; stroke-opacity: 0.3; stroke-width: 0.8; stroke-linecap: round"/>
     </g>
     <g id="text_27">
      <!-- 125 -->
      <g style="fill: #262626" transform="translate(685.404429 256.547188) scale(0.1 -0.1)">
       <use xlink:href="#ArialMT-31"/>
       <use xlink:href="#ArialMT-32" transform="translate(55.615234 0)"/>
       <use xlink:href="#ArialMT-35" transform="translate(111.230469 0)"/>
      </g>
     </g>
    </g>
    <g id="xtick_16">
     <g id="line2d_27">
      <path d="M 740.428377 242.389375 
L 740.428377 21.789375 
" clip-path="url(#p571ed99262)" style="fill: none; stroke: #cccccc; stroke-opacity: 0.3; stroke-width: 0.8; stroke-linecap: round"/>
     </g>
     <g id="text_28">
      <!-- 150 -->
      <g style="fill: #262626" transform="translate(732.086971 256.547188) scale(0.1 -0.1)">
       <use xlink:href="#ArialMT-31"/>
       <use xlink:href="#ArialMT-35" transform="translate(55.615234 0)"/>
       <use xlink:href="#ArialMT-30" transform="translate(111.230469 0)"/>
      </g>
     </g>
    </g>
    <g id="xtick_17">
     <g id="line2d_28">
      <path d="M 787.110919 242.389375 
L 787.110919 21.789375 
" clip-path="url(#p571ed99262)" style="fill: none; stroke: #cccccc; stroke-opacity: 0.3; stroke-width: 0.8; stroke-linecap: round"/>
     </g>
     <g id="text_29">
      <!-- 175 -->
      <g style="fill: #262626" transform="translate(778.769513 256.547188) scale(0.1 -0.1)">
       <use xlink:href="#ArialMT-31"/>
       <use xlink:href="#ArialMT-37" transform="translate(55.615234 0)"/>
       <use xlink:href="#ArialMT-35" transform="translate(111.230469 0)"/>
      </g>
     </g>
    </g>
    <g id="xtick_18">
     <g id="line2d_29">
      <path d="M 833.793462 242.389375 
L 833.793462 21.789375 
" clip-path="url(#p571ed99262)" style="fill: none; stroke: #cccccc; stroke-opacity: 0.3; stroke-width: 0.8; stroke-linecap: round"/>
     </g>
     <g id="text_30">
      <!-- 200 -->
      <g style="fill: #262626" transform="translate(825.452055 256.547188) scale(0.1 -0.1)">
       <use xlink:href="#ArialMT-32"/>
       <use xlink:href="#ArialMT-30" transform="translate(55.615234 0)"/>
       <use xlink:href="#ArialMT-30" transform="translate(111.230469 0)"/>
      </g>
     </g>
    </g>
    <g id="text_31">
     <!-- Elapsed Time (sec) -->
     <g style="fill: #262626" transform="translate(611.741094 269.814375) scale(0.1 -0.1)">
      <use xlink:href="#ArialMT-45"/>
      <use xlink:href="#ArialMT-6c" transform="translate(66.699219 0)"/>
      <use xlink:href="#ArialMT-61" transform="translate(88.916016 0)"/>
      <use xlink:href="#ArialMT-70" transform="translate(144.53125 0)"/>
      <use xlink:href="#ArialMT-73" transform="translate(200.146484 0)"/>
      <use xlink:href="#ArialMT-65" transform="translate(250.146484 0)"/>
      <use xlink:href="#ArialMT-64" transform="translate(305.761719 0)"/>
      <use xlink:href="#ArialMT-20" transform="translate(361.376953 0)"/>
      <use xlink:href="#ArialMT-54" transform="translate(387.410156 0)"/>
      <use xlink:href="#ArialMT-69" transform="translate(444.744141 0)"/>
      <use xlink:href="#ArialMT-6d" transform="translate(466.960938 0)"/>
      <use xlink:href="#ArialMT-65" transform="translate(550.261719 0)"/>
      <use xlink:href="#ArialMT-20" transform="translate(605.876953 0)"/>
      <use xlink:href="#ArialMT-28" transform="translate(633.660156 0)"/>
      <use xlink:href="#ArialMT-73" transform="translate(666.960938 0)"/>
      <use xlink:href="#ArialMT-65" transform="translate(716.960938 0)"/>
      <use xlink:href="#ArialMT-63" transform="translate(772.576172 0)"/>
      <use xlink:href="#ArialMT-29" transform="translate(822.576172 0)"/>
     </g>
    </g>
   </g>
   <g id="matplotlib.axis_4">
    <g id="ytick_8">
     <g id="line2d_30">
      <path d="M 460.333125 220.353392 
L 848.731875 220.353392 
" clip-path="url(#p571ed99262)" style="fill: none; stroke: #cccccc; stroke-opacity: 0.3; stroke-width: 0.8; stroke-linecap: round"/>
     </g>
    </g>
    <g id="ytick_9">
     <g id="line2d_31">
      <path d="M 460.333125 190.331618 
L 848.731875 190.331618 
" clip-path="url(#p571ed99262)" style="fill: none; stroke: #cccccc; stroke-opacity: 0.3; stroke-width: 0.8; stroke-linecap: round"/>
     </g>
    </g>
    <g id="ytick_10">
     <g id="line2d_32">
      <path d="M 460.333125 160.309843 
L 848.731875 160.309843 
" clip-path="url(#p571ed99262)" style="fill: none; stroke: #cccccc; stroke-opacity: 0.3; stroke-width: 0.8; stroke-linecap: round"/>
     </g>
    </g>
    <g id="ytick_11">
     <g id="line2d_33">
      <path d="M 460.333125 130.288069 
L 848.731875 130.288069 
" clip-path="url(#p571ed99262)" style="fill: none; stroke: #cccccc; stroke-opacity: 0.3; stroke-width: 0.8; stroke-linecap: round"/>
     </g>
    </g>
    <g id="ytick_12">
     <g id="line2d_34">
      <path d="M 460.333125 100.266294 
L 848.731875 100.266294 
" clip-path="url(#p571ed99262)" style="fill: none; stroke: #cccccc; stroke-opacity: 0.3; stroke-width: 0.8; stroke-linecap: round"/>
     </g>
    </g>
    <g id="ytick_13">
     <g id="line2d_35">
      <path d="M 460.333125 70.244519 
L 848.731875 70.244519 
" clip-path="url(#p571ed99262)" style="fill: none; stroke: #cccccc; stroke-opacity: 0.3; stroke-width: 0.8; stroke-linecap: round"/>
     </g>
    </g>
    <g id="ytick_14">
     <g id="line2d_36">
      <path d="M 460.333125 40.222745 
L 848.731875 40.222745 
" clip-path="url(#p571ed99262)" style="fill: none; stroke: #cccccc; stroke-opacity: 0.3; stroke-width: 0.8; stroke-linecap: round"/>
     </g>
    </g>
    <g id="text_32">
     <!-- Mean pkg_j per 1s Bin -->
     <g style="fill: #262626" transform="translate(454.228438 181.837031) rotate(-90) scale(0.1 -0.1)">
      <use xlink:href="#ArialMT-4d"/>
      <use xlink:href="#ArialMT-65" transform="translate(83.300781 0)"/>
      <use xlink:href="#ArialMT-61" transform="translate(138.916016 0)"/>
      <use xlink:href="#ArialMT-6e" transform="translate(194.53125 0)"/>
      <use xlink:href="#ArialMT-20" transform="translate(250.146484 0)"/>
      <use xlink:href="#ArialMT-70" transform="translate(277.929688 0)"/>
      <use xlink:href="#ArialMT-6b" transform="translate(333.544922 0)"/>
      <use xlink:href="#ArialMT-67" transform="translate(383.544922 0)"/>
      <use xlink:href="#ArialMT-5f" transform="translate(439.160156 0)"/>
      <use xlink:href="#ArialMT-6a" transform="translate(494.775391 0)"/>
      <use xlink:href="#ArialMT-20" transform="translate(516.992188 0)"/>
      <use xlink:href="#ArialMT-70" transform="translate(544.775391 0)"/>
      <use xlink:href="#ArialMT-65" transform="translate(600.390625 0)"/>
      <use xlink:href="#ArialMT-72" transform="translate(656.005859 0)"/>
      <use xlink:href="#ArialMT-20" transform="translate(689.306641 0)"/>
      <use xlink:href="#ArialMT-31" transform="translate(717.089844 0)"/>
      <use xlink:href="#ArialMT-73" transform="translate(772.705078 0)"/>
      <use xlink:href="#ArialMT-20" transform="translate(822.705078 0)"/>
      <use xlink:href="#ArialMT-42" transform="translate(850.488281 0)"/>
      <use xlink:href="#ArialMT-69" transform="translate(917.1875 0)"/>
      <use xlink:href="#ArialMT-6e" transform="translate(939.404297 0)"/>
     </g>
    </g>
   </g>
   <g id="line2d_37">
    <path d="M 460.333125 90.659326 
L 462.200427 83.4541 
L 464.067728 79.251052 
L 465.93503 80.451923 
L 467.802332 79.251052 
L 469.669633 80.451923 
L 471.536935 81.052358 
L 475.271538 81.052358 
L 477.13884 80.451923 
L 479.006142 79.251052 
L 482.740745 74.447568 
L 484.608047 78.050181 
L 486.475349 75.048003 
L 488.34265 75.648439 
L 490.209952 74.447568 
L 492.077254 75.048003 
L 493.944555 77.449745 
L 495.811857 75.648439 
L 497.679159 76.248874 
L 499.54646 75.048003 
L 501.413762 75.581724 
L 503.281064 72.045826 
L 505.148365 76.248874 
L 507.015667 72.045826 
L 508.882969 73.246697 
L 510.75027 75.648439 
L 512.617572 75.048003 
L 514.484874 73.847132 
L 518.219477 72.646261 
L 520.086779 73.847132 
L 521.954081 70.844955 
L 523.821382 75.048003 
L 525.688684 75.648439 
L 527.555986 73.847132 
L 529.423287 76.248874 
L 531.290589 75.048003 
L 533.157891 75.648439 
L 536.892494 73.246697 
L 538.759796 74.447568 
L 540.627097 73.246697 
L 542.494399 75.048003 
L 544.361701 74.247423 
L 546.229002 73.246697 
L 548.096304 75.648439 
L 549.963606 75.648439 
L 551.830907 74.447568 
L 553.698209 73.847132 
L 555.565511 69.043648 
L 557.432813 69.644084 
L 559.300114 69.043648 
L 561.167416 67.242342 
L 563.034718 69.043648 
L 564.902019 66.641906 
L 566.769321 70.244519 
L 570.503924 73.847132 
L 572.371226 74.447568 
L 574.238528 73.847132 
L 576.105829 76.248874 
L 577.973131 74.447568 
L 579.840433 74.447568 
L 581.707734 73.246697 
L 583.575036 70.844955 
L 585.442338 72.045826 
L 587.309639 73.580272 
L 589.176941 72.646261 
L 591.044243 72.646261 
L 592.911544 70.244519 
L 594.778846 72.045826 
L 596.646148 73.246697 
L 598.51345 73.246697 
L 600.380751 72.646261 
L 602.248053 70.844955 
L 604.115355 72.045826 
L 605.982656 72.045826 
L 607.849958 72.646261 
L 609.71726 71.44539 
L 611.584561 69.644084 
L 613.451863 71.44539 
L 615.319165 70.844955 
L 617.186466 71.44539 
L 619.053768 73.246697 
L 620.92107 71.44539 
L 622.788371 74.447568 
L 624.655673 71.44539 
L 626.522975 72.045826 
L 628.390276 71.44539 
L 630.257578 75.048003 
L 632.12488 73.580272 
L 633.992181 70.844955 
L 635.859483 75.048003 
L 639.594087 75.048003 
L 641.461388 73.847132 
L 643.32869 73.847132 
L 645.195992 75.048003 
L 647.063293 75.048003 
L 648.930595 73.847132 
L 650.797897 69.644084 
L 652.665198 73.246697 
L 654.5325 73.847132 
L 658.267103 72.646261 
L 660.134405 73.847132 
L 662.001707 73.246697 
L 663.869008 74.447568 
L 665.73631 75.048003 
L 669.470913 73.847132 
L 671.338215 72.045826 
L 673.205517 72.045826 
L 675.072819 73.847132 
L 676.94012 72.245971 
L 678.807422 73.246697 
L 680.674724 73.847132 
L 682.542025 73.246697 
L 684.409327 74.447568 
L 686.276629 72.646261 
L 688.14393 70.244519 
L 690.011232 72.646261 
L 691.878534 73.847132 
L 695.613137 73.847132 
L 697.480439 73.246697 
L 699.34774 72.045826 
L 701.215042 73.246697 
L 703.082344 73.246697 
L 704.949645 74.447568 
L 706.816947 73.246697 
L 710.55155 73.246697 
L 712.418852 72.045826 
L 714.286154 75.048003 
L 716.153456 72.045826 
L 718.020757 73.246697 
L 719.888059 72.646261 
L 721.755361 71.44539 
L 723.622662 68.910218 
L 725.489964 69.043648 
L 727.357266 64.8406 
L 729.224567 68.443213 
L 731.091869 68.443213 
L 732.959171 69.644084 
L 734.826472 69.644084 
L 736.693774 70.244519 
L 738.561076 73.246697 
L 740.428377 73.847132 
L 742.295679 73.246697 
L 744.162981 74.447568 
L 746.030282 71.44539 
L 747.897584 74.447568 
L 749.764886 74.447568 
L 751.632188 72.646261 
L 753.499489 73.246697 
L 755.366791 70.844955 
L 757.234093 73.246697 
L 759.101394 72.045826 
L 760.968696 69.644084 
L 762.835998 70.844955 
L 768.437903 69.043648 
L 770.305204 69.043648 
L 772.172506 72.045826 
L 774.039808 70.844955 
L 775.907109 70.244519 
L 777.774411 70.244519 
L 779.641713 71.44539 
L 781.509014 70.844955 
L 783.376316 71.44539 
L 787.110919 69.043648 
L 788.978221 71.44539 
L 790.845523 69.644084 
L 792.712825 71.44539 
L 794.580126 68.443213 
L 796.447428 72.646261 
L 798.31473 69.644084 
L 800.182031 70.244519 
L 802.049333 67.842777 
L 803.916635 69.644084 
L 805.783936 68.910218 
L 807.651238 69.043648 
L 809.51854 69.644084 
L 811.385841 71.44539 
L 813.253143 70.844955 
L 815.120445 69.644084 
L 816.987746 72.045826 
L 818.855048 69.644084 
L 820.72235 71.44539 
L 822.589651 66.041471 
L 824.456953 69.644084 
L 826.324255 68.443213 
L 828.191556 70.844955 
L 830.058858 72.045826 
L 831.92616 71.44539 
L 833.793462 70.244519 
L 835.660763 70.244519 
L 837.528065 74.447568 
L 839.395367 70.244519 
L 841.262668 70.244519 
L 843.12997 70.844955 
L 844.997272 68.243068 
L 846.864573 70.244519 
L 848.731875 98.765205 
L 848.731875 98.765205 
" clip-path="url(#p571ed99262)" style="fill: none; stroke: #1f77b4; stroke-width: 2; stroke-linecap: round"/>
   </g>
   <g id="line2d_38">
    <path d="M 460.333125 85.855842 
L 462.200427 78.650616 
L 464.067728 80.451923 
L 465.93503 76.84931 
L 467.802332 77.449745 
L 469.669633 75.648439 
L 471.536935 78.050181 
L 473.404237 75.048003 
L 475.271538 78.050181 
L 477.13884 78.050181 
L 480.873444 73.246697 
L 484.608047 74.447568 
L 488.34265 74.447568 
L 490.209952 75.048003 
L 492.077254 74.447568 
L 493.944555 75.048003 
L 495.811857 74.247423 
L 497.679159 74.447568 
L 499.54646 75.048003 
L 501.413762 75.048003 
L 503.281064 72.646261 
L 505.148365 74.447568 
L 508.882969 73.246697 
L 510.75027 74.447568 
L 512.617572 73.847132 
L 514.484874 71.44539 
L 516.352175 74.447568 
L 518.219477 73.246697 
L 520.086779 74.447568 
L 521.954081 73.246697 
L 523.821382 73.246697 
L 525.688684 72.045826 
L 527.555986 75.048003 
L 529.423287 72.646261 
L 531.290589 73.246697 
L 533.157891 71.44539 
L 535.025192 72.045826 
L 536.892494 70.244519 
L 538.759796 73.580272 
L 540.627097 71.44539 
L 542.494399 71.44539 
L 544.361701 69.043648 
L 546.229002 72.045826 
L 548.096304 69.644084 
L 549.963606 69.043648 
L 551.830907 70.844955 
L 553.698209 70.244519 
L 555.565511 70.244519 
L 557.432813 75.048003 
L 559.300114 70.844955 
L 561.167416 70.244519 
L 564.902019 71.44539 
L 566.769321 70.844955 
L 568.636623 70.844955 
L 570.503924 67.842777 
L 572.371226 67.242342 
L 574.238528 68.243068 
L 576.105829 66.641906 
L 577.973131 67.842777 
L 579.840433 68.443213 
L 581.707734 66.641906 
L 583.575036 68.443213 
L 587.309639 74.447568 
L 589.176941 73.847132 
L 591.044243 74.447568 
L 592.911544 69.644084 
L 594.778846 70.244519 
L 596.646148 69.644084 
L 600.380751 70.844955 
L 602.248053 72.045826 
L 604.115355 70.844955 
L 605.982656 72.646261 
L 607.849958 70.244519 
L 609.71726 69.043648 
L 611.584561 68.443213 
L 613.451863 70.844955 
L 615.319165 70.91167 
L 617.186466 73.246697 
L 619.053768 71.44539 
L 620.92107 72.646261 
L 622.788371 72.646261 
L 624.655673 70.844955 
L 626.522975 73.246697 
L 628.390276 72.045826 
L 630.257578 69.644084 
L 632.12488 70.844955 
L 633.992181 67.842777 
L 635.859483 69.043648 
L 637.726785 71.44539 
L 639.594087 69.644084 
L 641.461388 70.244519 
L 645.195992 67.842777 
L 647.063293 70.844955 
L 648.930595 69.644084 
L 650.797897 69.043648 
L 652.665198 67.242342 
L 654.5325 67.575917 
L 656.399802 67.242342 
L 658.267103 72.045826 
L 660.134405 69.043648 
L 662.001707 69.043648 
L 665.73631 67.842777 
L 669.470913 69.043648 
L 671.338215 69.043648 
L 673.205517 66.041471 
L 675.072819 69.043648 
L 676.94012 70.844955 
L 678.807422 69.043648 
L 680.674724 67.842777 
L 682.542025 64.8406 
L 684.409327 68.443213 
L 686.276629 67.842777 
L 688.14393 67.842777 
L 690.011232 69.043648 
L 691.878534 69.043648 
L 693.745835 68.443213 
L 695.613137 69.043648 
L 697.480439 68.910218 
L 699.34774 69.043648 
L 701.215042 66.641906 
L 703.082344 67.242342 
L 704.949645 68.443213 
L 706.816947 69.043648 
L 708.684249 69.043648 
L 710.55155 68.443213 
L 714.286154 69.644084 
L 716.153456 67.842777 
L 718.020757 68.443213 
L 719.888059 68.443213 
L 721.755361 66.641906 
L 725.489964 71.44539 
L 727.357266 69.644084 
L 729.224567 69.043648 
L 731.091869 69.043648 
L 732.959171 68.443213 
L 734.826472 69.577369 
L 736.693774 68.443213 
L 738.561076 69.043648 
L 740.428377 69.043648 
L 742.295679 72.045826 
L 744.162981 70.844955 
L 746.030282 65.441035 
L 747.897584 66.641906 
L 751.632188 64.240164 
L 753.499489 64.240164 
L 755.366791 65.441035 
L 757.234093 65.441035 
L 759.101394 63.639729 
L 760.968696 68.443213 
L 762.835998 69.644084 
L 764.703299 68.443213 
L 766.570601 72.045826 
L 768.437903 69.644084 
L 770.305204 70.844955 
L 772.172506 70.244519 
L 774.039808 70.244519 
L 775.907109 70.91167 
L 777.774411 72.045826 
L 779.641713 70.844955 
L 781.509014 68.443213 
L 783.376316 70.844955 
L 785.243618 69.043648 
L 787.110919 70.244519 
L 788.978221 69.644084 
L 790.845523 71.44539 
L 792.712825 68.443213 
L 794.580126 66.641906 
L 796.447428 69.043648 
L 798.31473 70.244519 
L 800.182031 68.443213 
L 802.049333 66.041471 
L 803.916635 69.644084 
L 805.783936 67.842777 
L 807.651238 69.043648 
L 809.51854 232.362102 
L 809.51854 232.362102 
" clip-path="url(#p571ed99262)" style="fill: none; stroke: #ff7f0e; stroke-width: 2; stroke-linecap: round"/>
   </g>
   <g id="patch_9">
    <path d="M 460.333125 242.389375 
L 460.333125 21.789375 
" style="fill: none; stroke: #cccccc; stroke-width: 0.8; stroke-linejoin: miter; stroke-linecap: square"/>
   </g>
   <g id="patch_10">
    <path d="M 848.731875 242.389375 
L 848.731875 21.789375 
" style="fill: none; stroke: #cccccc; stroke-width: 0.8; stroke-linejoin: miter; stroke-linecap: square"/>
   </g>
   <g id="patch_11">
    <path d="M 460.333125 242.389375 
L 848.731875 242.389375 
" style="fill: none; stroke: #cccccc; stroke-width: 0.8; stroke-linejoin: miter; stroke-linecap: square"/>
   </g>
   <g id="patch_12">
    <path d="M 460.333125 21.789375 
L 848.731875 21.789375 
" style="fill: none; stroke: #cccccc; stroke-width: 0.8; stroke-linejoin: miter; stroke-linecap: square"/>
   </g>
   <g id="text_33">
    <!-- APX1130 — PC1 1 core -->
    <g style="fill: #262626" transform="translate(590.275313 15.789375) scale(0.12 -0.12)">
     <use xlink:href="#ArialMT-41"/>
     <use xlink:href="#ArialMT-50" transform="translate(66.699219 0)"/>
     <use xlink:href="#ArialMT-58" transform="translate(133.398438 0)"/>
     <use xlink:href="#ArialMT-31" transform="translate(200.097656 0)"/>
     <use xlink:href="#ArialMT-31" transform="translate(248.337891 0)"/>
     <use xlink:href="#ArialMT-33" transform="translate(303.953125 0)"/>
     <use xlink:href="#ArialMT-30" transform="translate(359.568359 0)"/>
     <use xlink:href="#ArialMT-20" transform="translate(415.183594 0)"/>
     <use xlink:href="#ArialMT-2014" transform="translate(442.966797 0)"/>
     <use xlink:href="#ArialMT-20" transform="translate(542.966797 0)"/>
     <use xlink:href="#ArialMT-50" transform="translate(570.75 0)"/>
     <use xlink:href="#ArialMT-43" transform="translate(637.449219 0)"/>
     <use xlink:href="#ArialMT-31" transform="translate(709.666016 0)"/>
     <use xlink:href="#ArialMT-20" transform="translate(765.28125 0)"/>
     <use xlink:href="#ArialMT-31" transform="translate(793.064453 0)"/>
     <use xlink:href="#ArialMT-20" transform="translate(848.679688 0)"/>
     <use xlink:href="#ArialMT-63" transform="translate(876.462891 0)"/>
     <use xlink:href="#ArialMT-6f" transform="translate(926.462891 0)"/>
     <use xlink:href="#ArialMT-72" transform="translate(982.078125 0)"/>
     <use xlink:href="#ArialMT-65" transform="translate(1015.378906 0)"/>
    </g>
   </g>
   <g id="legend_2">
    <g id="patch_13">
     <path d="M 778.049062 58.314375 
L 841.731875 58.314375 
Q 843.731875 58.314375 843.731875 56.314375 
L 843.731875 28.789375 
Q 843.731875 26.789375 841.731875 26.789375 
L 778.049062 26.789375 
Q 776.049062 26.789375 776.049062 28.789375 
L 776.049062 56.314375 
Q 776.049062 58.314375 778.049062 58.314375 
z
" style="fill: #ffffff; opacity: 0.8; stroke: #cccccc; stroke-linejoin: miter"/>
    </g>
    <g id="line2d_39">
     <path d="M 780.049062 34.447188 
L 790.049062 34.447188 
L 800.049062 34.447188 
" style="fill: none; stroke: #1f77b4; stroke-width: 2; stroke-linecap: round"/>
    </g>
    <g id="text_34">
     <!-- queryA -->
     <g style="fill: #262626" transform="translate(808.049062 37.947188) scale(0.1 -0.1)">
      <use xlink:href="#ArialMT-71"/>
      <use xlink:href="#ArialMT-75" transform="translate(55.615234 0)"/>
      <use xlink:href="#ArialMT-65" transform="translate(111.230469 0)"/>
      <use xlink:href="#ArialMT-72" transform="translate(166.845703 0)"/>
      <use xlink:href="#ArialMT-79" transform="translate(200.146484 0)"/>
      <use xlink:href="#ArialMT-41" transform="translate(250.146484 0)"/>
     </g>
    </g>
    <g id="line2d_40">
     <path d="M 780.049062 48.709688 
L 790.049062 48.709688 
L 800.049062 48.709688 
" style="fill: none; stroke: #ff7f0e; stroke-width: 2; stroke-linecap: round"/>
    </g>
    <g id="text_35">
     <!-- queryB -->
     <g style="fill: #262626" transform="translate(808.049062 52.209688) scale(0.1 -0.1)">
      <use xlink:href="#ArialMT-71"/>
      <use xlink:href="#ArialMT-75" transform="translate(55.615234 0)"/>
      <use xlink:href="#ArialMT-65" transform="translate(111.230469 0)"/>
      <use xlink:href="#ArialMT-72" transform="translate(166.845703 0)"/>
      <use xlink:href="#ArialMT-79" transform="translate(200.146484 0)"/>
      <use xlink:href="#ArialMT-42" transform="translate(250.146484 0)"/>
     </g>
    </g>
   </g>
  </g>
 </g>
 <defs>
  <clipPath id="p83bae6e4b7">
   <rect x="46.953125" y="21.789375" width="388.39875" height="220.6"/>
  </clipPath>
  <clipPath id="p571ed99262">
   <rect x="460.333125" y="21.789375" width="388.39875" height="220.6"/>
  </clipPath>
 </defs>
</svg>
