<?xml version="1.0" encoding="utf-8" standalone="no"?>
<!DOCTYPE svg PUBLIC "-//W3C//DTD SVG 1.1//EN"
  "http://www.w3.org/Graphics/SVG/1.1/DTD/svg11.dtd">
<svg xmlns:xlink="http://www.w3.org/1999/xlink" width="855.860937pt" height="279.119063pt" viewBox="0 0 855.860937 279.119063" xmlns="http://www.w3.org/2000/svg" version="1.1">
 <metadata>
  <rdf:RDF xmlns:dc="http://purl.org/dc/elements/1.1/" xmlns:cc="http://creativecommons.org/ns#" xmlns:rdf="http://www.w3.org/1999/02/22-rdf-syntax-ns#">
   <cc:Work>
    <dc:type rdf:resource="http://purl.org/dc/dcmitype/StillImage"/>
    <dc:date>2026-05-26T16:50:29.324828</dc:date>
    <dc:format>image/svg+xml</dc:format>
    <dc:creator>
     <cc:Agent>
      <dc:title>Matplotlib v3.10.1, https://matplotlib.org/</dc:title>
     </cc:Agent>
    </dc:creator>
   </cc:Work>
  </rdf:RDF>
 </metadata>
 <defs>
  <style type="text/css">*{stroke-linejoin: round; stroke-linecap: butt}</style>
 </defs>
 <g id="figure_1">
  <g id="patch_1">
   <path d="M 0 279.119063 
L 855.860937 279.119063 
L 855.860937 0 
L 0 0 
z
" style="fill: #ffffff"/>
  </g>
  <g id="axes_1">
   <g id="patch_2">
    <path d="M 41.392188 242.389375 
L 432.535937 242.389375 
L 432.535937 21.789375 
L 41.392188 21.789375 
z
" style="fill: #ffffff"/>
   </g>
   <g id="matplotlib.axis_1">
    <g id="xtick_1">
     <g id="line2d_1">
      <path d="M 41.392188 242.389375 
L 41.392188 21.789375 
" clip-path="url(#p340d9400ee)" style="fill: none; stroke: #cccccc; stroke-opacity: 0.3; stroke-width: 0.8; stroke-linecap: round"/>
     </g>
     <g id="text_1">
      <!-- 0 -->
      <g style="fill: #262626" transform="translate(38.611719 256.547188) scale(0.1 -0.1)">
       <defs>
        <path id="ArialMT-30" d="M 266 2259 
Q 266 3072 433 3567 
Q 600 4063 929 4331 
Q 1259 4600 1759 4600 
Q 2128 4600 2406 4451 
Q 2684 4303 2865 4023 
Q 3047 3744 3150 3342 
Q 3253 2941 3253 2259 
Q 3253 1453 3087 958 
Q 2922 463 2592 192 
Q 2263 -78 1759 -78 
Q 1097 -78 719 397 
Q 266 969 266 2259 
z
M 844 2259 
Q 844 1131 1108 757 
Q 1372 384 1759 384 
Q 2147 384 2411 759 
Q 2675 1134 2675 2259 
Q 2675 3391 2411 3762 
Q 2147 4134 1753 4134 
Q 1366 4134 1134 3806 
Q 844 3388 844 2259 
z
" transform="scale(0.015625)"/>
       </defs>
       <use xlink:href="#ArialMT-30"/>
      </g>
     </g>
    </g>
    <g id="xtick_2">
     <g id="line2d_2">
      <path d="M 100.477346 242.389375 
L 100.477346 21.789375 
" clip-path="url(#p340d9400ee)" style="fill: none; stroke: #cccccc; stroke-opacity: 0.3; stroke-width: 0.8; stroke-linecap: round"/>
     </g>
     <g id="text_2">
      <!-- 50 -->
      <g style="fill: #262626" transform="translate(94.916409 256.547188) scale(0.1 -0.1)">
       <defs>
        <path id="ArialMT-35" d="M 266 1200 
L 856 1250 
Q 922 819 1161 601 
Q 1400 384 1738 384 
Q 2144 384 2425 690 
Q 2706 997 2706 1503 
Q 2706 1984 2436 2262 
Q 2166 2541 1728 2541 
Q 1456 2541 1237 2417 
Q 1019 2294 894 2097 
L 366 2166 
L 809 4519 
L 3088 4519 
L 3088 3981 
L 1259 3981 
L 1013 2750 
Q 1425 3038 1878 3038 
Q 2478 3038 2890 2622 
Q 3303 2206 3303 1553 
Q 3303 931 2941 478 
Q 2500 -78 1738 -78 
Q 1113 -78 717 272 
Q 322 622 266 1200 
z
" transform="scale(0.015625)"/>
       </defs>
       <use xlink:href="#ArialMT-35"/>
       <use xlink:href="#ArialMT-30" transform="translate(55.615234 0)"/>
      </g>
     </g>
    </g>
    <g id="xtick_3">
     <g id="line2d_3">
      <path d="M 159.562505 242.389375 
L 159.562505 21.789375 
" clip-path="url(#p340d9400ee)" style="fill: none; stroke: #cccccc; stroke-opacity: 0.3; stroke-width: 0.8; stroke-linecap: round"/>
     </g>
     <g id="text_3">
      <!-- 100 -->
      <g style="fill: #262626" transform="translate(151.221098 256.547188) scale(0.1 -0.1)">
       <defs>
        <path id="ArialMT-31" d="M 2384 0 
L 1822 0 
L 1822 3584 
Q 1619 3391 1289 3197 
Q 959 3003 697 2906 
L 697 3450 
Q 1169 3672 1522 3987 
Q 1875 4303 2022 4600 
L 2384 4600 
L 2384 0 
z
" transform="scale(0.015625)"/>
       </defs>
       <use xlink:href="#ArialMT-31"/>
       <use xlink:href="#ArialMT-30" transform="translate(55.615234 0)"/>
       <use xlink:href="#ArialMT-30" transform="translate(111.230469 0)"/>
      </g>
     </g>
    </g>
    <g id="xtick_4">
     <g id="line2d_4">
      <path d="M 218.647663 242.389375 
L 218.647663 21.789375 
" clip-path="url(#p340d9400ee)" style="fill: none; stroke: #cccccc; stroke-opacity: 0.3; stroke-width: 0.8; stroke-linecap: round"/>
     </g>
     <g id="text_4">
      <!-- 150 -->
      <g style="fill: #262626" transform="translate(210.306257 256.547188) scale(0.1 -0.1)">
       <use xlink:href="#ArialMT-31"/>
       <use xlink:href="#ArialMT-35" transform="translate(55.615234 0)"/>
       <use xlink:href="#ArialMT-30" transform="translate(111.230469 0)"/>
      </g>
     </g>
    </g>
    <g id="xtick_5">
     <g id="line2d_5">
      <path d="M 277.732822 242.389375 
L 277.732822 21.789375 
" clip-path="url(#p340d9400ee)" style="fill: none; stroke: #cccccc; stroke-opacity: 0.3; stroke-width: 0.8; stroke-linecap: round"/>
     </g>
     <g id="text_5">
      <!-- 200 -->
      <g style="fill: #262626" transform="translate(269.391416 256.547188) scale(0.1 -0.1)">
       <defs>
        <path id="ArialMT-32" d="M 3222 541 
L 3222 0 
L 194 0 
Q 188 203 259 391 
Q 375 700 629 1000 
Q 884 1300 1366 1694 
Q 2113 2306 2375 2664 
Q 2638 3022 2638 3341 
Q 2638 3675 2398 3904 
Q 2159 4134 1775 4134 
Q 1369 4134 1125 3890 
Q 881 3647 878 3216 
L 300 3275 
Q 359 3922 746 4261 
Q 1134 4600 1788 4600 
Q 2447 4600 2831 4234 
Q 3216 3869 3216 3328 
Q 3216 3053 3103 2787 
Q 2991 2522 2730 2228 
Q 2469 1934 1863 1422 
Q 1356 997 1212 845 
Q 1069 694 975 541 
L 3222 541 
z
" transform="scale(0.015625)"/>
       </defs>
       <use xlink:href="#ArialMT-32"/>
       <use xlink:href="#ArialMT-30" transform="translate(55.615234 0)"/>
       <use xlink:href="#ArialMT-30" transform="translate(111.230469 0)"/>
      </g>
     </g>
    </g>
    <g id="xtick_6">
     <g id="line2d_6">
      <path d="M 336.817981 242.389375 
L 336.817981 21.789375 
" clip-path="url(#p340d9400ee)" style="fill: none; stroke: #cccccc; stroke-opacity: 0.3; stroke-width: 0.8; stroke-linecap: round"/>
     </g>
     <g id="text_6">
      <!-- 250 -->
      <g style="fill: #262626" transform="translate(328.476574 256.547188) scale(0.1 -0.1)">
       <use xlink:href="#ArialMT-32"/>
       <use xlink:href="#ArialMT-35" transform="translate(55.615234 0)"/>
       <use xlink:href="#ArialMT-30" transform="translate(111.230469 0)"/>
      </g>
     </g>
    </g>
    <g id="xtick_7">
     <g id="line2d_7">
      <path d="M 395.903139 242.389375 
L 395.903139 21.789375 
" clip-path="url(#p340d9400ee)" style="fill: none; stroke: #cccccc; stroke-opacity: 0.3; stroke-width: 0.8; stroke-linecap: round"/>
     </g>
     <g id="text_7">
      <!-- 300 -->
      <g style="fill: #262626" transform="translate(387.561733 256.547188) scale(0.1 -0.1)">
       <defs>
        <path id="ArialMT-33" d="M 269 1209 
L 831 1284 
Q 928 806 1161 595 
Q 1394 384 1728 384 
Q 2125 384 2398 659 
Q 2672 934 2672 1341 
Q 2672 1728 2419 1979 
Q 2166 2231 1775 2231 
Q 1616 2231 1378 2169 
L 1441 2663 
Q 1497 2656 1531 2656 
Q 1891 2656 2178 2843 
Q 2466 3031 2466 3422 
Q 2466 3731 2256 3934 
Q 2047 4138 1716 4138 
Q 1388 4138 1169 3931 
Q 950 3725 888 3313 
L 325 3413 
Q 428 3978 793 4289 
Q 1159 4600 1703 4600 
Q 2078 4600 2393 4439 
Q 2709 4278 2876 4000 
Q 3044 3722 3044 3409 
Q 3044 3113 2884 2869 
Q 2725 2625 2413 2481 
Q 2819 2388 3044 2092 
Q 3269 1797 3269 1353 
Q 3269 753 2831 336 
Q 2394 -81 1725 -81 
Q 1122 -81 723 278 
Q 325 638 269 1209 
z
" transform="scale(0.015625)"/>
       </defs>
       <use xlink:href="#ArialMT-33"/>
       <use xlink:href="#ArialMT-30" transform="translate(55.615234 0)"/>
       <use xlink:href="#ArialMT-30" transform="translate(111.230469 0)"/>
      </g>
     </g>
    </g>
    <g id="text_8">
     <!-- Elapsed Time (sec) -->
     <g style="fill: #262626" transform="translate(194.172656 269.814375) scale(0.1 -0.1)">
      <defs>
       <path id="ArialMT-45" d="M 506 0 
L 506 4581 
L 3819 4581 
L 3819 4041 
L 1113 4041 
L 1113 2638 
L 3647 2638 
L 3647 2100 
L 1113 2100 
L 1113 541 
L 3925 541 
L 3925 0 
L 506 0 
z
" transform="scale(0.015625)"/>
       <path id="ArialMT-6c" d="M 409 0 
L 409 4581 
L 972 4581 
L 972 0 
L 409 0 
z
" transform="scale(0.015625)"/>
       <path id="ArialMT-61" d="M 2588 409 
Q 2275 144 1986 34 
Q 1697 -75 1366 -75 
Q 819 -75 525 192 
Q 231 459 231 875 
Q 231 1119 342 1320 
Q 453 1522 633 1644 
Q 813 1766 1038 1828 
Q 1203 1872 1538 1913 
Q 2219 1994 2541 2106 
Q 2544 2222 2544 2253 
Q 2544 2597 2384 2738 
Q 2169 2928 1744 2928 
Q 1347 2928 1158 2789 
Q 969 2650 878 2297 
L 328 2372 
Q 403 2725 575 2942 
Q 747 3159 1072 3276 
Q 1397 3394 1825 3394 
Q 2250 3394 2515 3294 
Q 2781 3194 2906 3042 
Q 3031 2891 3081 2659 
Q 3109 2516 3109 2141 
L 3109 1391 
Q 3109 606 3145 398 
Q 3181 191 3288 0 
L 2700 0 
Q 2613 175 2588 409 
z
M 2541 1666 
Q 2234 1541 1622 1453 
Q 1275 1403 1131 1340 
Q 988 1278 909 1158 
Q 831 1038 831 891 
Q 831 666 1001 516 
Q 1172 366 1500 366 
Q 1825 366 2078 508 
Q 2331 650 2450 897 
Q 2541 1088 2541 1459 
L 2541 1666 
z
" transform="scale(0.015625)"/>
       <path id="ArialMT-70" d="M 422 -1272 
L 422 3319 
L 934 3319 
L 934 2888 
Q 1116 3141 1344 3267 
Q 1572 3394 1897 3394 
Q 2322 3394 2647 3175 
Q 2972 2956 3137 2557 
Q 3303 2159 3303 1684 
Q 3303 1175 3120 767 
Q 2938 359 2589 142 
Q 2241 -75 1856 -75 
Q 1575 -75 1351 44 
Q 1128 163 984 344 
L 984 -1272 
L 422 -1272 
z
M 931 1641 
Q 931 1000 1190 694 
Q 1450 388 1819 388 
Q 2194 388 2461 705 
Q 2728 1022 2728 1688 
Q 2728 2322 2467 2637 
Q 2206 2953 1844 2953 
Q 1484 2953 1207 2617 
Q 931 2281 931 1641 
z
" transform="scale(0.015625)"/>
       <path id="ArialMT-73" d="M 197 991 
L 753 1078 
Q 800 744 1014 566 
Q 1228 388 1613 388 
Q 2000 388 2187 545 
Q 2375 703 2375 916 
Q 2375 1106 2209 1216 
Q 2094 1291 1634 1406 
Q 1016 1563 777 1677 
Q 538 1791 414 1992 
Q 291 2194 291 2438 
Q 291 2659 392 2848 
Q 494 3038 669 3163 
Q 800 3259 1026 3326 
Q 1253 3394 1513 3394 
Q 1903 3394 2198 3281 
Q 2494 3169 2634 2976 
Q 2775 2784 2828 2463 
L 2278 2388 
Q 2241 2644 2061 2787 
Q 1881 2931 1553 2931 
Q 1166 2931 1000 2803 
Q 834 2675 834 2503 
Q 834 2394 903 2306 
Q 972 2216 1119 2156 
Q 1203 2125 1616 2013 
Q 2213 1853 2448 1751 
Q 2684 1650 2818 1456 
Q 2953 1263 2953 975 
Q 2953 694 2789 445 
Q 2625 197 2315 61 
Q 2006 -75 1616 -75 
Q 969 -75 630 194 
Q 291 463 197 991 
z
" transform="scale(0.015625)"/>
       <path id="ArialMT-65" d="M 2694 1069 
L 3275 997 
Q 3138 488 2766 206 
Q 2394 -75 1816 -75 
Q 1088 -75 661 373 
Q 234 822 234 1631 
Q 234 2469 665 2931 
Q 1097 3394 1784 3394 
Q 2450 3394 2872 2941 
Q 3294 2488 3294 1666 
Q 3294 1616 3291 1516 
L 816 1516 
Q 847 969 1125 678 
Q 1403 388 1819 388 
Q 2128 388 2347 550 
Q 2566 713 2694 1069 
z
M 847 1978 
L 2700 1978 
Q 2663 2397 2488 2606 
Q 2219 2931 1791 2931 
Q 1403 2931 1139 2672 
Q 875 2413 847 1978 
z
" transform="scale(0.015625)"/>
       <path id="ArialMT-64" d="M 2575 0 
L 2575 419 
Q 2259 -75 1647 -75 
Q 1250 -75 917 144 
Q 584 363 401 755 
Q 219 1147 219 1656 
Q 219 2153 384 2558 
Q 550 2963 881 3178 
Q 1213 3394 1622 3394 
Q 1922 3394 2156 3267 
Q 2391 3141 2538 2938 
L 2538 4581 
L 3097 4581 
L 3097 0 
L 2575 0 
z
M 797 1656 
Q 797 1019 1065 703 
Q 1334 388 1700 388 
Q 2069 388 2326 689 
Q 2584 991 2584 1609 
Q 2584 2291 2321 2609 
Q 2059 2928 1675 2928 
Q 1300 2928 1048 2622 
Q 797 2316 797 1656 
z
" transform="scale(0.015625)"/>
       <path id="ArialMT-20" transform="scale(0.015625)"/>
       <path id="ArialMT-54" d="M 1659 0 
L 1659 4041 
L 150 4041 
L 150 4581 
L 3781 4581 
L 3781 4041 
L 2266 4041 
L 2266 0 
L 1659 0 
z
" transform="scale(0.015625)"/>
       <path id="ArialMT-69" d="M 425 3934 
L 425 4581 
L 988 4581 
L 988 3934 
L 425 3934 
z
M 425 0 
L 425 3319 
L 988 3319 
L 988 0 
L 425 0 
z
" transform="scale(0.015625)"/>
       <path id="ArialMT-6d" d="M 422 0 
L 422 3319 
L 925 3319 
L 925 2853 
Q 1081 3097 1340 3245 
Q 1600 3394 1931 3394 
Q 2300 3394 2536 3241 
Q 2772 3088 2869 2813 
Q 3263 3394 3894 3394 
Q 4388 3394 4653 3120 
Q 4919 2847 4919 2278 
L 4919 0 
L 4359 0 
L 4359 2091 
Q 4359 2428 4304 2576 
Q 4250 2725 4106 2815 
Q 3963 2906 3769 2906 
Q 3419 2906 3187 2673 
Q 2956 2441 2956 1928 
L 2956 0 
L 2394 0 
L 2394 2156 
Q 2394 2531 2256 2718 
Q 2119 2906 1806 2906 
Q 1569 2906 1367 2781 
Q 1166 2656 1075 2415 
Q 984 2175 984 1722 
L 984 0 
L 422 0 
z
" transform="scale(0.015625)"/>
       <path id="ArialMT-28" d="M 1497 -1347 
Q 1031 -759 709 28 
Q 388 816 388 1659 
Q 388 2403 628 3084 
Q 909 3875 1497 4659 
L 1900 4659 
Q 1522 4009 1400 3731 
Q 1209 3300 1100 2831 
Q 966 2247 966 1656 
Q 966 153 1900 -1347 
L 1497 -1347 
z
" transform="scale(0.015625)"/>
       <path id="ArialMT-63" d="M 2588 1216 
L 3141 1144 
Q 3050 572 2676 248 
Q 2303 -75 1759 -75 
Q 1078 -75 664 370 
Q 250 816 250 1647 
Q 250 2184 428 2587 
Q 606 2991 970 3192 
Q 1334 3394 1763 3394 
Q 2303 3394 2647 3120 
Q 2991 2847 3088 2344 
L 2541 2259 
Q 2463 2594 2264 2762 
Q 2066 2931 1784 2931 
Q 1359 2931 1093 2626 
Q 828 2322 828 1663 
Q 828 994 1084 691 
Q 1341 388 1753 388 
Q 2084 388 2306 591 
Q 2528 794 2588 1216 
z
" transform="scale(0.015625)"/>
       <path id="ArialMT-29" d="M 791 -1347 
L 388 -1347 
Q 1322 153 1322 1656 
Q 1322 2244 1188 2822 
Q 1081 3291 891 3722 
Q 769 4003 388 4659 
L 791 4659 
Q 1378 3875 1659 3084 
Q 1900 2403 1900 1659 
Q 1900 816 1576 28 
Q 1253 -759 791 -1347 
z
" transform="scale(0.015625)"/>
      </defs>
      <use xlink:href="#ArialMT-45"/>
      <use xlink:href="#ArialMT-6c" transform="translate(66.699219 0)"/>
      <use xlink:href="#ArialMT-61" transform="translate(88.916016 0)"/>
      <use xlink:href="#ArialMT-70" transform="translate(144.53125 0)"/>
      <use xlink:href="#ArialMT-73" transform="translate(200.146484 0)"/>
      <use xlink:href="#ArialMT-65" transform="translate(250.146484 0)"/>
      <use xlink:href="#ArialMT-64" transform="translate(305.761719 0)"/>
      <use xlink:href="#ArialMT-20" transform="translate(361.376953 0)"/>
      <use xlink:href="#ArialMT-54" transform="translate(387.410156 0)"/>
      <use xlink:href="#ArialMT-69" transform="translate(444.744141 0)"/>
      <use xlink:href="#ArialMT-6d" transform="translate(466.960938 0)"/>
      <use xlink:href="#ArialMT-65" transform="translate(550.261719 0)"/>
      <use xlink:href="#ArialMT-20" transform="translate(605.876953 0)"/>
      <use xlink:href="#ArialMT-28" transform="translate(633.660156 0)"/>
      <use xlink:href="#ArialMT-73" transform="translate(666.960938 0)"/>
      <use xlink:href="#ArialMT-65" transform="translate(716.960938 0)"/>
      <use xlink:href="#ArialMT-63" transform="translate(772.576172 0)"/>
      <use xlink:href="#ArialMT-29" transform="translate(822.576172 0)"/>
     </g>
    </g>
   </g>
   <g id="matplotlib.axis_2">
    <g id="ytick_1">
     <g id="line2d_8">
      <path d="M 41.392188 238.654429 
L 432.535937 238.654429 
" clip-path="url(#p340d9400ee)" style="fill: none; stroke: #cccccc; stroke-opacity: 0.3; stroke-width: 0.8; stroke-linecap: round"/>
     </g>
     <g id="text_9">
      <!-- 0.5 -->
      <g style="fill: #262626" transform="translate(20.492188 242.233336) scale(0.1 -0.1)">
       <defs>
        <path id="ArialMT-2e" d="M 581 0 
L 581 641 
L 1222 641 
L 1222 0 
L 581 0 
z
" transform="scale(0.015625)"/>
       </defs>
       <use xlink:href="#ArialMT-30"/>
       <use xlink:href="#ArialMT-2e" transform="translate(55.615234 0)"/>
       <use xlink:href="#ArialMT-35" transform="translate(83.398438 0)"/>
      </g>
     </g>
    </g>
    <g id="ytick_2">
     <g id="line2d_9">
      <path d="M 41.392188 211.687313 
L 432.535937 211.687313 
" clip-path="url(#p340d9400ee)" style="fill: none; stroke: #cccccc; stroke-opacity: 0.3; stroke-width: 0.8; stroke-linecap: round"/>
     </g>
     <g id="text_10">
      <!-- 0.6 -->
      <g style="fill: #262626" transform="translate(20.492188 215.266219) scale(0.1 -0.1)">
       <defs>
        <path id="ArialMT-36" d="M 3184 3459 
L 2625 3416 
Q 2550 3747 2413 3897 
Q 2184 4138 1850 4138 
Q 1581 4138 1378 3988 
Q 1113 3794 959 3422 
Q 806 3050 800 2363 
Q 1003 2672 1297 2822 
Q 1591 2972 1913 2972 
Q 2475 2972 2870 2558 
Q 3266 2144 3266 1488 
Q 3266 1056 3080 686 
Q 2894 316 2569 119 
Q 2244 -78 1831 -78 
Q 1128 -78 684 439 
Q 241 956 241 2144 
Q 241 3472 731 4075 
Q 1159 4600 1884 4600 
Q 2425 4600 2770 4297 
Q 3116 3994 3184 3459 
z
M 888 1484 
Q 888 1194 1011 928 
Q 1134 663 1356 523 
Q 1578 384 1822 384 
Q 2178 384 2434 671 
Q 2691 959 2691 1453 
Q 2691 1928 2437 2201 
Q 2184 2475 1800 2475 
Q 1419 2475 1153 2201 
Q 888 1928 888 1484 
z
" transform="scale(0.015625)"/>
       </defs>
       <use xlink:href="#ArialMT-30"/>
       <use xlink:href="#ArialMT-2e" transform="translate(55.615234 0)"/>
       <use xlink:href="#ArialMT-36" transform="translate(83.398438 0)"/>
      </g>
     </g>
    </g>
    <g id="ytick_3">
     <g id="line2d_10">
      <path d="M 41.392188 184.720197 
L 432.535937 184.720197 
" clip-path="url(#p340d9400ee)" style="fill: none; stroke: #cccccc; stroke-opacity: 0.3; stroke-width: 0.8; stroke-linecap: round"/>
     </g>
     <g id="text_11">
      <!-- 0.7 -->
      <g style="fill: #262626" transform="translate(20.492188 188.299103) scale(0.1 -0.1)">
       <defs>
        <path id="ArialMT-37" d="M 303 3981 
L 303 4522 
L 3269 4522 
L 3269 4084 
Q 2831 3619 2401 2847 
Q 1972 2075 1738 1259 
Q 1569 684 1522 0 
L 944 0 
Q 953 541 1156 1306 
Q 1359 2072 1739 2783 
Q 2119 3494 2547 3981 
L 303 3981 
z
" transform="scale(0.015625)"/>
       </defs>
       <use xlink:href="#ArialMT-30"/>
       <use xlink:href="#ArialMT-2e" transform="translate(55.615234 0)"/>
       <use xlink:href="#ArialMT-37" transform="translate(83.398438 0)"/>
      </g>
     </g>
    </g>
    <g id="ytick_4">
     <g id="line2d_11">
      <path d="M 41.392188 157.753081 
L 432.535937 157.753081 
" clip-path="url(#p340d9400ee)" style="fill: none; stroke: #cccccc; stroke-opacity: 0.3; stroke-width: 0.8; stroke-linecap: round"/>
     </g>
     <g id="text_12">
      <!-- 0.8 -->
      <g style="fill: #262626" transform="translate(20.492188 161.331987) scale(0.1 -0.1)">
       <defs>
        <path id="ArialMT-38" d="M 1131 2484 
Q 781 2613 612 2850 
Q 444 3088 444 3419 
Q 444 3919 803 4259 
Q 1163 4600 1759 4600 
Q 2359 4600 2725 4251 
Q 3091 3903 3091 3403 
Q 3091 3084 2923 2848 
Q 2756 2613 2416 2484 
Q 2838 2347 3058 2040 
Q 3278 1734 3278 1309 
Q 3278 722 2862 322 
Q 2447 -78 1769 -78 
Q 1091 -78 675 323 
Q 259 725 259 1325 
Q 259 1772 486 2073 
Q 713 2375 1131 2484 
z
M 1019 3438 
Q 1019 3113 1228 2906 
Q 1438 2700 1772 2700 
Q 2097 2700 2305 2904 
Q 2513 3109 2513 3406 
Q 2513 3716 2298 3927 
Q 2084 4138 1766 4138 
Q 1444 4138 1231 3931 
Q 1019 3725 1019 3438 
z
M 838 1322 
Q 838 1081 952 856 
Q 1066 631 1291 507 
Q 1516 384 1775 384 
Q 2178 384 2440 643 
Q 2703 903 2703 1303 
Q 2703 1709 2433 1975 
Q 2163 2241 1756 2241 
Q 1359 2241 1098 1978 
Q 838 1716 838 1322 
z
" transform="scale(0.015625)"/>
       </defs>
       <use xlink:href="#ArialMT-30"/>
       <use xlink:href="#ArialMT-2e" transform="translate(55.615234 0)"/>
       <use xlink:href="#ArialMT-38" transform="translate(83.398438 0)"/>
      </g>
     </g>
    </g>
    <g id="ytick_5">
     <g id="line2d_12">
      <path d="M 41.392188 130.785964 
L 432.535937 130.785964 
" clip-path="url(#p340d9400ee)" style="fill: none; stroke: #cccccc; stroke-opacity: 0.3; stroke-width: 0.8; stroke-linecap: round"/>
     </g>
     <g id="text_13">
      <!-- 0.9 -->
      <g style="fill: #262626" transform="translate(20.492188 134.364871) scale(0.1 -0.1)">
       <defs>
        <path id="ArialMT-39" d="M 350 1059 
L 891 1109 
Q 959 728 1153 556 
Q 1347 384 1650 384 
Q 1909 384 2104 503 
Q 2300 622 2425 820 
Q 2550 1019 2634 1356 
Q 2719 1694 2719 2044 
Q 2719 2081 2716 2156 
Q 2547 1888 2255 1720 
Q 1963 1553 1622 1553 
Q 1053 1553 659 1965 
Q 266 2378 266 3053 
Q 266 3750 677 4175 
Q 1088 4600 1706 4600 
Q 2153 4600 2523 4359 
Q 2894 4119 3086 3673 
Q 3278 3228 3278 2384 
Q 3278 1506 3087 986 
Q 2897 466 2520 194 
Q 2144 -78 1638 -78 
Q 1100 -78 759 220 
Q 419 519 350 1059 
z
M 2653 3081 
Q 2653 3566 2395 3850 
Q 2138 4134 1775 4134 
Q 1400 4134 1122 3828 
Q 844 3522 844 3034 
Q 844 2597 1108 2323 
Q 1372 2050 1759 2050 
Q 2150 2050 2401 2323 
Q 2653 2597 2653 3081 
z
" transform="scale(0.015625)"/>
       </defs>
       <use xlink:href="#ArialMT-30"/>
       <use xlink:href="#ArialMT-2e" transform="translate(55.615234 0)"/>
       <use xlink:href="#ArialMT-39" transform="translate(83.398438 0)"/>
      </g>
     </g>
    </g>
    <g id="ytick_6">
     <g id="line2d_13">
      <path d="M 41.392188 103.818848 
L 432.535937 103.818848 
" clip-path="url(#p340d9400ee)" style="fill: none; stroke: #cccccc; stroke-opacity: 0.3; stroke-width: 0.8; stroke-linecap: round"/>
     </g>
     <g id="text_14">
      <!-- 1.0 -->
      <g style="fill: #262626" transform="translate(20.492188 107.397754) scale(0.1 -0.1)">
       <use xlink:href="#ArialMT-31"/>
       <use xlink:href="#ArialMT-2e" transform="translate(55.615234 0)"/>
       <use xlink:href="#ArialMT-30" transform="translate(83.398438 0)"/>
      </g>
     </g>
    </g>
    <g id="ytick_7">
     <g id="line2d_14">
      <path d="M 41.392188 76.851732 
L 432.535937 76.851732 
" clip-path="url(#p340d9400ee)" style="fill: none; stroke: #cccccc; stroke-opacity: 0.3; stroke-width: 0.8; stroke-linecap: round"/>
     </g>
     <g id="text_15">
      <!-- 1.1 -->
      <g style="fill: #262626" transform="translate(20.492188 80.430638) scale(0.1 -0.1)">
       <use xlink:href="#ArialMT-31"/>
       <use xlink:href="#ArialMT-2e" transform="translate(55.615234 0)"/>
       <use xlink:href="#ArialMT-31" transform="translate(83.398438 0)"/>
      </g>
     </g>
    </g>
    <g id="ytick_8">
     <g id="line2d_15">
      <path d="M 41.392188 49.884616 
L 432.535937 49.884616 
" clip-path="url(#p340d9400ee)" style="fill: none; stroke: #cccccc; stroke-opacity: 0.3; stroke-width: 0.8; stroke-linecap: round"/>
     </g>
     <g id="text_16">
      <!-- 1.2 -->
      <g style="fill: #262626" transform="translate(20.492188 53.463522) scale(0.1 -0.1)">
       <use xlink:href="#ArialMT-31"/>
       <use xlink:href="#ArialMT-2e" transform="translate(55.615234 0)"/>
       <use xlink:href="#ArialMT-32" transform="translate(83.398438 0)"/>
      </g>
     </g>
    </g>
    <g id="ytick_9">
     <g id="line2d_16">
      <path d="M 41.392188 22.917499 
L 432.535937 22.917499 
" clip-path="url(#p340d9400ee)" style="fill: none; stroke: #cccccc; stroke-opacity: 0.3; stroke-width: 0.8; stroke-linecap: round"/>
     </g>
     <g id="text_17">
      <!-- 1.3 -->
      <g style="fill: #262626" transform="translate(20.492188 26.496406) scale(0.1 -0.1)">
       <use xlink:href="#ArialMT-31"/>
       <use xlink:href="#ArialMT-2e" transform="translate(55.615234 0)"/>
       <use xlink:href="#ArialMT-33" transform="translate(83.398438 0)"/>
      </g>
     </g>
    </g>
    <g id="text_18">
     <!-- Mean pkg_j per 1s Bin -->
     <g style="fill: #262626" transform="translate(14.3875 181.837031) rotate(-90) scale(0.1 -0.1)">
      <defs>
       <path id="ArialMT-4d" d="M 475 0 
L 475 4581 
L 1388 4581 
L 2472 1338 
Q 2622 884 2691 659 
Q 2769 909 2934 1394 
L 4031 4581 
L 4847 4581 
L 4847 0 
L 4263 0 
L 4263 3834 
L 2931 0 
L 2384 0 
L 1059 3900 
L 1059 0 
L 475 0 
z
" transform="scale(0.015625)"/>
       <path id="ArialMT-6e" d="M 422 0 
L 422 3319 
L 928 3319 
L 928 2847 
Q 1294 3394 1984 3394 
Q 2284 3394 2536 3286 
Q 2788 3178 2913 3003 
Q 3038 2828 3088 2588 
Q 3119 2431 3119 2041 
L 3119 0 
L 2556 0 
L 2556 2019 
Q 2556 2363 2490 2533 
Q 2425 2703 2258 2804 
Q 2091 2906 1866 2906 
Q 1506 2906 1245 2678 
Q 984 2450 984 1813 
L 984 0 
L 422 0 
z
" transform="scale(0.015625)"/>
       <path id="ArialMT-6b" d="M 425 0 
L 425 4581 
L 988 4581 
L 988 1969 
L 2319 3319 
L 3047 3319 
L 1778 2088 
L 3175 0 
L 2481 0 
L 1384 1697 
L 988 1316 
L 988 0 
L 425 0 
z
" transform="scale(0.015625)"/>
       <path id="ArialMT-67" d="M 319 -275 
L 866 -356 
Q 900 -609 1056 -725 
Q 1266 -881 1628 -881 
Q 2019 -881 2231 -725 
Q 2444 -569 2519 -288 
Q 2563 -116 2559 434 
Q 2191 0 1641 0 
Q 956 0 581 494 
Q 206 988 206 1678 
Q 206 2153 378 2554 
Q 550 2956 876 3175 
Q 1203 3394 1644 3394 
Q 2231 3394 2613 2919 
L 2613 3319 
L 3131 3319 
L 3131 450 
Q 3131 -325 2973 -648 
Q 2816 -972 2473 -1159 
Q 2131 -1347 1631 -1347 
Q 1038 -1347 672 -1080 
Q 306 -813 319 -275 
z
M 784 1719 
Q 784 1066 1043 766 
Q 1303 466 1694 466 
Q 2081 466 2343 764 
Q 2606 1063 2606 1700 
Q 2606 2309 2336 2618 
Q 2066 2928 1684 2928 
Q 1309 2928 1046 2623 
Q 784 2319 784 1719 
z
" transform="scale(0.015625)"/>
       <path id="ArialMT-5f" d="M -97 -1272 
L -97 -866 
L 3631 -866 
L 3631 -1272 
L -97 -1272 
z
" transform="scale(0.015625)"/>
       <path id="ArialMT-6a" d="M 419 3928 
L 419 4581 
L 981 4581 
L 981 3928 
L 419 3928 
z
M -294 -1288 
L -188 -809 
Q -19 -853 78 -853 
Q 250 -853 334 -739 
Q 419 -625 419 -169 
L 419 3319 
L 981 3319 
L 981 -181 
Q 981 -794 822 -1034 
Q 619 -1347 147 -1347 
Q -81 -1347 -294 -1288 
z
" transform="scale(0.015625)"/>
       <path id="ArialMT-72" d="M 416 0 
L 416 3319 
L 922 3319 
L 922 2816 
Q 1116 3169 1280 3281 
Q 1444 3394 1641 3394 
Q 1925 3394 2219 3213 
L 2025 2691 
Q 1819 2813 1613 2813 
Q 1428 2813 1281 2702 
Q 1134 2591 1072 2394 
Q 978 2094 978 1738 
L 978 0 
L 416 0 
z
" transform="scale(0.015625)"/>
       <path id="ArialMT-42" d="M 469 0 
L 469 4581 
L 2188 4581 
Q 2713 4581 3030 4442 
Q 3347 4303 3526 4014 
Q 3706 3725 3706 3409 
Q 3706 3116 3547 2856 
Q 3388 2597 3066 2438 
Q 3481 2316 3704 2022 
Q 3928 1728 3928 1328 
Q 3928 1006 3792 729 
Q 3656 453 3456 303 
Q 3256 153 2954 76 
Q 2653 0 2216 0 
L 469 0 
z
M 1075 2656 
L 2066 2656 
Q 2469 2656 2644 2709 
Q 2875 2778 2992 2937 
Q 3109 3097 3109 3338 
Q 3109 3566 3000 3739 
Q 2891 3913 2687 3977 
Q 2484 4041 1991 4041 
L 1075 4041 
L 1075 2656 
z
M 1075 541 
L 2216 541 
Q 2509 541 2628 563 
Q 2838 600 2978 687 
Q 3119 775 3209 942 
Q 3300 1109 3300 1328 
Q 3300 1584 3169 1773 
Q 3038 1963 2805 2039 
Q 2572 2116 2134 2116 
L 1075 2116 
L 1075 541 
z
" transform="scale(0.015625)"/>
      </defs>
      <use xlink:href="#ArialMT-4d"/>
      <use xlink:href="#ArialMT-65" transform="translate(83.300781 0)"/>
      <use xlink:href="#ArialMT-61" transform="translate(138.916016 0)"/>
      <use xlink:href="#ArialMT-6e" transform="translate(194.53125 0)"/>
      <use xlink:href="#ArialMT-20" transform="translate(250.146484 0)"/>
      <use xlink:href="#ArialMT-70" transform="translate(277.929688 0)"/>
      <use xlink:href="#ArialMT-6b" transform="translate(333.544922 0)"/>
      <use xlink:href="#ArialMT-67" transform="translate(383.544922 0)"/>
      <use xlink:href="#ArialMT-5f" transform="translate(439.160156 0)"/>
      <use xlink:href="#ArialMT-6a" transform="translate(494.775391 0)"/>
      <use xlink:href="#ArialMT-20" transform="translate(516.992188 0)"/>
      <use xlink:href="#ArialMT-70" transform="translate(544.775391 0)"/>
      <use xlink:href="#ArialMT-65" transform="translate(600.390625 0)"/>
      <use xlink:href="#ArialMT-72" transform="translate(656.005859 0)"/>
      <use xlink:href="#ArialMT-20" transform="translate(689.306641 0)"/>
      <use xlink:href="#ArialMT-31" transform="translate(717.089844 0)"/>
      <use xlink:href="#ArialMT-73" transform="translate(772.705078 0)"/>
      <use xlink:href="#ArialMT-20" transform="translate(822.705078 0)"/>
      <use xlink:href="#ArialMT-42" transform="translate(850.488281 0)"/>
      <use xlink:href="#ArialMT-69" transform="translate(917.1875 0)"/>
      <use xlink:href="#ArialMT-6e" transform="translate(939.404297 0)"/>
     </g>
    </g>
   </g>
   <g id="line2d_17">
    <path d="M 41.392188 91.683646 
L 42.573891 64.986201 
L 43.755594 51.232971 
L 44.937297 63.368174 
L 46.119 63.368174 
L 47.300703 51.232971 
L 48.482407 64.446858 
L 49.66411 63.368174 
L 50.845813 51.772314 
L 52.027516 63.907516 
L 53.209219 57.97475 
L 54.390922 53.390341 
L 55.572626 60.941133 
L 56.754329 48.53626 
L 57.936032 60.941133 
L 59.117735 60.671462 
L 60.299438 48.53626 
L 61.481141 60.941133 
L 62.662845 60.13212 
L 63.844548 48.805931 
L 65.026251 60.13212 
L 66.207954 59.592777 
L 67.389657 44.491192 
L 68.57136 56.356724 
L 69.753064 56.626395 
L 70.934767 44.221521 
L 72.11647 55.54771 
L 73.298173 47.727246 
L 74.479876 50.9633 
L 75.661579 55.278039 
L 76.843283 42.993019 
L 78.024986 56.087052 
L 79.206689 55.008368 
L 80.388392 40.985467 
L 81.570095 54.199354 
L 82.751799 55.278039 
L 83.933502 42.064152 
L 85.115205 54.469025 
L 86.296908 50.9633 
L 87.478611 43.412508 
L 88.660314 54.199354 
L 89.842018 41.52481 
L 91.023721 53.390341 
L 92.205424 52.311656 
L 93.387127 40.446125 
L 94.56883 54.469025 
L 95.750533 53.390341 
L 96.932237 40.446125 
L 98.11394 52.041985 
L 99.295643 53.12067 
L 100.477346 40.985467 
L 101.659049 53.660012 
L 102.840752 52.041985 
L 104.022456 40.446125 
L 105.204159 52.041985 
L 106.385862 45.300206 
L 107.567565 45.030535 
L 108.749268 51.772314 
L 109.930971 38.558427 
L 111.112675 51.502643 
L 112.294378 50.693629 
L 113.476081 38.558427 
L 114.657784 52.581327 
L 115.839487 50.693629 
L 117.021191 38.198865 
L 118.202894 51.232971 
L 119.384597 51.502643 
L 120.5663 38.288756 
L 121.748003 50.9633 
L 122.929706 40.985467 
L 124.11141 47.727246 
L 125.293113 49.884616 
L 126.474816 38.019084 
L 127.656519 50.9633 
L 128.838222 49.884616 
L 130.019925 38.288756 
L 131.201629 50.9633 
L 132.383332 50.693629 
L 133.565035 38.558427 
L 134.746738 49.345273 
L 135.928441 50.423958 
L 137.110144 37.210071 
L 138.291848 50.423958 
L 140.655254 42.064152 
L 141.836957 49.884616 
L 143.01866 36.9404 
L 144.200363 49.614944 
L 145.382067 49.075602 
L 146.56377 36.9404 
L 147.745473 49.884616 
L 148.927176 50.154287 
L 150.108879 36.670729 
L 151.290583 49.584981 
L 152.472286 48.266589 
L 153.653989 36.131386 
L 154.835692 49.884616 
L 156.017395 38.558427 
L 157.199098 46.648562 
L 158.380802 49.345273 
L 159.562505 35.322373 
L 160.744208 48.266589 
L 161.925911 48.805931 
L 163.107614 35.861715 
L 164.289317 47.996917 
L 165.471021 49.075602 
L 166.652724 35.592044 
L 167.834427 48.266589 
L 169.01613 49.614944 
L 170.197833 35.322373 
L 171.379536 48.266589 
L 172.56124 43.142837 
L 173.742943 40.985467 
L 174.924646 47.727246 
L 176.106349 35.322373 
L 177.288052 47.996917 
L 178.469755 47.996917 
L 179.651459 35.052702 
L 180.833162 48.805931 
L 182.014865 48.805931 
L 183.196568 35.592044 
L 184.378271 47.996917 
L 185.559975 47.727246 
L 186.741678 35.322373 
L 187.923381 47.457575 
L 189.105084 47.727246 
L 190.286787 35.592044 
L 191.46849 48.686077 
L 192.650194 33.704346 
L 193.831897 48.266589 
L 195.0136 47.996917 
L 196.195303 34.783031 
L 197.377006 47.727246 
L 198.558709 46.918233 
L 199.740413 33.165004 
L 200.922116 46.918233 
L 202.103819 47.187904 
L 203.285522 34.783031 
L 204.467225 46.918233 
L 205.648928 45.030535 
L 206.830632 35.052702 
L 208.012335 46.918233 
L 209.194038 34.243688 
L 210.375741 47.187904 
L 211.557444 47.727246 
L 212.739147 34.513359 
L 213.920851 46.918233 
L 215.102554 46.918233 
L 216.284257 33.974017 
L 217.46596 47.187904 
L 218.647663 45.839548 
L 219.829367 33.704346 
L 221.01107 47.727246 
L 222.192773 47.727246 
L 223.374476 34.513359 
L 224.556179 86.020551 
L 224.556179 86.020551 
" clip-path="url(#p340d9400ee)" style="fill: none; stroke: #1f77b4; stroke-width: 2; stroke-linecap: round"/>
   </g>
   <g id="line2d_18">
    <path d="M 41.392188 88.717263 
L 42.573891 56.356724 
L 43.755594 43.95185 
L 44.937297 56.087052 
L 46.119 56.356724 
L 47.300703 41.255138 
L 48.482407 53.929683 
L 49.66411 53.660012 
L 50.845813 41.255138 
L 52.027516 54.199354 
L 53.209219 48.266589 
L 54.390922 44.221521 
L 55.572626 51.502643 
L 56.754329 38.558427 
L 57.936032 51.232971 
L 59.117735 51.232971 
L 60.299438 38.288756 
L 61.481141 51.502643 
L 62.662845 51.772314 
L 63.844548 38.288756 
L 65.026251 50.9633 
L 66.207954 50.154287 
L 67.389657 37.479742 
L 68.57136 49.884616 
L 69.753064 49.075602 
L 70.934767 35.592044 
L 72.11647 50.154287 
L 73.298173 39.36744 
L 74.479876 44.760864 
L 75.661579 48.53626 
L 76.843283 35.592044 
L 78.024986 48.805931 
L 79.206689 50.18425 
L 80.388392 35.592044 
L 81.570095 48.805931 
L 82.751799 49.075602 
L 83.933502 35.861715 
L 85.115205 49.345273 
L 86.296908 43.95185 
L 87.478611 39.097769 
L 88.660314 46.918233 
L 89.842018 34.783031 
L 91.023721 48.266589 
L 92.205424 47.457575 
L 93.387127 35.322373 
L 94.56883 47.727246 
L 95.750533 47.457575 
L 96.932237 34.783031 
L 98.11394 46.378891 
L 99.295643 46.378891 
L 100.477346 35.592044 
L 101.659049 48.266589 
L 102.840752 48.805931 
L 104.022456 36.401057 
L 105.204159 47.727246 
L 106.385862 37.210071 
L 108.749268 47.727246 
L 109.930971 37.210071 
L 111.112675 49.884616 
L 112.294378 50.154287 
L 113.476081 36.670729 
L 114.657784 47.996917 
L 115.839487 48.805931 
L 117.021191 37.479742 
L 118.202894 48.805931 
L 119.384597 46.588635 
L 120.5663 36.670729 
L 121.748003 47.727246 
L 122.929706 33.704346 
L 124.11141 48.805931 
L 125.293113 49.345273 
L 126.474816 35.861715 
L 127.656519 49.884616 
L 128.838222 49.614944 
L 130.019925 35.322373 
L 131.201629 48.805931 
L 132.383332 49.614944 
L 133.565035 35.861715 
L 134.746738 49.075602 
L 135.928441 49.345273 
L 137.110144 35.322373 
L 138.291848 49.075602 
L 139.473551 40.446125 
L 140.655254 44.221521 
L 141.836957 49.075602 
L 143.01866 35.322373 
L 144.200363 48.805931 
L 145.382067 47.996917 
L 146.56377 35.592044 
L 147.745473 49.075602 
L 148.927176 48.53626 
L 150.108879 35.592044 
L 151.290583 47.996917 
L 152.472286 48.53626 
L 153.653989 35.592044 
L 154.835692 47.727246 
L 156.017395 48.266589 
L 157.199098 36.101423 
L 158.380802 48.53626 
L 159.562505 35.861715 
L 160.744208 48.805931 
L 161.925911 47.457575 
L 163.107614 35.052702 
L 164.289317 48.266589 
L 165.471021 48.266589 
L 166.652724 34.783031 
L 167.834427 48.266589 
L 169.01613 49.075602 
L 170.197833 35.052702 
L 171.379536 48.266589 
L 172.56124 40.176454 
L 173.742943 42.603494 
L 174.924646 48.53626 
L 176.106349 35.052702 
L 177.288052 49.075602 
L 178.469755 47.727246 
L 179.651459 35.052702 
L 180.833162 48.805931 
L 182.014865 47.996917 
L 183.196568 35.322373 
L 184.378271 46.648562 
L 185.559975 47.996917 
L 186.741678 34.783031 
L 187.923381 46.109219 
L 189.105084 45.569877 
L 190.286787 34.243688 
L 191.46849 46.109219 
L 192.650194 36.670729 
L 193.831897 43.592288 
L 195.0136 47.727246 
L 196.195303 31.816648 
L 197.377006 47.187904 
L 198.558709 47.187904 
L 199.740413 33.704346 
L 200.922116 47.187904 
L 202.103819 45.569877 
L 203.285522 32.895332 
L 204.467225 46.918233 
L 205.648928 44.221521 
L 206.830632 35.592044 
L 208.012335 45.030535 
L 209.194038 33.434675 
L 210.375741 45.569877 
L 211.557444 46.109219 
L 212.739147 33.165004 
L 213.920851 46.648562 
L 215.102554 45.839548 
L 216.284257 33.165004 
L 217.46596 45.839548 
L 218.647663 46.378891 
L 219.829367 32.895332 
L 221.01107 46.918233 
L 222.192773 46.378891 
L 223.374476 32.895332 
L 224.556179 89.256605 
L 224.556179 89.256605 
" clip-path="url(#p340d9400ee)" style="fill: none; stroke: #ff7f0e; stroke-width: 2; stroke-linecap: round"/>
   </g>
   <g id="patch_3">
    <path d="M 41.392188 242.389375 
L 41.392188 21.789375 
" style="fill: none; stroke: #cccccc; stroke-width: 0.8; stroke-linejoin: miter; stroke-linecap: square"/>
   </g>
   <g id="patch_4">
    <path d="M 432.535937 242.389375 
L 432.535937 21.789375 
" style="fill: none; stroke: #cccccc; stroke-width: 0.8; stroke-linejoin: miter; stroke-linecap: square"/>
   </g>
   <g id="patch_5">
    <path d="M 41.392188 242.389375 
L 432.535937 242.389375 
" style="fill: none; stroke: #cccccc; stroke-width: 0.8; stroke-linejoin: miter; stroke-linecap: square"/>
   </g>
   <g id="patch_6">
    <path d="M 41.392188 21.789375 
L 432.535937 21.789375 
" style="fill: none; stroke: #cccccc; stroke-width: 0.8; stroke-linejoin: miter; stroke-linecap: square"/>
   </g>
   <g id="text_19">
    <!-- APX1092 — PC1 all cores -->
    <g style="fill: #262626" transform="translate(166.598125 15.789375) scale(0.12 -0.12)">
     <defs>
      <path id="ArialMT-41" d="M -9 0 
L 1750 4581 
L 2403 4581 
L 4278 0 
L 3588 0 
L 3053 1388 
L 1138 1388 
L 634 0 
L -9 0 
z
M 1313 1881 
L 2866 1881 
L 2388 3150 
Q 2169 3728 2063 4100 
Q 1975 3659 1816 3225 
L 1313 1881 
z
" transform="scale(0.015625)"/>
      <path id="ArialMT-50" d="M 494 0 
L 494 4581 
L 2222 4581 
Q 2678 4581 2919 4538 
Q 3256 4481 3484 4323 
Q 3713 4166 3852 3881 
Q 3991 3597 3991 3256 
Q 3991 2672 3619 2267 
Q 3247 1863 2275 1863 
L 1100 1863 
L 1100 0 
L 494 0 
z
M 1100 2403 
L 2284 2403 
Q 2872 2403 3119 2622 
Q 3366 2841 3366 3238 
Q 3366 3525 3220 3729 
Q 3075 3934 2838 4000 
Q 2684 4041 2272 4041 
L 1100 4041 
L 1100 2403 
z
" transform="scale(0.015625)"/>
      <path id="ArialMT-58" d="M 28 0 
L 1800 2388 
L 238 4581 
L 959 4581 
L 1791 3406 
Q 2050 3041 2159 2844 
Q 2313 3094 2522 3366 
L 3444 4581 
L 4103 4581 
L 2494 2422 
L 4228 0 
L 3478 0 
L 2325 1634 
Q 2228 1775 2125 1941 
Q 1972 1691 1906 1597 
L 756 0 
L 28 0 
z
" transform="scale(0.015625)"/>
      <path id="ArialMT-2014" d="M 0 1431 
L 0 1884 
L 6400 1884 
L 6400 1431 
L 0 1431 
z
" transform="scale(0.015625)"/>
      <path id="ArialMT-43" d="M 3763 1606 
L 4369 1453 
Q 4178 706 3683 314 
Q 3188 -78 2472 -78 
Q 1731 -78 1267 223 
Q 803 525 561 1097 
Q 319 1669 319 2325 
Q 319 3041 592 3573 
Q 866 4106 1370 4382 
Q 1875 4659 2481 4659 
Q 3169 4659 3637 4309 
Q 4106 3959 4291 3325 
L 3694 3184 
Q 3534 3684 3231 3912 
Q 2928 4141 2469 4141 
Q 1941 4141 1586 3887 
Q 1231 3634 1087 3207 
Q 944 2781 944 2328 
Q 944 1744 1114 1308 
Q 1284 872 1643 656 
Q 2003 441 2422 441 
Q 2931 441 3284 734 
Q 3638 1028 3763 1606 
z
" transform="scale(0.015625)"/>
      <path id="ArialMT-6f" d="M 213 1659 
Q 213 2581 725 3025 
Q 1153 3394 1769 3394 
Q 2453 3394 2887 2945 
Q 3322 2497 3322 1706 
Q 3322 1066 3130 698 
Q 2938 331 2570 128 
Q 2203 -75 1769 -75 
Q 1072 -75 642 372 
Q 213 819 213 1659 
z
M 791 1659 
Q 791 1022 1069 705 
Q 1347 388 1769 388 
Q 2188 388 2466 706 
Q 2744 1025 2744 1678 
Q 2744 2294 2464 2611 
Q 2184 2928 1769 2928 
Q 1347 2928 1069 2612 
Q 791 2297 791 1659 
z
" transform="scale(0.015625)"/>
     </defs>
     <use xlink:href="#ArialMT-41"/>
     <use xlink:href="#ArialMT-50" transform="translate(66.699219 0)"/>
     <use xlink:href="#ArialMT-58" transform="translate(133.398438 0)"/>
     <use xlink:href="#ArialMT-31" transform="translate(200.097656 0)"/>
     <use xlink:href="#ArialMT-30" transform="translate(255.712891 0)"/>
     <use xlink:href="#ArialMT-39" transform="translate(311.328125 0)"/>
     <use xlink:href="#ArialMT-32" transform="translate(366.943359 0)"/>
     <use xlink:href="#ArialMT-20" transform="translate(422.558594 0)"/>
     <use xlink:href="#ArialMT-2014" transform="translate(450.341797 0)"/>
     <use xlink:href="#ArialMT-20" transform="translate(550.341797 0)"/>
     <use xlink:href="#ArialMT-50" transform="translate(578.125 0)"/>
     <use xlink:href="#ArialMT-43" transform="translate(644.824219 0)"/>
     <use xlink:href="#ArialMT-31" transform="translate(717.041016 0)"/>
     <use xlink:href="#ArialMT-20" transform="translate(772.65625 0)"/>
     <use xlink:href="#ArialMT-61" transform="translate(800.439453 0)"/>
     <use xlink:href="#ArialMT-6c" transform="translate(856.054688 0)"/>
     <use xlink:href="#ArialMT-6c" transform="translate(878.271484 0)"/>
     <use xlink:href="#ArialMT-20" transform="translate(900.488281 0)"/>
     <use xlink:href="#ArialMT-63" transform="translate(928.271484 0)"/>
     <use xlink:href="#ArialMT-6f" transform="translate(978.271484 0)"/>
     <use xlink:href="#ArialMT-72" transform="translate(1033.886719 0)"/>
     <use xlink:href="#ArialMT-65" transform="translate(1067.1875 0)"/>
     <use xlink:href="#ArialMT-73" transform="translate(1122.802734 0)"/>
    </g>
   </g>
   <g id="legend_1">
    <g id="patch_7">
     <path d="M 361.853125 58.314375 
L 425.535937 58.314375 
Q 427.535937 58.314375 427.535937 56.314375 
L 427.535937 28.789375 
Q 427.535937 26.789375 425.535937 26.789375 
L 361.853125 26.789375 
Q 359.853125 26.789375 359.853125 28.789375 
L 359.853125 56.314375 
Q 359.853125 58.314375 361.853125 58.314375 
z
" style="fill: #ffffff; opacity: 0.8; stroke: #cccccc; stroke-linejoin: miter"/>
    </g>
    <g id="line2d_19">
     <path d="M 363.853125 34.447188 
L 373.853125 34.447188 
L 383.853125 34.447188 
" style="fill: none; stroke: #1f77b4; stroke-width: 2; stroke-linecap: round"/>
    </g>
    <g id="text_20">
     <!-- queryA -->
     <g style="fill: #262626" transform="translate(391.853125 37.947188) scale(0.1 -0.1)">
      <defs>
       <path id="ArialMT-71" d="M 2538 -1272 
L 2538 353 
Q 2406 169 2170 47 
Q 1934 -75 1669 -75 
Q 1078 -75 651 397 
Q 225 869 225 1691 
Q 225 2191 398 2587 
Q 572 2984 901 3189 
Q 1231 3394 1625 3394 
Q 2241 3394 2594 2875 
L 2594 3319 
L 3100 3319 
L 3100 -1272 
L 2538 -1272 
z
M 803 1669 
Q 803 1028 1072 708 
Q 1341 388 1716 388 
Q 2075 388 2334 692 
Q 2594 997 2594 1619 
Q 2594 2281 2320 2615 
Q 2047 2950 1678 2950 
Q 1313 2950 1058 2639 
Q 803 2328 803 1669 
z
" transform="scale(0.015625)"/>
       <path id="ArialMT-75" d="M 2597 0 
L 2597 488 
Q 2209 -75 1544 -75 
Q 1250 -75 995 37 
Q 741 150 617 320 
Q 494 491 444 738 
Q 409 903 409 1263 
L 409 3319 
L 972 3319 
L 972 1478 
Q 972 1038 1006 884 
Q 1059 663 1231 536 
Q 1403 409 1656 409 
Q 1909 409 2131 539 
Q 2353 669 2445 892 
Q 2538 1116 2538 1541 
L 2538 3319 
L 3100 3319 
L 3100 0 
L 2597 0 
z
" transform="scale(0.015625)"/>
       <path id="ArialMT-79" d="M 397 -1278 
L 334 -750 
Q 519 -800 656 -800 
Q 844 -800 956 -737 
Q 1069 -675 1141 -563 
Q 1194 -478 1313 -144 
Q 1328 -97 1363 -6 
L 103 3319 
L 709 3319 
L 1400 1397 
Q 1534 1031 1641 628 
Q 1738 1016 1872 1384 
L 2581 3319 
L 3144 3319 
L 1881 -56 
Q 1678 -603 1566 -809 
Q 1416 -1088 1222 -1217 
Q 1028 -1347 759 -1347 
Q 597 -1347 397 -1278 
z
" transform="scale(0.015625)"/>
      </defs>
      <use xlink:href="#ArialMT-71"/>
      <use xlink:href="#ArialMT-75" transform="translate(55.615234 0)"/>
      <use xlink:href="#ArialMT-65" transform="translate(111.230469 0)"/>
      <use xlink:href="#ArialMT-72" transform="translate(166.845703 0)"/>
      <use xlink:href="#ArialMT-79" transform="translate(200.146484 0)"/>
      <use xlink:href="#ArialMT-41" transform="translate(250.146484 0)"/>
     </g>
    </g>
    <g id="line2d_20">
     <path d="M 363.853125 48.709688 
L 373.853125 48.709688 
L 383.853125 48.709688 
" style="fill: none; stroke: #ff7f0e; stroke-width: 2; stroke-linecap: round"/>
    </g>
    <g id="text_21">
     <!-- queryB -->
     <g style="fill: #262626" transform="translate(391.853125 52.209688) scale(0.1 -0.1)">
      <use xlink:href="#ArialMT-71"/>
      <use xlink:href="#ArialMT-75" transform="translate(55.615234 0)"/>
      <use xlink:href="#ArialMT-65" transform="translate(111.230469 0)"/>
      <use xlink:href="#ArialMT-72" transform="translate(166.845703 0)"/>
      <use xlink:href="#ArialMT-79" transform="translate(200.146484 0)"/>
      <use xlink:href="#ArialMT-42" transform="translate(250.146484 0)"/>
     </g>
    </g>
   </g>
  </g>
  <g id="axes_2">
   <g id="patch_8">
    <path d="M 457.517187 242.389375 
L 848.660937 242.389375 
L 848.660937 21.789375 
L 457.517187 21.789375 
z
" style="fill: #ffffff"/>
   </g>
   <g id="matplotlib.axis_3">
    <g id="xtick_8">
     <g id="line2d_21">
      <path d="M 457.517187 242.389375 
L 457.517187 21.789375 
" clip-path="url(#p51898ecc1b)" style="fill: none; stroke: #cccccc; stroke-opacity: 0.3; stroke-width: 0.8; stroke-linecap: round"/>
     </g>
     <g id="text_22">
      <!-- 0 -->
      <g style="fill: #262626" transform="translate(454.736719 256.547188) scale(0.1 -0.1)">
       <use xlink:href="#ArialMT-30"/>
      </g>
     </g>
    </g>
    <g id="xtick_9">
     <g id="line2d_22">
      <path d="M 516.602346 242.389375 
L 516.602346 21.789375 
" clip-path="url(#p51898ecc1b)" style="fill: none; stroke: #cccccc; stroke-opacity: 0.3; stroke-width: 0.8; stroke-linecap: round"/>
     </g>
     <g id="text_23">
      <!-- 50 -->
      <g style="fill: #262626" transform="translate(511.041409 256.547188) scale(0.1 -0.1)">
       <use xlink:href="#ArialMT-35"/>
       <use xlink:href="#ArialMT-30" transform="translate(55.615234 0)"/>
      </g>
     </g>
    </g>
    <g id="xtick_10">
     <g id="line2d_23">
      <path d="M 575.687505 242.389375 
L 575.687505 21.789375 
" clip-path="url(#p51898ecc1b)" style="fill: none; stroke: #cccccc; stroke-opacity: 0.3; stroke-width: 0.8; stroke-linecap: round"/>
     </g>
     <g id="text_24">
      <!-- 100 -->
      <g style="fill: #262626" transform="translate(567.346098 256.547188) scale(0.1 -0.1)">
       <use xlink:href="#ArialMT-31"/>
       <use xlink:href="#ArialMT-30" transform="translate(55.615234 0)"/>
       <use xlink:href="#ArialMT-30" transform="translate(111.230469 0)"/>
      </g>
     </g>
    </g>
    <g id="xtick_11">
     <g id="line2d_24">
      <path d="M 634.772663 242.389375 
L 634.772663 21.789375 
" clip-path="url(#p51898ecc1b)" style="fill: none; stroke: #cccccc; stroke-opacity: 0.3; stroke-width: 0.8; stroke-linecap: round"/>
     </g>
     <g id="text_25">
      <!-- 150 -->
      <g style="fill: #262626" transform="translate(626.431257 256.547188) scale(0.1 -0.1)">
       <use xlink:href="#ArialMT-31"/>
       <use xlink:href="#ArialMT-35" transform="translate(55.615234 0)"/>
       <use xlink:href="#ArialMT-30" transform="translate(111.230469 0)"/>
      </g>
     </g>
    </g>
    <g id="xtick_12">
     <g id="line2d_25">
      <path d="M 693.857822 242.389375 
L 693.857822 21.789375 
" clip-path="url(#p51898ecc1b)" style="fill: none; stroke: #cccccc; stroke-opacity: 0.3; stroke-width: 0.8; stroke-linecap: round"/>
     </g>
     <g id="text_26">
      <!-- 200 -->
      <g style="fill: #262626" transform="translate(685.516416 256.547188) scale(0.1 -0.1)">
       <use xlink:href="#ArialMT-32"/>
       <use xlink:href="#ArialMT-30" transform="translate(55.615234 0)"/>
       <use xlink:href="#ArialMT-30" transform="translate(111.230469 0)"/>
      </g>
     </g>
    </g>
    <g id="xtick_13">
     <g id="line2d_26">
      <path d="M 752.942981 242.389375 
L 752.942981 21.789375 
" clip-path="url(#p51898ecc1b)" style="fill: none; stroke: #cccccc; stroke-opacity: 0.3; stroke-width: 0.8; stroke-linecap: round"/>
     </g>
     <g id="text_27">
      <!-- 250 -->
      <g style="fill: #262626" transform="translate(744.601574 256.547188) scale(0.1 -0.1)">
       <use xlink:href="#ArialMT-32"/>
       <use xlink:href="#ArialMT-35" transform="translate(55.615234 0)"/>
       <use xlink:href="#ArialMT-30" transform="translate(111.230469 0)"/>
      </g>
     </g>
    </g>
    <g id="xtick_14">
     <g id="line2d_27">
      <path d="M 812.028139 242.389375 
L 812.028139 21.789375 
" clip-path="url(#p51898ecc1b)" style="fill: none; stroke: #cccccc; stroke-opacity: 0.3; stroke-width: 0.8; stroke-linecap: round"/>
     </g>
     <g id="text_28">
      <!-- 300 -->
      <g style="fill: #262626" transform="translate(803.686733 256.547188) scale(0.1 -0.1)">
       <use xlink:href="#ArialMT-33"/>
       <use xlink:href="#ArialMT-30" transform="translate(55.615234 0)"/>
       <use xlink:href="#ArialMT-30" transform="translate(111.230469 0)"/>
      </g>
     </g>
    </g>
    <g id="text_29">
     <!-- Elapsed Time (sec) -->
     <g style="fill: #262626" transform="translate(610.297656 269.814375) scale(0.1 -0.1)">
      <use xlink:href="#ArialMT-45"/>
      <use xlink:href="#ArialMT-6c" transform="translate(66.699219 0)"/>
      <use xlink:href="#ArialMT-61" transform="translate(88.916016 0)"/>
      <use xlink:href="#ArialMT-70" transform="translate(144.53125 0)"/>
      <use xlink:href="#ArialMT-73" transform="translate(200.146484 0)"/>
      <use xlink:href="#ArialMT-65" transform="translate(250.146484 0)"/>
      <use xlink:href="#ArialMT-64" transform="translate(305.761719 0)"/>
      <use xlink:href="#ArialMT-20" transform="translate(361.376953 0)"/>
      <use xlink:href="#ArialMT-54" transform="translate(387.410156 0)"/>
      <use xlink:href="#ArialMT-69" transform="translate(444.744141 0)"/>
      <use xlink:href="#ArialMT-6d" transform="translate(466.960938 0)"/>
      <use xlink:href="#ArialMT-65" transform="translate(550.261719 0)"/>
      <use xlink:href="#ArialMT-20" transform="translate(605.876953 0)"/>
      <use xlink:href="#ArialMT-28" transform="translate(633.660156 0)"/>
      <use xlink:href="#ArialMT-73" transform="translate(666.960938 0)"/>
      <use xlink:href="#ArialMT-65" transform="translate(716.960938 0)"/>
      <use xlink:href="#ArialMT-63" transform="translate(772.576172 0)"/>
      <use xlink:href="#ArialMT-29" transform="translate(822.576172 0)"/>
     </g>
    </g>
   </g>
   <g id="matplotlib.axis_4">
    <g id="ytick_10">
     <g id="line2d_28">
      <path d="M 457.517187 238.654429 
L 848.660937 238.654429 
" clip-path="url(#p51898ecc1b)" style="fill: none; stroke: #cccccc; stroke-opacity: 0.3; stroke-width: 0.8; stroke-linecap: round"/>
     </g>
    </g>
    <g id="ytick_11">
     <g id="line2d_29">
      <path d="M 457.517187 211.687313 
L 848.660937 211.687313 
" clip-path="url(#p51898ecc1b)" style="fill: none; stroke: #cccccc; stroke-opacity: 0.3; stroke-width: 0.8; stroke-linecap: round"/>
     </g>
    </g>
    <g id="ytick_12">
     <g id="line2d_30">
      <path d="M 457.517187 184.720197 
L 848.660937 184.720197 
" clip-path="url(#p51898ecc1b)" style="fill: none; stroke: #cccccc; stroke-opacity: 0.3; stroke-width: 0.8; stroke-linecap: round"/>
     </g>
    </g>
    <g id="ytick_13">
     <g id="line2d_31">
      <path d="M 457.517187 157.753081 
L 848.660937 157.753081 
" clip-path="url(#p51898ecc1b)" style="fill: none; stroke: #cccccc; stroke-opacity: 0.3; stroke-width: 0.8; stroke-linecap: round"/>
     </g>
    </g>
    <g id="ytick_14">
     <g id="line2d_32">
      <path d="M 457.517187 130.785964 
L 848.660937 130.785964 
" clip-path="url(#p51898ecc1b)" style="fill: none; stroke: #cccccc; stroke-opacity: 0.3; stroke-width: 0.8; stroke-linecap: round"/>
     </g>
    </g>
    <g id="ytick_15">
     <g id="line2d_33">
      <path d="M 457.517187 103.818848 
L 848.660937 103.818848 
" clip-path="url(#p51898ecc1b)" style="fill: none; stroke: #cccccc; stroke-opacity: 0.3; stroke-width: 0.8; stroke-linecap: round"/>
     </g>
    </g>
    <g id="ytick_16">
     <g id="line2d_34">
      <path d="M 457.517187 76.851732 
L 848.660937 76.851732 
" clip-path="url(#p51898ecc1b)" style="fill: none; stroke: #cccccc; stroke-opacity: 0.3; stroke-width: 0.8; stroke-linecap: round"/>
     </g>
    </g>
    <g id="ytick_17">
     <g id="line2d_35">
      <path d="M 457.517187 49.884616 
L 848.660937 49.884616 
" clip-path="url(#p51898ecc1b)" style="fill: none; stroke: #cccccc; stroke-opacity: 0.3; stroke-width: 0.8; stroke-linecap: round"/>
     </g>
    </g>
    <g id="ytick_18">
     <g id="line2d_36">
      <path d="M 457.517187 22.917499 
L 848.660937 22.917499 
" clip-path="url(#p51898ecc1b)" style="fill: none; stroke: #cccccc; stroke-opacity: 0.3; stroke-width: 0.8; stroke-linecap: round"/>
     </g>
    </g>
    <g id="text_30">
     <!-- Mean pkg_j per 1s Bin -->
     <g style="fill: #262626" transform="translate(451.4125 181.837031) rotate(-90) scale(0.1 -0.1)">
      <use xlink:href="#ArialMT-4d"/>
      <use xlink:href="#ArialMT-65" transform="translate(83.300781 0)"/>
      <use xlink:href="#ArialMT-61" transform="translate(138.916016 0)"/>
      <use xlink:href="#ArialMT-6e" transform="translate(194.53125 0)"/>
      <use xlink:href="#ArialMT-20" transform="translate(250.146484 0)"/>
      <use xlink:href="#ArialMT-70" transform="translate(277.929688 0)"/>
      <use xlink:href="#ArialMT-6b" transform="translate(333.544922 0)"/>
      <use xlink:href="#ArialMT-67" transform="translate(383.544922 0)"/>
      <use xlink:href="#ArialMT-5f" transform="translate(439.160156 0)"/>
      <use xlink:href="#ArialMT-6a" transform="translate(494.775391 0)"/>
      <use xlink:href="#ArialMT-20" transform="translate(516.992188 0)"/>
      <use xlink:href="#ArialMT-70" transform="translate(544.775391 0)"/>
      <use xlink:href="#ArialMT-65" transform="translate(600.390625 0)"/>
      <use xlink:href="#ArialMT-72" transform="translate(656.005859 0)"/>
      <use xlink:href="#ArialMT-20" transform="translate(689.306641 0)"/>
      <use xlink:href="#ArialMT-31" transform="translate(717.089844 0)"/>
      <use xlink:href="#ArialMT-73" transform="translate(772.705078 0)"/>
      <use xlink:href="#ArialMT-20" transform="translate(822.705078 0)"/>
      <use xlink:href="#ArialMT-42" transform="translate(850.488281 0)"/>
      <use xlink:href="#ArialMT-69" transform="translate(917.1875 0)"/>
      <use xlink:href="#ArialMT-6e" transform="translate(939.404297 0)"/>
     </g>
    </g>
   </g>
   <g id="line2d_37">
    <path d="M 457.517187 189.304607 
L 458.698891 189.034935 
L 459.880594 188.495593 
L 461.062297 185.798882 
L 462.244 188.225922 
L 463.425703 186.338224 
L 464.607407 184.180855 
L 465.78911 187.416909 
L 466.970813 187.147237 
L 469.334219 184.989868 
L 470.515922 186.338224 
L 471.697626 186.338224 
L 472.879329 183.641512 
L 474.061032 176.899733 
L 475.242735 186.607895 
L 476.424438 183.371841 
L 477.606141 186.877566 
L 479.969548 184.180855 
L 481.151251 184.720197 
L 482.332954 186.877566 
L 483.514657 186.607895 
L 484.69636 183.10217 
L 485.878064 186.068553 
L 487.059767 186.338224 
L 488.24147 182.832499 
L 489.423173 186.817639 
L 490.604876 186.607895 
L 491.786579 184.180855 
L 492.968283 184.720197 
L 494.149986 186.877566 
L 495.331689 186.607895 
L 496.513392 183.10217 
L 497.695095 185.798882 
L 498.876799 186.068553 
L 500.058502 182.293156 
L 501.240205 186.338224 
L 502.421908 185.798882 
L 503.603611 183.371841 
L 504.785314 185.259539 
L 505.967018 186.338224 
L 507.148721 185.52921 
L 508.330424 182.562828 
L 509.512127 176.09072 
L 510.69383 184.720197 
L 511.875533 182.293156 
L 513.057237 186.338224 
L 514.23894 186.338224 
L 515.420643 182.023485 
L 516.602346 186.068553 
L 517.784049 186.068553 
L 518.965752 185.619101 
L 520.147456 181.753814 
L 521.329159 185.52921 
L 522.510862 184.450526 
L 523.692565 179.326774 
L 524.874268 184.720197 
L 526.055971 185.259539 
L 527.237675 182.293156 
L 528.419378 184.720197 
L 529.601081 185.259539 
L 530.782784 184.450526 
L 531.964487 182.562828 
L 533.146191 184.720197 
L 534.327894 185.259539 
L 535.509597 182.293156 
L 536.6913 185.259539 
L 537.873003 186.338224 
L 539.054706 180.944801 
L 540.23641 184.720197 
L 541.418113 184.720197 
L 542.599816 183.10217 
L 543.781519 184.180855 
L 544.963222 175.551377 
L 546.144925 185.019832 
L 547.326629 181.214472 
L 548.508332 185.259539 
L 549.690035 176.360391 
L 550.871738 180.944801 
L 552.053441 184.989868 
L 553.235144 184.450526 
L 554.416848 182.832499 
L 555.598551 183.911183 
L 557.961957 185.52921 
L 559.14366 180.944801 
L 560.325363 184.720197 
L 561.507067 185.259539 
L 562.68877 181.214472 
L 563.870473 184.450526 
L 565.052176 184.450526 
L 566.233879 180.944801 
L 567.415583 184.450526 
L 568.597286 184.180855 
L 569.778989 185.259539 
L 570.960692 181.484143 
L 572.142395 184.720197 
L 573.324098 184.720197 
L 574.505802 182.023485 
L 575.687505 184.450526 
L 576.869208 184.720197 
L 578.050911 181.753814 
L 579.232614 183.911183 
L 580.414317 175.281706 
L 581.596021 184.180855 
L 582.777724 181.214472 
L 583.959427 184.450526 
L 585.14113 184.720197 
L 586.322833 181.484143 
L 587.504536 184.450526 
L 588.68624 184.720197 
L 589.867943 181.214472 
L 591.049646 184.450526 
L 592.231349 184.180855 
L 593.413052 182.293156 
L 594.594755 182.023485 
L 595.776459 184.450526 
L 596.958162 184.180855 
L 598.139865 181.484143 
L 599.321568 184.180855 
L 600.503271 184.420562 
L 601.684975 181.484143 
L 602.866678 184.720197 
L 604.048381 184.720197 
L 605.230084 183.10217 
L 606.411787 182.832499 
L 607.59349 184.989868 
L 608.775194 184.989868 
L 609.956897 181.484143 
L 611.1386 184.180855 
L 612.320303 184.450526 
L 613.502006 181.214472 
L 614.683709 184.450526 
L 615.865413 176.360391 
L 617.047116 182.562828 
L 618.228819 182.562828 
L 619.410522 184.720197 
L 620.592225 184.180855 
L 621.773928 180.405458 
L 622.955632 183.911183 
L 624.137335 184.180855 
L 625.319038 181.214472 
L 626.500741 185.52921 
L 627.682444 185.259539 
L 628.864147 183.222024 
L 630.045851 182.832499 
L 631.227554 184.720197 
L 632.409257 184.989868 
L 633.59096 180.944801 
L 634.772663 184.720197 
L 635.954367 184.989868 
L 637.13607 182.023485 
L 638.317773 185.52921 
L 639.499476 185.52921 
L 640.681179 182.562828 
L 641.862882 185.259539 
L 643.044586 186.338224 
L 644.226289 184.450526 
L 645.407992 182.832499 
L 646.589695 185.798882 
L 647.771398 185.259539 
L 648.953101 182.832499 
L 650.134805 186.068553 
L 651.316508 176.360391 
L 652.498211 182.293156 
L 653.679914 186.338224 
L 654.861617 186.068553 
L 656.04332 184.720197 
L 657.225024 183.641512 
L 658.406727 186.068553 
L 659.58843 186.338224 
L 660.770133 182.32312 
L 661.951836 186.607895 
L 663.133539 186.068553 
L 664.315243 182.562828 
L 665.496946 185.798882 
L 666.678649 186.877566 
L 667.860352 184.450526 
L 669.042055 184.180855 
L 670.223758 186.338224 
L 671.405462 186.338224 
L 672.587165 181.753814 
L 673.768868 186.607895 
L 674.950571 186.877566 
L 676.132274 182.832499 
L 677.313978 186.877566 
L 678.495681 186.068553 
L 679.677384 184.720197 
L 680.859087 184.450526 
L 682.04079 185.798882 
L 683.222493 186.877566 
L 684.404197 182.562828 
L 685.5859 186.068553 
L 686.767603 177.708747 
L 687.949306 182.293156 
L 689.131009 185.798882 
L 690.312712 186.338224 
L 691.494416 183.521658 
L 692.676119 184.720197 
L 693.857822 186.338224 
L 695.039525 186.877566 
L 696.221228 181.484143 
L 697.402931 186.607895 
L 698.584635 186.338224 
L 699.766338 182.562828 
L 700.948041 186.338224 
L 702.129744 186.338224 
L 703.311447 183.641512 
L 704.49315 186.068553 
L 705.674854 186.877566 
L 706.856557 186.068553 
L 708.03826 182.023485 
L 709.219963 186.877566 
L 710.401666 186.607895 
L 711.58337 182.293156 
L 712.765073 186.068553 
L 713.946776 186.338224 
L 715.128479 182.562828 
L 716.310182 186.877566 
L 717.491885 186.068553 
L 718.673589 185.52921 
L 719.855292 183.641512 
L 721.036995 186.607895 
L 722.218698 179.057102 
L 723.400401 182.023485 
L 724.582104 186.817639 
L 725.763808 186.877566 
L 726.945511 181.484143 
L 728.127214 185.798882 
L 729.308917 186.607895 
L 730.49062 185.798882 
L 731.672323 183.911183 
L 732.854027 185.798882 
L 734.03573 186.607895 
L 735.217433 183.371841 
L 736.399136 186.338224 
L 737.580839 186.607895 
L 738.762542 182.832499 
L 739.944246 186.338224 
L 741.125949 186.607895 
L 742.307652 184.180855 
L 743.489355 184.720197 
L 744.671058 186.338224 
L 745.852762 186.607895 
L 747.034465 183.371841 
L 748.216168 186.607895 
L 749.397871 186.338224 
L 750.579574 183.371841 
L 751.761277 186.068553 
L 752.942981 186.068553 
L 754.124684 182.832499 
L 755.306387 186.338224 
L 756.48809 185.798882 
L 757.669793 181.484143 
L 758.851496 183.10217 
L 760.0332 186.068553 
L 761.214903 186.817639 
L 762.396606 182.293156 
L 763.578309 186.877566 
L 764.760012 186.607895 
L 765.941715 183.10217 
L 767.123419 185.52921 
L 768.305122 186.068553 
L 769.486825 185.798882 
L 770.668528 183.10217 
L 771.850231 186.068553 
L 773.031934 186.877566 
L 774.213638 182.562828 
L 775.395341 186.338224 
L 776.577044 186.877566 
L 777.758747 183.641512 
L 778.94045 186.338224 
L 780.122154 186.607895 
L 781.303857 184.180855 
L 782.48556 184.720197 
L 783.667263 186.607895 
L 784.848966 186.338224 
L 786.030669 182.832499 
L 787.212373 186.338224 
L 788.394076 179.326774 
L 789.575779 182.832499 
L 790.757482 186.877566 
L 791.939185 186.068553 
L 793.120888 182.832499 
L 794.302592 185.259539 
L 795.484295 186.068553 
L 796.665998 186.338224 
L 797.847701 183.10217 
L 799.029404 185.918735 
L 800.211107 186.068553 
L 801.392811 182.562828 
L 802.574514 186.068553 
L 803.756217 186.877566 
L 804.93792 183.641512 
L 806.119623 185.259539 
L 807.301326 186.607895 
L 808.48303 186.607895 
L 809.664733 183.371841 
L 810.846436 186.068553 
L 812.028139 186.877566 
L 813.209842 183.10217 
L 814.391546 186.607895 
L 815.573249 186.877566 
L 816.754952 182.832499 
L 817.936655 186.068553 
L 819.118358 186.338224 
L 820.300061 186.338224 
L 821.481765 183.10217 
L 822.663468 186.068553 
L 823.845171 186.607895 
L 825.026874 182.832499 
L 826.208577 186.338224 
L 827.39028 185.798882 
L 828.571984 182.293156 
L 829.753687 186.607895 
L 830.93539 186.068553 
L 832.117093 184.989868 
L 833.298796 184.180855 
L 834.480499 186.607895 
L 835.662203 186.607895 
L 836.843906 182.922389 
L 838.025609 186.877566 
L 839.207312 186.877566 
L 840.389015 182.293156 
L 841.570718 187.416909 
L 842.752422 186.607895 
L 845.115828 183.911183 
L 846.297531 186.607895 
L 847.479234 186.068553 
L 848.660937 232.362102 
L 848.660937 232.362102 
" clip-path="url(#p51898ecc1b)" style="fill: none; stroke: #1f77b4; stroke-width: 2; stroke-linecap: round"/>
   </g>
   <g id="line2d_38">
    <path d="M 457.517187 188.225922 
L 458.698891 187.147237 
L 459.880594 187.416909 
L 461.062297 184.720197 
L 462.244 186.338224 
L 463.425703 180.405458 
L 464.607407 184.180855 
L 465.78911 186.877566 
L 466.970813 186.607895 
L 468.152516 185.798882 
L 469.334219 185.259539 
L 470.515922 186.068553 
L 471.697626 186.607895 
L 472.879329 183.911183 
L 474.061032 186.068553 
L 475.242735 186.607895 
L 476.424438 182.562828 
L 477.606141 186.068553 
L 478.787845 186.877566 
L 479.969548 184.989868 
L 481.151251 185.259539 
L 482.332954 183.371841 
L 483.514657 185.52921 
L 484.69636 181.214472 
L 485.878064 186.068553 
L 487.059767 185.798882 
L 488.24147 182.023485 
L 489.423173 185.019832 
L 490.604876 176.360391 
L 491.786579 182.832499 
L 492.968283 183.641512 
L 494.149986 184.720197 
L 495.331689 184.989868 
L 496.513392 181.753814 
L 497.695095 184.450526 
L 498.876799 185.52921 
L 500.058502 180.675129 
L 501.240205 184.180855 
L 502.421908 185.259539 
L 503.603611 182.293156 
L 504.785314 184.989868 
L 505.967018 186.068553 
L 507.148721 184.720197 
L 508.330424 183.911183 
L 509.512127 186.338224 
L 510.69383 186.607895 
L 511.875533 181.484143 
L 513.057237 186.338224 
L 514.23894 186.607895 
L 515.420643 183.10217 
L 516.602346 178.51776 
L 517.784049 186.607895 
L 518.965752 185.619101 
L 520.147456 184.180855 
L 521.329159 186.068553 
L 522.510862 186.877566 
L 523.692565 183.371841 
L 524.874268 186.338224 
L 526.055971 176.09072 
L 527.237675 183.371841 
L 528.419378 186.607895 
L 529.601081 186.877566 
L 530.782784 183.911183 
L 531.964487 184.450526 
L 533.146191 182.293156 
L 534.327894 186.338224 
L 535.509597 183.10217 
L 536.6913 186.338224 
L 537.873003 186.607895 
L 539.054706 180.405458 
L 540.23641 186.607895 
L 541.418113 186.607895 
L 542.599816 184.180855 
L 543.781519 184.989868 
L 544.963222 186.877566 
L 546.144925 186.338224 
L 547.326629 182.562828 
L 548.508332 185.798882 
L 549.690035 186.338224 
L 550.871738 183.371841 
L 552.053441 186.877566 
L 553.235144 185.798882 
L 554.416848 184.420562 
L 555.598551 184.720197 
L 556.780254 186.068553 
L 557.961957 186.607895 
L 559.14366 183.371841 
L 560.325363 186.068553 
L 561.507067 176.360391 
L 562.68877 183.10217 
L 563.870473 186.068553 
L 565.052176 186.877566 
L 566.233879 183.371841 
L 567.415583 185.798882 
L 568.597286 186.338224 
L 569.778989 186.607895 
L 570.960692 183.641512 
L 572.142395 186.607895 
L 573.324098 185.52921 
L 574.505802 182.832499 
L 575.687505 186.607895 
L 576.869208 186.338224 
L 578.050911 182.293156 
L 579.232614 186.607895 
L 580.414317 186.338224 
L 581.596021 184.989868 
L 582.777724 184.450526 
L 583.959427 186.877566 
L 585.14113 185.798882 
L 586.322833 182.023485 
L 587.504536 186.338224 
L 588.68624 186.068553 
L 589.867943 182.832499 
L 591.049646 186.068553 
L 592.231349 186.068553 
L 593.413052 184.720197 
L 594.594755 184.180855 
L 595.776459 186.338224 
L 596.958162 179.866116 
L 598.139865 182.562828 
L 599.321568 186.607895 
L 600.503271 186.877566 
L 601.684975 183.10217 
L 602.866678 186.607895 
L 604.048381 186.338224 
L 605.230084 184.450526 
L 606.411787 184.989868 
L 607.59349 185.798882 
L 608.775194 186.068553 
L 609.956897 182.293156 
L 611.1386 186.068553 
L 612.320303 186.877566 
L 613.502006 182.293156 
L 614.683709 186.068553 
L 615.865413 186.338224 
L 617.047116 183.641512 
L 618.228819 186.338224 
L 619.410522 186.068553 
L 620.592225 185.259539 
L 621.773928 183.10217 
L 622.955632 186.068553 
L 624.137335 186.607895 
L 625.319038 182.832499 
L 626.500741 186.068553 
L 627.682444 186.068553 
L 628.864147 180.944801 
L 630.045851 185.918735 
L 631.227554 185.798882 
L 632.409257 182.023485 
L 633.59096 183.371841 
L 634.772663 186.068553 
L 635.954367 186.338224 
L 637.13607 181.484143 
L 638.317773 186.068553 
L 639.499476 186.068553 
L 640.681179 182.293156 
L 641.862882 186.607895 
L 643.044586 185.798882 
L 644.226289 184.180855 
L 645.407992 182.293156 
L 646.589695 186.068553 
L 647.771398 186.338224 
L 648.953101 182.023485 
L 650.134805 186.068553 
L 651.316508 185.798882 
L 652.498211 182.023485 
L 653.679914 186.607895 
L 654.861617 186.607895 
L 656.04332 182.922389 
L 657.225024 183.371841 
L 658.406727 186.068553 
L 659.58843 186.607895 
L 660.770133 178.248089 
L 661.951836 186.068553 
L 663.133539 185.259539 
L 664.315243 181.753814 
L 665.496946 186.338224 
L 666.678649 186.068553 
L 667.860352 181.484143 
L 669.042055 185.52921 
L 671.405462 186.068553 
L 672.587165 182.562828 
L 673.768868 186.607895 
L 674.950571 185.798882 
L 676.132274 182.562828 
L 677.313978 186.338224 
L 678.495681 180.675129 
L 679.677384 182.293156 
L 680.859087 186.068553 
L 682.04079 186.068553 
L 683.222493 184.989868 
L 684.404197 183.521658 
L 685.5859 186.877566 
L 686.767603 179.596445 
L 687.949306 181.484143 
L 689.131009 186.338224 
L 690.312712 186.338224 
L 691.494416 181.214472 
L 692.676119 186.068553 
L 693.857822 186.338224 
L 696.221228 183.641512 
L 697.402931 186.338224 
L 698.584635 185.798882 
L 699.766338 181.753814 
L 700.948041 186.068553 
L 702.129744 184.989868 
L 703.311447 180.675129 
L 704.49315 185.52921 
L 705.674854 184.989868 
L 706.856557 182.832499 
L 708.03826 184.450526 
L 709.219963 186.338224 
L 710.401666 186.068553 
L 711.58337 182.023485 
L 712.765073 186.338224 
L 713.946776 185.619101 
L 715.128479 182.023485 
L 716.310182 186.068553 
L 717.491885 185.798882 
L 718.673589 184.720197 
L 719.855292 184.450526 
L 721.036995 186.338224 
L 722.218698 185.52921 
L 723.400401 182.562828 
L 724.582104 186.607895 
L 725.763808 186.607895 
L 726.945511 181.753814 
L 728.127214 185.259539 
L 729.308917 185.259539 
L 730.49062 181.484143 
L 731.672323 185.259539 
L 732.854027 186.338224 
L 734.03573 186.338224 
L 735.217433 182.832499 
L 736.399136 185.798882 
L 737.580839 184.720197 
L 738.762542 182.023485 
L 739.944246 186.338224 
L 741.125949 186.068553 
L 742.307652 182.023485 
L 743.489355 186.068553 
L 745.852762 184.989868 
L 747.034465 182.922389 
L 748.216168 186.338224 
L 749.397871 186.068553 
L 750.579574 182.562828 
L 751.761277 186.338224 
L 752.942981 186.068553 
L 754.124684 182.832499 
L 755.306387 186.068553 
L 756.48809 186.607895 
L 757.669793 183.641512 
L 758.851496 184.450526 
L 760.0332 184.450526 
L 761.214903 185.52921 
L 762.396606 181.753814 
L 763.578309 186.068553 
L 764.760012 186.607895 
L 765.941715 181.753814 
L 767.123419 184.989868 
L 768.305122 186.338224 
L 769.486825 183.10217 
L 770.668528 183.911183 
L 771.850231 185.798882 
L 773.031934 185.798882 
L 774.213638 174.742364 
L 775.395341 186.068553 
L 776.577044 186.338224 
L 777.758747 180.824947 
L 778.94045 186.338224 
L 780.122154 185.52921 
L 781.303857 183.641512 
L 782.48556 183.911183 
L 784.848966 186.068553 
L 786.030669 181.753814 
L 787.212373 186.877566 
L 788.394076 186.338224 
L 789.575779 182.023485 
L 790.757482 186.068553 
L 791.939185 186.068553 
L 793.120888 182.023485 
L 794.302592 185.52921 
L 795.484295 186.338224 
L 796.665998 185.259539 
L 797.847701 181.753814 
L 799.029404 185.798882 
L 800.211107 186.338224 
L 801.392811 181.484143 
L 802.574514 185.52921 
L 803.756217 185.259539 
L 804.93792 181.723851 
L 806.119623 186.607895 
L 808.48303 186.607895 
L 809.664733 176.360391 
L 810.846436 184.989868 
L 812.028139 185.52921 
L 813.209842 182.293156 
L 814.391546 185.52921 
L 815.573249 184.720197 
L 816.754952 182.293156 
L 817.936655 185.798882 
L 819.118358 184.450526 
L 820.300061 184.720197 
L 821.481765 182.293156 
L 822.663468 185.52921 
L 823.845171 185.259539 
L 825.026874 183.10217 
L 826.208577 185.798882 
L 827.39028 184.450526 
L 828.571984 181.484143 
L 829.753687 185.52921 
L 830.93539 185.259539 
L 832.117093 183.371841 
L 833.298796 183.371841 
L 834.480499 184.989868 
L 835.662203 185.52921 
L 836.843906 180.525312 
L 838.025609 185.52921 
L 839.207312 186.338224 
L 840.389015 182.293156 
L 841.570718 183.10217 
L 842.752422 184.989868 
L 843.934125 183.911183 
L 845.115828 178.51776 
L 846.297531 184.989868 
L 847.479234 185.259539 
L 848.660937 228.766487 
L 848.660937 228.766487 
" clip-path="url(#p51898ecc1b)" style="fill: none; stroke: #ff7f0e; stroke-width: 2; stroke-linecap: round"/>
   </g>
   <g id="patch_9">
    <path d="M 457.517187 242.389375 
L 457.517187 21.789375 
" style="fill: none; stroke: #cccccc; stroke-width: 0.8; stroke-linejoin: miter; stroke-linecap: square"/>
   </g>
   <g id="patch_10">
    <path d="M 848.660937 242.389375 
L 848.660937 21.789375 
" style="fill: none; stroke: #cccccc; stroke-width: 0.8; stroke-linejoin: miter; stroke-linecap: square"/>
   </g>
   <g id="patch_11">
    <path d="M 457.517187 242.389375 
L 848.660937 242.389375 
" style="fill: none; stroke: #cccccc; stroke-width: 0.8; stroke-linejoin: miter; stroke-linecap: square"/>
   </g>
   <g id="patch_12">
    <path d="M 457.517187 21.789375 
L 848.660937 21.789375 
" style="fill: none; stroke: #cccccc; stroke-width: 0.8; stroke-linejoin: miter; stroke-linecap: square"/>
   </g>
   <g id="text_31">
    <!-- APX1092 — PC1 1 core -->
    <g style="fill: #262626" transform="translate(588.389375 15.789375) scale(0.12 -0.12)">
     <use xlink:href="#ArialMT-41"/>
     <use xlink:href="#ArialMT-50" transform="translate(66.699219 0)"/>
     <use xlink:href="#ArialMT-58" transform="translate(133.398438 0)"/>
     <use xlink:href="#ArialMT-31" transform="translate(200.097656 0)"/>
     <use xlink:href="#ArialMT-30" transform="translate(255.712891 0)"/>
     <use xlink:href="#ArialMT-39" transform="translate(311.328125 0)"/>
     <use xlink:href="#ArialMT-32" transform="translate(366.943359 0)"/>
     <use xlink:href="#ArialMT-20" transform="translate(422.558594 0)"/>
     <use xlink:href="#ArialMT-2014" transform="translate(450.341797 0)"/>
     <use xlink:href="#ArialMT-20" transform="translate(550.341797 0)"/>
     <use xlink:href="#ArialMT-50" transform="translate(578.125 0)"/>
     <use xlink:href="#ArialMT-43" transform="translate(644.824219 0)"/>
     <use xlink:href="#ArialMT-31" transform="translate(717.041016 0)"/>
     <use xlink:href="#ArialMT-20" transform="translate(772.65625 0)"/>
     <use xlink:href="#ArialMT-31" transform="translate(800.439453 0)"/>
     <use xlink:href="#ArialMT-20" transform="translate(856.054688 0)"/>
     <use xlink:href="#ArialMT-63" transform="translate(883.837891 0)"/>
     <use xlink:href="#ArialMT-6f" transform="translate(933.837891 0)"/>
     <use xlink:href="#ArialMT-72" transform="translate(989.453125 0)"/>
     <use xlink:href="#ArialMT-65" transform="translate(1022.753906 0)"/>
    </g>
   </g>
   <g id="legend_2">
    <g id="patch_13">
     <path d="M 777.978125 58.314375 
L 841.660937 58.314375 
Q 843.660937 58.314375 843.660937 56.314375 
L 843.660937 28.789375 
Q 843.660937 26.789375 841.660937 26.789375 
L 777.978125 26.789375 
Q 775.978125 26.789375 775.978125 28.789375 
L 775.978125 56.314375 
Q 775.978125 58.314375 777.978125 58.314375 
z
" style="fill: #ffffff; opacity: 0.8; stroke: #cccccc; stroke-linejoin: miter"/>
    </g>
    <g id="line2d_39">
     <path d="M 779.978125 34.447188 
L 789.978125 34.447188 
L 799.978125 34.447188 
" style="fill: none; stroke: #1f77b4; stroke-width: 2; stroke-linecap: round"/>
    </g>
    <g id="text_32">
     <!-- queryA -->
     <g style="fill: #262626" transform="translate(807.978125 37.947188) scale(0.1 -0.1)">
      <use xlink:href="#ArialMT-71"/>
      <use xlink:href="#ArialMT-75" transform="translate(55.615234 0)"/>
      <use xlink:href="#ArialMT-65" transform="translate(111.230469 0)"/>
      <use xlink:href="#ArialMT-72" transform="translate(166.845703 0)"/>
      <use xlink:href="#ArialMT-79" transform="translate(200.146484 0)"/>
      <use xlink:href="#ArialMT-41" transform="translate(250.146484 0)"/>
     </g>
    </g>
    <g id="line2d_40">
     <path d="M 779.978125 48.709688 
L 789.978125 48.709688 
L 799.978125 48.709688 
" style="fill: none; stroke: #ff7f0e; stroke-width: 2; stroke-linecap: round"/>
    </g>
    <g id="text_33">
     <!-- queryB -->
     <g style="fill: #262626" transform="translate(807.978125 52.209688) scale(0.1 -0.1)">
      <use xlink:href="#ArialMT-71"/>
      <use xlink:href="#ArialMT-75" transform="translate(55.615234 0)"/>
      <use xlink:href="#ArialMT-65" transform="translate(111.230469 0)"/>
      <use xlink:href="#ArialMT-72" transform="translate(166.845703 0)"/>
      <use xlink:href="#ArialMT-79" transform="translate(200.146484 0)"/>
      <use xlink:href="#ArialMT-42" transform="translate(250.146484 0)"/>
     </g>
    </g>
   </g>
  </g>
 </g>
 <defs>
  <clipPath id="p340d9400ee">
   <rect x="41.392188" y="21.789375" width="391.14375" height="220.6"/>
  </clipPath>
  <clipPath id="p51898ecc1b">
   <rect x="457.517187" y="21.789375" width="391.14375" height="220.6"/>
  </clipPath>
 </defs>
</svg>
