<?xml version="1.0" encoding="utf-8" standalone="no"?>
<!DOCTYPE svg PUBLIC "-//W3C//DTD SVG 1.1//EN"
  "http://www.w3.org/Graphics/SVG/1.1/DTD/svg11.dtd">
<svg xmlns:xlink="http://www.w3.org/1999/xlink" width="856.047187pt" height="315.119063pt" viewBox="0 0 856.047187 315.119063" xmlns="http://www.w3.org/2000/svg" version="1.1">
 <metadata>
  <rdf:RDF xmlns:dc="http://purl.org/dc/elements/1.1/" xmlns:cc="http://creativecommons.org/ns#" xmlns:rdf="http://www.w3.org/1999/02/22-rdf-syntax-ns#">
   <cc:Work>
    <dc:type rdf:resource="http://purl.org/dc/dcmitype/StillImage"/>
    <dc:date>2026-05-26T16:50:37.058877</dc:date>
    <dc:format>image/svg+xml</dc:format>
    <dc:creator>
     <cc:Agent>
      <dc:title>Matplotlib v3.10.1, https://matplotlib.org/</dc:title>
     </cc:Agent>
    </dc:creator>
   </cc:Work>
  </rdf:RDF>
 </metadata>
 <defs>
  <style type="text/css">*{stroke-linejoin: round; stroke-linecap: butt}</style>
 </defs>
 <g id="figure_1">
  <g id="patch_1">
   <path d="M 0 315.119063 
L 856.047187 315.119063 
L 856.047187 0 
L 0 0 
z
" style="fill: #ffffff"/>
  </g>
  <g id="axes_1">
   <g id="patch_2">
    <path d="M 44.267188 278.389375 
L 434.117188 278.389375 
L 434.117188 21.789375 
L 44.267188 21.789375 
z
" style="fill: #ffffff"/>
   </g>
   <g id="matplotlib.axis_1">
    <g id="xtick_1">
     <g id="line2d_1">
      <path d="M 44.267188 278.389375 
L 44.267188 21.789375 
" clip-path="url(#pa904a83d86)" style="fill: none; stroke: #cccccc; stroke-opacity: 0.2; stroke-width: 0.8; stroke-linecap: round"/>
     </g>
     <g id="text_1">
      <!-- 0 -->
      <g style="fill: #262626" transform="translate(41.486719 292.547188) scale(0.1 -0.1)">
       <defs>
        <path id="ArialMT-30" d="M 266 2259 
Q 266 3072 433 3567 
Q 600 4063 929 4331 
Q 1259 4600 1759 4600 
Q 2128 4600 2406 4451 
Q 2684 4303 2865 4023 
Q 3047 3744 3150 3342 
Q 3253 2941 3253 2259 
Q 3253 1453 3087 958 
Q 2922 463 2592 192 
Q 2263 -78 1759 -78 
Q 1097 -78 719 397 
Q 266 969 266 2259 
z
M 844 2259 
Q 844 1131 1108 757 
Q 1372 384 1759 384 
Q 2147 384 2411 759 
Q 2675 1134 2675 2259 
Q 2675 3391 2411 3762 
Q 2147 4134 1753 4134 
Q 1366 4134 1134 3806 
Q 844 3388 844 2259 
z
" transform="scale(0.015625)"/>
       </defs>
       <use xlink:href="#ArialMT-30"/>
      </g>
     </g>
    </g>
    <g id="xtick_2">
     <g id="line2d_2">
      <path d="M 90.95581 278.389375 
L 90.95581 21.789375 
" clip-path="url(#pa904a83d86)" style="fill: none; stroke: #cccccc; stroke-opacity: 0.2; stroke-width: 0.8; stroke-linecap: round"/>
     </g>
     <g id="text_2">
      <!-- 20 -->
      <g style="fill: #262626" transform="translate(85.394873 292.547188) scale(0.1 -0.1)">
       <defs>
        <path id="ArialMT-32" d="M 3222 541 
L 3222 0 
L 194 0 
Q 188 203 259 391 
Q 375 700 629 1000 
Q 884 1300 1366 1694 
Q 2113 2306 2375 2664 
Q 2638 3022 2638 3341 
Q 2638 3675 2398 3904 
Q 2159 4134 1775 4134 
Q 1369 4134 1125 3890 
Q 881 3647 878 3216 
L 300 3275 
Q 359 3922 746 4261 
Q 1134 4600 1788 4600 
Q 2447 4600 2831 4234 
Q 3216 3869 3216 3328 
Q 3216 3053 3103 2787 
Q 2991 2522 2730 2228 
Q 2469 1934 1863 1422 
Q 1356 997 1212 845 
Q 1069 694 975 541 
L 3222 541 
z
" transform="scale(0.015625)"/>
       </defs>
       <use xlink:href="#ArialMT-32"/>
       <use xlink:href="#ArialMT-30" transform="translate(55.615234 0)"/>
      </g>
     </g>
    </g>
    <g id="xtick_3">
     <g id="line2d_3">
      <path d="M 137.644433 278.389375 
L 137.644433 21.789375 
" clip-path="url(#pa904a83d86)" style="fill: none; stroke: #cccccc; stroke-opacity: 0.2; stroke-width: 0.8; stroke-linecap: round"/>
     </g>
     <g id="text_3">
      <!-- 40 -->
      <g style="fill: #262626" transform="translate(132.083496 292.547188) scale(0.1 -0.1)">
       <defs>
        <path id="ArialMT-34" d="M 2069 0 
L 2069 1097 
L 81 1097 
L 81 1613 
L 2172 4581 
L 2631 4581 
L 2631 1613 
L 3250 1613 
L 3250 1097 
L 2631 1097 
L 2631 0 
L 2069 0 
z
M 2069 1613 
L 2069 3678 
L 634 1613 
L 2069 1613 
z
" transform="scale(0.015625)"/>
       </defs>
       <use xlink:href="#ArialMT-34"/>
       <use xlink:href="#ArialMT-30" transform="translate(55.615234 0)"/>
      </g>
     </g>
    </g>
    <g id="xtick_4">
     <g id="line2d_4">
      <path d="M 184.333056 278.389375 
L 184.333056 21.789375 
" clip-path="url(#pa904a83d86)" style="fill: none; stroke: #cccccc; stroke-opacity: 0.2; stroke-width: 0.8; stroke-linecap: round"/>
     </g>
     <g id="text_4">
      <!-- 60 -->
      <g style="fill: #262626" transform="translate(178.772118 292.547188) scale(0.1 -0.1)">
       <defs>
        <path id="ArialMT-36" d="M 3184 3459 
L 2625 3416 
Q 2550 3747 2413 3897 
Q 2184 4138 1850 4138 
Q 1581 4138 1378 3988 
Q 1113 3794 959 3422 
Q 806 3050 800 2363 
Q 1003 2672 1297 2822 
Q 1591 2972 1913 2972 
Q 2475 2972 2870 2558 
Q 3266 2144 3266 1488 
Q 3266 1056 3080 686 
Q 2894 316 2569 119 
Q 2244 -78 1831 -78 
Q 1128 -78 684 439 
Q 241 956 241 2144 
Q 241 3472 731 4075 
Q 1159 4600 1884 4600 
Q 2425 4600 2770 4297 
Q 3116 3994 3184 3459 
z
M 888 1484 
Q 888 1194 1011 928 
Q 1134 663 1356 523 
Q 1578 384 1822 384 
Q 2178 384 2434 671 
Q 2691 959 2691 1453 
Q 2691 1928 2437 2201 
Q 2184 2475 1800 2475 
Q 1419 2475 1153 2201 
Q 888 1928 888 1484 
z
" transform="scale(0.015625)"/>
       </defs>
       <use xlink:href="#ArialMT-36"/>
       <use xlink:href="#ArialMT-30" transform="translate(55.615234 0)"/>
      </g>
     </g>
    </g>
    <g id="xtick_5">
     <g id="line2d_5">
      <path d="M 231.021679 278.389375 
L 231.021679 21.789375 
" clip-path="url(#pa904a83d86)" style="fill: none; stroke: #cccccc; stroke-opacity: 0.2; stroke-width: 0.8; stroke-linecap: round"/>
     </g>
     <g id="text_5">
      <!-- 80 -->
      <g style="fill: #262626" transform="translate(225.460741 292.547188) scale(0.1 -0.1)">
       <defs>
        <path id="ArialMT-38" d="M 1131 2484 
Q 781 2613 612 2850 
Q 444 3088 444 3419 
Q 444 3919 803 4259 
Q 1163 4600 1759 4600 
Q 2359 4600 2725 4251 
Q 3091 3903 3091 3403 
Q 3091 3084 2923 2848 
Q 2756 2613 2416 2484 
Q 2838 2347 3058 2040 
Q 3278 1734 3278 1309 
Q 3278 722 2862 322 
Q 2447 -78 1769 -78 
Q 1091 -78 675 323 
Q 259 725 259 1325 
Q 259 1772 486 2073 
Q 713 2375 1131 2484 
z
M 1019 3438 
Q 1019 3113 1228 2906 
Q 1438 2700 1772 2700 
Q 2097 2700 2305 2904 
Q 2513 3109 2513 3406 
Q 2513 3716 2298 3927 
Q 2084 4138 1766 4138 
Q 1444 4138 1231 3931 
Q 1019 3725 1019 3438 
z
M 838 1322 
Q 838 1081 952 856 
Q 1066 631 1291 507 
Q 1516 384 1775 384 
Q 2178 384 2440 643 
Q 2703 903 2703 1303 
Q 2703 1709 2433 1975 
Q 2163 2241 1756 2241 
Q 1359 2241 1098 1978 
Q 838 1716 838 1322 
z
" transform="scale(0.015625)"/>
       </defs>
       <use xlink:href="#ArialMT-38"/>
       <use xlink:href="#ArialMT-30" transform="translate(55.615234 0)"/>
      </g>
     </g>
    </g>
    <g id="xtick_6">
     <g id="line2d_6">
      <path d="M 277.710301 278.389375 
L 277.710301 21.789375 
" clip-path="url(#pa904a83d86)" style="fill: none; stroke: #cccccc; stroke-opacity: 0.2; stroke-width: 0.8; stroke-linecap: round"/>
     </g>
     <g id="text_6">
      <!-- 100 -->
      <g style="fill: #262626" transform="translate(269.368895 292.547188) scale(0.1 -0.1)">
       <defs>
        <path id="ArialMT-31" d="M 2384 0 
L 1822 0 
L 1822 3584 
Q 1619 3391 1289 3197 
Q 959 3003 697 2906 
L 697 3450 
Q 1169 3672 1522 3987 
Q 1875 4303 2022 4600 
L 2384 4600 
L 2384 0 
z
" transform="scale(0.015625)"/>
       </defs>
       <use xlink:href="#ArialMT-31"/>
       <use xlink:href="#ArialMT-30" transform="translate(55.615234 0)"/>
       <use xlink:href="#ArialMT-30" transform="translate(111.230469 0)"/>
      </g>
     </g>
    </g>
    <g id="xtick_7">
     <g id="line2d_7">
      <path d="M 324.398924 278.389375 
L 324.398924 21.789375 
" clip-path="url(#pa904a83d86)" style="fill: none; stroke: #cccccc; stroke-opacity: 0.2; stroke-width: 0.8; stroke-linecap: round"/>
     </g>
     <g id="text_7">
      <!-- 120 -->
      <g style="fill: #262626" transform="translate(316.057518 292.547188) scale(0.1 -0.1)">
       <use xlink:href="#ArialMT-31"/>
       <use xlink:href="#ArialMT-32" transform="translate(55.615234 0)"/>
       <use xlink:href="#ArialMT-30" transform="translate(111.230469 0)"/>
      </g>
     </g>
    </g>
    <g id="xtick_8">
     <g id="line2d_8">
      <path d="M 371.087547 278.389375 
L 371.087547 21.789375 
" clip-path="url(#pa904a83d86)" style="fill: none; stroke: #cccccc; stroke-opacity: 0.2; stroke-width: 0.8; stroke-linecap: round"/>
     </g>
     <g id="text_8">
      <!-- 140 -->
      <g style="fill: #262626" transform="translate(362.746141 292.547188) scale(0.1 -0.1)">
       <use xlink:href="#ArialMT-31"/>
       <use xlink:href="#ArialMT-34" transform="translate(55.615234 0)"/>
       <use xlink:href="#ArialMT-30" transform="translate(111.230469 0)"/>
      </g>
     </g>
    </g>
    <g id="xtick_9">
     <g id="line2d_9">
      <path d="M 417.77617 278.389375 
L 417.77617 21.789375 
" clip-path="url(#pa904a83d86)" style="fill: none; stroke: #cccccc; stroke-opacity: 0.2; stroke-width: 0.8; stroke-linecap: round"/>
     </g>
     <g id="text_9">
      <!-- 160 -->
      <g style="fill: #262626" transform="translate(409.434763 292.547188) scale(0.1 -0.1)">
       <use xlink:href="#ArialMT-31"/>
       <use xlink:href="#ArialMT-36" transform="translate(55.615234 0)"/>
       <use xlink:href="#ArialMT-30" transform="translate(111.230469 0)"/>
      </g>
     </g>
    </g>
    <g id="text_10">
     <!-- Elapsed Time (sec) -->
     <g style="fill: #262626" transform="translate(196.400781 305.814375) scale(0.1 -0.1)">
      <defs>
       <path id="ArialMT-45" d="M 506 0 
L 506 4581 
L 3819 4581 
L 3819 4041 
L 1113 4041 
L 1113 2638 
L 3647 2638 
L 3647 2100 
L 1113 2100 
L 1113 541 
L 3925 541 
L 3925 0 
L 506 0 
z
" transform="scale(0.015625)"/>
       <path id="ArialMT-6c" d="M 409 0 
L 409 4581 
L 972 4581 
L 972 0 
L 409 0 
z
" transform="scale(0.015625)"/>
       <path id="ArialMT-61" d="M 2588 409 
Q 2275 144 1986 34 
Q 1697 -75 1366 -75 
Q 819 -75 525 192 
Q 231 459 231 875 
Q 231 1119 342 1320 
Q 453 1522 633 1644 
Q 813 1766 1038 1828 
Q 1203 1872 1538 1913 
Q 2219 1994 2541 2106 
Q 2544 2222 2544 2253 
Q 2544 2597 2384 2738 
Q 2169 2928 1744 2928 
Q 1347 2928 1158 2789 
Q 969 2650 878 2297 
L 328 2372 
Q 403 2725 575 2942 
Q 747 3159 1072 3276 
Q 1397 3394 1825 3394 
Q 2250 3394 2515 3294 
Q 2781 3194 2906 3042 
Q 3031 2891 3081 2659 
Q 3109 2516 3109 2141 
L 3109 1391 
Q 3109 606 3145 398 
Q 3181 191 3288 0 
L 2700 0 
Q 2613 175 2588 409 
z
M 2541 1666 
Q 2234 1541 1622 1453 
Q 1275 1403 1131 1340 
Q 988 1278 909 1158 
Q 831 1038 831 891 
Q 831 666 1001 516 
Q 1172 366 1500 366 
Q 1825 366 2078 508 
Q 2331 650 2450 897 
Q 2541 1088 2541 1459 
L 2541 1666 
z
" transform="scale(0.015625)"/>
       <path id="ArialMT-70" d="M 422 -1272 
L 422 3319 
L 934 3319 
L 934 2888 
Q 1116 3141 1344 3267 
Q 1572 3394 1897 3394 
Q 2322 3394 2647 3175 
Q 2972 2956 3137 2557 
Q 3303 2159 3303 1684 
Q 3303 1175 3120 767 
Q 2938 359 2589 142 
Q 2241 -75 1856 -75 
Q 1575 -75 1351 44 
Q 1128 163 984 344 
L 984 -1272 
L 422 -1272 
z
M 931 1641 
Q 931 1000 1190 694 
Q 1450 388 1819 388 
Q 2194 388 2461 705 
Q 2728 1022 2728 1688 
Q 2728 2322 2467 2637 
Q 2206 2953 1844 2953 
Q 1484 2953 1207 2617 
Q 931 2281 931 1641 
z
" transform="scale(0.015625)"/>
       <path id="ArialMT-73" d="M 197 991 
L 753 1078 
Q 800 744 1014 566 
Q 1228 388 1613 388 
Q 2000 388 2187 545 
Q 2375 703 2375 916 
Q 2375 1106 2209 1216 
Q 2094 1291 1634 1406 
Q 1016 1563 777 1677 
Q 538 1791 414 1992 
Q 291 2194 291 2438 
Q 291 2659 392 2848 
Q 494 3038 669 3163 
Q 800 3259 1026 3326 
Q 1253 3394 1513 3394 
Q 1903 3394 2198 3281 
Q 2494 3169 2634 2976 
Q 2775 2784 2828 2463 
L 2278 2388 
Q 2241 2644 2061 2787 
Q 1881 2931 1553 2931 
Q 1166 2931 1000 2803 
Q 834 2675 834 2503 
Q 834 2394 903 2306 
Q 972 2216 1119 2156 
Q 1203 2125 1616 2013 
Q 2213 1853 2448 1751 
Q 2684 1650 2818 1456 
Q 2953 1263 2953 975 
Q 2953 694 2789 445 
Q 2625 197 2315 61 
Q 2006 -75 1616 -75 
Q 969 -75 630 194 
Q 291 463 197 991 
z
" transform="scale(0.015625)"/>
       <path id="ArialMT-65" d="M 2694 1069 
L 3275 997 
Q 3138 488 2766 206 
Q 2394 -75 1816 -75 
Q 1088 -75 661 373 
Q 234 822 234 1631 
Q 234 2469 665 2931 
Q 1097 3394 1784 3394 
Q 2450 3394 2872 2941 
Q 3294 2488 3294 1666 
Q 3294 1616 3291 1516 
L 816 1516 
Q 847 969 1125 678 
Q 1403 388 1819 388 
Q 2128 388 2347 550 
Q 2566 713 2694 1069 
z
M 847 1978 
L 2700 1978 
Q 2663 2397 2488 2606 
Q 2219 2931 1791 2931 
Q 1403 2931 1139 2672 
Q 875 2413 847 1978 
z
" transform="scale(0.015625)"/>
       <path id="ArialMT-64" d="M 2575 0 
L 2575 419 
Q 2259 -75 1647 -75 
Q 1250 -75 917 144 
Q 584 363 401 755 
Q 219 1147 219 1656 
Q 219 2153 384 2558 
Q 550 2963 881 3178 
Q 1213 3394 1622 3394 
Q 1922 3394 2156 3267 
Q 2391 3141 2538 2938 
L 2538 4581 
L 3097 4581 
L 3097 0 
L 2575 0 
z
M 797 1656 
Q 797 1019 1065 703 
Q 1334 388 1700 388 
Q 2069 388 2326 689 
Q 2584 991 2584 1609 
Q 2584 2291 2321 2609 
Q 2059 2928 1675 2928 
Q 1300 2928 1048 2622 
Q 797 2316 797 1656 
z
" transform="scale(0.015625)"/>
       <path id="ArialMT-20" transform="scale(0.015625)"/>
       <path id="ArialMT-54" d="M 1659 0 
L 1659 4041 
L 150 4041 
L 150 4581 
L 3781 4581 
L 3781 4041 
L 2266 4041 
L 2266 0 
L 1659 0 
z
" transform="scale(0.015625)"/>
       <path id="ArialMT-69" d="M 425 3934 
L 425 4581 
L 988 4581 
L 988 3934 
L 425 3934 
z
M 425 0 
L 425 3319 
L 988 3319 
L 988 0 
L 425 0 
z
" transform="scale(0.015625)"/>
       <path id="ArialMT-6d" d="M 422 0 
L 422 3319 
L 925 3319 
L 925 2853 
Q 1081 3097 1340 3245 
Q 1600 3394 1931 3394 
Q 2300 3394 2536 3241 
Q 2772 3088 2869 2813 
Q 3263 3394 3894 3394 
Q 4388 3394 4653 3120 
Q 4919 2847 4919 2278 
L 4919 0 
L 4359 0 
L 4359 2091 
Q 4359 2428 4304 2576 
Q 4250 2725 4106 2815 
Q 3963 2906 3769 2906 
Q 3419 2906 3187 2673 
Q 2956 2441 2956 1928 
L 2956 0 
L 2394 0 
L 2394 2156 
Q 2394 2531 2256 2718 
Q 2119 2906 1806 2906 
Q 1569 2906 1367 2781 
Q 1166 2656 1075 2415 
Q 984 2175 984 1722 
L 984 0 
L 422 0 
z
" transform="scale(0.015625)"/>
       <path id="ArialMT-28" d="M 1497 -1347 
Q 1031 -759 709 28 
Q 388 816 388 1659 
Q 388 2403 628 3084 
Q 909 3875 1497 4659 
L 1900 4659 
Q 1522 4009 1400 3731 
Q 1209 3300 1100 2831 
Q 966 2247 966 1656 
Q 966 153 1900 -1347 
L 1497 -1347 
z
" transform="scale(0.015625)"/>
       <path id="ArialMT-63" d="M 2588 1216 
L 3141 1144 
Q 3050 572 2676 248 
Q 2303 -75 1759 -75 
Q 1078 -75 664 370 
Q 250 816 250 1647 
Q 250 2184 428 2587 
Q 606 2991 970 3192 
Q 1334 3394 1763 3394 
Q 2303 3394 2647 3120 
Q 2991 2847 3088 2344 
L 2541 2259 
Q 2463 2594 2264 2762 
Q 2066 2931 1784 2931 
Q 1359 2931 1093 2626 
Q 828 2322 828 1663 
Q 828 994 1084 691 
Q 1341 388 1753 388 
Q 2084 388 2306 591 
Q 2528 794 2588 1216 
z
" transform="scale(0.015625)"/>
       <path id="ArialMT-29" d="M 791 -1347 
L 388 -1347 
Q 1322 153 1322 1656 
Q 1322 2244 1188 2822 
Q 1081 3291 891 3722 
Q 769 4003 388 4659 
L 791 4659 
Q 1378 3875 1659 3084 
Q 1900 2403 1900 1659 
Q 1900 816 1576 28 
Q 1253 -759 791 -1347 
z
" transform="scale(0.015625)"/>
      </defs>
      <use xlink:href="#ArialMT-45"/>
      <use xlink:href="#ArialMT-6c" transform="translate(66.699219 0)"/>
      <use xlink:href="#ArialMT-61" transform="translate(88.916016 0)"/>
      <use xlink:href="#ArialMT-70" transform="translate(144.53125 0)"/>
      <use xlink:href="#ArialMT-73" transform="translate(200.146484 0)"/>
      <use xlink:href="#ArialMT-65" transform="translate(250.146484 0)"/>
      <use xlink:href="#ArialMT-64" transform="translate(305.761719 0)"/>
      <use xlink:href="#ArialMT-20" transform="translate(361.376953 0)"/>
      <use xlink:href="#ArialMT-54" transform="translate(387.410156 0)"/>
      <use xlink:href="#ArialMT-69" transform="translate(444.744141 0)"/>
      <use xlink:href="#ArialMT-6d" transform="translate(466.960938 0)"/>
      <use xlink:href="#ArialMT-65" transform="translate(550.261719 0)"/>
      <use xlink:href="#ArialMT-20" transform="translate(605.876953 0)"/>
      <use xlink:href="#ArialMT-28" transform="translate(633.660156 0)"/>
      <use xlink:href="#ArialMT-73" transform="translate(666.960938 0)"/>
      <use xlink:href="#ArialMT-65" transform="translate(716.960938 0)"/>
      <use xlink:href="#ArialMT-63" transform="translate(772.576172 0)"/>
      <use xlink:href="#ArialMT-29" transform="translate(822.576172 0)"/>
     </g>
    </g>
   </g>
   <g id="matplotlib.axis_2">
    <g id="ytick_1">
     <g id="line2d_10">
      <path d="M 44.267188 271.042939 
L 434.117188 271.042939 
" clip-path="url(#pa904a83d86)" style="fill: none; stroke: #cccccc; stroke-opacity: 0.2; stroke-width: 0.8; stroke-linecap: round"/>
     </g>
     <g id="text_11">
      <!-- 0 -->
      <g style="fill: #262626" transform="translate(31.70625 274.621845) scale(0.1 -0.1)">
       <use xlink:href="#ArialMT-30"/>
      </g>
     </g>
    </g>
    <g id="ytick_2">
     <g id="line2d_11">
      <path d="M 44.267188 223.074046 
L 434.117188 223.074046 
" clip-path="url(#pa904a83d86)" style="fill: none; stroke: #cccccc; stroke-opacity: 0.2; stroke-width: 0.8; stroke-linecap: round"/>
     </g>
     <g id="text_12">
      <!-- 20 -->
      <g style="fill: #262626" transform="translate(26.145313 226.652952) scale(0.1 -0.1)">
       <use xlink:href="#ArialMT-32"/>
       <use xlink:href="#ArialMT-30" transform="translate(55.615234 0)"/>
      </g>
     </g>
    </g>
    <g id="ytick_3">
     <g id="line2d_12">
      <path d="M 44.267188 175.105153 
L 434.117188 175.105153 
" clip-path="url(#pa904a83d86)" style="fill: none; stroke: #cccccc; stroke-opacity: 0.2; stroke-width: 0.8; stroke-linecap: round"/>
     </g>
     <g id="text_13">
      <!-- 40 -->
      <g style="fill: #262626" transform="translate(26.145313 178.684059) scale(0.1 -0.1)">
       <use xlink:href="#ArialMT-34"/>
       <use xlink:href="#ArialMT-30" transform="translate(55.615234 0)"/>
      </g>
     </g>
    </g>
    <g id="ytick_4">
     <g id="line2d_13">
      <path d="M 44.267188 127.13626 
L 434.117188 127.13626 
" clip-path="url(#pa904a83d86)" style="fill: none; stroke: #cccccc; stroke-opacity: 0.2; stroke-width: 0.8; stroke-linecap: round"/>
     </g>
     <g id="text_14">
      <!-- 60 -->
      <g style="fill: #262626" transform="translate(26.145313 130.715166) scale(0.1 -0.1)">
       <use xlink:href="#ArialMT-36"/>
       <use xlink:href="#ArialMT-30" transform="translate(55.615234 0)"/>
      </g>
     </g>
    </g>
    <g id="ytick_5">
     <g id="line2d_14">
      <path d="M 44.267188 79.167367 
L 434.117188 79.167367 
" clip-path="url(#pa904a83d86)" style="fill: none; stroke: #cccccc; stroke-opacity: 0.2; stroke-width: 0.8; stroke-linecap: round"/>
     </g>
     <g id="text_15">
      <!-- 80 -->
      <g style="fill: #262626" transform="translate(26.145313 82.746273) scale(0.1 -0.1)">
       <use xlink:href="#ArialMT-38"/>
       <use xlink:href="#ArialMT-30" transform="translate(55.615234 0)"/>
      </g>
     </g>
    </g>
    <g id="ytick_6">
     <g id="line2d_15">
      <path d="M 44.267188 31.198473 
L 434.117188 31.198473 
" clip-path="url(#pa904a83d86)" style="fill: none; stroke: #cccccc; stroke-opacity: 0.2; stroke-width: 0.8; stroke-linecap: round"/>
     </g>
     <g id="text_16">
      <!-- 100 -->
      <g style="fill: #262626" transform="translate(20.584375 34.77738) scale(0.1 -0.1)">
       <use xlink:href="#ArialMT-31"/>
       <use xlink:href="#ArialMT-30" transform="translate(55.615234 0)"/>
       <use xlink:href="#ArialMT-30" transform="translate(111.230469 0)"/>
      </g>
     </g>
    </g>
    <g id="text_17">
     <!-- Busy% -->
     <g style="fill: #262626" transform="translate(14.479688 165.651094) rotate(-90) scale(0.1 -0.1)">
      <defs>
       <path id="ArialMT-42" d="M 469 0 
L 469 4581 
L 2188 4581 
Q 2713 4581 3030 4442 
Q 3347 4303 3526 4014 
Q 3706 3725 3706 3409 
Q 3706 3116 3547 2856 
Q 3388 2597 3066 2438 
Q 3481 2316 3704 2022 
Q 3928 1728 3928 1328 
Q 3928 1006 3792 729 
Q 3656 453 3456 303 
Q 3256 153 2954 76 
Q 2653 0 2216 0 
L 469 0 
z
M 1075 2656 
L 2066 2656 
Q 2469 2656 2644 2709 
Q 2875 2778 2992 2937 
Q 3109 3097 3109 3338 
Q 3109 3566 3000 3739 
Q 2891 3913 2687 3977 
Q 2484 4041 1991 4041 
L 1075 4041 
L 1075 2656 
z
M 1075 541 
L 2216 541 
Q 2509 541 2628 563 
Q 2838 600 2978 687 
Q 3119 775 3209 942 
Q 3300 1109 3300 1328 
Q 3300 1584 3169 1773 
Q 3038 1963 2805 2039 
Q 2572 2116 2134 2116 
L 1075 2116 
L 1075 541 
z
" transform="scale(0.015625)"/>
       <path id="ArialMT-75" d="M 2597 0 
L 2597 488 
Q 2209 -75 1544 -75 
Q 1250 -75 995 37 
Q 741 150 617 320 
Q 494 491 444 738 
Q 409 903 409 1263 
L 409 3319 
L 972 3319 
L 972 1478 
Q 972 1038 1006 884 
Q 1059 663 1231 536 
Q 1403 409 1656 409 
Q 1909 409 2131 539 
Q 2353 669 2445 892 
Q 2538 1116 2538 1541 
L 2538 3319 
L 3100 3319 
L 3100 0 
L 2597 0 
z
" transform="scale(0.015625)"/>
       <path id="ArialMT-79" d="M 397 -1278 
L 334 -750 
Q 519 -800 656 -800 
Q 844 -800 956 -737 
Q 1069 -675 1141 -563 
Q 1194 -478 1313 -144 
Q 1328 -97 1363 -6 
L 103 3319 
L 709 3319 
L 1400 1397 
Q 1534 1031 1641 628 
Q 1738 1016 1872 1384 
L 2581 3319 
L 3144 3319 
L 1881 -56 
Q 1678 -603 1566 -809 
Q 1416 -1088 1222 -1217 
Q 1028 -1347 759 -1347 
Q 597 -1347 397 -1278 
z
" transform="scale(0.015625)"/>
       <path id="ArialMT-25" d="M 372 3481 
Q 372 3972 619 4315 
Q 866 4659 1334 4659 
Q 1766 4659 2048 4351 
Q 2331 4044 2331 3447 
Q 2331 2866 2045 2552 
Q 1759 2238 1341 2238 
Q 925 2238 648 2547 
Q 372 2856 372 3481 
z
M 1350 4272 
Q 1141 4272 1002 4090 
Q 863 3909 863 3425 
Q 863 2984 1003 2804 
Q 1144 2625 1350 2625 
Q 1563 2625 1702 2806 
Q 1841 2988 1841 3469 
Q 1841 3913 1700 4092 
Q 1559 4272 1350 4272 
z
M 1353 -169 
L 3859 4659 
L 4316 4659 
L 1819 -169 
L 1353 -169 
z
M 3334 1075 
Q 3334 1569 3581 1911 
Q 3828 2253 4300 2253 
Q 4731 2253 5014 1945 
Q 5297 1638 5297 1041 
Q 5297 459 5011 145 
Q 4725 -169 4303 -169 
Q 3888 -169 3611 142 
Q 3334 453 3334 1075 
z
M 4316 1866 
Q 4103 1866 3964 1684 
Q 3825 1503 3825 1019 
Q 3825 581 3965 400 
Q 4106 219 4313 219 
Q 4528 219 4667 400 
Q 4806 581 4806 1063 
Q 4806 1506 4665 1686 
Q 4525 1866 4316 1866 
z
" transform="scale(0.015625)"/>
      </defs>
      <use xlink:href="#ArialMT-42"/>
      <use xlink:href="#ArialMT-75" transform="translate(66.699219 0)"/>
      <use xlink:href="#ArialMT-73" transform="translate(122.314453 0)"/>
      <use xlink:href="#ArialMT-79" transform="translate(172.314453 0)"/>
      <use xlink:href="#ArialMT-25" transform="translate(222.314453 0)"/>
     </g>
    </g>
   </g>
   <g id="line2d_16">
    <path d="M 44.267188 65.088496 
L 46.601619 50.529937 
L 48.93605 44.55781 
L 51.270481 44.198043 
L 53.604912 44.078121 
L 55.939343 49.642513 
L 58.273774 78.016113 
L 60.608205 201.775857 
L 62.942637 50.026264 
L 65.277068 33.740825 
L 67.611499 166.302861 
L 69.94593 49.234777 
L 72.280361 73.051333 
L 74.614792 207.364233 
L 76.949223 49.906342 
L 79.283655 46.93227 
L 81.618086 49.930326 
L 83.952517 59.0684 
L 86.286948 44.581795 
L 88.621379 50.697828 
L 90.95581 49.786419 
L 93.290241 44.533826 
L 95.624673 50.170171 
L 97.959104 62.114425 
L 100.293535 132.244947 
L 102.627966 263.991512 
L 104.962397 264.135418 
L 107.296828 147.930775 
L 109.631259 262.864243 
L 111.96569 223.96147 
L 114.300122 190.599105 
L 116.634553 54.247527 
L 118.968984 44.629763 
L 121.303415 49.906342 
L 123.637846 57.533396 
L 125.972277 44.55781 
L 128.306708 50.122202 
L 130.64114 44.437888 
L 132.975571 44.269997 
L 135.310002 52.016973 
L 137.644433 49.906342 
L 139.978864 44.293981 
L 142.313295 49.834388 
L 144.647726 44.55781 
L 146.982158 46.428597 
L 149.316589 57.029722 
L 151.65102 44.581795 
L 153.985451 50.338062 
L 156.319882 44.701717 
L 158.654313 50.026264 
L 160.988744 49.666497 
L 163.323176 57.653318 
L 165.657607 44.677732 
L 167.992038 49.906342 
L 170.326469 44.677732 
L 172.6609 49.690482 
L 174.995331 62.426223 
L 177.329762 50.242124 
L 179.664193 44.533826 
L 181.998625 50.362046 
L 184.333056 44.55781 
L 186.667487 54.727215 
L 189.001918 63.985212 
L 191.336349 47.891648 
L 193.67078 44.725701 
L 196.005211 44.821639 
L 198.339643 49.834388 
L 200.674074 62.402238 
L 203.008505 50.002279 
L 205.342936 44.629763 
L 207.677367 50.457984 
L 210.011798 49.978295 
L 212.346229 55.134951 
L 214.680661 58.372851 
L 217.015092 44.509841 
L 219.349523 50.098217 
L 221.683954 43.04679 
L 224.018385 50.266108 
L 226.352816 62.594114 
L 228.687247 44.437888 
L 231.021679 44.845623 
L 233.35611 49.810404 
L 235.690541 50.410015 
L 238.024972 53.983698 
L 240.359403 38.777559 
" clip-path="url(#pa904a83d86)" style="fill: none; stroke: #1f77b4; stroke-opacity: 0.9; stroke-width: 1.2; stroke-linecap: round"/>
   </g>
   <g id="line2d_17">
    <path d="M 44.267188 258.690949 
L 46.601619 226.287962 
L 48.93605 38.369823 
L 51.270481 38.921465 
L 53.604912 39.952796 
L 55.939343 253.870075 
L 58.273774 173.04249 
L 60.608205 95.668666 
L 62.942637 264.159403 
L 65.277068 264.039481 
L 67.611499 97.659375 
L 69.94593 254.7575 
L 72.280361 230.365318 
L 74.614792 106.53362 
L 76.949223 264.183387 
L 79.283655 264.039481 
L 81.618086 264.207372 
L 83.952517 72.139924 
L 86.286948 217.653561 
L 88.621379 175.225075 
L 90.95581 154.406575 
L 93.290241 192.13411 
L 95.624673 177.503597 
L 97.959104 39.449123 
L 100.293535 50.457984 
L 102.627966 49.570559 
L 104.962397 44.461872 
L 107.296828 44.198043 
L 109.631259 55.782531 
L 111.96569 51.273455 
L 114.300122 49.810404 
L 116.634553 149.225935 
L 118.968984 40.600376 
L 121.303415 83.868318 
L 123.637846 45.349297 
L 125.972277 38.29787 
L 128.306708 129.150953 
L 130.64114 137.953245 
L 132.975571 200.528666 
L 135.310002 67.462957 
L 137.644433 44.293981 
L 139.978864 101.472902 
L 142.313295 145.772175 
L 144.647726 166.99841 
L 146.982158 217.725514 
L 149.316589 72.883442 
L 151.65102 163.496681 
L 153.985451 264.111434 
L 156.319882 132.436822 
L 158.654313 38.897481 
L 160.988744 41.008112 
L 163.323176 263.775652 
L 165.657607 194.72443 
L 167.992038 38.417792 
L 170.326469 180.261809 
L 172.6609 39.041387 
L 174.995331 234.538611 
L 177.329762 38.369823 
L 179.664193 125.385395 
L 181.998625 141.095208 
L 184.333056 38.369823 
L 186.667487 228.854298 
L 189.001918 210.074476 
L 191.336349 237.1769 
L 193.67078 159.39534 
L 196.005211 49.162824 
L 198.339643 39.281232 
L 200.674074 235.23416 
L 203.008505 38.225916 
L 205.342936 38.345838 
L 207.677367 38.321854 
L 210.011798 38.058025 
L 212.346229 232.619856 
L 214.680661 145.484361 
L 217.015092 124.450002 
L 219.349523 38.321854 
L 221.683954 40.096703 
L 224.018385 218.325125 
L 226.352816 251.447646 
L 228.687247 264.399247 
L 231.021679 173.929915 
L 233.35611 40.528423 
L 235.690541 40.288579 
L 238.024972 236.361429 
L 240.359403 264.039481 
" clip-path="url(#pa904a83d86)" style="fill: none; stroke: #ff7f0e; stroke-opacity: 0.9; stroke-width: 1.2; stroke-linecap: round"/>
   </g>
   <g id="line2d_18">
    <path d="M 44.267188 59.979809 
L 46.601619 50.362046 
L 48.93605 49.906342 
L 51.270481 49.594544 
L 53.604912 49.450637 
L 55.939343 44.749686 
L 58.273774 62.594114 
L 60.608205 49.762435 
L 62.942637 44.461872 
L 65.277068 50.050248 
L 67.611499 84.63582 
L 69.94593 47.723757 
L 72.280361 57.173629 
L 74.614792 44.893592 
L 76.949223 44.725701 
L 79.283655 47.819695 
L 81.618086 44.509841 
L 83.952517 57.389489 
L 86.286948 49.666497 
L 88.621379 44.965546 
L 90.95581 44.581795 
L 93.290241 50.410015 
L 95.624673 44.821639 
L 97.959104 81.493858 
L 100.293535 170.02045 
L 102.627966 38.153963 
L 104.962397 38.321854 
L 107.296828 154.718373 
L 109.631259 39.37717 
L 111.96569 83.34066 
L 114.300122 111.522385 
L 116.634553 142.894041 
L 118.968984 50.625875 
L 121.303415 33.453011 
L 123.637846 68.086552 
L 125.972277 49.882357 
L 128.306708 44.677732 
L 130.64114 50.314077 
L 132.975571 50.242124 
L 135.310002 57.269567 
L 137.644433 60.891218 
L 139.978864 49.978295 
L 142.313295 44.269997 
L 144.647726 50.21814 
L 146.982158 47.387975 
L 149.316589 67.510925 
L 151.65102 49.882357 
L 153.985451 44.605779 
L 156.319882 49.978295 
L 158.654313 44.55781 
L 160.988744 55.710578 
L 163.323176 46.908286 
L 165.657607 49.954311 
L 167.992038 44.533826 
L 170.326469 50.410015 
L 172.6609 44.437888 
L 174.995331 62.905912 
L 177.329762 44.893592 
L 179.664193 50.290093 
L 181.998625 44.437888 
L 184.333056 49.954311 
L 186.667487 49.690482 
L 189.001918 52.880413 
L 191.336349 46.836333 
L 193.67078 49.786419 
L 196.005211 50.026264 
L 198.339643 44.533826 
L 200.674074 63.049818 
L 203.008505 44.653748 
L 205.342936 50.21814 
L 207.677367 44.965546 
L 210.011798 44.77367 
L 212.346229 50.122202 
L 214.680661 58.20496 
L 217.015092 49.618528 
L 219.349523 44.509841 
L 221.683954 49.906342 
L 224.018385 45.037499 
L 226.352816 64.416932 
L 228.687247 49.834388 
L 231.021679 50.122202 
L 233.35611 44.869608 
L 235.690541 44.605779 
L 238.024972 59.859887 
L 240.359403 45.42125 
" clip-path="url(#pa904a83d86)" style="fill: none; stroke: #2ca02c; stroke-opacity: 0.9; stroke-width: 1.2; stroke-linecap: round"/>
   </g>
   <g id="line2d_19">
    <path d="M 44.267188 68.110537 
L 46.601619 81.733702 
L 48.93605 263.415885 
L 51.270481 264.351278 
L 53.604912 261.952834 
L 55.939343 48.467275 
L 58.273774 119.077486 
L 60.608205 50.194155 
L 62.942637 38.465761 
L 65.277068 49.402668 
L 67.611499 47.843679 
L 69.94593 54.727215 
L 72.280361 61.131063 
L 74.614792 38.609667 
L 76.949223 38.369823 
L 79.283655 38.345838 
L 81.618086 38.417792 
L 83.952517 244.588094 
L 86.286948 83.388629 
L 88.621379 126.968369 
L 90.95581 147.834837 
L 93.290241 110.20324 
L 95.624673 125.265473 
L 97.959104 249.073186 
L 100.293535 44.701717 
L 102.627966 44.365935 
L 104.962397 49.762435 
L 107.296828 49.882357 
L 109.631259 61.730674 
L 111.96569 51.273455 
L 114.300122 44.437888 
L 116.634553 50.386031 
L 118.968984 262.384554 
L 121.303415 229.717738 
L 123.637846 262.168694 
L 125.972277 264.159403 
L 128.306708 172.970537 
L 130.64114 164.599965 
L 132.975571 102.144466 
L 135.310002 235.258145 
L 137.644433 263.295963 
L 139.978864 199.47335 
L 142.313295 156.541191 
L 144.647726 135.698707 
L 146.982158 84.875665 
L 149.316589 235.330098 
L 151.65102 139.104498 
L 153.985451 38.393807 
L 156.319882 168.773259 
L 158.654313 263.895574 
L 160.988744 260.249938 
L 163.323176 55.542687 
L 165.657607 107.373076 
L 167.992038 263.991512 
L 170.326469 122.33937 
L 172.6609 264.08745 
L 174.995331 73.051333 
L 177.329762 263.751667 
L 179.664193 177.095862 
L 181.998625 161.458003 
L 184.333056 264.015496 
L 186.667487 73.435084 
L 189.001918 97.755313 
L 191.336349 64.800683 
L 193.67078 143.085917 
L 196.005211 252.359055 
L 198.339643 264.015496 
L 200.674074 72.091955 
L 203.008505 264.183387 
L 205.342936 263.679714 
L 207.677367 264.279325 
L 210.011798 263.271978 
L 212.346229 69.525619 
L 214.680661 162.225505 
L 217.015092 178.391022 
L 219.349523 263.967527 
L 221.683954 263.967527 
L 224.018385 84.084178 
L 226.352816 54.031667 
L 228.687247 38.249901 
L 231.021679 128.623295 
L 233.35611 262.408538 
L 235.690541 262.408538 
L 238.024972 66.071859 
L 240.359403 39.880843 
" clip-path="url(#pa904a83d86)" style="fill: none; stroke: #d62728; stroke-opacity: 0.9; stroke-width: 1.2; stroke-linecap: round"/>
   </g>
   <g id="line2d_20">
    <path d="M 44.267188 218.972706 
L 46.601619 207.771969 
L 48.93605 173.522179 
L 51.270481 231.012898 
L 53.604912 215.686836 
L 55.939343 221.131306 
" clip-path="url(#pa904a83d86)" style="fill: none; stroke-dasharray: 4.44,1.92; stroke-dashoffset: 0; stroke: #1f77b4; stroke-opacity: 0.9; stroke-width: 1.2"/>
   </g>
   <g id="line2d_21">
    <path d="M 44.267188 171.53147 
L 46.601619 210.817994 
L 48.93605 183.955414 
L 51.270481 173.833977 
L 53.604912 175.201091 
L 55.939343 232.332042 
" clip-path="url(#pa904a83d86)" style="fill: none; stroke-dasharray: 4.44,1.92; stroke-dashoffset: 0; stroke: #ff7f0e; stroke-opacity: 0.9; stroke-width: 1.2"/>
   </g>
   <g id="line2d_22">
    <path d="M 44.267188 212.448936 
L 46.601619 188.776287 
L 48.93605 218.588954 
L 51.270481 204.27024 
L 53.604912 204.246255 
L 55.939343 143.397714 
" clip-path="url(#pa904a83d86)" style="fill: none; stroke-dasharray: 4.44,1.92; stroke-dashoffset: 0; stroke: #2ca02c; stroke-opacity: 0.9; stroke-width: 1.2"/>
   </g>
   <g id="line2d_23">
    <path d="M 44.267188 183.259865 
L 46.601619 190.311292 
L 48.93605 221.011383 
L 51.270481 190.239339 
L 53.604912 203.502737 
L 55.939343 200.120931 
" clip-path="url(#pa904a83d86)" style="fill: none; stroke-dasharray: 4.44,1.92; stroke-dashoffset: 0; stroke: #d62728; stroke-opacity: 0.9; stroke-width: 1.2"/>
   </g>
   <g id="patch_3">
    <path d="M 44.267188 278.389375 
L 44.267188 21.789375 
" style="fill: none; stroke: #cccccc; stroke-width: 0.8; stroke-linejoin: miter; stroke-linecap: square"/>
   </g>
   <g id="patch_4">
    <path d="M 434.117188 278.389375 
L 434.117188 21.789375 
" style="fill: none; stroke: #cccccc; stroke-width: 0.8; stroke-linejoin: miter; stroke-linecap: square"/>
   </g>
   <g id="patch_5">
    <path d="M 44.267188 278.389375 
L 434.117188 278.389375 
" style="fill: none; stroke: #cccccc; stroke-width: 0.8; stroke-linejoin: miter; stroke-linecap: square"/>
   </g>
   <g id="patch_6">
    <path d="M 44.267188 21.789375 
L 434.117188 21.789375 
" style="fill: none; stroke: #cccccc; stroke-width: 0.8; stroke-linejoin: miter; stroke-linecap: square"/>
   </g>
   <g id="text_18">
    <!-- APX1278 — PC1 all cores -->
    <g style="fill: #262626" transform="translate(168.82625 15.789375) scale(0.12 -0.12)">
     <defs>
      <path id="ArialMT-41" d="M -9 0 
L 1750 4581 
L 2403 4581 
L 4278 0 
L 3588 0 
L 3053 1388 
L 1138 1388 
L 634 0 
L -9 0 
z
M 1313 1881 
L 2866 1881 
L 2388 3150 
Q 2169 3728 2063 4100 
Q 1975 3659 1816 3225 
L 1313 1881 
z
" transform="scale(0.015625)"/>
      <path id="ArialMT-50" d="M 494 0 
L 494 4581 
L 2222 4581 
Q 2678 4581 2919 4538 
Q 3256 4481 3484 4323 
Q 3713 4166 3852 3881 
Q 3991 3597 3991 3256 
Q 3991 2672 3619 2267 
Q 3247 1863 2275 1863 
L 1100 1863 
L 1100 0 
L 494 0 
z
M 1100 2403 
L 2284 2403 
Q 2872 2403 3119 2622 
Q 3366 2841 3366 3238 
Q 3366 3525 3220 3729 
Q 3075 3934 2838 4000 
Q 2684 4041 2272 4041 
L 1100 4041 
L 1100 2403 
z
" transform="scale(0.015625)"/>
      <path id="ArialMT-58" d="M 28 0 
L 1800 2388 
L 238 4581 
L 959 4581 
L 1791 3406 
Q 2050 3041 2159 2844 
Q 2313 3094 2522 3366 
L 3444 4581 
L 4103 4581 
L 2494 2422 
L 4228 0 
L 3478 0 
L 2325 1634 
Q 2228 1775 2125 1941 
Q 1972 1691 1906 1597 
L 756 0 
L 28 0 
z
" transform="scale(0.015625)"/>
      <path id="ArialMT-37" d="M 303 3981 
L 303 4522 
L 3269 4522 
L 3269 4084 
Q 2831 3619 2401 2847 
Q 1972 2075 1738 1259 
Q 1569 684 1522 0 
L 944 0 
Q 953 541 1156 1306 
Q 1359 2072 1739 2783 
Q 2119 3494 2547 3981 
L 303 3981 
z
" transform="scale(0.015625)"/>
      <path id="ArialMT-2014" d="M 0 1431 
L 0 1884 
L 6400 1884 
L 6400 1431 
L 0 1431 
z
" transform="scale(0.015625)"/>
      <path id="ArialMT-43" d="M 3763 1606 
L 4369 1453 
Q 4178 706 3683 314 
Q 3188 -78 2472 -78 
Q 1731 -78 1267 223 
Q 803 525 561 1097 
Q 319 1669 319 2325 
Q 319 3041 592 3573 
Q 866 4106 1370 4382 
Q 1875 4659 2481 4659 
Q 3169 4659 3637 4309 
Q 4106 3959 4291 3325 
L 3694 3184 
Q 3534 3684 3231 3912 
Q 2928 4141 2469 4141 
Q 1941 4141 1586 3887 
Q 1231 3634 1087 3207 
Q 944 2781 944 2328 
Q 944 1744 1114 1308 
Q 1284 872 1643 656 
Q 2003 441 2422 441 
Q 2931 441 3284 734 
Q 3638 1028 3763 1606 
z
" transform="scale(0.015625)"/>
      <path id="ArialMT-6f" d="M 213 1659 
Q 213 2581 725 3025 
Q 1153 3394 1769 3394 
Q 2453 3394 2887 2945 
Q 3322 2497 3322 1706 
Q 3322 1066 3130 698 
Q 2938 331 2570 128 
Q 2203 -75 1769 -75 
Q 1072 -75 642 372 
Q 213 819 213 1659 
z
M 791 1659 
Q 791 1022 1069 705 
Q 1347 388 1769 388 
Q 2188 388 2466 706 
Q 2744 1025 2744 1678 
Q 2744 2294 2464 2611 
Q 2184 2928 1769 2928 
Q 1347 2928 1069 2612 
Q 791 2297 791 1659 
z
" transform="scale(0.015625)"/>
      <path id="ArialMT-72" d="M 416 0 
L 416 3319 
L 922 3319 
L 922 2816 
Q 1116 3169 1280 3281 
Q 1444 3394 1641 3394 
Q 1925 3394 2219 3213 
L 2025 2691 
Q 1819 2813 1613 2813 
Q 1428 2813 1281 2702 
Q 1134 2591 1072 2394 
Q 978 2094 978 1738 
L 978 0 
L 416 0 
z
" transform="scale(0.015625)"/>
     </defs>
     <use xlink:href="#ArialMT-41"/>
     <use xlink:href="#ArialMT-50" transform="translate(66.699219 0)"/>
     <use xlink:href="#ArialMT-58" transform="translate(133.398438 0)"/>
     <use xlink:href="#ArialMT-31" transform="translate(200.097656 0)"/>
     <use xlink:href="#ArialMT-32" transform="translate(255.712891 0)"/>
     <use xlink:href="#ArialMT-37" transform="translate(311.328125 0)"/>
     <use xlink:href="#ArialMT-38" transform="translate(366.943359 0)"/>
     <use xlink:href="#ArialMT-20" transform="translate(422.558594 0)"/>
     <use xlink:href="#ArialMT-2014" transform="translate(450.341797 0)"/>
     <use xlink:href="#ArialMT-20" transform="translate(550.341797 0)"/>
     <use xlink:href="#ArialMT-50" transform="translate(578.125 0)"/>
     <use xlink:href="#ArialMT-43" transform="translate(644.824219 0)"/>
     <use xlink:href="#ArialMT-31" transform="translate(717.041016 0)"/>
     <use xlink:href="#ArialMT-20" transform="translate(772.65625 0)"/>
     <use xlink:href="#ArialMT-61" transform="translate(800.439453 0)"/>
     <use xlink:href="#ArialMT-6c" transform="translate(856.054688 0)"/>
     <use xlink:href="#ArialMT-6c" transform="translate(878.271484 0)"/>
     <use xlink:href="#ArialMT-20" transform="translate(900.488281 0)"/>
     <use xlink:href="#ArialMT-63" transform="translate(928.271484 0)"/>
     <use xlink:href="#ArialMT-6f" transform="translate(978.271484 0)"/>
     <use xlink:href="#ArialMT-72" transform="translate(1033.886719 0)"/>
     <use xlink:href="#ArialMT-65" transform="translate(1067.1875 0)"/>
     <use xlink:href="#ArialMT-73" transform="translate(1122.802734 0)"/>
    </g>
   </g>
   <g id="legend_1">
    <g id="patch_7">
     <path d="M 317.392188 63.052656 
L 428.517188 63.052656 
Q 430.117188 63.052656 430.117188 61.452656 
L 430.117188 27.389375 
Q 430.117188 25.789375 428.517188 25.789375 
L 317.392188 25.789375 
Q 315.792188 25.789375 315.792188 27.389375 
L 315.792188 61.452656 
Q 315.792188 63.052656 317.392188 63.052656 
z
" style="fill: #ffffff; opacity: 0.8; stroke: #cccccc; stroke-linejoin: miter"/>
    </g>
    <g id="text_19">
     <!-- CPU -->
     <g style="fill: #262626" transform="translate(363.453359 35.431406) scale(0.09 -0.09)">
      <defs>
       <path id="ArialMT-55" d="M 3500 4581 
L 4106 4581 
L 4106 1934 
Q 4106 1244 3950 837 
Q 3794 431 3386 176 
Q 2978 -78 2316 -78 
Q 1672 -78 1262 144 
Q 853 366 678 786 
Q 503 1206 503 1934 
L 503 4581 
L 1109 4581 
L 1109 1938 
Q 1109 1341 1220 1058 
Q 1331 775 1601 622 
Q 1872 469 2263 469 
Q 2931 469 3215 772 
Q 3500 1075 3500 1938 
L 3500 4581 
z
" transform="scale(0.015625)"/>
      </defs>
      <use xlink:href="#ArialMT-43"/>
      <use xlink:href="#ArialMT-50" transform="translate(72.216797 0)"/>
      <use xlink:href="#ArialMT-55" transform="translate(138.916016 0)"/>
     </g>
    </g>
    <g id="line2d_24">
     <path d="M 318.992188 44.146406 
L 326.992188 44.146406 
L 334.992188 44.146406 
" style="fill: none; stroke: #1f77b4; stroke-width: 2; stroke-linecap: round"/>
    </g>
    <g id="text_20">
     <!-- CPU 0 -->
     <g style="fill: #262626" transform="translate(341.392188 46.946406) scale(0.08 -0.08)">
      <use xlink:href="#ArialMT-43"/>
      <use xlink:href="#ArialMT-50" transform="translate(72.216797 0)"/>
      <use xlink:href="#ArialMT-55" transform="translate(138.916016 0)"/>
      <use xlink:href="#ArialMT-20" transform="translate(211.132812 0)"/>
      <use xlink:href="#ArialMT-30" transform="translate(238.916016 0)"/>
     </g>
    </g>
    <g id="line2d_25">
     <path d="M 318.992188 55.462656 
L 326.992188 55.462656 
L 334.992188 55.462656 
" style="fill: none; stroke: #ff7f0e; stroke-width: 2; stroke-linecap: round"/>
    </g>
    <g id="text_21">
     <!-- CPU 1 -->
     <g style="fill: #262626" transform="translate(341.392188 58.262656) scale(0.08 -0.08)">
      <use xlink:href="#ArialMT-43"/>
      <use xlink:href="#ArialMT-50" transform="translate(72.216797 0)"/>
      <use xlink:href="#ArialMT-55" transform="translate(138.916016 0)"/>
      <use xlink:href="#ArialMT-20" transform="translate(211.132812 0)"/>
      <use xlink:href="#ArialMT-31" transform="translate(238.916016 0)"/>
     </g>
    </g>
    <g id="line2d_26">
     <path d="M 380.954688 44.146406 
L 388.954688 44.146406 
L 396.954688 44.146406 
" style="fill: none; stroke: #2ca02c; stroke-width: 2; stroke-linecap: round"/>
    </g>
    <g id="text_22">
     <!-- CPU 2 -->
     <g style="fill: #262626" transform="translate(403.354688 46.946406) scale(0.08 -0.08)">
      <use xlink:href="#ArialMT-43"/>
      <use xlink:href="#ArialMT-50" transform="translate(72.216797 0)"/>
      <use xlink:href="#ArialMT-55" transform="translate(138.916016 0)"/>
      <use xlink:href="#ArialMT-20" transform="translate(211.132812 0)"/>
      <use xlink:href="#ArialMT-32" transform="translate(238.916016 0)"/>
     </g>
    </g>
    <g id="line2d_27">
     <path d="M 380.954688 55.462656 
L 388.954688 55.462656 
L 396.954688 55.462656 
" style="fill: none; stroke: #d62728; stroke-width: 2; stroke-linecap: round"/>
    </g>
    <g id="text_23">
     <!-- CPU 3 -->
     <g style="fill: #262626" transform="translate(403.354688 58.262656) scale(0.08 -0.08)">
      <defs>
       <path id="ArialMT-33" d="M 269 1209 
L 831 1284 
Q 928 806 1161 595 
Q 1394 384 1728 384 
Q 2125 384 2398 659 
Q 2672 934 2672 1341 
Q 2672 1728 2419 1979 
Q 2166 2231 1775 2231 
Q 1616 2231 1378 2169 
L 1441 2663 
Q 1497 2656 1531 2656 
Q 1891 2656 2178 2843 
Q 2466 3031 2466 3422 
Q 2466 3731 2256 3934 
Q 2047 4138 1716 4138 
Q 1388 4138 1169 3931 
Q 950 3725 888 3313 
L 325 3413 
Q 428 3978 793 4289 
Q 1159 4600 1703 4600 
Q 2078 4600 2393 4439 
Q 2709 4278 2876 4000 
Q 3044 3722 3044 3409 
Q 3044 3113 2884 2869 
Q 2725 2625 2413 2481 
Q 2819 2388 3044 2092 
Q 3269 1797 3269 1353 
Q 3269 753 2831 336 
Q 2394 -81 1725 -81 
Q 1122 -81 723 278 
Q 325 638 269 1209 
z
" transform="scale(0.015625)"/>
      </defs>
      <use xlink:href="#ArialMT-43"/>
      <use xlink:href="#ArialMT-50" transform="translate(72.216797 0)"/>
      <use xlink:href="#ArialMT-55" transform="translate(138.916016 0)"/>
      <use xlink:href="#ArialMT-20" transform="translate(211.132812 0)"/>
      <use xlink:href="#ArialMT-33" transform="translate(238.916016 0)"/>
     </g>
    </g>
   </g>
   <g id="legend_2">
    <g id="patch_8">
     <path d="M 49.867188 63.240156 
L 100.813438 63.240156 
Q 102.413438 63.240156 102.413438 61.640156 
L 102.413438 27.389375 
Q 102.413438 25.789375 100.813438 25.789375 
L 49.867188 25.789375 
Q 48.267188 25.789375 48.267188 27.389375 
L 48.267188 61.640156 
Q 48.267188 63.240156 49.867188 63.240156 
z
" style="fill: #ffffff; opacity: 0.8; stroke: #cccccc; stroke-linejoin: miter"/>
    </g>
    <g id="text_24">
     <!-- Variant -->
     <g style="fill: #262626" transform="translate(61.414922 35.431406) scale(0.09 -0.09)">
      <defs>
       <path id="ArialMT-56" d="M 1803 0 
L 28 4581 
L 684 4581 
L 1875 1253 
Q 2019 853 2116 503 
Q 2222 878 2363 1253 
L 3600 4581 
L 4219 4581 
L 2425 0 
L 1803 0 
z
" transform="scale(0.015625)"/>
       <path id="ArialMT-6e" d="M 422 0 
L 422 3319 
L 928 3319 
L 928 2847 
Q 1294 3394 1984 3394 
Q 2284 3394 2536 3286 
Q 2788 3178 2913 3003 
Q 3038 2828 3088 2588 
Q 3119 2431 3119 2041 
L 3119 0 
L 2556 0 
L 2556 2019 
Q 2556 2363 2490 2533 
Q 2425 2703 2258 2804 
Q 2091 2906 1866 2906 
Q 1506 2906 1245 2678 
Q 984 2450 984 1813 
L 984 0 
L 422 0 
z
" transform="scale(0.015625)"/>
       <path id="ArialMT-74" d="M 1650 503 
L 1731 6 
Q 1494 -44 1306 -44 
Q 1000 -44 831 53 
Q 663 150 594 308 
Q 525 466 525 972 
L 525 2881 
L 113 2881 
L 113 3319 
L 525 3319 
L 525 4141 
L 1084 4478 
L 1084 3319 
L 1650 3319 
L 1650 2881 
L 1084 2881 
L 1084 941 
Q 1084 700 1114 631 
Q 1144 563 1211 522 
Q 1278 481 1403 481 
Q 1497 481 1650 503 
z
" transform="scale(0.015625)"/>
      </defs>
      <use xlink:href="#ArialMT-56"/>
      <use xlink:href="#ArialMT-61" transform="translate(59.324219 0)"/>
      <use xlink:href="#ArialMT-72" transform="translate(114.939453 0)"/>
      <use xlink:href="#ArialMT-69" transform="translate(148.240234 0)"/>
      <use xlink:href="#ArialMT-61" transform="translate(170.457031 0)"/>
      <use xlink:href="#ArialMT-6e" transform="translate(226.072266 0)"/>
      <use xlink:href="#ArialMT-74" transform="translate(281.6875 0)"/>
     </g>
    </g>
    <g id="line2d_28">
     <path d="M 51.467188 44.146406 
L 59.467188 44.146406 
L 67.467188 44.146406 
" style="fill: none; stroke: #333333; stroke-width: 2; stroke-linecap: round"/>
    </g>
    <g id="text_25">
     <!-- queryA -->
     <g style="fill: #262626" transform="translate(73.867188 46.946406) scale(0.08 -0.08)">
      <defs>
       <path id="ArialMT-71" d="M 2538 -1272 
L 2538 353 
Q 2406 169 2170 47 
Q 1934 -75 1669 -75 
Q 1078 -75 651 397 
Q 225 869 225 1691 
Q 225 2191 398 2587 
Q 572 2984 901 3189 
Q 1231 3394 1625 3394 
Q 2241 3394 2594 2875 
L 2594 3319 
L 3100 3319 
L 3100 -1272 
L 2538 -1272 
z
M 803 1669 
Q 803 1028 1072 708 
Q 1341 388 1716 388 
Q 2075 388 2334 692 
Q 2594 997 2594 1619 
Q 2594 2281 2320 2615 
Q 2047 2950 1678 2950 
Q 1313 2950 1058 2639 
Q 803 2328 803 1669 
z
" transform="scale(0.015625)"/>
      </defs>
      <use xlink:href="#ArialMT-71"/>
      <use xlink:href="#ArialMT-75" transform="translate(55.615234 0)"/>
      <use xlink:href="#ArialMT-65" transform="translate(111.230469 0)"/>
      <use xlink:href="#ArialMT-72" transform="translate(166.845703 0)"/>
      <use xlink:href="#ArialMT-79" transform="translate(200.146484 0)"/>
      <use xlink:href="#ArialMT-41" transform="translate(250.146484 0)"/>
     </g>
    </g>
    <g id="line2d_29">
     <path d="M 51.467188 55.556406 
L 59.467188 55.556406 
L 67.467188 55.556406 
" style="fill: none; stroke-dasharray: 7.4,3.2; stroke-dashoffset: 0; stroke: #333333; stroke-width: 2"/>
    </g>
    <g id="text_26">
     <!-- queryB -->
     <g style="fill: #262626" transform="translate(73.867188 58.356406) scale(0.08 -0.08)">
      <use xlink:href="#ArialMT-71"/>
      <use xlink:href="#ArialMT-75" transform="translate(55.615234 0)"/>
      <use xlink:href="#ArialMT-65" transform="translate(111.230469 0)"/>
      <use xlink:href="#ArialMT-72" transform="translate(166.845703 0)"/>
      <use xlink:href="#ArialMT-79" transform="translate(200.146484 0)"/>
      <use xlink:href="#ArialMT-42" transform="translate(250.146484 0)"/>
     </g>
    </g>
   </g>
  </g>
  <g id="axes_2">
   <g id="patch_9">
    <path d="M 458.997187 278.389375 
L 848.847187 278.389375 
L 848.847187 21.789375 
L 458.997187 21.789375 
z
" style="fill: #ffffff"/>
   </g>
   <g id="matplotlib.axis_3">
    <g id="xtick_10">
     <g id="line2d_30">
      <path d="M 458.997187 278.389375 
L 458.997187 21.789375 
" clip-path="url(#pe921c47897)" style="fill: none; stroke: #cccccc; stroke-opacity: 0.2; stroke-width: 0.8; stroke-linecap: round"/>
     </g>
     <g id="text_27">
      <!-- 0 -->
      <g style="fill: #262626" transform="translate(456.216719 292.547188) scale(0.1 -0.1)">
       <use xlink:href="#ArialMT-30"/>
      </g>
     </g>
    </g>
    <g id="xtick_11">
     <g id="line2d_31">
      <path d="M 505.68581 278.389375 
L 505.68581 21.789375 
" clip-path="url(#pe921c47897)" style="fill: none; stroke: #cccccc; stroke-opacity: 0.2; stroke-width: 0.8; stroke-linecap: round"/>
     </g>
     <g id="text_28">
      <!-- 20 -->
      <g style="fill: #262626" transform="translate(500.124873 292.547188) scale(0.1 -0.1)">
       <use xlink:href="#ArialMT-32"/>
       <use xlink:href="#ArialMT-30" transform="translate(55.615234 0)"/>
      </g>
     </g>
    </g>
    <g id="xtick_12">
     <g id="line2d_32">
      <path d="M 552.374433 278.389375 
L 552.374433 21.789375 
" clip-path="url(#pe921c47897)" style="fill: none; stroke: #cccccc; stroke-opacity: 0.2; stroke-width: 0.8; stroke-linecap: round"/>
     </g>
     <g id="text_29">
      <!-- 40 -->
      <g style="fill: #262626" transform="translate(546.813496 292.547188) scale(0.1 -0.1)">
       <use xlink:href="#ArialMT-34"/>
       <use xlink:href="#ArialMT-30" transform="translate(55.615234 0)"/>
      </g>
     </g>
    </g>
    <g id="xtick_13">
     <g id="line2d_33">
      <path d="M 599.063056 278.389375 
L 599.063056 21.789375 
" clip-path="url(#pe921c47897)" style="fill: none; stroke: #cccccc; stroke-opacity: 0.2; stroke-width: 0.8; stroke-linecap: round"/>
     </g>
     <g id="text_30">
      <!-- 60 -->
      <g style="fill: #262626" transform="translate(593.502118 292.547188) scale(0.1 -0.1)">
       <use xlink:href="#ArialMT-36"/>
       <use xlink:href="#ArialMT-30" transform="translate(55.615234 0)"/>
      </g>
     </g>
    </g>
    <g id="xtick_14">
     <g id="line2d_34">
      <path d="M 645.751679 278.389375 
L 645.751679 21.789375 
" clip-path="url(#pe921c47897)" style="fill: none; stroke: #cccccc; stroke-opacity: 0.2; stroke-width: 0.8; stroke-linecap: round"/>
     </g>
     <g id="text_31">
      <!-- 80 -->
      <g style="fill: #262626" transform="translate(640.190741 292.547188) scale(0.1 -0.1)">
       <use xlink:href="#ArialMT-38"/>
       <use xlink:href="#ArialMT-30" transform="translate(55.615234 0)"/>
      </g>
     </g>
    </g>
    <g id="xtick_15">
     <g id="line2d_35">
      <path d="M 692.440301 278.389375 
L 692.440301 21.789375 
" clip-path="url(#pe921c47897)" style="fill: none; stroke: #cccccc; stroke-opacity: 0.2; stroke-width: 0.8; stroke-linecap: round"/>
     </g>
     <g id="text_32">
      <!-- 100 -->
      <g style="fill: #262626" transform="translate(684.098895 292.547188) scale(0.1 -0.1)">
       <use xlink:href="#ArialMT-31"/>
       <use xlink:href="#ArialMT-30" transform="translate(55.615234 0)"/>
       <use xlink:href="#ArialMT-30" transform="translate(111.230469 0)"/>
      </g>
     </g>
    </g>
    <g id="xtick_16">
     <g id="line2d_36">
      <path d="M 739.128924 278.389375 
L 739.128924 21.789375 
" clip-path="url(#pe921c47897)" style="fill: none; stroke: #cccccc; stroke-opacity: 0.2; stroke-width: 0.8; stroke-linecap: round"/>
     </g>
     <g id="text_33">
      <!-- 120 -->
      <g style="fill: #262626" transform="translate(730.787518 292.547188) scale(0.1 -0.1)">
       <use xlink:href="#ArialMT-31"/>
       <use xlink:href="#ArialMT-32" transform="translate(55.615234 0)"/>
       <use xlink:href="#ArialMT-30" transform="translate(111.230469 0)"/>
      </g>
     </g>
    </g>
    <g id="xtick_17">
     <g id="line2d_37">
      <path d="M 785.817547 278.389375 
L 785.817547 21.789375 
" clip-path="url(#pe921c47897)" style="fill: none; stroke: #cccccc; stroke-opacity: 0.2; stroke-width: 0.8; stroke-linecap: round"/>
     </g>
     <g id="text_34">
      <!-- 140 -->
      <g style="fill: #262626" transform="translate(777.476141 292.547188) scale(0.1 -0.1)">
       <use xlink:href="#ArialMT-31"/>
       <use xlink:href="#ArialMT-34" transform="translate(55.615234 0)"/>
       <use xlink:href="#ArialMT-30" transform="translate(111.230469 0)"/>
      </g>
     </g>
    </g>
    <g id="xtick_18">
     <g id="line2d_38">
      <path d="M 832.50617 278.389375 
L 832.50617 21.789375 
" clip-path="url(#pe921c47897)" style="fill: none; stroke: #cccccc; stroke-opacity: 0.2; stroke-width: 0.8; stroke-linecap: round"/>
     </g>
     <g id="text_35">
      <!-- 160 -->
      <g style="fill: #262626" transform="translate(824.164763 292.547188) scale(0.1 -0.1)">
       <use xlink:href="#ArialMT-31"/>
       <use xlink:href="#ArialMT-36" transform="translate(55.615234 0)"/>
       <use xlink:href="#ArialMT-30" transform="translate(111.230469 0)"/>
      </g>
     </g>
    </g>
    <g id="text_36">
     <!-- Elapsed Time (sec) -->
     <g style="fill: #262626" transform="translate(611.130781 305.814375) scale(0.1 -0.1)">
      <use xlink:href="#ArialMT-45"/>
      <use xlink:href="#ArialMT-6c" transform="translate(66.699219 0)"/>
      <use xlink:href="#ArialMT-61" transform="translate(88.916016 0)"/>
      <use xlink:href="#ArialMT-70" transform="translate(144.53125 0)"/>
      <use xlink:href="#ArialMT-73" transform="translate(200.146484 0)"/>
      <use xlink:href="#ArialMT-65" transform="translate(250.146484 0)"/>
      <use xlink:href="#ArialMT-64" transform="translate(305.761719 0)"/>
      <use xlink:href="#ArialMT-20" transform="translate(361.376953 0)"/>
      <use xlink:href="#ArialMT-54" transform="translate(387.410156 0)"/>
      <use xlink:href="#ArialMT-69" transform="translate(444.744141 0)"/>
      <use xlink:href="#ArialMT-6d" transform="translate(466.960938 0)"/>
      <use xlink:href="#ArialMT-65" transform="translate(550.261719 0)"/>
      <use xlink:href="#ArialMT-20" transform="translate(605.876953 0)"/>
      <use xlink:href="#ArialMT-28" transform="translate(633.660156 0)"/>
      <use xlink:href="#ArialMT-73" transform="translate(666.960938 0)"/>
      <use xlink:href="#ArialMT-65" transform="translate(716.960938 0)"/>
      <use xlink:href="#ArialMT-63" transform="translate(772.576172 0)"/>
      <use xlink:href="#ArialMT-29" transform="translate(822.576172 0)"/>
     </g>
    </g>
   </g>
   <g id="matplotlib.axis_4">
    <g id="ytick_7">
     <g id="line2d_39">
      <path d="M 458.997187 271.042939 
L 848.847187 271.042939 
" clip-path="url(#pe921c47897)" style="fill: none; stroke: #cccccc; stroke-opacity: 0.2; stroke-width: 0.8; stroke-linecap: round"/>
     </g>
    </g>
    <g id="ytick_8">
     <g id="line2d_40">
      <path d="M 458.997187 223.074046 
L 848.847187 223.074046 
" clip-path="url(#pe921c47897)" style="fill: none; stroke: #cccccc; stroke-opacity: 0.2; stroke-width: 0.8; stroke-linecap: round"/>
     </g>
    </g>
    <g id="ytick_9">
     <g id="line2d_41">
      <path d="M 458.997187 175.105153 
L 848.847187 175.105153 
" clip-path="url(#pe921c47897)" style="fill: none; stroke: #cccccc; stroke-opacity: 0.2; stroke-width: 0.8; stroke-linecap: round"/>
     </g>
    </g>
    <g id="ytick_10">
     <g id="line2d_42">
      <path d="M 458.997187 127.13626 
L 848.847187 127.13626 
" clip-path="url(#pe921c47897)" style="fill: none; stroke: #cccccc; stroke-opacity: 0.2; stroke-width: 0.8; stroke-linecap: round"/>
     </g>
    </g>
    <g id="ytick_11">
     <g id="line2d_43">
      <path d="M 458.997187 79.167367 
L 848.847187 79.167367 
" clip-path="url(#pe921c47897)" style="fill: none; stroke: #cccccc; stroke-opacity: 0.2; stroke-width: 0.8; stroke-linecap: round"/>
     </g>
    </g>
    <g id="ytick_12">
     <g id="line2d_44">
      <path d="M 458.997187 31.198473 
L 848.847187 31.198473 
" clip-path="url(#pe921c47897)" style="fill: none; stroke: #cccccc; stroke-opacity: 0.2; stroke-width: 0.8; stroke-linecap: round"/>
     </g>
    </g>
    <g id="text_37">
     <!-- Busy% -->
     <g style="fill: #262626" transform="translate(452.8925 165.651094) rotate(-90) scale(0.1 -0.1)">
      <use xlink:href="#ArialMT-42"/>
      <use xlink:href="#ArialMT-75" transform="translate(66.699219 0)"/>
      <use xlink:href="#ArialMT-73" transform="translate(122.314453 0)"/>
      <use xlink:href="#ArialMT-79" transform="translate(172.314453 0)"/>
      <use xlink:href="#ArialMT-25" transform="translate(222.314453 0)"/>
     </g>
    </g>
   </g>
   <g id="line2d_45">
    <path d="M 458.997187 264.878936 
L 463.66605 266.653785 
L 466.000481 265.766361 
L 468.334912 266.629801 
L 470.669343 265.59847 
L 473.003774 265.766361 
L 475.338205 266.629801 
L 477.672637 265.742376 
L 480.007068 266.701754 
L 482.341499 265.694407 
L 484.67593 265.838314 
L 487.010361 266.605816 
L 489.344792 265.766361 
L 491.679223 266.653785 
L 494.013655 265.742376 
L 496.348086 265.718392 
L 498.682517 266.629801 
L 501.016948 265.766361 
L 503.351379 266.701754 
L 505.68581 265.81433 
L 508.020241 265.790345 
L 510.354673 266.629801 
L 512.689104 265.646439 
L 515.023535 266.653785 
L 517.357966 265.934252 
L 519.692397 266.150112 
L 522.026828 266.67777 
L 524.361259 266.102143 
L 526.69569 266.725739 
L 529.030122 266.126127 
L 531.364553 266.198081 
L 533.698984 266.67777 
L 536.033415 265.790345 
L 538.367846 266.701754 
L 540.702277 266.24605 
L 543.036708 265.59847 
L 545.37114 266.581832 
L 547.705571 265.574485 
L 550.040002 266.67777 
L 552.374433 265.502532 
L 554.708864 265.550501 
L 557.043295 266.653785 
L 559.377726 265.982221 
L 561.712158 266.701754 
L 564.046589 266.24605 
L 566.38102 266.078159 
L 568.715451 266.629801 
L 571.049882 266.150112 
L 573.384313 266.701754 
L 575.718744 266.102143 
L 578.053176 266.24605 
L 580.387607 266.653785 
L 582.722038 265.910267 
L 585.056469 266.653785 
L 587.3909 265.454563 
L 589.725331 265.454563 
L 592.059762 266.629801 
L 594.394193 265.502532 
L 596.728625 266.629801 
L 599.063056 265.694407 
L 601.397487 266.222065 
L 603.731918 266.629801 
L 606.066349 265.910267 
L 608.40078 266.653785 
L 610.735211 265.502532 
L 613.069643 265.550501 
L 615.404074 266.557848 
L 617.738505 265.550501 
L 620.072936 266.725739 
L 622.407367 265.838314 
L 624.741798 266.24605 
L 627.076229 266.533863 
L 629.410661 266.341987 
L 631.745092 266.701754 
L 634.079523 265.958236 
L 636.413954 265.550501 
L 638.748385 266.581832 
L 641.082816 265.910267 
L 643.417247 266.67777 
L 645.751679 265.862299 
L 648.08611 265.694407 
L 650.420541 266.533863 
L 652.754972 265.574485 
L 655.089403 266.653785 
L 657.423834 265.526516 
L 659.758265 265.646439 
L 662.092696 266.46191 
L 664.427128 265.910267 
L 666.761559 266.67777 
L 669.09599 266.294019 
L 671.430421 266.485894 
L 676.099283 266.174096 
L 678.433714 266.701754 
L 680.768146 265.886283 
L 683.102577 265.742376 
L 685.437008 266.485894 
L 687.771439 265.934252 
L 690.10587 266.365972 
L 692.440301 266.078159 
L 694.774732 266.533863 
L 697.109164 266.318003 
L 699.443595 265.862299 
L 701.778026 266.605816 
L 704.112457 265.502532 
L 706.446888 265.742376 
L 708.781319 266.365972 
L 711.11575 265.886283 
L 713.450182 266.725739 
L 715.784613 266.006205 
L 718.119044 266.581832 
L 720.453475 266.174096 
L 722.787906 266.102143 
L 725.122337 266.701754 
L 727.456768 265.886283 
L 729.791199 266.533863 
L 732.125631 265.766361 
L 734.460062 265.742376 
L 736.794493 266.653785 
L 739.128924 265.59847 
L 741.463355 266.653785 
L 743.797786 265.670423 
L 746.132217 265.742376 
L 748.466649 266.653785 
L 750.80108 265.694407 
L 753.135511 266.725739 
L 755.469942 265.742376 
L 757.804373 265.790345 
L 760.138804 266.701754 
L 762.473235 265.790345 
L 764.807667 266.701754 
L 767.142098 265.670423 
L 769.476529 265.81433 
L 771.81096 266.701754 
L 774.145391 265.742376 
L 776.479822 266.605816 
L 778.814253 265.718392 
L 781.148685 265.766361 
L 783.483116 266.605816 
L 785.817547 265.718392 
L 788.151978 266.725739 
L 790.486409 265.790345 
L 792.82084 265.790345 
L 795.155271 266.581832 
L 797.489702 265.694407 
L 799.824134 266.67777 
L 802.158565 265.766361 
L 804.492996 265.81433 
L 806.827427 266.701754 
L 809.161858 265.718392 
L 811.496289 266.46191 
L 813.83072 265.838314 
L 816.165152 265.59847 
L 818.499583 266.629801 
L 820.834014 265.646439 
L 823.168445 266.126127 
L 825.502876 266.341987 
L 827.837307 265.81433 
L 830.171738 266.67777 
L 832.50617 265.718392 
L 834.840601 266.485894 
L 837.175032 265.910267 
L 839.509463 265.766361 
L 841.843894 266.701754 
L 844.178325 265.766361 
L 846.512756 266.629801 
L 848.847187 244.300281 
L 848.847187 244.300281 
" clip-path="url(#pe921c47897)" style="fill: none; stroke: #1f77b4; stroke-opacity: 0.9; stroke-width: 1.2; stroke-linecap: round"/>
   </g>
   <g id="line2d_46">
    <path d="M 458.997187 264.111434 
L 463.66605 265.238703 
L 466.000481 264.878936 
L 468.334912 265.286672 
L 473.003774 264.878936 
L 475.338205 265.38261 
L 477.672637 264.639092 
L 480.007068 265.334641 
L 482.341499 264.51917 
L 484.67593 264.711045 
L 487.010361 265.358625 
L 489.344792 264.830967 
L 491.679223 265.286672 
L 494.013655 264.974874 
L 496.348086 264.998858 
L 498.682517 264.375263 
L 501.016948 265.094796 
L 503.351379 265.454563 
L 505.68581 264.830967 
L 508.020241 264.806983 
L 510.354673 265.310656 
L 512.689104 264.974874 
L 515.023535 265.358625 
L 517.357966 264.759014 
L 519.692397 264.663076 
L 522.026828 265.334641 
L 524.361259 264.615107 
L 526.69569 265.310656 
L 529.030122 264.543154 
L 531.364553 264.73503 
L 533.698984 265.310656 
L 536.033415 264.207372 
L 538.367846 265.286672 
L 540.702277 264.495185 
L 543.036708 264.687061 
L 545.37114 265.38261 
L 547.705571 264.759014 
L 550.040002 265.406594 
L 552.374433 264.73503 
L 554.708864 264.759014 
L 557.043295 265.358625 
L 559.377726 264.615107 
L 561.712158 265.430579 
L 564.046589 264.591123 
L 566.38102 264.663076 
L 568.715451 264.327294 
L 571.049882 264.687061 
L 573.384313 265.358625 
L 575.718744 264.663076 
L 578.053176 264.663076 
L 580.387607 265.334641 
L 582.722038 264.711045 
L 585.056469 265.238703 
L 587.3909 264.759014 
L 589.725331 264.782998 
L 592.059762 265.334641 
L 594.394193 264.663076 
L 596.728625 265.358625 
L 599.063056 264.663076 
L 601.397487 264.759014 
L 603.731918 265.142765 
L 606.066349 264.51917 
L 608.40078 265.214719 
L 610.735211 264.73503 
L 613.069643 264.902921 
L 615.404074 265.214719 
L 617.738505 264.95089 
L 620.072936 265.286672 
L 622.407367 264.687061 
L 624.741798 264.687061 
L 627.076229 265.214719 
L 629.410661 264.423232 
L 631.745092 265.262687 
L 634.079523 264.711045 
L 636.413954 265.118781 
L 638.748385 265.238703 
L 641.082816 263.607761 
L 643.417247 265.406594 
L 645.751679 264.854952 
L 648.08611 265.238703 
L 652.754972 265.094796 
L 655.089403 265.310656 
L 657.423834 264.974874 
L 659.758265 265.142765 
L 662.092696 265.16675 
L 664.427128 264.830967 
L 666.761559 265.310656 
L 669.09599 264.447216 
L 671.430421 264.639092 
L 673.764852 265.214719 
L 676.099283 264.591123 
L 678.433714 265.334641 
L 680.768146 264.663076 
L 683.102577 265.16675 
L 685.437008 265.070812 
L 687.771439 264.782998 
L 690.10587 265.334641 
L 692.440301 264.51917 
L 694.774732 264.687061 
L 697.109164 265.238703 
L 699.443595 264.830967 
L 701.778026 265.38261 
L 704.112457 265.094796 
L 708.781319 265.142765 
L 711.11575 263.631745 
L 713.450182 265.430579 
L 715.784613 264.567138 
L 718.119044 265.094796 
L 720.453475 264.806983 
L 722.787906 264.806983 
L 725.122337 265.310656 
L 727.456768 264.711045 
L 729.791199 265.334641 
L 732.125631 264.51917 
L 734.460062 264.543154 
L 736.794493 265.406594 
L 739.128924 264.591123 
L 741.463355 265.406594 
L 743.797786 264.591123 
L 746.132217 264.687061 
L 748.466649 265.38261 
L 750.80108 264.639092 
L 753.135511 265.310656 
L 755.469942 264.591123 
L 757.804373 264.51917 
L 760.138804 265.310656 
L 762.473235 264.591123 
L 764.807667 265.046827 
L 767.142098 264.639092 
L 771.81096 265.310656 
L 774.145391 265.070812 
L 776.479822 265.262687 
L 778.814253 265.046827 
L 781.148685 263.799636 
L 783.483116 265.286672 
L 785.817547 264.615107 
L 788.151978 265.38261 
L 790.486409 264.591123 
L 792.82084 264.639092 
L 795.155271 265.38261 
L 797.489702 264.902921 
L 799.824134 265.38261 
L 802.158565 265.094796 
L 804.492996 265.070812 
L 806.827427 265.38261 
L 809.161858 265.046827 
L 811.496289 265.430579 
L 816.165152 265.286672 
L 818.499583 265.310656 
L 820.834014 265.118781 
L 823.168445 265.190734 
L 825.502876 265.118781 
L 827.837307 264.73503 
L 830.171738 265.334641 
L 832.50617 264.447216 
L 834.840601 264.974874 
L 837.175032 264.73503 
L 839.509463 265.118781 
L 841.843894 265.38261 
L 844.178325 265.046827 
L 846.512756 265.310656 
L 848.847187 258.738918 
L 848.847187 258.738918 
" clip-path="url(#pe921c47897)" style="fill: none; stroke: #ff7f0e; stroke-opacity: 0.9; stroke-width: 1.2; stroke-linecap: round"/>
   </g>
   <g id="line2d_47">
    <path d="M 458.997187 41.271941 
L 461.331619 41.823583 
L 466.000481 41.439832 
L 468.334912 41.943505 
L 473.003774 41.799599 
L 475.338205 41.823583 
L 477.672637 41.487801 
L 482.341499 41.391863 
L 487.010361 41.871552 
L 491.679223 41.391863 
L 494.013655 41.679677 
L 496.348086 41.679677 
L 498.682517 41.991474 
L 505.68581 41.871552 
L 508.020241 41.53577 
L 512.689104 41.991474 
L 515.023535 41.679677 
L 526.69569 41.247956 
L 529.030122 41.679677 
L 531.364553 41.727645 
L 533.698984 41.583739 
L 536.033415 42.015459 
L 538.367846 41.943505 
L 540.702277 41.631708 
L 543.036708 41.655692 
L 545.37114 41.367879 
L 547.705571 41.415848 
L 550.040002 40.696314 
L 552.374433 40.600376 
L 557.043295 39.784905 
L 559.377726 40.120688 
L 561.712158 39.736936 
L 564.046589 40.072719 
L 566.38102 40.096703 
L 571.049882 40.624361 
L 573.384313 40.816236 
L 575.718744 41.631708 
L 578.053176 41.919521 
L 580.387607 41.631708 
L 585.056469 42.039443 
L 589.725331 42.18335 
L 592.059762 41.847568 
L 596.728625 41.775614 
L 601.397487 41.96749 
L 603.731918 41.559754 
L 606.066349 41.871552 
L 613.069643 41.75163 
L 615.404074 42.039443 
L 617.738505 41.823583 
L 620.072936 41.799599 
L 622.407367 41.631708 
L 627.076229 41.53577 
L 629.410661 41.775614 
L 631.745092 41.511785 
L 634.079523 41.367879 
L 636.413954 41.53577 
L 638.748385 41.53577 
L 641.082816 41.823583 
L 643.417247 41.487801 
L 645.751679 41.871552 
L 650.420541 41.727645 
L 655.089403 41.775614 
L 657.423834 41.991474 
L 662.092696 42.015459 
L 664.427128 41.439832 
L 666.761559 41.607723 
L 669.09599 41.919521 
L 671.430421 41.775614 
L 673.764852 41.847568 
L 676.099283 41.799599 
L 678.433714 41.559754 
L 680.768146 42.087412 
L 683.102577 41.511785 
L 687.771439 41.991474 
L 690.10587 41.943505 
L 692.440301 42.063428 
L 694.774732 41.607723 
L 697.109164 41.679677 
L 699.443595 41.511785 
L 701.778026 41.511785 
L 704.112457 41.775614 
L 706.446888 41.919521 
L 708.781319 41.919521 
L 711.11575 42.039443 
L 713.450182 41.679677 
L 718.119044 41.895537 
L 720.453475 41.991474 
L 725.122337 41.96749 
L 727.456768 42.135381 
L 729.791199 41.96749 
L 732.125631 42.111397 
L 734.460062 41.775614 
L 736.794493 42.015459 
L 739.128924 41.943505 
L 741.463355 41.679677 
L 743.797786 41.943505 
L 746.132217 41.703661 
L 748.466649 41.799599 
L 750.80108 41.775614 
L 753.135511 41.631708 
L 755.469942 41.775614 
L 757.804373 42.039443 
L 764.807667 42.18335 
L 767.142098 41.871552 
L 778.814253 41.991474 
L 781.148685 41.823583 
L 783.483116 42.135381 
L 785.817547 41.943505 
L 790.486409 42.063428 
L 792.82084 41.799599 
L 795.155271 41.199988 
L 797.489702 40.408501 
L 799.824134 39.760921 
L 802.158565 40.02475 
L 804.492996 40.000765 
L 806.827427 39.760921 
L 809.161858 40.02475 
L 811.496289 39.784905 
L 813.83072 40.384516 
L 816.165152 40.480454 
L 820.834014 41.919521 
L 823.168445 42.063428 
L 825.502876 42.015459 
L 827.837307 42.111397 
L 830.171738 41.96749 
L 834.840601 42.111397 
L 837.175032 42.159365 
L 841.843894 41.703661 
L 844.178325 41.991474 
L 846.512756 41.943505 
L 848.847187 46.140784 
L 848.847187 46.140784 
" clip-path="url(#pe921c47897)" style="fill: none; stroke: #2ca02c; stroke-opacity: 0.9; stroke-width: 1.2; stroke-linecap: round"/>
   </g>
   <g id="line2d_48">
    <path d="M 458.997187 264.255341 
L 461.331619 264.830967 
L 463.66605 265.070812 
L 466.000481 264.543154 
L 468.334912 264.30331 
L 470.669343 264.231356 
L 473.003774 264.567138 
L 475.338205 265.118781 
L 477.672637 264.806983 
L 480.007068 265.070812 
L 482.341499 264.759014 
L 484.67593 264.830967 
L 487.010361 265.16675 
L 489.344792 264.663076 
L 491.679223 265.118781 
L 494.013655 264.375263 
L 496.348086 264.375263 
L 498.682517 264.591123 
L 501.016948 264.423232 
L 503.351379 265.16675 
L 505.68581 264.375263 
L 508.020241 264.543154 
L 510.354673 265.142765 
L 512.689104 264.567138 
L 515.023535 265.118781 
L 517.357966 264.279325 
L 519.692397 264.30331 
L 522.026828 265.118781 
L 524.361259 264.279325 
L 526.69569 265.046827 
L 529.030122 264.255341 
L 531.364553 264.327294 
L 533.698984 265.070812 
L 536.033415 262.888227 
L 538.367846 265.070812 
L 540.702277 264.30331 
L 543.036708 264.231356 
L 545.37114 265.118781 
L 547.705571 264.878936 
L 550.040002 265.16675 
L 552.374433 264.806983 
L 554.708864 264.806983 
L 557.043295 265.16675 
L 559.377726 264.615107 
L 561.712158 265.214719 
L 564.046589 264.399247 
L 566.38102 264.399247 
L 568.715451 264.663076 
L 571.049882 264.399247 
L 573.384313 265.142765 
L 575.718744 264.375263 
L 578.053176 264.351278 
L 580.387607 265.142765 
L 582.722038 264.51917 
L 585.056469 265.070812 
L 587.3909 264.806983 
L 589.725331 264.878936 
L 592.059762 265.118781 
L 594.394193 264.830967 
L 596.728625 265.118781 
L 599.063056 264.567138 
L 601.397487 264.183387 
L 603.731918 264.998858 
L 606.066349 264.567138 
L 608.40078 264.759014 
L 610.735211 264.51917 
L 615.404074 264.806983 
L 617.738505 264.495185 
L 620.072936 265.022843 
L 622.407367 264.543154 
L 624.741798 264.471201 
L 627.076229 264.998858 
L 629.410661 264.423232 
L 631.745092 265.070812 
L 634.079523 264.447216 
L 636.413954 264.543154 
L 638.748385 264.998858 
L 641.082816 263.919558 
L 643.417247 265.142765 
L 645.751679 264.351278 
L 648.08611 264.471201 
L 650.420541 264.926905 
L 652.754972 264.495185 
L 655.089403 265.094796 
L 657.423834 264.471201 
L 659.758265 264.591123 
L 662.092696 264.998858 
L 664.427128 264.375263 
L 666.761559 265.022843 
L 669.09599 264.231356 
L 671.430421 264.471201 
L 673.764852 264.95089 
L 676.099283 264.423232 
L 678.433714 265.070812 
L 680.768146 264.30331 
L 685.437008 264.854952 
L 687.771439 264.327294 
L 690.10587 264.926905 
L 692.440301 264.327294 
L 694.774732 264.591123 
L 697.109164 264.998858 
L 699.443595 264.543154 
L 701.778026 265.118781 
L 704.112457 264.543154 
L 706.446888 264.615107 
L 708.781319 264.95089 
L 711.11575 263.919558 
L 713.450182 265.142765 
L 715.784613 264.591123 
L 718.119044 265.046827 
L 720.453475 264.806983 
L 722.787906 264.375263 
L 725.122337 265.118781 
L 727.456768 264.495185 
L 729.791199 265.070812 
L 732.125631 264.902921 
L 736.794493 265.142765 
L 739.128924 264.974874 
L 741.463355 265.118781 
L 743.797786 264.830967 
L 746.132217 264.782998 
L 748.466649 265.118781 
L 750.80108 264.759014 
L 753.135511 265.118781 
L 755.469942 264.759014 
L 760.138804 265.070812 
L 762.473235 264.806983 
L 764.807667 265.094796 
L 769.476529 264.543154 
L 771.81096 265.118781 
L 774.145391 264.399247 
L 776.479822 265.046827 
L 778.814253 264.399247 
L 781.148685 264.015496 
L 783.483116 265.046827 
L 785.817547 264.782998 
L 788.151978 265.118781 
L 790.486409 264.830967 
L 792.82084 264.806983 
L 795.155271 265.16675 
L 797.489702 264.711045 
L 799.824134 265.190734 
L 802.158565 264.447216 
L 804.492996 264.447216 
L 806.827427 265.16675 
L 809.161858 264.423232 
L 811.496289 264.806983 
L 813.83072 264.782998 
L 816.165152 264.423232 
L 818.499583 265.118781 
L 820.834014 264.255341 
L 823.168445 264.327294 
L 825.502876 264.95089 
L 827.837307 264.687061 
L 830.171738 265.070812 
L 832.50617 264.878936 
L 834.840601 264.95089 
L 839.509463 264.423232 
L 841.843894 265.142765 
L 844.178325 264.423232 
L 846.512756 265.142765 
L 848.847187 235.66588 
L 848.847187 235.66588 
" clip-path="url(#pe921c47897)" style="fill: none; stroke: #d62728; stroke-opacity: 0.9; stroke-width: 1.2; stroke-linecap: round"/>
   </g>
   <g id="line2d_49">
    <path d="M 458.997187 255.309142 
L 461.331619 255.764847 
L 463.66605 255.477033 
L 466.000481 255.956722 
L 468.334912 255.716878 
L 470.669343 255.980707 
L 473.003774 250.512253 
" clip-path="url(#pe921c47897)" style="fill: none; stroke-dasharray: 4.44,1.92; stroke-dashoffset: 0; stroke: #1f77b4; stroke-opacity: 0.9; stroke-width: 1.2"/>
   </g>
   <g id="line2d_50">
    <path d="M 458.997187 258.762902 
L 461.331619 259.50642 
L 463.66605 259.146654 
L 466.000481 259.818218 
L 468.334912 259.794234 
L 470.669343 257.587664 
L 473.003774 248.569513 
" clip-path="url(#pe921c47897)" style="fill: none; stroke-dasharray: 4.44,1.92; stroke-dashoffset: 0; stroke: #ff7f0e; stroke-opacity: 0.9; stroke-width: 1.2"/>
   </g>
   <g id="line2d_51">
    <path d="M 458.997187 42.255303 
L 461.331619 42.111397 
L 463.66605 41.799599 
L 466.000481 42.087412 
L 468.334912 42.159365 
L 470.669343 42.39921 
L 473.003774 45.229375 
" clip-path="url(#pe921c47897)" style="fill: none; stroke-dasharray: 4.44,1.92; stroke-dashoffset: 0; stroke: #2ca02c; stroke-opacity: 0.9; stroke-width: 1.2"/>
   </g>
   <g id="line2d_52">
    <path d="M 458.997187 258.379151 
L 461.331619 258.42712 
L 463.66605 258.283213 
L 466.000481 258.475089 
L 468.334912 257.56368 
L 470.669343 259.386498 
L 473.003774 260.753611 
" clip-path="url(#pe921c47897)" style="fill: none; stroke-dasharray: 4.44,1.92; stroke-dashoffset: 0; stroke: #d62728; stroke-opacity: 0.9; stroke-width: 1.2"/>
   </g>
   <g id="patch_10">
    <path d="M 458.997187 278.389375 
L 458.997187 21.789375 
" style="fill: none; stroke: #cccccc; stroke-width: 0.8; stroke-linejoin: miter; stroke-linecap: square"/>
   </g>
   <g id="patch_11">
    <path d="M 848.847187 278.389375 
L 848.847187 21.789375 
" style="fill: none; stroke: #cccccc; stroke-width: 0.8; stroke-linejoin: miter; stroke-linecap: square"/>
   </g>
   <g id="patch_12">
    <path d="M 458.997187 278.389375 
L 848.847187 278.389375 
" style="fill: none; stroke: #cccccc; stroke-width: 0.8; stroke-linejoin: miter; stroke-linecap: square"/>
   </g>
   <g id="patch_13">
    <path d="M 458.997187 21.789375 
L 848.847187 21.789375 
" style="fill: none; stroke: #cccccc; stroke-width: 0.8; stroke-linejoin: miter; stroke-linecap: square"/>
   </g>
   <g id="text_38">
    <!-- APX1278 — PC1 1 core -->
    <g style="fill: #262626" transform="translate(589.2225 15.789375) scale(0.12 -0.12)">
     <use xlink:href="#ArialMT-41"/>
     <use xlink:href="#ArialMT-50" transform="translate(66.699219 0)"/>
     <use xlink:href="#ArialMT-58" transform="translate(133.398438 0)"/>
     <use xlink:href="#ArialMT-31" transform="translate(200.097656 0)"/>
     <use xlink:href="#ArialMT-32" transform="translate(255.712891 0)"/>
     <use xlink:href="#ArialMT-37" transform="translate(311.328125 0)"/>
     <use xlink:href="#ArialMT-38" transform="translate(366.943359 0)"/>
     <use xlink:href="#ArialMT-20" transform="translate(422.558594 0)"/>
     <use xlink:href="#ArialMT-2014" transform="translate(450.341797 0)"/>
     <use xlink:href="#ArialMT-20" transform="translate(550.341797 0)"/>
     <use xlink:href="#ArialMT-50" transform="translate(578.125 0)"/>
     <use xlink:href="#ArialMT-43" transform="translate(644.824219 0)"/>
     <use xlink:href="#ArialMT-31" transform="translate(717.041016 0)"/>
     <use xlink:href="#ArialMT-20" transform="translate(772.65625 0)"/>
     <use xlink:href="#ArialMT-31" transform="translate(800.439453 0)"/>
     <use xlink:href="#ArialMT-20" transform="translate(856.054688 0)"/>
     <use xlink:href="#ArialMT-63" transform="translate(883.837891 0)"/>
     <use xlink:href="#ArialMT-6f" transform="translate(933.837891 0)"/>
     <use xlink:href="#ArialMT-72" transform="translate(989.453125 0)"/>
     <use xlink:href="#ArialMT-65" transform="translate(1022.753906 0)"/>
    </g>
   </g>
   <g id="legend_3">
    <g id="patch_14">
     <path d="M 732.122187 63.052656 
L 843.247187 63.052656 
Q 844.847188 63.052656 844.847188 61.452656 
L 844.847188 27.389375 
Q 844.847188 25.789375 843.247187 25.789375 
L 732.122187 25.789375 
Q 730.522187 25.789375 730.522187 27.389375 
L 730.522187 61.452656 
Q 730.522187 63.052656 732.122187 63.052656 
z
" style="fill: #ffffff; opacity: 0.8; stroke: #cccccc; stroke-linejoin: miter"/>
    </g>
    <g id="text_39">
     <!-- CPU -->
     <g style="fill: #262626" transform="translate(778.183359 35.431406) scale(0.09 -0.09)">
      <use xlink:href="#ArialMT-43"/>
      <use xlink:href="#ArialMT-50" transform="translate(72.216797 0)"/>
      <use xlink:href="#ArialMT-55" transform="translate(138.916016 0)"/>
     </g>
    </g>
    <g id="line2d_53">
     <path d="M 733.722188 44.146406 
L 741.722188 44.146406 
L 749.722188 44.146406 
" style="fill: none; stroke: #1f77b4; stroke-width: 2; stroke-linecap: round"/>
    </g>
    <g id="text_40">
     <!-- CPU 0 -->
     <g style="fill: #262626" transform="translate(756.122187 46.946406) scale(0.08 -0.08)">
      <use xlink:href="#ArialMT-43"/>
      <use xlink:href="#ArialMT-50" transform="translate(72.216797 0)"/>
      <use xlink:href="#ArialMT-55" transform="translate(138.916016 0)"/>
      <use xlink:href="#ArialMT-20" transform="translate(211.132812 0)"/>
      <use xlink:href="#ArialMT-30" transform="translate(238.916016 0)"/>
     </g>
    </g>
    <g id="line2d_54">
     <path d="M 733.722188 55.462656 
L 741.722188 55.462656 
L 749.722188 55.462656 
" style="fill: none; stroke: #ff7f0e; stroke-width: 2; stroke-linecap: round"/>
    </g>
    <g id="text_41">
     <!-- CPU 1 -->
     <g style="fill: #262626" transform="translate(756.122187 58.262656) scale(0.08 -0.08)">
      <use xlink:href="#ArialMT-43"/>
      <use xlink:href="#ArialMT-50" transform="translate(72.216797 0)"/>
      <use xlink:href="#ArialMT-55" transform="translate(138.916016 0)"/>
      <use xlink:href="#ArialMT-20" transform="translate(211.132812 0)"/>
      <use xlink:href="#ArialMT-31" transform="translate(238.916016 0)"/>
     </g>
    </g>
    <g id="line2d_55">
     <path d="M 795.684687 44.146406 
L 803.684687 44.146406 
L 811.684687 44.146406 
" style="fill: none; stroke: #2ca02c; stroke-width: 2; stroke-linecap: round"/>
    </g>
    <g id="text_42">
     <!-- CPU 2 -->
     <g style="fill: #262626" transform="translate(818.084687 46.946406) scale(0.08 -0.08)">
      <use xlink:href="#ArialMT-43"/>
      <use xlink:href="#ArialMT-50" transform="translate(72.216797 0)"/>
      <use xlink:href="#ArialMT-55" transform="translate(138.916016 0)"/>
      <use xlink:href="#ArialMT-20" transform="translate(211.132812 0)"/>
      <use xlink:href="#ArialMT-32" transform="translate(238.916016 0)"/>
     </g>
    </g>
    <g id="line2d_56">
     <path d="M 795.684687 55.462656 
L 803.684687 55.462656 
L 811.684687 55.462656 
" style="fill: none; stroke: #d62728; stroke-width: 2; stroke-linecap: round"/>
    </g>
    <g id="text_43">
     <!-- CPU 3 -->
     <g style="fill: #262626" transform="translate(818.084687 58.262656) scale(0.08 -0.08)">
      <use xlink:href="#ArialMT-43"/>
      <use xlink:href="#ArialMT-50" transform="translate(72.216797 0)"/>
      <use xlink:href="#ArialMT-55" transform="translate(138.916016 0)"/>
      <use xlink:href="#ArialMT-20" transform="translate(211.132812 0)"/>
      <use xlink:href="#ArialMT-33" transform="translate(238.916016 0)"/>
     </g>
    </g>
   </g>
   <g id="legend_4">
    <g id="patch_15">
     <path d="M 464.597187 63.240156 
L 515.543437 63.240156 
Q 517.143437 63.240156 517.143437 61.640156 
L 517.143437 27.389375 
Q 517.143437 25.789375 515.543437 25.789375 
L 464.597187 25.789375 
Q 462.997187 25.789375 462.997187 27.389375 
L 462.997187 61.640156 
Q 462.997187 63.240156 464.597187 63.240156 
z
" style="fill: #ffffff; opacity: 0.8; stroke: #cccccc; stroke-linejoin: miter"/>
    </g>
    <g id="text_44">
     <!-- Variant -->
     <g style="fill: #262626" transform="translate(476.144922 35.431406) scale(0.09 -0.09)">
      <use xlink:href="#ArialMT-56"/>
      <use xlink:href="#ArialMT-61" transform="translate(59.324219 0)"/>
      <use xlink:href="#ArialMT-72" transform="translate(114.939453 0)"/>
      <use xlink:href="#ArialMT-69" transform="translate(148.240234 0)"/>
      <use xlink:href="#ArialMT-61" transform="translate(170.457031 0)"/>
      <use xlink:href="#ArialMT-6e" transform="translate(226.072266 0)"/>
      <use xlink:href="#ArialMT-74" transform="translate(281.6875 0)"/>
     </g>
    </g>
    <g id="line2d_57">
     <path d="M 466.197187 44.146406 
L 474.197187 44.146406 
L 482.197187 44.146406 
" style="fill: none; stroke: #333333; stroke-width: 2; stroke-linecap: round"/>
    </g>
    <g id="text_45">
     <!-- queryA -->
     <g style="fill: #262626" transform="translate(488.597187 46.946406) scale(0.08 -0.08)">
      <use xlink:href="#ArialMT-71"/>
      <use xlink:href="#ArialMT-75" transform="translate(55.615234 0)"/>
      <use xlink:href="#ArialMT-65" transform="translate(111.230469 0)"/>
      <use xlink:href="#ArialMT-72" transform="translate(166.845703 0)"/>
      <use xlink:href="#ArialMT-79" transform="translate(200.146484 0)"/>
      <use xlink:href="#ArialMT-41" transform="translate(250.146484 0)"/>
     </g>
    </g>
    <g id="line2d_58">
     <path d="M 466.197187 55.556406 
L 474.197187 55.556406 
L 482.197187 55.556406 
" style="fill: none; stroke-dasharray: 7.4,3.2; stroke-dashoffset: 0; stroke: #333333; stroke-width: 2"/>
    </g>
    <g id="text_46">
     <!-- queryB -->
     <g style="fill: #262626" transform="translate(488.597187 58.356406) scale(0.08 -0.08)">
      <use xlink:href="#ArialMT-71"/>
      <use xlink:href="#ArialMT-75" transform="translate(55.615234 0)"/>
      <use xlink:href="#ArialMT-65" transform="translate(111.230469 0)"/>
      <use xlink:href="#ArialMT-72" transform="translate(166.845703 0)"/>
      <use xlink:href="#ArialMT-79" transform="translate(200.146484 0)"/>
      <use xlink:href="#ArialMT-42" transform="translate(250.146484 0)"/>
     </g>
    </g>
   </g>
  </g>
 </g>
 <defs>
  <clipPath id="pa904a83d86">
   <rect x="44.267188" y="21.789375" width="389.85" height="256.6"/>
  </clipPath>
  <clipPath id="pe921c47897">
   <rect x="458.997187" y="21.789375" width="389.85" height="256.6"/>
  </clipPath>
 </defs>
</svg>
