<?xml version="1.0" encoding="utf-8" standalone="no"?>
<!DOCTYPE svg PUBLIC "-//W3C//DTD SVG 1.1//EN"
  "http://www.w3.org/Graphics/SVG/1.1/DTD/svg11.dtd">
<svg xmlns:xlink="http://www.w3.org/1999/xlink" width="856.047187pt" height="315.119063pt" viewBox="0 0 856.047187 315.119063" xmlns="http://www.w3.org/2000/svg" version="1.1">
 <metadata>
  <rdf:RDF xmlns:dc="http://purl.org/dc/elements/1.1/" xmlns:cc="http://creativecommons.org/ns#" xmlns:rdf="http://www.w3.org/1999/02/22-rdf-syntax-ns#">
   <cc:Work>
    <dc:type rdf:resource="http://purl.org/dc/dcmitype/StillImage"/>
    <dc:date>2026-05-26T16:50:36.372183</dc:date>
    <dc:format>image/svg+xml</dc:format>
    <dc:creator>
     <cc:Agent>
      <dc:title>Matplotlib v3.10.1, https://matplotlib.org/</dc:title>
     </cc:Agent>
    </dc:creator>
   </cc:Work>
  </rdf:RDF>
 </metadata>
 <defs>
  <style type="text/css">*{stroke-linejoin: round; stroke-linecap: butt}</style>
 </defs>
 <g id="figure_1">
  <g id="patch_1">
   <path d="M 0 315.119063 
L 856.047187 315.119063 
L 856.047187 0 
L 0 0 
z
" style="fill: #ffffff"/>
  </g>
  <g id="axes_1">
   <g id="patch_2">
    <path d="M 44.267188 278.389375 
L 434.117188 278.389375 
L 434.117188 21.789375 
L 44.267188 21.789375 
z
" style="fill: #ffffff"/>
   </g>
   <g id="matplotlib.axis_1">
    <g id="xtick_1">
     <g id="line2d_1">
      <path d="M 44.267188 278.389375 
L 44.267188 21.789375 
" clip-path="url(#p90637e1578)" style="fill: none; stroke: #cccccc; stroke-opacity: 0.2; stroke-width: 0.8; stroke-linecap: round"/>
     </g>
     <g id="text_1">
      <!-- 0 -->
      <g style="fill: #262626" transform="translate(41.486719 292.547188) scale(0.1 -0.1)">
       <defs>
        <path id="ArialMT-30" d="M 266 2259 
Q 266 3072 433 3567 
Q 600 4063 929 4331 
Q 1259 4600 1759 4600 
Q 2128 4600 2406 4451 
Q 2684 4303 2865 4023 
Q 3047 3744 3150 3342 
Q 3253 2941 3253 2259 
Q 3253 1453 3087 958 
Q 2922 463 2592 192 
Q 2263 -78 1759 -78 
Q 1097 -78 719 397 
Q 266 969 266 2259 
z
M 844 2259 
Q 844 1131 1108 757 
Q 1372 384 1759 384 
Q 2147 384 2411 759 
Q 2675 1134 2675 2259 
Q 2675 3391 2411 3762 
Q 2147 4134 1753 4134 
Q 1366 4134 1134 3806 
Q 844 3388 844 2259 
z
" transform="scale(0.015625)"/>
       </defs>
       <use xlink:href="#ArialMT-30"/>
      </g>
     </g>
    </g>
    <g id="xtick_2">
     <g id="line2d_2">
      <path d="M 101.59807 278.389375 
L 101.59807 21.789375 
" clip-path="url(#p90637e1578)" style="fill: none; stroke: #cccccc; stroke-opacity: 0.2; stroke-width: 0.8; stroke-linecap: round"/>
     </g>
     <g id="text_2">
      <!-- 10 -->
      <g style="fill: #262626" transform="translate(96.037132 292.547188) scale(0.1 -0.1)">
       <defs>
        <path id="ArialMT-31" d="M 2384 0 
L 1822 0 
L 1822 3584 
Q 1619 3391 1289 3197 
Q 959 3003 697 2906 
L 697 3450 
Q 1169 3672 1522 3987 
Q 1875 4303 2022 4600 
L 2384 4600 
L 2384 0 
z
" transform="scale(0.015625)"/>
       </defs>
       <use xlink:href="#ArialMT-31"/>
       <use xlink:href="#ArialMT-30" transform="translate(55.615234 0)"/>
      </g>
     </g>
    </g>
    <g id="xtick_3">
     <g id="line2d_3">
      <path d="M 158.928952 278.389375 
L 158.928952 21.789375 
" clip-path="url(#p90637e1578)" style="fill: none; stroke: #cccccc; stroke-opacity: 0.2; stroke-width: 0.8; stroke-linecap: round"/>
     </g>
     <g id="text_3">
      <!-- 20 -->
      <g style="fill: #262626" transform="translate(153.368015 292.547188) scale(0.1 -0.1)">
       <defs>
        <path id="ArialMT-32" d="M 3222 541 
L 3222 0 
L 194 0 
Q 188 203 259 391 
Q 375 700 629 1000 
Q 884 1300 1366 1694 
Q 2113 2306 2375 2664 
Q 2638 3022 2638 3341 
Q 2638 3675 2398 3904 
Q 2159 4134 1775 4134 
Q 1369 4134 1125 3890 
Q 881 3647 878 3216 
L 300 3275 
Q 359 3922 746 4261 
Q 1134 4600 1788 4600 
Q 2447 4600 2831 4234 
Q 3216 3869 3216 3328 
Q 3216 3053 3103 2787 
Q 2991 2522 2730 2228 
Q 2469 1934 1863 1422 
Q 1356 997 1212 845 
Q 1069 694 975 541 
L 3222 541 
z
" transform="scale(0.015625)"/>
       </defs>
       <use xlink:href="#ArialMT-32"/>
       <use xlink:href="#ArialMT-30" transform="translate(55.615234 0)"/>
      </g>
     </g>
    </g>
    <g id="xtick_4">
     <g id="line2d_4">
      <path d="M 216.259835 278.389375 
L 216.259835 21.789375 
" clip-path="url(#p90637e1578)" style="fill: none; stroke: #cccccc; stroke-opacity: 0.2; stroke-width: 0.8; stroke-linecap: round"/>
     </g>
     <g id="text_4">
      <!-- 30 -->
      <g style="fill: #262626" transform="translate(210.698897 292.547188) scale(0.1 -0.1)">
       <defs>
        <path id="ArialMT-33" d="M 269 1209 
L 831 1284 
Q 928 806 1161 595 
Q 1394 384 1728 384 
Q 2125 384 2398 659 
Q 2672 934 2672 1341 
Q 2672 1728 2419 1979 
Q 2166 2231 1775 2231 
Q 1616 2231 1378 2169 
L 1441 2663 
Q 1497 2656 1531 2656 
Q 1891 2656 2178 2843 
Q 2466 3031 2466 3422 
Q 2466 3731 2256 3934 
Q 2047 4138 1716 4138 
Q 1388 4138 1169 3931 
Q 950 3725 888 3313 
L 325 3413 
Q 428 3978 793 4289 
Q 1159 4600 1703 4600 
Q 2078 4600 2393 4439 
Q 2709 4278 2876 4000 
Q 3044 3722 3044 3409 
Q 3044 3113 2884 2869 
Q 2725 2625 2413 2481 
Q 2819 2388 3044 2092 
Q 3269 1797 3269 1353 
Q 3269 753 2831 336 
Q 2394 -81 1725 -81 
Q 1122 -81 723 278 
Q 325 638 269 1209 
z
" transform="scale(0.015625)"/>
       </defs>
       <use xlink:href="#ArialMT-33"/>
       <use xlink:href="#ArialMT-30" transform="translate(55.615234 0)"/>
      </g>
     </g>
    </g>
    <g id="xtick_5">
     <g id="line2d_5">
      <path d="M 273.590717 278.389375 
L 273.590717 21.789375 
" clip-path="url(#p90637e1578)" style="fill: none; stroke: #cccccc; stroke-opacity: 0.2; stroke-width: 0.8; stroke-linecap: round"/>
     </g>
     <g id="text_5">
      <!-- 40 -->
      <g style="fill: #262626" transform="translate(268.029779 292.547188) scale(0.1 -0.1)">
       <defs>
        <path id="ArialMT-34" d="M 2069 0 
L 2069 1097 
L 81 1097 
L 81 1613 
L 2172 4581 
L 2631 4581 
L 2631 1613 
L 3250 1613 
L 3250 1097 
L 2631 1097 
L 2631 0 
L 2069 0 
z
M 2069 1613 
L 2069 3678 
L 634 1613 
L 2069 1613 
z
" transform="scale(0.015625)"/>
       </defs>
       <use xlink:href="#ArialMT-34"/>
       <use xlink:href="#ArialMT-30" transform="translate(55.615234 0)"/>
      </g>
     </g>
    </g>
    <g id="xtick_6">
     <g id="line2d_6">
      <path d="M 330.921599 278.389375 
L 330.921599 21.789375 
" clip-path="url(#p90637e1578)" style="fill: none; stroke: #cccccc; stroke-opacity: 0.2; stroke-width: 0.8; stroke-linecap: round"/>
     </g>
     <g id="text_6">
      <!-- 50 -->
      <g style="fill: #262626" transform="translate(325.360662 292.547188) scale(0.1 -0.1)">
       <defs>
        <path id="ArialMT-35" d="M 266 1200 
L 856 1250 
Q 922 819 1161 601 
Q 1400 384 1738 384 
Q 2144 384 2425 690 
Q 2706 997 2706 1503 
Q 2706 1984 2436 2262 
Q 2166 2541 1728 2541 
Q 1456 2541 1237 2417 
Q 1019 2294 894 2097 
L 366 2166 
L 809 4519 
L 3088 4519 
L 3088 3981 
L 1259 3981 
L 1013 2750 
Q 1425 3038 1878 3038 
Q 2478 3038 2890 2622 
Q 3303 2206 3303 1553 
Q 3303 931 2941 478 
Q 2500 -78 1738 -78 
Q 1113 -78 717 272 
Q 322 622 266 1200 
z
" transform="scale(0.015625)"/>
       </defs>
       <use xlink:href="#ArialMT-35"/>
       <use xlink:href="#ArialMT-30" transform="translate(55.615234 0)"/>
      </g>
     </g>
    </g>
    <g id="xtick_7">
     <g id="line2d_7">
      <path d="M 388.252482 278.389375 
L 388.252482 21.789375 
" clip-path="url(#p90637e1578)" style="fill: none; stroke: #cccccc; stroke-opacity: 0.2; stroke-width: 0.8; stroke-linecap: round"/>
     </g>
     <g id="text_7">
      <!-- 60 -->
      <g style="fill: #262626" transform="translate(382.691544 292.547188) scale(0.1 -0.1)">
       <defs>
        <path id="ArialMT-36" d="M 3184 3459 
L 2625 3416 
Q 2550 3747 2413 3897 
Q 2184 4138 1850 4138 
Q 1581 4138 1378 3988 
Q 1113 3794 959 3422 
Q 806 3050 800 2363 
Q 1003 2672 1297 2822 
Q 1591 2972 1913 2972 
Q 2475 2972 2870 2558 
Q 3266 2144 3266 1488 
Q 3266 1056 3080 686 
Q 2894 316 2569 119 
Q 2244 -78 1831 -78 
Q 1128 -78 684 439 
Q 241 956 241 2144 
Q 241 3472 731 4075 
Q 1159 4600 1884 4600 
Q 2425 4600 2770 4297 
Q 3116 3994 3184 3459 
z
M 888 1484 
Q 888 1194 1011 928 
Q 1134 663 1356 523 
Q 1578 384 1822 384 
Q 2178 384 2434 671 
Q 2691 959 2691 1453 
Q 2691 1928 2437 2201 
Q 2184 2475 1800 2475 
Q 1419 2475 1153 2201 
Q 888 1928 888 1484 
z
" transform="scale(0.015625)"/>
       </defs>
       <use xlink:href="#ArialMT-36"/>
       <use xlink:href="#ArialMT-30" transform="translate(55.615234 0)"/>
      </g>
     </g>
    </g>
    <g id="text_8">
     <!-- Elapsed Time (sec) -->
     <g style="fill: #262626" transform="translate(196.400781 305.814375) scale(0.1 -0.1)">
      <defs>
       <path id="ArialMT-45" d="M 506 0 
L 506 4581 
L 3819 4581 
L 3819 4041 
L 1113 4041 
L 1113 2638 
L 3647 2638 
L 3647 2100 
L 1113 2100 
L 1113 541 
L 3925 541 
L 3925 0 
L 506 0 
z
" transform="scale(0.015625)"/>
       <path id="ArialMT-6c" d="M 409 0 
L 409 4581 
L 972 4581 
L 972 0 
L 409 0 
z
" transform="scale(0.015625)"/>
       <path id="ArialMT-61" d="M 2588 409 
Q 2275 144 1986 34 
Q 1697 -75 1366 -75 
Q 819 -75 525 192 
Q 231 459 231 875 
Q 231 1119 342 1320 
Q 453 1522 633 1644 
Q 813 1766 1038 1828 
Q 1203 1872 1538 1913 
Q 2219 1994 2541 2106 
Q 2544 2222 2544 2253 
Q 2544 2597 2384 2738 
Q 2169 2928 1744 2928 
Q 1347 2928 1158 2789 
Q 969 2650 878 2297 
L 328 2372 
Q 403 2725 575 2942 
Q 747 3159 1072 3276 
Q 1397 3394 1825 3394 
Q 2250 3394 2515 3294 
Q 2781 3194 2906 3042 
Q 3031 2891 3081 2659 
Q 3109 2516 3109 2141 
L 3109 1391 
Q 3109 606 3145 398 
Q 3181 191 3288 0 
L 2700 0 
Q 2613 175 2588 409 
z
M 2541 1666 
Q 2234 1541 1622 1453 
Q 1275 1403 1131 1340 
Q 988 1278 909 1158 
Q 831 1038 831 891 
Q 831 666 1001 516 
Q 1172 366 1500 366 
Q 1825 366 2078 508 
Q 2331 650 2450 897 
Q 2541 1088 2541 1459 
L 2541 1666 
z
" transform="scale(0.015625)"/>
       <path id="ArialMT-70" d="M 422 -1272 
L 422 3319 
L 934 3319 
L 934 2888 
Q 1116 3141 1344 3267 
Q 1572 3394 1897 3394 
Q 2322 3394 2647 3175 
Q 2972 2956 3137 2557 
Q 3303 2159 3303 1684 
Q 3303 1175 3120 767 
Q 2938 359 2589 142 
Q 2241 -75 1856 -75 
Q 1575 -75 1351 44 
Q 1128 163 984 344 
L 984 -1272 
L 422 -1272 
z
M 931 1641 
Q 931 1000 1190 694 
Q 1450 388 1819 388 
Q 2194 388 2461 705 
Q 2728 1022 2728 1688 
Q 2728 2322 2467 2637 
Q 2206 2953 1844 2953 
Q 1484 2953 1207 2617 
Q 931 2281 931 1641 
z
" transform="scale(0.015625)"/>
       <path id="ArialMT-73" d="M 197 991 
L 753 1078 
Q 800 744 1014 566 
Q 1228 388 1613 388 
Q 2000 388 2187 545 
Q 2375 703 2375 916 
Q 2375 1106 2209 1216 
Q 2094 1291 1634 1406 
Q 1016 1563 777 1677 
Q 538 1791 414 1992 
Q 291 2194 291 2438 
Q 291 2659 392 2848 
Q 494 3038 669 3163 
Q 800 3259 1026 3326 
Q 1253 3394 1513 3394 
Q 1903 3394 2198 3281 
Q 2494 3169 2634 2976 
Q 2775 2784 2828 2463 
L 2278 2388 
Q 2241 2644 2061 2787 
Q 1881 2931 1553 2931 
Q 1166 2931 1000 2803 
Q 834 2675 834 2503 
Q 834 2394 903 2306 
Q 972 2216 1119 2156 
Q 1203 2125 1616 2013 
Q 2213 1853 2448 1751 
Q 2684 1650 2818 1456 
Q 2953 1263 2953 975 
Q 2953 694 2789 445 
Q 2625 197 2315 61 
Q 2006 -75 1616 -75 
Q 969 -75 630 194 
Q 291 463 197 991 
z
" transform="scale(0.015625)"/>
       <path id="ArialMT-65" d="M 2694 1069 
L 3275 997 
Q 3138 488 2766 206 
Q 2394 -75 1816 -75 
Q 1088 -75 661 373 
Q 234 822 234 1631 
Q 234 2469 665 2931 
Q 1097 3394 1784 3394 
Q 2450 3394 2872 2941 
Q 3294 2488 3294 1666 
Q 3294 1616 3291 1516 
L 816 1516 
Q 847 969 1125 678 
Q 1403 388 1819 388 
Q 2128 388 2347 550 
Q 2566 713 2694 1069 
z
M 847 1978 
L 2700 1978 
Q 2663 2397 2488 2606 
Q 2219 2931 1791 2931 
Q 1403 2931 1139 2672 
Q 875 2413 847 1978 
z
" transform="scale(0.015625)"/>
       <path id="ArialMT-64" d="M 2575 0 
L 2575 419 
Q 2259 -75 1647 -75 
Q 1250 -75 917 144 
Q 584 363 401 755 
Q 219 1147 219 1656 
Q 219 2153 384 2558 
Q 550 2963 881 3178 
Q 1213 3394 1622 3394 
Q 1922 3394 2156 3267 
Q 2391 3141 2538 2938 
L 2538 4581 
L 3097 4581 
L 3097 0 
L 2575 0 
z
M 797 1656 
Q 797 1019 1065 703 
Q 1334 388 1700 388 
Q 2069 388 2326 689 
Q 2584 991 2584 1609 
Q 2584 2291 2321 2609 
Q 2059 2928 1675 2928 
Q 1300 2928 1048 2622 
Q 797 2316 797 1656 
z
" transform="scale(0.015625)"/>
       <path id="ArialMT-20" transform="scale(0.015625)"/>
       <path id="ArialMT-54" d="M 1659 0 
L 1659 4041 
L 150 4041 
L 150 4581 
L 3781 4581 
L 3781 4041 
L 2266 4041 
L 2266 0 
L 1659 0 
z
" transform="scale(0.015625)"/>
       <path id="ArialMT-69" d="M 425 3934 
L 425 4581 
L 988 4581 
L 988 3934 
L 425 3934 
z
M 425 0 
L 425 3319 
L 988 3319 
L 988 0 
L 425 0 
z
" transform="scale(0.015625)"/>
       <path id="ArialMT-6d" d="M 422 0 
L 422 3319 
L 925 3319 
L 925 2853 
Q 1081 3097 1340 3245 
Q 1600 3394 1931 3394 
Q 2300 3394 2536 3241 
Q 2772 3088 2869 2813 
Q 3263 3394 3894 3394 
Q 4388 3394 4653 3120 
Q 4919 2847 4919 2278 
L 4919 0 
L 4359 0 
L 4359 2091 
Q 4359 2428 4304 2576 
Q 4250 2725 4106 2815 
Q 3963 2906 3769 2906 
Q 3419 2906 3187 2673 
Q 2956 2441 2956 1928 
L 2956 0 
L 2394 0 
L 2394 2156 
Q 2394 2531 2256 2718 
Q 2119 2906 1806 2906 
Q 1569 2906 1367 2781 
Q 1166 2656 1075 2415 
Q 984 2175 984 1722 
L 984 0 
L 422 0 
z
" transform="scale(0.015625)"/>
       <path id="ArialMT-28" d="M 1497 -1347 
Q 1031 -759 709 28 
Q 388 816 388 1659 
Q 388 2403 628 3084 
Q 909 3875 1497 4659 
L 1900 4659 
Q 1522 4009 1400 3731 
Q 1209 3300 1100 2831 
Q 966 2247 966 1656 
Q 966 153 1900 -1347 
L 1497 -1347 
z
" transform="scale(0.015625)"/>
       <path id="ArialMT-63" d="M 2588 1216 
L 3141 1144 
Q 3050 572 2676 248 
Q 2303 -75 1759 -75 
Q 1078 -75 664 370 
Q 250 816 250 1647 
Q 250 2184 428 2587 
Q 606 2991 970 3192 
Q 1334 3394 1763 3394 
Q 2303 3394 2647 3120 
Q 2991 2847 3088 2344 
L 2541 2259 
Q 2463 2594 2264 2762 
Q 2066 2931 1784 2931 
Q 1359 2931 1093 2626 
Q 828 2322 828 1663 
Q 828 994 1084 691 
Q 1341 388 1753 388 
Q 2084 388 2306 591 
Q 2528 794 2588 1216 
z
" transform="scale(0.015625)"/>
       <path id="ArialMT-29" d="M 791 -1347 
L 388 -1347 
Q 1322 153 1322 1656 
Q 1322 2244 1188 2822 
Q 1081 3291 891 3722 
Q 769 4003 388 4659 
L 791 4659 
Q 1378 3875 1659 3084 
Q 1900 2403 1900 1659 
Q 1900 816 1576 28 
Q 1253 -759 791 -1347 
z
" transform="scale(0.015625)"/>
      </defs>
      <use xlink:href="#ArialMT-45"/>
      <use xlink:href="#ArialMT-6c" transform="translate(66.699219 0)"/>
      <use xlink:href="#ArialMT-61" transform="translate(88.916016 0)"/>
      <use xlink:href="#ArialMT-70" transform="translate(144.53125 0)"/>
      <use xlink:href="#ArialMT-73" transform="translate(200.146484 0)"/>
      <use xlink:href="#ArialMT-65" transform="translate(250.146484 0)"/>
      <use xlink:href="#ArialMT-64" transform="translate(305.761719 0)"/>
      <use xlink:href="#ArialMT-20" transform="translate(361.376953 0)"/>
      <use xlink:href="#ArialMT-54" transform="translate(387.410156 0)"/>
      <use xlink:href="#ArialMT-69" transform="translate(444.744141 0)"/>
      <use xlink:href="#ArialMT-6d" transform="translate(466.960938 0)"/>
      <use xlink:href="#ArialMT-65" transform="translate(550.261719 0)"/>
      <use xlink:href="#ArialMT-20" transform="translate(605.876953 0)"/>
      <use xlink:href="#ArialMT-28" transform="translate(633.660156 0)"/>
      <use xlink:href="#ArialMT-73" transform="translate(666.960938 0)"/>
      <use xlink:href="#ArialMT-65" transform="translate(716.960938 0)"/>
      <use xlink:href="#ArialMT-63" transform="translate(772.576172 0)"/>
      <use xlink:href="#ArialMT-29" transform="translate(822.576172 0)"/>
     </g>
    </g>
   </g>
   <g id="matplotlib.axis_2">
    <g id="ytick_1">
     <g id="line2d_8">
      <path d="M 44.267188 269.6378 
L 434.117188 269.6378 
" clip-path="url(#p90637e1578)" style="fill: none; stroke: #cccccc; stroke-opacity: 0.2; stroke-width: 0.8; stroke-linecap: round"/>
     </g>
     <g id="text_9">
      <!-- 0 -->
      <g style="fill: #262626" transform="translate(31.70625 273.216707) scale(0.1 -0.1)">
       <use xlink:href="#ArialMT-30"/>
      </g>
     </g>
    </g>
    <g id="ytick_2">
     <g id="line2d_9">
      <path d="M 44.267188 222.287201 
L 434.117188 222.287201 
" clip-path="url(#p90637e1578)" style="fill: none; stroke: #cccccc; stroke-opacity: 0.2; stroke-width: 0.8; stroke-linecap: round"/>
     </g>
     <g id="text_10">
      <!-- 20 -->
      <g style="fill: #262626" transform="translate(26.145313 225.866107) scale(0.1 -0.1)">
       <use xlink:href="#ArialMT-32"/>
       <use xlink:href="#ArialMT-30" transform="translate(55.615234 0)"/>
      </g>
     </g>
    </g>
    <g id="ytick_3">
     <g id="line2d_10">
      <path d="M 44.267188 174.936602 
L 434.117188 174.936602 
" clip-path="url(#p90637e1578)" style="fill: none; stroke: #cccccc; stroke-opacity: 0.2; stroke-width: 0.8; stroke-linecap: round"/>
     </g>
     <g id="text_11">
      <!-- 40 -->
      <g style="fill: #262626" transform="translate(26.145313 178.515508) scale(0.1 -0.1)">
       <use xlink:href="#ArialMT-34"/>
       <use xlink:href="#ArialMT-30" transform="translate(55.615234 0)"/>
      </g>
     </g>
    </g>
    <g id="ytick_4">
     <g id="line2d_11">
      <path d="M 44.267188 127.586003 
L 434.117188 127.586003 
" clip-path="url(#p90637e1578)" style="fill: none; stroke: #cccccc; stroke-opacity: 0.2; stroke-width: 0.8; stroke-linecap: round"/>
     </g>
     <g id="text_12">
      <!-- 60 -->
      <g style="fill: #262626" transform="translate(26.145313 131.164909) scale(0.1 -0.1)">
       <use xlink:href="#ArialMT-36"/>
       <use xlink:href="#ArialMT-30" transform="translate(55.615234 0)"/>
      </g>
     </g>
    </g>
    <g id="ytick_5">
     <g id="line2d_12">
      <path d="M 44.267188 80.235403 
L 434.117188 80.235403 
" clip-path="url(#p90637e1578)" style="fill: none; stroke: #cccccc; stroke-opacity: 0.2; stroke-width: 0.8; stroke-linecap: round"/>
     </g>
     <g id="text_13">
      <!-- 80 -->
      <g style="fill: #262626" transform="translate(26.145313 83.81431) scale(0.1 -0.1)">
       <defs>
        <path id="ArialMT-38" d="M 1131 2484 
Q 781 2613 612 2850 
Q 444 3088 444 3419 
Q 444 3919 803 4259 
Q 1163 4600 1759 4600 
Q 2359 4600 2725 4251 
Q 3091 3903 3091 3403 
Q 3091 3084 2923 2848 
Q 2756 2613 2416 2484 
Q 2838 2347 3058 2040 
Q 3278 1734 3278 1309 
Q 3278 722 2862 322 
Q 2447 -78 1769 -78 
Q 1091 -78 675 323 
Q 259 725 259 1325 
Q 259 1772 486 2073 
Q 713 2375 1131 2484 
z
M 1019 3438 
Q 1019 3113 1228 2906 
Q 1438 2700 1772 2700 
Q 2097 2700 2305 2904 
Q 2513 3109 2513 3406 
Q 2513 3716 2298 3927 
Q 2084 4138 1766 4138 
Q 1444 4138 1231 3931 
Q 1019 3725 1019 3438 
z
M 838 1322 
Q 838 1081 952 856 
Q 1066 631 1291 507 
Q 1516 384 1775 384 
Q 2178 384 2440 643 
Q 2703 903 2703 1303 
Q 2703 1709 2433 1975 
Q 2163 2241 1756 2241 
Q 1359 2241 1098 1978 
Q 838 1716 838 1322 
z
" transform="scale(0.015625)"/>
       </defs>
       <use xlink:href="#ArialMT-38"/>
       <use xlink:href="#ArialMT-30" transform="translate(55.615234 0)"/>
      </g>
     </g>
    </g>
    <g id="ytick_6">
     <g id="line2d_13">
      <path d="M 44.267188 32.884804 
L 434.117188 32.884804 
" clip-path="url(#p90637e1578)" style="fill: none; stroke: #cccccc; stroke-opacity: 0.2; stroke-width: 0.8; stroke-linecap: round"/>
     </g>
     <g id="text_14">
      <!-- 100 -->
      <g style="fill: #262626" transform="translate(20.584375 36.46371) scale(0.1 -0.1)">
       <use xlink:href="#ArialMT-31"/>
       <use xlink:href="#ArialMT-30" transform="translate(55.615234 0)"/>
       <use xlink:href="#ArialMT-30" transform="translate(111.230469 0)"/>
      </g>
     </g>
    </g>
    <g id="text_15">
     <!-- Busy% -->
     <g style="fill: #262626" transform="translate(14.479688 165.651094) rotate(-90) scale(0.1 -0.1)">
      <defs>
       <path id="ArialMT-42" d="M 469 0 
L 469 4581 
L 2188 4581 
Q 2713 4581 3030 4442 
Q 3347 4303 3526 4014 
Q 3706 3725 3706 3409 
Q 3706 3116 3547 2856 
Q 3388 2597 3066 2438 
Q 3481 2316 3704 2022 
Q 3928 1728 3928 1328 
Q 3928 1006 3792 729 
Q 3656 453 3456 303 
Q 3256 153 2954 76 
Q 2653 0 2216 0 
L 469 0 
z
M 1075 2656 
L 2066 2656 
Q 2469 2656 2644 2709 
Q 2875 2778 2992 2937 
Q 3109 3097 3109 3338 
Q 3109 3566 3000 3739 
Q 2891 3913 2687 3977 
Q 2484 4041 1991 4041 
L 1075 4041 
L 1075 2656 
z
M 1075 541 
L 2216 541 
Q 2509 541 2628 563 
Q 2838 600 2978 687 
Q 3119 775 3209 942 
Q 3300 1109 3300 1328 
Q 3300 1584 3169 1773 
Q 3038 1963 2805 2039 
Q 2572 2116 2134 2116 
L 1075 2116 
L 1075 541 
z
" transform="scale(0.015625)"/>
       <path id="ArialMT-75" d="M 2597 0 
L 2597 488 
Q 2209 -75 1544 -75 
Q 1250 -75 995 37 
Q 741 150 617 320 
Q 494 491 444 738 
Q 409 903 409 1263 
L 409 3319 
L 972 3319 
L 972 1478 
Q 972 1038 1006 884 
Q 1059 663 1231 536 
Q 1403 409 1656 409 
Q 1909 409 2131 539 
Q 2353 669 2445 892 
Q 2538 1116 2538 1541 
L 2538 3319 
L 3100 3319 
L 3100 0 
L 2597 0 
z
" transform="scale(0.015625)"/>
       <path id="ArialMT-79" d="M 397 -1278 
L 334 -750 
Q 519 -800 656 -800 
Q 844 -800 956 -737 
Q 1069 -675 1141 -563 
Q 1194 -478 1313 -144 
Q 1328 -97 1363 -6 
L 103 3319 
L 709 3319 
L 1400 1397 
Q 1534 1031 1641 628 
Q 1738 1016 1872 1384 
L 2581 3319 
L 3144 3319 
L 1881 -56 
Q 1678 -603 1566 -809 
Q 1416 -1088 1222 -1217 
Q 1028 -1347 759 -1347 
Q 597 -1347 397 -1278 
z
" transform="scale(0.015625)"/>
       <path id="ArialMT-25" d="M 372 3481 
Q 372 3972 619 4315 
Q 866 4659 1334 4659 
Q 1766 4659 2048 4351 
Q 2331 4044 2331 3447 
Q 2331 2866 2045 2552 
Q 1759 2238 1341 2238 
Q 925 2238 648 2547 
Q 372 2856 372 3481 
z
M 1350 4272 
Q 1141 4272 1002 4090 
Q 863 3909 863 3425 
Q 863 2984 1003 2804 
Q 1144 2625 1350 2625 
Q 1563 2625 1702 2806 
Q 1841 2988 1841 3469 
Q 1841 3913 1700 4092 
Q 1559 4272 1350 4272 
z
M 1353 -169 
L 3859 4659 
L 4316 4659 
L 1819 -169 
L 1353 -169 
z
M 3334 1075 
Q 3334 1569 3581 1911 
Q 3828 2253 4300 2253 
Q 4731 2253 5014 1945 
Q 5297 1638 5297 1041 
Q 5297 459 5011 145 
Q 4725 -169 4303 -169 
Q 3888 -169 3611 142 
Q 3334 453 3334 1075 
z
M 4316 1866 
Q 4103 1866 3964 1684 
Q 3825 1503 3825 1019 
Q 3825 581 3965 400 
Q 4106 219 4313 219 
Q 4528 219 4667 400 
Q 4806 581 4806 1063 
Q 4806 1506 4665 1686 
Q 4525 1866 4316 1866 
z
" transform="scale(0.015625)"/>
      </defs>
      <use xlink:href="#ArialMT-42"/>
      <use xlink:href="#ArialMT-75" transform="translate(66.699219 0)"/>
      <use xlink:href="#ArialMT-73" transform="translate(122.314453 0)"/>
      <use xlink:href="#ArialMT-79" transform="translate(172.314453 0)"/>
      <use xlink:href="#ArialMT-25" transform="translate(222.314453 0)"/>
     </g>
    </g>
   </g>
   <g id="line2d_14">
    <path d="M 44.267188 100.241032 
L 50.000276 70.12605 
L 55.733364 68.089975 
L 61.466452 156.351492 
L 67.19954 170.509321 
L 72.932629 226.903885 
L 78.665717 225.601743 
L 84.398805 211.751693 
L 90.131893 80.117027 
L 95.864982 261.967003 
L 101.59807 174.770875 
L 107.331158 196.433774 
L 113.064246 153.321053 
L 118.797335 186.300746 
L 124.530423 202.281573 
L 130.263511 162.530745 
L 135.996599 192.551025 
L 141.729688 251.289443 
L 147.462776 208.129372 
L 153.195864 167.834012 
L 158.928952 140.536392 
L 164.66204 239.191365 
L 170.395129 238.575807 
L 176.128217 257.942202 
L 181.861305 122.21171 
L 187.594393 211.349213 
L 193.327482 138.879121 
L 199.06057 238.315379 
L 204.793658 185.448435 
L 210.526746 265.044792 
" clip-path="url(#p90637e1578)" style="fill: none; stroke: #1f77b4; stroke-opacity: 0.9; stroke-width: 1.2; stroke-linecap: round"/>
   </g>
   <g id="line2d_15">
    <path d="M 44.267188 190.917429 
L 50.000276 170.05949 
L 55.733364 261.446147 
L 61.466452 264.879065 
L 67.19954 264.85539 
L 72.932629 264.950091 
L 78.665717 264.926416 
L 84.398805 258.084254 
L 90.131893 160.376293 
L 95.864982 195.439411 
L 101.59807 126.99412 
L 107.331158 206.661503 
L 113.064246 137.22185 
L 118.797335 161.773135 
L 124.530423 139.376302 
L 130.263511 199.535238 
L 135.996599 144.72692 
L 141.729688 134.85432 
L 147.462776 164.827249 
L 153.195864 223.044811 
L 158.928952 264.334533 
L 164.66204 250.105678 
L 170.395129 107.485673 
L 176.128217 256.663736 
L 181.861305 264.074105 
L 187.594393 256.924165 
L 193.327482 263.363846 
L 199.06057 263.861027 
L 204.793658 259.504772 
L 210.526746 98.867864 
" clip-path="url(#p90637e1578)" style="fill: none; stroke: #ff7f0e; stroke-opacity: 0.9; stroke-width: 1.2; stroke-linecap: round"/>
   </g>
   <g id="line2d_16">
    <path d="M 44.267188 242.813686 
L 50.000276 173.871213 
L 55.733364 213.243237 
L 61.466452 223.75507 
L 67.19954 203.560039 
L 72.932629 231.520568 
L 78.665717 205.193635 
L 84.398805 134.167736 
L 90.131893 194.705477 
L 95.864982 86.769786 
L 101.59807 84.378581 
L 107.331158 156.872348 
L 113.064246 112.504837 
L 118.797335 147.473254 
L 124.530423 207.087659 
L 130.263511 65.319965 
L 135.996599 206.590478 
L 141.729688 265.920778 
L 147.462776 134.025684 
L 153.195864 113.357148 
L 158.928952 105.899428 
L 164.66204 206.3774 
L 170.395129 186.537499 
L 176.128217 151.663782 
L 181.861305 219.209412 
L 187.594393 208.626553 
L 193.327482 210.141773 
L 199.06057 228.300727 
L 204.793658 68.539805 
L 210.526746 84.212854 
" clip-path="url(#p90637e1578)" style="fill: none; stroke: #2ca02c; stroke-opacity: 0.9; stroke-width: 1.2; stroke-linecap: round"/>
   </g>
   <g id="line2d_17">
    <path d="M 44.267188 263.363846 
L 50.000276 215.729143 
L 55.733364 209.100059 
L 61.466452 201.097808 
L 67.19954 251.691923 
L 72.932629 265.778727 
L 78.665717 216.983934 
L 84.398805 265.66035 
L 90.131893 264.594962 
L 95.864982 240.446156 
L 101.59807 233.509293 
L 107.331158 263.813677 
L 113.064246 263.008717 
L 118.797335 264.358209 
L 124.530423 264.618637 
L 130.263511 264.168806 
L 135.996599 264.358209 
L 141.729688 263.908378 
L 147.462776 263.624274 
L 153.195864 258.818189 
L 158.928952 197.617539 
L 164.66204 193.640089 
L 170.395129 128.604041 
L 176.128217 243.192491 
L 181.861305 59.424815 
L 187.594393 132.912945 
L 193.327482 140.962547 
L 199.06057 159.73706 
L 204.793658 250.034652 
L 210.526746 261.138368 
" clip-path="url(#p90637e1578)" style="fill: none; stroke: #d62728; stroke-opacity: 0.9; stroke-width: 1.2; stroke-linecap: round"/>
   </g>
   <g id="line2d_18">
    <path d="M 44.267188 238.031275 
L 50.000276 266.583687 
L 55.733364 266.607362 
L 61.466452 169.846413 
L 67.19954 163.146303 
L 72.932629 97.518372 
L 78.665717 102.608562 
L 84.398805 118.873492 
L 90.131893 266.536336 
L 95.864982 217.078635 
L 101.59807 189.615288 
L 107.331158 160.092189 
L 113.064246 180.097817 
L 118.797335 198.777629 
L 124.530423 133.907308 
L 130.263511 188.620925 
L 135.996599 164.448444 
L 141.729688 97.044866 
L 147.462776 161.560058 
L 153.195864 265.305221 
L 158.928952 218.2624 
L 164.66204 260.712213 
L 170.395129 263.505898 
L 176.128217 250.389782 
L 181.861305 266.299583 
L 187.594393 153.321053 
L 193.327482 208.460826 
L 199.06057 117.358273 
L 204.793658 183.388684 
L 210.526746 66.338003 
" clip-path="url(#p90637e1578)" style="fill: none; stroke: #9467bd; stroke-opacity: 0.9; stroke-width: 1.2; stroke-linecap: round"/>
   </g>
   <g id="line2d_19">
    <path d="M 44.267188 151.498055 
L 50.000276 264.784364 
L 55.733364 161.74946 
L 61.466452 263.269145 
L 67.19954 262.842989 
L 72.932629 263.103418 
L 78.665717 263.434872 
L 84.398805 185.756214 
L 90.131893 171.503684 
L 95.864982 149.177876 
L 101.59807 205.21731 
L 107.331158 150.101213 
L 113.064246 215.279313 
L 118.797335 207.442788 
L 124.530423 213.361613 
L 130.263511 149.485655 
L 135.996599 199.890368 
L 141.729688 207.040308 
L 147.462776 182.086542 
L 153.195864 112.859966 
L 158.928952 249.253368 
L 164.66204 119.560076 
L 170.395129 264.310858 
L 176.128217 103.058392 
L 181.861305 222.95011 
L 187.594393 264.09778 
L 193.327482 264.216157 
L 199.06057 264.239832 
L 204.793658 262.345808 
L 210.526746 186.324421 
" clip-path="url(#p90637e1578)" style="fill: none; stroke: #8c564b; stroke-opacity: 0.9; stroke-width: 1.2; stroke-linecap: round"/>
   </g>
   <g id="line2d_20">
    <path d="M 44.267188 116.813741 
L 50.000276 164.448444 
L 55.733364 145.53188 
L 61.466452 129.456351 
L 67.19954 146.644619 
L 72.932629 111.415773 
L 78.665717 156.351492 
L 84.398805 214.142898 
L 90.131893 155.333454 
L 95.864982 255.598348 
L 101.59807 264.879065 
L 107.331158 176.783275 
L 113.064246 217.85992 
L 118.797335 195.865567 
L 124.530423 118.234259 
L 130.263511 265.991804 
L 135.996599 124.129409 
L 141.729688 60.111399 
L 147.462776 199.085408 
L 153.195864 216.392052 
L 158.928952 245.441644 
L 164.66204 130.711142 
L 170.395129 148.088812 
L 176.128217 200.505926 
L 181.861305 121.880255 
L 187.594393 152.539769 
L 193.327482 115.085444 
L 199.06057 101.25907 
L 204.793658 265.684025 
L 210.526746 266.086506 
" clip-path="url(#p90637e1578)" style="fill: none; stroke: #e377c2; stroke-opacity: 0.9; stroke-width: 1.2; stroke-linecap: round"/>
   </g>
   <g id="line2d_21">
    <path d="M 44.267188 264.05043 
L 50.000276 217.528466 
L 55.733364 252.852013 
L 61.466452 135.2568 
L 67.19954 108.456361 
L 72.932629 81.419168 
L 78.665717 139.281601 
L 84.398805 160.54202 
L 90.131893 261.990679 
L 95.864982 158.17449 
L 101.59807 264.523936 
L 107.331158 264.026754 
L 113.064246 264.50026 
L 118.797335 216.013247 
L 124.530423 263.671625 
L 130.263511 263.576924 
L 135.996599 263.64795 
L 141.729688 264.45291 
L 147.462776 264.09778 
L 153.195864 183.649112 
L 158.928952 146.526242 
L 164.66204 149.10685 
L 170.395129 215.752819 
L 176.128217 103.105743 
L 181.861305 266.370609 
L 187.594393 198.138396 
L 193.327482 200.695328 
L 199.06057 174.628823 
L 204.793658 99.791201 
L 210.526746 263.529573 
" clip-path="url(#p90637e1578)" style="fill: none; stroke: #7f7f7f; stroke-opacity: 0.9; stroke-width: 1.2; stroke-linecap: round"/>
   </g>
   <g id="line2d_22">
    <path d="M 44.267188 202.636703 
L 50.000276 197.925318 
L 55.733364 242.008726 
L 61.466452 253.799025 
L 67.19954 215.965896 
L 72.932629 254.035778 
L 78.665717 255.78775 
L 84.398805 261.067342 
" clip-path="url(#p90637e1578)" style="fill: none; stroke-dasharray: 4.44,1.92; stroke-dashoffset: 0; stroke: #1f77b4; stroke-opacity: 0.9; stroke-width: 1.2"/>
   </g>
   <g id="line2d_23">
    <path d="M 44.267188 255.622023 
L 50.000276 263.008717 
L 55.733364 252.520559 
L 61.466452 217.552141 
L 67.19954 245.086515 
L 72.932629 249.063965 
L 78.665717 251.8103 
L 84.398805 209.54989 
" clip-path="url(#p90637e1578)" style="fill: none; stroke-dasharray: 4.44,1.92; stroke-dashoffset: 0; stroke: #ff7f0e; stroke-opacity: 0.9; stroke-width: 1.2"/>
   </g>
   <g id="line2d_24">
    <path d="M 44.267188 253.041415 
L 50.000276 249.821575 
L 55.733364 253.799025 
L 61.466452 253.799025 
L 67.19954 260.664862 
L 72.932629 233.367241 
L 78.665717 229.034662 
L 84.398805 196.268047 
" clip-path="url(#p90637e1578)" style="fill: none; stroke-dasharray: 4.44,1.92; stroke-dashoffset: 0; stroke: #2ca02c; stroke-opacity: 0.9; stroke-width: 1.2"/>
   </g>
   <g id="line2d_25">
    <path d="M 44.267188 182.725776 
L 50.000276 184.027917 
L 55.733364 217.599492 
L 61.466452 219.493516 
L 67.19954 243.263517 
L 72.932629 190.704352 
L 78.665717 221.411215 
L 84.398805 234.172202 
" clip-path="url(#p90637e1578)" style="fill: none; stroke-dasharray: 4.44,1.92; stroke-dashoffset: 0; stroke: #d62728; stroke-opacity: 0.9; stroke-width: 1.2"/>
   </g>
   <g id="line2d_26">
    <path d="M 44.267188 264.973766 
L 50.000276 256.805788 
L 55.733364 200.07977 
L 61.466452 242.932063 
L 67.19954 233.651345 
L 72.932629 233.651345 
L 78.665717 249.561146 
L 84.398805 246.246604 
" clip-path="url(#p90637e1578)" style="fill: none; stroke-dasharray: 4.44,1.92; stroke-dashoffset: 0; stroke: #9467bd; stroke-opacity: 0.9; stroke-width: 1.2"/>
   </g>
   <g id="line2d_27">
    <path d="M 44.267188 231.070737 
L 50.000276 261.233069 
L 55.733364 259.575798 
L 61.466452 252.283806 
L 67.19954 260.215031 
L 72.932629 260.972641 
L 78.665717 242.505907 
L 84.398805 262.251107 
" clip-path="url(#p90637e1578)" style="fill: none; stroke-dasharray: 4.44,1.92; stroke-dashoffset: 0; stroke: #8c564b; stroke-opacity: 0.9; stroke-width: 1.2"/>
   </g>
   <g id="line2d_28">
    <path d="M 44.267188 242.553258 
L 50.000276 250.673885 
L 55.733364 236.752809 
L 61.466452 242.103427 
L 67.19954 246.175579 
L 72.932629 216.912908 
L 78.665717 205.785517 
L 84.398805 226.1226 
" clip-path="url(#p90637e1578)" style="fill: none; stroke-dasharray: 4.44,1.92; stroke-dashoffset: 0; stroke: #e377c2; stroke-opacity: 0.9; stroke-width: 1.2"/>
   </g>
   <g id="line2d_29">
    <path d="M 44.267188 246.057202 
L 50.000276 213.030159 
L 55.733364 216.25 
L 61.466452 195.605139 
L 67.19954 173.752837 
L 72.932629 236.184602 
L 78.665717 219.611892 
L 84.398805 241.53522 
" clip-path="url(#p90637e1578)" style="fill: none; stroke-dasharray: 4.44,1.92; stroke-dashoffset: 0; stroke: #7f7f7f; stroke-opacity: 0.9; stroke-width: 1.2"/>
   </g>
   <g id="patch_3">
    <path d="M 44.267188 278.389375 
L 44.267188 21.789375 
" style="fill: none; stroke: #cccccc; stroke-width: 0.8; stroke-linejoin: miter; stroke-linecap: square"/>
   </g>
   <g id="patch_4">
    <path d="M 434.117188 278.389375 
L 434.117188 21.789375 
" style="fill: none; stroke: #cccccc; stroke-width: 0.8; stroke-linejoin: miter; stroke-linecap: square"/>
   </g>
   <g id="patch_5">
    <path d="M 44.267188 278.389375 
L 434.117188 278.389375 
" style="fill: none; stroke: #cccccc; stroke-width: 0.8; stroke-linejoin: miter; stroke-linecap: square"/>
   </g>
   <g id="patch_6">
    <path d="M 44.267188 21.789375 
L 434.117188 21.789375 
" style="fill: none; stroke: #cccccc; stroke-width: 0.8; stroke-linejoin: miter; stroke-linecap: square"/>
   </g>
   <g id="text_16">
    <!-- APX1225 — PC2 all cores -->
    <g style="fill: #262626" transform="translate(168.82625 15.789375) scale(0.12 -0.12)">
     <defs>
      <path id="ArialMT-41" d="M -9 0 
L 1750 4581 
L 2403 4581 
L 4278 0 
L 3588 0 
L 3053 1388 
L 1138 1388 
L 634 0 
L -9 0 
z
M 1313 1881 
L 2866 1881 
L 2388 3150 
Q 2169 3728 2063 4100 
Q 1975 3659 1816 3225 
L 1313 1881 
z
" transform="scale(0.015625)"/>
      <path id="ArialMT-50" d="M 494 0 
L 494 4581 
L 2222 4581 
Q 2678 4581 2919 4538 
Q 3256 4481 3484 4323 
Q 3713 4166 3852 3881 
Q 3991 3597 3991 3256 
Q 3991 2672 3619 2267 
Q 3247 1863 2275 1863 
L 1100 1863 
L 1100 0 
L 494 0 
z
M 1100 2403 
L 2284 2403 
Q 2872 2403 3119 2622 
Q 3366 2841 3366 3238 
Q 3366 3525 3220 3729 
Q 3075 3934 2838 4000 
Q 2684 4041 2272 4041 
L 1100 4041 
L 1100 2403 
z
" transform="scale(0.015625)"/>
      <path id="ArialMT-58" d="M 28 0 
L 1800 2388 
L 238 4581 
L 959 4581 
L 1791 3406 
Q 2050 3041 2159 2844 
Q 2313 3094 2522 3366 
L 3444 4581 
L 4103 4581 
L 2494 2422 
L 4228 0 
L 3478 0 
L 2325 1634 
Q 2228 1775 2125 1941 
Q 1972 1691 1906 1597 
L 756 0 
L 28 0 
z
" transform="scale(0.015625)"/>
      <path id="ArialMT-2014" d="M 0 1431 
L 0 1884 
L 6400 1884 
L 6400 1431 
L 0 1431 
z
" transform="scale(0.015625)"/>
      <path id="ArialMT-43" d="M 3763 1606 
L 4369 1453 
Q 4178 706 3683 314 
Q 3188 -78 2472 -78 
Q 1731 -78 1267 223 
Q 803 525 561 1097 
Q 319 1669 319 2325 
Q 319 3041 592 3573 
Q 866 4106 1370 4382 
Q 1875 4659 2481 4659 
Q 3169 4659 3637 4309 
Q 4106 3959 4291 3325 
L 3694 3184 
Q 3534 3684 3231 3912 
Q 2928 4141 2469 4141 
Q 1941 4141 1586 3887 
Q 1231 3634 1087 3207 
Q 944 2781 944 2328 
Q 944 1744 1114 1308 
Q 1284 872 1643 656 
Q 2003 441 2422 441 
Q 2931 441 3284 734 
Q 3638 1028 3763 1606 
z
" transform="scale(0.015625)"/>
      <path id="ArialMT-6f" d="M 213 1659 
Q 213 2581 725 3025 
Q 1153 3394 1769 3394 
Q 2453 3394 2887 2945 
Q 3322 2497 3322 1706 
Q 3322 1066 3130 698 
Q 2938 331 2570 128 
Q 2203 -75 1769 -75 
Q 1072 -75 642 372 
Q 213 819 213 1659 
z
M 791 1659 
Q 791 1022 1069 705 
Q 1347 388 1769 388 
Q 2188 388 2466 706 
Q 2744 1025 2744 1678 
Q 2744 2294 2464 2611 
Q 2184 2928 1769 2928 
Q 1347 2928 1069 2612 
Q 791 2297 791 1659 
z
" transform="scale(0.015625)"/>
      <path id="ArialMT-72" d="M 416 0 
L 416 3319 
L 922 3319 
L 922 2816 
Q 1116 3169 1280 3281 
Q 1444 3394 1641 3394 
Q 1925 3394 2219 3213 
L 2025 2691 
Q 1819 2813 1613 2813 
Q 1428 2813 1281 2702 
Q 1134 2591 1072 2394 
Q 978 2094 978 1738 
L 978 0 
L 416 0 
z
" transform="scale(0.015625)"/>
     </defs>
     <use xlink:href="#ArialMT-41"/>
     <use xlink:href="#ArialMT-50" transform="translate(66.699219 0)"/>
     <use xlink:href="#ArialMT-58" transform="translate(133.398438 0)"/>
     <use xlink:href="#ArialMT-31" transform="translate(200.097656 0)"/>
     <use xlink:href="#ArialMT-32" transform="translate(255.712891 0)"/>
     <use xlink:href="#ArialMT-32" transform="translate(311.328125 0)"/>
     <use xlink:href="#ArialMT-35" transform="translate(366.943359 0)"/>
     <use xlink:href="#ArialMT-20" transform="translate(422.558594 0)"/>
     <use xlink:href="#ArialMT-2014" transform="translate(450.341797 0)"/>
     <use xlink:href="#ArialMT-20" transform="translate(550.341797 0)"/>
     <use xlink:href="#ArialMT-50" transform="translate(578.125 0)"/>
     <use xlink:href="#ArialMT-43" transform="translate(644.824219 0)"/>
     <use xlink:href="#ArialMT-32" transform="translate(717.041016 0)"/>
     <use xlink:href="#ArialMT-20" transform="translate(772.65625 0)"/>
     <use xlink:href="#ArialMT-61" transform="translate(800.439453 0)"/>
     <use xlink:href="#ArialMT-6c" transform="translate(856.054688 0)"/>
     <use xlink:href="#ArialMT-6c" transform="translate(878.271484 0)"/>
     <use xlink:href="#ArialMT-20" transform="translate(900.488281 0)"/>
     <use xlink:href="#ArialMT-63" transform="translate(928.271484 0)"/>
     <use xlink:href="#ArialMT-6f" transform="translate(978.271484 0)"/>
     <use xlink:href="#ArialMT-72" transform="translate(1033.886719 0)"/>
     <use xlink:href="#ArialMT-65" transform="translate(1067.1875 0)"/>
     <use xlink:href="#ArialMT-73" transform="translate(1122.802734 0)"/>
    </g>
   </g>
   <g id="legend_1">
    <g id="patch_7">
     <path d="M 317.392188 85.685156 
L 428.517188 85.685156 
Q 430.117188 85.685156 430.117188 84.085156 
L 430.117188 27.389375 
Q 430.117188 25.789375 428.517188 25.789375 
L 317.392188 25.789375 
Q 315.792188 25.789375 315.792188 27.389375 
L 315.792188 84.085156 
Q 315.792188 85.685156 317.392188 85.685156 
z
" style="fill: #ffffff; opacity: 0.8; stroke: #cccccc; stroke-linejoin: miter"/>
    </g>
    <g id="text_17">
     <!-- CPU -->
     <g style="fill: #262626" transform="translate(363.453359 35.431406) scale(0.09 -0.09)">
      <defs>
       <path id="ArialMT-55" d="M 3500 4581 
L 4106 4581 
L 4106 1934 
Q 4106 1244 3950 837 
Q 3794 431 3386 176 
Q 2978 -78 2316 -78 
Q 1672 -78 1262 144 
Q 853 366 678 786 
Q 503 1206 503 1934 
L 503 4581 
L 1109 4581 
L 1109 1938 
Q 1109 1341 1220 1058 
Q 1331 775 1601 622 
Q 1872 469 2263 469 
Q 2931 469 3215 772 
Q 3500 1075 3500 1938 
L 3500 4581 
z
" transform="scale(0.015625)"/>
      </defs>
      <use xlink:href="#ArialMT-43"/>
      <use xlink:href="#ArialMT-50" transform="translate(72.216797 0)"/>
      <use xlink:href="#ArialMT-55" transform="translate(138.916016 0)"/>
     </g>
    </g>
    <g id="line2d_30">
     <path d="M 318.992188 44.146406 
L 326.992188 44.146406 
L 334.992188 44.146406 
" style="fill: none; stroke: #1f77b4; stroke-width: 2; stroke-linecap: round"/>
    </g>
    <g id="text_18">
     <!-- CPU 0 -->
     <g style="fill: #262626" transform="translate(341.392188 46.946406) scale(0.08 -0.08)">
      <use xlink:href="#ArialMT-43"/>
      <use xlink:href="#ArialMT-50" transform="translate(72.216797 0)"/>
      <use xlink:href="#ArialMT-55" transform="translate(138.916016 0)"/>
      <use xlink:href="#ArialMT-20" transform="translate(211.132812 0)"/>
      <use xlink:href="#ArialMT-30" transform="translate(238.916016 0)"/>
     </g>
    </g>
    <g id="line2d_31">
     <path d="M 318.992188 55.462656 
L 326.992188 55.462656 
L 334.992188 55.462656 
" style="fill: none; stroke: #ff7f0e; stroke-width: 2; stroke-linecap: round"/>
    </g>
    <g id="text_19">
     <!-- CPU 1 -->
     <g style="fill: #262626" transform="translate(341.392188 58.262656) scale(0.08 -0.08)">
      <use xlink:href="#ArialMT-43"/>
      <use xlink:href="#ArialMT-50" transform="translate(72.216797 0)"/>
      <use xlink:href="#ArialMT-55" transform="translate(138.916016 0)"/>
      <use xlink:href="#ArialMT-20" transform="translate(211.132812 0)"/>
      <use xlink:href="#ArialMT-31" transform="translate(238.916016 0)"/>
     </g>
    </g>
    <g id="line2d_32">
     <path d="M 318.992188 66.778906 
L 326.992188 66.778906 
L 334.992188 66.778906 
" style="fill: none; stroke: #2ca02c; stroke-width: 2; stroke-linecap: round"/>
    </g>
    <g id="text_20">
     <!-- CPU 2 -->
     <g style="fill: #262626" transform="translate(341.392188 69.578906) scale(0.08 -0.08)">
      <use xlink:href="#ArialMT-43"/>
      <use xlink:href="#ArialMT-50" transform="translate(72.216797 0)"/>
      <use xlink:href="#ArialMT-55" transform="translate(138.916016 0)"/>
      <use xlink:href="#ArialMT-20" transform="translate(211.132812 0)"/>
      <use xlink:href="#ArialMT-32" transform="translate(238.916016 0)"/>
     </g>
    </g>
    <g id="line2d_33">
     <path d="M 318.992188 78.095156 
L 326.992188 78.095156 
L 334.992188 78.095156 
" style="fill: none; stroke: #d62728; stroke-width: 2; stroke-linecap: round"/>
    </g>
    <g id="text_21">
     <!-- CPU 3 -->
     <g style="fill: #262626" transform="translate(341.392188 80.895156) scale(0.08 -0.08)">
      <use xlink:href="#ArialMT-43"/>
      <use xlink:href="#ArialMT-50" transform="translate(72.216797 0)"/>
      <use xlink:href="#ArialMT-55" transform="translate(138.916016 0)"/>
      <use xlink:href="#ArialMT-20" transform="translate(211.132812 0)"/>
      <use xlink:href="#ArialMT-33" transform="translate(238.916016 0)"/>
     </g>
    </g>
    <g id="line2d_34">
     <path d="M 380.954688 44.146406 
L 388.954688 44.146406 
L 396.954688 44.146406 
" style="fill: none; stroke: #9467bd; stroke-width: 2; stroke-linecap: round"/>
    </g>
    <g id="text_22">
     <!-- CPU 4 -->
     <g style="fill: #262626" transform="translate(403.354688 46.946406) scale(0.08 -0.08)">
      <use xlink:href="#ArialMT-43"/>
      <use xlink:href="#ArialMT-50" transform="translate(72.216797 0)"/>
      <use xlink:href="#ArialMT-55" transform="translate(138.916016 0)"/>
      <use xlink:href="#ArialMT-20" transform="translate(211.132812 0)"/>
      <use xlink:href="#ArialMT-34" transform="translate(238.916016 0)"/>
     </g>
    </g>
    <g id="line2d_35">
     <path d="M 380.954688 55.462656 
L 388.954688 55.462656 
L 396.954688 55.462656 
" style="fill: none; stroke: #8c564b; stroke-width: 2; stroke-linecap: round"/>
    </g>
    <g id="text_23">
     <!-- CPU 5 -->
     <g style="fill: #262626" transform="translate(403.354688 58.262656) scale(0.08 -0.08)">
      <use xlink:href="#ArialMT-43"/>
      <use xlink:href="#ArialMT-50" transform="translate(72.216797 0)"/>
      <use xlink:href="#ArialMT-55" transform="translate(138.916016 0)"/>
      <use xlink:href="#ArialMT-20" transform="translate(211.132812 0)"/>
      <use xlink:href="#ArialMT-35" transform="translate(238.916016 0)"/>
     </g>
    </g>
    <g id="line2d_36">
     <path d="M 380.954688 66.778906 
L 388.954688 66.778906 
L 396.954688 66.778906 
" style="fill: none; stroke: #e377c2; stroke-width: 2; stroke-linecap: round"/>
    </g>
    <g id="text_24">
     <!-- CPU 6 -->
     <g style="fill: #262626" transform="translate(403.354688 69.578906) scale(0.08 -0.08)">
      <use xlink:href="#ArialMT-43"/>
      <use xlink:href="#ArialMT-50" transform="translate(72.216797 0)"/>
      <use xlink:href="#ArialMT-55" transform="translate(138.916016 0)"/>
      <use xlink:href="#ArialMT-20" transform="translate(211.132812 0)"/>
      <use xlink:href="#ArialMT-36" transform="translate(238.916016 0)"/>
     </g>
    </g>
    <g id="line2d_37">
     <path d="M 380.954688 78.095156 
L 388.954688 78.095156 
L 396.954688 78.095156 
" style="fill: none; stroke: #7f7f7f; stroke-width: 2; stroke-linecap: round"/>
    </g>
    <g id="text_25">
     <!-- CPU 7 -->
     <g style="fill: #262626" transform="translate(403.354688 80.895156) scale(0.08 -0.08)">
      <defs>
       <path id="ArialMT-37" d="M 303 3981 
L 303 4522 
L 3269 4522 
L 3269 4084 
Q 2831 3619 2401 2847 
Q 1972 2075 1738 1259 
Q 1569 684 1522 0 
L 944 0 
Q 953 541 1156 1306 
Q 1359 2072 1739 2783 
Q 2119 3494 2547 3981 
L 303 3981 
z
" transform="scale(0.015625)"/>
      </defs>
      <use xlink:href="#ArialMT-43"/>
      <use xlink:href="#ArialMT-50" transform="translate(72.216797 0)"/>
      <use xlink:href="#ArialMT-55" transform="translate(138.916016 0)"/>
      <use xlink:href="#ArialMT-20" transform="translate(211.132812 0)"/>
      <use xlink:href="#ArialMT-37" transform="translate(238.916016 0)"/>
     </g>
    </g>
   </g>
   <g id="legend_2">
    <g id="patch_8">
     <path d="M 49.867188 63.240156 
L 100.813438 63.240156 
Q 102.413438 63.240156 102.413438 61.640156 
L 102.413438 27.389375 
Q 102.413438 25.789375 100.813438 25.789375 
L 49.867188 25.789375 
Q 48.267188 25.789375 48.267188 27.389375 
L 48.267188 61.640156 
Q 48.267188 63.240156 49.867188 63.240156 
z
" style="fill: #ffffff; opacity: 0.8; stroke: #cccccc; stroke-linejoin: miter"/>
    </g>
    <g id="text_26">
     <!-- Variant -->
     <g style="fill: #262626" transform="translate(61.414922 35.431406) scale(0.09 -0.09)">
      <defs>
       <path id="ArialMT-56" d="M 1803 0 
L 28 4581 
L 684 4581 
L 1875 1253 
Q 2019 853 2116 503 
Q 2222 878 2363 1253 
L 3600 4581 
L 4219 4581 
L 2425 0 
L 1803 0 
z
" transform="scale(0.015625)"/>
       <path id="ArialMT-6e" d="M 422 0 
L 422 3319 
L 928 3319 
L 928 2847 
Q 1294 3394 1984 3394 
Q 2284 3394 2536 3286 
Q 2788 3178 2913 3003 
Q 3038 2828 3088 2588 
Q 3119 2431 3119 2041 
L 3119 0 
L 2556 0 
L 2556 2019 
Q 2556 2363 2490 2533 
Q 2425 2703 2258 2804 
Q 2091 2906 1866 2906 
Q 1506 2906 1245 2678 
Q 984 2450 984 1813 
L 984 0 
L 422 0 
z
" transform="scale(0.015625)"/>
       <path id="ArialMT-74" d="M 1650 503 
L 1731 6 
Q 1494 -44 1306 -44 
Q 1000 -44 831 53 
Q 663 150 594 308 
Q 525 466 525 972 
L 525 2881 
L 113 2881 
L 113 3319 
L 525 3319 
L 525 4141 
L 1084 4478 
L 1084 3319 
L 1650 3319 
L 1650 2881 
L 1084 2881 
L 1084 941 
Q 1084 700 1114 631 
Q 1144 563 1211 522 
Q 1278 481 1403 481 
Q 1497 481 1650 503 
z
" transform="scale(0.015625)"/>
      </defs>
      <use xlink:href="#ArialMT-56"/>
      <use xlink:href="#ArialMT-61" transform="translate(59.324219 0)"/>
      <use xlink:href="#ArialMT-72" transform="translate(114.939453 0)"/>
      <use xlink:href="#ArialMT-69" transform="translate(148.240234 0)"/>
      <use xlink:href="#ArialMT-61" transform="translate(170.457031 0)"/>
      <use xlink:href="#ArialMT-6e" transform="translate(226.072266 0)"/>
      <use xlink:href="#ArialMT-74" transform="translate(281.6875 0)"/>
     </g>
    </g>
    <g id="line2d_38">
     <path d="M 51.467188 44.146406 
L 59.467188 44.146406 
L 67.467188 44.146406 
" style="fill: none; stroke: #333333; stroke-width: 2; stroke-linecap: round"/>
    </g>
    <g id="text_27">
     <!-- queryA -->
     <g style="fill: #262626" transform="translate(73.867188 46.946406) scale(0.08 -0.08)">
      <defs>
       <path id="ArialMT-71" d="M 2538 -1272 
L 2538 353 
Q 2406 169 2170 47 
Q 1934 -75 1669 -75 
Q 1078 -75 651 397 
Q 225 869 225 1691 
Q 225 2191 398 2587 
Q 572 2984 901 3189 
Q 1231 3394 1625 3394 
Q 2241 3394 2594 2875 
L 2594 3319 
L 3100 3319 
L 3100 -1272 
L 2538 -1272 
z
M 803 1669 
Q 803 1028 1072 708 
Q 1341 388 1716 388 
Q 2075 388 2334 692 
Q 2594 997 2594 1619 
Q 2594 2281 2320 2615 
Q 2047 2950 1678 2950 
Q 1313 2950 1058 2639 
Q 803 2328 803 1669 
z
" transform="scale(0.015625)"/>
      </defs>
      <use xlink:href="#ArialMT-71"/>
      <use xlink:href="#ArialMT-75" transform="translate(55.615234 0)"/>
      <use xlink:href="#ArialMT-65" transform="translate(111.230469 0)"/>
      <use xlink:href="#ArialMT-72" transform="translate(166.845703 0)"/>
      <use xlink:href="#ArialMT-79" transform="translate(200.146484 0)"/>
      <use xlink:href="#ArialMT-41" transform="translate(250.146484 0)"/>
     </g>
    </g>
    <g id="line2d_39">
     <path d="M 51.467188 55.556406 
L 59.467188 55.556406 
L 67.467188 55.556406 
" style="fill: none; stroke-dasharray: 7.4,3.2; stroke-dashoffset: 0; stroke: #333333; stroke-width: 2"/>
    </g>
    <g id="text_28">
     <!-- queryB -->
     <g style="fill: #262626" transform="translate(73.867188 58.356406) scale(0.08 -0.08)">
      <use xlink:href="#ArialMT-71"/>
      <use xlink:href="#ArialMT-75" transform="translate(55.615234 0)"/>
      <use xlink:href="#ArialMT-65" transform="translate(111.230469 0)"/>
      <use xlink:href="#ArialMT-72" transform="translate(166.845703 0)"/>
      <use xlink:href="#ArialMT-79" transform="translate(200.146484 0)"/>
      <use xlink:href="#ArialMT-42" transform="translate(250.146484 0)"/>
     </g>
    </g>
   </g>
  </g>
  <g id="axes_2">
   <g id="patch_9">
    <path d="M 458.997187 278.389375 
L 848.847187 278.389375 
L 848.847187 21.789375 
L 458.997187 21.789375 
z
" style="fill: #ffffff"/>
   </g>
   <g id="matplotlib.axis_3">
    <g id="xtick_8">
     <g id="line2d_40">
      <path d="M 458.997187 278.389375 
L 458.997187 21.789375 
" clip-path="url(#p1809d103c1)" style="fill: none; stroke: #cccccc; stroke-opacity: 0.2; stroke-width: 0.8; stroke-linecap: round"/>
     </g>
     <g id="text_29">
      <!-- 0 -->
      <g style="fill: #262626" transform="translate(456.216719 292.547188) scale(0.1 -0.1)">
       <use xlink:href="#ArialMT-30"/>
      </g>
     </g>
    </g>
    <g id="xtick_9">
     <g id="line2d_41">
      <path d="M 516.32807 278.389375 
L 516.32807 21.789375 
" clip-path="url(#p1809d103c1)" style="fill: none; stroke: #cccccc; stroke-opacity: 0.2; stroke-width: 0.8; stroke-linecap: round"/>
     </g>
     <g id="text_30">
      <!-- 10 -->
      <g style="fill: #262626" transform="translate(510.767132 292.547188) scale(0.1 -0.1)">
       <use xlink:href="#ArialMT-31"/>
       <use xlink:href="#ArialMT-30" transform="translate(55.615234 0)"/>
      </g>
     </g>
    </g>
    <g id="xtick_10">
     <g id="line2d_42">
      <path d="M 573.658952 278.389375 
L 573.658952 21.789375 
" clip-path="url(#p1809d103c1)" style="fill: none; stroke: #cccccc; stroke-opacity: 0.2; stroke-width: 0.8; stroke-linecap: round"/>
     </g>
     <g id="text_31">
      <!-- 20 -->
      <g style="fill: #262626" transform="translate(568.098015 292.547188) scale(0.1 -0.1)">
       <use xlink:href="#ArialMT-32"/>
       <use xlink:href="#ArialMT-30" transform="translate(55.615234 0)"/>
      </g>
     </g>
    </g>
    <g id="xtick_11">
     <g id="line2d_43">
      <path d="M 630.989835 278.389375 
L 630.989835 21.789375 
" clip-path="url(#p1809d103c1)" style="fill: none; stroke: #cccccc; stroke-opacity: 0.2; stroke-width: 0.8; stroke-linecap: round"/>
     </g>
     <g id="text_32">
      <!-- 30 -->
      <g style="fill: #262626" transform="translate(625.428897 292.547188) scale(0.1 -0.1)">
       <use xlink:href="#ArialMT-33"/>
       <use xlink:href="#ArialMT-30" transform="translate(55.615234 0)"/>
      </g>
     </g>
    </g>
    <g id="xtick_12">
     <g id="line2d_44">
      <path d="M 688.320717 278.389375 
L 688.320717 21.789375 
" clip-path="url(#p1809d103c1)" style="fill: none; stroke: #cccccc; stroke-opacity: 0.2; stroke-width: 0.8; stroke-linecap: round"/>
     </g>
     <g id="text_33">
      <!-- 40 -->
      <g style="fill: #262626" transform="translate(682.759779 292.547188) scale(0.1 -0.1)">
       <use xlink:href="#ArialMT-34"/>
       <use xlink:href="#ArialMT-30" transform="translate(55.615234 0)"/>
      </g>
     </g>
    </g>
    <g id="xtick_13">
     <g id="line2d_45">
      <path d="M 745.651599 278.389375 
L 745.651599 21.789375 
" clip-path="url(#p1809d103c1)" style="fill: none; stroke: #cccccc; stroke-opacity: 0.2; stroke-width: 0.8; stroke-linecap: round"/>
     </g>
     <g id="text_34">
      <!-- 50 -->
      <g style="fill: #262626" transform="translate(740.090662 292.547188) scale(0.1 -0.1)">
       <use xlink:href="#ArialMT-35"/>
       <use xlink:href="#ArialMT-30" transform="translate(55.615234 0)"/>
      </g>
     </g>
    </g>
    <g id="xtick_14">
     <g id="line2d_46">
      <path d="M 802.982482 278.389375 
L 802.982482 21.789375 
" clip-path="url(#p1809d103c1)" style="fill: none; stroke: #cccccc; stroke-opacity: 0.2; stroke-width: 0.8; stroke-linecap: round"/>
     </g>
     <g id="text_35">
      <!-- 60 -->
      <g style="fill: #262626" transform="translate(797.421544 292.547188) scale(0.1 -0.1)">
       <use xlink:href="#ArialMT-36"/>
       <use xlink:href="#ArialMT-30" transform="translate(55.615234 0)"/>
      </g>
     </g>
    </g>
    <g id="text_36">
     <!-- Elapsed Time (sec) -->
     <g style="fill: #262626" transform="translate(611.130781 305.814375) scale(0.1 -0.1)">
      <use xlink:href="#ArialMT-45"/>
      <use xlink:href="#ArialMT-6c" transform="translate(66.699219 0)"/>
      <use xlink:href="#ArialMT-61" transform="translate(88.916016 0)"/>
      <use xlink:href="#ArialMT-70" transform="translate(144.53125 0)"/>
      <use xlink:href="#ArialMT-73" transform="translate(200.146484 0)"/>
      <use xlink:href="#ArialMT-65" transform="translate(250.146484 0)"/>
      <use xlink:href="#ArialMT-64" transform="translate(305.761719 0)"/>
      <use xlink:href="#ArialMT-20" transform="translate(361.376953 0)"/>
      <use xlink:href="#ArialMT-54" transform="translate(387.410156 0)"/>
      <use xlink:href="#ArialMT-69" transform="translate(444.744141 0)"/>
      <use xlink:href="#ArialMT-6d" transform="translate(466.960938 0)"/>
      <use xlink:href="#ArialMT-65" transform="translate(550.261719 0)"/>
      <use xlink:href="#ArialMT-20" transform="translate(605.876953 0)"/>
      <use xlink:href="#ArialMT-28" transform="translate(633.660156 0)"/>
      <use xlink:href="#ArialMT-73" transform="translate(666.960938 0)"/>
      <use xlink:href="#ArialMT-65" transform="translate(716.960938 0)"/>
      <use xlink:href="#ArialMT-63" transform="translate(772.576172 0)"/>
      <use xlink:href="#ArialMT-29" transform="translate(822.576172 0)"/>
     </g>
    </g>
   </g>
   <g id="matplotlib.axis_4">
    <g id="ytick_7">
     <g id="line2d_47">
      <path d="M 458.997187 269.6378 
L 848.847187 269.6378 
" clip-path="url(#p1809d103c1)" style="fill: none; stroke: #cccccc; stroke-opacity: 0.2; stroke-width: 0.8; stroke-linecap: round"/>
     </g>
    </g>
    <g id="ytick_8">
     <g id="line2d_48">
      <path d="M 458.997187 222.287201 
L 848.847187 222.287201 
" clip-path="url(#p1809d103c1)" style="fill: none; stroke: #cccccc; stroke-opacity: 0.2; stroke-width: 0.8; stroke-linecap: round"/>
     </g>
    </g>
    <g id="ytick_9">
     <g id="line2d_49">
      <path d="M 458.997187 174.936602 
L 848.847187 174.936602 
" clip-path="url(#p1809d103c1)" style="fill: none; stroke: #cccccc; stroke-opacity: 0.2; stroke-width: 0.8; stroke-linecap: round"/>
     </g>
    </g>
    <g id="ytick_10">
     <g id="line2d_50">
      <path d="M 458.997187 127.586003 
L 848.847187 127.586003 
" clip-path="url(#p1809d103c1)" style="fill: none; stroke: #cccccc; stroke-opacity: 0.2; stroke-width: 0.8; stroke-linecap: round"/>
     </g>
    </g>
    <g id="ytick_11">
     <g id="line2d_51">
      <path d="M 458.997187 80.235403 
L 848.847187 80.235403 
" clip-path="url(#p1809d103c1)" style="fill: none; stroke: #cccccc; stroke-opacity: 0.2; stroke-width: 0.8; stroke-linecap: round"/>
     </g>
    </g>
    <g id="ytick_12">
     <g id="line2d_52">
      <path d="M 458.997187 32.884804 
L 848.847187 32.884804 
" clip-path="url(#p1809d103c1)" style="fill: none; stroke: #cccccc; stroke-opacity: 0.2; stroke-width: 0.8; stroke-linecap: round"/>
     </g>
    </g>
    <g id="text_37">
     <!-- Busy% -->
     <g style="fill: #262626" transform="translate(452.8925 165.651094) rotate(-90) scale(0.1 -0.1)">
      <use xlink:href="#ArialMT-42"/>
      <use xlink:href="#ArialMT-75" transform="translate(66.699219 0)"/>
      <use xlink:href="#ArialMT-73" transform="translate(122.314453 0)"/>
      <use xlink:href="#ArialMT-79" transform="translate(172.314453 0)"/>
      <use xlink:href="#ArialMT-25" transform="translate(222.314453 0)"/>
     </g>
    </g>
   </g>
   <g id="line2d_53">
    <path d="M 458.997187 265.541974 
L 464.730276 264.310858 
L 470.463364 265.423597 
L 476.196452 265.613 
L 481.92954 265.494623 
L 487.662629 265.66035 
L 493.395717 265.684025 
L 499.128805 265.613 
L 504.861893 265.589324 
L 510.594982 265.518298 
L 516.32807 265.66035 
L 522.061158 265.684025 
L 527.794246 265.66035 
L 533.527335 265.423597 
L 539.260423 265.565649 
L 544.993511 265.399922 
L 550.726599 265.565649 
L 556.459687 265.470948 
L 562.192776 265.66035 
L 567.925864 265.636675 
L 573.658952 265.66035 
L 579.39204 265.66035 
L 585.125129 265.589324 
L 590.858217 265.636675 
L 596.591305 265.636675 
L 602.324393 265.66035 
L 608.057482 265.589324 
L 613.79057 265.613 
L 619.523658 265.613 
L 625.256746 265.684025 
L 630.989835 265.684025 
L 636.722923 264.523936 
L 642.456011 265.731376 
L 648.189099 265.636675 
L 653.922187 265.731376 
L 659.655276 265.707701 
L 665.388364 265.707701 
L 671.121452 265.66035 
L 676.85454 265.636675 
L 682.587629 265.565649 
L 688.320717 265.565649 
L 694.053805 265.589324 
L 699.786893 265.66035 
L 705.519982 265.613 
L 711.25307 265.707701 
L 716.986158 265.684025 
L 722.719246 265.399922 
L 728.452335 265.589324 
L 734.185423 265.494623 
L 739.918511 265.613 
L 745.651599 265.494623 
L 751.384687 265.565649 
L 757.117776 264.618637 
L 762.850864 265.684025 
L 768.583952 265.707701 
L 774.31704 265.684025 
L 780.050129 265.66035 
L 785.783217 265.707701 
L 791.516305 265.707701 
L 797.249393 265.707701 
L 802.982482 265.707701 
L 808.71557 264.571286 
L 814.448658 265.684025 
L 820.181746 265.636675 
L 825.914835 265.684025 
L 831.647923 265.684025 
L 837.381011 265.636675 
L 843.114099 265.684025 
L 848.847187 265.613 
" clip-path="url(#p1809d103c1)" style="fill: none; stroke: #1f77b4; stroke-opacity: 0.9; stroke-width: 1.2; stroke-linecap: round"/>
   </g>
   <g id="line2d_54">
    <path d="M 458.997187 265.044792 
L 464.730276 263.576924 
L 470.463364 265.021117 
L 476.196452 265.25787 
L 481.92954 265.092143 
L 487.662629 265.139494 
L 493.395717 264.997442 
L 499.128805 265.210519 
L 504.861893 265.068468 
L 510.594982 265.210519 
L 516.32807 265.234195 
L 522.061158 265.068468 
L 527.794246 265.210519 
L 533.527335 265.092143 
L 539.260423 265.25787 
L 544.993511 265.044792 
L 550.726599 265.210519 
L 556.459687 265.044792 
L 562.192776 265.25787 
L 567.925864 265.139494 
L 573.658952 265.186844 
L 579.39204 265.25787 
L 585.125129 265.021117 
L 590.858217 265.234195 
L 596.591305 265.044792 
L 602.324393 265.25787 
L 608.057482 265.092143 
L 613.79057 265.234195 
L 619.523658 264.618637 
L 625.256746 265.25787 
L 630.989835 265.092143 
L 636.722923 264.239832 
L 642.456011 265.234195 
L 648.189099 265.068468 
L 653.922187 265.281545 
L 659.655276 265.092143 
L 665.388364 265.234195 
L 671.121452 264.997442 
L 676.85454 265.210519 
L 682.587629 265.092143 
L 688.320717 265.25787 
L 694.053805 265.115818 
L 699.786893 265.186844 
L 705.519982 265.281545 
L 711.25307 265.092143 
L 716.986158 265.234195 
L 722.719246 265.044792 
L 728.452335 265.210519 
L 734.185423 264.997442 
L 739.918511 265.021117 
L 745.651599 264.429235 
L 751.384687 264.642312 
L 757.117776 264.263507 
L 762.850864 265.234195 
L 768.583952 265.25787 
L 774.31704 265.068468 
L 780.050129 265.281545 
L 785.783217 265.092143 
L 791.516305 265.234195 
L 797.249393 264.973766 
L 802.982482 265.139494 
L 808.71557 263.955729 
L 814.448658 265.25787 
L 820.181746 264.618637 
L 825.914835 265.210519 
L 831.647923 265.044792 
L 837.381011 265.115818 
L 843.114099 265.186844 
L 848.847187 265.423597 
" clip-path="url(#p1809d103c1)" style="fill: none; stroke: #ff7f0e; stroke-opacity: 0.9; stroke-width: 1.2; stroke-linecap: round"/>
   </g>
   <g id="line2d_55">
    <path d="M 458.997187 33.855491 
L 464.730276 33.784466 
L 470.463364 33.737115 
L 476.196452 33.831816 
L 481.92954 33.476687 
L 487.662629 33.500362 
L 493.395717 33.500362 
L 499.128805 33.500362 
L 504.861893 33.524037 
L 510.594982 33.666089 
L 516.32807 33.500362 
L 522.061158 33.524037 
L 527.794246 33.476687 
L 533.527335 33.500362 
L 539.260423 33.618738 
L 544.993511 33.500362 
L 550.726599 33.476687 
L 556.459687 33.71344 
L 562.192776 33.476687 
L 567.925864 33.524037 
L 573.658952 33.524037 
L 579.39204 33.476687 
L 585.125129 33.571388 
L 590.858217 33.855491 
L 596.591305 33.666089 
L 602.324393 33.547713 
L 608.057482 33.500362 
L 613.79057 33.879167 
L 619.523658 33.547713 
L 625.256746 33.476687 
L 630.989835 33.595063 
L 636.722923 33.500362 
L 642.456011 33.476687 
L 648.189099 33.547713 
L 653.922187 33.476687 
L 659.655276 33.500362 
L 665.388364 33.476687 
L 671.121452 33.737115 
L 676.85454 33.476687 
L 682.587629 33.524037 
L 688.320717 33.476687 
L 694.053805 33.666089 
L 699.786893 33.500362 
L 705.519982 33.453011 
L 711.25307 33.500362 
L 716.986158 33.571388 
L 722.719246 33.784466 
L 728.452335 33.71344 
L 734.185423 33.524037 
L 739.918511 33.808141 
L 745.651599 33.500362 
L 751.384687 33.453011 
L 757.117776 35.181308 
L 762.850864 33.500362 
L 768.583952 33.71344 
L 774.31704 33.737115 
L 780.050129 33.500362 
L 785.783217 33.500362 
L 791.516305 33.618738 
L 797.249393 33.524037 
L 802.982482 33.476687 
L 808.71557 33.500362 
L 814.448658 33.476687 
L 820.181746 33.831816 
L 825.914835 33.476687 
L 831.647923 33.500362 
L 837.381011 33.524037 
L 843.114099 33.642414 
L 848.847187 34.044894 
" clip-path="url(#p1809d103c1)" style="fill: none; stroke: #2ca02c; stroke-opacity: 0.9; stroke-width: 1.2; stroke-linecap: round"/>
   </g>
   <g id="line2d_56">
    <path d="M 458.997187 265.518298 
L 464.730276 265.565649 
L 470.463364 265.447272 
L 476.196452 265.636675 
L 481.92954 265.494623 
L 487.662629 265.636675 
L 493.395717 265.518298 
L 499.128805 265.66035 
L 504.861893 265.518298 
L 510.594982 265.684025 
L 516.32807 265.66035 
L 522.061158 265.518298 
L 527.794246 265.707701 
L 533.527335 265.494623 
L 539.260423 265.636675 
L 544.993511 265.447272 
L 550.726599 265.66035 
L 556.459687 265.518298 
L 562.192776 265.684025 
L 567.925864 265.541974 
L 573.658952 265.636675 
L 579.39204 265.684025 
L 585.125129 265.541974 
L 590.858217 265.684025 
L 596.591305 265.518298 
L 602.324393 265.636675 
L 608.057482 265.518298 
L 613.79057 265.66035 
L 619.523658 265.518298 
L 625.256746 265.684025 
L 630.989835 265.541974 
L 636.722923 265.684025 
L 642.456011 265.707701 
L 648.189099 265.494623 
L 653.922187 265.684025 
L 659.655276 265.470948 
L 665.388364 265.684025 
L 671.121452 265.470948 
L 676.85454 265.684025 
L 682.587629 265.541974 
L 688.320717 265.684025 
L 694.053805 265.518298 
L 699.786893 265.684025 
L 705.519982 265.684025 
L 711.25307 265.541974 
L 716.986158 265.636675 
L 722.719246 265.470948 
L 728.452335 265.684025 
L 734.185423 265.518298 
L 739.918511 265.684025 
L 745.651599 265.541974 
L 751.384687 265.684025 
L 757.117776 264.405559 
L 762.850864 265.802402 
L 768.583952 265.826077 
L 774.31704 265.731376 
L 780.050129 265.849753 
L 785.783217 265.802402 
L 791.516305 265.826077 
L 797.249393 265.518298 
L 802.982482 265.684025 
L 808.71557 265.494623 
L 814.448658 265.707701 
L 820.181746 265.518298 
L 825.914835 265.66035 
L 831.647923 265.518298 
L 837.381011 265.613 
L 843.114099 265.636675 
L 848.847187 265.470948 
" clip-path="url(#p1809d103c1)" style="fill: none; stroke: #d62728; stroke-opacity: 0.9; stroke-width: 1.2; stroke-linecap: round"/>
   </g>
   <g id="line2d_57">
    <path d="M 458.997187 265.755051 
L 464.730276 265.755051 
L 470.463364 265.25787 
L 476.196452 265.376247 
L 481.92954 265.305221 
L 487.662629 265.826077 
L 493.395717 265.873428 
L 499.128805 265.944454 
L 504.861893 265.897103 
L 510.594982 265.920778 
L 516.32807 265.897103 
L 522.061158 265.897103 
L 527.794246 265.281545 
L 533.527335 265.376247 
L 539.260423 265.944454 
L 544.993511 265.873428 
L 550.726599 265.944454 
L 556.459687 265.399922 
L 562.192776 265.352571 
L 567.925864 265.399922 
L 573.658952 265.328896 
L 579.39204 265.376247 
L 585.125129 265.873428 
L 590.858217 265.920778 
L 596.591305 265.944454 
L 602.324393 265.944454 
L 608.057482 265.897103 
L 613.79057 265.897103 
L 619.523658 265.897103 
L 625.256746 265.944454 
L 630.989835 265.897103 
L 636.722923 265.920778 
L 642.456011 265.944454 
L 648.189099 265.849753 
L 653.922187 265.944454 
L 659.655276 265.849753 
L 665.388364 265.920778 
L 671.121452 265.328896 
L 676.85454 265.115818 
L 682.587629 265.281545 
L 688.320717 265.305221 
L 694.053805 265.305221 
L 699.786893 265.376247 
L 705.519982 265.944454 
L 711.25307 265.897103 
L 716.986158 265.802402 
L 722.719246 265.778727 
L 728.452335 265.897103 
L 734.185423 265.897103 
L 739.918511 265.920778 
L 745.651599 265.849753 
L 751.384687 265.944454 
L 757.117776 265.920778 
L 762.850864 265.920778 
L 768.583952 265.873428 
L 774.31704 265.068468 
L 780.050129 265.305221 
L 785.783217 265.352571 
L 791.516305 265.920778 
L 797.249393 265.873428 
L 802.982482 265.920778 
L 808.71557 265.731376 
L 814.448658 265.352571 
L 820.181746 265.352571 
L 825.914835 265.920778 
L 831.647923 265.873428 
L 837.381011 265.802402 
L 843.114099 265.897103 
L 848.847187 265.826077 
" clip-path="url(#p1809d103c1)" style="fill: none; stroke: #9467bd; stroke-opacity: 0.9; stroke-width: 1.2; stroke-linecap: round"/>
   </g>
   <g id="line2d_58">
    <path d="M 458.997187 265.944454 
L 464.730276 265.873428 
L 470.463364 265.873428 
L 476.196452 265.991804 
L 481.92954 265.991804 
L 487.662629 265.399922 
L 493.395717 265.281545 
L 499.128805 265.968129 
L 504.861893 265.920778 
L 510.594982 265.944454 
L 516.32807 265.944454 
L 522.061158 265.376247 
L 527.794246 265.944454 
L 533.527335 265.968129 
L 539.260423 265.920778 
L 544.993511 265.944454 
L 550.726599 265.186844 
L 556.459687 265.897103 
L 562.192776 265.968129 
L 567.925864 265.991804 
L 573.658952 265.991804 
L 579.39204 265.991804 
L 585.125129 265.447272 
L 590.858217 265.968129 
L 596.591305 265.944454 
L 602.324393 265.968129 
L 608.057482 265.968129 
L 613.79057 265.968129 
L 619.523658 265.968129 
L 625.256746 265.991804 
L 630.989835 265.968129 
L 636.722923 265.944454 
L 642.456011 265.991804 
L 648.189099 265.968129 
L 653.922187 265.991804 
L 659.655276 265.968129 
L 665.388364 265.968129 
L 671.121452 265.920778 
L 676.85454 265.944454 
L 682.587629 265.968129 
L 688.320717 265.991804 
L 694.053805 265.991804 
L 699.786893 265.968129 
L 705.519982 265.991804 
L 711.25307 265.991804 
L 716.986158 265.968129 
L 722.719246 265.920778 
L 728.452335 265.968129 
L 734.185423 265.944454 
L 739.918511 265.968129 
L 745.651599 265.920778 
L 751.384687 266.01548 
L 757.117776 265.826077 
L 762.850864 265.826077 
L 768.583952 265.826077 
L 774.31704 265.684025 
L 780.050129 265.849753 
L 785.783217 265.613 
L 791.516305 265.234195 
L 797.249393 265.305221 
L 802.982482 265.305221 
L 808.71557 265.25787 
L 814.448658 265.968129 
L 820.181746 265.352571 
L 825.914835 265.399922 
L 831.647923 265.352571 
L 837.381011 265.210519 
L 843.114099 265.352571 
L 848.847187 265.873428 
" clip-path="url(#p1809d103c1)" style="fill: none; stroke: #8c564b; stroke-opacity: 0.9; stroke-width: 1.2; stroke-linecap: round"/>
   </g>
   <g id="line2d_59">
    <path d="M 458.997187 266.228557 
L 464.730276 266.583687 
L 470.463364 266.346934 
L 476.196452 266.678388 
L 481.92954 266.41796 
L 487.662629 266.370609 
L 493.395717 266.394284 
L 499.128805 265.897103 
L 504.861893 265.707701 
L 510.594982 265.873428 
L 516.32807 265.684025 
L 522.061158 266.323259 
L 527.794246 266.725739 
L 533.527335 266.394284 
L 539.260423 266.631037 
L 544.993511 265.684025 
L 550.726599 266.631037 
L 556.459687 266.394284 
L 562.192776 266.654713 
L 567.925864 266.488986 
L 573.658952 266.654713 
L 579.39204 266.725739 
L 585.125129 266.06283 
L 590.858217 265.944454 
L 596.591305 265.66035 
L 602.324393 265.897103 
L 608.057482 265.66035 
L 613.79057 265.636675 
L 619.523658 264.926416 
L 625.256746 265.920778 
L 630.989835 266.370609 
L 636.722923 266.583687 
L 642.456011 265.920778 
L 648.189099 265.376247 
L 653.922187 265.944454 
L 659.655276 265.541974 
L 665.388364 265.920778 
L 671.121452 266.323259 
L 676.85454 266.678388 
L 682.587629 266.394284 
L 688.320717 266.678388 
L 694.053805 266.441635 
L 699.786893 266.607362 
L 705.519982 266.702063 
L 711.25307 266.346934 
L 716.986158 266.725739 
L 722.719246 266.323259 
L 728.452335 266.678388 
L 734.185423 265.66035 
L 739.918511 265.897103 
L 745.651599 266.394284 
L 751.384687 266.631037 
L 757.117776 265.494623 
L 762.850864 266.631037 
L 768.583952 266.702063 
L 774.31704 266.299583 
L 780.050129 266.725739 
L 785.783217 266.394284 
L 791.516305 266.678388 
L 797.249393 266.370609 
L 802.982482 266.678388 
L 808.71557 266.323259 
L 814.448658 266.702063 
L 820.181746 266.394284 
L 825.914835 266.678388 
L 831.647923 266.488986 
L 837.381011 266.607362 
L 843.114099 266.607362 
L 848.847187 266.370609 
" clip-path="url(#p1809d103c1)" style="fill: none; stroke: #e377c2; stroke-opacity: 0.9; stroke-width: 1.2; stroke-linecap: round"/>
   </g>
   <g id="line2d_60">
    <path d="M 458.997187 265.068468 
L 464.730276 265.707701 
L 470.463364 265.684025 
L 476.196452 265.802402 
L 481.92954 265.755051 
L 487.662629 265.778727 
L 493.395717 265.636675 
L 499.128805 265.778727 
L 504.861893 265.778727 
L 510.594982 265.849753 
L 516.32807 265.755051 
L 522.061158 265.636675 
L 527.794246 265.755051 
L 533.527335 265.778727 
L 539.260423 265.305221 
L 544.993511 265.778727 
L 550.726599 265.826077 
L 556.459687 265.802402 
L 562.192776 265.755051 
L 567.925864 265.684025 
L 573.658952 265.684025 
L 579.39204 265.755051 
L 585.125129 265.613 
L 590.858217 265.755051 
L 596.591305 265.613 
L 602.324393 265.755051 
L 608.057482 265.613 
L 613.79057 265.731376 
L 619.523658 265.684025 
L 625.256746 265.731376 
L 630.989835 265.115818 
L 636.722923 265.210519 
L 642.456011 265.731376 
L 648.189099 265.589324 
L 653.922187 265.755051 
L 659.655276 265.613 
L 665.388364 265.755051 
L 671.121452 265.589324 
L 676.85454 265.707701 
L 682.587629 265.778727 
L 688.320717 265.849753 
L 694.053805 265.826077 
L 699.786893 265.684025 
L 705.519982 265.25787 
L 711.25307 264.85539 
L 716.986158 265.186844 
L 722.719246 265.139494 
L 728.452335 265.281545 
L 734.185423 265.778727 
L 739.918511 265.849753 
L 745.651599 265.802402 
L 751.384687 265.849753 
L 757.117776 265.707701 
L 762.850864 265.115818 
L 768.583952 265.210519 
L 774.31704 265.589324 
L 780.050129 265.778727 
L 785.783217 265.636675 
L 791.516305 265.755051 
L 797.249393 265.613 
L 802.982482 265.755051 
L 808.71557 265.636675 
L 814.448658 265.731376 
L 820.181746 265.684025 
L 825.914835 265.66035 
L 831.647923 265.684025 
L 837.381011 265.613 
L 843.114099 265.755051 
L 848.847187 265.494623 
" clip-path="url(#p1809d103c1)" style="fill: none; stroke: #7f7f7f; stroke-opacity: 0.9; stroke-width: 1.2; stroke-linecap: round"/>
   </g>
   <g id="line2d_61">
    <path d="M 458.997187 265.470948 
L 464.730276 265.328896 
L 470.463364 265.25787 
L 476.196452 264.950091 
L 481.92954 264.523936 
L 487.662629 265.305221 
L 493.395717 265.376247 
L 499.128805 264.287183 
L 504.861893 265.281545 
" clip-path="url(#p1809d103c1)" style="fill: none; stroke-dasharray: 4.44,1.92; stroke-dashoffset: 0; stroke: #1f77b4; stroke-opacity: 0.9; stroke-width: 1.2"/>
   </g>
   <g id="line2d_62">
    <path d="M 458.997187 263.482223 
L 464.730276 263.529573 
L 470.463364 263.576924 
L 476.196452 263.671625 
L 481.92954 263.434872 
L 487.662629 263.576924 
L 493.395717 263.458547 
L 499.128805 262.558886 
L 504.861893 263.150768 
" clip-path="url(#p1809d103c1)" style="fill: none; stroke-dasharray: 4.44,1.92; stroke-dashoffset: 0; stroke: #ff7f0e; stroke-opacity: 0.9; stroke-width: 1.2"/>
   </g>
   <g id="line2d_63">
    <path d="M 458.997187 33.950193 
L 464.730276 34.092244 
L 470.463364 33.950193 
L 476.196452 33.902842 
L 481.92954 33.831816 
L 487.662629 33.926517 
L 493.395717 33.926517 
L 499.128805 33.902842 
L 504.861893 36.743878 
" clip-path="url(#p1809d103c1)" style="fill: none; stroke-dasharray: 4.44,1.92; stroke-dashoffset: 0; stroke: #2ca02c; stroke-opacity: 0.9; stroke-width: 1.2"/>
   </g>
   <g id="line2d_64">
    <path d="M 458.997187 263.955729 
L 464.730276 264.074105 
L 470.463364 264.05043 
L 476.196452 264.09778 
L 481.92954 264.074105 
L 487.662629 264.216157 
L 493.395717 264.192482 
L 499.128805 264.121456 
L 504.861893 263.458547 
" clip-path="url(#p1809d103c1)" style="fill: none; stroke-dasharray: 4.44,1.92; stroke-dashoffset: 0; stroke: #d62728; stroke-opacity: 0.9; stroke-width: 1.2"/>
   </g>
   <g id="line2d_65">
    <path d="M 458.997187 265.565649 
L 464.730276 265.565649 
L 470.463364 265.589324 
L 476.196452 265.613 
L 481.92954 265.565649 
L 487.662629 265.470948 
L 493.395717 265.778727 
L 499.128805 265.589324 
L 504.861893 265.234195 
" clip-path="url(#p1809d103c1)" style="fill: none; stroke-dasharray: 4.44,1.92; stroke-dashoffset: 0; stroke: #9467bd; stroke-opacity: 0.9; stroke-width: 1.2"/>
   </g>
   <g id="line2d_66">
    <path d="M 458.997187 265.778727 
L 464.730276 265.802402 
L 470.463364 265.873428 
L 476.196452 265.944454 
L 481.92954 265.920778 
L 487.662629 265.826077 
L 493.395717 265.636675 
L 499.128805 265.613 
L 504.861893 265.210519 
" clip-path="url(#p1809d103c1)" style="fill: none; stroke-dasharray: 4.44,1.92; stroke-dashoffset: 0; stroke: #8c564b; stroke-opacity: 0.9; stroke-width: 1.2"/>
   </g>
   <g id="line2d_67">
    <path d="M 458.997187 263.908378 
L 464.730276 264.168806 
L 470.463364 264.192482 
L 476.196452 264.216157 
L 481.92954 264.145131 
L 487.662629 262.724613 
L 493.395717 263.411197 
L 499.128805 263.434872 
L 504.861893 263.174444 
" clip-path="url(#p1809d103c1)" style="fill: none; stroke-dasharray: 4.44,1.92; stroke-dashoffset: 0; stroke: #e377c2; stroke-opacity: 0.9; stroke-width: 1.2"/>
   </g>
   <g id="line2d_68">
    <path d="M 458.997187 264.689663 
L 464.730276 264.902741 
L 470.463364 264.879065 
L 476.196452 265.281545 
L 481.92954 265.873428 
L 487.662629 265.826077 
L 493.395717 265.873428 
L 499.128805 265.849753 
L 504.861893 264.808039 
" clip-path="url(#p1809d103c1)" style="fill: none; stroke-dasharray: 4.44,1.92; stroke-dashoffset: 0; stroke: #7f7f7f; stroke-opacity: 0.9; stroke-width: 1.2"/>
   </g>
   <g id="patch_10">
    <path d="M 458.997187 278.389375 
L 458.997187 21.789375 
" style="fill: none; stroke: #cccccc; stroke-width: 0.8; stroke-linejoin: miter; stroke-linecap: square"/>
   </g>
   <g id="patch_11">
    <path d="M 848.847187 278.389375 
L 848.847187 21.789375 
" style="fill: none; stroke: #cccccc; stroke-width: 0.8; stroke-linejoin: miter; stroke-linecap: square"/>
   </g>
   <g id="patch_12">
    <path d="M 458.997187 278.389375 
L 848.847187 278.389375 
" style="fill: none; stroke: #cccccc; stroke-width: 0.8; stroke-linejoin: miter; stroke-linecap: square"/>
   </g>
   <g id="patch_13">
    <path d="M 458.997187 21.789375 
L 848.847187 21.789375 
" style="fill: none; stroke: #cccccc; stroke-width: 0.8; stroke-linejoin: miter; stroke-linecap: square"/>
   </g>
   <g id="text_38">
    <!-- APX1225 — PC2 1 core -->
    <g style="fill: #262626" transform="translate(589.2225 15.789375) scale(0.12 -0.12)">
     <use xlink:href="#ArialMT-41"/>
     <use xlink:href="#ArialMT-50" transform="translate(66.699219 0)"/>
     <use xlink:href="#ArialMT-58" transform="translate(133.398438 0)"/>
     <use xlink:href="#ArialMT-31" transform="translate(200.097656 0)"/>
     <use xlink:href="#ArialMT-32" transform="translate(255.712891 0)"/>
     <use xlink:href="#ArialMT-32" transform="translate(311.328125 0)"/>
     <use xlink:href="#ArialMT-35" transform="translate(366.943359 0)"/>
     <use xlink:href="#ArialMT-20" transform="translate(422.558594 0)"/>
     <use xlink:href="#ArialMT-2014" transform="translate(450.341797 0)"/>
     <use xlink:href="#ArialMT-20" transform="translate(550.341797 0)"/>
     <use xlink:href="#ArialMT-50" transform="translate(578.125 0)"/>
     <use xlink:href="#ArialMT-43" transform="translate(644.824219 0)"/>
     <use xlink:href="#ArialMT-32" transform="translate(717.041016 0)"/>
     <use xlink:href="#ArialMT-20" transform="translate(772.65625 0)"/>
     <use xlink:href="#ArialMT-31" transform="translate(800.439453 0)"/>
     <use xlink:href="#ArialMT-20" transform="translate(856.054688 0)"/>
     <use xlink:href="#ArialMT-63" transform="translate(883.837891 0)"/>
     <use xlink:href="#ArialMT-6f" transform="translate(933.837891 0)"/>
     <use xlink:href="#ArialMT-72" transform="translate(989.453125 0)"/>
     <use xlink:href="#ArialMT-65" transform="translate(1022.753906 0)"/>
    </g>
   </g>
   <g id="legend_3">
    <g id="patch_14">
     <path d="M 732.122187 85.685156 
L 843.247187 85.685156 
Q 844.847188 85.685156 844.847188 84.085156 
L 844.847188 27.389375 
Q 844.847188 25.789375 843.247187 25.789375 
L 732.122187 25.789375 
Q 730.522187 25.789375 730.522187 27.389375 
L 730.522187 84.085156 
Q 730.522187 85.685156 732.122187 85.685156 
z
" style="fill: #ffffff; opacity: 0.8; stroke: #cccccc; stroke-linejoin: miter"/>
    </g>
    <g id="text_39">
     <!-- CPU -->
     <g style="fill: #262626" transform="translate(778.183359 35.431406) scale(0.09 -0.09)">
      <use xlink:href="#ArialMT-43"/>
      <use xlink:href="#ArialMT-50" transform="translate(72.216797 0)"/>
      <use xlink:href="#ArialMT-55" transform="translate(138.916016 0)"/>
     </g>
    </g>
    <g id="line2d_69">
     <path d="M 733.722188 44.146406 
L 741.722188 44.146406 
L 749.722188 44.146406 
" style="fill: none; stroke: #1f77b4; stroke-width: 2; stroke-linecap: round"/>
    </g>
    <g id="text_40">
     <!-- CPU 0 -->
     <g style="fill: #262626" transform="translate(756.122187 46.946406) scale(0.08 -0.08)">
      <use xlink:href="#ArialMT-43"/>
      <use xlink:href="#ArialMT-50" transform="translate(72.216797 0)"/>
      <use xlink:href="#ArialMT-55" transform="translate(138.916016 0)"/>
      <use xlink:href="#ArialMT-20" transform="translate(211.132812 0)"/>
      <use xlink:href="#ArialMT-30" transform="translate(238.916016 0)"/>
     </g>
    </g>
    <g id="line2d_70">
     <path d="M 733.722188 55.462656 
L 741.722188 55.462656 
L 749.722188 55.462656 
" style="fill: none; stroke: #ff7f0e; stroke-width: 2; stroke-linecap: round"/>
    </g>
    <g id="text_41">
     <!-- CPU 1 -->
     <g style="fill: #262626" transform="translate(756.122187 58.262656) scale(0.08 -0.08)">
      <use xlink:href="#ArialMT-43"/>
      <use xlink:href="#ArialMT-50" transform="translate(72.216797 0)"/>
      <use xlink:href="#ArialMT-55" transform="translate(138.916016 0)"/>
      <use xlink:href="#ArialMT-20" transform="translate(211.132812 0)"/>
      <use xlink:href="#ArialMT-31" transform="translate(238.916016 0)"/>
     </g>
    </g>
    <g id="line2d_71">
     <path d="M 733.722188 66.778906 
L 741.722188 66.778906 
L 749.722188 66.778906 
" style="fill: none; stroke: #2ca02c; stroke-width: 2; stroke-linecap: round"/>
    </g>
    <g id="text_42">
     <!-- CPU 2 -->
     <g style="fill: #262626" transform="translate(756.122187 69.578906) scale(0.08 -0.08)">
      <use xlink:href="#ArialMT-43"/>
      <use xlink:href="#ArialMT-50" transform="translate(72.216797 0)"/>
      <use xlink:href="#ArialMT-55" transform="translate(138.916016 0)"/>
      <use xlink:href="#ArialMT-20" transform="translate(211.132812 0)"/>
      <use xlink:href="#ArialMT-32" transform="translate(238.916016 0)"/>
     </g>
    </g>
    <g id="line2d_72">
     <path d="M 733.722188 78.095156 
L 741.722188 78.095156 
L 749.722188 78.095156 
" style="fill: none; stroke: #d62728; stroke-width: 2; stroke-linecap: round"/>
    </g>
    <g id="text_43">
     <!-- CPU 3 -->
     <g style="fill: #262626" transform="translate(756.122187 80.895156) scale(0.08 -0.08)">
      <use xlink:href="#ArialMT-43"/>
      <use xlink:href="#ArialMT-50" transform="translate(72.216797 0)"/>
      <use xlink:href="#ArialMT-55" transform="translate(138.916016 0)"/>
      <use xlink:href="#ArialMT-20" transform="translate(211.132812 0)"/>
      <use xlink:href="#ArialMT-33" transform="translate(238.916016 0)"/>
     </g>
    </g>
    <g id="line2d_73">
     <path d="M 795.684687 44.146406 
L 803.684687 44.146406 
L 811.684687 44.146406 
" style="fill: none; stroke: #9467bd; stroke-width: 2; stroke-linecap: round"/>
    </g>
    <g id="text_44">
     <!-- CPU 4 -->
     <g style="fill: #262626" transform="translate(818.084687 46.946406) scale(0.08 -0.08)">
      <use xlink:href="#ArialMT-43"/>
      <use xlink:href="#ArialMT-50" transform="translate(72.216797 0)"/>
      <use xlink:href="#ArialMT-55" transform="translate(138.916016 0)"/>
      <use xlink:href="#ArialMT-20" transform="translate(211.132812 0)"/>
      <use xlink:href="#ArialMT-34" transform="translate(238.916016 0)"/>
     </g>
    </g>
    <g id="line2d_74">
     <path d="M 795.684687 55.462656 
L 803.684687 55.462656 
L 811.684687 55.462656 
" style="fill: none; stroke: #8c564b; stroke-width: 2; stroke-linecap: round"/>
    </g>
    <g id="text_45">
     <!-- CPU 5 -->
     <g style="fill: #262626" transform="translate(818.084687 58.262656) scale(0.08 -0.08)">
      <use xlink:href="#ArialMT-43"/>
      <use xlink:href="#ArialMT-50" transform="translate(72.216797 0)"/>
      <use xlink:href="#ArialMT-55" transform="translate(138.916016 0)"/>
      <use xlink:href="#ArialMT-20" transform="translate(211.132812 0)"/>
      <use xlink:href="#ArialMT-35" transform="translate(238.916016 0)"/>
     </g>
    </g>
    <g id="line2d_75">
     <path d="M 795.684687 66.778906 
L 803.684687 66.778906 
L 811.684687 66.778906 
" style="fill: none; stroke: #e377c2; stroke-width: 2; stroke-linecap: round"/>
    </g>
    <g id="text_46">
     <!-- CPU 6 -->
     <g style="fill: #262626" transform="translate(818.084687 69.578906) scale(0.08 -0.08)">
      <use xlink:href="#ArialMT-43"/>
      <use xlink:href="#ArialMT-50" transform="translate(72.216797 0)"/>
      <use xlink:href="#ArialMT-55" transform="translate(138.916016 0)"/>
      <use xlink:href="#ArialMT-20" transform="translate(211.132812 0)"/>
      <use xlink:href="#ArialMT-36" transform="translate(238.916016 0)"/>
     </g>
    </g>
    <g id="line2d_76">
     <path d="M 795.684687 78.095156 
L 803.684687 78.095156 
L 811.684687 78.095156 
" style="fill: none; stroke: #7f7f7f; stroke-width: 2; stroke-linecap: round"/>
    </g>
    <g id="text_47">
     <!-- CPU 7 -->
     <g style="fill: #262626" transform="translate(818.084687 80.895156) scale(0.08 -0.08)">
      <use xlink:href="#ArialMT-43"/>
      <use xlink:href="#ArialMT-50" transform="translate(72.216797 0)"/>
      <use xlink:href="#ArialMT-55" transform="translate(138.916016 0)"/>
      <use xlink:href="#ArialMT-20" transform="translate(211.132812 0)"/>
      <use xlink:href="#ArialMT-37" transform="translate(238.916016 0)"/>
     </g>
    </g>
   </g>
   <g id="legend_4">
    <g id="patch_15">
     <path d="M 464.597187 63.240156 
L 515.543437 63.240156 
Q 517.143437 63.240156 517.143437 61.640156 
L 517.143437 27.389375 
Q 517.143437 25.789375 515.543437 25.789375 
L 464.597187 25.789375 
Q 462.997187 25.789375 462.997187 27.389375 
L 462.997187 61.640156 
Q 462.997187 63.240156 464.597187 63.240156 
z
" style="fill: #ffffff; opacity: 0.8; stroke: #cccccc; stroke-linejoin: miter"/>
    </g>
    <g id="text_48">
     <!-- Variant -->
     <g style="fill: #262626" transform="translate(476.144922 35.431406) scale(0.09 -0.09)">
      <use xlink:href="#ArialMT-56"/>
      <use xlink:href="#ArialMT-61" transform="translate(59.324219 0)"/>
      <use xlink:href="#ArialMT-72" transform="translate(114.939453 0)"/>
      <use xlink:href="#ArialMT-69" transform="translate(148.240234 0)"/>
      <use xlink:href="#ArialMT-61" transform="translate(170.457031 0)"/>
      <use xlink:href="#ArialMT-6e" transform="translate(226.072266 0)"/>
      <use xlink:href="#ArialMT-74" transform="translate(281.6875 0)"/>
     </g>
    </g>
    <g id="line2d_77">
     <path d="M 466.197187 44.146406 
L 474.197187 44.146406 
L 482.197187 44.146406 
" style="fill: none; stroke: #333333; stroke-width: 2; stroke-linecap: round"/>
    </g>
    <g id="text_49">
     <!-- queryA -->
     <g style="fill: #262626" transform="translate(488.597187 46.946406) scale(0.08 -0.08)">
      <use xlink:href="#ArialMT-71"/>
      <use xlink:href="#ArialMT-75" transform="translate(55.615234 0)"/>
      <use xlink:href="#ArialMT-65" transform="translate(111.230469 0)"/>
      <use xlink:href="#ArialMT-72" transform="translate(166.845703 0)"/>
      <use xlink:href="#ArialMT-79" transform="translate(200.146484 0)"/>
      <use xlink:href="#ArialMT-41" transform="translate(250.146484 0)"/>
     </g>
    </g>
    <g id="line2d_78">
     <path d="M 466.197187 55.556406 
L 474.197187 55.556406 
L 482.197187 55.556406 
" style="fill: none; stroke-dasharray: 7.4,3.2; stroke-dashoffset: 0; stroke: #333333; stroke-width: 2"/>
    </g>
    <g id="text_50">
     <!-- queryB -->
     <g style="fill: #262626" transform="translate(488.597187 58.356406) scale(0.08 -0.08)">
      <use xlink:href="#ArialMT-71"/>
      <use xlink:href="#ArialMT-75" transform="translate(55.615234 0)"/>
      <use xlink:href="#ArialMT-65" transform="translate(111.230469 0)"/>
      <use xlink:href="#ArialMT-72" transform="translate(166.845703 0)"/>
      <use xlink:href="#ArialMT-79" transform="translate(200.146484 0)"/>
      <use xlink:href="#ArialMT-42" transform="translate(250.146484 0)"/>
     </g>
    </g>
   </g>
  </g>
 </g>
 <defs>
  <clipPath id="p90637e1578">
   <rect x="44.267188" y="21.789375" width="389.85" height="256.6"/>
  </clipPath>
  <clipPath id="p1809d103c1">
   <rect x="458.997187" y="21.789375" width="389.85" height="256.6"/>
  </clipPath>
 </defs>
</svg>
