<?xml version="1.0" encoding="utf-8" standalone="no"?>
<!DOCTYPE svg PUBLIC "-//W3C//DTD SVG 1.1//EN"
  "http://www.w3.org/Graphics/SVG/1.1/DTD/svg11.dtd">
<svg xmlns:xlink="http://www.w3.org/1999/xlink" width="855.860937pt" height="279.119063pt" viewBox="0 0 855.860937 279.119063" xmlns="http://www.w3.org/2000/svg" version="1.1">
 <metadata>
  <rdf:RDF xmlns:dc="http://purl.org/dc/elements/1.1/" xmlns:cc="http://creativecommons.org/ns#" xmlns:rdf="http://www.w3.org/1999/02/22-rdf-syntax-ns#">
   <cc:Work>
    <dc:type rdf:resource="http://purl.org/dc/dcmitype/StillImage"/>
    <dc:date>2026-05-26T16:50:34.356514</dc:date>
    <dc:format>image/svg+xml</dc:format>
    <dc:creator>
     <cc:Agent>
      <dc:title>Matplotlib v3.10.1, https://matplotlib.org/</dc:title>
     </cc:Agent>
    </dc:creator>
   </cc:Work>
  </rdf:RDF>
 </metadata>
 <defs>
  <style type="text/css">*{stroke-linejoin: round; stroke-linecap: butt}</style>
 </defs>
 <g id="figure_1">
  <g id="patch_1">
   <path d="M 0 279.119063 
L 855.860937 279.119063 
L 855.860937 0 
L 0 0 
z
" style="fill: #ffffff"/>
  </g>
  <g id="axes_1">
   <g id="patch_2">
    <path d="M 41.392188 242.389375 
L 432.535937 242.389375 
L 432.535937 21.789375 
L 41.392188 21.789375 
z
" style="fill: #ffffff"/>
   </g>
   <g id="matplotlib.axis_1">
    <g id="xtick_1">
     <g id="line2d_1">
      <path d="M 41.392188 242.389375 
L 41.392188 21.789375 
" clip-path="url(#pd739e72560)" style="fill: none; stroke: #cccccc; stroke-opacity: 0.3; stroke-width: 0.8; stroke-linecap: round"/>
     </g>
     <g id="text_1">
      <!-- 0 -->
      <g style="fill: #262626" transform="translate(38.611719 256.547188) scale(0.1 -0.1)">
       <defs>
        <path id="ArialMT-30" d="M 266 2259 
Q 266 3072 433 3567 
Q 600 4063 929 4331 
Q 1259 4600 1759 4600 
Q 2128 4600 2406 4451 
Q 2684 4303 2865 4023 
Q 3047 3744 3150 3342 
Q 3253 2941 3253 2259 
Q 3253 1453 3087 958 
Q 2922 463 2592 192 
Q 2263 -78 1759 -78 
Q 1097 -78 719 397 
Q 266 969 266 2259 
z
M 844 2259 
Q 844 1131 1108 757 
Q 1372 384 1759 384 
Q 2147 384 2411 759 
Q 2675 1134 2675 2259 
Q 2675 3391 2411 3762 
Q 2147 4134 1753 4134 
Q 1366 4134 1134 3806 
Q 844 3388 844 2259 
z
" transform="scale(0.015625)"/>
       </defs>
       <use xlink:href="#ArialMT-30"/>
      </g>
     </g>
    </g>
    <g id="xtick_2">
     <g id="line2d_2">
      <path d="M 92.85847 242.389375 
L 92.85847 21.789375 
" clip-path="url(#pd739e72560)" style="fill: none; stroke: #cccccc; stroke-opacity: 0.3; stroke-width: 0.8; stroke-linecap: round"/>
     </g>
     <g id="text_2">
      <!-- 20 -->
      <g style="fill: #262626" transform="translate(87.297533 256.547188) scale(0.1 -0.1)">
       <defs>
        <path id="ArialMT-32" d="M 3222 541 
L 3222 0 
L 194 0 
Q 188 203 259 391 
Q 375 700 629 1000 
Q 884 1300 1366 1694 
Q 2113 2306 2375 2664 
Q 2638 3022 2638 3341 
Q 2638 3675 2398 3904 
Q 2159 4134 1775 4134 
Q 1369 4134 1125 3890 
Q 881 3647 878 3216 
L 300 3275 
Q 359 3922 746 4261 
Q 1134 4600 1788 4600 
Q 2447 4600 2831 4234 
Q 3216 3869 3216 3328 
Q 3216 3053 3103 2787 
Q 2991 2522 2730 2228 
Q 2469 1934 1863 1422 
Q 1356 997 1212 845 
Q 1069 694 975 541 
L 3222 541 
z
" transform="scale(0.015625)"/>
       </defs>
       <use xlink:href="#ArialMT-32"/>
       <use xlink:href="#ArialMT-30" transform="translate(55.615234 0)"/>
      </g>
     </g>
    </g>
    <g id="xtick_3">
     <g id="line2d_3">
      <path d="M 144.324753 242.389375 
L 144.324753 21.789375 
" clip-path="url(#pd739e72560)" style="fill: none; stroke: #cccccc; stroke-opacity: 0.3; stroke-width: 0.8; stroke-linecap: round"/>
     </g>
     <g id="text_3">
      <!-- 40 -->
      <g style="fill: #262626" transform="translate(138.763816 256.547188) scale(0.1 -0.1)">
       <defs>
        <path id="ArialMT-34" d="M 2069 0 
L 2069 1097 
L 81 1097 
L 81 1613 
L 2172 4581 
L 2631 4581 
L 2631 1613 
L 3250 1613 
L 3250 1097 
L 2631 1097 
L 2631 0 
L 2069 0 
z
M 2069 1613 
L 2069 3678 
L 634 1613 
L 2069 1613 
z
" transform="scale(0.015625)"/>
       </defs>
       <use xlink:href="#ArialMT-34"/>
       <use xlink:href="#ArialMT-30" transform="translate(55.615234 0)"/>
      </g>
     </g>
    </g>
    <g id="xtick_4">
     <g id="line2d_4">
      <path d="M 195.791036 242.389375 
L 195.791036 21.789375 
" clip-path="url(#pd739e72560)" style="fill: none; stroke: #cccccc; stroke-opacity: 0.3; stroke-width: 0.8; stroke-linecap: round"/>
     </g>
     <g id="text_4">
      <!-- 60 -->
      <g style="fill: #262626" transform="translate(190.230099 256.547188) scale(0.1 -0.1)">
       <defs>
        <path id="ArialMT-36" d="M 3184 3459 
L 2625 3416 
Q 2550 3747 2413 3897 
Q 2184 4138 1850 4138 
Q 1581 4138 1378 3988 
Q 1113 3794 959 3422 
Q 806 3050 800 2363 
Q 1003 2672 1297 2822 
Q 1591 2972 1913 2972 
Q 2475 2972 2870 2558 
Q 3266 2144 3266 1488 
Q 3266 1056 3080 686 
Q 2894 316 2569 119 
Q 2244 -78 1831 -78 
Q 1128 -78 684 439 
Q 241 956 241 2144 
Q 241 3472 731 4075 
Q 1159 4600 1884 4600 
Q 2425 4600 2770 4297 
Q 3116 3994 3184 3459 
z
M 888 1484 
Q 888 1194 1011 928 
Q 1134 663 1356 523 
Q 1578 384 1822 384 
Q 2178 384 2434 671 
Q 2691 959 2691 1453 
Q 2691 1928 2437 2201 
Q 2184 2475 1800 2475 
Q 1419 2475 1153 2201 
Q 888 1928 888 1484 
z
" transform="scale(0.015625)"/>
       </defs>
       <use xlink:href="#ArialMT-36"/>
       <use xlink:href="#ArialMT-30" transform="translate(55.615234 0)"/>
      </g>
     </g>
    </g>
    <g id="xtick_5">
     <g id="line2d_5">
      <path d="M 247.257319 242.389375 
L 247.257319 21.789375 
" clip-path="url(#pd739e72560)" style="fill: none; stroke: #cccccc; stroke-opacity: 0.3; stroke-width: 0.8; stroke-linecap: round"/>
     </g>
     <g id="text_5">
      <!-- 80 -->
      <g style="fill: #262626" transform="translate(241.696382 256.547188) scale(0.1 -0.1)">
       <defs>
        <path id="ArialMT-38" d="M 1131 2484 
Q 781 2613 612 2850 
Q 444 3088 444 3419 
Q 444 3919 803 4259 
Q 1163 4600 1759 4600 
Q 2359 4600 2725 4251 
Q 3091 3903 3091 3403 
Q 3091 3084 2923 2848 
Q 2756 2613 2416 2484 
Q 2838 2347 3058 2040 
Q 3278 1734 3278 1309 
Q 3278 722 2862 322 
Q 2447 -78 1769 -78 
Q 1091 -78 675 323 
Q 259 725 259 1325 
Q 259 1772 486 2073 
Q 713 2375 1131 2484 
z
M 1019 3438 
Q 1019 3113 1228 2906 
Q 1438 2700 1772 2700 
Q 2097 2700 2305 2904 
Q 2513 3109 2513 3406 
Q 2513 3716 2298 3927 
Q 2084 4138 1766 4138 
Q 1444 4138 1231 3931 
Q 1019 3725 1019 3438 
z
M 838 1322 
Q 838 1081 952 856 
Q 1066 631 1291 507 
Q 1516 384 1775 384 
Q 2178 384 2440 643 
Q 2703 903 2703 1303 
Q 2703 1709 2433 1975 
Q 2163 2241 1756 2241 
Q 1359 2241 1098 1978 
Q 838 1716 838 1322 
z
" transform="scale(0.015625)"/>
       </defs>
       <use xlink:href="#ArialMT-38"/>
       <use xlink:href="#ArialMT-30" transform="translate(55.615234 0)"/>
      </g>
     </g>
    </g>
    <g id="xtick_6">
     <g id="line2d_6">
      <path d="M 298.723602 242.389375 
L 298.723602 21.789375 
" clip-path="url(#pd739e72560)" style="fill: none; stroke: #cccccc; stroke-opacity: 0.3; stroke-width: 0.8; stroke-linecap: round"/>
     </g>
     <g id="text_6">
      <!-- 100 -->
      <g style="fill: #262626" transform="translate(290.382196 256.547188) scale(0.1 -0.1)">
       <defs>
        <path id="ArialMT-31" d="M 2384 0 
L 1822 0 
L 1822 3584 
Q 1619 3391 1289 3197 
Q 959 3003 697 2906 
L 697 3450 
Q 1169 3672 1522 3987 
Q 1875 4303 2022 4600 
L 2384 4600 
L 2384 0 
z
" transform="scale(0.015625)"/>
       </defs>
       <use xlink:href="#ArialMT-31"/>
       <use xlink:href="#ArialMT-30" transform="translate(55.615234 0)"/>
       <use xlink:href="#ArialMT-30" transform="translate(111.230469 0)"/>
      </g>
     </g>
    </g>
    <g id="xtick_7">
     <g id="line2d_7">
      <path d="M 350.189885 242.389375 
L 350.189885 21.789375 
" clip-path="url(#pd739e72560)" style="fill: none; stroke: #cccccc; stroke-opacity: 0.3; stroke-width: 0.8; stroke-linecap: round"/>
     </g>
     <g id="text_7">
      <!-- 120 -->
      <g style="fill: #262626" transform="translate(341.848479 256.547188) scale(0.1 -0.1)">
       <use xlink:href="#ArialMT-31"/>
       <use xlink:href="#ArialMT-32" transform="translate(55.615234 0)"/>
       <use xlink:href="#ArialMT-30" transform="translate(111.230469 0)"/>
      </g>
     </g>
    </g>
    <g id="xtick_8">
     <g id="line2d_8">
      <path d="M 401.656168 242.389375 
L 401.656168 21.789375 
" clip-path="url(#pd739e72560)" style="fill: none; stroke: #cccccc; stroke-opacity: 0.3; stroke-width: 0.8; stroke-linecap: round"/>
     </g>
     <g id="text_8">
      <!-- 140 -->
      <g style="fill: #262626" transform="translate(393.314762 256.547188) scale(0.1 -0.1)">
       <use xlink:href="#ArialMT-31"/>
       <use xlink:href="#ArialMT-34" transform="translate(55.615234 0)"/>
       <use xlink:href="#ArialMT-30" transform="translate(111.230469 0)"/>
      </g>
     </g>
    </g>
    <g id="text_9">
     <!-- Elapsed Time (sec) -->
     <g style="fill: #262626" transform="translate(194.172656 269.814375) scale(0.1 -0.1)">
      <defs>
       <path id="ArialMT-45" d="M 506 0 
L 506 4581 
L 3819 4581 
L 3819 4041 
L 1113 4041 
L 1113 2638 
L 3647 2638 
L 3647 2100 
L 1113 2100 
L 1113 541 
L 3925 541 
L 3925 0 
L 506 0 
z
" transform="scale(0.015625)"/>
       <path id="ArialMT-6c" d="M 409 0 
L 409 4581 
L 972 4581 
L 972 0 
L 409 0 
z
" transform="scale(0.015625)"/>
       <path id="ArialMT-61" d="M 2588 409 
Q 2275 144 1986 34 
Q 1697 -75 1366 -75 
Q 819 -75 525 192 
Q 231 459 231 875 
Q 231 1119 342 1320 
Q 453 1522 633 1644 
Q 813 1766 1038 1828 
Q 1203 1872 1538 1913 
Q 2219 1994 2541 2106 
Q 2544 2222 2544 2253 
Q 2544 2597 2384 2738 
Q 2169 2928 1744 2928 
Q 1347 2928 1158 2789 
Q 969 2650 878 2297 
L 328 2372 
Q 403 2725 575 2942 
Q 747 3159 1072 3276 
Q 1397 3394 1825 3394 
Q 2250 3394 2515 3294 
Q 2781 3194 2906 3042 
Q 3031 2891 3081 2659 
Q 3109 2516 3109 2141 
L 3109 1391 
Q 3109 606 3145 398 
Q 3181 191 3288 0 
L 2700 0 
Q 2613 175 2588 409 
z
M 2541 1666 
Q 2234 1541 1622 1453 
Q 1275 1403 1131 1340 
Q 988 1278 909 1158 
Q 831 1038 831 891 
Q 831 666 1001 516 
Q 1172 366 1500 366 
Q 1825 366 2078 508 
Q 2331 650 2450 897 
Q 2541 1088 2541 1459 
L 2541 1666 
z
" transform="scale(0.015625)"/>
       <path id="ArialMT-70" d="M 422 -1272 
L 422 3319 
L 934 3319 
L 934 2888 
Q 1116 3141 1344 3267 
Q 1572 3394 1897 3394 
Q 2322 3394 2647 3175 
Q 2972 2956 3137 2557 
Q 3303 2159 3303 1684 
Q 3303 1175 3120 767 
Q 2938 359 2589 142 
Q 2241 -75 1856 -75 
Q 1575 -75 1351 44 
Q 1128 163 984 344 
L 984 -1272 
L 422 -1272 
z
M 931 1641 
Q 931 1000 1190 694 
Q 1450 388 1819 388 
Q 2194 388 2461 705 
Q 2728 1022 2728 1688 
Q 2728 2322 2467 2637 
Q 2206 2953 1844 2953 
Q 1484 2953 1207 2617 
Q 931 2281 931 1641 
z
" transform="scale(0.015625)"/>
       <path id="ArialMT-73" d="M 197 991 
L 753 1078 
Q 800 744 1014 566 
Q 1228 388 1613 388 
Q 2000 388 2187 545 
Q 2375 703 2375 916 
Q 2375 1106 2209 1216 
Q 2094 1291 1634 1406 
Q 1016 1563 777 1677 
Q 538 1791 414 1992 
Q 291 2194 291 2438 
Q 291 2659 392 2848 
Q 494 3038 669 3163 
Q 800 3259 1026 3326 
Q 1253 3394 1513 3394 
Q 1903 3394 2198 3281 
Q 2494 3169 2634 2976 
Q 2775 2784 2828 2463 
L 2278 2388 
Q 2241 2644 2061 2787 
Q 1881 2931 1553 2931 
Q 1166 2931 1000 2803 
Q 834 2675 834 2503 
Q 834 2394 903 2306 
Q 972 2216 1119 2156 
Q 1203 2125 1616 2013 
Q 2213 1853 2448 1751 
Q 2684 1650 2818 1456 
Q 2953 1263 2953 975 
Q 2953 694 2789 445 
Q 2625 197 2315 61 
Q 2006 -75 1616 -75 
Q 969 -75 630 194 
Q 291 463 197 991 
z
" transform="scale(0.015625)"/>
       <path id="ArialMT-65" d="M 2694 1069 
L 3275 997 
Q 3138 488 2766 206 
Q 2394 -75 1816 -75 
Q 1088 -75 661 373 
Q 234 822 234 1631 
Q 234 2469 665 2931 
Q 1097 3394 1784 3394 
Q 2450 3394 2872 2941 
Q 3294 2488 3294 1666 
Q 3294 1616 3291 1516 
L 816 1516 
Q 847 969 1125 678 
Q 1403 388 1819 388 
Q 2128 388 2347 550 
Q 2566 713 2694 1069 
z
M 847 1978 
L 2700 1978 
Q 2663 2397 2488 2606 
Q 2219 2931 1791 2931 
Q 1403 2931 1139 2672 
Q 875 2413 847 1978 
z
" transform="scale(0.015625)"/>
       <path id="ArialMT-64" d="M 2575 0 
L 2575 419 
Q 2259 -75 1647 -75 
Q 1250 -75 917 144 
Q 584 363 401 755 
Q 219 1147 219 1656 
Q 219 2153 384 2558 
Q 550 2963 881 3178 
Q 1213 3394 1622 3394 
Q 1922 3394 2156 3267 
Q 2391 3141 2538 2938 
L 2538 4581 
L 3097 4581 
L 3097 0 
L 2575 0 
z
M 797 1656 
Q 797 1019 1065 703 
Q 1334 388 1700 388 
Q 2069 388 2326 689 
Q 2584 991 2584 1609 
Q 2584 2291 2321 2609 
Q 2059 2928 1675 2928 
Q 1300 2928 1048 2622 
Q 797 2316 797 1656 
z
" transform="scale(0.015625)"/>
       <path id="ArialMT-20" transform="scale(0.015625)"/>
       <path id="ArialMT-54" d="M 1659 0 
L 1659 4041 
L 150 4041 
L 150 4581 
L 3781 4581 
L 3781 4041 
L 2266 4041 
L 2266 0 
L 1659 0 
z
" transform="scale(0.015625)"/>
       <path id="ArialMT-69" d="M 425 3934 
L 425 4581 
L 988 4581 
L 988 3934 
L 425 3934 
z
M 425 0 
L 425 3319 
L 988 3319 
L 988 0 
L 425 0 
z
" transform="scale(0.015625)"/>
       <path id="ArialMT-6d" d="M 422 0 
L 422 3319 
L 925 3319 
L 925 2853 
Q 1081 3097 1340 3245 
Q 1600 3394 1931 3394 
Q 2300 3394 2536 3241 
Q 2772 3088 2869 2813 
Q 3263 3394 3894 3394 
Q 4388 3394 4653 3120 
Q 4919 2847 4919 2278 
L 4919 0 
L 4359 0 
L 4359 2091 
Q 4359 2428 4304 2576 
Q 4250 2725 4106 2815 
Q 3963 2906 3769 2906 
Q 3419 2906 3187 2673 
Q 2956 2441 2956 1928 
L 2956 0 
L 2394 0 
L 2394 2156 
Q 2394 2531 2256 2718 
Q 2119 2906 1806 2906 
Q 1569 2906 1367 2781 
Q 1166 2656 1075 2415 
Q 984 2175 984 1722 
L 984 0 
L 422 0 
z
" transform="scale(0.015625)"/>
       <path id="ArialMT-28" d="M 1497 -1347 
Q 1031 -759 709 28 
Q 388 816 388 1659 
Q 388 2403 628 3084 
Q 909 3875 1497 4659 
L 1900 4659 
Q 1522 4009 1400 3731 
Q 1209 3300 1100 2831 
Q 966 2247 966 1656 
Q 966 153 1900 -1347 
L 1497 -1347 
z
" transform="scale(0.015625)"/>
       <path id="ArialMT-63" d="M 2588 1216 
L 3141 1144 
Q 3050 572 2676 248 
Q 2303 -75 1759 -75 
Q 1078 -75 664 370 
Q 250 816 250 1647 
Q 250 2184 428 2587 
Q 606 2991 970 3192 
Q 1334 3394 1763 3394 
Q 2303 3394 2647 3120 
Q 2991 2847 3088 2344 
L 2541 2259 
Q 2463 2594 2264 2762 
Q 2066 2931 1784 2931 
Q 1359 2931 1093 2626 
Q 828 2322 828 1663 
Q 828 994 1084 691 
Q 1341 388 1753 388 
Q 2084 388 2306 591 
Q 2528 794 2588 1216 
z
" transform="scale(0.015625)"/>
       <path id="ArialMT-29" d="M 791 -1347 
L 388 -1347 
Q 1322 153 1322 1656 
Q 1322 2244 1188 2822 
Q 1081 3291 891 3722 
Q 769 4003 388 4659 
L 791 4659 
Q 1378 3875 1659 3084 
Q 1900 2403 1900 1659 
Q 1900 816 1576 28 
Q 1253 -759 791 -1347 
z
" transform="scale(0.015625)"/>
      </defs>
      <use xlink:href="#ArialMT-45"/>
      <use xlink:href="#ArialMT-6c" transform="translate(66.699219 0)"/>
      <use xlink:href="#ArialMT-61" transform="translate(88.916016 0)"/>
      <use xlink:href="#ArialMT-70" transform="translate(144.53125 0)"/>
      <use xlink:href="#ArialMT-73" transform="translate(200.146484 0)"/>
      <use xlink:href="#ArialMT-65" transform="translate(250.146484 0)"/>
      <use xlink:href="#ArialMT-64" transform="translate(305.761719 0)"/>
      <use xlink:href="#ArialMT-20" transform="translate(361.376953 0)"/>
      <use xlink:href="#ArialMT-54" transform="translate(387.410156 0)"/>
      <use xlink:href="#ArialMT-69" transform="translate(444.744141 0)"/>
      <use xlink:href="#ArialMT-6d" transform="translate(466.960938 0)"/>
      <use xlink:href="#ArialMT-65" transform="translate(550.261719 0)"/>
      <use xlink:href="#ArialMT-20" transform="translate(605.876953 0)"/>
      <use xlink:href="#ArialMT-28" transform="translate(633.660156 0)"/>
      <use xlink:href="#ArialMT-73" transform="translate(666.960938 0)"/>
      <use xlink:href="#ArialMT-65" transform="translate(716.960938 0)"/>
      <use xlink:href="#ArialMT-63" transform="translate(772.576172 0)"/>
      <use xlink:href="#ArialMT-29" transform="translate(822.576172 0)"/>
     </g>
    </g>
   </g>
   <g id="matplotlib.axis_2">
    <g id="ytick_1">
     <g id="line2d_9">
      <path d="M 41.392188 236.673054 
L 432.535937 236.673054 
" clip-path="url(#pd739e72560)" style="fill: none; stroke: #cccccc; stroke-opacity: 0.3; stroke-width: 0.8; stroke-linecap: round"/>
     </g>
     <g id="text_10">
      <!-- 0.6 -->
      <g style="fill: #262626" transform="translate(20.492188 240.25196) scale(0.1 -0.1)">
       <defs>
        <path id="ArialMT-2e" d="M 581 0 
L 581 641 
L 1222 641 
L 1222 0 
L 581 0 
z
" transform="scale(0.015625)"/>
       </defs>
       <use xlink:href="#ArialMT-30"/>
       <use xlink:href="#ArialMT-2e" transform="translate(55.615234 0)"/>
       <use xlink:href="#ArialMT-36" transform="translate(83.398438 0)"/>
      </g>
     </g>
    </g>
    <g id="ytick_2">
     <g id="line2d_10">
      <path d="M 41.392188 202.185443 
L 432.535937 202.185443 
" clip-path="url(#pd739e72560)" style="fill: none; stroke: #cccccc; stroke-opacity: 0.3; stroke-width: 0.8; stroke-linecap: round"/>
     </g>
     <g id="text_11">
      <!-- 0.7 -->
      <g style="fill: #262626" transform="translate(20.492188 205.764349) scale(0.1 -0.1)">
       <defs>
        <path id="ArialMT-37" d="M 303 3981 
L 303 4522 
L 3269 4522 
L 3269 4084 
Q 2831 3619 2401 2847 
Q 1972 2075 1738 1259 
Q 1569 684 1522 0 
L 944 0 
Q 953 541 1156 1306 
Q 1359 2072 1739 2783 
Q 2119 3494 2547 3981 
L 303 3981 
z
" transform="scale(0.015625)"/>
       </defs>
       <use xlink:href="#ArialMT-30"/>
       <use xlink:href="#ArialMT-2e" transform="translate(55.615234 0)"/>
       <use xlink:href="#ArialMT-37" transform="translate(83.398438 0)"/>
      </g>
     </g>
    </g>
    <g id="ytick_3">
     <g id="line2d_11">
      <path d="M 41.392188 167.697833 
L 432.535937 167.697833 
" clip-path="url(#pd739e72560)" style="fill: none; stroke: #cccccc; stroke-opacity: 0.3; stroke-width: 0.8; stroke-linecap: round"/>
     </g>
     <g id="text_12">
      <!-- 0.8 -->
      <g style="fill: #262626" transform="translate(20.492188 171.276739) scale(0.1 -0.1)">
       <use xlink:href="#ArialMT-30"/>
       <use xlink:href="#ArialMT-2e" transform="translate(55.615234 0)"/>
       <use xlink:href="#ArialMT-38" transform="translate(83.398438 0)"/>
      </g>
     </g>
    </g>
    <g id="ytick_4">
     <g id="line2d_12">
      <path d="M 41.392188 133.210222 
L 432.535937 133.210222 
" clip-path="url(#pd739e72560)" style="fill: none; stroke: #cccccc; stroke-opacity: 0.3; stroke-width: 0.8; stroke-linecap: round"/>
     </g>
     <g id="text_13">
      <!-- 0.9 -->
      <g style="fill: #262626" transform="translate(20.492188 136.789129) scale(0.1 -0.1)">
       <defs>
        <path id="ArialMT-39" d="M 350 1059 
L 891 1109 
Q 959 728 1153 556 
Q 1347 384 1650 384 
Q 1909 384 2104 503 
Q 2300 622 2425 820 
Q 2550 1019 2634 1356 
Q 2719 1694 2719 2044 
Q 2719 2081 2716 2156 
Q 2547 1888 2255 1720 
Q 1963 1553 1622 1553 
Q 1053 1553 659 1965 
Q 266 2378 266 3053 
Q 266 3750 677 4175 
Q 1088 4600 1706 4600 
Q 2153 4600 2523 4359 
Q 2894 4119 3086 3673 
Q 3278 3228 3278 2384 
Q 3278 1506 3087 986 
Q 2897 466 2520 194 
Q 2144 -78 1638 -78 
Q 1100 -78 759 220 
Q 419 519 350 1059 
z
M 2653 3081 
Q 2653 3566 2395 3850 
Q 2138 4134 1775 4134 
Q 1400 4134 1122 3828 
Q 844 3522 844 3034 
Q 844 2597 1108 2323 
Q 1372 2050 1759 2050 
Q 2150 2050 2401 2323 
Q 2653 2597 2653 3081 
z
" transform="scale(0.015625)"/>
       </defs>
       <use xlink:href="#ArialMT-30"/>
       <use xlink:href="#ArialMT-2e" transform="translate(55.615234 0)"/>
       <use xlink:href="#ArialMT-39" transform="translate(83.398438 0)"/>
      </g>
     </g>
    </g>
    <g id="ytick_5">
     <g id="line2d_13">
      <path d="M 41.392188 98.722612 
L 432.535937 98.722612 
" clip-path="url(#pd739e72560)" style="fill: none; stroke: #cccccc; stroke-opacity: 0.3; stroke-width: 0.8; stroke-linecap: round"/>
     </g>
     <g id="text_14">
      <!-- 1.0 -->
      <g style="fill: #262626" transform="translate(20.492188 102.301518) scale(0.1 -0.1)">
       <use xlink:href="#ArialMT-31"/>
       <use xlink:href="#ArialMT-2e" transform="translate(55.615234 0)"/>
       <use xlink:href="#ArialMT-30" transform="translate(83.398438 0)"/>
      </g>
     </g>
    </g>
    <g id="ytick_6">
     <g id="line2d_14">
      <path d="M 41.392188 64.235002 
L 432.535937 64.235002 
" clip-path="url(#pd739e72560)" style="fill: none; stroke: #cccccc; stroke-opacity: 0.3; stroke-width: 0.8; stroke-linecap: round"/>
     </g>
     <g id="text_15">
      <!-- 1.1 -->
      <g style="fill: #262626" transform="translate(20.492188 67.813908) scale(0.1 -0.1)">
       <use xlink:href="#ArialMT-31"/>
       <use xlink:href="#ArialMT-2e" transform="translate(55.615234 0)"/>
       <use xlink:href="#ArialMT-31" transform="translate(83.398438 0)"/>
      </g>
     </g>
    </g>
    <g id="ytick_7">
     <g id="line2d_15">
      <path d="M 41.392188 29.747391 
L 432.535937 29.747391 
" clip-path="url(#pd739e72560)" style="fill: none; stroke: #cccccc; stroke-opacity: 0.3; stroke-width: 0.8; stroke-linecap: round"/>
     </g>
     <g id="text_16">
      <!-- 1.2 -->
      <g style="fill: #262626" transform="translate(20.492188 33.326297) scale(0.1 -0.1)">
       <use xlink:href="#ArialMT-31"/>
       <use xlink:href="#ArialMT-2e" transform="translate(55.615234 0)"/>
       <use xlink:href="#ArialMT-32" transform="translate(83.398438 0)"/>
      </g>
     </g>
    </g>
    <g id="text_17">
     <!-- Mean pkg_j per 1s Bin -->
     <g style="fill: #262626" transform="translate(14.3875 181.837031) rotate(-90) scale(0.1 -0.1)">
      <defs>
       <path id="ArialMT-4d" d="M 475 0 
L 475 4581 
L 1388 4581 
L 2472 1338 
Q 2622 884 2691 659 
Q 2769 909 2934 1394 
L 4031 4581 
L 4847 4581 
L 4847 0 
L 4263 0 
L 4263 3834 
L 2931 0 
L 2384 0 
L 1059 3900 
L 1059 0 
L 475 0 
z
" transform="scale(0.015625)"/>
       <path id="ArialMT-6e" d="M 422 0 
L 422 3319 
L 928 3319 
L 928 2847 
Q 1294 3394 1984 3394 
Q 2284 3394 2536 3286 
Q 2788 3178 2913 3003 
Q 3038 2828 3088 2588 
Q 3119 2431 3119 2041 
L 3119 0 
L 2556 0 
L 2556 2019 
Q 2556 2363 2490 2533 
Q 2425 2703 2258 2804 
Q 2091 2906 1866 2906 
Q 1506 2906 1245 2678 
Q 984 2450 984 1813 
L 984 0 
L 422 0 
z
" transform="scale(0.015625)"/>
       <path id="ArialMT-6b" d="M 425 0 
L 425 4581 
L 988 4581 
L 988 1969 
L 2319 3319 
L 3047 3319 
L 1778 2088 
L 3175 0 
L 2481 0 
L 1384 1697 
L 988 1316 
L 988 0 
L 425 0 
z
" transform="scale(0.015625)"/>
       <path id="ArialMT-67" d="M 319 -275 
L 866 -356 
Q 900 -609 1056 -725 
Q 1266 -881 1628 -881 
Q 2019 -881 2231 -725 
Q 2444 -569 2519 -288 
Q 2563 -116 2559 434 
Q 2191 0 1641 0 
Q 956 0 581 494 
Q 206 988 206 1678 
Q 206 2153 378 2554 
Q 550 2956 876 3175 
Q 1203 3394 1644 3394 
Q 2231 3394 2613 2919 
L 2613 3319 
L 3131 3319 
L 3131 450 
Q 3131 -325 2973 -648 
Q 2816 -972 2473 -1159 
Q 2131 -1347 1631 -1347 
Q 1038 -1347 672 -1080 
Q 306 -813 319 -275 
z
M 784 1719 
Q 784 1066 1043 766 
Q 1303 466 1694 466 
Q 2081 466 2343 764 
Q 2606 1063 2606 1700 
Q 2606 2309 2336 2618 
Q 2066 2928 1684 2928 
Q 1309 2928 1046 2623 
Q 784 2319 784 1719 
z
" transform="scale(0.015625)"/>
       <path id="ArialMT-5f" d="M -97 -1272 
L -97 -866 
L 3631 -866 
L 3631 -1272 
L -97 -1272 
z
" transform="scale(0.015625)"/>
       <path id="ArialMT-6a" d="M 419 3928 
L 419 4581 
L 981 4581 
L 981 3928 
L 419 3928 
z
M -294 -1288 
L -188 -809 
Q -19 -853 78 -853 
Q 250 -853 334 -739 
Q 419 -625 419 -169 
L 419 3319 
L 981 3319 
L 981 -181 
Q 981 -794 822 -1034 
Q 619 -1347 147 -1347 
Q -81 -1347 -294 -1288 
z
" transform="scale(0.015625)"/>
       <path id="ArialMT-72" d="M 416 0 
L 416 3319 
L 922 3319 
L 922 2816 
Q 1116 3169 1280 3281 
Q 1444 3394 1641 3394 
Q 1925 3394 2219 3213 
L 2025 2691 
Q 1819 2813 1613 2813 
Q 1428 2813 1281 2702 
Q 1134 2591 1072 2394 
Q 978 2094 978 1738 
L 978 0 
L 416 0 
z
" transform="scale(0.015625)"/>
       <path id="ArialMT-42" d="M 469 0 
L 469 4581 
L 2188 4581 
Q 2713 4581 3030 4442 
Q 3347 4303 3526 4014 
Q 3706 3725 3706 3409 
Q 3706 3116 3547 2856 
Q 3388 2597 3066 2438 
Q 3481 2316 3704 2022 
Q 3928 1728 3928 1328 
Q 3928 1006 3792 729 
Q 3656 453 3456 303 
Q 3256 153 2954 76 
Q 2653 0 2216 0 
L 469 0 
z
M 1075 2656 
L 2066 2656 
Q 2469 2656 2644 2709 
Q 2875 2778 2992 2937 
Q 3109 3097 3109 3338 
Q 3109 3566 3000 3739 
Q 2891 3913 2687 3977 
Q 2484 4041 1991 4041 
L 1075 4041 
L 1075 2656 
z
M 1075 541 
L 2216 541 
Q 2509 541 2628 563 
Q 2838 600 2978 687 
Q 3119 775 3209 942 
Q 3300 1109 3300 1328 
Q 3300 1584 3169 1773 
Q 3038 1963 2805 2039 
Q 2572 2116 2134 2116 
L 1075 2116 
L 1075 541 
z
" transform="scale(0.015625)"/>
      </defs>
      <use xlink:href="#ArialMT-4d"/>
      <use xlink:href="#ArialMT-65" transform="translate(83.300781 0)"/>
      <use xlink:href="#ArialMT-61" transform="translate(138.916016 0)"/>
      <use xlink:href="#ArialMT-6e" transform="translate(194.53125 0)"/>
      <use xlink:href="#ArialMT-20" transform="translate(250.146484 0)"/>
      <use xlink:href="#ArialMT-70" transform="translate(277.929688 0)"/>
      <use xlink:href="#ArialMT-6b" transform="translate(333.544922 0)"/>
      <use xlink:href="#ArialMT-67" transform="translate(383.544922 0)"/>
      <use xlink:href="#ArialMT-5f" transform="translate(439.160156 0)"/>
      <use xlink:href="#ArialMT-6a" transform="translate(494.775391 0)"/>
      <use xlink:href="#ArialMT-20" transform="translate(516.992188 0)"/>
      <use xlink:href="#ArialMT-70" transform="translate(544.775391 0)"/>
      <use xlink:href="#ArialMT-65" transform="translate(600.390625 0)"/>
      <use xlink:href="#ArialMT-72" transform="translate(656.005859 0)"/>
      <use xlink:href="#ArialMT-20" transform="translate(689.306641 0)"/>
      <use xlink:href="#ArialMT-31" transform="translate(717.089844 0)"/>
      <use xlink:href="#ArialMT-73" transform="translate(772.705078 0)"/>
      <use xlink:href="#ArialMT-20" transform="translate(822.705078 0)"/>
      <use xlink:href="#ArialMT-42" transform="translate(850.488281 0)"/>
      <use xlink:href="#ArialMT-69" transform="translate(917.1875 0)"/>
      <use xlink:href="#ArialMT-6e" transform="translate(939.404297 0)"/>
     </g>
    </g>
   </g>
   <g id="line2d_16">
    <path d="M 41.392188 209.427841 
L 43.965502 180.113372 
L 46.538816 179.078744 
L 49.11213 180.803125 
L 51.685444 180.113372 
L 54.258758 176.664611 
L 56.832072 178.733868 
L 59.405387 179.42362 
L 61.978701 178.733868 
L 64.552015 180.803125 
L 67.125329 175.285107 
L 69.698643 176.664611 
L 72.271957 175.974859 
L 74.845271 178.044116 
L 77.418586 176.319735 
L 79.9919 174.250479 
L 82.565214 174.940231 
L 85.138528 177.009488 
L 87.711842 173.905603 
L 90.285156 173.560727 
L 92.85847 174.940231 
L 95.431785 174.250479 
L 98.005099 173.21585 
L 100.578413 173.905603 
L 103.151727 173.560727 
L 105.725041 172.526098 
L 108.298355 174.940231 
L 110.871669 173.21585 
L 113.444984 173.560727 
L 116.018298 175.361746 
L 118.591612 173.21585 
L 121.164926 171.836346 
L 123.73824 172.526098 
L 126.311554 174.250479 
L 128.884868 172.526098 
L 131.458183 172.870974 
L 134.031497 173.560727 
L 136.604811 173.560727 
L 139.178125 173.905603 
L 141.751439 172.870974 
L 149.471382 172.870974 
L 152.044696 173.21585 
L 154.61801 172.870974 
L 157.191324 173.21585 
L 159.764638 174.595355 
L 162.337952 172.870974 
L 164.911266 172.526098 
L 167.484581 173.560727 
L 170.057895 172.181222 
L 172.631209 173.560727 
L 175.204523 173.905603 
L 182.924465 171.836346 
L 185.49778 173.560727 
L 188.071094 173.560727 
L 190.644408 172.870974 
L 193.217722 173.062572 
L 195.791036 172.181222 
L 198.36435 173.905603 
L 200.937664 172.181222 
L 203.510979 173.560727 
L 206.084293 171.49147 
L 208.657607 170.801718 
L 211.230921 172.526098 
L 213.804235 173.560727 
L 216.377549 173.560727 
L 218.950863 172.870974 
L 221.524178 171.836346 
L 224.097492 172.526098 
L 226.670806 172.526098 
L 229.24412 173.905603 
L 231.817434 172.181222 
L 234.390748 171.49147 
L 236.964062 173.905603 
L 239.537377 172.526098 
L 242.110691 172.526098 
L 244.684005 173.21585 
L 247.257319 171.49147 
L 249.830633 173.21585 
L 252.403947 173.21585 
L 254.977262 172.181222 
L 257.550576 173.21585 
L 260.12389 171.836346 
L 262.697204 172.870974 
L 265.270518 172.181222 
L 267.843832 172.181222 
L 270.417146 173.905603 
L 272.990461 171.146594 
L 275.563775 172.181222 
L 278.137089 174.595355 
L 280.710403 173.21585 
L 283.283717 173.21585 
L 285.857031 170.801718 
L 288.430345 173.560727 
L 291.00366 171.836346 
L 293.576974 172.526098 
L 296.150288 173.905603 
L 298.723602 171.146594 
L 301.296916 171.49147 
L 303.87023 173.21585 
L 306.443544 171.836346 
L 309.016859 172.870974 
L 311.590173 173.560727 
L 314.163487 173.560727 
L 316.736801 172.870974 
L 319.310115 173.905603 
L 321.883429 173.905603 
L 324.456743 172.181222 
L 327.030058 173.21585 
L 329.603372 172.870974 
L 332.176686 173.21585 
L 334.75 171.146594 
L 337.323314 171.836346 
L 339.896628 173.905603 
L 342.469942 172.870974 
L 345.043257 172.870974 
L 347.616571 173.062572 
L 350.189885 170.801718 
L 352.763199 172.526098 
L 355.336513 172.526098 
L 357.909827 172.870974 
L 360.483141 172.526098 
L 363.056456 171.836346 
L 365.62977 173.21585 
L 368.203084 172.526098 
L 373.349712 173.905603 
L 378.49634 171.836346 
L 381.069655 174.250479 
L 383.642969 172.870974 
L 386.216283 173.21585 
L 388.789597 171.146594 
L 391.362911 173.560727 
L 393.936225 173.21585 
L 396.509539 173.560727 
L 399.082854 173.21585 
L 401.656168 172.181222 
L 404.229482 172.526098 
L 406.802796 177.354364 
L 406.802796 177.354364 
" clip-path="url(#pd739e72560)" style="fill: none; stroke: #1f77b4; stroke-width: 2; stroke-linecap: round"/>
   </g>
   <g id="line2d_17">
    <path d="M 41.392188 96.998231 
L 43.965502 50.095081 
L 46.538816 53.198966 
L 49.11213 61.820869 
L 51.685444 50.439957 
L 54.258758 49.405329 
L 56.832072 59.406736 
L 59.405387 47.336072 
L 61.978701 45.956568 
L 64.552015 55.957975 
L 67.125329 44.232187 
L 69.698643 42.162931 
L 72.271957 50.439957 
L 74.845271 46.64632 
L 77.418586 42.852683 
L 79.9919 45.266816 
L 82.565214 49.750205 
L 85.138528 43.197559 
L 87.711842 41.473179 
L 90.285156 51.819462 
L 92.85847 39.403922 
L 95.431785 40.093674 
L 98.005099 52.355936 
L 100.578413 39.748798 
L 103.151727 39.403922 
L 105.725041 51.474586 
L 108.298355 39.059046 
L 110.871669 39.403922 
L 113.444984 46.64632 
L 116.018298 42.852683 
L 118.591612 38.369294 
L 121.164926 42.852683 
L 123.73824 45.956568 
L 126.311554 38.71417 
L 128.884868 35.955161 
L 131.458183 46.64632 
L 134.031497 37.334665 
L 136.604811 35.610285 
L 139.178125 48.025825 
L 141.751439 35.955161 
L 144.324753 35.265409 
L 146.898067 46.991196 
L 149.471382 35.955161 
L 152.044696 36.989789 
L 154.61801 48.715577 
L 157.191324 35.495326 
L 159.764638 35.610285 
L 162.337952 42.162931 
L 164.911266 40.43855 
L 167.484581 34.575657 
L 170.057895 36.989789 
L 172.631209 44.232187 
L 175.204523 35.610285 
L 177.777837 35.265409 
L 180.351151 46.301444 
L 182.924465 34.575657 
L 185.49778 35.265409 
L 188.071094 44.577064 
L 190.644408 34.920533 
L 193.217722 34.920533 
L 195.791036 44.92194 
L 198.36435 34.23078 
L 200.937664 33.196152 
L 203.510979 42.162931 
L 206.084293 33.196152 
L 208.657607 32.5064 
L 211.230921 44.577064 
L 213.804235 33.962543 
L 216.377549 31.816648 
L 218.950863 34.575657 
L 221.524178 42.852683 
L 224.097492 32.161524 
L 226.670806 33.196152 
L 229.24412 43.542435 
L 231.817434 32.851276 
L 234.390748 47.30472 
" clip-path="url(#pd739e72560)" style="fill: none; stroke: #ff7f0e; stroke-width: 2; stroke-linecap: round"/>
   </g>
   <g id="patch_3">
    <path d="M 41.392188 242.389375 
L 41.392188 21.789375 
" style="fill: none; stroke: #cccccc; stroke-width: 0.8; stroke-linejoin: miter; stroke-linecap: square"/>
   </g>
   <g id="patch_4">
    <path d="M 432.535937 242.389375 
L 432.535937 21.789375 
" style="fill: none; stroke: #cccccc; stroke-width: 0.8; stroke-linejoin: miter; stroke-linecap: square"/>
   </g>
   <g id="patch_5">
    <path d="M 41.392188 242.389375 
L 432.535937 242.389375 
" style="fill: none; stroke: #cccccc; stroke-width: 0.8; stroke-linejoin: miter; stroke-linecap: square"/>
   </g>
   <g id="patch_6">
    <path d="M 41.392188 21.789375 
L 432.535937 21.789375 
" style="fill: none; stroke: #cccccc; stroke-width: 0.8; stroke-linejoin: miter; stroke-linecap: square"/>
   </g>
   <g id="text_18">
    <!-- APX1186 — PC1 all cores -->
    <g style="fill: #262626" transform="translate(167.040625 15.789375) scale(0.12 -0.12)">
     <defs>
      <path id="ArialMT-41" d="M -9 0 
L 1750 4581 
L 2403 4581 
L 4278 0 
L 3588 0 
L 3053 1388 
L 1138 1388 
L 634 0 
L -9 0 
z
M 1313 1881 
L 2866 1881 
L 2388 3150 
Q 2169 3728 2063 4100 
Q 1975 3659 1816 3225 
L 1313 1881 
z
" transform="scale(0.015625)"/>
      <path id="ArialMT-50" d="M 494 0 
L 494 4581 
L 2222 4581 
Q 2678 4581 2919 4538 
Q 3256 4481 3484 4323 
Q 3713 4166 3852 3881 
Q 3991 3597 3991 3256 
Q 3991 2672 3619 2267 
Q 3247 1863 2275 1863 
L 1100 1863 
L 1100 0 
L 494 0 
z
M 1100 2403 
L 2284 2403 
Q 2872 2403 3119 2622 
Q 3366 2841 3366 3238 
Q 3366 3525 3220 3729 
Q 3075 3934 2838 4000 
Q 2684 4041 2272 4041 
L 1100 4041 
L 1100 2403 
z
" transform="scale(0.015625)"/>
      <path id="ArialMT-58" d="M 28 0 
L 1800 2388 
L 238 4581 
L 959 4581 
L 1791 3406 
Q 2050 3041 2159 2844 
Q 2313 3094 2522 3366 
L 3444 4581 
L 4103 4581 
L 2494 2422 
L 4228 0 
L 3478 0 
L 2325 1634 
Q 2228 1775 2125 1941 
Q 1972 1691 1906 1597 
L 756 0 
L 28 0 
z
" transform="scale(0.015625)"/>
      <path id="ArialMT-2014" d="M 0 1431 
L 0 1884 
L 6400 1884 
L 6400 1431 
L 0 1431 
z
" transform="scale(0.015625)"/>
      <path id="ArialMT-43" d="M 3763 1606 
L 4369 1453 
Q 4178 706 3683 314 
Q 3188 -78 2472 -78 
Q 1731 -78 1267 223 
Q 803 525 561 1097 
Q 319 1669 319 2325 
Q 319 3041 592 3573 
Q 866 4106 1370 4382 
Q 1875 4659 2481 4659 
Q 3169 4659 3637 4309 
Q 4106 3959 4291 3325 
L 3694 3184 
Q 3534 3684 3231 3912 
Q 2928 4141 2469 4141 
Q 1941 4141 1586 3887 
Q 1231 3634 1087 3207 
Q 944 2781 944 2328 
Q 944 1744 1114 1308 
Q 1284 872 1643 656 
Q 2003 441 2422 441 
Q 2931 441 3284 734 
Q 3638 1028 3763 1606 
z
" transform="scale(0.015625)"/>
      <path id="ArialMT-6f" d="M 213 1659 
Q 213 2581 725 3025 
Q 1153 3394 1769 3394 
Q 2453 3394 2887 2945 
Q 3322 2497 3322 1706 
Q 3322 1066 3130 698 
Q 2938 331 2570 128 
Q 2203 -75 1769 -75 
Q 1072 -75 642 372 
Q 213 819 213 1659 
z
M 791 1659 
Q 791 1022 1069 705 
Q 1347 388 1769 388 
Q 2188 388 2466 706 
Q 2744 1025 2744 1678 
Q 2744 2294 2464 2611 
Q 2184 2928 1769 2928 
Q 1347 2928 1069 2612 
Q 791 2297 791 1659 
z
" transform="scale(0.015625)"/>
     </defs>
     <use xlink:href="#ArialMT-41"/>
     <use xlink:href="#ArialMT-50" transform="translate(66.699219 0)"/>
     <use xlink:href="#ArialMT-58" transform="translate(133.398438 0)"/>
     <use xlink:href="#ArialMT-31" transform="translate(200.097656 0)"/>
     <use xlink:href="#ArialMT-31" transform="translate(248.337891 0)"/>
     <use xlink:href="#ArialMT-38" transform="translate(303.953125 0)"/>
     <use xlink:href="#ArialMT-36" transform="translate(359.568359 0)"/>
     <use xlink:href="#ArialMT-20" transform="translate(415.183594 0)"/>
     <use xlink:href="#ArialMT-2014" transform="translate(442.966797 0)"/>
     <use xlink:href="#ArialMT-20" transform="translate(542.966797 0)"/>
     <use xlink:href="#ArialMT-50" transform="translate(570.75 0)"/>
     <use xlink:href="#ArialMT-43" transform="translate(637.449219 0)"/>
     <use xlink:href="#ArialMT-31" transform="translate(709.666016 0)"/>
     <use xlink:href="#ArialMT-20" transform="translate(765.28125 0)"/>
     <use xlink:href="#ArialMT-61" transform="translate(793.064453 0)"/>
     <use xlink:href="#ArialMT-6c" transform="translate(848.679688 0)"/>
     <use xlink:href="#ArialMT-6c" transform="translate(870.896484 0)"/>
     <use xlink:href="#ArialMT-20" transform="translate(893.113281 0)"/>
     <use xlink:href="#ArialMT-63" transform="translate(920.896484 0)"/>
     <use xlink:href="#ArialMT-6f" transform="translate(970.896484 0)"/>
     <use xlink:href="#ArialMT-72" transform="translate(1026.511719 0)"/>
     <use xlink:href="#ArialMT-65" transform="translate(1059.8125 0)"/>
     <use xlink:href="#ArialMT-73" transform="translate(1115.427734 0)"/>
    </g>
   </g>
   <g id="legend_1">
    <g id="patch_7">
     <path d="M 361.853125 58.314375 
L 425.535937 58.314375 
Q 427.535937 58.314375 427.535937 56.314375 
L 427.535937 28.789375 
Q 427.535937 26.789375 425.535937 26.789375 
L 361.853125 26.789375 
Q 359.853125 26.789375 359.853125 28.789375 
L 359.853125 56.314375 
Q 359.853125 58.314375 361.853125 58.314375 
z
" style="fill: #ffffff; opacity: 0.8; stroke: #cccccc; stroke-linejoin: miter"/>
    </g>
    <g id="line2d_18">
     <path d="M 363.853125 34.447188 
L 373.853125 34.447188 
L 383.853125 34.447188 
" style="fill: none; stroke: #1f77b4; stroke-width: 2; stroke-linecap: round"/>
    </g>
    <g id="text_19">
     <!-- queryA -->
     <g style="fill: #262626" transform="translate(391.853125 37.947188) scale(0.1 -0.1)">
      <defs>
       <path id="ArialMT-71" d="M 2538 -1272 
L 2538 353 
Q 2406 169 2170 47 
Q 1934 -75 1669 -75 
Q 1078 -75 651 397 
Q 225 869 225 1691 
Q 225 2191 398 2587 
Q 572 2984 901 3189 
Q 1231 3394 1625 3394 
Q 2241 3394 2594 2875 
L 2594 3319 
L 3100 3319 
L 3100 -1272 
L 2538 -1272 
z
M 803 1669 
Q 803 1028 1072 708 
Q 1341 388 1716 388 
Q 2075 388 2334 692 
Q 2594 997 2594 1619 
Q 2594 2281 2320 2615 
Q 2047 2950 1678 2950 
Q 1313 2950 1058 2639 
Q 803 2328 803 1669 
z
" transform="scale(0.015625)"/>
       <path id="ArialMT-75" d="M 2597 0 
L 2597 488 
Q 2209 -75 1544 -75 
Q 1250 -75 995 37 
Q 741 150 617 320 
Q 494 491 444 738 
Q 409 903 409 1263 
L 409 3319 
L 972 3319 
L 972 1478 
Q 972 1038 1006 884 
Q 1059 663 1231 536 
Q 1403 409 1656 409 
Q 1909 409 2131 539 
Q 2353 669 2445 892 
Q 2538 1116 2538 1541 
L 2538 3319 
L 3100 3319 
L 3100 0 
L 2597 0 
z
" transform="scale(0.015625)"/>
       <path id="ArialMT-79" d="M 397 -1278 
L 334 -750 
Q 519 -800 656 -800 
Q 844 -800 956 -737 
Q 1069 -675 1141 -563 
Q 1194 -478 1313 -144 
Q 1328 -97 1363 -6 
L 103 3319 
L 709 3319 
L 1400 1397 
Q 1534 1031 1641 628 
Q 1738 1016 1872 1384 
L 2581 3319 
L 3144 3319 
L 1881 -56 
Q 1678 -603 1566 -809 
Q 1416 -1088 1222 -1217 
Q 1028 -1347 759 -1347 
Q 597 -1347 397 -1278 
z
" transform="scale(0.015625)"/>
      </defs>
      <use xlink:href="#ArialMT-71"/>
      <use xlink:href="#ArialMT-75" transform="translate(55.615234 0)"/>
      <use xlink:href="#ArialMT-65" transform="translate(111.230469 0)"/>
      <use xlink:href="#ArialMT-72" transform="translate(166.845703 0)"/>
      <use xlink:href="#ArialMT-79" transform="translate(200.146484 0)"/>
      <use xlink:href="#ArialMT-41" transform="translate(250.146484 0)"/>
     </g>
    </g>
    <g id="line2d_19">
     <path d="M 363.853125 48.709688 
L 373.853125 48.709688 
L 383.853125 48.709688 
" style="fill: none; stroke: #ff7f0e; stroke-width: 2; stroke-linecap: round"/>
    </g>
    <g id="text_20">
     <!-- queryB -->
     <g style="fill: #262626" transform="translate(391.853125 52.209688) scale(0.1 -0.1)">
      <use xlink:href="#ArialMT-71"/>
      <use xlink:href="#ArialMT-75" transform="translate(55.615234 0)"/>
      <use xlink:href="#ArialMT-65" transform="translate(111.230469 0)"/>
      <use xlink:href="#ArialMT-72" transform="translate(166.845703 0)"/>
      <use xlink:href="#ArialMT-79" transform="translate(200.146484 0)"/>
      <use xlink:href="#ArialMT-42" transform="translate(250.146484 0)"/>
     </g>
    </g>
   </g>
  </g>
  <g id="axes_2">
   <g id="patch_8">
    <path d="M 457.517187 242.389375 
L 848.660937 242.389375 
L 848.660937 21.789375 
L 457.517187 21.789375 
z
" style="fill: #ffffff"/>
   </g>
   <g id="matplotlib.axis_3">
    <g id="xtick_9">
     <g id="line2d_20">
      <path d="M 457.517187 242.389375 
L 457.517187 21.789375 
" clip-path="url(#pb28da8833a)" style="fill: none; stroke: #cccccc; stroke-opacity: 0.3; stroke-width: 0.8; stroke-linecap: round"/>
     </g>
     <g id="text_21">
      <!-- 0 -->
      <g style="fill: #262626" transform="translate(454.736719 256.547188) scale(0.1 -0.1)">
       <use xlink:href="#ArialMT-30"/>
      </g>
     </g>
    </g>
    <g id="xtick_10">
     <g id="line2d_21">
      <path d="M 508.98347 242.389375 
L 508.98347 21.789375 
" clip-path="url(#pb28da8833a)" style="fill: none; stroke: #cccccc; stroke-opacity: 0.3; stroke-width: 0.8; stroke-linecap: round"/>
     </g>
     <g id="text_22">
      <!-- 20 -->
      <g style="fill: #262626" transform="translate(503.422533 256.547188) scale(0.1 -0.1)">
       <use xlink:href="#ArialMT-32"/>
       <use xlink:href="#ArialMT-30" transform="translate(55.615234 0)"/>
      </g>
     </g>
    </g>
    <g id="xtick_11">
     <g id="line2d_22">
      <path d="M 560.449753 242.389375 
L 560.449753 21.789375 
" clip-path="url(#pb28da8833a)" style="fill: none; stroke: #cccccc; stroke-opacity: 0.3; stroke-width: 0.8; stroke-linecap: round"/>
     </g>
     <g id="text_23">
      <!-- 40 -->
      <g style="fill: #262626" transform="translate(554.888816 256.547188) scale(0.1 -0.1)">
       <use xlink:href="#ArialMT-34"/>
       <use xlink:href="#ArialMT-30" transform="translate(55.615234 0)"/>
      </g>
     </g>
    </g>
    <g id="xtick_12">
     <g id="line2d_23">
      <path d="M 611.916036 242.389375 
L 611.916036 21.789375 
" clip-path="url(#pb28da8833a)" style="fill: none; stroke: #cccccc; stroke-opacity: 0.3; stroke-width: 0.8; stroke-linecap: round"/>
     </g>
     <g id="text_24">
      <!-- 60 -->
      <g style="fill: #262626" transform="translate(606.355099 256.547188) scale(0.1 -0.1)">
       <use xlink:href="#ArialMT-36"/>
       <use xlink:href="#ArialMT-30" transform="translate(55.615234 0)"/>
      </g>
     </g>
    </g>
    <g id="xtick_13">
     <g id="line2d_24">
      <path d="M 663.382319 242.389375 
L 663.382319 21.789375 
" clip-path="url(#pb28da8833a)" style="fill: none; stroke: #cccccc; stroke-opacity: 0.3; stroke-width: 0.8; stroke-linecap: round"/>
     </g>
     <g id="text_25">
      <!-- 80 -->
      <g style="fill: #262626" transform="translate(657.821382 256.547188) scale(0.1 -0.1)">
       <use xlink:href="#ArialMT-38"/>
       <use xlink:href="#ArialMT-30" transform="translate(55.615234 0)"/>
      </g>
     </g>
    </g>
    <g id="xtick_14">
     <g id="line2d_25">
      <path d="M 714.848602 242.389375 
L 714.848602 21.789375 
" clip-path="url(#pb28da8833a)" style="fill: none; stroke: #cccccc; stroke-opacity: 0.3; stroke-width: 0.8; stroke-linecap: round"/>
     </g>
     <g id="text_26">
      <!-- 100 -->
      <g style="fill: #262626" transform="translate(706.507196 256.547188) scale(0.1 -0.1)">
       <use xlink:href="#ArialMT-31"/>
       <use xlink:href="#ArialMT-30" transform="translate(55.615234 0)"/>
       <use xlink:href="#ArialMT-30" transform="translate(111.230469 0)"/>
      </g>
     </g>
    </g>
    <g id="xtick_15">
     <g id="line2d_26">
      <path d="M 766.314885 242.389375 
L 766.314885 21.789375 
" clip-path="url(#pb28da8833a)" style="fill: none; stroke: #cccccc; stroke-opacity: 0.3; stroke-width: 0.8; stroke-linecap: round"/>
     </g>
     <g id="text_27">
      <!-- 120 -->
      <g style="fill: #262626" transform="translate(757.973479 256.547188) scale(0.1 -0.1)">
       <use xlink:href="#ArialMT-31"/>
       <use xlink:href="#ArialMT-32" transform="translate(55.615234 0)"/>
       <use xlink:href="#ArialMT-30" transform="translate(111.230469 0)"/>
      </g>
     </g>
    </g>
    <g id="xtick_16">
     <g id="line2d_27">
      <path d="M 817.781168 242.389375 
L 817.781168 21.789375 
" clip-path="url(#pb28da8833a)" style="fill: none; stroke: #cccccc; stroke-opacity: 0.3; stroke-width: 0.8; stroke-linecap: round"/>
     </g>
     <g id="text_28">
      <!-- 140 -->
      <g style="fill: #262626" transform="translate(809.439762 256.547188) scale(0.1 -0.1)">
       <use xlink:href="#ArialMT-31"/>
       <use xlink:href="#ArialMT-34" transform="translate(55.615234 0)"/>
       <use xlink:href="#ArialMT-30" transform="translate(111.230469 0)"/>
      </g>
     </g>
    </g>
    <g id="text_29">
     <!-- Elapsed Time (sec) -->
     <g style="fill: #262626" transform="translate(610.297656 269.814375) scale(0.1 -0.1)">
      <use xlink:href="#ArialMT-45"/>
      <use xlink:href="#ArialMT-6c" transform="translate(66.699219 0)"/>
      <use xlink:href="#ArialMT-61" transform="translate(88.916016 0)"/>
      <use xlink:href="#ArialMT-70" transform="translate(144.53125 0)"/>
      <use xlink:href="#ArialMT-73" transform="translate(200.146484 0)"/>
      <use xlink:href="#ArialMT-65" transform="translate(250.146484 0)"/>
      <use xlink:href="#ArialMT-64" transform="translate(305.761719 0)"/>
      <use xlink:href="#ArialMT-20" transform="translate(361.376953 0)"/>
      <use xlink:href="#ArialMT-54" transform="translate(387.410156 0)"/>
      <use xlink:href="#ArialMT-69" transform="translate(444.744141 0)"/>
      <use xlink:href="#ArialMT-6d" transform="translate(466.960938 0)"/>
      <use xlink:href="#ArialMT-65" transform="translate(550.261719 0)"/>
      <use xlink:href="#ArialMT-20" transform="translate(605.876953 0)"/>
      <use xlink:href="#ArialMT-28" transform="translate(633.660156 0)"/>
      <use xlink:href="#ArialMT-73" transform="translate(666.960938 0)"/>
      <use xlink:href="#ArialMT-65" transform="translate(716.960938 0)"/>
      <use xlink:href="#ArialMT-63" transform="translate(772.576172 0)"/>
      <use xlink:href="#ArialMT-29" transform="translate(822.576172 0)"/>
     </g>
    </g>
   </g>
   <g id="matplotlib.axis_4">
    <g id="ytick_8">
     <g id="line2d_28">
      <path d="M 457.517187 236.673054 
L 848.660937 236.673054 
" clip-path="url(#pb28da8833a)" style="fill: none; stroke: #cccccc; stroke-opacity: 0.3; stroke-width: 0.8; stroke-linecap: round"/>
     </g>
    </g>
    <g id="ytick_9">
     <g id="line2d_29">
      <path d="M 457.517187 202.185443 
L 848.660937 202.185443 
" clip-path="url(#pb28da8833a)" style="fill: none; stroke: #cccccc; stroke-opacity: 0.3; stroke-width: 0.8; stroke-linecap: round"/>
     </g>
    </g>
    <g id="ytick_10">
     <g id="line2d_30">
      <path d="M 457.517187 167.697833 
L 848.660937 167.697833 
" clip-path="url(#pb28da8833a)" style="fill: none; stroke: #cccccc; stroke-opacity: 0.3; stroke-width: 0.8; stroke-linecap: round"/>
     </g>
    </g>
    <g id="ytick_11">
     <g id="line2d_31">
      <path d="M 457.517187 133.210222 
L 848.660937 133.210222 
" clip-path="url(#pb28da8833a)" style="fill: none; stroke: #cccccc; stroke-opacity: 0.3; stroke-width: 0.8; stroke-linecap: round"/>
     </g>
    </g>
    <g id="ytick_12">
     <g id="line2d_32">
      <path d="M 457.517187 98.722612 
L 848.660937 98.722612 
" clip-path="url(#pb28da8833a)" style="fill: none; stroke: #cccccc; stroke-opacity: 0.3; stroke-width: 0.8; stroke-linecap: round"/>
     </g>
    </g>
    <g id="ytick_13">
     <g id="line2d_33">
      <path d="M 457.517187 64.235002 
L 848.660937 64.235002 
" clip-path="url(#pb28da8833a)" style="fill: none; stroke: #cccccc; stroke-opacity: 0.3; stroke-width: 0.8; stroke-linecap: round"/>
     </g>
    </g>
    <g id="ytick_14">
     <g id="line2d_34">
      <path d="M 457.517187 29.747391 
L 848.660937 29.747391 
" clip-path="url(#pb28da8833a)" style="fill: none; stroke: #cccccc; stroke-opacity: 0.3; stroke-width: 0.8; stroke-linecap: round"/>
     </g>
    </g>
    <g id="text_30">
     <!-- Mean pkg_j per 1s Bin -->
     <g style="fill: #262626" transform="translate(451.4125 181.837031) rotate(-90) scale(0.1 -0.1)">
      <use xlink:href="#ArialMT-4d"/>
      <use xlink:href="#ArialMT-65" transform="translate(83.300781 0)"/>
      <use xlink:href="#ArialMT-61" transform="translate(138.916016 0)"/>
      <use xlink:href="#ArialMT-6e" transform="translate(194.53125 0)"/>
      <use xlink:href="#ArialMT-20" transform="translate(250.146484 0)"/>
      <use xlink:href="#ArialMT-70" transform="translate(277.929688 0)"/>
      <use xlink:href="#ArialMT-6b" transform="translate(333.544922 0)"/>
      <use xlink:href="#ArialMT-67" transform="translate(383.544922 0)"/>
      <use xlink:href="#ArialMT-5f" transform="translate(439.160156 0)"/>
      <use xlink:href="#ArialMT-6a" transform="translate(494.775391 0)"/>
      <use xlink:href="#ArialMT-20" transform="translate(516.992188 0)"/>
      <use xlink:href="#ArialMT-70" transform="translate(544.775391 0)"/>
      <use xlink:href="#ArialMT-65" transform="translate(600.390625 0)"/>
      <use xlink:href="#ArialMT-72" transform="translate(656.005859 0)"/>
      <use xlink:href="#ArialMT-20" transform="translate(689.306641 0)"/>
      <use xlink:href="#ArialMT-31" transform="translate(717.089844 0)"/>
      <use xlink:href="#ArialMT-73" transform="translate(772.705078 0)"/>
      <use xlink:href="#ArialMT-20" transform="translate(822.705078 0)"/>
      <use xlink:href="#ArialMT-42" transform="translate(850.488281 0)"/>
      <use xlink:href="#ArialMT-69" transform="translate(917.1875 0)"/>
      <use xlink:href="#ArialMT-6e" transform="translate(939.404297 0)"/>
     </g>
    </g>
   </g>
   <g id="line2d_35">
    <path d="M 457.517187 200.116187 
L 460.090502 196.322549 
L 462.663816 194.598169 
L 465.23713 196.667425 
L 467.810444 197.357178 
L 470.383758 195.632797 
L 475.530387 194.943045 
L 478.103701 194.253293 
L 480.677015 194.598169 
L 483.250329 194.598169 
L 485.823643 193.218664 
L 488.396957 194.253293 
L 490.970271 193.908417 
L 493.543586 194.253293 
L 496.1169 192.873788 
L 498.690214 194.598169 
L 501.263528 192.184036 
L 503.836842 193.908417 
L 506.410156 193.563541 
L 508.98347 192.222356 
L 511.556785 192.873788 
L 514.130099 194.253293 
L 516.703413 192.528912 
L 519.276727 191.83916 
L 521.850041 193.218664 
L 524.423355 194.253293 
L 526.996669 192.873788 
L 529.569984 194.253293 
L 532.143298 192.528912 
L 537.289926 192.528912 
L 539.86324 193.218664 
L 542.436554 194.253293 
L 545.009868 193.218664 
L 547.583183 193.563541 
L 550.156497 194.253293 
L 552.729811 193.908417 
L 555.303125 192.528912 
L 557.876439 190.11478 
L 560.449753 191.072769 
L 563.023067 189.080151 
L 565.596382 191.149408 
L 568.169696 189.769903 
L 570.74301 189.425027 
L 573.316324 187.010895 
L 575.889638 191.149408 
L 578.462952 191.149408 
L 581.036266 192.873788 
L 583.609581 192.528912 
L 586.182895 193.218664 
L 588.756209 192.528912 
L 591.329523 192.184036 
L 593.902837 194.598169 
L 596.476151 192.184036 
L 599.049465 193.563541 
L 601.62278 194.253293 
L 604.196094 194.253293 
L 606.769408 192.605551 
L 609.342722 193.218664 
L 611.916036 192.528912 
L 614.48935 194.253293 
L 617.062664 192.528912 
L 619.635979 191.494284 
L 624.782607 192.873788 
L 629.929235 192.184036 
L 632.502549 190.459656 
L 635.075863 191.149408 
L 637.649178 192.528912 
L 640.222492 191.494284 
L 642.795806 193.908417 
L 645.36912 191.494284 
L 647.942434 192.528912 
L 650.515748 192.873788 
L 653.089062 192.222356 
L 655.662377 192.528912 
L 658.235691 193.563541 
L 660.809005 192.528912 
L 668.528947 192.528912 
L 671.102262 192.873788 
L 673.675576 190.804532 
L 676.24889 192.184036 
L 678.822204 191.149408 
L 681.395518 192.873788 
L 683.968832 193.908417 
L 686.542146 191.83916 
L 689.115461 190.459656 
L 691.688775 190.11478 
L 696.835403 192.873788 
L 699.408717 191.455964 
L 701.982031 190.459656 
L 704.555345 193.563541 
L 707.12866 192.528912 
L 709.701974 193.218664 
L 712.275288 191.83916 
L 714.848602 191.494284 
L 717.421916 192.873788 
L 719.99523 191.149408 
L 722.568544 191.83916 
L 725.141859 191.149408 
L 727.715173 190.804532 
L 730.288487 191.494284 
L 735.435115 191.494284 
L 738.008429 191.149408 
L 743.155058 192.528912 
L 745.728372 190.804532 
L 748.301686 190.804532 
L 750.875 191.83916 
L 756.021628 190.459656 
L 758.594942 191.149408 
L 761.168257 191.494284 
L 763.741571 192.528912 
L 766.314885 191.494284 
L 768.888199 191.149408 
L 771.461513 191.83916 
L 774.034827 190.804532 
L 776.608141 192.184036 
L 779.181456 189.769903 
L 781.75477 191.494284 
L 784.328084 191.83916 
L 786.901398 193.218664 
L 789.474712 190.459656 
L 792.048026 190.804532 
L 794.62134 191.494284 
L 797.194655 192.528912 
L 799.767969 191.494284 
L 802.341283 193.218664 
L 804.914597 192.605551 
L 807.487911 191.83916 
L 810.061225 192.873788 
L 812.634539 191.83916 
L 815.207854 191.494284 
L 817.781168 192.528912 
L 820.354482 193.218664 
L 822.927796 191.83916 
L 825.50111 203.478729 
L 825.50111 203.478729 
" clip-path="url(#pb28da8833a)" style="fill: none; stroke: #1f77b4; stroke-width: 2; stroke-linecap: round"/>
   </g>
   <g id="line2d_36">
    <path d="M 457.517187 200.116187 
L 460.090502 197.702054 
L 462.663816 197.702054 
L 465.23713 196.667425 
L 467.810444 196.667425 
L 470.383758 195.977673 
L 472.957072 196.667425 
L 475.530387 196.322549 
L 480.677015 196.322549 
L 483.250329 195.632797 
L 485.823643 195.632797 
L 488.396957 193.908417 
L 490.970271 194.253293 
L 493.543586 194.943045 
L 496.1169 192.873788 
L 498.690214 194.253293 
L 501.263528 193.908417 
L 506.410156 193.908417 
L 508.98347 193.563541 
L 511.556785 193.755138 
L 514.130099 194.943045 
L 516.703413 194.598169 
L 521.850041 193.218664 
L 524.423355 193.218664 
L 526.996669 191.149408 
L 529.569984 192.873788 
L 537.289926 192.873788 
L 539.86324 193.908417 
L 542.436554 193.218664 
L 545.009868 193.218664 
L 547.583183 192.184036 
L 550.156497 192.873788 
L 552.729811 192.873788 
L 555.303125 193.563541 
L 557.876439 191.455964 
L 560.449753 193.218664 
L 563.023067 193.218664 
L 568.169696 193.908417 
L 570.74301 193.563541 
L 573.316324 192.528912 
L 575.889638 193.218664 
L 578.462952 194.253293 
L 581.036266 190.804532 
L 583.609581 193.908417 
L 586.182895 193.563541 
L 588.756209 193.908417 
L 591.329523 192.528912 
L 596.476151 191.83916 
L 599.049465 193.218664 
L 601.62278 192.184036 
L 604.196094 191.83916 
L 606.769408 193.218664 
L 609.342722 191.494284 
L 611.916036 193.218664 
L 614.48935 193.218664 
L 617.062664 192.184036 
L 619.635979 191.83916 
L 622.209293 192.528912 
L 624.782607 191.149408 
L 627.355921 191.83916 
L 632.502549 192.528912 
L 642.795806 191.149408 
L 645.36912 190.459656 
L 647.942434 191.149408 
L 650.515748 193.563541 
L 653.089062 192.605551 
L 655.662377 191.494284 
L 658.235691 193.563541 
L 660.809005 189.769903 
L 663.382319 193.908417 
L 665.955633 194.253293 
L 668.528947 194.253293 
L 671.102262 192.184036 
L 673.675576 193.563541 
L 678.822204 190.804532 
L 681.395518 193.218664 
L 683.968832 189.425027 
L 686.542146 189.425027 
L 689.115461 190.459656 
L 691.688775 190.459656 
L 694.262089 189.15679 
L 696.835403 190.459656 
L 699.408717 190.459656 
L 701.982031 190.11478 
L 704.555345 191.494284 
L 707.12866 190.459656 
L 709.701974 190.11478 
L 712.275288 194.253293 
L 714.848602 192.873788 
L 717.421916 192.184036 
L 719.99523 194.253293 
L 725.141859 192.873788 
L 727.715173 192.873788 
L 730.288487 193.563541 
L 732.861801 193.218664 
L 738.008429 193.218664 
L 740.581743 193.908417 
L 743.155058 193.218664 
L 745.728372 192.222356 
L 748.301686 192.184036 
L 750.875 191.494284 
L 753.448314 192.184036 
L 756.021628 191.83916 
L 758.594942 192.873788 
L 761.168257 192.184036 
L 763.741571 191.149408 
L 766.314885 191.83916 
L 768.888199 193.218664 
L 774.034827 191.83916 
L 779.181456 193.908417 
L 781.75477 192.184036 
L 784.328084 192.528912 
L 789.474712 191.83916 
L 792.048026 192.988747 
L 794.62134 193.218664 
L 797.194655 192.528912 
L 799.767969 193.218664 
L 802.341283 191.149408 
L 804.914597 193.218664 
L 807.487911 192.528912 
L 810.061225 191.149408 
L 812.634539 192.528912 
L 815.207854 194.253293 
L 817.781168 191.83916 
L 820.354482 192.528912 
L 822.927796 192.528912 
L 825.50111 192.873788 
L 828.074424 192.873788 
L 830.647738 191.83916 
L 833.221053 191.494284 
L 838.367681 192.873788 
L 843.514309 191.494284 
L 846.087623 192.873788 
L 848.660937 232.362102 
L 848.660937 232.362102 
" clip-path="url(#pb28da8833a)" style="fill: none; stroke: #ff7f0e; stroke-width: 2; stroke-linecap: round"/>
   </g>
   <g id="patch_9">
    <path d="M 457.517187 242.389375 
L 457.517187 21.789375 
" style="fill: none; stroke: #cccccc; stroke-width: 0.8; stroke-linejoin: miter; stroke-linecap: square"/>
   </g>
   <g id="patch_10">
    <path d="M 848.660937 242.389375 
L 848.660937 21.789375 
" style="fill: none; stroke: #cccccc; stroke-width: 0.8; stroke-linejoin: miter; stroke-linecap: square"/>
   </g>
   <g id="patch_11">
    <path d="M 457.517187 242.389375 
L 848.660937 242.389375 
" style="fill: none; stroke: #cccccc; stroke-width: 0.8; stroke-linejoin: miter; stroke-linecap: square"/>
   </g>
   <g id="patch_12">
    <path d="M 457.517187 21.789375 
L 848.660937 21.789375 
" style="fill: none; stroke: #cccccc; stroke-width: 0.8; stroke-linejoin: miter; stroke-linecap: square"/>
   </g>
   <g id="text_31">
    <!-- APX1186 — PC1 1 core -->
    <g style="fill: #262626" transform="translate(588.831875 15.789375) scale(0.12 -0.12)">
     <use xlink:href="#ArialMT-41"/>
     <use xlink:href="#ArialMT-50" transform="translate(66.699219 0)"/>
     <use xlink:href="#ArialMT-58" transform="translate(133.398438 0)"/>
     <use xlink:href="#ArialMT-31" transform="translate(200.097656 0)"/>
     <use xlink:href="#ArialMT-31" transform="translate(248.337891 0)"/>
     <use xlink:href="#ArialMT-38" transform="translate(303.953125 0)"/>
     <use xlink:href="#ArialMT-36" transform="translate(359.568359 0)"/>
     <use xlink:href="#ArialMT-20" transform="translate(415.183594 0)"/>
     <use xlink:href="#ArialMT-2014" transform="translate(442.966797 0)"/>
     <use xlink:href="#ArialMT-20" transform="translate(542.966797 0)"/>
     <use xlink:href="#ArialMT-50" transform="translate(570.75 0)"/>
     <use xlink:href="#ArialMT-43" transform="translate(637.449219 0)"/>
     <use xlink:href="#ArialMT-31" transform="translate(709.666016 0)"/>
     <use xlink:href="#ArialMT-20" transform="translate(765.28125 0)"/>
     <use xlink:href="#ArialMT-31" transform="translate(793.064453 0)"/>
     <use xlink:href="#ArialMT-20" transform="translate(848.679688 0)"/>
     <use xlink:href="#ArialMT-63" transform="translate(876.462891 0)"/>
     <use xlink:href="#ArialMT-6f" transform="translate(926.462891 0)"/>
     <use xlink:href="#ArialMT-72" transform="translate(982.078125 0)"/>
     <use xlink:href="#ArialMT-65" transform="translate(1015.378906 0)"/>
    </g>
   </g>
   <g id="legend_2">
    <g id="patch_13">
     <path d="M 777.978125 58.314375 
L 841.660937 58.314375 
Q 843.660937 58.314375 843.660937 56.314375 
L 843.660937 28.789375 
Q 843.660937 26.789375 841.660937 26.789375 
L 777.978125 26.789375 
Q 775.978125 26.789375 775.978125 28.789375 
L 775.978125 56.314375 
Q 775.978125 58.314375 777.978125 58.314375 
z
" style="fill: #ffffff; opacity: 0.8; stroke: #cccccc; stroke-linejoin: miter"/>
    </g>
    <g id="line2d_37">
     <path d="M 779.978125 34.447188 
L 789.978125 34.447188 
L 799.978125 34.447188 
" style="fill: none; stroke: #1f77b4; stroke-width: 2; stroke-linecap: round"/>
    </g>
    <g id="text_32">
     <!-- queryA -->
     <g style="fill: #262626" transform="translate(807.978125 37.947188) scale(0.1 -0.1)">
      <use xlink:href="#ArialMT-71"/>
      <use xlink:href="#ArialMT-75" transform="translate(55.615234 0)"/>
      <use xlink:href="#ArialMT-65" transform="translate(111.230469 0)"/>
      <use xlink:href="#ArialMT-72" transform="translate(166.845703 0)"/>
      <use xlink:href="#ArialMT-79" transform="translate(200.146484 0)"/>
      <use xlink:href="#ArialMT-41" transform="translate(250.146484 0)"/>
     </g>
    </g>
    <g id="line2d_38">
     <path d="M 779.978125 48.709688 
L 789.978125 48.709688 
L 799.978125 48.709688 
" style="fill: none; stroke: #ff7f0e; stroke-width: 2; stroke-linecap: round"/>
    </g>
    <g id="text_33">
     <!-- queryB -->
     <g style="fill: #262626" transform="translate(807.978125 52.209688) scale(0.1 -0.1)">
      <use xlink:href="#ArialMT-71"/>
      <use xlink:href="#ArialMT-75" transform="translate(55.615234 0)"/>
      <use xlink:href="#ArialMT-65" transform="translate(111.230469 0)"/>
      <use xlink:href="#ArialMT-72" transform="translate(166.845703 0)"/>
      <use xlink:href="#ArialMT-79" transform="translate(200.146484 0)"/>
      <use xlink:href="#ArialMT-42" transform="translate(250.146484 0)"/>
     </g>
    </g>
   </g>
  </g>
 </g>
 <defs>
  <clipPath id="pd739e72560">
   <rect x="41.392188" y="21.789375" width="391.14375" height="220.6"/>
  </clipPath>
  <clipPath id="pb28da8833a">
   <rect x="457.517187" y="21.789375" width="391.14375" height="220.6"/>
  </clipPath>
 </defs>
</svg>
