<?xml version="1.0" encoding="utf-8" standalone="no"?>
<!DOCTYPE svg PUBLIC "-//W3C//DTD SVG 1.1//EN"
  "http://www.w3.org/Graphics/SVG/1.1/DTD/svg11.dtd">
<svg xmlns:xlink="http://www.w3.org/1999/xlink" width="855.931875pt" height="279.119063pt" viewBox="0 0 855.931875 279.119063" xmlns="http://www.w3.org/2000/svg" version="1.1">
 <metadata>
  <rdf:RDF xmlns:dc="http://purl.org/dc/elements/1.1/" xmlns:cc="http://creativecommons.org/ns#" xmlns:rdf="http://www.w3.org/1999/02/22-rdf-syntax-ns#">
   <cc:Work>
    <dc:type rdf:resource="http://purl.org/dc/dcmitype/StillImage"/>
    <dc:date>2026-05-26T16:50:33.079383</dc:date>
    <dc:format>image/svg+xml</dc:format>
    <dc:creator>
     <cc:Agent>
      <dc:title>Matplotlib v3.10.1, https://matplotlib.org/</dc:title>
     </cc:Agent>
    </dc:creator>
   </cc:Work>
  </rdf:RDF>
 </metadata>
 <defs>
  <style type="text/css">*{stroke-linejoin: round; stroke-linecap: butt}</style>
 </defs>
 <g id="figure_1">
  <g id="patch_1">
   <path d="M 0 279.119063 
L 855.931875 279.119063 
L 855.931875 0 
L 0 0 
z
" style="fill: #ffffff"/>
  </g>
  <g id="axes_1">
   <g id="patch_2">
    <path d="M 46.953125 242.389375 
L 435.351875 242.389375 
L 435.351875 21.789375 
L 46.953125 21.789375 
z
" style="fill: #ffffff"/>
   </g>
   <g id="matplotlib.axis_1">
    <g id="xtick_1">
     <g id="line2d_1">
      <path d="M 46.953125 242.389375 
L 46.953125 21.789375 
" clip-path="url(#p2faaaab8b5)" style="fill: none; stroke: #cccccc; stroke-opacity: 0.3; stroke-width: 0.8; stroke-linecap: round"/>
     </g>
     <g id="text_1">
      <!-- 0 -->
      <g style="fill: #262626" transform="translate(44.172656 256.547188) scale(0.1 -0.1)">
       <defs>
        <path id="ArialMT-30" d="M 266 2259 
Q 266 3072 433 3567 
Q 600 4063 929 4331 
Q 1259 4600 1759 4600 
Q 2128 4600 2406 4451 
Q 2684 4303 2865 4023 
Q 3047 3744 3150 3342 
Q 3253 2941 3253 2259 
Q 3253 1453 3087 958 
Q 2922 463 2592 192 
Q 2263 -78 1759 -78 
Q 1097 -78 719 397 
Q 266 969 266 2259 
z
M 844 2259 
Q 844 1131 1108 757 
Q 1372 384 1759 384 
Q 2147 384 2411 759 
Q 2675 1134 2675 2259 
Q 2675 3391 2411 3762 
Q 2147 4134 1753 4134 
Q 1366 4134 1134 3806 
Q 844 3388 844 2259 
z
" transform="scale(0.015625)"/>
       </defs>
       <use xlink:href="#ArialMT-30"/>
      </g>
     </g>
    </g>
    <g id="xtick_2">
     <g id="line2d_2">
      <path d="M 91.906684 242.389375 
L 91.906684 21.789375 
" clip-path="url(#p2faaaab8b5)" style="fill: none; stroke: #cccccc; stroke-opacity: 0.3; stroke-width: 0.8; stroke-linecap: round"/>
     </g>
     <g id="text_2">
      <!-- 25 -->
      <g style="fill: #262626" transform="translate(86.345747 256.547188) scale(0.1 -0.1)">
       <defs>
        <path id="ArialMT-32" d="M 3222 541 
L 3222 0 
L 194 0 
Q 188 203 259 391 
Q 375 700 629 1000 
Q 884 1300 1366 1694 
Q 2113 2306 2375 2664 
Q 2638 3022 2638 3341 
Q 2638 3675 2398 3904 
Q 2159 4134 1775 4134 
Q 1369 4134 1125 3890 
Q 881 3647 878 3216 
L 300 3275 
Q 359 3922 746 4261 
Q 1134 4600 1788 4600 
Q 2447 4600 2831 4234 
Q 3216 3869 3216 3328 
Q 3216 3053 3103 2787 
Q 2991 2522 2730 2228 
Q 2469 1934 1863 1422 
Q 1356 997 1212 845 
Q 1069 694 975 541 
L 3222 541 
z
" transform="scale(0.015625)"/>
        <path id="ArialMT-35" d="M 266 1200 
L 856 1250 
Q 922 819 1161 601 
Q 1400 384 1738 384 
Q 2144 384 2425 690 
Q 2706 997 2706 1503 
Q 2706 1984 2436 2262 
Q 2166 2541 1728 2541 
Q 1456 2541 1237 2417 
Q 1019 2294 894 2097 
L 366 2166 
L 809 4519 
L 3088 4519 
L 3088 3981 
L 1259 3981 
L 1013 2750 
Q 1425 3038 1878 3038 
Q 2478 3038 2890 2622 
Q 3303 2206 3303 1553 
Q 3303 931 2941 478 
Q 2500 -78 1738 -78 
Q 1113 -78 717 272 
Q 322 622 266 1200 
z
" transform="scale(0.015625)"/>
       </defs>
       <use xlink:href="#ArialMT-32"/>
       <use xlink:href="#ArialMT-35" transform="translate(55.615234 0)"/>
      </g>
     </g>
    </g>
    <g id="xtick_3">
     <g id="line2d_3">
      <path d="M 136.860243 242.389375 
L 136.860243 21.789375 
" clip-path="url(#p2faaaab8b5)" style="fill: none; stroke: #cccccc; stroke-opacity: 0.3; stroke-width: 0.8; stroke-linecap: round"/>
     </g>
     <g id="text_3">
      <!-- 50 -->
      <g style="fill: #262626" transform="translate(131.299306 256.547188) scale(0.1 -0.1)">
       <use xlink:href="#ArialMT-35"/>
       <use xlink:href="#ArialMT-30" transform="translate(55.615234 0)"/>
      </g>
     </g>
    </g>
    <g id="xtick_4">
     <g id="line2d_4">
      <path d="M 181.813802 242.389375 
L 181.813802 21.789375 
" clip-path="url(#p2faaaab8b5)" style="fill: none; stroke: #cccccc; stroke-opacity: 0.3; stroke-width: 0.8; stroke-linecap: round"/>
     </g>
     <g id="text_4">
      <!-- 75 -->
      <g style="fill: #262626" transform="translate(176.252865 256.547188) scale(0.1 -0.1)">
       <defs>
        <path id="ArialMT-37" d="M 303 3981 
L 303 4522 
L 3269 4522 
L 3269 4084 
Q 2831 3619 2401 2847 
Q 1972 2075 1738 1259 
Q 1569 684 1522 0 
L 944 0 
Q 953 541 1156 1306 
Q 1359 2072 1739 2783 
Q 2119 3494 2547 3981 
L 303 3981 
z
" transform="scale(0.015625)"/>
       </defs>
       <use xlink:href="#ArialMT-37"/>
       <use xlink:href="#ArialMT-35" transform="translate(55.615234 0)"/>
      </g>
     </g>
    </g>
    <g id="xtick_5">
     <g id="line2d_5">
      <path d="M 226.767361 242.389375 
L 226.767361 21.789375 
" clip-path="url(#p2faaaab8b5)" style="fill: none; stroke: #cccccc; stroke-opacity: 0.3; stroke-width: 0.8; stroke-linecap: round"/>
     </g>
     <g id="text_5">
      <!-- 100 -->
      <g style="fill: #262626" transform="translate(218.425955 256.547188) scale(0.1 -0.1)">
       <defs>
        <path id="ArialMT-31" d="M 2384 0 
L 1822 0 
L 1822 3584 
Q 1619 3391 1289 3197 
Q 959 3003 697 2906 
L 697 3450 
Q 1169 3672 1522 3987 
Q 1875 4303 2022 4600 
L 2384 4600 
L 2384 0 
z
" transform="scale(0.015625)"/>
       </defs>
       <use xlink:href="#ArialMT-31"/>
       <use xlink:href="#ArialMT-30" transform="translate(55.615234 0)"/>
       <use xlink:href="#ArialMT-30" transform="translate(111.230469 0)"/>
      </g>
     </g>
    </g>
    <g id="xtick_6">
     <g id="line2d_6">
      <path d="M 271.72092 242.389375 
L 271.72092 21.789375 
" clip-path="url(#p2faaaab8b5)" style="fill: none; stroke: #cccccc; stroke-opacity: 0.3; stroke-width: 0.8; stroke-linecap: round"/>
     </g>
     <g id="text_6">
      <!-- 125 -->
      <g style="fill: #262626" transform="translate(263.379514 256.547188) scale(0.1 -0.1)">
       <use xlink:href="#ArialMT-31"/>
       <use xlink:href="#ArialMT-32" transform="translate(55.615234 0)"/>
       <use xlink:href="#ArialMT-35" transform="translate(111.230469 0)"/>
      </g>
     </g>
    </g>
    <g id="xtick_7">
     <g id="line2d_7">
      <path d="M 316.674479 242.389375 
L 316.674479 21.789375 
" clip-path="url(#p2faaaab8b5)" style="fill: none; stroke: #cccccc; stroke-opacity: 0.3; stroke-width: 0.8; stroke-linecap: round"/>
     </g>
     <g id="text_7">
      <!-- 150 -->
      <g style="fill: #262626" transform="translate(308.333073 256.547188) scale(0.1 -0.1)">
       <use xlink:href="#ArialMT-31"/>
       <use xlink:href="#ArialMT-35" transform="translate(55.615234 0)"/>
       <use xlink:href="#ArialMT-30" transform="translate(111.230469 0)"/>
      </g>
     </g>
    </g>
    <g id="xtick_8">
     <g id="line2d_8">
      <path d="M 361.628038 242.389375 
L 361.628038 21.789375 
" clip-path="url(#p2faaaab8b5)" style="fill: none; stroke: #cccccc; stroke-opacity: 0.3; stroke-width: 0.8; stroke-linecap: round"/>
     </g>
     <g id="text_8">
      <!-- 175 -->
      <g style="fill: #262626" transform="translate(353.286632 256.547188) scale(0.1 -0.1)">
       <use xlink:href="#ArialMT-31"/>
       <use xlink:href="#ArialMT-37" transform="translate(55.615234 0)"/>
       <use xlink:href="#ArialMT-35" transform="translate(111.230469 0)"/>
      </g>
     </g>
    </g>
    <g id="xtick_9">
     <g id="line2d_9">
      <path d="M 406.581597 242.389375 
L 406.581597 21.789375 
" clip-path="url(#p2faaaab8b5)" style="fill: none; stroke: #cccccc; stroke-opacity: 0.3; stroke-width: 0.8; stroke-linecap: round"/>
     </g>
     <g id="text_9">
      <!-- 200 -->
      <g style="fill: #262626" transform="translate(398.240191 256.547188) scale(0.1 -0.1)">
       <use xlink:href="#ArialMT-32"/>
       <use xlink:href="#ArialMT-30" transform="translate(55.615234 0)"/>
       <use xlink:href="#ArialMT-30" transform="translate(111.230469 0)"/>
      </g>
     </g>
    </g>
    <g id="text_10">
     <!-- Elapsed Time (sec) -->
     <g style="fill: #262626" transform="translate(198.361094 269.814375) scale(0.1 -0.1)">
      <defs>
       <path id="ArialMT-45" d="M 506 0 
L 506 4581 
L 3819 4581 
L 3819 4041 
L 1113 4041 
L 1113 2638 
L 3647 2638 
L 3647 2100 
L 1113 2100 
L 1113 541 
L 3925 541 
L 3925 0 
L 506 0 
z
" transform="scale(0.015625)"/>
       <path id="ArialMT-6c" d="M 409 0 
L 409 4581 
L 972 4581 
L 972 0 
L 409 0 
z
" transform="scale(0.015625)"/>
       <path id="ArialMT-61" d="M 2588 409 
Q 2275 144 1986 34 
Q 1697 -75 1366 -75 
Q 819 -75 525 192 
Q 231 459 231 875 
Q 231 1119 342 1320 
Q 453 1522 633 1644 
Q 813 1766 1038 1828 
Q 1203 1872 1538 1913 
Q 2219 1994 2541 2106 
Q 2544 2222 2544 2253 
Q 2544 2597 2384 2738 
Q 2169 2928 1744 2928 
Q 1347 2928 1158 2789 
Q 969 2650 878 2297 
L 328 2372 
Q 403 2725 575 2942 
Q 747 3159 1072 3276 
Q 1397 3394 1825 3394 
Q 2250 3394 2515 3294 
Q 2781 3194 2906 3042 
Q 3031 2891 3081 2659 
Q 3109 2516 3109 2141 
L 3109 1391 
Q 3109 606 3145 398 
Q 3181 191 3288 0 
L 2700 0 
Q 2613 175 2588 409 
z
M 2541 1666 
Q 2234 1541 1622 1453 
Q 1275 1403 1131 1340 
Q 988 1278 909 1158 
Q 831 1038 831 891 
Q 831 666 1001 516 
Q 1172 366 1500 366 
Q 1825 366 2078 508 
Q 2331 650 2450 897 
Q 2541 1088 2541 1459 
L 2541 1666 
z
" transform="scale(0.015625)"/>
       <path id="ArialMT-70" d="M 422 -1272 
L 422 3319 
L 934 3319 
L 934 2888 
Q 1116 3141 1344 3267 
Q 1572 3394 1897 3394 
Q 2322 3394 2647 3175 
Q 2972 2956 3137 2557 
Q 3303 2159 3303 1684 
Q 3303 1175 3120 767 
Q 2938 359 2589 142 
Q 2241 -75 1856 -75 
Q 1575 -75 1351 44 
Q 1128 163 984 344 
L 984 -1272 
L 422 -1272 
z
M 931 1641 
Q 931 1000 1190 694 
Q 1450 388 1819 388 
Q 2194 388 2461 705 
Q 2728 1022 2728 1688 
Q 2728 2322 2467 2637 
Q 2206 2953 1844 2953 
Q 1484 2953 1207 2617 
Q 931 2281 931 1641 
z
" transform="scale(0.015625)"/>
       <path id="ArialMT-73" d="M 197 991 
L 753 1078 
Q 800 744 1014 566 
Q 1228 388 1613 388 
Q 2000 388 2187 545 
Q 2375 703 2375 916 
Q 2375 1106 2209 1216 
Q 2094 1291 1634 1406 
Q 1016 1563 777 1677 
Q 538 1791 414 1992 
Q 291 2194 291 2438 
Q 291 2659 392 2848 
Q 494 3038 669 3163 
Q 800 3259 1026 3326 
Q 1253 3394 1513 3394 
Q 1903 3394 2198 3281 
Q 2494 3169 2634 2976 
Q 2775 2784 2828 2463 
L 2278 2388 
Q 2241 2644 2061 2787 
Q 1881 2931 1553 2931 
Q 1166 2931 1000 2803 
Q 834 2675 834 2503 
Q 834 2394 903 2306 
Q 972 2216 1119 2156 
Q 1203 2125 1616 2013 
Q 2213 1853 2448 1751 
Q 2684 1650 2818 1456 
Q 2953 1263 2953 975 
Q 2953 694 2789 445 
Q 2625 197 2315 61 
Q 2006 -75 1616 -75 
Q 969 -75 630 194 
Q 291 463 197 991 
z
" transform="scale(0.015625)"/>
       <path id="ArialMT-65" d="M 2694 1069 
L 3275 997 
Q 3138 488 2766 206 
Q 2394 -75 1816 -75 
Q 1088 -75 661 373 
Q 234 822 234 1631 
Q 234 2469 665 2931 
Q 1097 3394 1784 3394 
Q 2450 3394 2872 2941 
Q 3294 2488 3294 1666 
Q 3294 1616 3291 1516 
L 816 1516 
Q 847 969 1125 678 
Q 1403 388 1819 388 
Q 2128 388 2347 550 
Q 2566 713 2694 1069 
z
M 847 1978 
L 2700 1978 
Q 2663 2397 2488 2606 
Q 2219 2931 1791 2931 
Q 1403 2931 1139 2672 
Q 875 2413 847 1978 
z
" transform="scale(0.015625)"/>
       <path id="ArialMT-64" d="M 2575 0 
L 2575 419 
Q 2259 -75 1647 -75 
Q 1250 -75 917 144 
Q 584 363 401 755 
Q 219 1147 219 1656 
Q 219 2153 384 2558 
Q 550 2963 881 3178 
Q 1213 3394 1622 3394 
Q 1922 3394 2156 3267 
Q 2391 3141 2538 2938 
L 2538 4581 
L 3097 4581 
L 3097 0 
L 2575 0 
z
M 797 1656 
Q 797 1019 1065 703 
Q 1334 388 1700 388 
Q 2069 388 2326 689 
Q 2584 991 2584 1609 
Q 2584 2291 2321 2609 
Q 2059 2928 1675 2928 
Q 1300 2928 1048 2622 
Q 797 2316 797 1656 
z
" transform="scale(0.015625)"/>
       <path id="ArialMT-20" transform="scale(0.015625)"/>
       <path id="ArialMT-54" d="M 1659 0 
L 1659 4041 
L 150 4041 
L 150 4581 
L 3781 4581 
L 3781 4041 
L 2266 4041 
L 2266 0 
L 1659 0 
z
" transform="scale(0.015625)"/>
       <path id="ArialMT-69" d="M 425 3934 
L 425 4581 
L 988 4581 
L 988 3934 
L 425 3934 
z
M 425 0 
L 425 3319 
L 988 3319 
L 988 0 
L 425 0 
z
" transform="scale(0.015625)"/>
       <path id="ArialMT-6d" d="M 422 0 
L 422 3319 
L 925 3319 
L 925 2853 
Q 1081 3097 1340 3245 
Q 1600 3394 1931 3394 
Q 2300 3394 2536 3241 
Q 2772 3088 2869 2813 
Q 3263 3394 3894 3394 
Q 4388 3394 4653 3120 
Q 4919 2847 4919 2278 
L 4919 0 
L 4359 0 
L 4359 2091 
Q 4359 2428 4304 2576 
Q 4250 2725 4106 2815 
Q 3963 2906 3769 2906 
Q 3419 2906 3187 2673 
Q 2956 2441 2956 1928 
L 2956 0 
L 2394 0 
L 2394 2156 
Q 2394 2531 2256 2718 
Q 2119 2906 1806 2906 
Q 1569 2906 1367 2781 
Q 1166 2656 1075 2415 
Q 984 2175 984 1722 
L 984 0 
L 422 0 
z
" transform="scale(0.015625)"/>
       <path id="ArialMT-28" d="M 1497 -1347 
Q 1031 -759 709 28 
Q 388 816 388 1659 
Q 388 2403 628 3084 
Q 909 3875 1497 4659 
L 1900 4659 
Q 1522 4009 1400 3731 
Q 1209 3300 1100 2831 
Q 966 2247 966 1656 
Q 966 153 1900 -1347 
L 1497 -1347 
z
" transform="scale(0.015625)"/>
       <path id="ArialMT-63" d="M 2588 1216 
L 3141 1144 
Q 3050 572 2676 248 
Q 2303 -75 1759 -75 
Q 1078 -75 664 370 
Q 250 816 250 1647 
Q 250 2184 428 2587 
Q 606 2991 970 3192 
Q 1334 3394 1763 3394 
Q 2303 3394 2647 3120 
Q 2991 2847 3088 2344 
L 2541 2259 
Q 2463 2594 2264 2762 
Q 2066 2931 1784 2931 
Q 1359 2931 1093 2626 
Q 828 2322 828 1663 
Q 828 994 1084 691 
Q 1341 388 1753 388 
Q 2084 388 2306 591 
Q 2528 794 2588 1216 
z
" transform="scale(0.015625)"/>
       <path id="ArialMT-29" d="M 791 -1347 
L 388 -1347 
Q 1322 153 1322 1656 
Q 1322 2244 1188 2822 
Q 1081 3291 891 3722 
Q 769 4003 388 4659 
L 791 4659 
Q 1378 3875 1659 3084 
Q 1900 2403 1900 1659 
Q 1900 816 1576 28 
Q 1253 -759 791 -1347 
z
" transform="scale(0.015625)"/>
      </defs>
      <use xlink:href="#ArialMT-45"/>
      <use xlink:href="#ArialMT-6c" transform="translate(66.699219 0)"/>
      <use xlink:href="#ArialMT-61" transform="translate(88.916016 0)"/>
      <use xlink:href="#ArialMT-70" transform="translate(144.53125 0)"/>
      <use xlink:href="#ArialMT-73" transform="translate(200.146484 0)"/>
      <use xlink:href="#ArialMT-65" transform="translate(250.146484 0)"/>
      <use xlink:href="#ArialMT-64" transform="translate(305.761719 0)"/>
      <use xlink:href="#ArialMT-20" transform="translate(361.376953 0)"/>
      <use xlink:href="#ArialMT-54" transform="translate(387.410156 0)"/>
      <use xlink:href="#ArialMT-69" transform="translate(444.744141 0)"/>
      <use xlink:href="#ArialMT-6d" transform="translate(466.960938 0)"/>
      <use xlink:href="#ArialMT-65" transform="translate(550.261719 0)"/>
      <use xlink:href="#ArialMT-20" transform="translate(605.876953 0)"/>
      <use xlink:href="#ArialMT-28" transform="translate(633.660156 0)"/>
      <use xlink:href="#ArialMT-73" transform="translate(666.960938 0)"/>
      <use xlink:href="#ArialMT-65" transform="translate(716.960938 0)"/>
      <use xlink:href="#ArialMT-63" transform="translate(772.576172 0)"/>
      <use xlink:href="#ArialMT-29" transform="translate(822.576172 0)"/>
     </g>
    </g>
   </g>
   <g id="matplotlib.axis_2">
    <g id="ytick_1">
     <g id="line2d_10">
      <path d="M 46.953125 232.362102 
L 435.351875 232.362102 
" clip-path="url(#p2faaaab8b5)" style="fill: none; stroke: #cccccc; stroke-opacity: 0.3; stroke-width: 0.8; stroke-linecap: round"/>
     </g>
     <g id="text_11">
      <!-- 0.66 -->
      <g style="fill: #262626" transform="translate(20.492188 235.941009) scale(0.1 -0.1)">
       <defs>
        <path id="ArialMT-2e" d="M 581 0 
L 581 641 
L 1222 641 
L 1222 0 
L 581 0 
z
" transform="scale(0.015625)"/>
        <path id="ArialMT-36" d="M 3184 3459 
L 2625 3416 
Q 2550 3747 2413 3897 
Q 2184 4138 1850 4138 
Q 1581 4138 1378 3988 
Q 1113 3794 959 3422 
Q 806 3050 800 2363 
Q 1003 2672 1297 2822 
Q 1591 2972 1913 2972 
Q 2475 2972 2870 2558 
Q 3266 2144 3266 1488 
Q 3266 1056 3080 686 
Q 2894 316 2569 119 
Q 2244 -78 1831 -78 
Q 1128 -78 684 439 
Q 241 956 241 2144 
Q 241 3472 731 4075 
Q 1159 4600 1884 4600 
Q 2425 4600 2770 4297 
Q 3116 3994 3184 3459 
z
M 888 1484 
Q 888 1194 1011 928 
Q 1134 663 1356 523 
Q 1578 384 1822 384 
Q 2178 384 2434 671 
Q 2691 959 2691 1453 
Q 2691 1928 2437 2201 
Q 2184 2475 1800 2475 
Q 1419 2475 1153 2201 
Q 888 1928 888 1484 
z
" transform="scale(0.015625)"/>
       </defs>
       <use xlink:href="#ArialMT-30"/>
       <use xlink:href="#ArialMT-2e" transform="translate(55.615234 0)"/>
       <use xlink:href="#ArialMT-36" transform="translate(83.398438 0)"/>
       <use xlink:href="#ArialMT-36" transform="translate(139.013672 0)"/>
      </g>
     </g>
    </g>
    <g id="ytick_2">
     <g id="line2d_11">
      <path d="M 46.953125 205.974542 
L 435.351875 205.974542 
" clip-path="url(#p2faaaab8b5)" style="fill: none; stroke: #cccccc; stroke-opacity: 0.3; stroke-width: 0.8; stroke-linecap: round"/>
     </g>
     <g id="text_12">
      <!-- 0.68 -->
      <g style="fill: #262626" transform="translate(20.492188 209.553449) scale(0.1 -0.1)">
       <defs>
        <path id="ArialMT-38" d="M 1131 2484 
Q 781 2613 612 2850 
Q 444 3088 444 3419 
Q 444 3919 803 4259 
Q 1163 4600 1759 4600 
Q 2359 4600 2725 4251 
Q 3091 3903 3091 3403 
Q 3091 3084 2923 2848 
Q 2756 2613 2416 2484 
Q 2838 2347 3058 2040 
Q 3278 1734 3278 1309 
Q 3278 722 2862 322 
Q 2447 -78 1769 -78 
Q 1091 -78 675 323 
Q 259 725 259 1325 
Q 259 1772 486 2073 
Q 713 2375 1131 2484 
z
M 1019 3438 
Q 1019 3113 1228 2906 
Q 1438 2700 1772 2700 
Q 2097 2700 2305 2904 
Q 2513 3109 2513 3406 
Q 2513 3716 2298 3927 
Q 2084 4138 1766 4138 
Q 1444 4138 1231 3931 
Q 1019 3725 1019 3438 
z
M 838 1322 
Q 838 1081 952 856 
Q 1066 631 1291 507 
Q 1516 384 1775 384 
Q 2178 384 2440 643 
Q 2703 903 2703 1303 
Q 2703 1709 2433 1975 
Q 2163 2241 1756 2241 
Q 1359 2241 1098 1978 
Q 838 1716 838 1322 
z
" transform="scale(0.015625)"/>
       </defs>
       <use xlink:href="#ArialMT-30"/>
       <use xlink:href="#ArialMT-2e" transform="translate(55.615234 0)"/>
       <use xlink:href="#ArialMT-36" transform="translate(83.398438 0)"/>
       <use xlink:href="#ArialMT-38" transform="translate(139.013672 0)"/>
      </g>
     </g>
    </g>
    <g id="ytick_3">
     <g id="line2d_12">
      <path d="M 46.953125 179.586983 
L 435.351875 179.586983 
" clip-path="url(#p2faaaab8b5)" style="fill: none; stroke: #cccccc; stroke-opacity: 0.3; stroke-width: 0.8; stroke-linecap: round"/>
     </g>
     <g id="text_13">
      <!-- 0.70 -->
      <g style="fill: #262626" transform="translate(20.492188 183.165889) scale(0.1 -0.1)">
       <use xlink:href="#ArialMT-30"/>
       <use xlink:href="#ArialMT-2e" transform="translate(55.615234 0)"/>
       <use xlink:href="#ArialMT-37" transform="translate(83.398438 0)"/>
       <use xlink:href="#ArialMT-30" transform="translate(139.013672 0)"/>
      </g>
     </g>
    </g>
    <g id="ytick_4">
     <g id="line2d_13">
      <path d="M 46.953125 153.199423 
L 435.351875 153.199423 
" clip-path="url(#p2faaaab8b5)" style="fill: none; stroke: #cccccc; stroke-opacity: 0.3; stroke-width: 0.8; stroke-linecap: round"/>
     </g>
     <g id="text_14">
      <!-- 0.72 -->
      <g style="fill: #262626" transform="translate(20.492188 156.778329) scale(0.1 -0.1)">
       <use xlink:href="#ArialMT-30"/>
       <use xlink:href="#ArialMT-2e" transform="translate(55.615234 0)"/>
       <use xlink:href="#ArialMT-37" transform="translate(83.398438 0)"/>
       <use xlink:href="#ArialMT-32" transform="translate(139.013672 0)"/>
      </g>
     </g>
    </g>
    <g id="ytick_5">
     <g id="line2d_14">
      <path d="M 46.953125 126.811863 
L 435.351875 126.811863 
" clip-path="url(#p2faaaab8b5)" style="fill: none; stroke: #cccccc; stroke-opacity: 0.3; stroke-width: 0.8; stroke-linecap: round"/>
     </g>
     <g id="text_15">
      <!-- 0.74 -->
      <g style="fill: #262626" transform="translate(20.492188 130.390769) scale(0.1 -0.1)">
       <defs>
        <path id="ArialMT-34" d="M 2069 0 
L 2069 1097 
L 81 1097 
L 81 1613 
L 2172 4581 
L 2631 4581 
L 2631 1613 
L 3250 1613 
L 3250 1097 
L 2631 1097 
L 2631 0 
L 2069 0 
z
M 2069 1613 
L 2069 3678 
L 634 1613 
L 2069 1613 
z
" transform="scale(0.015625)"/>
       </defs>
       <use xlink:href="#ArialMT-30"/>
       <use xlink:href="#ArialMT-2e" transform="translate(55.615234 0)"/>
       <use xlink:href="#ArialMT-37" transform="translate(83.398438 0)"/>
       <use xlink:href="#ArialMT-34" transform="translate(139.013672 0)"/>
      </g>
     </g>
    </g>
    <g id="ytick_6">
     <g id="line2d_15">
      <path d="M 46.953125 100.424303 
L 435.351875 100.424303 
" clip-path="url(#p2faaaab8b5)" style="fill: none; stroke: #cccccc; stroke-opacity: 0.3; stroke-width: 0.8; stroke-linecap: round"/>
     </g>
     <g id="text_16">
      <!-- 0.76 -->
      <g style="fill: #262626" transform="translate(20.492188 104.003209) scale(0.1 -0.1)">
       <use xlink:href="#ArialMT-30"/>
       <use xlink:href="#ArialMT-2e" transform="translate(55.615234 0)"/>
       <use xlink:href="#ArialMT-37" transform="translate(83.398438 0)"/>
       <use xlink:href="#ArialMT-36" transform="translate(139.013672 0)"/>
      </g>
     </g>
    </g>
    <g id="ytick_7">
     <g id="line2d_16">
      <path d="M 46.953125 74.036743 
L 435.351875 74.036743 
" clip-path="url(#p2faaaab8b5)" style="fill: none; stroke: #cccccc; stroke-opacity: 0.3; stroke-width: 0.8; stroke-linecap: round"/>
     </g>
     <g id="text_17">
      <!-- 0.78 -->
      <g style="fill: #262626" transform="translate(20.492188 77.61565) scale(0.1 -0.1)">
       <use xlink:href="#ArialMT-30"/>
       <use xlink:href="#ArialMT-2e" transform="translate(55.615234 0)"/>
       <use xlink:href="#ArialMT-37" transform="translate(83.398438 0)"/>
       <use xlink:href="#ArialMT-38" transform="translate(139.013672 0)"/>
      </g>
     </g>
    </g>
    <g id="ytick_8">
     <g id="line2d_17">
      <path d="M 46.953125 47.649184 
L 435.351875 47.649184 
" clip-path="url(#p2faaaab8b5)" style="fill: none; stroke: #cccccc; stroke-opacity: 0.3; stroke-width: 0.8; stroke-linecap: round"/>
     </g>
     <g id="text_18">
      <!-- 0.80 -->
      <g style="fill: #262626" transform="translate(20.492188 51.22809) scale(0.1 -0.1)">
       <use xlink:href="#ArialMT-30"/>
       <use xlink:href="#ArialMT-2e" transform="translate(55.615234 0)"/>
       <use xlink:href="#ArialMT-38" transform="translate(83.398438 0)"/>
       <use xlink:href="#ArialMT-30" transform="translate(139.013672 0)"/>
      </g>
     </g>
    </g>
    <g id="text_19">
     <!-- Mean pkg_j per 1s Bin -->
     <g style="fill: #262626" transform="translate(14.3875 181.837031) rotate(-90) scale(0.1 -0.1)">
      <defs>
       <path id="ArialMT-4d" d="M 475 0 
L 475 4581 
L 1388 4581 
L 2472 1338 
Q 2622 884 2691 659 
Q 2769 909 2934 1394 
L 4031 4581 
L 4847 4581 
L 4847 0 
L 4263 0 
L 4263 3834 
L 2931 0 
L 2384 0 
L 1059 3900 
L 1059 0 
L 475 0 
z
" transform="scale(0.015625)"/>
       <path id="ArialMT-6e" d="M 422 0 
L 422 3319 
L 928 3319 
L 928 2847 
Q 1294 3394 1984 3394 
Q 2284 3394 2536 3286 
Q 2788 3178 2913 3003 
Q 3038 2828 3088 2588 
Q 3119 2431 3119 2041 
L 3119 0 
L 2556 0 
L 2556 2019 
Q 2556 2363 2490 2533 
Q 2425 2703 2258 2804 
Q 2091 2906 1866 2906 
Q 1506 2906 1245 2678 
Q 984 2450 984 1813 
L 984 0 
L 422 0 
z
" transform="scale(0.015625)"/>
       <path id="ArialMT-6b" d="M 425 0 
L 425 4581 
L 988 4581 
L 988 1969 
L 2319 3319 
L 3047 3319 
L 1778 2088 
L 3175 0 
L 2481 0 
L 1384 1697 
L 988 1316 
L 988 0 
L 425 0 
z
" transform="scale(0.015625)"/>
       <path id="ArialMT-67" d="M 319 -275 
L 866 -356 
Q 900 -609 1056 -725 
Q 1266 -881 1628 -881 
Q 2019 -881 2231 -725 
Q 2444 -569 2519 -288 
Q 2563 -116 2559 434 
Q 2191 0 1641 0 
Q 956 0 581 494 
Q 206 988 206 1678 
Q 206 2153 378 2554 
Q 550 2956 876 3175 
Q 1203 3394 1644 3394 
Q 2231 3394 2613 2919 
L 2613 3319 
L 3131 3319 
L 3131 450 
Q 3131 -325 2973 -648 
Q 2816 -972 2473 -1159 
Q 2131 -1347 1631 -1347 
Q 1038 -1347 672 -1080 
Q 306 -813 319 -275 
z
M 784 1719 
Q 784 1066 1043 766 
Q 1303 466 1694 466 
Q 2081 466 2343 764 
Q 2606 1063 2606 1700 
Q 2606 2309 2336 2618 
Q 2066 2928 1684 2928 
Q 1309 2928 1046 2623 
Q 784 2319 784 1719 
z
" transform="scale(0.015625)"/>
       <path id="ArialMT-5f" d="M -97 -1272 
L -97 -866 
L 3631 -866 
L 3631 -1272 
L -97 -1272 
z
" transform="scale(0.015625)"/>
       <path id="ArialMT-6a" d="M 419 3928 
L 419 4581 
L 981 4581 
L 981 3928 
L 419 3928 
z
M -294 -1288 
L -188 -809 
Q -19 -853 78 -853 
Q 250 -853 334 -739 
Q 419 -625 419 -169 
L 419 3319 
L 981 3319 
L 981 -181 
Q 981 -794 822 -1034 
Q 619 -1347 147 -1347 
Q -81 -1347 -294 -1288 
z
" transform="scale(0.015625)"/>
       <path id="ArialMT-72" d="M 416 0 
L 416 3319 
L 922 3319 
L 922 2816 
Q 1116 3169 1280 3281 
Q 1444 3394 1641 3394 
Q 1925 3394 2219 3213 
L 2025 2691 
Q 1819 2813 1613 2813 
Q 1428 2813 1281 2702 
Q 1134 2591 1072 2394 
Q 978 2094 978 1738 
L 978 0 
L 416 0 
z
" transform="scale(0.015625)"/>
       <path id="ArialMT-42" d="M 469 0 
L 469 4581 
L 2188 4581 
Q 2713 4581 3030 4442 
Q 3347 4303 3526 4014 
Q 3706 3725 3706 3409 
Q 3706 3116 3547 2856 
Q 3388 2597 3066 2438 
Q 3481 2316 3704 2022 
Q 3928 1728 3928 1328 
Q 3928 1006 3792 729 
Q 3656 453 3456 303 
Q 3256 153 2954 76 
Q 2653 0 2216 0 
L 469 0 
z
M 1075 2656 
L 2066 2656 
Q 2469 2656 2644 2709 
Q 2875 2778 2992 2937 
Q 3109 3097 3109 3338 
Q 3109 3566 3000 3739 
Q 2891 3913 2687 3977 
Q 2484 4041 1991 4041 
L 1075 4041 
L 1075 2656 
z
M 1075 541 
L 2216 541 
Q 2509 541 2628 563 
Q 2838 600 2978 687 
Q 3119 775 3209 942 
Q 3300 1109 3300 1328 
Q 3300 1584 3169 1773 
Q 3038 1963 2805 2039 
Q 2572 2116 2134 2116 
L 1075 2116 
L 1075 541 
z
" transform="scale(0.015625)"/>
      </defs>
      <use xlink:href="#ArialMT-4d"/>
      <use xlink:href="#ArialMT-65" transform="translate(83.300781 0)"/>
      <use xlink:href="#ArialMT-61" transform="translate(138.916016 0)"/>
      <use xlink:href="#ArialMT-6e" transform="translate(194.53125 0)"/>
      <use xlink:href="#ArialMT-20" transform="translate(250.146484 0)"/>
      <use xlink:href="#ArialMT-70" transform="translate(277.929688 0)"/>
      <use xlink:href="#ArialMT-6b" transform="translate(333.544922 0)"/>
      <use xlink:href="#ArialMT-67" transform="translate(383.544922 0)"/>
      <use xlink:href="#ArialMT-5f" transform="translate(439.160156 0)"/>
      <use xlink:href="#ArialMT-6a" transform="translate(494.775391 0)"/>
      <use xlink:href="#ArialMT-20" transform="translate(516.992188 0)"/>
      <use xlink:href="#ArialMT-70" transform="translate(544.775391 0)"/>
      <use xlink:href="#ArialMT-65" transform="translate(600.390625 0)"/>
      <use xlink:href="#ArialMT-72" transform="translate(656.005859 0)"/>
      <use xlink:href="#ArialMT-20" transform="translate(689.306641 0)"/>
      <use xlink:href="#ArialMT-31" transform="translate(717.089844 0)"/>
      <use xlink:href="#ArialMT-73" transform="translate(772.705078 0)"/>
      <use xlink:href="#ArialMT-20" transform="translate(822.705078 0)"/>
      <use xlink:href="#ArialMT-42" transform="translate(850.488281 0)"/>
      <use xlink:href="#ArialMT-69" transform="translate(917.1875 0)"/>
      <use xlink:href="#ArialMT-6e" transform="translate(939.404297 0)"/>
     </g>
    </g>
   </g>
   <g id="line2d_18">
    <path d="M 46.953125 150.560667 
L 48.751267 41.052294 
L 50.54941 42.371672 
L 52.347552 52.926696 
L 55.943837 47.649184 
L 57.741979 52.926696 
L 61.338264 47.649184 
L 63.136406 46.329806 
L 66.732691 51.607318 
L 72.127118 51.607318 
L 73.92526 52.926696 
L 75.723403 48.968562 
L 77.521545 43.69105 
L 79.319688 43.69105 
L 81.11783 35.774782 
L 82.915972 46.329806 
L 84.714115 45.010428 
L 86.512257 42.371672 
L 88.310399 42.371672 
L 90.108542 46.329806 
L 91.906684 45.010428 
L 93.704826 46.329806 
L 95.502969 39.732916 
L 97.301111 45.010428 
L 99.099253 45.010428 
L 100.897396 46.329806 
L 102.695538 39.732916 
L 104.493681 44.717233 
L 106.291823 42.371672 
L 108.089965 42.371672 
L 109.888108 45.010428 
L 111.68625 41.052294 
L 113.484392 41.052294 
L 115.282535 38.413538 
L 117.080677 46.329806 
L 118.878819 39.732916 
L 120.676962 42.371672 
L 122.475104 48.968562 
L 124.273247 52.926696 
L 126.071389 42.371672 
L 127.869531 46.329806 
L 129.667674 46.329806 
L 131.465816 45.010428 
L 133.263958 45.010428 
L 135.062101 46.329806 
L 136.860243 46.329806 
L 138.658385 52.926696 
L 140.456528 42.371672 
L 142.25467 45.010428 
L 144.052813 43.69105 
L 145.850955 46.329806 
L 147.649097 42.371672 
L 149.44724 37.09416 
L 151.245382 43.69105 
L 153.043524 41.052294 
L 154.841667 45.010428 
L 156.639809 43.251257 
L 158.437951 43.69105 
L 160.236094 56.88483 
L 162.034236 54.246074 
L 163.832378 47.649184 
L 165.630521 38.413538 
L 167.428663 47.649184 
L 169.226806 47.649184 
L 172.82309 45.010428 
L 174.621233 42.371672 
L 176.419375 50.28794 
L 178.217517 48.968562 
L 180.01566 42.371672 
L 181.813802 45.010428 
L 183.611944 48.968562 
L 185.410087 51.607318 
L 187.208229 42.371672 
L 190.804514 45.010428 
L 192.602656 50.28794 
L 194.400799 39.732916 
L 196.198941 41.052294 
L 197.997083 41.052294 
L 199.795226 47.649184 
L 201.593368 46.329806 
L 205.189653 41.052294 
L 206.987795 45.010428 
L 208.785937 50.28794 
L 210.58408 45.010428 
L 212.382222 45.010428 
L 214.180365 35.921379 
L 215.978507 42.371672 
L 217.776649 39.732916 
L 219.574792 42.371672 
L 221.372934 46.329806 
L 223.171076 47.649184 
L 224.969219 52.926696 
L 226.767361 48.968562 
L 228.565503 48.968562 
L 230.363646 51.607318 
L 232.161788 47.649184 
L 233.959931 38.413538 
L 235.758073 38.413538 
L 237.556215 41.052294 
L 239.354358 37.09416 
L 241.1525 38.413538 
L 242.950642 42.371672 
L 244.748785 54.246074 
L 246.546927 51.607318 
L 248.345069 47.649184 
L 250.143212 48.968562 
L 251.941354 35.774782 
L 253.739497 38.413538 
L 255.537639 48.968562 
L 257.335781 54.246074 
L 259.133924 41.052294 
L 260.932066 42.371672 
L 262.730208 35.774782 
L 264.528351 41.052294 
L 266.326493 41.052294 
L 268.124635 48.968562 
L 269.922778 51.607318 
L 271.72092 45.010428 
L 273.519063 47.649184 
L 275.317205 49.115159 
L 277.115347 51.607318 
L 278.91349 50.28794 
L 280.711632 45.010428 
L 282.509774 38.413538 
L 284.307917 34.455404 
L 286.106059 52.926696 
L 287.904201 50.28794 
L 289.702344 31.816648 
L 291.500486 38.413538 
L 293.298628 39.732916 
L 295.096771 43.69105 
L 296.894913 39.732916 
L 298.693056 39.732916 
L 300.491198 41.052294 
L 302.28934 52.926696 
L 304.087483 48.968562 
L 305.885625 50.28794 
L 307.683767 46.329806 
L 309.48191 38.413538 
L 311.280052 38.413538 
L 313.078194 48.968562 
L 314.876337 45.010428 
L 316.674479 38.413538 
L 318.472622 38.413538 
L 320.270764 54.246074 
L 322.068906 50.28794 
L 323.867049 43.69105 
L 325.665191 41.052294 
L 327.463333 43.69105 
L 329.261476 41.052294 
L 331.059618 50.28794 
L 332.85776 51.607318 
L 334.655903 46.329806 
L 336.454045 45.010428 
L 338.252187 40.319306 
L 340.05033 45.010428 
L 341.848472 45.010428 
L 343.646615 46.329806 
L 345.444757 45.010428 
L 347.242899 45.010428 
L 349.041042 41.052294 
L 350.839184 46.329806 
L 352.637326 38.413538 
L 354.435469 38.413538 
L 356.233611 46.329806 
L 358.031753 51.607318 
L 359.829896 55.565452 
L 361.628038 55.565452 
L 363.426181 56.88483 
L 365.224323 54.246074 
L 367.022465 55.565452 
L 368.820608 41.052294 
L 370.61875 46.329806 
L 372.416892 35.774782 
L 374.215035 43.69105 
L 376.013177 48.968562 
L 377.811319 46.329806 
L 379.609462 48.968562 
L 381.407604 38.413538 
L 383.205747 43.69105 
L 385.003889 55.565452 
L 386.802031 51.607318 
L 388.600174 48.968562 
L 390.398316 50.28794 
L 392.196458 49.115159 
L 393.994601 52.926696 
L 395.792743 55.565452 
L 397.590885 52.926696 
L 399.389028 38.413538 
L 401.18717 45.010428 
L 402.985313 50.28794 
L 404.783455 52.926696 
L 406.581597 48.968562 
L 408.37974 41.052294 
L 410.177882 48.968562 
L 411.976024 55.565452 
L 413.774167 47.649184 
L 415.572309 43.69105 
L 417.370451 46.329806 
L 419.168594 55.565452 
L 420.966736 47.649184 
L 422.764878 45.010428 
L 424.563021 83.272389 
L 424.563021 83.272389 
" clip-path="url(#p2faaaab8b5)" style="fill: none; stroke: #1f77b4; stroke-width: 2; stroke-linecap: round"/>
   </g>
   <g id="line2d_19">
    <path d="M 46.953125 171.670715 
L 48.751267 59.523586 
L 50.54941 66.120475 
L 52.347552 71.397987 
L 55.943837 55.565452 
L 57.741979 56.88483 
L 59.540122 60.842964 
L 61.338264 66.120475 
L 64.934549 55.565452 
L 66.732691 56.88483 
L 68.530833 59.523586 
L 70.328976 58.204208 
L 72.127118 60.842964 
L 73.92526 52.926696 
L 75.723403 56.88483 
L 77.521545 55.565452 
L 79.319688 59.523586 
L 81.11783 55.565452 
L 82.915972 50.28794 
L 84.714115 54.246074 
L 86.512257 59.523586 
L 88.310399 59.523586 
L 90.108542 54.246074 
L 91.906684 50.28794 
L 95.502969 58.204208 
L 97.301111 54.246074 
L 99.099253 56.88483 
L 100.897396 54.246074 
L 102.695538 52.926696 
L 104.493681 46.183208 
L 106.291823 54.246074 
L 109.888108 54.246074 
L 111.68625 56.88483 
L 113.484392 52.926696 
L 115.282535 52.926696 
L 117.080677 47.649184 
L 118.878819 48.968562 
L 120.676962 51.607318 
L 122.475104 55.565452 
L 124.273247 50.28794 
L 126.071389 58.204208 
L 127.869531 50.28794 
L 129.667674 55.565452 
L 131.465816 52.926696 
L 133.263958 56.88483 
L 135.062101 56.88483 
L 136.860243 52.926696 
L 138.658385 50.28794 
L 140.456528 55.565452 
L 142.25467 56.88483 
L 144.052813 54.246074 
L 145.850955 50.28794 
L 147.649097 51.607318 
L 149.44724 54.246074 
L 151.245382 54.246074 
L 153.043524 56.88483 
L 154.841667 51.607318 
L 156.639809 50.581135 
L 158.437951 43.69105 
L 160.236094 54.246074 
L 162.034236 52.926696 
L 163.832378 47.649184 
L 165.630521 47.649184 
L 167.428663 52.926696 
L 169.226806 48.968562 
L 171.024948 54.246074 
L 172.82309 47.649184 
L 176.419375 55.565452 
L 178.217517 51.607318 
L 180.01566 50.28794 
L 181.813802 47.649184 
L 183.611944 56.88483 
L 185.410087 56.88483 
L 187.208229 52.926696 
L 189.006372 54.246074 
L 190.804514 52.926696 
L 192.602656 55.565452 
L 194.400799 50.28794 
L 196.198941 52.926696 
L 197.997083 51.607318 
L 199.795226 54.246074 
L 201.593368 55.565452 
L 203.39151 52.926696 
L 205.189653 47.649184 
L 206.987795 55.565452 
L 208.785937 52.926696 
L 210.58408 54.246074 
L 212.382222 54.246074 
L 214.180365 51.607318 
L 215.978507 56.445037 
L 217.776649 54.246074 
L 219.574792 55.565452 
L 221.372934 54.246074 
L 223.171076 56.88483 
L 224.969219 58.204208 
L 226.767361 58.204208 
L 228.565503 52.926696 
L 230.363646 52.926696 
L 232.161788 58.204208 
L 233.959931 52.926696 
L 235.758073 55.565452 
L 237.556215 52.926696 
L 239.354358 56.88483 
L 242.950642 56.88483 
L 244.748785 52.926696 
L 246.546927 54.246074 
L 248.345069 58.204208 
L 250.143212 55.565452 
L 251.941354 54.246074 
L 253.739497 59.523586 
L 255.537639 56.88483 
L 257.335781 51.607318 
L 259.133924 56.88483 
L 260.932066 56.88483 
L 262.730208 58.204208 
L 264.528351 50.28794 
L 266.326493 58.204208 
L 268.124635 51.607318 
L 269.922778 55.565452 
L 271.72092 52.926696 
L 273.519063 54.246074 
L 275.317205 47.649184 
L 277.115347 56.88483 
L 278.91349 57.911012 
L 280.711632 52.926696 
L 282.509774 56.88483 
L 284.307917 55.565452 
L 286.106059 55.565452 
L 287.904201 52.926696 
L 289.702344 55.565452 
L 291.500486 52.926696 
L 293.298628 56.88483 
L 295.096771 48.968562 
L 296.894913 56.88483 
L 298.693056 59.523586 
L 300.491198 54.246074 
L 302.28934 56.88483 
L 304.087483 51.607318 
L 305.885625 52.926696 
L 307.683767 51.607318 
L 309.48191 45.010428 
L 311.280052 55.565452 
L 313.078194 55.565452 
L 314.876337 48.968562 
L 316.674479 56.88483 
L 318.472622 52.926696 
L 320.270764 58.204208 
L 322.068906 58.204208 
L 323.867049 55.565452 
L 325.665191 58.204208 
L 329.261476 55.565452 
L 331.059618 52.926696 
L 332.85776 56.88483 
L 334.655903 55.565452 
L 336.454045 56.88483 
L 338.252187 52.04711 
L 340.05033 52.926696 
L 341.848472 51.607318 
L 343.646615 54.246074 
L 345.444757 58.204208 
L 347.242899 48.968562 
L 349.041042 55.565452 
L 350.839184 55.565452 
L 352.637326 54.246074 
L 354.435469 55.565452 
L 356.233611 55.565452 
L 358.031753 54.246074 
L 359.829896 56.88483 
L 361.628038 51.607318 
L 363.426181 52.926696 
L 365.224323 50.28794 
L 367.022465 56.88483 
L 368.820608 58.204208 
L 370.61875 46.329806 
L 372.416892 54.246074 
L 374.215035 56.88483 
L 376.013177 54.246074 
L 377.811319 58.204208 
L 381.407604 55.565452 
L 385.003889 58.204208 
L 386.802031 54.246074 
L 388.600174 51.607318 
L 390.398316 55.565452 
L 392.196458 56.88483 
L 393.994601 53.513086 
L 395.792743 56.88483 
L 397.590885 52.926696 
L 399.389028 55.565452 
L 401.18717 55.565452 
L 402.985313 60.842964 
L 404.783455 52.926696 
L 406.581597 55.565452 
L 408.37974 54.246074 
L 410.177882 54.246074 
L 411.976024 55.565452 
L 413.774167 58.204208 
L 415.572309 55.565452 
L 417.370451 56.88483 
L 419.168594 56.88483 
L 422.764878 54.246074 
L 424.563021 46.329806 
L 426.361163 58.204208 
L 428.159306 52.926696 
L 429.957448 56.88483 
L 431.75559 50.28794 
L 433.553733 55.565452 
L 435.351875 95.146791 
L 435.351875 95.146791 
" clip-path="url(#p2faaaab8b5)" style="fill: none; stroke: #ff7f0e; stroke-width: 2; stroke-linecap: round"/>
   </g>
   <g id="patch_3">
    <path d="M 46.953125 242.389375 
L 46.953125 21.789375 
" style="fill: none; stroke: #cccccc; stroke-width: 0.8; stroke-linejoin: miter; stroke-linecap: square"/>
   </g>
   <g id="patch_4">
    <path d="M 435.351875 242.389375 
L 435.351875 21.789375 
" style="fill: none; stroke: #cccccc; stroke-width: 0.8; stroke-linejoin: miter; stroke-linecap: square"/>
   </g>
   <g id="patch_5">
    <path d="M 46.953125 242.389375 
L 435.351875 242.389375 
" style="fill: none; stroke: #cccccc; stroke-width: 0.8; stroke-linejoin: miter; stroke-linecap: square"/>
   </g>
   <g id="patch_6">
    <path d="M 46.953125 21.789375 
L 435.351875 21.789375 
" style="fill: none; stroke: #cccccc; stroke-width: 0.8; stroke-linejoin: miter; stroke-linecap: square"/>
   </g>
   <g id="text_20">
    <!-- APX1173 — PC1 all cores -->
    <g style="fill: #262626" transform="translate(171.229062 15.789375) scale(0.12 -0.12)">
     <defs>
      <path id="ArialMT-41" d="M -9 0 
L 1750 4581 
L 2403 4581 
L 4278 0 
L 3588 0 
L 3053 1388 
L 1138 1388 
L 634 0 
L -9 0 
z
M 1313 1881 
L 2866 1881 
L 2388 3150 
Q 2169 3728 2063 4100 
Q 1975 3659 1816 3225 
L 1313 1881 
z
" transform="scale(0.015625)"/>
      <path id="ArialMT-50" d="M 494 0 
L 494 4581 
L 2222 4581 
Q 2678 4581 2919 4538 
Q 3256 4481 3484 4323 
Q 3713 4166 3852 3881 
Q 3991 3597 3991 3256 
Q 3991 2672 3619 2267 
Q 3247 1863 2275 1863 
L 1100 1863 
L 1100 0 
L 494 0 
z
M 1100 2403 
L 2284 2403 
Q 2872 2403 3119 2622 
Q 3366 2841 3366 3238 
Q 3366 3525 3220 3729 
Q 3075 3934 2838 4000 
Q 2684 4041 2272 4041 
L 1100 4041 
L 1100 2403 
z
" transform="scale(0.015625)"/>
      <path id="ArialMT-58" d="M 28 0 
L 1800 2388 
L 238 4581 
L 959 4581 
L 1791 3406 
Q 2050 3041 2159 2844 
Q 2313 3094 2522 3366 
L 3444 4581 
L 4103 4581 
L 2494 2422 
L 4228 0 
L 3478 0 
L 2325 1634 
Q 2228 1775 2125 1941 
Q 1972 1691 1906 1597 
L 756 0 
L 28 0 
z
" transform="scale(0.015625)"/>
      <path id="ArialMT-33" d="M 269 1209 
L 831 1284 
Q 928 806 1161 595 
Q 1394 384 1728 384 
Q 2125 384 2398 659 
Q 2672 934 2672 1341 
Q 2672 1728 2419 1979 
Q 2166 2231 1775 2231 
Q 1616 2231 1378 2169 
L 1441 2663 
Q 1497 2656 1531 2656 
Q 1891 2656 2178 2843 
Q 2466 3031 2466 3422 
Q 2466 3731 2256 3934 
Q 2047 4138 1716 4138 
Q 1388 4138 1169 3931 
Q 950 3725 888 3313 
L 325 3413 
Q 428 3978 793 4289 
Q 1159 4600 1703 4600 
Q 2078 4600 2393 4439 
Q 2709 4278 2876 4000 
Q 3044 3722 3044 3409 
Q 3044 3113 2884 2869 
Q 2725 2625 2413 2481 
Q 2819 2388 3044 2092 
Q 3269 1797 3269 1353 
Q 3269 753 2831 336 
Q 2394 -81 1725 -81 
Q 1122 -81 723 278 
Q 325 638 269 1209 
z
" transform="scale(0.015625)"/>
      <path id="ArialMT-2014" d="M 0 1431 
L 0 1884 
L 6400 1884 
L 6400 1431 
L 0 1431 
z
" transform="scale(0.015625)"/>
      <path id="ArialMT-43" d="M 3763 1606 
L 4369 1453 
Q 4178 706 3683 314 
Q 3188 -78 2472 -78 
Q 1731 -78 1267 223 
Q 803 525 561 1097 
Q 319 1669 319 2325 
Q 319 3041 592 3573 
Q 866 4106 1370 4382 
Q 1875 4659 2481 4659 
Q 3169 4659 3637 4309 
Q 4106 3959 4291 3325 
L 3694 3184 
Q 3534 3684 3231 3912 
Q 2928 4141 2469 4141 
Q 1941 4141 1586 3887 
Q 1231 3634 1087 3207 
Q 944 2781 944 2328 
Q 944 1744 1114 1308 
Q 1284 872 1643 656 
Q 2003 441 2422 441 
Q 2931 441 3284 734 
Q 3638 1028 3763 1606 
z
" transform="scale(0.015625)"/>
      <path id="ArialMT-6f" d="M 213 1659 
Q 213 2581 725 3025 
Q 1153 3394 1769 3394 
Q 2453 3394 2887 2945 
Q 3322 2497 3322 1706 
Q 3322 1066 3130 698 
Q 2938 331 2570 128 
Q 2203 -75 1769 -75 
Q 1072 -75 642 372 
Q 213 819 213 1659 
z
M 791 1659 
Q 791 1022 1069 705 
Q 1347 388 1769 388 
Q 2188 388 2466 706 
Q 2744 1025 2744 1678 
Q 2744 2294 2464 2611 
Q 2184 2928 1769 2928 
Q 1347 2928 1069 2612 
Q 791 2297 791 1659 
z
" transform="scale(0.015625)"/>
     </defs>
     <use xlink:href="#ArialMT-41"/>
     <use xlink:href="#ArialMT-50" transform="translate(66.699219 0)"/>
     <use xlink:href="#ArialMT-58" transform="translate(133.398438 0)"/>
     <use xlink:href="#ArialMT-31" transform="translate(200.097656 0)"/>
     <use xlink:href="#ArialMT-31" transform="translate(248.337891 0)"/>
     <use xlink:href="#ArialMT-37" transform="translate(303.953125 0)"/>
     <use xlink:href="#ArialMT-33" transform="translate(359.568359 0)"/>
     <use xlink:href="#ArialMT-20" transform="translate(415.183594 0)"/>
     <use xlink:href="#ArialMT-2014" transform="translate(442.966797 0)"/>
     <use xlink:href="#ArialMT-20" transform="translate(542.966797 0)"/>
     <use xlink:href="#ArialMT-50" transform="translate(570.75 0)"/>
     <use xlink:href="#ArialMT-43" transform="translate(637.449219 0)"/>
     <use xlink:href="#ArialMT-31" transform="translate(709.666016 0)"/>
     <use xlink:href="#ArialMT-20" transform="translate(765.28125 0)"/>
     <use xlink:href="#ArialMT-61" transform="translate(793.064453 0)"/>
     <use xlink:href="#ArialMT-6c" transform="translate(848.679688 0)"/>
     <use xlink:href="#ArialMT-6c" transform="translate(870.896484 0)"/>
     <use xlink:href="#ArialMT-20" transform="translate(893.113281 0)"/>
     <use xlink:href="#ArialMT-63" transform="translate(920.896484 0)"/>
     <use xlink:href="#ArialMT-6f" transform="translate(970.896484 0)"/>
     <use xlink:href="#ArialMT-72" transform="translate(1026.511719 0)"/>
     <use xlink:href="#ArialMT-65" transform="translate(1059.8125 0)"/>
     <use xlink:href="#ArialMT-73" transform="translate(1115.427734 0)"/>
    </g>
   </g>
   <g id="legend_1">
    <g id="patch_7">
     <path d="M 53.953125 237.389375 
L 117.635938 237.389375 
Q 119.635938 237.389375 119.635938 235.389375 
L 119.635938 207.864375 
Q 119.635938 205.864375 117.635938 205.864375 
L 53.953125 205.864375 
Q 51.953125 205.864375 51.953125 207.864375 
L 51.953125 235.389375 
Q 51.953125 237.389375 53.953125 237.389375 
z
" style="fill: #ffffff; opacity: 0.8; stroke: #cccccc; stroke-linejoin: miter"/>
    </g>
    <g id="line2d_20">
     <path d="M 55.953125 213.522188 
L 65.953125 213.522188 
L 75.953125 213.522188 
" style="fill: none; stroke: #1f77b4; stroke-width: 2; stroke-linecap: round"/>
    </g>
    <g id="text_21">
     <!-- queryA -->
     <g style="fill: #262626" transform="translate(83.953125 217.022188) scale(0.1 -0.1)">
      <defs>
       <path id="ArialMT-71" d="M 2538 -1272 
L 2538 353 
Q 2406 169 2170 47 
Q 1934 -75 1669 -75 
Q 1078 -75 651 397 
Q 225 869 225 1691 
Q 225 2191 398 2587 
Q 572 2984 901 3189 
Q 1231 3394 1625 3394 
Q 2241 3394 2594 2875 
L 2594 3319 
L 3100 3319 
L 3100 -1272 
L 2538 -1272 
z
M 803 1669 
Q 803 1028 1072 708 
Q 1341 388 1716 388 
Q 2075 388 2334 692 
Q 2594 997 2594 1619 
Q 2594 2281 2320 2615 
Q 2047 2950 1678 2950 
Q 1313 2950 1058 2639 
Q 803 2328 803 1669 
z
" transform="scale(0.015625)"/>
       <path id="ArialMT-75" d="M 2597 0 
L 2597 488 
Q 2209 -75 1544 -75 
Q 1250 -75 995 37 
Q 741 150 617 320 
Q 494 491 444 738 
Q 409 903 409 1263 
L 409 3319 
L 972 3319 
L 972 1478 
Q 972 1038 1006 884 
Q 1059 663 1231 536 
Q 1403 409 1656 409 
Q 1909 409 2131 539 
Q 2353 669 2445 892 
Q 2538 1116 2538 1541 
L 2538 3319 
L 3100 3319 
L 3100 0 
L 2597 0 
z
" transform="scale(0.015625)"/>
       <path id="ArialMT-79" d="M 397 -1278 
L 334 -750 
Q 519 -800 656 -800 
Q 844 -800 956 -737 
Q 1069 -675 1141 -563 
Q 1194 -478 1313 -144 
Q 1328 -97 1363 -6 
L 103 3319 
L 709 3319 
L 1400 1397 
Q 1534 1031 1641 628 
Q 1738 1016 1872 1384 
L 2581 3319 
L 3144 3319 
L 1881 -56 
Q 1678 -603 1566 -809 
Q 1416 -1088 1222 -1217 
Q 1028 -1347 759 -1347 
Q 597 -1347 397 -1278 
z
" transform="scale(0.015625)"/>
      </defs>
      <use xlink:href="#ArialMT-71"/>
      <use xlink:href="#ArialMT-75" transform="translate(55.615234 0)"/>
      <use xlink:href="#ArialMT-65" transform="translate(111.230469 0)"/>
      <use xlink:href="#ArialMT-72" transform="translate(166.845703 0)"/>
      <use xlink:href="#ArialMT-79" transform="translate(200.146484 0)"/>
      <use xlink:href="#ArialMT-41" transform="translate(250.146484 0)"/>
     </g>
    </g>
    <g id="line2d_21">
     <path d="M 55.953125 227.784688 
L 65.953125 227.784688 
L 75.953125 227.784688 
" style="fill: none; stroke: #ff7f0e; stroke-width: 2; stroke-linecap: round"/>
    </g>
    <g id="text_22">
     <!-- queryB -->
     <g style="fill: #262626" transform="translate(83.953125 231.284688) scale(0.1 -0.1)">
      <use xlink:href="#ArialMT-71"/>
      <use xlink:href="#ArialMT-75" transform="translate(55.615234 0)"/>
      <use xlink:href="#ArialMT-65" transform="translate(111.230469 0)"/>
      <use xlink:href="#ArialMT-72" transform="translate(166.845703 0)"/>
      <use xlink:href="#ArialMT-79" transform="translate(200.146484 0)"/>
      <use xlink:href="#ArialMT-42" transform="translate(250.146484 0)"/>
     </g>
    </g>
   </g>
  </g>
  <g id="axes_2">
   <g id="patch_8">
    <path d="M 460.333125 242.389375 
L 848.731875 242.389375 
L 848.731875 21.789375 
L 460.333125 21.789375 
z
" style="fill: #ffffff"/>
   </g>
   <g id="matplotlib.axis_3">
    <g id="xtick_10">
     <g id="line2d_22">
      <path d="M 460.333125 242.389375 
L 460.333125 21.789375 
" clip-path="url(#p0a22e88c8b)" style="fill: none; stroke: #cccccc; stroke-opacity: 0.3; stroke-width: 0.8; stroke-linecap: round"/>
     </g>
     <g id="text_23">
      <!-- 0 -->
      <g style="fill: #262626" transform="translate(457.552656 256.547188) scale(0.1 -0.1)">
       <use xlink:href="#ArialMT-30"/>
      </g>
     </g>
    </g>
    <g id="xtick_11">
     <g id="line2d_23">
      <path d="M 505.286684 242.389375 
L 505.286684 21.789375 
" clip-path="url(#p0a22e88c8b)" style="fill: none; stroke: #cccccc; stroke-opacity: 0.3; stroke-width: 0.8; stroke-linecap: round"/>
     </g>
     <g id="text_24">
      <!-- 25 -->
      <g style="fill: #262626" transform="translate(499.725747 256.547188) scale(0.1 -0.1)">
       <use xlink:href="#ArialMT-32"/>
       <use xlink:href="#ArialMT-35" transform="translate(55.615234 0)"/>
      </g>
     </g>
    </g>
    <g id="xtick_12">
     <g id="line2d_24">
      <path d="M 550.240243 242.389375 
L 550.240243 21.789375 
" clip-path="url(#p0a22e88c8b)" style="fill: none; stroke: #cccccc; stroke-opacity: 0.3; stroke-width: 0.8; stroke-linecap: round"/>
     </g>
     <g id="text_25">
      <!-- 50 -->
      <g style="fill: #262626" transform="translate(544.679306 256.547188) scale(0.1 -0.1)">
       <use xlink:href="#ArialMT-35"/>
       <use xlink:href="#ArialMT-30" transform="translate(55.615234 0)"/>
      </g>
     </g>
    </g>
    <g id="xtick_13">
     <g id="line2d_25">
      <path d="M 595.193802 242.389375 
L 595.193802 21.789375 
" clip-path="url(#p0a22e88c8b)" style="fill: none; stroke: #cccccc; stroke-opacity: 0.3; stroke-width: 0.8; stroke-linecap: round"/>
     </g>
     <g id="text_26">
      <!-- 75 -->
      <g style="fill: #262626" transform="translate(589.632865 256.547188) scale(0.1 -0.1)">
       <use xlink:href="#ArialMT-37"/>
       <use xlink:href="#ArialMT-35" transform="translate(55.615234 0)"/>
      </g>
     </g>
    </g>
    <g id="xtick_14">
     <g id="line2d_26">
      <path d="M 640.147361 242.389375 
L 640.147361 21.789375 
" clip-path="url(#p0a22e88c8b)" style="fill: none; stroke: #cccccc; stroke-opacity: 0.3; stroke-width: 0.8; stroke-linecap: round"/>
     </g>
     <g id="text_27">
      <!-- 100 -->
      <g style="fill: #262626" transform="translate(631.805955 256.547188) scale(0.1 -0.1)">
       <use xlink:href="#ArialMT-31"/>
       <use xlink:href="#ArialMT-30" transform="translate(55.615234 0)"/>
       <use xlink:href="#ArialMT-30" transform="translate(111.230469 0)"/>
      </g>
     </g>
    </g>
    <g id="xtick_15">
     <g id="line2d_27">
      <path d="M 685.10092 242.389375 
L 685.10092 21.789375 
" clip-path="url(#p0a22e88c8b)" style="fill: none; stroke: #cccccc; stroke-opacity: 0.3; stroke-width: 0.8; stroke-linecap: round"/>
     </g>
     <g id="text_28">
      <!-- 125 -->
      <g style="fill: #262626" transform="translate(676.759514 256.547188) scale(0.1 -0.1)">
       <use xlink:href="#ArialMT-31"/>
       <use xlink:href="#ArialMT-32" transform="translate(55.615234 0)"/>
       <use xlink:href="#ArialMT-35" transform="translate(111.230469 0)"/>
      </g>
     </g>
    </g>
    <g id="xtick_16">
     <g id="line2d_28">
      <path d="M 730.054479 242.389375 
L 730.054479 21.789375 
" clip-path="url(#p0a22e88c8b)" style="fill: none; stroke: #cccccc; stroke-opacity: 0.3; stroke-width: 0.8; stroke-linecap: round"/>
     </g>
     <g id="text_29">
      <!-- 150 -->
      <g style="fill: #262626" transform="translate(721.713073 256.547188) scale(0.1 -0.1)">
       <use xlink:href="#ArialMT-31"/>
       <use xlink:href="#ArialMT-35" transform="translate(55.615234 0)"/>
       <use xlink:href="#ArialMT-30" transform="translate(111.230469 0)"/>
      </g>
     </g>
    </g>
    <g id="xtick_17">
     <g id="line2d_29">
      <path d="M 775.008038 242.389375 
L 775.008038 21.789375 
" clip-path="url(#p0a22e88c8b)" style="fill: none; stroke: #cccccc; stroke-opacity: 0.3; stroke-width: 0.8; stroke-linecap: round"/>
     </g>
     <g id="text_30">
      <!-- 175 -->
      <g style="fill: #262626" transform="translate(766.666632 256.547188) scale(0.1 -0.1)">
       <use xlink:href="#ArialMT-31"/>
       <use xlink:href="#ArialMT-37" transform="translate(55.615234 0)"/>
       <use xlink:href="#ArialMT-35" transform="translate(111.230469 0)"/>
      </g>
     </g>
    </g>
    <g id="xtick_18">
     <g id="line2d_30">
      <path d="M 819.961597 242.389375 
L 819.961597 21.789375 
" clip-path="url(#p0a22e88c8b)" style="fill: none; stroke: #cccccc; stroke-opacity: 0.3; stroke-width: 0.8; stroke-linecap: round"/>
     </g>
     <g id="text_31">
      <!-- 200 -->
      <g style="fill: #262626" transform="translate(811.620191 256.547188) scale(0.1 -0.1)">
       <use xlink:href="#ArialMT-32"/>
       <use xlink:href="#ArialMT-30" transform="translate(55.615234 0)"/>
       <use xlink:href="#ArialMT-30" transform="translate(111.230469 0)"/>
      </g>
     </g>
    </g>
    <g id="text_32">
     <!-- Elapsed Time (sec) -->
     <g style="fill: #262626" transform="translate(611.741094 269.814375) scale(0.1 -0.1)">
      <use xlink:href="#ArialMT-45"/>
      <use xlink:href="#ArialMT-6c" transform="translate(66.699219 0)"/>
      <use xlink:href="#ArialMT-61" transform="translate(88.916016 0)"/>
      <use xlink:href="#ArialMT-70" transform="translate(144.53125 0)"/>
      <use xlink:href="#ArialMT-73" transform="translate(200.146484 0)"/>
      <use xlink:href="#ArialMT-65" transform="translate(250.146484 0)"/>
      <use xlink:href="#ArialMT-64" transform="translate(305.761719 0)"/>
      <use xlink:href="#ArialMT-20" transform="translate(361.376953 0)"/>
      <use xlink:href="#ArialMT-54" transform="translate(387.410156 0)"/>
      <use xlink:href="#ArialMT-69" transform="translate(444.744141 0)"/>
      <use xlink:href="#ArialMT-6d" transform="translate(466.960938 0)"/>
      <use xlink:href="#ArialMT-65" transform="translate(550.261719 0)"/>
      <use xlink:href="#ArialMT-20" transform="translate(605.876953 0)"/>
      <use xlink:href="#ArialMT-28" transform="translate(633.660156 0)"/>
      <use xlink:href="#ArialMT-73" transform="translate(666.960938 0)"/>
      <use xlink:href="#ArialMT-65" transform="translate(716.960938 0)"/>
      <use xlink:href="#ArialMT-63" transform="translate(772.576172 0)"/>
      <use xlink:href="#ArialMT-29" transform="translate(822.576172 0)"/>
     </g>
    </g>
   </g>
   <g id="matplotlib.axis_4">
    <g id="ytick_9">
     <g id="line2d_31">
      <path d="M 460.333125 232.362102 
L 848.731875 232.362102 
" clip-path="url(#p0a22e88c8b)" style="fill: none; stroke: #cccccc; stroke-opacity: 0.3; stroke-width: 0.8; stroke-linecap: round"/>
     </g>
    </g>
    <g id="ytick_10">
     <g id="line2d_32">
      <path d="M 460.333125 205.974542 
L 848.731875 205.974542 
" clip-path="url(#p0a22e88c8b)" style="fill: none; stroke: #cccccc; stroke-opacity: 0.3; stroke-width: 0.8; stroke-linecap: round"/>
     </g>
    </g>
    <g id="ytick_11">
     <g id="line2d_33">
      <path d="M 460.333125 179.586983 
L 848.731875 179.586983 
" clip-path="url(#p0a22e88c8b)" style="fill: none; stroke: #cccccc; stroke-opacity: 0.3; stroke-width: 0.8; stroke-linecap: round"/>
     </g>
    </g>
    <g id="ytick_12">
     <g id="line2d_34">
      <path d="M 460.333125 153.199423 
L 848.731875 153.199423 
" clip-path="url(#p0a22e88c8b)" style="fill: none; stroke: #cccccc; stroke-opacity: 0.3; stroke-width: 0.8; stroke-linecap: round"/>
     </g>
    </g>
    <g id="ytick_13">
     <g id="line2d_35">
      <path d="M 460.333125 126.811863 
L 848.731875 126.811863 
" clip-path="url(#p0a22e88c8b)" style="fill: none; stroke: #cccccc; stroke-opacity: 0.3; stroke-width: 0.8; stroke-linecap: round"/>
     </g>
    </g>
    <g id="ytick_14">
     <g id="line2d_36">
      <path d="M 460.333125 100.424303 
L 848.731875 100.424303 
" clip-path="url(#p0a22e88c8b)" style="fill: none; stroke: #cccccc; stroke-opacity: 0.3; stroke-width: 0.8; stroke-linecap: round"/>
     </g>
    </g>
    <g id="ytick_15">
     <g id="line2d_37">
      <path d="M 460.333125 74.036743 
L 848.731875 74.036743 
" clip-path="url(#p0a22e88c8b)" style="fill: none; stroke: #cccccc; stroke-opacity: 0.3; stroke-width: 0.8; stroke-linecap: round"/>
     </g>
    </g>
    <g id="ytick_16">
     <g id="line2d_38">
      <path d="M 460.333125 47.649184 
L 848.731875 47.649184 
" clip-path="url(#p0a22e88c8b)" style="fill: none; stroke: #cccccc; stroke-opacity: 0.3; stroke-width: 0.8; stroke-linecap: round"/>
     </g>
    </g>
    <g id="text_33">
     <!-- Mean pkg_j per 1s Bin -->
     <g style="fill: #262626" transform="translate(454.228438 181.837031) rotate(-90) scale(0.1 -0.1)">
      <use xlink:href="#ArialMT-4d"/>
      <use xlink:href="#ArialMT-65" transform="translate(83.300781 0)"/>
      <use xlink:href="#ArialMT-61" transform="translate(138.916016 0)"/>
      <use xlink:href="#ArialMT-6e" transform="translate(194.53125 0)"/>
      <use xlink:href="#ArialMT-20" transform="translate(250.146484 0)"/>
      <use xlink:href="#ArialMT-70" transform="translate(277.929688 0)"/>
      <use xlink:href="#ArialMT-6b" transform="translate(333.544922 0)"/>
      <use xlink:href="#ArialMT-67" transform="translate(383.544922 0)"/>
      <use xlink:href="#ArialMT-5f" transform="translate(439.160156 0)"/>
      <use xlink:href="#ArialMT-6a" transform="translate(494.775391 0)"/>
      <use xlink:href="#ArialMT-20" transform="translate(516.992188 0)"/>
      <use xlink:href="#ArialMT-70" transform="translate(544.775391 0)"/>
      <use xlink:href="#ArialMT-65" transform="translate(600.390625 0)"/>
      <use xlink:href="#ArialMT-72" transform="translate(656.005859 0)"/>
      <use xlink:href="#ArialMT-20" transform="translate(689.306641 0)"/>
      <use xlink:href="#ArialMT-31" transform="translate(717.089844 0)"/>
      <use xlink:href="#ArialMT-73" transform="translate(772.705078 0)"/>
      <use xlink:href="#ArialMT-20" transform="translate(822.705078 0)"/>
      <use xlink:href="#ArialMT-42" transform="translate(850.488281 0)"/>
      <use xlink:href="#ArialMT-69" transform="translate(917.1875 0)"/>
      <use xlink:href="#ArialMT-6e" transform="translate(939.404297 0)"/>
     </g>
    </g>
   </g>
   <g id="line2d_39">
    <path d="M 460.333125 155.838179 
L 462.131267 140.005643 
L 463.92941 128.131241 
L 465.727552 136.047509 
L 467.525694 134.728131 
L 469.323837 137.366887 
L 471.121979 130.769997 
L 472.920122 136.047509 
L 474.718264 129.450619 
L 476.516406 126.811863 
L 480.112691 124.173107 
L 481.910833 120.214973 
L 483.708976 132.089375 
L 485.507118 120.214973 
L 487.30526 128.131241 
L 489.103403 119.481985 
L 490.901545 124.173107 
L 492.699688 125.492485 
L 494.49783 125.492485 
L 496.295972 124.173107 
L 498.094115 124.173107 
L 499.892257 120.214973 
L 501.690399 124.173107 
L 503.488542 122.853729 
L 505.286684 128.131241 
L 507.084826 121.534351 
L 508.882969 124.173107 
L 510.681111 122.853729 
L 514.277396 122.853729 
L 517.873681 120.214973 
L 525.06625 125.492485 
L 526.864392 121.534351 
L 528.662535 118.01601 
L 530.460677 121.534351 
L 532.258819 125.492485 
L 534.056962 124.173107 
L 535.855104 125.492485 
L 537.653247 121.534351 
L 539.451389 118.895595 
L 541.249531 122.853729 
L 543.047674 116.256839 
L 544.845816 122.853729 
L 546.643958 121.534351 
L 548.442101 118.895595 
L 552.038385 121.534351 
L 553.836528 114.937461 
L 555.63467 116.256839 
L 557.432813 118.895595 
L 559.230955 117.576217 
L 561.029097 122.853729 
L 562.82724 114.937461 
L 564.625382 125.492485 
L 566.423524 116.550034 
L 568.221667 116.256839 
L 570.019809 113.618083 
L 571.817951 122.853729 
L 575.414236 120.214973 
L 577.212378 125.492485 
L 579.010521 108.340571 
L 580.808663 112.298705 
L 584.404948 112.298705 
L 586.20309 109.659949 
L 588.001233 112.298705 
L 589.799375 110.979327 
L 593.39566 116.256839 
L 595.193802 122.853729 
L 596.991944 125.492485 
L 598.790087 122.853729 
L 600.588229 124.173107 
L 602.386372 121.534351 
L 604.184514 121.534351 
L 605.982656 122.853729 
L 607.780799 128.131241 
L 609.578941 121.534351 
L 611.377083 119.481985 
L 613.175226 126.811863 
L 614.973368 118.895595 
L 616.77151 122.853729 
L 618.569653 121.534351 
L 620.367795 124.173107 
L 622.165938 120.214973 
L 623.96408 121.534351 
L 625.762222 120.214973 
L 627.560365 122.853729 
L 629.358507 120.214973 
L 631.156649 118.895595 
L 632.954792 122.853729 
L 634.752934 118.895595 
L 636.551076 122.853729 
L 638.349219 116.256839 
L 640.147361 120.214973 
L 641.945503 118.895595 
L 643.743646 116.256839 
L 645.541788 122.413936 
L 647.339931 118.895595 
L 650.936215 118.895595 
L 652.734358 117.576217 
L 654.5325 117.576217 
L 656.330642 120.214973 
L 658.128785 116.256839 
L 659.926927 120.214973 
L 661.725069 116.256839 
L 663.523212 122.853729 
L 665.321354 120.214973 
L 667.119497 118.895595 
L 668.917639 116.256839 
L 670.715781 116.256839 
L 672.513924 110.979327 
L 674.312066 118.895595 
L 676.110208 122.853729 
L 677.908351 122.853729 
L 679.706493 117.576217 
L 681.504635 121.534351 
L 683.302778 122.413936 
L 685.10092 124.173107 
L 686.899063 121.534351 
L 688.697205 116.256839 
L 690.495347 112.298705 
L 692.29349 118.895595 
L 694.091632 117.576217 
L 695.889774 114.937461 
L 697.687917 118.895595 
L 699.486059 114.937461 
L 701.284201 121.534351 
L 703.082344 113.618083 
L 704.880486 117.576217 
L 706.678628 120.214973 
L 708.476771 113.618083 
L 710.274913 116.256839 
L 712.073056 121.534351 
L 713.871198 121.534351 
L 715.66934 117.576217 
L 717.467483 120.214973 
L 719.265625 114.937461 
L 721.063767 118.895595 
L 722.86191 112.152108 
L 724.660052 118.895595 
L 726.458194 114.937461 
L 728.256337 117.576217 
L 730.054479 117.576217 
L 731.852622 120.214973 
L 733.650764 116.256839 
L 735.448906 113.618083 
L 737.247049 118.895595 
L 739.045191 113.618083 
L 740.843333 117.576217 
L 742.641476 117.576217 
L 746.23776 125.492485 
L 748.035903 118.895595 
L 749.834045 117.576217 
L 753.43033 122.853729 
L 755.228472 121.534351 
L 757.026615 121.534351 
L 758.824757 120.214973 
L 760.622899 121.534351 
L 762.421042 112.152108 
L 764.219184 109.659949 
L 769.613611 109.659949 
L 771.411753 108.340571 
L 773.209896 105.701815 
L 775.008038 108.340571 
L 776.806181 108.340571 
L 778.604323 116.256839 
L 780.402465 113.618083 
L 782.200608 114.937461 
L 783.99875 121.534351 
L 785.796892 120.214973 
L 787.595035 117.576217 
L 789.393177 120.214973 
L 791.191319 109.659949 
L 792.989462 117.576217 
L 794.787604 113.618083 
L 796.585747 121.534351 
L 798.383889 117.576217 
L 800.182031 120.214973 
L 801.980174 117.576217 
L 803.778316 120.214973 
L 805.576458 121.534351 
L 807.374601 112.298705 
L 809.172743 116.256839 
L 810.970885 113.618083 
L 812.769028 118.895595 
L 814.56717 117.576217 
L 816.365313 120.214973 
L 818.163455 112.298705 
L 819.961597 114.937461 
L 821.75974 121.534351 
L 823.557882 117.576217 
L 825.356024 121.534351 
L 827.154167 89.869279 
L 828.952309 122.853729 
L 830.750451 118.895595 
L 832.548594 118.895595 
L 834.346736 116.550034 
L 836.144878 113.618083 
L 837.943021 112.298705 
L 839.741163 113.618083 
L 841.539306 232.362102 
L 841.539306 232.362102 
" clip-path="url(#p0a22e88c8b)" style="fill: none; stroke: #1f77b4; stroke-width: 2; stroke-linecap: round"/>
   </g>
   <g id="line2d_40">
    <path d="M 460.333125 158.476935 
L 462.131267 146.602533 
L 463.92941 146.602533 
L 465.727552 145.283155 
L 467.525694 137.366887 
L 469.323837 141.325021 
L 471.121979 138.686265 
L 472.920122 142.644399 
L 474.718264 138.686265 
L 476.516406 136.047509 
L 478.314549 138.686265 
L 480.112691 136.047509 
L 481.910833 134.728131 
L 483.708976 136.047509 
L 485.507118 132.089375 
L 487.30526 137.366887 
L 489.103403 136.047509 
L 490.901545 133.408753 
L 492.699688 136.047509 
L 494.49783 130.769997 
L 496.295972 129.450619 
L 498.094115 126.811863 
L 499.892257 132.089375 
L 501.690399 124.173107 
L 503.488542 132.089375 
L 505.286684 132.089375 
L 507.084826 129.450619 
L 508.882969 132.089375 
L 510.681111 122.853729 
L 512.479253 132.089375 
L 514.277396 134.728131 
L 516.075538 129.450619 
L 517.873681 137.366887 
L 521.469965 132.089375 
L 523.268108 130.769997 
L 525.06625 137.366887 
L 526.864392 132.089375 
L 528.662535 137.366887 
L 530.460677 136.047509 
L 532.258819 126.811863 
L 534.056962 133.408753 
L 535.855104 126.811863 
L 537.653247 129.450619 
L 539.451389 125.492485 
L 541.249531 129.450619 
L 543.047674 122.853729 
L 544.845816 129.450619 
L 546.643958 134.728131 
L 548.442101 130.769997 
L 550.240243 125.492485 
L 552.038385 128.131241 
L 553.836528 124.173107 
L 555.63467 125.492485 
L 557.432813 136.047509 
L 559.230955 122.853729 
L 561.029097 125.492485 
L 562.82724 124.173107 
L 564.625382 128.131241 
L 566.423524 117.576217 
L 568.221667 120.214973 
L 570.019809 114.937461 
L 571.817951 120.214973 
L 573.616094 123.879912 
L 575.414236 121.534351 
L 577.212378 114.937461 
L 579.010521 122.853729 
L 580.808663 121.534351 
L 582.606806 126.811863 
L 584.404948 133.408753 
L 586.20309 125.492485 
L 588.001233 130.769997 
L 589.799375 129.450619 
L 591.597517 136.047509 
L 593.39566 134.728131 
L 595.193802 130.769997 
L 596.991944 124.173107 
L 598.790087 133.408753 
L 600.588229 121.534351 
L 602.386372 134.728131 
L 604.184514 129.450619 
L 605.982656 126.811863 
L 607.780799 125.492485 
L 609.578941 126.811863 
L 611.377083 125.345887 
L 613.175226 125.492485 
L 614.973368 128.131241 
L 616.77151 122.853729 
L 618.569653 125.492485 
L 620.367795 125.492485 
L 622.165938 129.450619 
L 623.96408 126.811863 
L 625.762222 125.492485 
L 627.560365 132.089375 
L 629.358507 124.173107 
L 631.156649 118.895595 
L 632.954792 124.173107 
L 634.752934 122.853729 
L 636.551076 126.811863 
L 638.349219 132.089375 
L 640.147361 129.450619 
L 641.945503 133.408753 
L 643.743646 126.811863 
L 645.541788 133.408753 
L 647.339931 118.01601 
L 649.138073 128.131241 
L 650.936215 117.576217 
L 652.734358 126.811863 
L 654.5325 124.173107 
L 656.330642 126.811863 
L 658.128785 130.769997 
L 659.926927 124.173107 
L 661.725069 125.492485 
L 663.523212 124.173107 
L 665.321354 129.450619 
L 668.917639 129.450619 
L 670.715781 130.769997 
L 674.312066 125.492485 
L 676.110208 125.492485 
L 677.908351 124.173107 
L 679.706493 125.492485 
L 681.504635 125.492485 
L 683.302778 122.853729 
L 685.10092 128.131241 
L 686.899063 126.811863 
L 688.697205 128.131241 
L 690.495347 124.173107 
L 692.29349 121.534351 
L 694.091632 129.450619 
L 695.889774 125.492485 
L 697.687917 125.492485 
L 699.486059 129.450619 
L 701.284201 128.131241 
L 703.082344 124.173107 
L 704.880486 126.811863 
L 706.678628 121.534351 
L 710.274913 124.173107 
L 712.073056 120.214973 
L 713.871198 121.534351 
L 715.66934 118.895595 
L 717.467483 124.173107 
L 719.265625 125.492485 
L 722.86191 122.853729 
L 724.660052 122.853729 
L 726.458194 125.345887 
L 728.256337 120.214973 
L 730.054479 126.811863 
L 731.852622 124.173107 
L 733.650764 122.853729 
L 735.448906 128.131241 
L 737.247049 128.131241 
L 739.045191 130.769997 
L 740.843333 125.492485 
L 744.439618 125.492485 
L 746.23776 122.853729 
L 748.035903 124.173107 
L 749.834045 121.534351 
L 751.632188 124.173107 
L 753.43033 110.979327 
L 755.228472 113.618083 
L 757.026615 117.576217 
L 758.824757 110.979327 
L 762.421042 116.256839 
L 764.219184 114.937461 
L 766.017326 120.947961 
L 767.815469 122.853729 
L 769.613611 124.173107 
L 771.411753 126.811863 
L 773.209896 128.131241 
L 775.008038 122.853729 
L 776.806181 126.811863 
L 778.604323 124.173107 
L 780.402465 124.173107 
L 782.200608 122.853729 
L 783.99875 122.853729 
L 785.796892 128.131241 
L 787.595035 129.450619 
L 791.191319 124.173107 
L 792.989462 125.492485 
L 794.787604 124.173107 
L 796.585747 118.895595 
L 798.383889 124.173107 
L 800.182031 120.214973 
L 801.980174 121.534351 
L 803.778316 121.534351 
L 805.576458 124.173107 
L 807.374601 125.345887 
L 809.172743 122.853729 
L 810.970885 125.492485 
L 812.769028 122.853729 
L 814.56717 124.173107 
L 816.365313 122.853729 
L 818.163455 122.853729 
L 819.961597 118.895595 
L 821.75974 125.492485 
L 823.557882 125.492485 
L 825.356024 122.853729 
L 827.154167 129.450619 
L 828.952309 124.173107 
L 830.750451 128.131241 
L 832.548594 121.534351 
L 834.346736 128.131241 
L 836.144878 121.534351 
L 837.943021 124.173107 
L 839.741163 124.173107 
L 841.539306 198.644665 
L 841.539306 198.644665 
" clip-path="url(#p0a22e88c8b)" style="fill: none; stroke: #ff7f0e; stroke-width: 2; stroke-linecap: round"/>
   </g>
   <g id="patch_9">
    <path d="M 460.333125 242.389375 
L 460.333125 21.789375 
" style="fill: none; stroke: #cccccc; stroke-width: 0.8; stroke-linejoin: miter; stroke-linecap: square"/>
   </g>
   <g id="patch_10">
    <path d="M 848.731875 242.389375 
L 848.731875 21.789375 
" style="fill: none; stroke: #cccccc; stroke-width: 0.8; stroke-linejoin: miter; stroke-linecap: square"/>
   </g>
   <g id="patch_11">
    <path d="M 460.333125 242.389375 
L 848.731875 242.389375 
" style="fill: none; stroke: #cccccc; stroke-width: 0.8; stroke-linejoin: miter; stroke-linecap: square"/>
   </g>
   <g id="patch_12">
    <path d="M 460.333125 21.789375 
L 848.731875 21.789375 
" style="fill: none; stroke: #cccccc; stroke-width: 0.8; stroke-linejoin: miter; stroke-linecap: square"/>
   </g>
   <g id="text_34">
    <!-- APX1173 — PC1 1 core -->
    <g style="fill: #262626" transform="translate(590.275313 15.789375) scale(0.12 -0.12)">
     <use xlink:href="#ArialMT-41"/>
     <use xlink:href="#ArialMT-50" transform="translate(66.699219 0)"/>
     <use xlink:href="#ArialMT-58" transform="translate(133.398438 0)"/>
     <use xlink:href="#ArialMT-31" transform="translate(200.097656 0)"/>
     <use xlink:href="#ArialMT-31" transform="translate(248.337891 0)"/>
     <use xlink:href="#ArialMT-37" transform="translate(303.953125 0)"/>
     <use xlink:href="#ArialMT-33" transform="translate(359.568359 0)"/>
     <use xlink:href="#ArialMT-20" transform="translate(415.183594 0)"/>
     <use xlink:href="#ArialMT-2014" transform="translate(442.966797 0)"/>
     <use xlink:href="#ArialMT-20" transform="translate(542.966797 0)"/>
     <use xlink:href="#ArialMT-50" transform="translate(570.75 0)"/>
     <use xlink:href="#ArialMT-43" transform="translate(637.449219 0)"/>
     <use xlink:href="#ArialMT-31" transform="translate(709.666016 0)"/>
     <use xlink:href="#ArialMT-20" transform="translate(765.28125 0)"/>
     <use xlink:href="#ArialMT-31" transform="translate(793.064453 0)"/>
     <use xlink:href="#ArialMT-20" transform="translate(848.679688 0)"/>
     <use xlink:href="#ArialMT-63" transform="translate(876.462891 0)"/>
     <use xlink:href="#ArialMT-6f" transform="translate(926.462891 0)"/>
     <use xlink:href="#ArialMT-72" transform="translate(982.078125 0)"/>
     <use xlink:href="#ArialMT-65" transform="translate(1015.378906 0)"/>
    </g>
   </g>
   <g id="legend_2">
    <g id="patch_13">
     <path d="M 778.049062 58.314375 
L 841.731875 58.314375 
Q 843.731875 58.314375 843.731875 56.314375 
L 843.731875 28.789375 
Q 843.731875 26.789375 841.731875 26.789375 
L 778.049062 26.789375 
Q 776.049062 26.789375 776.049062 28.789375 
L 776.049062 56.314375 
Q 776.049062 58.314375 778.049062 58.314375 
z
" style="fill: #ffffff; opacity: 0.8; stroke: #cccccc; stroke-linejoin: miter"/>
    </g>
    <g id="line2d_41">
     <path d="M 780.049062 34.447188 
L 790.049062 34.447188 
L 800.049062 34.447188 
" style="fill: none; stroke: #1f77b4; stroke-width: 2; stroke-linecap: round"/>
    </g>
    <g id="text_35">
     <!-- queryA -->
     <g style="fill: #262626" transform="translate(808.049062 37.947188) scale(0.1 -0.1)">
      <use xlink:href="#ArialMT-71"/>
      <use xlink:href="#ArialMT-75" transform="translate(55.615234 0)"/>
      <use xlink:href="#ArialMT-65" transform="translate(111.230469 0)"/>
      <use xlink:href="#ArialMT-72" transform="translate(166.845703 0)"/>
      <use xlink:href="#ArialMT-79" transform="translate(200.146484 0)"/>
      <use xlink:href="#ArialMT-41" transform="translate(250.146484 0)"/>
     </g>
    </g>
    <g id="line2d_42">
     <path d="M 780.049062 48.709688 
L 790.049062 48.709688 
L 800.049062 48.709688 
" style="fill: none; stroke: #ff7f0e; stroke-width: 2; stroke-linecap: round"/>
    </g>
    <g id="text_36">
     <!-- queryB -->
     <g style="fill: #262626" transform="translate(808.049062 52.209688) scale(0.1 -0.1)">
      <use xlink:href="#ArialMT-71"/>
      <use xlink:href="#ArialMT-75" transform="translate(55.615234 0)"/>
      <use xlink:href="#ArialMT-65" transform="translate(111.230469 0)"/>
      <use xlink:href="#ArialMT-72" transform="translate(166.845703 0)"/>
      <use xlink:href="#ArialMT-79" transform="translate(200.146484 0)"/>
      <use xlink:href="#ArialMT-42" transform="translate(250.146484 0)"/>
     </g>
    </g>
   </g>
  </g>
 </g>
 <defs>
  <clipPath id="p2faaaab8b5">
   <rect x="46.953125" y="21.789375" width="388.39875" height="220.6"/>
  </clipPath>
  <clipPath id="p0a22e88c8b">
   <rect x="460.333125" y="21.789375" width="388.39875" height="220.6"/>
  </clipPath>
 </defs>
</svg>
