<?xml version="1.0" encoding="utf-8" standalone="no"?>
<!DOCTYPE svg PUBLIC "-//W3C//DTD SVG 1.1//EN"
  "http://www.w3.org/Graphics/SVG/1.1/DTD/svg11.dtd">
<svg xmlns:xlink="http://www.w3.org/1999/xlink" width="856.047187pt" height="315.119063pt" viewBox="0 0 856.047187 315.119063" xmlns="http://www.w3.org/2000/svg" version="1.1">
 <metadata>
  <rdf:RDF xmlns:dc="http://purl.org/dc/elements/1.1/" xmlns:cc="http://creativecommons.org/ns#" xmlns:rdf="http://www.w3.org/1999/02/22-rdf-syntax-ns#">
   <cc:Work>
    <dc:type rdf:resource="http://purl.org/dc/dcmitype/StillImage"/>
    <dc:date>2026-05-26T16:50:36.012644</dc:date>
    <dc:format>image/svg+xml</dc:format>
    <dc:creator>
     <cc:Agent>
      <dc:title>Matplotlib v3.10.1, https://matplotlib.org/</dc:title>
     </cc:Agent>
    </dc:creator>
   </cc:Work>
  </rdf:RDF>
 </metadata>
 <defs>
  <style type="text/css">*{stroke-linejoin: round; stroke-linecap: butt}</style>
 </defs>
 <g id="figure_1">
  <g id="patch_1">
   <path d="M 0 315.119063 
L 856.047187 315.119063 
L 856.047187 0 
L 0 0 
z
" style="fill: #ffffff"/>
  </g>
  <g id="axes_1">
   <g id="patch_2">
    <path d="M 44.267188 278.389375 
L 434.117188 278.389375 
L 434.117188 21.789375 
L 44.267188 21.789375 
z
" style="fill: #ffffff"/>
   </g>
   <g id="matplotlib.axis_1">
    <g id="xtick_1">
     <g id="line2d_1">
      <path d="M 44.267188 278.389375 
L 44.267188 21.789375 
" clip-path="url(#pe8d217d047)" style="fill: none; stroke: #cccccc; stroke-opacity: 0.2; stroke-width: 0.8; stroke-linecap: round"/>
     </g>
     <g id="text_1">
      <!-- 0 -->
      <g style="fill: #262626" transform="translate(41.486719 292.547188) scale(0.1 -0.1)">
       <defs>
        <path id="ArialMT-30" d="M 266 2259 
Q 266 3072 433 3567 
Q 600 4063 929 4331 
Q 1259 4600 1759 4600 
Q 2128 4600 2406 4451 
Q 2684 4303 2865 4023 
Q 3047 3744 3150 3342 
Q 3253 2941 3253 2259 
Q 3253 1453 3087 958 
Q 2922 463 2592 192 
Q 2263 -78 1759 -78 
Q 1097 -78 719 397 
Q 266 969 266 2259 
z
M 844 2259 
Q 844 1131 1108 757 
Q 1372 384 1759 384 
Q 2147 384 2411 759 
Q 2675 1134 2675 2259 
Q 2675 3391 2411 3762 
Q 2147 4134 1753 4134 
Q 1366 4134 1134 3806 
Q 844 3388 844 2259 
z
" transform="scale(0.015625)"/>
       </defs>
       <use xlink:href="#ArialMT-30"/>
      </g>
     </g>
    </g>
    <g id="xtick_2">
     <g id="line2d_2">
      <path d="M 123.024763 278.389375 
L 123.024763 21.789375 
" clip-path="url(#pe8d217d047)" style="fill: none; stroke: #cccccc; stroke-opacity: 0.2; stroke-width: 0.8; stroke-linecap: round"/>
     </g>
     <g id="text_2">
      <!-- 20 -->
      <g style="fill: #262626" transform="translate(117.463826 292.547188) scale(0.1 -0.1)">
       <defs>
        <path id="ArialMT-32" d="M 3222 541 
L 3222 0 
L 194 0 
Q 188 203 259 391 
Q 375 700 629 1000 
Q 884 1300 1366 1694 
Q 2113 2306 2375 2664 
Q 2638 3022 2638 3341 
Q 2638 3675 2398 3904 
Q 2159 4134 1775 4134 
Q 1369 4134 1125 3890 
Q 881 3647 878 3216 
L 300 3275 
Q 359 3922 746 4261 
Q 1134 4600 1788 4600 
Q 2447 4600 2831 4234 
Q 3216 3869 3216 3328 
Q 3216 3053 3103 2787 
Q 2991 2522 2730 2228 
Q 2469 1934 1863 1422 
Q 1356 997 1212 845 
Q 1069 694 975 541 
L 3222 541 
z
" transform="scale(0.015625)"/>
       </defs>
       <use xlink:href="#ArialMT-32"/>
       <use xlink:href="#ArialMT-30" transform="translate(55.615234 0)"/>
      </g>
     </g>
    </g>
    <g id="xtick_3">
     <g id="line2d_3">
      <path d="M 201.782339 278.389375 
L 201.782339 21.789375 
" clip-path="url(#pe8d217d047)" style="fill: none; stroke: #cccccc; stroke-opacity: 0.2; stroke-width: 0.8; stroke-linecap: round"/>
     </g>
     <g id="text_3">
      <!-- 40 -->
      <g style="fill: #262626" transform="translate(196.221402 292.547188) scale(0.1 -0.1)">
       <defs>
        <path id="ArialMT-34" d="M 2069 0 
L 2069 1097 
L 81 1097 
L 81 1613 
L 2172 4581 
L 2631 4581 
L 2631 1613 
L 3250 1613 
L 3250 1097 
L 2631 1097 
L 2631 0 
L 2069 0 
z
M 2069 1613 
L 2069 3678 
L 634 1613 
L 2069 1613 
z
" transform="scale(0.015625)"/>
       </defs>
       <use xlink:href="#ArialMT-34"/>
       <use xlink:href="#ArialMT-30" transform="translate(55.615234 0)"/>
      </g>
     </g>
    </g>
    <g id="xtick_4">
     <g id="line2d_4">
      <path d="M 280.539915 278.389375 
L 280.539915 21.789375 
" clip-path="url(#pe8d217d047)" style="fill: none; stroke: #cccccc; stroke-opacity: 0.2; stroke-width: 0.8; stroke-linecap: round"/>
     </g>
     <g id="text_4">
      <!-- 60 -->
      <g style="fill: #262626" transform="translate(274.978977 292.547188) scale(0.1 -0.1)">
       <defs>
        <path id="ArialMT-36" d="M 3184 3459 
L 2625 3416 
Q 2550 3747 2413 3897 
Q 2184 4138 1850 4138 
Q 1581 4138 1378 3988 
Q 1113 3794 959 3422 
Q 806 3050 800 2363 
Q 1003 2672 1297 2822 
Q 1591 2972 1913 2972 
Q 2475 2972 2870 2558 
Q 3266 2144 3266 1488 
Q 3266 1056 3080 686 
Q 2894 316 2569 119 
Q 2244 -78 1831 -78 
Q 1128 -78 684 439 
Q 241 956 241 2144 
Q 241 3472 731 4075 
Q 1159 4600 1884 4600 
Q 2425 4600 2770 4297 
Q 3116 3994 3184 3459 
z
M 888 1484 
Q 888 1194 1011 928 
Q 1134 663 1356 523 
Q 1578 384 1822 384 
Q 2178 384 2434 671 
Q 2691 959 2691 1453 
Q 2691 1928 2437 2201 
Q 2184 2475 1800 2475 
Q 1419 2475 1153 2201 
Q 888 1928 888 1484 
z
" transform="scale(0.015625)"/>
       </defs>
       <use xlink:href="#ArialMT-36"/>
       <use xlink:href="#ArialMT-30" transform="translate(55.615234 0)"/>
      </g>
     </g>
    </g>
    <g id="xtick_5">
     <g id="line2d_5">
      <path d="M 359.297491 278.389375 
L 359.297491 21.789375 
" clip-path="url(#pe8d217d047)" style="fill: none; stroke: #cccccc; stroke-opacity: 0.2; stroke-width: 0.8; stroke-linecap: round"/>
     </g>
     <g id="text_5">
      <!-- 80 -->
      <g style="fill: #262626" transform="translate(353.736553 292.547188) scale(0.1 -0.1)">
       <defs>
        <path id="ArialMT-38" d="M 1131 2484 
Q 781 2613 612 2850 
Q 444 3088 444 3419 
Q 444 3919 803 4259 
Q 1163 4600 1759 4600 
Q 2359 4600 2725 4251 
Q 3091 3903 3091 3403 
Q 3091 3084 2923 2848 
Q 2756 2613 2416 2484 
Q 2838 2347 3058 2040 
Q 3278 1734 3278 1309 
Q 3278 722 2862 322 
Q 2447 -78 1769 -78 
Q 1091 -78 675 323 
Q 259 725 259 1325 
Q 259 1772 486 2073 
Q 713 2375 1131 2484 
z
M 1019 3438 
Q 1019 3113 1228 2906 
Q 1438 2700 1772 2700 
Q 2097 2700 2305 2904 
Q 2513 3109 2513 3406 
Q 2513 3716 2298 3927 
Q 2084 4138 1766 4138 
Q 1444 4138 1231 3931 
Q 1019 3725 1019 3438 
z
M 838 1322 
Q 838 1081 952 856 
Q 1066 631 1291 507 
Q 1516 384 1775 384 
Q 2178 384 2440 643 
Q 2703 903 2703 1303 
Q 2703 1709 2433 1975 
Q 2163 2241 1756 2241 
Q 1359 2241 1098 1978 
Q 838 1716 838 1322 
z
" transform="scale(0.015625)"/>
       </defs>
       <use xlink:href="#ArialMT-38"/>
       <use xlink:href="#ArialMT-30" transform="translate(55.615234 0)"/>
      </g>
     </g>
    </g>
    <g id="text_6">
     <!-- Elapsed Time (sec) -->
     <g style="fill: #262626" transform="translate(196.400781 305.814375) scale(0.1 -0.1)">
      <defs>
       <path id="ArialMT-45" d="M 506 0 
L 506 4581 
L 3819 4581 
L 3819 4041 
L 1113 4041 
L 1113 2638 
L 3647 2638 
L 3647 2100 
L 1113 2100 
L 1113 541 
L 3925 541 
L 3925 0 
L 506 0 
z
" transform="scale(0.015625)"/>
       <path id="ArialMT-6c" d="M 409 0 
L 409 4581 
L 972 4581 
L 972 0 
L 409 0 
z
" transform="scale(0.015625)"/>
       <path id="ArialMT-61" d="M 2588 409 
Q 2275 144 1986 34 
Q 1697 -75 1366 -75 
Q 819 -75 525 192 
Q 231 459 231 875 
Q 231 1119 342 1320 
Q 453 1522 633 1644 
Q 813 1766 1038 1828 
Q 1203 1872 1538 1913 
Q 2219 1994 2541 2106 
Q 2544 2222 2544 2253 
Q 2544 2597 2384 2738 
Q 2169 2928 1744 2928 
Q 1347 2928 1158 2789 
Q 969 2650 878 2297 
L 328 2372 
Q 403 2725 575 2942 
Q 747 3159 1072 3276 
Q 1397 3394 1825 3394 
Q 2250 3394 2515 3294 
Q 2781 3194 2906 3042 
Q 3031 2891 3081 2659 
Q 3109 2516 3109 2141 
L 3109 1391 
Q 3109 606 3145 398 
Q 3181 191 3288 0 
L 2700 0 
Q 2613 175 2588 409 
z
M 2541 1666 
Q 2234 1541 1622 1453 
Q 1275 1403 1131 1340 
Q 988 1278 909 1158 
Q 831 1038 831 891 
Q 831 666 1001 516 
Q 1172 366 1500 366 
Q 1825 366 2078 508 
Q 2331 650 2450 897 
Q 2541 1088 2541 1459 
L 2541 1666 
z
" transform="scale(0.015625)"/>
       <path id="ArialMT-70" d="M 422 -1272 
L 422 3319 
L 934 3319 
L 934 2888 
Q 1116 3141 1344 3267 
Q 1572 3394 1897 3394 
Q 2322 3394 2647 3175 
Q 2972 2956 3137 2557 
Q 3303 2159 3303 1684 
Q 3303 1175 3120 767 
Q 2938 359 2589 142 
Q 2241 -75 1856 -75 
Q 1575 -75 1351 44 
Q 1128 163 984 344 
L 984 -1272 
L 422 -1272 
z
M 931 1641 
Q 931 1000 1190 694 
Q 1450 388 1819 388 
Q 2194 388 2461 705 
Q 2728 1022 2728 1688 
Q 2728 2322 2467 2637 
Q 2206 2953 1844 2953 
Q 1484 2953 1207 2617 
Q 931 2281 931 1641 
z
" transform="scale(0.015625)"/>
       <path id="ArialMT-73" d="M 197 991 
L 753 1078 
Q 800 744 1014 566 
Q 1228 388 1613 388 
Q 2000 388 2187 545 
Q 2375 703 2375 916 
Q 2375 1106 2209 1216 
Q 2094 1291 1634 1406 
Q 1016 1563 777 1677 
Q 538 1791 414 1992 
Q 291 2194 291 2438 
Q 291 2659 392 2848 
Q 494 3038 669 3163 
Q 800 3259 1026 3326 
Q 1253 3394 1513 3394 
Q 1903 3394 2198 3281 
Q 2494 3169 2634 2976 
Q 2775 2784 2828 2463 
L 2278 2388 
Q 2241 2644 2061 2787 
Q 1881 2931 1553 2931 
Q 1166 2931 1000 2803 
Q 834 2675 834 2503 
Q 834 2394 903 2306 
Q 972 2216 1119 2156 
Q 1203 2125 1616 2013 
Q 2213 1853 2448 1751 
Q 2684 1650 2818 1456 
Q 2953 1263 2953 975 
Q 2953 694 2789 445 
Q 2625 197 2315 61 
Q 2006 -75 1616 -75 
Q 969 -75 630 194 
Q 291 463 197 991 
z
" transform="scale(0.015625)"/>
       <path id="ArialMT-65" d="M 2694 1069 
L 3275 997 
Q 3138 488 2766 206 
Q 2394 -75 1816 -75 
Q 1088 -75 661 373 
Q 234 822 234 1631 
Q 234 2469 665 2931 
Q 1097 3394 1784 3394 
Q 2450 3394 2872 2941 
Q 3294 2488 3294 1666 
Q 3294 1616 3291 1516 
L 816 1516 
Q 847 969 1125 678 
Q 1403 388 1819 388 
Q 2128 388 2347 550 
Q 2566 713 2694 1069 
z
M 847 1978 
L 2700 1978 
Q 2663 2397 2488 2606 
Q 2219 2931 1791 2931 
Q 1403 2931 1139 2672 
Q 875 2413 847 1978 
z
" transform="scale(0.015625)"/>
       <path id="ArialMT-64" d="M 2575 0 
L 2575 419 
Q 2259 -75 1647 -75 
Q 1250 -75 917 144 
Q 584 363 401 755 
Q 219 1147 219 1656 
Q 219 2153 384 2558 
Q 550 2963 881 3178 
Q 1213 3394 1622 3394 
Q 1922 3394 2156 3267 
Q 2391 3141 2538 2938 
L 2538 4581 
L 3097 4581 
L 3097 0 
L 2575 0 
z
M 797 1656 
Q 797 1019 1065 703 
Q 1334 388 1700 388 
Q 2069 388 2326 689 
Q 2584 991 2584 1609 
Q 2584 2291 2321 2609 
Q 2059 2928 1675 2928 
Q 1300 2928 1048 2622 
Q 797 2316 797 1656 
z
" transform="scale(0.015625)"/>
       <path id="ArialMT-20" transform="scale(0.015625)"/>
       <path id="ArialMT-54" d="M 1659 0 
L 1659 4041 
L 150 4041 
L 150 4581 
L 3781 4581 
L 3781 4041 
L 2266 4041 
L 2266 0 
L 1659 0 
z
" transform="scale(0.015625)"/>
       <path id="ArialMT-69" d="M 425 3934 
L 425 4581 
L 988 4581 
L 988 3934 
L 425 3934 
z
M 425 0 
L 425 3319 
L 988 3319 
L 988 0 
L 425 0 
z
" transform="scale(0.015625)"/>
       <path id="ArialMT-6d" d="M 422 0 
L 422 3319 
L 925 3319 
L 925 2853 
Q 1081 3097 1340 3245 
Q 1600 3394 1931 3394 
Q 2300 3394 2536 3241 
Q 2772 3088 2869 2813 
Q 3263 3394 3894 3394 
Q 4388 3394 4653 3120 
Q 4919 2847 4919 2278 
L 4919 0 
L 4359 0 
L 4359 2091 
Q 4359 2428 4304 2576 
Q 4250 2725 4106 2815 
Q 3963 2906 3769 2906 
Q 3419 2906 3187 2673 
Q 2956 2441 2956 1928 
L 2956 0 
L 2394 0 
L 2394 2156 
Q 2394 2531 2256 2718 
Q 2119 2906 1806 2906 
Q 1569 2906 1367 2781 
Q 1166 2656 1075 2415 
Q 984 2175 984 1722 
L 984 0 
L 422 0 
z
" transform="scale(0.015625)"/>
       <path id="ArialMT-28" d="M 1497 -1347 
Q 1031 -759 709 28 
Q 388 816 388 1659 
Q 388 2403 628 3084 
Q 909 3875 1497 4659 
L 1900 4659 
Q 1522 4009 1400 3731 
Q 1209 3300 1100 2831 
Q 966 2247 966 1656 
Q 966 153 1900 -1347 
L 1497 -1347 
z
" transform="scale(0.015625)"/>
       <path id="ArialMT-63" d="M 2588 1216 
L 3141 1144 
Q 3050 572 2676 248 
Q 2303 -75 1759 -75 
Q 1078 -75 664 370 
Q 250 816 250 1647 
Q 250 2184 428 2587 
Q 606 2991 970 3192 
Q 1334 3394 1763 3394 
Q 2303 3394 2647 3120 
Q 2991 2847 3088 2344 
L 2541 2259 
Q 2463 2594 2264 2762 
Q 2066 2931 1784 2931 
Q 1359 2931 1093 2626 
Q 828 2322 828 1663 
Q 828 994 1084 691 
Q 1341 388 1753 388 
Q 2084 388 2306 591 
Q 2528 794 2588 1216 
z
" transform="scale(0.015625)"/>
       <path id="ArialMT-29" d="M 791 -1347 
L 388 -1347 
Q 1322 153 1322 1656 
Q 1322 2244 1188 2822 
Q 1081 3291 891 3722 
Q 769 4003 388 4659 
L 791 4659 
Q 1378 3875 1659 3084 
Q 1900 2403 1900 1659 
Q 1900 816 1576 28 
Q 1253 -759 791 -1347 
z
" transform="scale(0.015625)"/>
      </defs>
      <use xlink:href="#ArialMT-45"/>
      <use xlink:href="#ArialMT-6c" transform="translate(66.699219 0)"/>
      <use xlink:href="#ArialMT-61" transform="translate(88.916016 0)"/>
      <use xlink:href="#ArialMT-70" transform="translate(144.53125 0)"/>
      <use xlink:href="#ArialMT-73" transform="translate(200.146484 0)"/>
      <use xlink:href="#ArialMT-65" transform="translate(250.146484 0)"/>
      <use xlink:href="#ArialMT-64" transform="translate(305.761719 0)"/>
      <use xlink:href="#ArialMT-20" transform="translate(361.376953 0)"/>
      <use xlink:href="#ArialMT-54" transform="translate(387.410156 0)"/>
      <use xlink:href="#ArialMT-69" transform="translate(444.744141 0)"/>
      <use xlink:href="#ArialMT-6d" transform="translate(466.960938 0)"/>
      <use xlink:href="#ArialMT-65" transform="translate(550.261719 0)"/>
      <use xlink:href="#ArialMT-20" transform="translate(605.876953 0)"/>
      <use xlink:href="#ArialMT-28" transform="translate(633.660156 0)"/>
      <use xlink:href="#ArialMT-73" transform="translate(666.960938 0)"/>
      <use xlink:href="#ArialMT-65" transform="translate(716.960938 0)"/>
      <use xlink:href="#ArialMT-63" transform="translate(772.576172 0)"/>
      <use xlink:href="#ArialMT-29" transform="translate(822.576172 0)"/>
     </g>
    </g>
   </g>
   <g id="matplotlib.axis_2">
    <g id="ytick_1">
     <g id="line2d_6">
      <path d="M 44.267188 271.638563 
L 434.117188 271.638563 
" clip-path="url(#pe8d217d047)" style="fill: none; stroke: #cccccc; stroke-opacity: 0.2; stroke-width: 0.8; stroke-linecap: round"/>
     </g>
     <g id="text_7">
      <!-- 0 -->
      <g style="fill: #262626" transform="translate(31.70625 275.217469) scale(0.1 -0.1)">
       <use xlink:href="#ArialMT-30"/>
      </g>
     </g>
    </g>
    <g id="ytick_2">
     <g id="line2d_7">
      <path d="M 44.267188 222.263448 
L 434.117188 222.263448 
" clip-path="url(#pe8d217d047)" style="fill: none; stroke: #cccccc; stroke-opacity: 0.2; stroke-width: 0.8; stroke-linecap: round"/>
     </g>
     <g id="text_8">
      <!-- 20 -->
      <g style="fill: #262626" transform="translate(26.145313 225.842355) scale(0.1 -0.1)">
       <use xlink:href="#ArialMT-32"/>
       <use xlink:href="#ArialMT-30" transform="translate(55.615234 0)"/>
      </g>
     </g>
    </g>
    <g id="ytick_3">
     <g id="line2d_8">
      <path d="M 44.267188 172.888334 
L 434.117188 172.888334 
" clip-path="url(#pe8d217d047)" style="fill: none; stroke: #cccccc; stroke-opacity: 0.2; stroke-width: 0.8; stroke-linecap: round"/>
     </g>
     <g id="text_9">
      <!-- 40 -->
      <g style="fill: #262626" transform="translate(26.145313 176.46724) scale(0.1 -0.1)">
       <use xlink:href="#ArialMT-34"/>
       <use xlink:href="#ArialMT-30" transform="translate(55.615234 0)"/>
      </g>
     </g>
    </g>
    <g id="ytick_4">
     <g id="line2d_9">
      <path d="M 44.267188 123.51322 
L 434.117188 123.51322 
" clip-path="url(#pe8d217d047)" style="fill: none; stroke: #cccccc; stroke-opacity: 0.2; stroke-width: 0.8; stroke-linecap: round"/>
     </g>
     <g id="text_10">
      <!-- 60 -->
      <g style="fill: #262626" transform="translate(26.145313 127.092126) scale(0.1 -0.1)">
       <use xlink:href="#ArialMT-36"/>
       <use xlink:href="#ArialMT-30" transform="translate(55.615234 0)"/>
      </g>
     </g>
    </g>
    <g id="ytick_5">
     <g id="line2d_10">
      <path d="M 44.267188 74.138106 
L 434.117188 74.138106 
" clip-path="url(#pe8d217d047)" style="fill: none; stroke: #cccccc; stroke-opacity: 0.2; stroke-width: 0.8; stroke-linecap: round"/>
     </g>
     <g id="text_11">
      <!-- 80 -->
      <g style="fill: #262626" transform="translate(26.145313 77.717012) scale(0.1 -0.1)">
       <use xlink:href="#ArialMT-38"/>
       <use xlink:href="#ArialMT-30" transform="translate(55.615234 0)"/>
      </g>
     </g>
    </g>
    <g id="ytick_6">
     <g id="line2d_11">
      <path d="M 44.267188 24.762991 
L 434.117188 24.762991 
" clip-path="url(#pe8d217d047)" style="fill: none; stroke: #cccccc; stroke-opacity: 0.2; stroke-width: 0.8; stroke-linecap: round"/>
     </g>
     <g id="text_12">
      <!-- 100 -->
      <g style="fill: #262626" transform="translate(20.584375 28.341898) scale(0.1 -0.1)">
       <defs>
        <path id="ArialMT-31" d="M 2384 0 
L 1822 0 
L 1822 3584 
Q 1619 3391 1289 3197 
Q 959 3003 697 2906 
L 697 3450 
Q 1169 3672 1522 3987 
Q 1875 4303 2022 4600 
L 2384 4600 
L 2384 0 
z
" transform="scale(0.015625)"/>
       </defs>
       <use xlink:href="#ArialMT-31"/>
       <use xlink:href="#ArialMT-30" transform="translate(55.615234 0)"/>
       <use xlink:href="#ArialMT-30" transform="translate(111.230469 0)"/>
      </g>
     </g>
    </g>
    <g id="text_13">
     <!-- Busy% -->
     <g style="fill: #262626" transform="translate(14.479688 165.651094) rotate(-90) scale(0.1 -0.1)">
      <defs>
       <path id="ArialMT-42" d="M 469 0 
L 469 4581 
L 2188 4581 
Q 2713 4581 3030 4442 
Q 3347 4303 3526 4014 
Q 3706 3725 3706 3409 
Q 3706 3116 3547 2856 
Q 3388 2597 3066 2438 
Q 3481 2316 3704 2022 
Q 3928 1728 3928 1328 
Q 3928 1006 3792 729 
Q 3656 453 3456 303 
Q 3256 153 2954 76 
Q 2653 0 2216 0 
L 469 0 
z
M 1075 2656 
L 2066 2656 
Q 2469 2656 2644 2709 
Q 2875 2778 2992 2937 
Q 3109 3097 3109 3338 
Q 3109 3566 3000 3739 
Q 2891 3913 2687 3977 
Q 2484 4041 1991 4041 
L 1075 4041 
L 1075 2656 
z
M 1075 541 
L 2216 541 
Q 2509 541 2628 563 
Q 2838 600 2978 687 
Q 3119 775 3209 942 
Q 3300 1109 3300 1328 
Q 3300 1584 3169 1773 
Q 3038 1963 2805 2039 
Q 2572 2116 2134 2116 
L 1075 2116 
L 1075 541 
z
" transform="scale(0.015625)"/>
       <path id="ArialMT-75" d="M 2597 0 
L 2597 488 
Q 2209 -75 1544 -75 
Q 1250 -75 995 37 
Q 741 150 617 320 
Q 494 491 444 738 
Q 409 903 409 1263 
L 409 3319 
L 972 3319 
L 972 1478 
Q 972 1038 1006 884 
Q 1059 663 1231 536 
Q 1403 409 1656 409 
Q 1909 409 2131 539 
Q 2353 669 2445 892 
Q 2538 1116 2538 1541 
L 2538 3319 
L 3100 3319 
L 3100 0 
L 2597 0 
z
" transform="scale(0.015625)"/>
       <path id="ArialMT-79" d="M 397 -1278 
L 334 -750 
Q 519 -800 656 -800 
Q 844 -800 956 -737 
Q 1069 -675 1141 -563 
Q 1194 -478 1313 -144 
Q 1328 -97 1363 -6 
L 103 3319 
L 709 3319 
L 1400 1397 
Q 1534 1031 1641 628 
Q 1738 1016 1872 1384 
L 2581 3319 
L 3144 3319 
L 1881 -56 
Q 1678 -603 1566 -809 
Q 1416 -1088 1222 -1217 
Q 1028 -1347 759 -1347 
Q 597 -1347 397 -1278 
z
" transform="scale(0.015625)"/>
       <path id="ArialMT-25" d="M 372 3481 
Q 372 3972 619 4315 
Q 866 4659 1334 4659 
Q 1766 4659 2048 4351 
Q 2331 4044 2331 3447 
Q 2331 2866 2045 2552 
Q 1759 2238 1341 2238 
Q 925 2238 648 2547 
Q 372 2856 372 3481 
z
M 1350 4272 
Q 1141 4272 1002 4090 
Q 863 3909 863 3425 
Q 863 2984 1003 2804 
Q 1144 2625 1350 2625 
Q 1563 2625 1702 2806 
Q 1841 2988 1841 3469 
Q 1841 3913 1700 4092 
Q 1559 4272 1350 4272 
z
M 1353 -169 
L 3859 4659 
L 4316 4659 
L 1819 -169 
L 1353 -169 
z
M 3334 1075 
Q 3334 1569 3581 1911 
Q 3828 2253 4300 2253 
Q 4731 2253 5014 1945 
Q 5297 1638 5297 1041 
Q 5297 459 5011 145 
Q 4725 -169 4303 -169 
Q 3888 -169 3611 142 
Q 3334 453 3334 1075 
z
M 4316 1866 
Q 4103 1866 3964 1684 
Q 3825 1503 3825 1019 
Q 3825 581 3965 400 
Q 4106 219 4313 219 
Q 4528 219 4667 400 
Q 4806 581 4806 1063 
Q 4806 1506 4665 1686 
Q 4525 1866 4316 1866 
z
" transform="scale(0.015625)"/>
      </defs>
      <use xlink:href="#ArialMT-42"/>
      <use xlink:href="#ArialMT-75" transform="translate(66.699219 0)"/>
      <use xlink:href="#ArialMT-73" transform="translate(122.314453 0)"/>
      <use xlink:href="#ArialMT-79" transform="translate(172.314453 0)"/>
      <use xlink:href="#ArialMT-25" transform="translate(222.314453 0)"/>
     </g>
    </g>
   </g>
   <g id="line2d_12">
    <path d="M 44.267188 141.831387 
L 48.205066 178.59116 
L 52.142945 49.993675 
L 56.080824 131.561363 
L 60.018703 260.060098 
L 63.956581 239.149737 
L 67.89446 98.726912 
L 71.832339 219.350317 
L 75.770218 74.80467 
L 79.708097 155.212043 
L 83.645975 57.943068 
L 87.583854 66.756526 
L 91.521733 126.327601 
L 95.459612 216.313747 
L 99.397491 65.349335 
L 103.335369 46.290541 
L 107.273248 52.487118 
L 111.211127 73.98998 
L 115.149006 56.930878 
L 119.086884 65.818399 
L 123.024763 66.262775 
L 126.962642 66.31215 
L 130.900521 59.152758 
L 134.8384 66.929339 
L 138.776278 51.647741 
L 142.714157 68.63278 
L 146.652036 71.7681 
L 150.589915 65.917149 
L 154.527794 75.174983 
L 158.465672 53.153682 
L 162.403551 71.792788 
L 166.34143 67.077464 
L 170.279309 41.797406 
L 174.217188 89.96283 
L 178.155066 108.577248 
L 182.092945 64.534646 
L 186.030824 66.904651 
L 189.968703 154.076415 
L 193.906581 66.904651 
L 197.84446 131.2898 
L 201.782339 213.227802 
L 205.720218 168.469261 
L 209.658097 153.681415 
L 213.595975 121.58759 
L 217.533854 156.248921 
L 221.471733 121.661653 
L 225.409612 94.283152 
L 229.347491 56.363064 
L 233.285369 92.18471 
L 237.223248 83.642815 
L 241.161127 102.010357 
L 245.099006 105.540678 
" clip-path="url(#pe8d217d047)" style="fill: none; stroke: #1f77b4; stroke-opacity: 0.9; stroke-width: 1.2; stroke-linecap: round"/>
   </g>
   <g id="line2d_13">
    <path d="M 44.267188 65.645586 
L 48.205066 59.399634 
L 52.142945 91.765021 
L 56.080824 74.138106 
L 60.018703 72.409977 
L 63.956581 49.055547 
L 67.89446 72.089038 
L 71.832339 105.21974 
L 75.770218 243.321934 
L 79.708097 57.276504 
L 83.645975 162.124559 
L 87.583854 54.659623 
L 91.521733 68.287154 
L 95.459612 56.881503 
L 99.397491 262.528854 
L 103.335369 161.161744 
L 107.273248 49.499923 
L 111.211127 49.327111 
L 115.149006 47.10523 
L 119.086884 147.534213 
L 123.024763 117.711644 
L 126.962642 49.253048 
L 130.900521 236.434106 
L 134.8384 238.952237 
L 138.776278 170.493641 
L 142.714157 225.300018 
L 146.652036 262.281978 
L 150.589915 153.92829 
L 154.527794 207.154663 
L 158.465672 191.873065 
L 162.403551 138.57263 
L 166.34143 92.406898 
L 170.279309 260.578537 
L 174.217188 70.015283 
L 178.155066 56.80744 
L 182.092945 65.053084 
L 186.030824 62.411516 
L 189.968703 77.273425 
L 193.906581 61.917765 
L 197.84446 65.275272 
L 201.782339 62.683079 
L 205.720218 75.91561 
L 209.658097 58.560257 
L 213.595975 33.453011 
L 217.533854 65.29996 
L 221.471733 52.240242 
L 225.409612 63.794019 
L 229.347491 62.263391 
L 233.285369 62.633704 
L 237.223248 154.249228 
L 241.161127 149.533905 
L 245.099006 256.159464 
" clip-path="url(#pe8d217d047)" style="fill: none; stroke: #ff7f0e; stroke-opacity: 0.9; stroke-width: 1.2; stroke-linecap: round"/>
   </g>
   <g id="line2d_14">
    <path d="M 44.267188 163.235499 
L 48.205066 132.894491 
L 52.142945 151.632347 
L 56.080824 190.836188 
L 60.018703 61.473389 
L 63.956581 83.642815 
L 67.89446 212.783426 
L 71.832339 54.363372 
L 75.770218 58.412132 
L 79.708097 87.716262 
L 83.645975 150.077031 
L 87.583854 160.717368 
L 91.521733 106.52818 
L 95.459612 90.333143 
L 99.397491 61.275888 
L 103.335369 71.792788 
L 107.273248 75.520609 
L 111.211127 52.709306 
L 115.149006 71.9656 
L 119.086884 64.880272 
L 123.024763 66.583713 
L 126.962642 65.719649 
L 130.900521 74.236856 
L 134.8384 55.005249 
L 138.776278 79.297805 
L 142.714157 73.249353 
L 146.652036 59.498384 
L 150.589915 65.472773 
L 154.527794 56.017439 
L 158.465672 67.176214 
L 162.403551 60.164948 
L 166.34143 66.361525 
L 170.279309 70.509035 
L 174.217188 163.013311 
L 178.155066 89.024702 
L 182.092945 148.916716 
L 186.030824 81.47031 
L 189.968703 156.199545 
L 193.906581 74.236856 
L 197.84446 179.628037 
L 201.782339 93.29565 
L 205.720218 141.732637 
L 209.658097 161.655496 
L 213.595975 207.129976 
L 217.533854 153.656727 
L 221.471733 188.268682 
L 225.409612 131.981052 
L 229.347491 70.138721 
L 233.285369 130.524486 
L 237.223248 51.450241 
L 241.161127 97.220971 
L 245.099006 46.167103 
" clip-path="url(#pe8d217d047)" style="fill: none; stroke: #2ca02c; stroke-opacity: 0.9; stroke-width: 1.2; stroke-linecap: round"/>
   </g>
   <g id="line2d_15">
    <path d="M 44.267188 87.049698 
L 48.205066 74.187481 
L 52.142945 151.163284 
L 56.080824 48.93211 
L 60.018703 51.721804 
L 63.956581 71.076848 
L 67.89446 60.164948 
L 71.832339 67.052777 
L 75.770218 75.421858 
L 79.708097 142.91764 
L 83.645975 82.926876 
L 87.583854 166.346131 
L 91.521733 141.387011 
L 95.459612 78.03874 
L 99.397491 45.130226 
L 103.335369 154.101103 
L 107.273248 264.059482 
L 111.211127 260.94885 
L 115.149006 262.207916 
L 119.086884 164.173626 
L 123.024763 192.391504 
L 126.962642 261.269789 
L 130.900521 75.668734 
L 134.8384 82.4825 
L 138.776278 141.288261 
L 142.714157 81.297497 
L 146.652036 49.03086 
L 150.589915 158.569551 
L 154.527794 104.355675 
L 158.465672 131.734176 
L 162.403551 172.12302 
L 166.34143 219.029378 
L 170.279309 71.101536 
L 174.217188 123.142906 
L 178.155066 189.108059 
L 182.092945 165.65488 
L 186.030824 235.767542 
L 189.968703 56.60994 
L 193.906581 242.754121 
L 197.84446 65.448085 
L 201.782339 66.2134 
L 205.720218 49.870237 
L 209.658097 62.263391 
L 213.595975 74.557794 
L 217.533854 64.855584 
L 221.471733 76.236548 
L 225.409612 149.731405 
L 229.347491 254.456023 
L 233.285369 161.951746 
L 237.223248 155.582356 
L 241.161127 100.232853 
L 245.099006 75.619359 
" clip-path="url(#pe8d217d047)" style="fill: none; stroke: #d62728; stroke-opacity: 0.9; stroke-width: 1.2; stroke-linecap: round"/>
   </g>
   <g id="line2d_16">
    <path d="M 44.267188 196.292138 
L 48.205066 230.114091 
L 52.142945 183.898984 
L 56.080824 206.833725 
L 60.018703 170.19739 
L 63.956581 183.207733 
L 67.89446 221.646259 
L 71.832339 210.166545 
L 75.770218 194.687447 
L 79.708097 194.86026 
L 83.645975 195.674949 
L 87.583854 169.728327 
" clip-path="url(#pe8d217d047)" style="fill: none; stroke-dasharray: 4.44,1.92; stroke-dashoffset: 0; stroke: #1f77b4; stroke-opacity: 0.9; stroke-width: 1.2"/>
   </g>
   <g id="line2d_17">
    <path d="M 44.267188 193.502444 
L 48.205066 209.722169 
L 52.142945 210.586234 
L 56.080824 199.600271 
L 60.018703 216.066871 
L 63.956581 206.364661 
L 67.89446 209.91967 
L 71.832339 206.068411 
L 75.770218 190.367124 
L 79.708097 222.214073 
L 83.645975 184.688986 
L 87.583854 160.470493 
" clip-path="url(#pe8d217d047)" style="fill: none; stroke-dasharray: 4.44,1.92; stroke-dashoffset: 0; stroke: #ff7f0e; stroke-opacity: 0.9; stroke-width: 1.2"/>
   </g>
   <g id="line2d_18">
    <path d="M 44.267188 197.427766 
L 48.205066 158.939864 
L 52.142945 214.931244 
L 56.080824 183.405233 
L 60.018703 231.940971 
L 63.956581 217.844376 
L 67.89446 178.344284 
L 71.832339 186.787429 
L 75.770218 204.414344 
L 79.708097 204.216844 
L 83.645975 217.079061 
L 87.583854 223.275638 
" clip-path="url(#pe8d217d047)" style="fill: none; stroke-dasharray: 4.44,1.92; stroke-dashoffset: 0; stroke: #2ca02c; stroke-opacity: 0.9; stroke-width: 1.2"/>
   </g>
   <g id="line2d_19">
    <path d="M 44.267188 206.8831 
L 48.205066 210.857797 
L 52.142945 198.983082 
L 56.080824 219.004691 
L 60.018703 191.132439 
L 63.956581 202.069027 
L 67.89446 200.143397 
L 71.832339 205.253721 
L 75.770218 220.189693 
L 79.708097 188.762433 
L 83.645975 210.610921 
L 87.583854 250.431951 
" clip-path="url(#pe8d217d047)" style="fill: none; stroke-dasharray: 4.44,1.92; stroke-dashoffset: 0; stroke: #d62728; stroke-opacity: 0.9; stroke-width: 1.2"/>
   </g>
   <g id="patch_3">
    <path d="M 44.267188 278.389375 
L 44.267188 21.789375 
" style="fill: none; stroke: #cccccc; stroke-width: 0.8; stroke-linejoin: miter; stroke-linecap: square"/>
   </g>
   <g id="patch_4">
    <path d="M 434.117188 278.389375 
L 434.117188 21.789375 
" style="fill: none; stroke: #cccccc; stroke-width: 0.8; stroke-linejoin: miter; stroke-linecap: square"/>
   </g>
   <g id="patch_5">
    <path d="M 44.267188 278.389375 
L 434.117188 278.389375 
" style="fill: none; stroke: #cccccc; stroke-width: 0.8; stroke-linejoin: miter; stroke-linecap: square"/>
   </g>
   <g id="patch_6">
    <path d="M 44.267188 21.789375 
L 434.117188 21.789375 
" style="fill: none; stroke: #cccccc; stroke-width: 0.8; stroke-linejoin: miter; stroke-linecap: square"/>
   </g>
   <g id="text_14">
    <!-- APX1225 — PC1 all cores -->
    <g style="fill: #262626" transform="translate(168.82625 15.789375) scale(0.12 -0.12)">
     <defs>
      <path id="ArialMT-41" d="M -9 0 
L 1750 4581 
L 2403 4581 
L 4278 0 
L 3588 0 
L 3053 1388 
L 1138 1388 
L 634 0 
L -9 0 
z
M 1313 1881 
L 2866 1881 
L 2388 3150 
Q 2169 3728 2063 4100 
Q 1975 3659 1816 3225 
L 1313 1881 
z
" transform="scale(0.015625)"/>
      <path id="ArialMT-50" d="M 494 0 
L 494 4581 
L 2222 4581 
Q 2678 4581 2919 4538 
Q 3256 4481 3484 4323 
Q 3713 4166 3852 3881 
Q 3991 3597 3991 3256 
Q 3991 2672 3619 2267 
Q 3247 1863 2275 1863 
L 1100 1863 
L 1100 0 
L 494 0 
z
M 1100 2403 
L 2284 2403 
Q 2872 2403 3119 2622 
Q 3366 2841 3366 3238 
Q 3366 3525 3220 3729 
Q 3075 3934 2838 4000 
Q 2684 4041 2272 4041 
L 1100 4041 
L 1100 2403 
z
" transform="scale(0.015625)"/>
      <path id="ArialMT-58" d="M 28 0 
L 1800 2388 
L 238 4581 
L 959 4581 
L 1791 3406 
Q 2050 3041 2159 2844 
Q 2313 3094 2522 3366 
L 3444 4581 
L 4103 4581 
L 2494 2422 
L 4228 0 
L 3478 0 
L 2325 1634 
Q 2228 1775 2125 1941 
Q 1972 1691 1906 1597 
L 756 0 
L 28 0 
z
" transform="scale(0.015625)"/>
      <path id="ArialMT-35" d="M 266 1200 
L 856 1250 
Q 922 819 1161 601 
Q 1400 384 1738 384 
Q 2144 384 2425 690 
Q 2706 997 2706 1503 
Q 2706 1984 2436 2262 
Q 2166 2541 1728 2541 
Q 1456 2541 1237 2417 
Q 1019 2294 894 2097 
L 366 2166 
L 809 4519 
L 3088 4519 
L 3088 3981 
L 1259 3981 
L 1013 2750 
Q 1425 3038 1878 3038 
Q 2478 3038 2890 2622 
Q 3303 2206 3303 1553 
Q 3303 931 2941 478 
Q 2500 -78 1738 -78 
Q 1113 -78 717 272 
Q 322 622 266 1200 
z
" transform="scale(0.015625)"/>
      <path id="ArialMT-2014" d="M 0 1431 
L 0 1884 
L 6400 1884 
L 6400 1431 
L 0 1431 
z
" transform="scale(0.015625)"/>
      <path id="ArialMT-43" d="M 3763 1606 
L 4369 1453 
Q 4178 706 3683 314 
Q 3188 -78 2472 -78 
Q 1731 -78 1267 223 
Q 803 525 561 1097 
Q 319 1669 319 2325 
Q 319 3041 592 3573 
Q 866 4106 1370 4382 
Q 1875 4659 2481 4659 
Q 3169 4659 3637 4309 
Q 4106 3959 4291 3325 
L 3694 3184 
Q 3534 3684 3231 3912 
Q 2928 4141 2469 4141 
Q 1941 4141 1586 3887 
Q 1231 3634 1087 3207 
Q 944 2781 944 2328 
Q 944 1744 1114 1308 
Q 1284 872 1643 656 
Q 2003 441 2422 441 
Q 2931 441 3284 734 
Q 3638 1028 3763 1606 
z
" transform="scale(0.015625)"/>
      <path id="ArialMT-6f" d="M 213 1659 
Q 213 2581 725 3025 
Q 1153 3394 1769 3394 
Q 2453 3394 2887 2945 
Q 3322 2497 3322 1706 
Q 3322 1066 3130 698 
Q 2938 331 2570 128 
Q 2203 -75 1769 -75 
Q 1072 -75 642 372 
Q 213 819 213 1659 
z
M 791 1659 
Q 791 1022 1069 705 
Q 1347 388 1769 388 
Q 2188 388 2466 706 
Q 2744 1025 2744 1678 
Q 2744 2294 2464 2611 
Q 2184 2928 1769 2928 
Q 1347 2928 1069 2612 
Q 791 2297 791 1659 
z
" transform="scale(0.015625)"/>
      <path id="ArialMT-72" d="M 416 0 
L 416 3319 
L 922 3319 
L 922 2816 
Q 1116 3169 1280 3281 
Q 1444 3394 1641 3394 
Q 1925 3394 2219 3213 
L 2025 2691 
Q 1819 2813 1613 2813 
Q 1428 2813 1281 2702 
Q 1134 2591 1072 2394 
Q 978 2094 978 1738 
L 978 0 
L 416 0 
z
" transform="scale(0.015625)"/>
     </defs>
     <use xlink:href="#ArialMT-41"/>
     <use xlink:href="#ArialMT-50" transform="translate(66.699219 0)"/>
     <use xlink:href="#ArialMT-58" transform="translate(133.398438 0)"/>
     <use xlink:href="#ArialMT-31" transform="translate(200.097656 0)"/>
     <use xlink:href="#ArialMT-32" transform="translate(255.712891 0)"/>
     <use xlink:href="#ArialMT-32" transform="translate(311.328125 0)"/>
     <use xlink:href="#ArialMT-35" transform="translate(366.943359 0)"/>
     <use xlink:href="#ArialMT-20" transform="translate(422.558594 0)"/>
     <use xlink:href="#ArialMT-2014" transform="translate(450.341797 0)"/>
     <use xlink:href="#ArialMT-20" transform="translate(550.341797 0)"/>
     <use xlink:href="#ArialMT-50" transform="translate(578.125 0)"/>
     <use xlink:href="#ArialMT-43" transform="translate(644.824219 0)"/>
     <use xlink:href="#ArialMT-31" transform="translate(717.041016 0)"/>
     <use xlink:href="#ArialMT-20" transform="translate(772.65625 0)"/>
     <use xlink:href="#ArialMT-61" transform="translate(800.439453 0)"/>
     <use xlink:href="#ArialMT-6c" transform="translate(856.054688 0)"/>
     <use xlink:href="#ArialMT-6c" transform="translate(878.271484 0)"/>
     <use xlink:href="#ArialMT-20" transform="translate(900.488281 0)"/>
     <use xlink:href="#ArialMT-63" transform="translate(928.271484 0)"/>
     <use xlink:href="#ArialMT-6f" transform="translate(978.271484 0)"/>
     <use xlink:href="#ArialMT-72" transform="translate(1033.886719 0)"/>
     <use xlink:href="#ArialMT-65" transform="translate(1067.1875 0)"/>
     <use xlink:href="#ArialMT-73" transform="translate(1122.802734 0)"/>
    </g>
   </g>
   <g id="legend_1">
    <g id="patch_7">
     <path d="M 317.392188 63.052656 
L 428.517188 63.052656 
Q 430.117188 63.052656 430.117188 61.452656 
L 430.117188 27.389375 
Q 430.117188 25.789375 428.517188 25.789375 
L 317.392188 25.789375 
Q 315.792188 25.789375 315.792188 27.389375 
L 315.792188 61.452656 
Q 315.792188 63.052656 317.392188 63.052656 
z
" style="fill: #ffffff; opacity: 0.8; stroke: #cccccc; stroke-linejoin: miter"/>
    </g>
    <g id="text_15">
     <!-- CPU -->
     <g style="fill: #262626" transform="translate(363.453359 35.431406) scale(0.09 -0.09)">
      <defs>
       <path id="ArialMT-55" d="M 3500 4581 
L 4106 4581 
L 4106 1934 
Q 4106 1244 3950 837 
Q 3794 431 3386 176 
Q 2978 -78 2316 -78 
Q 1672 -78 1262 144 
Q 853 366 678 786 
Q 503 1206 503 1934 
L 503 4581 
L 1109 4581 
L 1109 1938 
Q 1109 1341 1220 1058 
Q 1331 775 1601 622 
Q 1872 469 2263 469 
Q 2931 469 3215 772 
Q 3500 1075 3500 1938 
L 3500 4581 
z
" transform="scale(0.015625)"/>
      </defs>
      <use xlink:href="#ArialMT-43"/>
      <use xlink:href="#ArialMT-50" transform="translate(72.216797 0)"/>
      <use xlink:href="#ArialMT-55" transform="translate(138.916016 0)"/>
     </g>
    </g>
    <g id="line2d_20">
     <path d="M 318.992188 44.146406 
L 326.992188 44.146406 
L 334.992188 44.146406 
" style="fill: none; stroke: #1f77b4; stroke-width: 2; stroke-linecap: round"/>
    </g>
    <g id="text_16">
     <!-- CPU 0 -->
     <g style="fill: #262626" transform="translate(341.392188 46.946406) scale(0.08 -0.08)">
      <use xlink:href="#ArialMT-43"/>
      <use xlink:href="#ArialMT-50" transform="translate(72.216797 0)"/>
      <use xlink:href="#ArialMT-55" transform="translate(138.916016 0)"/>
      <use xlink:href="#ArialMT-20" transform="translate(211.132812 0)"/>
      <use xlink:href="#ArialMT-30" transform="translate(238.916016 0)"/>
     </g>
    </g>
    <g id="line2d_21">
     <path d="M 318.992188 55.462656 
L 326.992188 55.462656 
L 334.992188 55.462656 
" style="fill: none; stroke: #ff7f0e; stroke-width: 2; stroke-linecap: round"/>
    </g>
    <g id="text_17">
     <!-- CPU 1 -->
     <g style="fill: #262626" transform="translate(341.392188 58.262656) scale(0.08 -0.08)">
      <use xlink:href="#ArialMT-43"/>
      <use xlink:href="#ArialMT-50" transform="translate(72.216797 0)"/>
      <use xlink:href="#ArialMT-55" transform="translate(138.916016 0)"/>
      <use xlink:href="#ArialMT-20" transform="translate(211.132812 0)"/>
      <use xlink:href="#ArialMT-31" transform="translate(238.916016 0)"/>
     </g>
    </g>
    <g id="line2d_22">
     <path d="M 380.954688 44.146406 
L 388.954688 44.146406 
L 396.954688 44.146406 
" style="fill: none; stroke: #2ca02c; stroke-width: 2; stroke-linecap: round"/>
    </g>
    <g id="text_18">
     <!-- CPU 2 -->
     <g style="fill: #262626" transform="translate(403.354688 46.946406) scale(0.08 -0.08)">
      <use xlink:href="#ArialMT-43"/>
      <use xlink:href="#ArialMT-50" transform="translate(72.216797 0)"/>
      <use xlink:href="#ArialMT-55" transform="translate(138.916016 0)"/>
      <use xlink:href="#ArialMT-20" transform="translate(211.132812 0)"/>
      <use xlink:href="#ArialMT-32" transform="translate(238.916016 0)"/>
     </g>
    </g>
    <g id="line2d_23">
     <path d="M 380.954688 55.462656 
L 388.954688 55.462656 
L 396.954688 55.462656 
" style="fill: none; stroke: #d62728; stroke-width: 2; stroke-linecap: round"/>
    </g>
    <g id="text_19">
     <!-- CPU 3 -->
     <g style="fill: #262626" transform="translate(403.354688 58.262656) scale(0.08 -0.08)">
      <defs>
       <path id="ArialMT-33" d="M 269 1209 
L 831 1284 
Q 928 806 1161 595 
Q 1394 384 1728 384 
Q 2125 384 2398 659 
Q 2672 934 2672 1341 
Q 2672 1728 2419 1979 
Q 2166 2231 1775 2231 
Q 1616 2231 1378 2169 
L 1441 2663 
Q 1497 2656 1531 2656 
Q 1891 2656 2178 2843 
Q 2466 3031 2466 3422 
Q 2466 3731 2256 3934 
Q 2047 4138 1716 4138 
Q 1388 4138 1169 3931 
Q 950 3725 888 3313 
L 325 3413 
Q 428 3978 793 4289 
Q 1159 4600 1703 4600 
Q 2078 4600 2393 4439 
Q 2709 4278 2876 4000 
Q 3044 3722 3044 3409 
Q 3044 3113 2884 2869 
Q 2725 2625 2413 2481 
Q 2819 2388 3044 2092 
Q 3269 1797 3269 1353 
Q 3269 753 2831 336 
Q 2394 -81 1725 -81 
Q 1122 -81 723 278 
Q 325 638 269 1209 
z
" transform="scale(0.015625)"/>
      </defs>
      <use xlink:href="#ArialMT-43"/>
      <use xlink:href="#ArialMT-50" transform="translate(72.216797 0)"/>
      <use xlink:href="#ArialMT-55" transform="translate(138.916016 0)"/>
      <use xlink:href="#ArialMT-20" transform="translate(211.132812 0)"/>
      <use xlink:href="#ArialMT-33" transform="translate(238.916016 0)"/>
     </g>
    </g>
   </g>
   <g id="legend_2">
    <g id="patch_8">
     <path d="M 49.867188 63.240156 
L 100.813438 63.240156 
Q 102.413438 63.240156 102.413438 61.640156 
L 102.413438 27.389375 
Q 102.413438 25.789375 100.813438 25.789375 
L 49.867188 25.789375 
Q 48.267188 25.789375 48.267188 27.389375 
L 48.267188 61.640156 
Q 48.267188 63.240156 49.867188 63.240156 
z
" style="fill: #ffffff; opacity: 0.8; stroke: #cccccc; stroke-linejoin: miter"/>
    </g>
    <g id="text_20">
     <!-- Variant -->
     <g style="fill: #262626" transform="translate(61.414922 35.431406) scale(0.09 -0.09)">
      <defs>
       <path id="ArialMT-56" d="M 1803 0 
L 28 4581 
L 684 4581 
L 1875 1253 
Q 2019 853 2116 503 
Q 2222 878 2363 1253 
L 3600 4581 
L 4219 4581 
L 2425 0 
L 1803 0 
z
" transform="scale(0.015625)"/>
       <path id="ArialMT-6e" d="M 422 0 
L 422 3319 
L 928 3319 
L 928 2847 
Q 1294 3394 1984 3394 
Q 2284 3394 2536 3286 
Q 2788 3178 2913 3003 
Q 3038 2828 3088 2588 
Q 3119 2431 3119 2041 
L 3119 0 
L 2556 0 
L 2556 2019 
Q 2556 2363 2490 2533 
Q 2425 2703 2258 2804 
Q 2091 2906 1866 2906 
Q 1506 2906 1245 2678 
Q 984 2450 984 1813 
L 984 0 
L 422 0 
z
" transform="scale(0.015625)"/>
       <path id="ArialMT-74" d="M 1650 503 
L 1731 6 
Q 1494 -44 1306 -44 
Q 1000 -44 831 53 
Q 663 150 594 308 
Q 525 466 525 972 
L 525 2881 
L 113 2881 
L 113 3319 
L 525 3319 
L 525 4141 
L 1084 4478 
L 1084 3319 
L 1650 3319 
L 1650 2881 
L 1084 2881 
L 1084 941 
Q 1084 700 1114 631 
Q 1144 563 1211 522 
Q 1278 481 1403 481 
Q 1497 481 1650 503 
z
" transform="scale(0.015625)"/>
      </defs>
      <use xlink:href="#ArialMT-56"/>
      <use xlink:href="#ArialMT-61" transform="translate(59.324219 0)"/>
      <use xlink:href="#ArialMT-72" transform="translate(114.939453 0)"/>
      <use xlink:href="#ArialMT-69" transform="translate(148.240234 0)"/>
      <use xlink:href="#ArialMT-61" transform="translate(170.457031 0)"/>
      <use xlink:href="#ArialMT-6e" transform="translate(226.072266 0)"/>
      <use xlink:href="#ArialMT-74" transform="translate(281.6875 0)"/>
     </g>
    </g>
    <g id="line2d_24">
     <path d="M 51.467188 44.146406 
L 59.467188 44.146406 
L 67.467188 44.146406 
" style="fill: none; stroke: #333333; stroke-width: 2; stroke-linecap: round"/>
    </g>
    <g id="text_21">
     <!-- queryA -->
     <g style="fill: #262626" transform="translate(73.867188 46.946406) scale(0.08 -0.08)">
      <defs>
       <path id="ArialMT-71" d="M 2538 -1272 
L 2538 353 
Q 2406 169 2170 47 
Q 1934 -75 1669 -75 
Q 1078 -75 651 397 
Q 225 869 225 1691 
Q 225 2191 398 2587 
Q 572 2984 901 3189 
Q 1231 3394 1625 3394 
Q 2241 3394 2594 2875 
L 2594 3319 
L 3100 3319 
L 3100 -1272 
L 2538 -1272 
z
M 803 1669 
Q 803 1028 1072 708 
Q 1341 388 1716 388 
Q 2075 388 2334 692 
Q 2594 997 2594 1619 
Q 2594 2281 2320 2615 
Q 2047 2950 1678 2950 
Q 1313 2950 1058 2639 
Q 803 2328 803 1669 
z
" transform="scale(0.015625)"/>
      </defs>
      <use xlink:href="#ArialMT-71"/>
      <use xlink:href="#ArialMT-75" transform="translate(55.615234 0)"/>
      <use xlink:href="#ArialMT-65" transform="translate(111.230469 0)"/>
      <use xlink:href="#ArialMT-72" transform="translate(166.845703 0)"/>
      <use xlink:href="#ArialMT-79" transform="translate(200.146484 0)"/>
      <use xlink:href="#ArialMT-41" transform="translate(250.146484 0)"/>
     </g>
    </g>
    <g id="line2d_25">
     <path d="M 51.467188 55.556406 
L 59.467188 55.556406 
L 67.467188 55.556406 
" style="fill: none; stroke-dasharray: 7.4,3.2; stroke-dashoffset: 0; stroke: #333333; stroke-width: 2"/>
    </g>
    <g id="text_22">
     <!-- queryB -->
     <g style="fill: #262626" transform="translate(73.867188 58.356406) scale(0.08 -0.08)">
      <use xlink:href="#ArialMT-71"/>
      <use xlink:href="#ArialMT-75" transform="translate(55.615234 0)"/>
      <use xlink:href="#ArialMT-65" transform="translate(111.230469 0)"/>
      <use xlink:href="#ArialMT-72" transform="translate(166.845703 0)"/>
      <use xlink:href="#ArialMT-79" transform="translate(200.146484 0)"/>
      <use xlink:href="#ArialMT-42" transform="translate(250.146484 0)"/>
     </g>
    </g>
   </g>
  </g>
  <g id="axes_2">
   <g id="patch_9">
    <path d="M 458.997187 278.389375 
L 848.847187 278.389375 
L 848.847187 21.789375 
L 458.997187 21.789375 
z
" style="fill: #ffffff"/>
   </g>
   <g id="matplotlib.axis_3">
    <g id="xtick_6">
     <g id="line2d_26">
      <path d="M 458.997187 278.389375 
L 458.997187 21.789375 
" clip-path="url(#pd97471095a)" style="fill: none; stroke: #cccccc; stroke-opacity: 0.2; stroke-width: 0.8; stroke-linecap: round"/>
     </g>
     <g id="text_23">
      <!-- 0 -->
      <g style="fill: #262626" transform="translate(456.216719 292.547188) scale(0.1 -0.1)">
       <use xlink:href="#ArialMT-30"/>
      </g>
     </g>
    </g>
    <g id="xtick_7">
     <g id="line2d_27">
      <path d="M 537.754763 278.389375 
L 537.754763 21.789375 
" clip-path="url(#pd97471095a)" style="fill: none; stroke: #cccccc; stroke-opacity: 0.2; stroke-width: 0.8; stroke-linecap: round"/>
     </g>
     <g id="text_24">
      <!-- 20 -->
      <g style="fill: #262626" transform="translate(532.193826 292.547188) scale(0.1 -0.1)">
       <use xlink:href="#ArialMT-32"/>
       <use xlink:href="#ArialMT-30" transform="translate(55.615234 0)"/>
      </g>
     </g>
    </g>
    <g id="xtick_8">
     <g id="line2d_28">
      <path d="M 616.512339 278.389375 
L 616.512339 21.789375 
" clip-path="url(#pd97471095a)" style="fill: none; stroke: #cccccc; stroke-opacity: 0.2; stroke-width: 0.8; stroke-linecap: round"/>
     </g>
     <g id="text_25">
      <!-- 40 -->
      <g style="fill: #262626" transform="translate(610.951402 292.547188) scale(0.1 -0.1)">
       <use xlink:href="#ArialMT-34"/>
       <use xlink:href="#ArialMT-30" transform="translate(55.615234 0)"/>
      </g>
     </g>
    </g>
    <g id="xtick_9">
     <g id="line2d_29">
      <path d="M 695.269915 278.389375 
L 695.269915 21.789375 
" clip-path="url(#pd97471095a)" style="fill: none; stroke: #cccccc; stroke-opacity: 0.2; stroke-width: 0.8; stroke-linecap: round"/>
     </g>
     <g id="text_26">
      <!-- 60 -->
      <g style="fill: #262626" transform="translate(689.708977 292.547188) scale(0.1 -0.1)">
       <use xlink:href="#ArialMT-36"/>
       <use xlink:href="#ArialMT-30" transform="translate(55.615234 0)"/>
      </g>
     </g>
    </g>
    <g id="xtick_10">
     <g id="line2d_30">
      <path d="M 774.027491 278.389375 
L 774.027491 21.789375 
" clip-path="url(#pd97471095a)" style="fill: none; stroke: #cccccc; stroke-opacity: 0.2; stroke-width: 0.8; stroke-linecap: round"/>
     </g>
     <g id="text_27">
      <!-- 80 -->
      <g style="fill: #262626" transform="translate(768.466553 292.547188) scale(0.1 -0.1)">
       <use xlink:href="#ArialMT-38"/>
       <use xlink:href="#ArialMT-30" transform="translate(55.615234 0)"/>
      </g>
     </g>
    </g>
    <g id="text_28">
     <!-- Elapsed Time (sec) -->
     <g style="fill: #262626" transform="translate(611.130781 305.814375) scale(0.1 -0.1)">
      <use xlink:href="#ArialMT-45"/>
      <use xlink:href="#ArialMT-6c" transform="translate(66.699219 0)"/>
      <use xlink:href="#ArialMT-61" transform="translate(88.916016 0)"/>
      <use xlink:href="#ArialMT-70" transform="translate(144.53125 0)"/>
      <use xlink:href="#ArialMT-73" transform="translate(200.146484 0)"/>
      <use xlink:href="#ArialMT-65" transform="translate(250.146484 0)"/>
      <use xlink:href="#ArialMT-64" transform="translate(305.761719 0)"/>
      <use xlink:href="#ArialMT-20" transform="translate(361.376953 0)"/>
      <use xlink:href="#ArialMT-54" transform="translate(387.410156 0)"/>
      <use xlink:href="#ArialMT-69" transform="translate(444.744141 0)"/>
      <use xlink:href="#ArialMT-6d" transform="translate(466.960938 0)"/>
      <use xlink:href="#ArialMT-65" transform="translate(550.261719 0)"/>
      <use xlink:href="#ArialMT-20" transform="translate(605.876953 0)"/>
      <use xlink:href="#ArialMT-28" transform="translate(633.660156 0)"/>
      <use xlink:href="#ArialMT-73" transform="translate(666.960938 0)"/>
      <use xlink:href="#ArialMT-65" transform="translate(716.960938 0)"/>
      <use xlink:href="#ArialMT-63" transform="translate(772.576172 0)"/>
      <use xlink:href="#ArialMT-29" transform="translate(822.576172 0)"/>
     </g>
    </g>
   </g>
   <g id="matplotlib.axis_4">
    <g id="ytick_7">
     <g id="line2d_31">
      <path d="M 458.997187 271.638563 
L 848.847187 271.638563 
" clip-path="url(#pd97471095a)" style="fill: none; stroke: #cccccc; stroke-opacity: 0.2; stroke-width: 0.8; stroke-linecap: round"/>
     </g>
    </g>
    <g id="ytick_8">
     <g id="line2d_32">
      <path d="M 458.997187 222.263448 
L 848.847187 222.263448 
" clip-path="url(#pd97471095a)" style="fill: none; stroke: #cccccc; stroke-opacity: 0.2; stroke-width: 0.8; stroke-linecap: round"/>
     </g>
    </g>
    <g id="ytick_9">
     <g id="line2d_33">
      <path d="M 458.997187 172.888334 
L 848.847187 172.888334 
" clip-path="url(#pd97471095a)" style="fill: none; stroke: #cccccc; stroke-opacity: 0.2; stroke-width: 0.8; stroke-linecap: round"/>
     </g>
    </g>
    <g id="ytick_10">
     <g id="line2d_34">
      <path d="M 458.997187 123.51322 
L 848.847187 123.51322 
" clip-path="url(#pd97471095a)" style="fill: none; stroke: #cccccc; stroke-opacity: 0.2; stroke-width: 0.8; stroke-linecap: round"/>
     </g>
    </g>
    <g id="ytick_11">
     <g id="line2d_35">
      <path d="M 458.997187 74.138106 
L 848.847187 74.138106 
" clip-path="url(#pd97471095a)" style="fill: none; stroke: #cccccc; stroke-opacity: 0.2; stroke-width: 0.8; stroke-linecap: round"/>
     </g>
    </g>
    <g id="ytick_12">
     <g id="line2d_36">
      <path d="M 458.997187 24.762991 
L 848.847187 24.762991 
" clip-path="url(#pd97471095a)" style="fill: none; stroke: #cccccc; stroke-opacity: 0.2; stroke-width: 0.8; stroke-linecap: round"/>
     </g>
    </g>
    <g id="text_29">
     <!-- Busy% -->
     <g style="fill: #262626" transform="translate(452.8925 165.651094) rotate(-90) scale(0.1 -0.1)">
      <use xlink:href="#ArialMT-42"/>
      <use xlink:href="#ArialMT-75" transform="translate(66.699219 0)"/>
      <use xlink:href="#ArialMT-73" transform="translate(122.314453 0)"/>
      <use xlink:href="#ArialMT-79" transform="translate(172.314453 0)"/>
      <use xlink:href="#ArialMT-25" transform="translate(222.314453 0)"/>
     </g>
    </g>
   </g>
   <g id="line2d_37">
    <path d="M 458.997187 264.824797 
L 462.935066 265.812299 
L 466.872945 266.231987 
L 470.810824 266.4048 
L 474.748703 266.182612 
L 478.686581 265.762924 
L 482.62446 265.935737 
L 486.562339 266.256675 
L 490.500218 265.935737 
L 494.438097 265.738236 
L 498.375975 265.861674 
L 502.313854 266.034487 
L 506.251733 266.454176 
L 510.189612 266.429488 
L 514.127491 266.577613 
L 518.065369 266.10855 
L 522.003248 266.330738 
L 525.941127 266.30605 
L 529.879006 266.380113 
L 533.816884 266.30605 
L 537.754763 266.133237 
L 541.692642 265.960424 
L 545.630521 266.380113 
L 549.5684 266.2073 
L 553.506278 266.256675 
L 557.444157 266.10855 
L 561.382036 266.034487 
L 565.319915 266.256675 
L 569.257794 266.429488 
L 573.195672 266.4048 
L 577.133551 266.429488 
L 581.07143 265.713549 
L 585.009309 266.256675 
L 588.947187 266.231987 
L 592.885066 265.985112 
L 596.822945 266.30605 
L 600.760824 266.10855 
L 604.698703 265.935737 
L 608.636581 266.083862 
L 612.57446 266.30605 
L 616.512339 265.935737 
L 620.450218 266.2073 
L 624.388097 266.330738 
L 628.325975 266.4048 
L 632.263854 266.4048 
L 636.201733 266.4048 
L 640.139612 265.911049 
L 644.077491 265.738236 
L 648.015369 265.664174 
L 651.953248 266.133237 
L 655.891127 265.985112 
L 659.829006 265.787611 
L 663.766884 266.157925 
L 667.704763 266.355425 
L 671.642642 266.429488 
L 675.580521 266.009799 
L 679.5184 266.182612 
L 683.456278 265.935737 
L 687.394157 265.762924 
L 691.332036 265.836987 
L 695.269915 265.762924 
L 699.207794 265.614799 
L 703.145672 266.133237 
L 707.083551 266.009799 
L 711.02143 265.836987 
L 714.959309 266.157925 
L 718.897187 266.478863 
L 722.835066 266.4048 
L 726.772945 266.651676 
L 730.710824 266.577613 
L 734.648703 266.454176 
L 738.586581 265.911049 
L 742.52446 265.590111 
L 746.462339 265.812299 
L 750.400218 266.256675 
L 754.338097 266.577613 
L 758.275975 266.009799 
L 762.213854 265.639486 
L 766.151733 265.836987 
L 770.089612 265.861674 
L 774.027491 265.886362 
L 777.965369 265.836987 
L 781.903248 265.762924 
L 785.841127 265.812299 
L 789.779006 265.861674 
L 793.716884 266.256675 
L 797.654763 266.231987 
L 801.592642 266.133237 
L 805.530521 266.528238 
L 809.4684 266.380113 
L 813.406278 266.330738 
L 817.344157 266.157925 
L 821.282036 265.836987 
L 825.219915 265.812299 
L 829.157794 265.812299 
L 833.095672 265.836987 
L 837.033551 265.886362 
L 840.97143 265.738236 
L 844.909309 266.2073 
L 848.847188 266.725739 
" clip-path="url(#pd97471095a)" style="fill: none; stroke: #1f77b4; stroke-opacity: 0.9; stroke-width: 1.2; stroke-linecap: round"/>
   </g>
   <g id="line2d_38">
    <path d="M 458.997187 264.553234 
L 462.935066 265.417298 
L 466.872945 265.09636 
L 470.810824 264.750734 
L 474.748703 264.874172 
L 478.686581 265.170423 
L 482.62446 265.046985 
L 486.562339 264.726047 
L 490.500218 265.121047 
L 494.438097 264.158233 
L 498.375975 265.343235 
L 502.313854 265.022297 
L 506.251733 264.726047 
L 510.189612 264.800109 
L 514.127491 264.676671 
L 518.065369 264.800109 
L 522.003248 264.824797 
L 525.941127 264.800109 
L 529.879006 264.676671 
L 533.816884 264.824797 
L 537.754763 264.750734 
L 541.692642 265.170423 
L 545.630521 264.99761 
L 549.5684 252.826644 
L 553.506278 264.874172 
L 557.444157 264.775422 
L 561.382036 264.923547 
L 565.319915 264.874172 
L 569.257794 264.849484 
L 573.195672 264.898859 
L 577.133551 264.849484 
L 581.07143 264.750734 
L 585.009309 264.923547 
L 588.947187 264.602609 
L 592.885066 264.553234 
L 596.822945 264.800109 
L 600.760824 264.824797 
L 604.698703 264.775422 
L 608.636581 264.800109 
L 612.57446 263.615106 
L 616.512339 265.046985 
L 620.450218 264.898859 
L 624.388097 264.800109 
L 628.325975 264.750734 
L 632.263854 264.824797 
L 636.201733 264.849484 
L 640.139612 264.701359 
L 644.077491 265.121047 
L 648.015369 265.145735 
L 651.953248 264.750734 
L 655.891127 264.948235 
L 659.829006 265.121047 
L 663.766884 264.972922 
L 667.704763 264.824797 
L 671.642642 264.800109 
L 675.580521 264.849484 
L 679.5184 265.022297 
L 683.456278 264.676671 
L 687.394157 264.948235 
L 691.332036 264.948235 
L 695.269915 265.121047 
L 699.207794 265.318548 
L 703.145672 264.849484 
L 707.083551 264.972922 
L 711.02143 265.145735 
L 714.959309 264.972922 
L 718.897187 264.676671 
L 722.835066 264.775422 
L 726.772945 264.750734 
L 730.710824 263.541044 
L 734.648703 264.651984 
L 738.586581 264.948235 
L 742.52446 265.022297 
L 746.462339 265.19511 
L 750.400218 264.849484 
L 754.338097 264.503858 
L 758.275975 265.022297 
L 762.213854 265.19511 
L 766.151733 265.219798 
L 770.089612 265.19511 
L 774.027491 265.244485 
L 777.965369 265.269173 
L 781.903248 265.269173 
L 785.841127 265.219798 
L 789.779006 265.269173 
L 793.716884 264.923547 
L 797.654763 265.145735 
L 801.592642 264.972922 
L 805.530521 264.726047 
L 809.4684 264.824797 
L 813.406278 264.824797 
L 817.344157 264.99761 
L 821.282036 265.244485 
L 825.219915 265.145735 
L 829.157794 265.19511 
L 833.095672 265.170423 
L 837.033551 265.244485 
L 840.97143 265.244485 
L 844.909309 265.071672 
L 848.847188 263.17073 
" clip-path="url(#pd97471095a)" style="fill: none; stroke: #ff7f0e; stroke-opacity: 0.9; stroke-width: 1.2; stroke-linecap: round"/>
   </g>
   <g id="line2d_39">
    <path d="M 458.997187 35.502079 
L 462.935066 35.699579 
L 466.872945 35.847704 
L 470.810824 35.748954 
L 474.748703 35.625516 
L 478.686581 35.526766 
L 482.62446 35.724267 
L 486.562339 35.773642 
L 490.500218 35.921767 
L 494.438097 35.971142 
L 498.375975 36.020517 
L 502.313854 35.921767 
L 506.251733 35.699579 
L 510.189612 35.353953 
L 514.127491 35.576141 
L 518.065369 35.329266 
L 522.003248 35.502079 
L 525.941127 35.798329 
L 529.879006 36.069892 
L 533.816884 35.526766 
L 537.754763 35.674892 
L 541.692642 35.304578 
L 545.630521 35.205828 
L 549.5684 35.033015 
L 553.506278 35.403328 
L 557.444157 35.131765 
L 561.382036 34.366451 
L 565.319915 34.020825 
L 569.257794 33.922075 
L 573.195672 33.922075 
L 577.133551 33.946763 
L 581.07143 33.897387 
L 585.009309 33.798637 
L 588.947187 33.996138 
L 592.885066 34.391139 
L 596.822945 34.317076 
L 600.760824 35.057703 
L 604.698703 35.724267 
L 608.636581 35.600829 
L 612.57446 35.304578 
L 616.512339 35.600829 
L 620.450218 35.724267 
L 624.388097 35.600829 
L 628.325975 35.526766 
L 632.263854 35.403328 
L 636.201733 35.329266 
L 640.139612 35.699579 
L 644.077491 35.576141 
L 648.015369 35.724267 
L 651.953248 35.551454 
L 655.891127 35.773642 
L 659.829006 35.625516 
L 663.766884 35.378641 
L 667.704763 35.304578 
L 671.642642 35.304578 
L 675.580521 35.452703 
L 679.5184 35.526766 
L 683.456278 35.526766 
L 687.394157 35.674892 
L 691.332036 35.823017 
L 695.269915 35.576141 
L 699.207794 35.971142 
L 703.145672 35.699579 
L 707.083551 35.600829 
L 711.02143 35.674892 
L 714.959309 35.847704 
L 718.897187 35.89708 
L 722.835066 35.625516 
L 726.772945 36.143955 
L 730.710824 35.99583 
L 734.648703 36.069892 
L 738.586581 36.069892 
L 742.52446 35.971142 
L 746.462339 35.847704 
L 750.400218 35.724267 
L 754.338097 35.872392 
L 758.275975 35.971142 
L 762.213854 35.798329 
L 766.151733 36.168643 
L 770.089612 36.045205 
L 774.027491 35.921767 
L 777.965369 36.069892 
L 781.903248 35.872392 
L 785.841127 35.99583 
L 789.779006 35.99583 
L 793.716884 35.99583 
L 797.654763 35.452703 
L 801.592642 35.650204 
L 805.530521 35.847704 
L 809.4684 35.773642 
L 813.406278 35.724267 
L 817.344157 35.798329 
L 821.282036 35.798329 
L 825.219915 35.921767 
L 829.157794 35.921767 
L 833.095672 35.921767 
L 837.033551 35.773642 
L 840.97143 35.823017 
L 844.909309 35.353953 
L 848.847188 35.847704 
" clip-path="url(#pd97471095a)" style="fill: none; stroke: #2ca02c; stroke-opacity: 0.9; stroke-width: 1.2; stroke-linecap: round"/>
   </g>
   <g id="line2d_40">
    <path d="M 458.997187 263.960732 
L 462.935066 264.750734 
L 466.872945 264.602609 
L 470.810824 264.701359 
L 474.748703 264.701359 
L 478.686581 264.775422 
L 482.62446 264.726047 
L 486.562339 264.750734 
L 490.500218 264.750734 
L 494.438097 263.960732 
L 498.375975 264.503858 
L 502.313854 264.726047 
L 506.251733 264.676671 
L 510.189612 264.775422 
L 514.127491 264.553234 
L 518.065369 264.99761 
L 522.003248 264.824797 
L 525.941127 264.824797 
L 529.879006 264.849484 
L 533.816884 264.948235 
L 537.754763 265.145735 
L 541.692642 264.972922 
L 545.630521 264.577921 
L 549.5684 264.627296 
L 553.506278 264.972922 
L 557.444157 265.29386 
L 561.382036 265.046985 
L 565.319915 265.046985 
L 569.257794 264.800109 
L 573.195672 264.874172 
L 577.133551 264.824797 
L 581.07143 264.800109 
L 585.009309 264.775422 
L 588.947187 264.898859 
L 592.885066 264.849484 
L 596.822945 264.898859 
L 600.760824 264.972922 
L 604.698703 265.022297 
L 608.636581 264.948235 
L 612.57446 264.18292 
L 616.512339 264.800109 
L 620.450218 264.849484 
L 624.388097 264.750734 
L 628.325975 264.800109 
L 632.263854 264.775422 
L 636.201733 264.800109 
L 640.139612 264.701359 
L 644.077491 264.898859 
L 648.015369 264.99761 
L 651.953248 265.022297 
L 655.891127 264.972922 
L 659.829006 264.874172 
L 663.766884 264.800109 
L 667.704763 264.849484 
L 671.642642 264.726047 
L 675.580521 264.701359 
L 679.5184 264.800109 
L 683.456278 264.750734 
L 687.394157 264.972922 
L 691.332036 265.046985 
L 695.269915 264.948235 
L 699.207794 264.800109 
L 703.145672 264.651984 
L 707.083551 264.726047 
L 711.02143 264.676671 
L 714.959309 264.775422 
L 718.897187 264.528546 
L 722.835066 264.577921 
L 726.772945 264.577921 
L 730.710824 264.133545 
L 734.648703 264.651984 
L 738.586581 264.726047 
L 742.52446 264.676671 
L 746.462339 264.750734 
L 750.400218 264.651984 
L 754.338097 264.627296 
L 758.275975 264.602609 
L 762.213854 264.701359 
L 766.151733 264.726047 
L 770.089612 264.824797 
L 774.027491 264.750734 
L 777.965369 264.824797 
L 781.903248 264.701359 
L 785.841127 264.726047 
L 789.779006 264.775422 
L 793.716884 264.800109 
L 797.654763 264.577921 
L 801.592642 264.651984 
L 805.530521 264.528546 
L 809.4684 264.800109 
L 813.406278 264.651984 
L 817.344157 264.874172 
L 821.282036 264.775422 
L 825.219915 264.775422 
L 829.157794 264.701359 
L 833.095672 264.824797 
L 837.033551 264.701359 
L 840.97143 264.849484 
L 844.909309 264.553234 
L 848.847188 264.08417 
" clip-path="url(#pd97471095a)" style="fill: none; stroke: #d62728; stroke-opacity: 0.9; stroke-width: 1.2; stroke-linecap: round"/>
   </g>
   <g id="line2d_41">
    <path d="M 458.997187 260.603224 
L 462.935066 262.084478 
L 466.872945 261.368539 
L 470.810824 261.368539 
L 474.748703 260.800725 
L 478.686581 260.998225 
L 482.62446 261.121663 
L 486.562339 261.195726 
L 490.500218 261.417914 
L 494.438097 261.590727 
L 498.375975 260.94885 
L 502.313854 261.714165 
" clip-path="url(#pd97471095a)" style="fill: none; stroke-dasharray: 4.44,1.92; stroke-dashoffset: 0; stroke: #1f77b4; stroke-opacity: 0.9; stroke-width: 1.2"/>
   </g>
   <g id="line2d_42">
    <path d="M 458.997187 261.664789 
L 462.935066 262.87448 
L 466.872945 263.269481 
L 470.810824 262.948542 
L 474.748703 263.121355 
L 478.686581 261.319164 
L 482.62446 260.998225 
L 486.562339 262.652292 
L 490.500218 261.171038 
L 494.438097 263.960732 
L 498.375975 260.109473 
L 502.313854 260.405724 
" clip-path="url(#pd97471095a)" style="fill: none; stroke-dasharray: 4.44,1.92; stroke-dashoffset: 0; stroke: #ff7f0e; stroke-opacity: 0.9; stroke-width: 1.2"/>
   </g>
   <g id="line2d_43">
    <path d="M 458.997187 35.872392 
L 462.935066 35.89708 
L 466.872945 35.748954 
L 470.810824 35.823017 
L 474.748703 35.650204 
L 478.686581 35.872392 
L 482.62446 36.242705 
L 486.562339 35.971142 
L 490.500218 36.119268 
L 494.438097 35.823017 
L 498.375975 35.724267 
L 502.313854 36.884582 
" clip-path="url(#pd97471095a)" style="fill: none; stroke-dasharray: 4.44,1.92; stroke-dashoffset: 0; stroke: #2ca02c; stroke-opacity: 0.9; stroke-width: 1.2"/>
   </g>
   <g id="line2d_44">
    <path d="M 458.997187 260.504474 
L 462.935066 260.356349 
L 466.872945 260.8501 
L 470.810824 261.812915 
L 474.748703 261.146351 
L 478.686581 262.849792 
L 482.62446 263.17073 
L 486.562339 261.393226 
L 490.500218 262.504166 
L 494.438097 260.701975 
L 498.375975 264.429796 
L 502.313854 260.924163 
" clip-path="url(#pd97471095a)" style="fill: none; stroke-dasharray: 4.44,1.92; stroke-dashoffset: 0; stroke: #d62728; stroke-opacity: 0.9; stroke-width: 1.2"/>
   </g>
   <g id="patch_10">
    <path d="M 458.997187 278.389375 
L 458.997187 21.789375 
" style="fill: none; stroke: #cccccc; stroke-width: 0.8; stroke-linejoin: miter; stroke-linecap: square"/>
   </g>
   <g id="patch_11">
    <path d="M 848.847187 278.389375 
L 848.847187 21.789375 
" style="fill: none; stroke: #cccccc; stroke-width: 0.8; stroke-linejoin: miter; stroke-linecap: square"/>
   </g>
   <g id="patch_12">
    <path d="M 458.997187 278.389375 
L 848.847188 278.389375 
" style="fill: none; stroke: #cccccc; stroke-width: 0.8; stroke-linejoin: miter; stroke-linecap: square"/>
   </g>
   <g id="patch_13">
    <path d="M 458.997187 21.789375 
L 848.847188 21.789375 
" style="fill: none; stroke: #cccccc; stroke-width: 0.8; stroke-linejoin: miter; stroke-linecap: square"/>
   </g>
   <g id="text_30">
    <!-- APX1225 — PC1 1 core -->
    <g style="fill: #262626" transform="translate(589.2225 15.789375) scale(0.12 -0.12)">
     <use xlink:href="#ArialMT-41"/>
     <use xlink:href="#ArialMT-50" transform="translate(66.699219 0)"/>
     <use xlink:href="#ArialMT-58" transform="translate(133.398438 0)"/>
     <use xlink:href="#ArialMT-31" transform="translate(200.097656 0)"/>
     <use xlink:href="#ArialMT-32" transform="translate(255.712891 0)"/>
     <use xlink:href="#ArialMT-32" transform="translate(311.328125 0)"/>
     <use xlink:href="#ArialMT-35" transform="translate(366.943359 0)"/>
     <use xlink:href="#ArialMT-20" transform="translate(422.558594 0)"/>
     <use xlink:href="#ArialMT-2014" transform="translate(450.341797 0)"/>
     <use xlink:href="#ArialMT-20" transform="translate(550.341797 0)"/>
     <use xlink:href="#ArialMT-50" transform="translate(578.125 0)"/>
     <use xlink:href="#ArialMT-43" transform="translate(644.824219 0)"/>
     <use xlink:href="#ArialMT-31" transform="translate(717.041016 0)"/>
     <use xlink:href="#ArialMT-20" transform="translate(772.65625 0)"/>
     <use xlink:href="#ArialMT-31" transform="translate(800.439453 0)"/>
     <use xlink:href="#ArialMT-20" transform="translate(856.054688 0)"/>
     <use xlink:href="#ArialMT-63" transform="translate(883.837891 0)"/>
     <use xlink:href="#ArialMT-6f" transform="translate(933.837891 0)"/>
     <use xlink:href="#ArialMT-72" transform="translate(989.453125 0)"/>
     <use xlink:href="#ArialMT-65" transform="translate(1022.753906 0)"/>
    </g>
   </g>
   <g id="legend_3">
    <g id="patch_14">
     <path d="M 732.122187 63.052656 
L 843.247187 63.052656 
Q 844.847188 63.052656 844.847188 61.452656 
L 844.847188 27.389375 
Q 844.847188 25.789375 843.247187 25.789375 
L 732.122187 25.789375 
Q 730.522187 25.789375 730.522187 27.389375 
L 730.522187 61.452656 
Q 730.522187 63.052656 732.122187 63.052656 
z
" style="fill: #ffffff; opacity: 0.8; stroke: #cccccc; stroke-linejoin: miter"/>
    </g>
    <g id="text_31">
     <!-- CPU -->
     <g style="fill: #262626" transform="translate(778.183359 35.431406) scale(0.09 -0.09)">
      <use xlink:href="#ArialMT-43"/>
      <use xlink:href="#ArialMT-50" transform="translate(72.216797 0)"/>
      <use xlink:href="#ArialMT-55" transform="translate(138.916016 0)"/>
     </g>
    </g>
    <g id="line2d_45">
     <path d="M 733.722188 44.146406 
L 741.722188 44.146406 
L 749.722188 44.146406 
" style="fill: none; stroke: #1f77b4; stroke-width: 2; stroke-linecap: round"/>
    </g>
    <g id="text_32">
     <!-- CPU 0 -->
     <g style="fill: #262626" transform="translate(756.122187 46.946406) scale(0.08 -0.08)">
      <use xlink:href="#ArialMT-43"/>
      <use xlink:href="#ArialMT-50" transform="translate(72.216797 0)"/>
      <use xlink:href="#ArialMT-55" transform="translate(138.916016 0)"/>
      <use xlink:href="#ArialMT-20" transform="translate(211.132812 0)"/>
      <use xlink:href="#ArialMT-30" transform="translate(238.916016 0)"/>
     </g>
    </g>
    <g id="line2d_46">
     <path d="M 733.722188 55.462656 
L 741.722188 55.462656 
L 749.722188 55.462656 
" style="fill: none; stroke: #ff7f0e; stroke-width: 2; stroke-linecap: round"/>
    </g>
    <g id="text_33">
     <!-- CPU 1 -->
     <g style="fill: #262626" transform="translate(756.122187 58.262656) scale(0.08 -0.08)">
      <use xlink:href="#ArialMT-43"/>
      <use xlink:href="#ArialMT-50" transform="translate(72.216797 0)"/>
      <use xlink:href="#ArialMT-55" transform="translate(138.916016 0)"/>
      <use xlink:href="#ArialMT-20" transform="translate(211.132812 0)"/>
      <use xlink:href="#ArialMT-31" transform="translate(238.916016 0)"/>
     </g>
    </g>
    <g id="line2d_47">
     <path d="M 795.684687 44.146406 
L 803.684687 44.146406 
L 811.684687 44.146406 
" style="fill: none; stroke: #2ca02c; stroke-width: 2; stroke-linecap: round"/>
    </g>
    <g id="text_34">
     <!-- CPU 2 -->
     <g style="fill: #262626" transform="translate(818.084687 46.946406) scale(0.08 -0.08)">
      <use xlink:href="#ArialMT-43"/>
      <use xlink:href="#ArialMT-50" transform="translate(72.216797 0)"/>
      <use xlink:href="#ArialMT-55" transform="translate(138.916016 0)"/>
      <use xlink:href="#ArialMT-20" transform="translate(211.132812 0)"/>
      <use xlink:href="#ArialMT-32" transform="translate(238.916016 0)"/>
     </g>
    </g>
    <g id="line2d_48">
     <path d="M 795.684687 55.462656 
L 803.684687 55.462656 
L 811.684687 55.462656 
" style="fill: none; stroke: #d62728; stroke-width: 2; stroke-linecap: round"/>
    </g>
    <g id="text_35">
     <!-- CPU 3 -->
     <g style="fill: #262626" transform="translate(818.084687 58.262656) scale(0.08 -0.08)">
      <use xlink:href="#ArialMT-43"/>
      <use xlink:href="#ArialMT-50" transform="translate(72.216797 0)"/>
      <use xlink:href="#ArialMT-55" transform="translate(138.916016 0)"/>
      <use xlink:href="#ArialMT-20" transform="translate(211.132812 0)"/>
      <use xlink:href="#ArialMT-33" transform="translate(238.916016 0)"/>
     </g>
    </g>
   </g>
   <g id="legend_4">
    <g id="patch_15">
     <path d="M 464.597187 63.240156 
L 515.543437 63.240156 
Q 517.143437 63.240156 517.143437 61.640156 
L 517.143437 27.389375 
Q 517.143437 25.789375 515.543437 25.789375 
L 464.597187 25.789375 
Q 462.997187 25.789375 462.997187 27.389375 
L 462.997187 61.640156 
Q 462.997187 63.240156 464.597187 63.240156 
z
" style="fill: #ffffff; opacity: 0.8; stroke: #cccccc; stroke-linejoin: miter"/>
    </g>
    <g id="text_36">
     <!-- Variant -->
     <g style="fill: #262626" transform="translate(476.144922 35.431406) scale(0.09 -0.09)">
      <use xlink:href="#ArialMT-56"/>
      <use xlink:href="#ArialMT-61" transform="translate(59.324219 0)"/>
      <use xlink:href="#ArialMT-72" transform="translate(114.939453 0)"/>
      <use xlink:href="#ArialMT-69" transform="translate(148.240234 0)"/>
      <use xlink:href="#ArialMT-61" transform="translate(170.457031 0)"/>
      <use xlink:href="#ArialMT-6e" transform="translate(226.072266 0)"/>
      <use xlink:href="#ArialMT-74" transform="translate(281.6875 0)"/>
     </g>
    </g>
    <g id="line2d_49">
     <path d="M 466.197187 44.146406 
L 474.197187 44.146406 
L 482.197187 44.146406 
" style="fill: none; stroke: #333333; stroke-width: 2; stroke-linecap: round"/>
    </g>
    <g id="text_37">
     <!-- queryA -->
     <g style="fill: #262626" transform="translate(488.597187 46.946406) scale(0.08 -0.08)">
      <use xlink:href="#ArialMT-71"/>
      <use xlink:href="#ArialMT-75" transform="translate(55.615234 0)"/>
      <use xlink:href="#ArialMT-65" transform="translate(111.230469 0)"/>
      <use xlink:href="#ArialMT-72" transform="translate(166.845703 0)"/>
      <use xlink:href="#ArialMT-79" transform="translate(200.146484 0)"/>
      <use xlink:href="#ArialMT-41" transform="translate(250.146484 0)"/>
     </g>
    </g>
    <g id="line2d_50">
     <path d="M 466.197187 55.556406 
L 474.197187 55.556406 
L 482.197187 55.556406 
" style="fill: none; stroke-dasharray: 7.4,3.2; stroke-dashoffset: 0; stroke: #333333; stroke-width: 2"/>
    </g>
    <g id="text_38">
     <!-- queryB -->
     <g style="fill: #262626" transform="translate(488.597187 58.356406) scale(0.08 -0.08)">
      <use xlink:href="#ArialMT-71"/>
      <use xlink:href="#ArialMT-75" transform="translate(55.615234 0)"/>
      <use xlink:href="#ArialMT-65" transform="translate(111.230469 0)"/>
      <use xlink:href="#ArialMT-72" transform="translate(166.845703 0)"/>
      <use xlink:href="#ArialMT-79" transform="translate(200.146484 0)"/>
      <use xlink:href="#ArialMT-42" transform="translate(250.146484 0)"/>
     </g>
    </g>
   </g>
  </g>
 </g>
 <defs>
  <clipPath id="pe8d217d047">
   <rect x="44.267188" y="21.789375" width="389.85" height="256.6"/>
  </clipPath>
  <clipPath id="pd97471095a">
   <rect x="458.997187" y="21.789375" width="389.85" height="256.6"/>
  </clipPath>
 </defs>
</svg>
