<?xml version="1.0" encoding="utf-8" standalone="no"?>
<!DOCTYPE svg PUBLIC "-//W3C//DTD SVG 1.1//EN"
  "http://www.w3.org/Graphics/SVG/1.1/DTD/svg11.dtd">
<svg xmlns:xlink="http://www.w3.org/1999/xlink" width="856.047187pt" height="315.119063pt" viewBox="0 0 856.047187 315.119063" xmlns="http://www.w3.org/2000/svg" version="1.1">
 <metadata>
  <rdf:RDF xmlns:dc="http://purl.org/dc/elements/1.1/" xmlns:cc="http://creativecommons.org/ns#" xmlns:rdf="http://www.w3.org/1999/02/22-rdf-syntax-ns#">
   <cc:Work>
    <dc:type rdf:resource="http://purl.org/dc/dcmitype/StillImage"/>
    <dc:date>2026-05-26T16:50:40.536865</dc:date>
    <dc:format>image/svg+xml</dc:format>
    <dc:creator>
     <cc:Agent>
      <dc:title>Matplotlib v3.10.1, https://matplotlib.org/</dc:title>
     </cc:Agent>
    </dc:creator>
   </cc:Work>
  </rdf:RDF>
 </metadata>
 <defs>
  <style type="text/css">*{stroke-linejoin: round; stroke-linecap: butt}</style>
 </defs>
 <g id="figure_1">
  <g id="patch_1">
   <path d="M 0 315.119063 
L 856.047187 315.119063 
L 856.047187 0 
L 0 0 
z
" style="fill: #ffffff"/>
  </g>
  <g id="axes_1">
   <g id="patch_2">
    <path d="M 44.267188 278.389375 
L 434.117188 278.389375 
L 434.117188 21.789375 
L 44.267188 21.789375 
z
" style="fill: #ffffff"/>
   </g>
   <g id="matplotlib.axis_1">
    <g id="xtick_1">
     <g id="line2d_1">
      <path d="M 44.267188 278.389375 
L 44.267188 21.789375 
" clip-path="url(#p507660998c)" style="fill: none; stroke: #cccccc; stroke-opacity: 0.2; stroke-width: 0.8; stroke-linecap: round"/>
     </g>
     <g id="text_1">
      <!-- 0 -->
      <g style="fill: #262626" transform="translate(41.486719 292.547188) scale(0.1 -0.1)">
       <defs>
        <path id="ArialMT-30" d="M 266 2259 
Q 266 3072 433 3567 
Q 600 4063 929 4331 
Q 1259 4600 1759 4600 
Q 2128 4600 2406 4451 
Q 2684 4303 2865 4023 
Q 3047 3744 3150 3342 
Q 3253 2941 3253 2259 
Q 3253 1453 3087 958 
Q 2922 463 2592 192 
Q 2263 -78 1759 -78 
Q 1097 -78 719 397 
Q 266 969 266 2259 
z
M 844 2259 
Q 844 1131 1108 757 
Q 1372 384 1759 384 
Q 2147 384 2411 759 
Q 2675 1134 2675 2259 
Q 2675 3391 2411 3762 
Q 2147 4134 1753 4134 
Q 1366 4134 1134 3806 
Q 844 3388 844 2259 
z
" transform="scale(0.015625)"/>
       </defs>
       <use xlink:href="#ArialMT-30"/>
      </g>
     </g>
    </g>
    <g id="xtick_2">
     <g id="line2d_2">
      <path d="M 116.461632 278.389375 
L 116.461632 21.789375 
" clip-path="url(#p507660998c)" style="fill: none; stroke: #cccccc; stroke-opacity: 0.2; stroke-width: 0.8; stroke-linecap: round"/>
     </g>
     <g id="text_2">
      <!-- 10 -->
      <g style="fill: #262626" transform="translate(110.900694 292.547188) scale(0.1 -0.1)">
       <defs>
        <path id="ArialMT-31" d="M 2384 0 
L 1822 0 
L 1822 3584 
Q 1619 3391 1289 3197 
Q 959 3003 697 2906 
L 697 3450 
Q 1169 3672 1522 3987 
Q 1875 4303 2022 4600 
L 2384 4600 
L 2384 0 
z
" transform="scale(0.015625)"/>
       </defs>
       <use xlink:href="#ArialMT-31"/>
       <use xlink:href="#ArialMT-30" transform="translate(55.615234 0)"/>
      </g>
     </g>
    </g>
    <g id="xtick_3">
     <g id="line2d_3">
      <path d="M 188.656076 278.389375 
L 188.656076 21.789375 
" clip-path="url(#p507660998c)" style="fill: none; stroke: #cccccc; stroke-opacity: 0.2; stroke-width: 0.8; stroke-linecap: round"/>
     </g>
     <g id="text_3">
      <!-- 20 -->
      <g style="fill: #262626" transform="translate(183.095139 292.547188) scale(0.1 -0.1)">
       <defs>
        <path id="ArialMT-32" d="M 3222 541 
L 3222 0 
L 194 0 
Q 188 203 259 391 
Q 375 700 629 1000 
Q 884 1300 1366 1694 
Q 2113 2306 2375 2664 
Q 2638 3022 2638 3341 
Q 2638 3675 2398 3904 
Q 2159 4134 1775 4134 
Q 1369 4134 1125 3890 
Q 881 3647 878 3216 
L 300 3275 
Q 359 3922 746 4261 
Q 1134 4600 1788 4600 
Q 2447 4600 2831 4234 
Q 3216 3869 3216 3328 
Q 3216 3053 3103 2787 
Q 2991 2522 2730 2228 
Q 2469 1934 1863 1422 
Q 1356 997 1212 845 
Q 1069 694 975 541 
L 3222 541 
z
" transform="scale(0.015625)"/>
       </defs>
       <use xlink:href="#ArialMT-32"/>
       <use xlink:href="#ArialMT-30" transform="translate(55.615234 0)"/>
      </g>
     </g>
    </g>
    <g id="xtick_4">
     <g id="line2d_4">
      <path d="M 260.850521 278.389375 
L 260.850521 21.789375 
" clip-path="url(#p507660998c)" style="fill: none; stroke: #cccccc; stroke-opacity: 0.2; stroke-width: 0.8; stroke-linecap: round"/>
     </g>
     <g id="text_4">
      <!-- 30 -->
      <g style="fill: #262626" transform="translate(255.289583 292.547188) scale(0.1 -0.1)">
       <defs>
        <path id="ArialMT-33" d="M 269 1209 
L 831 1284 
Q 928 806 1161 595 
Q 1394 384 1728 384 
Q 2125 384 2398 659 
Q 2672 934 2672 1341 
Q 2672 1728 2419 1979 
Q 2166 2231 1775 2231 
Q 1616 2231 1378 2169 
L 1441 2663 
Q 1497 2656 1531 2656 
Q 1891 2656 2178 2843 
Q 2466 3031 2466 3422 
Q 2466 3731 2256 3934 
Q 2047 4138 1716 4138 
Q 1388 4138 1169 3931 
Q 950 3725 888 3313 
L 325 3413 
Q 428 3978 793 4289 
Q 1159 4600 1703 4600 
Q 2078 4600 2393 4439 
Q 2709 4278 2876 4000 
Q 3044 3722 3044 3409 
Q 3044 3113 2884 2869 
Q 2725 2625 2413 2481 
Q 2819 2388 3044 2092 
Q 3269 1797 3269 1353 
Q 3269 753 2831 336 
Q 2394 -81 1725 -81 
Q 1122 -81 723 278 
Q 325 638 269 1209 
z
" transform="scale(0.015625)"/>
       </defs>
       <use xlink:href="#ArialMT-33"/>
       <use xlink:href="#ArialMT-30" transform="translate(55.615234 0)"/>
      </g>
     </g>
    </g>
    <g id="xtick_5">
     <g id="line2d_5">
      <path d="M 333.044965 278.389375 
L 333.044965 21.789375 
" clip-path="url(#p507660998c)" style="fill: none; stroke: #cccccc; stroke-opacity: 0.2; stroke-width: 0.8; stroke-linecap: round"/>
     </g>
     <g id="text_5">
      <!-- 40 -->
      <g style="fill: #262626" transform="translate(327.484028 292.547188) scale(0.1 -0.1)">
       <defs>
        <path id="ArialMT-34" d="M 2069 0 
L 2069 1097 
L 81 1097 
L 81 1613 
L 2172 4581 
L 2631 4581 
L 2631 1613 
L 3250 1613 
L 3250 1097 
L 2631 1097 
L 2631 0 
L 2069 0 
z
M 2069 1613 
L 2069 3678 
L 634 1613 
L 2069 1613 
z
" transform="scale(0.015625)"/>
       </defs>
       <use xlink:href="#ArialMT-34"/>
       <use xlink:href="#ArialMT-30" transform="translate(55.615234 0)"/>
      </g>
     </g>
    </g>
    <g id="xtick_6">
     <g id="line2d_6">
      <path d="M 405.23941 278.389375 
L 405.23941 21.789375 
" clip-path="url(#p507660998c)" style="fill: none; stroke: #cccccc; stroke-opacity: 0.2; stroke-width: 0.8; stroke-linecap: round"/>
     </g>
     <g id="text_6">
      <!-- 50 -->
      <g style="fill: #262626" transform="translate(399.678472 292.547188) scale(0.1 -0.1)">
       <defs>
        <path id="ArialMT-35" d="M 266 1200 
L 856 1250 
Q 922 819 1161 601 
Q 1400 384 1738 384 
Q 2144 384 2425 690 
Q 2706 997 2706 1503 
Q 2706 1984 2436 2262 
Q 2166 2541 1728 2541 
Q 1456 2541 1237 2417 
Q 1019 2294 894 2097 
L 366 2166 
L 809 4519 
L 3088 4519 
L 3088 3981 
L 1259 3981 
L 1013 2750 
Q 1425 3038 1878 3038 
Q 2478 3038 2890 2622 
Q 3303 2206 3303 1553 
Q 3303 931 2941 478 
Q 2500 -78 1738 -78 
Q 1113 -78 717 272 
Q 322 622 266 1200 
z
" transform="scale(0.015625)"/>
       </defs>
       <use xlink:href="#ArialMT-35"/>
       <use xlink:href="#ArialMT-30" transform="translate(55.615234 0)"/>
      </g>
     </g>
    </g>
    <g id="text_7">
     <!-- Elapsed Time (sec) -->
     <g style="fill: #262626" transform="translate(196.400781 305.814375) scale(0.1 -0.1)">
      <defs>
       <path id="ArialMT-45" d="M 506 0 
L 506 4581 
L 3819 4581 
L 3819 4041 
L 1113 4041 
L 1113 2638 
L 3647 2638 
L 3647 2100 
L 1113 2100 
L 1113 541 
L 3925 541 
L 3925 0 
L 506 0 
z
" transform="scale(0.015625)"/>
       <path id="ArialMT-6c" d="M 409 0 
L 409 4581 
L 972 4581 
L 972 0 
L 409 0 
z
" transform="scale(0.015625)"/>
       <path id="ArialMT-61" d="M 2588 409 
Q 2275 144 1986 34 
Q 1697 -75 1366 -75 
Q 819 -75 525 192 
Q 231 459 231 875 
Q 231 1119 342 1320 
Q 453 1522 633 1644 
Q 813 1766 1038 1828 
Q 1203 1872 1538 1913 
Q 2219 1994 2541 2106 
Q 2544 2222 2544 2253 
Q 2544 2597 2384 2738 
Q 2169 2928 1744 2928 
Q 1347 2928 1158 2789 
Q 969 2650 878 2297 
L 328 2372 
Q 403 2725 575 2942 
Q 747 3159 1072 3276 
Q 1397 3394 1825 3394 
Q 2250 3394 2515 3294 
Q 2781 3194 2906 3042 
Q 3031 2891 3081 2659 
Q 3109 2516 3109 2141 
L 3109 1391 
Q 3109 606 3145 398 
Q 3181 191 3288 0 
L 2700 0 
Q 2613 175 2588 409 
z
M 2541 1666 
Q 2234 1541 1622 1453 
Q 1275 1403 1131 1340 
Q 988 1278 909 1158 
Q 831 1038 831 891 
Q 831 666 1001 516 
Q 1172 366 1500 366 
Q 1825 366 2078 508 
Q 2331 650 2450 897 
Q 2541 1088 2541 1459 
L 2541 1666 
z
" transform="scale(0.015625)"/>
       <path id="ArialMT-70" d="M 422 -1272 
L 422 3319 
L 934 3319 
L 934 2888 
Q 1116 3141 1344 3267 
Q 1572 3394 1897 3394 
Q 2322 3394 2647 3175 
Q 2972 2956 3137 2557 
Q 3303 2159 3303 1684 
Q 3303 1175 3120 767 
Q 2938 359 2589 142 
Q 2241 -75 1856 -75 
Q 1575 -75 1351 44 
Q 1128 163 984 344 
L 984 -1272 
L 422 -1272 
z
M 931 1641 
Q 931 1000 1190 694 
Q 1450 388 1819 388 
Q 2194 388 2461 705 
Q 2728 1022 2728 1688 
Q 2728 2322 2467 2637 
Q 2206 2953 1844 2953 
Q 1484 2953 1207 2617 
Q 931 2281 931 1641 
z
" transform="scale(0.015625)"/>
       <path id="ArialMT-73" d="M 197 991 
L 753 1078 
Q 800 744 1014 566 
Q 1228 388 1613 388 
Q 2000 388 2187 545 
Q 2375 703 2375 916 
Q 2375 1106 2209 1216 
Q 2094 1291 1634 1406 
Q 1016 1563 777 1677 
Q 538 1791 414 1992 
Q 291 2194 291 2438 
Q 291 2659 392 2848 
Q 494 3038 669 3163 
Q 800 3259 1026 3326 
Q 1253 3394 1513 3394 
Q 1903 3394 2198 3281 
Q 2494 3169 2634 2976 
Q 2775 2784 2828 2463 
L 2278 2388 
Q 2241 2644 2061 2787 
Q 1881 2931 1553 2931 
Q 1166 2931 1000 2803 
Q 834 2675 834 2503 
Q 834 2394 903 2306 
Q 972 2216 1119 2156 
Q 1203 2125 1616 2013 
Q 2213 1853 2448 1751 
Q 2684 1650 2818 1456 
Q 2953 1263 2953 975 
Q 2953 694 2789 445 
Q 2625 197 2315 61 
Q 2006 -75 1616 -75 
Q 969 -75 630 194 
Q 291 463 197 991 
z
" transform="scale(0.015625)"/>
       <path id="ArialMT-65" d="M 2694 1069 
L 3275 997 
Q 3138 488 2766 206 
Q 2394 -75 1816 -75 
Q 1088 -75 661 373 
Q 234 822 234 1631 
Q 234 2469 665 2931 
Q 1097 3394 1784 3394 
Q 2450 3394 2872 2941 
Q 3294 2488 3294 1666 
Q 3294 1616 3291 1516 
L 816 1516 
Q 847 969 1125 678 
Q 1403 388 1819 388 
Q 2128 388 2347 550 
Q 2566 713 2694 1069 
z
M 847 1978 
L 2700 1978 
Q 2663 2397 2488 2606 
Q 2219 2931 1791 2931 
Q 1403 2931 1139 2672 
Q 875 2413 847 1978 
z
" transform="scale(0.015625)"/>
       <path id="ArialMT-64" d="M 2575 0 
L 2575 419 
Q 2259 -75 1647 -75 
Q 1250 -75 917 144 
Q 584 363 401 755 
Q 219 1147 219 1656 
Q 219 2153 384 2558 
Q 550 2963 881 3178 
Q 1213 3394 1622 3394 
Q 1922 3394 2156 3267 
Q 2391 3141 2538 2938 
L 2538 4581 
L 3097 4581 
L 3097 0 
L 2575 0 
z
M 797 1656 
Q 797 1019 1065 703 
Q 1334 388 1700 388 
Q 2069 388 2326 689 
Q 2584 991 2584 1609 
Q 2584 2291 2321 2609 
Q 2059 2928 1675 2928 
Q 1300 2928 1048 2622 
Q 797 2316 797 1656 
z
" transform="scale(0.015625)"/>
       <path id="ArialMT-20" transform="scale(0.015625)"/>
       <path id="ArialMT-54" d="M 1659 0 
L 1659 4041 
L 150 4041 
L 150 4581 
L 3781 4581 
L 3781 4041 
L 2266 4041 
L 2266 0 
L 1659 0 
z
" transform="scale(0.015625)"/>
       <path id="ArialMT-69" d="M 425 3934 
L 425 4581 
L 988 4581 
L 988 3934 
L 425 3934 
z
M 425 0 
L 425 3319 
L 988 3319 
L 988 0 
L 425 0 
z
" transform="scale(0.015625)"/>
       <path id="ArialMT-6d" d="M 422 0 
L 422 3319 
L 925 3319 
L 925 2853 
Q 1081 3097 1340 3245 
Q 1600 3394 1931 3394 
Q 2300 3394 2536 3241 
Q 2772 3088 2869 2813 
Q 3263 3394 3894 3394 
Q 4388 3394 4653 3120 
Q 4919 2847 4919 2278 
L 4919 0 
L 4359 0 
L 4359 2091 
Q 4359 2428 4304 2576 
Q 4250 2725 4106 2815 
Q 3963 2906 3769 2906 
Q 3419 2906 3187 2673 
Q 2956 2441 2956 1928 
L 2956 0 
L 2394 0 
L 2394 2156 
Q 2394 2531 2256 2718 
Q 2119 2906 1806 2906 
Q 1569 2906 1367 2781 
Q 1166 2656 1075 2415 
Q 984 2175 984 1722 
L 984 0 
L 422 0 
z
" transform="scale(0.015625)"/>
       <path id="ArialMT-28" d="M 1497 -1347 
Q 1031 -759 709 28 
Q 388 816 388 1659 
Q 388 2403 628 3084 
Q 909 3875 1497 4659 
L 1900 4659 
Q 1522 4009 1400 3731 
Q 1209 3300 1100 2831 
Q 966 2247 966 1656 
Q 966 153 1900 -1347 
L 1497 -1347 
z
" transform="scale(0.015625)"/>
       <path id="ArialMT-63" d="M 2588 1216 
L 3141 1144 
Q 3050 572 2676 248 
Q 2303 -75 1759 -75 
Q 1078 -75 664 370 
Q 250 816 250 1647 
Q 250 2184 428 2587 
Q 606 2991 970 3192 
Q 1334 3394 1763 3394 
Q 2303 3394 2647 3120 
Q 2991 2847 3088 2344 
L 2541 2259 
Q 2463 2594 2264 2762 
Q 2066 2931 1784 2931 
Q 1359 2931 1093 2626 
Q 828 2322 828 1663 
Q 828 994 1084 691 
Q 1341 388 1753 388 
Q 2084 388 2306 591 
Q 2528 794 2588 1216 
z
" transform="scale(0.015625)"/>
       <path id="ArialMT-29" d="M 791 -1347 
L 388 -1347 
Q 1322 153 1322 1656 
Q 1322 2244 1188 2822 
Q 1081 3291 891 3722 
Q 769 4003 388 4659 
L 791 4659 
Q 1378 3875 1659 3084 
Q 1900 2403 1900 1659 
Q 1900 816 1576 28 
Q 1253 -759 791 -1347 
z
" transform="scale(0.015625)"/>
      </defs>
      <use xlink:href="#ArialMT-45"/>
      <use xlink:href="#ArialMT-6c" transform="translate(66.699219 0)"/>
      <use xlink:href="#ArialMT-61" transform="translate(88.916016 0)"/>
      <use xlink:href="#ArialMT-70" transform="translate(144.53125 0)"/>
      <use xlink:href="#ArialMT-73" transform="translate(200.146484 0)"/>
      <use xlink:href="#ArialMT-65" transform="translate(250.146484 0)"/>
      <use xlink:href="#ArialMT-64" transform="translate(305.761719 0)"/>
      <use xlink:href="#ArialMT-20" transform="translate(361.376953 0)"/>
      <use xlink:href="#ArialMT-54" transform="translate(387.410156 0)"/>
      <use xlink:href="#ArialMT-69" transform="translate(444.744141 0)"/>
      <use xlink:href="#ArialMT-6d" transform="translate(466.960938 0)"/>
      <use xlink:href="#ArialMT-65" transform="translate(550.261719 0)"/>
      <use xlink:href="#ArialMT-20" transform="translate(605.876953 0)"/>
      <use xlink:href="#ArialMT-28" transform="translate(633.660156 0)"/>
      <use xlink:href="#ArialMT-73" transform="translate(666.960938 0)"/>
      <use xlink:href="#ArialMT-65" transform="translate(716.960938 0)"/>
      <use xlink:href="#ArialMT-63" transform="translate(772.576172 0)"/>
      <use xlink:href="#ArialMT-29" transform="translate(822.576172 0)"/>
     </g>
    </g>
   </g>
   <g id="matplotlib.axis_2">
    <g id="ytick_1">
     <g id="line2d_7">
      <path d="M 44.267188 271.876012 
L 434.117188 271.876012 
" clip-path="url(#p507660998c)" style="fill: none; stroke: #cccccc; stroke-opacity: 0.2; stroke-width: 0.8; stroke-linecap: round"/>
     </g>
     <g id="text_8">
      <!-- 0 -->
      <g style="fill: #262626" transform="translate(31.70625 275.454918) scale(0.1 -0.1)">
       <use xlink:href="#ArialMT-30"/>
      </g>
     </g>
    </g>
    <g id="ytick_2">
     <g id="line2d_8">
      <path d="M 44.267188 222.354151 
L 434.117188 222.354151 
" clip-path="url(#p507660998c)" style="fill: none; stroke: #cccccc; stroke-opacity: 0.2; stroke-width: 0.8; stroke-linecap: round"/>
     </g>
     <g id="text_9">
      <!-- 20 -->
      <g style="fill: #262626" transform="translate(26.145313 225.933057) scale(0.1 -0.1)">
       <use xlink:href="#ArialMT-32"/>
       <use xlink:href="#ArialMT-30" transform="translate(55.615234 0)"/>
      </g>
     </g>
    </g>
    <g id="ytick_3">
     <g id="line2d_9">
      <path d="M 44.267188 172.83229 
L 434.117188 172.83229 
" clip-path="url(#p507660998c)" style="fill: none; stroke: #cccccc; stroke-opacity: 0.2; stroke-width: 0.8; stroke-linecap: round"/>
     </g>
     <g id="text_10">
      <!-- 40 -->
      <g style="fill: #262626" transform="translate(26.145313 176.411196) scale(0.1 -0.1)">
       <use xlink:href="#ArialMT-34"/>
       <use xlink:href="#ArialMT-30" transform="translate(55.615234 0)"/>
      </g>
     </g>
    </g>
    <g id="ytick_4">
     <g id="line2d_10">
      <path d="M 44.267188 123.310429 
L 434.117188 123.310429 
" clip-path="url(#p507660998c)" style="fill: none; stroke: #cccccc; stroke-opacity: 0.2; stroke-width: 0.8; stroke-linecap: round"/>
     </g>
     <g id="text_11">
      <!-- 60 -->
      <g style="fill: #262626" transform="translate(26.145313 126.889335) scale(0.1 -0.1)">
       <defs>
        <path id="ArialMT-36" d="M 3184 3459 
L 2625 3416 
Q 2550 3747 2413 3897 
Q 2184 4138 1850 4138 
Q 1581 4138 1378 3988 
Q 1113 3794 959 3422 
Q 806 3050 800 2363 
Q 1003 2672 1297 2822 
Q 1591 2972 1913 2972 
Q 2475 2972 2870 2558 
Q 3266 2144 3266 1488 
Q 3266 1056 3080 686 
Q 2894 316 2569 119 
Q 2244 -78 1831 -78 
Q 1128 -78 684 439 
Q 241 956 241 2144 
Q 241 3472 731 4075 
Q 1159 4600 1884 4600 
Q 2425 4600 2770 4297 
Q 3116 3994 3184 3459 
z
M 888 1484 
Q 888 1194 1011 928 
Q 1134 663 1356 523 
Q 1578 384 1822 384 
Q 2178 384 2434 671 
Q 2691 959 2691 1453 
Q 2691 1928 2437 2201 
Q 2184 2475 1800 2475 
Q 1419 2475 1153 2201 
Q 888 1928 888 1484 
z
" transform="scale(0.015625)"/>
       </defs>
       <use xlink:href="#ArialMT-36"/>
       <use xlink:href="#ArialMT-30" transform="translate(55.615234 0)"/>
      </g>
     </g>
    </g>
    <g id="ytick_5">
     <g id="line2d_11">
      <path d="M 44.267188 73.788567 
L 434.117188 73.788567 
" clip-path="url(#p507660998c)" style="fill: none; stroke: #cccccc; stroke-opacity: 0.2; stroke-width: 0.8; stroke-linecap: round"/>
     </g>
     <g id="text_12">
      <!-- 80 -->
      <g style="fill: #262626" transform="translate(26.145313 77.367474) scale(0.1 -0.1)">
       <defs>
        <path id="ArialMT-38" d="M 1131 2484 
Q 781 2613 612 2850 
Q 444 3088 444 3419 
Q 444 3919 803 4259 
Q 1163 4600 1759 4600 
Q 2359 4600 2725 4251 
Q 3091 3903 3091 3403 
Q 3091 3084 2923 2848 
Q 2756 2613 2416 2484 
Q 2838 2347 3058 2040 
Q 3278 1734 3278 1309 
Q 3278 722 2862 322 
Q 2447 -78 1769 -78 
Q 1091 -78 675 323 
Q 259 725 259 1325 
Q 259 1772 486 2073 
Q 713 2375 1131 2484 
z
M 1019 3438 
Q 1019 3113 1228 2906 
Q 1438 2700 1772 2700 
Q 2097 2700 2305 2904 
Q 2513 3109 2513 3406 
Q 2513 3716 2298 3927 
Q 2084 4138 1766 4138 
Q 1444 4138 1231 3931 
Q 1019 3725 1019 3438 
z
M 838 1322 
Q 838 1081 952 856 
Q 1066 631 1291 507 
Q 1516 384 1775 384 
Q 2178 384 2440 643 
Q 2703 903 2703 1303 
Q 2703 1709 2433 1975 
Q 2163 2241 1756 2241 
Q 1359 2241 1098 1978 
Q 838 1716 838 1322 
z
" transform="scale(0.015625)"/>
       </defs>
       <use xlink:href="#ArialMT-38"/>
       <use xlink:href="#ArialMT-30" transform="translate(55.615234 0)"/>
      </g>
     </g>
    </g>
    <g id="ytick_6">
     <g id="line2d_12">
      <path d="M 44.267188 24.266706 
L 434.117188 24.266706 
" clip-path="url(#p507660998c)" style="fill: none; stroke: #cccccc; stroke-opacity: 0.2; stroke-width: 0.8; stroke-linecap: round"/>
     </g>
     <g id="text_13">
      <!-- 100 -->
      <g style="fill: #262626" transform="translate(20.584375 27.845612) scale(0.1 -0.1)">
       <use xlink:href="#ArialMT-31"/>
       <use xlink:href="#ArialMT-30" transform="translate(55.615234 0)"/>
       <use xlink:href="#ArialMT-30" transform="translate(111.230469 0)"/>
      </g>
     </g>
    </g>
    <g id="text_14">
     <!-- Busy% -->
     <g style="fill: #262626" transform="translate(14.479688 165.651094) rotate(-90) scale(0.1 -0.1)">
      <defs>
       <path id="ArialMT-42" d="M 469 0 
L 469 4581 
L 2188 4581 
Q 2713 4581 3030 4442 
Q 3347 4303 3526 4014 
Q 3706 3725 3706 3409 
Q 3706 3116 3547 2856 
Q 3388 2597 3066 2438 
Q 3481 2316 3704 2022 
Q 3928 1728 3928 1328 
Q 3928 1006 3792 729 
Q 3656 453 3456 303 
Q 3256 153 2954 76 
Q 2653 0 2216 0 
L 469 0 
z
M 1075 2656 
L 2066 2656 
Q 2469 2656 2644 2709 
Q 2875 2778 2992 2937 
Q 3109 3097 3109 3338 
Q 3109 3566 3000 3739 
Q 2891 3913 2687 3977 
Q 2484 4041 1991 4041 
L 1075 4041 
L 1075 2656 
z
M 1075 541 
L 2216 541 
Q 2509 541 2628 563 
Q 2838 600 2978 687 
Q 3119 775 3209 942 
Q 3300 1109 3300 1328 
Q 3300 1584 3169 1773 
Q 3038 1963 2805 2039 
Q 2572 2116 2134 2116 
L 1075 2116 
L 1075 541 
z
" transform="scale(0.015625)"/>
       <path id="ArialMT-75" d="M 2597 0 
L 2597 488 
Q 2209 -75 1544 -75 
Q 1250 -75 995 37 
Q 741 150 617 320 
Q 494 491 444 738 
Q 409 903 409 1263 
L 409 3319 
L 972 3319 
L 972 1478 
Q 972 1038 1006 884 
Q 1059 663 1231 536 
Q 1403 409 1656 409 
Q 1909 409 2131 539 
Q 2353 669 2445 892 
Q 2538 1116 2538 1541 
L 2538 3319 
L 3100 3319 
L 3100 0 
L 2597 0 
z
" transform="scale(0.015625)"/>
       <path id="ArialMT-79" d="M 397 -1278 
L 334 -750 
Q 519 -800 656 -800 
Q 844 -800 956 -737 
Q 1069 -675 1141 -563 
Q 1194 -478 1313 -144 
Q 1328 -97 1363 -6 
L 103 3319 
L 709 3319 
L 1400 1397 
Q 1534 1031 1641 628 
Q 1738 1016 1872 1384 
L 2581 3319 
L 3144 3319 
L 1881 -56 
Q 1678 -603 1566 -809 
Q 1416 -1088 1222 -1217 
Q 1028 -1347 759 -1347 
Q 597 -1347 397 -1278 
z
" transform="scale(0.015625)"/>
       <path id="ArialMT-25" d="M 372 3481 
Q 372 3972 619 4315 
Q 866 4659 1334 4659 
Q 1766 4659 2048 4351 
Q 2331 4044 2331 3447 
Q 2331 2866 2045 2552 
Q 1759 2238 1341 2238 
Q 925 2238 648 2547 
Q 372 2856 372 3481 
z
M 1350 4272 
Q 1141 4272 1002 4090 
Q 863 3909 863 3425 
Q 863 2984 1003 2804 
Q 1144 2625 1350 2625 
Q 1563 2625 1702 2806 
Q 1841 2988 1841 3469 
Q 1841 3913 1700 4092 
Q 1559 4272 1350 4272 
z
M 1353 -169 
L 3859 4659 
L 4316 4659 
L 1819 -169 
L 1353 -169 
z
M 3334 1075 
Q 3334 1569 3581 1911 
Q 3828 2253 4300 2253 
Q 4731 2253 5014 1945 
Q 5297 1638 5297 1041 
Q 5297 459 5011 145 
Q 4725 -169 4303 -169 
Q 3888 -169 3611 142 
Q 3334 453 3334 1075 
z
M 4316 1866 
Q 4103 1866 3964 1684 
Q 3825 1503 3825 1019 
Q 3825 581 3965 400 
Q 4106 219 4313 219 
Q 4528 219 4667 400 
Q 4806 581 4806 1063 
Q 4806 1506 4665 1686 
Q 4525 1866 4316 1866 
z
" transform="scale(0.015625)"/>
      </defs>
      <use xlink:href="#ArialMT-42"/>
      <use xlink:href="#ArialMT-75" transform="translate(66.699219 0)"/>
      <use xlink:href="#ArialMT-73" transform="translate(122.314453 0)"/>
      <use xlink:href="#ArialMT-79" transform="translate(172.314453 0)"/>
      <use xlink:href="#ArialMT-25" transform="translate(222.314453 0)"/>
     </g>
    </g>
   </g>
   <g id="line2d_13">
    <path d="M 44.267188 243.029528 
L 51.486632 252.017746 
L 58.706076 255.31095 
L 65.925521 252.413921 
L 73.144965 253.775772 
L 80.36441 142.747759 
L 87.583854 254.419556 
L 94.803299 203.16443 
L 102.022743 171.569482 
L 109.242188 178.42826 
L 116.461632 124.276105 
L 123.681076 46.105847 
L 130.900521 109.097654 
L 138.119965 100.678938 
L 145.33941 167.285841 
L 152.558854 190.065897 
L 159.778299 170.876176 
L 166.997743 169.093389 
L 174.217187 265.809584 
L 181.436632 156.217705 
L 188.656076 248.476933 
L 195.875521 228.296774 
L 203.094965 264.843908 
L 210.31441 152.008347 
L 217.533854 265.537214 
L 224.753299 139.776447 
L 231.972743 170.281914 
L 239.192187 105.804451 
L 246.411632 130.986317 
L 253.631076 236.69073 
L 260.850521 73.86285 
L 268.069965 143.56487 
L 275.28941 256.969932 
L 282.508854 71.758171 
L 289.728299 233.2242 
L 296.947743 128.534985 
L 304.167187 233.100395 
L 311.386632 142.079214 
L 318.606076 185.410843 
L 325.825521 265.636258 
L 333.044965 182.612857 
L 340.26441 264.695342 
L 347.483854 247.659822 
L 354.703299 227.182532 
L 361.922743 185.113711 
L 369.142187 129.451139 
L 376.361632 266.106715 
L 383.581076 264.868669 
L 390.800521 153.320676 
L 398.019965 190.684921 
L 405.23941 178.032085 
L 412.458854 71.287713 
L 419.678299 178.576826 
L 426.897743 159.53567 
" clip-path="url(#p507660998c)" style="fill: none; stroke: #1f77b4; stroke-opacity: 0.9; stroke-width: 1.2; stroke-linecap: round"/>
   </g>
   <g id="line2d_14">
    <path d="M 44.267188 217.129595 
L 51.486632 224.557874 
L 58.706076 208.413747 
L 65.925521 185.287038 
L 73.144965 263.630622 
L 80.36441 263.110643 
L 87.583854 253.255792 
L 94.803299 240.850566 
L 102.022743 263.30873 
L 109.242188 260.411701 
L 116.461632 251.968224 
L 123.681076 264.769625 
L 130.900521 252.067268 
L 138.119965 241.023893 
L 145.33941 252.265355 
L 152.558854 251.794897 
L 159.778299 252.339638 
L 166.997743 254.444317 
L 174.217187 262.565902 
L 181.436632 253.156749 
L 188.656076 252.141551 
L 195.875521 252.215833 
L 203.094965 263.55634 
L 210.31441 252.314877 
L 217.533854 252.66153 
L 224.753299 264.422972 
L 231.972743 252.215833 
L 239.192187 252.364399 
L 246.411632 251.770137 
L 253.631076 249.98735 
L 260.850521 240.801044 
L 268.069965 260.164092 
L 275.28941 245.505621 
L 282.508854 252.042507 
L 289.728299 252.339638 
L 296.947743 251.918702 
L 304.167187 252.166311 
L 311.386632 243.029528 
L 318.606076 262.937316 
L 325.825521 248.92263 
L 333.044965 252.166311 
L 340.26441 261.402139 
L 347.483854 251.151113 
L 354.703299 263.110643 
L 361.922743 252.240594 
L 369.142187 252.413921 
L 376.361632 264.37345 
L 383.581076 260.040287 
L 390.800521 240.999132 
L 398.019965 251.943463 
L 405.23941 260.164092 
L 412.458854 258.678436 
L 419.678299 252.810096 
L 426.897743 263.457296 
" clip-path="url(#p507660998c)" style="fill: none; stroke: #ff7f0e; stroke-opacity: 0.9; stroke-width: 1.2; stroke-linecap: round"/>
   </g>
   <g id="line2d_15">
    <path d="M 44.267188 161.244174 
L 51.486632 199.078876 
L 58.706076 213.093563 
L 65.925521 238.993496 
L 73.144965 63.908956 
L 80.36441 265.066756 
L 87.583854 69.257317 
L 94.803299 119.942942 
L 102.022743 152.181674 
L 109.242188 134.948066 
L 116.461632 199.549334 
L 123.681076 265.933389 
L 130.900521 214.405892 
L 138.119965 222.626521 
L 145.33941 155.994857 
L 152.558854 133.437649 
L 159.778299 152.156913 
L 166.997743 152.255956 
L 174.217187 48.30957 
L 181.436632 166.889666 
L 188.656076 75.918007 
L 195.875521 94.810597 
L 203.094965 57.693962 
L 210.31441 170.97522 
L 217.533854 52.271319 
L 224.753299 177.908281 
L 231.972743 153.073067 
L 239.192187 217.401965 
L 246.411632 191.625836 
L 253.631076 87.060426 
L 260.850521 250.01211 
L 268.069965 161.962241 
L 275.28941 63.190889 
L 282.508854 252.191072 
L 289.728299 89.264149 
L 296.947743 196.008521 
L 304.167187 89.957455 
L 311.386632 180.186286 
L 318.606076 129.624466 
L 325.825521 52.370362 
L 333.044965 140.940211 
L 340.26441 57.718723 
L 347.483854 65.07272 
L 354.703299 95.900078 
L 361.922743 137.399398 
L 369.142187 192.616273 
L 376.361632 46.328695 
L 383.581076 58.362508 
L 390.800521 169.514325 
L 398.019965 132.546256 
L 405.23941 146.065724 
L 412.458854 233.669896 
L 419.678299 132.620538 
L 426.897743 153.048306 
" clip-path="url(#p507660998c)" style="fill: none; stroke: #2ca02c; stroke-opacity: 0.9; stroke-width: 1.2; stroke-linecap: round"/>
   </g>
   <g id="line2d_16">
    <path d="M 44.267188 195.216171 
L 51.486632 151.835021 
L 58.706076 151.215997 
L 65.925521 151.215997 
L 73.144965 246.27321 
L 80.36441 157.802405 
L 87.583854 250.631134 
L 94.803299 263.061121 
L 102.022743 240.652479 
L 109.242188 253.478641 
L 116.461632 252.265355 
L 123.681076 253.280553 
L 130.900521 251.992985 
L 138.119965 263.110643 
L 145.33941 251.646332 
L 152.558854 252.265355 
L 159.778299 251.86918 
L 166.997743 251.844419 
L 174.217187 253.18151 
L 181.436632 250.779699 
L 188.656076 251.522527 
L 195.875521 251.745376 
L 203.094965 239.637281 
L 210.31441 252.017746 
L 217.533854 256.202343 
L 224.753299 248.823586 
L 231.972743 251.745376 
L 239.192187 251.819658 
L 246.411632 252.438682 
L 253.631076 252.9339 
L 260.850521 263.135404 
L 268.069965 261.649748 
L 275.28941 264.175363 
L 282.508854 251.918702 
L 289.728299 252.191072 
L 296.947743 251.522527 
L 304.167187 251.86918 
L 311.386632 261.798313 
L 318.606076 247.85791 
L 325.825521 264.200124 
L 333.044965 252.092029 
L 340.26441 242.831441 
L 347.483854 263.135404 
L 354.703299 240.67724 
L 361.922743 251.844419 
L 369.142187 253.627206 
L 376.361632 252.983422 
L 383.581076 244.14377 
L 390.800521 262.813512 
L 398.019965 251.893941 
L 405.23941 243.178094 
L 412.458854 263.135404 
L 419.678299 261.674509 
L 426.897743 251.844419 
" clip-path="url(#p507660998c)" style="fill: none; stroke: #d62728; stroke-opacity: 0.9; stroke-width: 1.2; stroke-linecap: round"/>
   </g>
   <g id="line2d_17">
    <path d="M 44.267188 258.381305 
L 51.486632 252.017746 
L 58.706076 252.067268 
L 65.925521 262.367815 
L 73.144965 240.924849 
L 80.36441 251.968224 
L 87.583854 260.510745 
L 94.803299 243.376181 
L 102.022743 251.968224 
L 109.242188 251.968224 
L 116.461632 251.572049 
L 123.681076 241.989569 
L 130.900521 233.471809 
L 138.119965 167.236319 
L 145.33941 170.554284 
L 152.558854 265.561975 
L 159.778299 244.861837 
L 166.997743 239.290628 
L 174.217187 235.130791 
L 181.436632 204.303433 
L 188.656076 108.924328 
L 195.875521 159.213778 
L 203.094965 56.406394 
L 210.31441 148.962753 
L 217.533854 188.827851 
L 224.753299 166.493492 
L 231.972743 223.344588 
L 239.192187 154.558723 
L 246.411632 205.888132 
L 253.631076 183.727099 
L 260.850521 252.488204 
L 268.069965 224.161699 
L 275.28941 263.680144 
L 282.508854 257.98513 
L 289.728299 194.052407 
L 296.947743 148.36849 
L 304.167187 243.797117 
L 311.386632 264.422972 
L 318.606076 262.615424 
L 325.825521 229.089124 
L 333.044965 261.426899 
L 340.26441 250.160676 
L 347.483854 263.110643 
L 354.703299 254.295751 
L 361.922743 264.175363 
L 369.142187 242.039091 
L 376.361632 253.775772 
L 383.581076 251.745376 
L 390.800521 255.385232 
L 398.019965 263.605861 
L 405.23941 251.819658 
L 412.458854 240.825805 
L 419.678299 262.689707 
" clip-path="url(#p507660998c)" style="fill: none; stroke-dasharray: 4.44,1.92; stroke-dashoffset: 0; stroke: #1f77b4; stroke-opacity: 0.9; stroke-width: 1.2"/>
   </g>
   <g id="line2d_18">
    <path d="M 44.267188 177.016887 
L 51.486632 228.593905 
L 58.706076 108.924328 
L 65.925521 168.3258 
L 73.144965 105.433037 
L 80.36441 62.051886 
L 87.583854 83.494852 
L 94.803299 56.208307 
L 102.022743 100.480851 
L 109.242188 168.647692 
L 116.461632 153.41972 
L 123.681076 180.433895 
L 130.900521 263.482057 
L 138.119965 251.621571 
L 145.33941 252.488204 
L 152.558854 263.680144 
L 159.778299 262.664946 
L 166.997743 252.834857 
L 174.217187 263.482057 
L 181.436632 254.122425 
L 188.656076 251.473005 
L 195.875521 250.433046 
L 203.094965 253.99862 
L 210.31441 252.092029 
L 217.533854 263.5811 
L 224.753299 253.231031 
L 231.972743 252.042507 
L 239.192187 252.215833 
L 246.411632 253.973859 
L 253.631076 251.992985 
L 260.850521 252.38916 
L 268.069965 77.997926 
L 275.28941 257.811804 
L 282.508854 132.323407 
L 289.728299 253.255792 
L 296.947743 251.225396 
L 304.167187 154.930137 
L 311.386632 252.612008 
L 318.606076 101.397005 
L 325.825521 206.135741 
L 333.044965 91.765003 
L 340.26441 93.423985 
L 347.483854 103.996903 
L 354.703299 147.30377 
L 361.922743 153.840656 
L 369.142187 57.248266 
L 376.361632 166.44397 
L 383.581076 167.409646 
L 390.800521 168.177235 
L 398.019965 176.02645 
L 405.23941 158.025253 
L 412.458854 72.649565 
L 419.678299 164.983075 
" clip-path="url(#p507660998c)" style="fill: none; stroke-dasharray: 4.44,1.92; stroke-dashoffset: 0; stroke: #ff7f0e; stroke-opacity: 0.9; stroke-width: 1.2"/>
   </g>
   <g id="line2d_19">
    <path d="M 44.267188 246.223688 
L 51.486632 252.166311 
L 58.706076 252.042507 
L 65.925521 241.940047 
L 73.144965 263.5811 
L 80.36441 252.413921 
L 87.583854 254.097664 
L 94.803299 264.150602 
L 102.022743 251.992985 
L 109.242188 252.11679 
L 116.461632 251.844419 
L 123.681076 219.605688 
L 130.900521 77.230337 
L 138.119965 144.976243 
L 145.33941 139.776447 
L 152.558854 46.279173 
L 159.778299 68.316402 
L 166.997743 82.133001 
L 174.217187 86.63949 
L 181.436632 117.76398 
L 188.656076 212.028843 
L 195.875521 153.741612 
L 203.094965 265.289605 
L 210.31441 173.575118 
L 217.533854 123.954213 
L 224.753299 155.00442 
L 231.972743 99.762784 
L 239.192187 167.855343 
L 246.411632 116.451651 
L 253.631076 138.934576 
L 260.850521 101.768419 
L 268.069965 260.585028 
L 275.28941 162.432699 
L 282.508854 251.968224 
L 289.728299 117.714458 
L 296.947743 264.596299 
L 304.167187 182.241443 
L 311.386632 123.434233 
L 318.606076 240.974371 
L 325.825521 178.279694 
L 333.044965 252.488204 
L 340.26441 262.689707 
L 347.483854 240.67724 
L 354.703299 259.817439 
L 361.922743 264.819147 
L 369.142187 261.798313 
L 376.361632 260.015526 
L 383.581076 252.092029 
L 390.800521 248.650259 
L 398.019965 240.702001 
L 405.23941 260.956442 
L 412.458854 263.160165 
L 419.678299 250.111154 
" clip-path="url(#p507660998c)" style="fill: none; stroke-dasharray: 4.44,1.92; stroke-dashoffset: 0; stroke: #2ca02c; stroke-opacity: 0.9; stroke-width: 1.2"/>
   </g>
   <g id="line2d_20">
    <path d="M 44.267188 131.432014 
L 51.486632 94.117291 
L 58.706076 214.554458 
L 65.925521 153.865417 
L 73.144965 216.931507 
L 80.36441 260.90692 
L 87.583854 229.188168 
L 94.803299 266.032433 
L 102.022743 222.304629 
L 109.242188 153.964461 
L 116.461632 169.291477 
L 123.681076 184.172796 
L 130.900521 252.067268 
L 138.119965 261.204051 
L 145.33941 263.383013 
L 152.558854 251.918702 
L 159.778299 253.255792 
L 166.997743 252.092029 
L 174.217187 240.924849 
L 181.436632 250.309242 
L 188.656076 252.166311 
L 195.875521 263.135404 
L 203.094965 250.705417 
L 210.31441 251.893941 
L 217.533854 250.507329 
L 224.753299 254.642404 
L 231.972743 251.770137 
L 239.192187 251.621571 
L 246.411632 250.408285 
L 253.631076 251.918702 
L 260.850521 219.4076 
L 268.069965 264.398211 
L 275.28941 142.574433 
L 282.508854 184.618493 
L 289.728299 263.977275 
L 296.947743 162.556504 
L 304.167187 246.00084 
L 311.386632 186.029866 
L 318.606076 221.561801 
L 325.825521 212.895475 
L 333.044965 220.620886 
L 340.26441 220.521842 
L 347.483854 218.219076 
L 354.703299 163.348853 
L 361.922743 145.867636 
L 369.142187 264.942952 
L 376.361632 146.090485 
L 383.581076 155.152985 
L 390.800521 154.311114 
L 398.019965 145.96668 
L 405.23941 153.766373 
L 412.458854 250.061632 
L 419.678299 147.798989 
" clip-path="url(#p507660998c)" style="fill: none; stroke-dasharray: 4.44,1.92; stroke-dashoffset: 0; stroke: #d62728; stroke-opacity: 0.9; stroke-width: 1.2"/>
   </g>
   <g id="patch_3">
    <path d="M 44.267188 278.389375 
L 44.267188 21.789375 
" style="fill: none; stroke: #cccccc; stroke-width: 0.8; stroke-linejoin: miter; stroke-linecap: square"/>
   </g>
   <g id="patch_4">
    <path d="M 434.117188 278.389375 
L 434.117188 21.789375 
" style="fill: none; stroke: #cccccc; stroke-width: 0.8; stroke-linejoin: miter; stroke-linecap: square"/>
   </g>
   <g id="patch_5">
    <path d="M 44.267188 278.389375 
L 434.117188 278.389375 
" style="fill: none; stroke: #cccccc; stroke-width: 0.8; stroke-linejoin: miter; stroke-linecap: square"/>
   </g>
   <g id="patch_6">
    <path d="M 44.267188 21.789375 
L 434.117188 21.789375 
" style="fill: none; stroke: #cccccc; stroke-width: 0.8; stroke-linejoin: miter; stroke-linecap: square"/>
   </g>
   <g id="text_15">
    <!-- PE019 — PC1 all cores -->
    <g style="fill: #262626" transform="translate(176.165 15.789375) scale(0.12 -0.12)">
     <defs>
      <path id="ArialMT-50" d="M 494 0 
L 494 4581 
L 2222 4581 
Q 2678 4581 2919 4538 
Q 3256 4481 3484 4323 
Q 3713 4166 3852 3881 
Q 3991 3597 3991 3256 
Q 3991 2672 3619 2267 
Q 3247 1863 2275 1863 
L 1100 1863 
L 1100 0 
L 494 0 
z
M 1100 2403 
L 2284 2403 
Q 2872 2403 3119 2622 
Q 3366 2841 3366 3238 
Q 3366 3525 3220 3729 
Q 3075 3934 2838 4000 
Q 2684 4041 2272 4041 
L 1100 4041 
L 1100 2403 
z
" transform="scale(0.015625)"/>
      <path id="ArialMT-39" d="M 350 1059 
L 891 1109 
Q 959 728 1153 556 
Q 1347 384 1650 384 
Q 1909 384 2104 503 
Q 2300 622 2425 820 
Q 2550 1019 2634 1356 
Q 2719 1694 2719 2044 
Q 2719 2081 2716 2156 
Q 2547 1888 2255 1720 
Q 1963 1553 1622 1553 
Q 1053 1553 659 1965 
Q 266 2378 266 3053 
Q 266 3750 677 4175 
Q 1088 4600 1706 4600 
Q 2153 4600 2523 4359 
Q 2894 4119 3086 3673 
Q 3278 3228 3278 2384 
Q 3278 1506 3087 986 
Q 2897 466 2520 194 
Q 2144 -78 1638 -78 
Q 1100 -78 759 220 
Q 419 519 350 1059 
z
M 2653 3081 
Q 2653 3566 2395 3850 
Q 2138 4134 1775 4134 
Q 1400 4134 1122 3828 
Q 844 3522 844 3034 
Q 844 2597 1108 2323 
Q 1372 2050 1759 2050 
Q 2150 2050 2401 2323 
Q 2653 2597 2653 3081 
z
" transform="scale(0.015625)"/>
      <path id="ArialMT-2014" d="M 0 1431 
L 0 1884 
L 6400 1884 
L 6400 1431 
L 0 1431 
z
" transform="scale(0.015625)"/>
      <path id="ArialMT-43" d="M 3763 1606 
L 4369 1453 
Q 4178 706 3683 314 
Q 3188 -78 2472 -78 
Q 1731 -78 1267 223 
Q 803 525 561 1097 
Q 319 1669 319 2325 
Q 319 3041 592 3573 
Q 866 4106 1370 4382 
Q 1875 4659 2481 4659 
Q 3169 4659 3637 4309 
Q 4106 3959 4291 3325 
L 3694 3184 
Q 3534 3684 3231 3912 
Q 2928 4141 2469 4141 
Q 1941 4141 1586 3887 
Q 1231 3634 1087 3207 
Q 944 2781 944 2328 
Q 944 1744 1114 1308 
Q 1284 872 1643 656 
Q 2003 441 2422 441 
Q 2931 441 3284 734 
Q 3638 1028 3763 1606 
z
" transform="scale(0.015625)"/>
      <path id="ArialMT-6f" d="M 213 1659 
Q 213 2581 725 3025 
Q 1153 3394 1769 3394 
Q 2453 3394 2887 2945 
Q 3322 2497 3322 1706 
Q 3322 1066 3130 698 
Q 2938 331 2570 128 
Q 2203 -75 1769 -75 
Q 1072 -75 642 372 
Q 213 819 213 1659 
z
M 791 1659 
Q 791 1022 1069 705 
Q 1347 388 1769 388 
Q 2188 388 2466 706 
Q 2744 1025 2744 1678 
Q 2744 2294 2464 2611 
Q 2184 2928 1769 2928 
Q 1347 2928 1069 2612 
Q 791 2297 791 1659 
z
" transform="scale(0.015625)"/>
      <path id="ArialMT-72" d="M 416 0 
L 416 3319 
L 922 3319 
L 922 2816 
Q 1116 3169 1280 3281 
Q 1444 3394 1641 3394 
Q 1925 3394 2219 3213 
L 2025 2691 
Q 1819 2813 1613 2813 
Q 1428 2813 1281 2702 
Q 1134 2591 1072 2394 
Q 978 2094 978 1738 
L 978 0 
L 416 0 
z
" transform="scale(0.015625)"/>
     </defs>
     <use xlink:href="#ArialMT-50"/>
     <use xlink:href="#ArialMT-45" transform="translate(66.699219 0)"/>
     <use xlink:href="#ArialMT-30" transform="translate(133.398438 0)"/>
     <use xlink:href="#ArialMT-31" transform="translate(189.013672 0)"/>
     <use xlink:href="#ArialMT-39" transform="translate(244.628906 0)"/>
     <use xlink:href="#ArialMT-20" transform="translate(300.244141 0)"/>
     <use xlink:href="#ArialMT-2014" transform="translate(328.027344 0)"/>
     <use xlink:href="#ArialMT-20" transform="translate(428.027344 0)"/>
     <use xlink:href="#ArialMT-50" transform="translate(455.810547 0)"/>
     <use xlink:href="#ArialMT-43" transform="translate(522.509766 0)"/>
     <use xlink:href="#ArialMT-31" transform="translate(594.726562 0)"/>
     <use xlink:href="#ArialMT-20" transform="translate(650.341797 0)"/>
     <use xlink:href="#ArialMT-61" transform="translate(678.125 0)"/>
     <use xlink:href="#ArialMT-6c" transform="translate(733.740234 0)"/>
     <use xlink:href="#ArialMT-6c" transform="translate(755.957031 0)"/>
     <use xlink:href="#ArialMT-20" transform="translate(778.173828 0)"/>
     <use xlink:href="#ArialMT-63" transform="translate(805.957031 0)"/>
     <use xlink:href="#ArialMT-6f" transform="translate(855.957031 0)"/>
     <use xlink:href="#ArialMT-72" transform="translate(911.572266 0)"/>
     <use xlink:href="#ArialMT-65" transform="translate(944.873047 0)"/>
     <use xlink:href="#ArialMT-73" transform="translate(1000.488281 0)"/>
    </g>
   </g>
   <g id="legend_1">
    <g id="patch_7">
     <path d="M 317.392188 63.052656 
L 428.517188 63.052656 
Q 430.117188 63.052656 430.117188 61.452656 
L 430.117188 27.389375 
Q 430.117188 25.789375 428.517188 25.789375 
L 317.392188 25.789375 
Q 315.792188 25.789375 315.792188 27.389375 
L 315.792188 61.452656 
Q 315.792188 63.052656 317.392188 63.052656 
z
" style="fill: #ffffff; opacity: 0.8; stroke: #cccccc; stroke-linejoin: miter"/>
    </g>
    <g id="text_16">
     <!-- CPU -->
     <g style="fill: #262626" transform="translate(363.453359 35.431406) scale(0.09 -0.09)">
      <defs>
       <path id="ArialMT-55" d="M 3500 4581 
L 4106 4581 
L 4106 1934 
Q 4106 1244 3950 837 
Q 3794 431 3386 176 
Q 2978 -78 2316 -78 
Q 1672 -78 1262 144 
Q 853 366 678 786 
Q 503 1206 503 1934 
L 503 4581 
L 1109 4581 
L 1109 1938 
Q 1109 1341 1220 1058 
Q 1331 775 1601 622 
Q 1872 469 2263 469 
Q 2931 469 3215 772 
Q 3500 1075 3500 1938 
L 3500 4581 
z
" transform="scale(0.015625)"/>
      </defs>
      <use xlink:href="#ArialMT-43"/>
      <use xlink:href="#ArialMT-50" transform="translate(72.216797 0)"/>
      <use xlink:href="#ArialMT-55" transform="translate(138.916016 0)"/>
     </g>
    </g>
    <g id="line2d_21">
     <path d="M 318.992188 44.146406 
L 326.992188 44.146406 
L 334.992188 44.146406 
" style="fill: none; stroke: #1f77b4; stroke-width: 2; stroke-linecap: round"/>
    </g>
    <g id="text_17">
     <!-- CPU 0 -->
     <g style="fill: #262626" transform="translate(341.392188 46.946406) scale(0.08 -0.08)">
      <use xlink:href="#ArialMT-43"/>
      <use xlink:href="#ArialMT-50" transform="translate(72.216797 0)"/>
      <use xlink:href="#ArialMT-55" transform="translate(138.916016 0)"/>
      <use xlink:href="#ArialMT-20" transform="translate(211.132812 0)"/>
      <use xlink:href="#ArialMT-30" transform="translate(238.916016 0)"/>
     </g>
    </g>
    <g id="line2d_22">
     <path d="M 318.992188 55.462656 
L 326.992188 55.462656 
L 334.992188 55.462656 
" style="fill: none; stroke: #ff7f0e; stroke-width: 2; stroke-linecap: round"/>
    </g>
    <g id="text_18">
     <!-- CPU 1 -->
     <g style="fill: #262626" transform="translate(341.392188 58.262656) scale(0.08 -0.08)">
      <use xlink:href="#ArialMT-43"/>
      <use xlink:href="#ArialMT-50" transform="translate(72.216797 0)"/>
      <use xlink:href="#ArialMT-55" transform="translate(138.916016 0)"/>
      <use xlink:href="#ArialMT-20" transform="translate(211.132812 0)"/>
      <use xlink:href="#ArialMT-31" transform="translate(238.916016 0)"/>
     </g>
    </g>
    <g id="line2d_23">
     <path d="M 380.954688 44.146406 
L 388.954688 44.146406 
L 396.954688 44.146406 
" style="fill: none; stroke: #2ca02c; stroke-width: 2; stroke-linecap: round"/>
    </g>
    <g id="text_19">
     <!-- CPU 2 -->
     <g style="fill: #262626" transform="translate(403.354688 46.946406) scale(0.08 -0.08)">
      <use xlink:href="#ArialMT-43"/>
      <use xlink:href="#ArialMT-50" transform="translate(72.216797 0)"/>
      <use xlink:href="#ArialMT-55" transform="translate(138.916016 0)"/>
      <use xlink:href="#ArialMT-20" transform="translate(211.132812 0)"/>
      <use xlink:href="#ArialMT-32" transform="translate(238.916016 0)"/>
     </g>
    </g>
    <g id="line2d_24">
     <path d="M 380.954688 55.462656 
L 388.954688 55.462656 
L 396.954688 55.462656 
" style="fill: none; stroke: #d62728; stroke-width: 2; stroke-linecap: round"/>
    </g>
    <g id="text_20">
     <!-- CPU 3 -->
     <g style="fill: #262626" transform="translate(403.354688 58.262656) scale(0.08 -0.08)">
      <use xlink:href="#ArialMT-43"/>
      <use xlink:href="#ArialMT-50" transform="translate(72.216797 0)"/>
      <use xlink:href="#ArialMT-55" transform="translate(138.916016 0)"/>
      <use xlink:href="#ArialMT-20" transform="translate(211.132812 0)"/>
      <use xlink:href="#ArialMT-33" transform="translate(238.916016 0)"/>
     </g>
    </g>
   </g>
   <g id="legend_2">
    <g id="patch_8">
     <path d="M 49.867188 63.240156 
L 100.813438 63.240156 
Q 102.413438 63.240156 102.413438 61.640156 
L 102.413438 27.389375 
Q 102.413438 25.789375 100.813438 25.789375 
L 49.867188 25.789375 
Q 48.267188 25.789375 48.267188 27.389375 
L 48.267188 61.640156 
Q 48.267188 63.240156 49.867188 63.240156 
z
" style="fill: #ffffff; opacity: 0.8; stroke: #cccccc; stroke-linejoin: miter"/>
    </g>
    <g id="text_21">
     <!-- Variant -->
     <g style="fill: #262626" transform="translate(61.414922 35.431406) scale(0.09 -0.09)">
      <defs>
       <path id="ArialMT-56" d="M 1803 0 
L 28 4581 
L 684 4581 
L 1875 1253 
Q 2019 853 2116 503 
Q 2222 878 2363 1253 
L 3600 4581 
L 4219 4581 
L 2425 0 
L 1803 0 
z
" transform="scale(0.015625)"/>
       <path id="ArialMT-6e" d="M 422 0 
L 422 3319 
L 928 3319 
L 928 2847 
Q 1294 3394 1984 3394 
Q 2284 3394 2536 3286 
Q 2788 3178 2913 3003 
Q 3038 2828 3088 2588 
Q 3119 2431 3119 2041 
L 3119 0 
L 2556 0 
L 2556 2019 
Q 2556 2363 2490 2533 
Q 2425 2703 2258 2804 
Q 2091 2906 1866 2906 
Q 1506 2906 1245 2678 
Q 984 2450 984 1813 
L 984 0 
L 422 0 
z
" transform="scale(0.015625)"/>
       <path id="ArialMT-74" d="M 1650 503 
L 1731 6 
Q 1494 -44 1306 -44 
Q 1000 -44 831 53 
Q 663 150 594 308 
Q 525 466 525 972 
L 525 2881 
L 113 2881 
L 113 3319 
L 525 3319 
L 525 4141 
L 1084 4478 
L 1084 3319 
L 1650 3319 
L 1650 2881 
L 1084 2881 
L 1084 941 
Q 1084 700 1114 631 
Q 1144 563 1211 522 
Q 1278 481 1403 481 
Q 1497 481 1650 503 
z
" transform="scale(0.015625)"/>
      </defs>
      <use xlink:href="#ArialMT-56"/>
      <use xlink:href="#ArialMT-61" transform="translate(59.324219 0)"/>
      <use xlink:href="#ArialMT-72" transform="translate(114.939453 0)"/>
      <use xlink:href="#ArialMT-69" transform="translate(148.240234 0)"/>
      <use xlink:href="#ArialMT-61" transform="translate(170.457031 0)"/>
      <use xlink:href="#ArialMT-6e" transform="translate(226.072266 0)"/>
      <use xlink:href="#ArialMT-74" transform="translate(281.6875 0)"/>
     </g>
    </g>
    <g id="line2d_25">
     <path d="M 51.467188 44.146406 
L 59.467188 44.146406 
L 67.467188 44.146406 
" style="fill: none; stroke: #333333; stroke-width: 2; stroke-linecap: round"/>
    </g>
    <g id="text_22">
     <!-- queryA -->
     <g style="fill: #262626" transform="translate(73.867188 46.946406) scale(0.08 -0.08)">
      <defs>
       <path id="ArialMT-71" d="M 2538 -1272 
L 2538 353 
Q 2406 169 2170 47 
Q 1934 -75 1669 -75 
Q 1078 -75 651 397 
Q 225 869 225 1691 
Q 225 2191 398 2587 
Q 572 2984 901 3189 
Q 1231 3394 1625 3394 
Q 2241 3394 2594 2875 
L 2594 3319 
L 3100 3319 
L 3100 -1272 
L 2538 -1272 
z
M 803 1669 
Q 803 1028 1072 708 
Q 1341 388 1716 388 
Q 2075 388 2334 692 
Q 2594 997 2594 1619 
Q 2594 2281 2320 2615 
Q 2047 2950 1678 2950 
Q 1313 2950 1058 2639 
Q 803 2328 803 1669 
z
" transform="scale(0.015625)"/>
       <path id="ArialMT-41" d="M -9 0 
L 1750 4581 
L 2403 4581 
L 4278 0 
L 3588 0 
L 3053 1388 
L 1138 1388 
L 634 0 
L -9 0 
z
M 1313 1881 
L 2866 1881 
L 2388 3150 
Q 2169 3728 2063 4100 
Q 1975 3659 1816 3225 
L 1313 1881 
z
" transform="scale(0.015625)"/>
      </defs>
      <use xlink:href="#ArialMT-71"/>
      <use xlink:href="#ArialMT-75" transform="translate(55.615234 0)"/>
      <use xlink:href="#ArialMT-65" transform="translate(111.230469 0)"/>
      <use xlink:href="#ArialMT-72" transform="translate(166.845703 0)"/>
      <use xlink:href="#ArialMT-79" transform="translate(200.146484 0)"/>
      <use xlink:href="#ArialMT-41" transform="translate(250.146484 0)"/>
     </g>
    </g>
    <g id="line2d_26">
     <path d="M 51.467188 55.556406 
L 59.467188 55.556406 
L 67.467188 55.556406 
" style="fill: none; stroke-dasharray: 7.4,3.2; stroke-dashoffset: 0; stroke: #333333; stroke-width: 2"/>
    </g>
    <g id="text_23">
     <!-- queryB -->
     <g style="fill: #262626" transform="translate(73.867188 58.356406) scale(0.08 -0.08)">
      <use xlink:href="#ArialMT-71"/>
      <use xlink:href="#ArialMT-75" transform="translate(55.615234 0)"/>
      <use xlink:href="#ArialMT-65" transform="translate(111.230469 0)"/>
      <use xlink:href="#ArialMT-72" transform="translate(166.845703 0)"/>
      <use xlink:href="#ArialMT-79" transform="translate(200.146484 0)"/>
      <use xlink:href="#ArialMT-42" transform="translate(250.146484 0)"/>
     </g>
    </g>
   </g>
  </g>
  <g id="axes_2">
   <g id="patch_9">
    <path d="M 458.997187 278.389375 
L 848.847187 278.389375 
L 848.847187 21.789375 
L 458.997187 21.789375 
z
" style="fill: #ffffff"/>
   </g>
   <g id="matplotlib.axis_3">
    <g id="xtick_7">
     <g id="line2d_27">
      <path d="M 458.997187 278.389375 
L 458.997187 21.789375 
" clip-path="url(#pf254bbbc60)" style="fill: none; stroke: #cccccc; stroke-opacity: 0.2; stroke-width: 0.8; stroke-linecap: round"/>
     </g>
     <g id="text_24">
      <!-- 0 -->
      <g style="fill: #262626" transform="translate(456.216719 292.547188) scale(0.1 -0.1)">
       <use xlink:href="#ArialMT-30"/>
      </g>
     </g>
    </g>
    <g id="xtick_8">
     <g id="line2d_28">
      <path d="M 531.191632 278.389375 
L 531.191632 21.789375 
" clip-path="url(#pf254bbbc60)" style="fill: none; stroke: #cccccc; stroke-opacity: 0.2; stroke-width: 0.8; stroke-linecap: round"/>
     </g>
     <g id="text_25">
      <!-- 10 -->
      <g style="fill: #262626" transform="translate(525.630694 292.547188) scale(0.1 -0.1)">
       <use xlink:href="#ArialMT-31"/>
       <use xlink:href="#ArialMT-30" transform="translate(55.615234 0)"/>
      </g>
     </g>
    </g>
    <g id="xtick_9">
     <g id="line2d_29">
      <path d="M 603.386076 278.389375 
L 603.386076 21.789375 
" clip-path="url(#pf254bbbc60)" style="fill: none; stroke: #cccccc; stroke-opacity: 0.2; stroke-width: 0.8; stroke-linecap: round"/>
     </g>
     <g id="text_26">
      <!-- 20 -->
      <g style="fill: #262626" transform="translate(597.825139 292.547188) scale(0.1 -0.1)">
       <use xlink:href="#ArialMT-32"/>
       <use xlink:href="#ArialMT-30" transform="translate(55.615234 0)"/>
      </g>
     </g>
    </g>
    <g id="xtick_10">
     <g id="line2d_30">
      <path d="M 675.580521 278.389375 
L 675.580521 21.789375 
" clip-path="url(#pf254bbbc60)" style="fill: none; stroke: #cccccc; stroke-opacity: 0.2; stroke-width: 0.8; stroke-linecap: round"/>
     </g>
     <g id="text_27">
      <!-- 30 -->
      <g style="fill: #262626" transform="translate(670.019583 292.547188) scale(0.1 -0.1)">
       <use xlink:href="#ArialMT-33"/>
       <use xlink:href="#ArialMT-30" transform="translate(55.615234 0)"/>
      </g>
     </g>
    </g>
    <g id="xtick_11">
     <g id="line2d_31">
      <path d="M 747.774965 278.389375 
L 747.774965 21.789375 
" clip-path="url(#pf254bbbc60)" style="fill: none; stroke: #cccccc; stroke-opacity: 0.2; stroke-width: 0.8; stroke-linecap: round"/>
     </g>
     <g id="text_28">
      <!-- 40 -->
      <g style="fill: #262626" transform="translate(742.214028 292.547188) scale(0.1 -0.1)">
       <use xlink:href="#ArialMT-34"/>
       <use xlink:href="#ArialMT-30" transform="translate(55.615234 0)"/>
      </g>
     </g>
    </g>
    <g id="xtick_12">
     <g id="line2d_32">
      <path d="M 819.96941 278.389375 
L 819.96941 21.789375 
" clip-path="url(#pf254bbbc60)" style="fill: none; stroke: #cccccc; stroke-opacity: 0.2; stroke-width: 0.8; stroke-linecap: round"/>
     </g>
     <g id="text_29">
      <!-- 50 -->
      <g style="fill: #262626" transform="translate(814.408472 292.547188) scale(0.1 -0.1)">
       <use xlink:href="#ArialMT-35"/>
       <use xlink:href="#ArialMT-30" transform="translate(55.615234 0)"/>
      </g>
     </g>
    </g>
    <g id="text_30">
     <!-- Elapsed Time (sec) -->
     <g style="fill: #262626" transform="translate(611.130781 305.814375) scale(0.1 -0.1)">
      <use xlink:href="#ArialMT-45"/>
      <use xlink:href="#ArialMT-6c" transform="translate(66.699219 0)"/>
      <use xlink:href="#ArialMT-61" transform="translate(88.916016 0)"/>
      <use xlink:href="#ArialMT-70" transform="translate(144.53125 0)"/>
      <use xlink:href="#ArialMT-73" transform="translate(200.146484 0)"/>
      <use xlink:href="#ArialMT-65" transform="translate(250.146484 0)"/>
      <use xlink:href="#ArialMT-64" transform="translate(305.761719 0)"/>
      <use xlink:href="#ArialMT-20" transform="translate(361.376953 0)"/>
      <use xlink:href="#ArialMT-54" transform="translate(387.410156 0)"/>
      <use xlink:href="#ArialMT-69" transform="translate(444.744141 0)"/>
      <use xlink:href="#ArialMT-6d" transform="translate(466.960938 0)"/>
      <use xlink:href="#ArialMT-65" transform="translate(550.261719 0)"/>
      <use xlink:href="#ArialMT-20" transform="translate(605.876953 0)"/>
      <use xlink:href="#ArialMT-28" transform="translate(633.660156 0)"/>
      <use xlink:href="#ArialMT-73" transform="translate(666.960938 0)"/>
      <use xlink:href="#ArialMT-65" transform="translate(716.960938 0)"/>
      <use xlink:href="#ArialMT-63" transform="translate(772.576172 0)"/>
      <use xlink:href="#ArialMT-29" transform="translate(822.576172 0)"/>
     </g>
    </g>
   </g>
   <g id="matplotlib.axis_4">
    <g id="ytick_7">
     <g id="line2d_33">
      <path d="M 458.997187 271.876012 
L 848.847187 271.876012 
" clip-path="url(#pf254bbbc60)" style="fill: none; stroke: #cccccc; stroke-opacity: 0.2; stroke-width: 0.8; stroke-linecap: round"/>
     </g>
    </g>
    <g id="ytick_8">
     <g id="line2d_34">
      <path d="M 458.997187 222.354151 
L 848.847187 222.354151 
" clip-path="url(#pf254bbbc60)" style="fill: none; stroke: #cccccc; stroke-opacity: 0.2; stroke-width: 0.8; stroke-linecap: round"/>
     </g>
    </g>
    <g id="ytick_9">
     <g id="line2d_35">
      <path d="M 458.997187 172.83229 
L 848.847187 172.83229 
" clip-path="url(#pf254bbbc60)" style="fill: none; stroke: #cccccc; stroke-opacity: 0.2; stroke-width: 0.8; stroke-linecap: round"/>
     </g>
    </g>
    <g id="ytick_10">
     <g id="line2d_36">
      <path d="M 458.997187 123.310429 
L 848.847187 123.310429 
" clip-path="url(#pf254bbbc60)" style="fill: none; stroke: #cccccc; stroke-opacity: 0.2; stroke-width: 0.8; stroke-linecap: round"/>
     </g>
    </g>
    <g id="ytick_11">
     <g id="line2d_37">
      <path d="M 458.997187 73.788567 
L 848.847187 73.788567 
" clip-path="url(#pf254bbbc60)" style="fill: none; stroke: #cccccc; stroke-opacity: 0.2; stroke-width: 0.8; stroke-linecap: round"/>
     </g>
    </g>
    <g id="ytick_12">
     <g id="line2d_38">
      <path d="M 458.997187 24.266706 
L 848.847187 24.266706 
" clip-path="url(#pf254bbbc60)" style="fill: none; stroke: #cccccc; stroke-opacity: 0.2; stroke-width: 0.8; stroke-linecap: round"/>
     </g>
    </g>
    <g id="text_31">
     <!-- Busy% -->
     <g style="fill: #262626" transform="translate(452.8925 165.651094) rotate(-90) scale(0.1 -0.1)">
      <use xlink:href="#ArialMT-42"/>
      <use xlink:href="#ArialMT-75" transform="translate(66.699219 0)"/>
      <use xlink:href="#ArialMT-73" transform="translate(122.314453 0)"/>
      <use xlink:href="#ArialMT-79" transform="translate(172.314453 0)"/>
      <use xlink:href="#ArialMT-25" transform="translate(222.314453 0)"/>
     </g>
    </g>
   </g>
   <g id="line2d_39">
    <path d="M 458.997187 265.413409 
L 466.216632 265.289605 
L 473.436076 264.967713 
L 480.655521 265.264844 
L 487.874965 265.537214 
L 495.09441 265.883867 
L 502.313854 265.809584 
L 509.533299 265.834345 
L 516.752743 265.240083 
L 523.972187 265.116278 
L 531.191632 266.007672 
L 538.411076 265.339127 
L 545.630521 265.784823 
L 552.849965 265.809584 
L 560.06941 265.561975 
L 567.288854 266.032433 
L 574.508299 266.156237 
L 581.727743 265.363887 
L 588.947187 266.156237 
L 596.166632 265.908628 
L 603.386076 265.215322 
L 610.605521 265.784823 
L 617.824965 265.363887 
L 625.04441 265.561975 
L 632.263854 266.280042 
L 639.483299 265.264844 
L 646.702743 265.041995 
L 653.922187 265.017234 
L 661.141632 265.240083 
L 668.361076 265.636258 
L 675.580521 265.339127 
L 682.799965 266.131476 
L 690.01941 264.37345 
L 697.238854 265.809584 
L 704.458299 266.106715 
L 711.677743 265.314366 
L 718.897187 265.760062 
L 726.116632 266.379086 
L 733.336076 266.057194 
L 740.555521 265.487692 
L 747.774965 265.512453 
L 754.99441 265.735301 
L 762.213854 265.462931 
L 769.433299 264.942952 
L 776.652743 266.180998 
L 783.872187 265.1658 
L 791.091632 265.636258 
L 798.311076 265.1658 
L 805.530521 265.561975 
L 812.749965 265.017234 
L 819.96941 265.68578 
L 827.188854 265.982911 
L 834.408299 264.992473 
L 841.627743 265.289605 
L 848.847187 265.512453 
" clip-path="url(#pf254bbbc60)" style="fill: none; stroke: #1f77b4; stroke-opacity: 0.9; stroke-width: 1.2; stroke-linecap: round"/>
   </g>
   <g id="line2d_40">
    <path d="M 458.997187 264.447733 
L 466.216632 265.116278 
L 473.436076 263.655383 
L 480.655521 265.066756 
L 487.874965 264.89343 
L 495.09441 265.041995 
L 502.313854 264.546777 
L 509.533299 264.546777 
L 516.752743 265.116278 
L 523.972187 265.141039 
L 531.191632 264.398211 
L 538.411076 265.141039 
L 545.630521 265.462931 
L 552.849965 264.720103 
L 560.06941 264.868669 
L 567.288854 264.522016 
L 574.508299 264.447733 
L 581.727743 264.843908 
L 588.947187 265.190561 
L 596.166632 264.720103 
L 603.386076 264.819147 
L 610.605521 264.323928 
L 617.824965 264.843908 
L 625.04441 264.769625 
L 632.263854 265.041995 
L 639.483299 265.116278 
L 646.702743 265.066756 
L 653.922187 265.066756 
L 661.141632 264.942952 
L 668.361076 264.670581 
L 675.580521 264.918191 
L 682.799965 265.413409 
L 690.01941 264.200124 
L 697.238854 264.64582 
L 704.458299 264.497255 
L 711.677743 265.017234 
L 718.897187 264.695342 
L 726.116632 265.240083 
L 733.336076 264.522016 
L 740.555521 264.843908 
L 747.774965 264.819147 
L 754.99441 264.695342 
L 762.213854 264.794386 
L 769.433299 265.215322 
L 776.652743 265.141039 
L 783.872187 264.695342 
L 791.091632 264.596299 
L 798.311076 264.89343 
L 805.530521 264.62106 
L 812.749965 265.041995 
L 819.96941 264.497255 
L 827.188854 265.43817 
L 834.408299 265.041995 
L 841.627743 264.843908 
L 848.847187 262.318293 
" clip-path="url(#pf254bbbc60)" style="fill: none; stroke: #ff7f0e; stroke-opacity: 0.9; stroke-width: 1.2; stroke-linecap: round"/>
   </g>
   <g id="line2d_41">
    <path d="M 458.997187 34.418688 
L 466.216632 33.923469 
L 473.436076 33.849186 
L 480.655521 34.517731 
L 487.874965 35.359603 
L 495.09441 37.489043 
L 502.313854 35.087233 
L 509.533299 34.666297 
L 516.752743 34.913906 
L 523.972187 35.433886 
L 531.191632 35.953865 
L 538.411076 35.458647 
L 545.630521 35.409125 
L 552.849965 35.062472 
L 560.06941 35.186277 
L 567.288854 35.508169 
L 574.508299 35.111994 
L 581.727743 35.186277 
L 588.947187 35.582451 
L 596.166632 35.508169 
L 603.386076 36.102431 
L 610.605521 35.310081 
L 617.824965 35.310081 
L 625.04441 35.211037 
L 632.263854 34.715819 
L 639.483299 35.433886 
L 646.702743 35.136755 
L 653.922187 35.161516 
L 661.141632 35.161516 
L 668.361076 35.186277 
L 675.580521 35.681495 
L 682.799965 35.186277 
L 690.01941 35.359603 
L 697.238854 35.28532 
L 704.458299 35.28532 
L 711.677743 35.334842 
L 718.897187 35.433886 
L 726.116632 35.483408 
L 733.336076 35.359603 
L 740.555521 35.409125 
L 747.774965 35.483408 
L 754.99441 35.334842 
L 762.213854 35.28532 
L 769.433299 35.211037 
L 776.652743 35.310081 
L 783.872187 35.953865 
L 791.091632 35.458647 
L 798.311076 35.607212 
L 805.530521 35.582451 
L 812.749965 35.631973 
L 819.96941 35.953865 
L 827.188854 35.384364 
L 834.408299 35.483408 
L 841.627743 35.458647 
L 848.847187 36.548128 
" clip-path="url(#pf254bbbc60)" style="fill: none; stroke: #2ca02c; stroke-opacity: 0.9; stroke-width: 1.2; stroke-linecap: round"/>
   </g>
   <g id="line2d_42">
    <path d="M 458.997187 264.37345 
L 466.216632 264.942952 
L 473.436076 264.918191 
L 480.655521 264.918191 
L 487.874965 264.769625 
L 495.09441 265.116278 
L 502.313854 265.116278 
L 509.533299 265.066756 
L 516.752743 264.843908 
L 523.972187 264.868669 
L 531.191632 264.398211 
L 538.411076 264.868669 
L 545.630521 265.141039 
L 552.849965 264.918191 
L 560.06941 264.794386 
L 567.288854 264.868669 
L 574.508299 264.769625 
L 581.727743 265.066756 
L 588.947187 265.363887 
L 596.166632 264.992473 
L 603.386076 264.992473 
L 610.605521 264.918191 
L 617.824965 264.942952 
L 625.04441 265.141039 
L 632.263854 265.066756 
L 639.483299 265.1658 
L 646.702743 265.017234 
L 653.922187 264.918191 
L 661.141632 264.942952 
L 668.361076 265.066756 
L 675.580521 264.720103 
L 682.799965 265.1658 
L 690.01941 264.843908 
L 697.238854 264.794386 
L 704.458299 264.794386 
L 711.677743 264.89343 
L 718.897187 264.819147 
L 726.116632 265.314366 
L 733.336076 264.942952 
L 740.555521 264.819147 
L 747.774965 264.769625 
L 754.99441 264.843908 
L 762.213854 264.794386 
L 769.433299 264.868669 
L 776.652743 265.240083 
L 783.872187 265.041995 
L 791.091632 265.066756 
L 798.311076 265.141039 
L 805.530521 265.041995 
L 812.749965 265.190561 
L 819.96941 265.041995 
L 827.188854 265.264844 
L 834.408299 264.497255 
L 841.627743 265.116278 
L 848.847187 264.224885 
" clip-path="url(#pf254bbbc60)" style="fill: none; stroke: #d62728; stroke-opacity: 0.9; stroke-width: 1.2; stroke-linecap: round"/>
   </g>
   <g id="line2d_43">
    <path d="M 458.997187 265.264844 
L 466.216632 265.041995 
L 473.436076 265.240083 
L 480.655521 266.081954 
L 487.874965 265.1658 
L 495.09441 264.992473 
L 502.313854 266.156237 
L 509.533299 265.314366 
L 516.752743 265.487692 
L 523.972187 265.512453 
L 531.191632 265.809584 
L 538.411076 265.586736 
L 545.630521 265.784823 
L 552.849965 265.834345 
L 560.06941 265.314366 
L 567.288854 266.329564 
L 574.508299 266.131476 
L 581.727743 266.081954 
L 588.947187 266.205759 
L 596.166632 265.95815 
L 603.386076 265.784823 
L 610.605521 266.007672 
L 617.824965 266.180998 
L 625.04441 264.64582 
L 632.263854 266.106715 
L 639.483299 266.527651 
L 646.702743 266.676217 
L 653.922187 266.725739 
L 661.141632 266.304803 
L 668.361076 265.017234 
L 675.580521 264.967713 
L 682.799965 266.032433 
L 690.01941 266.329564 
L 697.238854 266.725739 
L 704.458299 265.413409 
L 711.677743 266.156237 
L 718.897187 266.007672 
L 726.116632 265.784823 
L 733.336076 265.636258 
L 740.555521 265.1658 
L 747.774965 266.205759 
L 754.99441 265.68578 
L 762.213854 266.304803 
L 769.433299 266.379086 
L 776.652743 265.809584 
L 783.872187 266.23052 
L 791.091632 265.017234 
L 798.311076 265.809584 
L 805.530521 265.809584 
L 812.749965 265.215322 
L 819.96941 265.859106 
L 827.188854 266.081954 
L 834.408299 265.883867 
L 841.627743 263.878232 
" clip-path="url(#pf254bbbc60)" style="fill: none; stroke-dasharray: 4.44,1.92; stroke-dashoffset: 0; stroke: #1f77b4; stroke-opacity: 0.9; stroke-width: 1.2"/>
   </g>
   <g id="line2d_44">
    <path d="M 458.997187 264.026797 
L 466.216632 264.992473 
L 473.436076 264.868669 
L 480.655521 264.398211 
L 487.874965 264.843908 
L 495.09441 265.240083 
L 502.313854 265.388648 
L 509.533299 265.091517 
L 516.752743 264.942952 
L 523.972187 264.819147 
L 531.191632 264.596299 
L 538.411076 264.942952 
L 545.630521 264.769625 
L 552.849965 265.561975 
L 560.06941 264.843908 
L 567.288854 264.868669 
L 574.508299 264.670581 
L 581.727743 264.794386 
L 588.947187 264.819147 
L 596.166632 264.843908 
L 603.386076 264.819147 
L 610.605521 265.017234 
L 617.824965 264.670581 
L 625.04441 263.729666 
L 632.263854 264.843908 
L 639.483299 264.596299 
L 646.702743 264.522016 
L 653.922187 264.571538 
L 661.141632 265.264844 
L 668.361076 264.670581 
L 675.580521 264.843908 
L 682.799965 264.868669 
L 690.01941 264.819147 
L 697.238854 264.571538 
L 704.458299 264.843908 
L 711.677743 264.819147 
L 718.897187 264.89343 
L 726.116632 265.1658 
L 733.336076 265.141039 
L 740.555521 264.89343 
L 747.774965 264.720103 
L 754.99441 264.64582 
L 762.213854 264.769625 
L 769.433299 264.819147 
L 776.652743 264.150602 
L 783.872187 265.264844 
L 791.091632 265.289605 
L 798.311076 264.744864 
L 805.530521 264.819147 
L 812.749965 265.066756 
L 819.96941 264.497255 
L 827.188854 264.546777 
L 834.408299 264.868669 
L 841.627743 263.135404 
" clip-path="url(#pf254bbbc60)" style="fill: none; stroke-dasharray: 4.44,1.92; stroke-dashoffset: 0; stroke: #ff7f0e; stroke-opacity: 0.9; stroke-width: 1.2"/>
   </g>
   <g id="line2d_45">
    <path d="M 458.997187 34.988189 
L 466.216632 35.508169 
L 473.436076 35.235798 
L 480.655521 35.01295 
L 487.874965 35.433886 
L 495.09441 35.359603 
L 502.313854 35.55769 
L 509.533299 35.656734 
L 516.752743 35.310081 
L 523.972187 36.003387 
L 531.191632 35.087233 
L 538.411076 35.037711 
L 545.630521 35.161516 
L 552.849965 35.433886 
L 560.06941 36.201475 
L 567.288854 35.483408 
L 574.508299 35.087233 
L 581.727743 34.814863 
L 588.947187 35.01295 
L 596.166632 35.384364 
L 603.386076 34.938667 
L 610.605521 35.062472 
L 617.824965 35.037711 
L 625.04441 35.111994 
L 632.263854 35.978626 
L 639.483299 35.55769 
L 646.702743 35.458647 
L 653.922187 35.582451 
L 661.141632 35.409125 
L 668.361076 35.582451 
L 675.580521 34.022513 
L 682.799965 33.601577 
L 690.01941 33.700621 
L 697.238854 33.67586 
L 704.458299 34.369166 
L 711.677743 33.601577 
L 718.897187 33.453011 
L 726.116632 33.626338 
L 733.336076 33.923469 
L 740.555521 34.938667 
L 747.774965 34.74058 
L 754.99441 35.087233 
L 762.213854 35.136755 
L 769.433299 35.161516 
L 776.652743 35.235798 
L 783.872187 35.136755 
L 791.091632 35.161516 
L 798.311076 35.28532 
L 805.530521 35.211037 
L 812.749965 35.8053 
L 819.96941 35.235798 
L 827.188854 35.310081 
L 834.408299 35.186277 
L 841.627743 35.929104 
" clip-path="url(#pf254bbbc60)" style="fill: none; stroke-dasharray: 4.44,1.92; stroke-dashoffset: 0; stroke: #2ca02c; stroke-opacity: 0.9; stroke-width: 1.2"/>
   </g>
   <g id="line2d_46">
    <path d="M 458.997187 264.422972 
L 466.216632 265.091517 
L 473.436076 265.1658 
L 480.655521 265.116278 
L 487.874965 264.819147 
L 495.09441 264.819147 
L 502.313854 265.091517 
L 509.533299 264.868669 
L 516.752743 264.794386 
L 523.972187 264.819147 
L 531.191632 264.794386 
L 538.411076 264.819147 
L 545.630521 264.819147 
L 552.849965 264.819147 
L 560.06941 264.967713 
L 567.288854 264.249646 
L 574.508299 264.596299 
L 581.727743 264.571538 
L 588.947187 264.274407 
L 596.166632 264.546777 
L 603.386076 264.819147 
L 610.605521 265.561975 
L 617.824965 264.546777 
L 625.04441 265.1658 
L 632.263854 264.422972 
L 639.483299 264.175363 
L 646.702743 264.200124 
L 653.922187 264.224885 
L 661.141632 265.339127 
L 668.361076 265.537214 
L 675.580521 265.190561 
L 682.799965 264.447733 
L 690.01941 264.249646 
L 697.238854 264.348689 
L 704.458299 265.041995 
L 711.677743 264.299167 
L 718.897187 264.64582 
L 726.116632 265.561975 
L 733.336076 264.62106 
L 740.555521 264.89343 
L 747.774965 264.447733 
L 754.99441 264.819147 
L 762.213854 264.249646 
L 769.433299 264.249646 
L 776.652743 264.868669 
L 783.872187 265.190561 
L 791.091632 264.942952 
L 798.311076 264.819147 
L 805.530521 264.868669 
L 812.749965 264.918191 
L 819.96941 265.091517 
L 827.188854 264.794386 
L 834.408299 264.918191 
L 841.627743 264.819147 
" clip-path="url(#pf254bbbc60)" style="fill: none; stroke-dasharray: 4.44,1.92; stroke-dashoffset: 0; stroke: #d62728; stroke-opacity: 0.9; stroke-width: 1.2"/>
   </g>
   <g id="patch_10">
    <path d="M 458.997187 278.389375 
L 458.997187 21.789375 
" style="fill: none; stroke: #cccccc; stroke-width: 0.8; stroke-linejoin: miter; stroke-linecap: square"/>
   </g>
   <g id="patch_11">
    <path d="M 848.847187 278.389375 
L 848.847187 21.789375 
" style="fill: none; stroke: #cccccc; stroke-width: 0.8; stroke-linejoin: miter; stroke-linecap: square"/>
   </g>
   <g id="patch_12">
    <path d="M 458.997187 278.389375 
L 848.847187 278.389375 
" style="fill: none; stroke: #cccccc; stroke-width: 0.8; stroke-linejoin: miter; stroke-linecap: square"/>
   </g>
   <g id="patch_13">
    <path d="M 458.997187 21.789375 
L 848.847187 21.789375 
" style="fill: none; stroke: #cccccc; stroke-width: 0.8; stroke-linejoin: miter; stroke-linecap: square"/>
   </g>
   <g id="text_32">
    <!-- PE019 — PC1 1 core -->
    <g style="fill: #262626" transform="translate(596.56125 15.789375) scale(0.12 -0.12)">
     <use xlink:href="#ArialMT-50"/>
     <use xlink:href="#ArialMT-45" transform="translate(66.699219 0)"/>
     <use xlink:href="#ArialMT-30" transform="translate(133.398438 0)"/>
     <use xlink:href="#ArialMT-31" transform="translate(189.013672 0)"/>
     <use xlink:href="#ArialMT-39" transform="translate(244.628906 0)"/>
     <use xlink:href="#ArialMT-20" transform="translate(300.244141 0)"/>
     <use xlink:href="#ArialMT-2014" transform="translate(328.027344 0)"/>
     <use xlink:href="#ArialMT-20" transform="translate(428.027344 0)"/>
     <use xlink:href="#ArialMT-50" transform="translate(455.810547 0)"/>
     <use xlink:href="#ArialMT-43" transform="translate(522.509766 0)"/>
     <use xlink:href="#ArialMT-31" transform="translate(594.726562 0)"/>
     <use xlink:href="#ArialMT-20" transform="translate(650.341797 0)"/>
     <use xlink:href="#ArialMT-31" transform="translate(678.125 0)"/>
     <use xlink:href="#ArialMT-20" transform="translate(733.740234 0)"/>
     <use xlink:href="#ArialMT-63" transform="translate(761.523438 0)"/>
     <use xlink:href="#ArialMT-6f" transform="translate(811.523438 0)"/>
     <use xlink:href="#ArialMT-72" transform="translate(867.138672 0)"/>
     <use xlink:href="#ArialMT-65" transform="translate(900.439453 0)"/>
    </g>
   </g>
   <g id="legend_3">
    <g id="patch_14">
     <path d="M 732.122187 63.052656 
L 843.247187 63.052656 
Q 844.847188 63.052656 844.847188 61.452656 
L 844.847188 27.389375 
Q 844.847188 25.789375 843.247187 25.789375 
L 732.122187 25.789375 
Q 730.522187 25.789375 730.522187 27.389375 
L 730.522187 61.452656 
Q 730.522187 63.052656 732.122187 63.052656 
z
" style="fill: #ffffff; opacity: 0.8; stroke: #cccccc; stroke-linejoin: miter"/>
    </g>
    <g id="text_33">
     <!-- CPU -->
     <g style="fill: #262626" transform="translate(778.183359 35.431406) scale(0.09 -0.09)">
      <use xlink:href="#ArialMT-43"/>
      <use xlink:href="#ArialMT-50" transform="translate(72.216797 0)"/>
      <use xlink:href="#ArialMT-55" transform="translate(138.916016 0)"/>
     </g>
    </g>
    <g id="line2d_47">
     <path d="M 733.722188 44.146406 
L 741.722188 44.146406 
L 749.722188 44.146406 
" style="fill: none; stroke: #1f77b4; stroke-width: 2; stroke-linecap: round"/>
    </g>
    <g id="text_34">
     <!-- CPU 0 -->
     <g style="fill: #262626" transform="translate(756.122187 46.946406) scale(0.08 -0.08)">
      <use xlink:href="#ArialMT-43"/>
      <use xlink:href="#ArialMT-50" transform="translate(72.216797 0)"/>
      <use xlink:href="#ArialMT-55" transform="translate(138.916016 0)"/>
      <use xlink:href="#ArialMT-20" transform="translate(211.132812 0)"/>
      <use xlink:href="#ArialMT-30" transform="translate(238.916016 0)"/>
     </g>
    </g>
    <g id="line2d_48">
     <path d="M 733.722188 55.462656 
L 741.722188 55.462656 
L 749.722188 55.462656 
" style="fill: none; stroke: #ff7f0e; stroke-width: 2; stroke-linecap: round"/>
    </g>
    <g id="text_35">
     <!-- CPU 1 -->
     <g style="fill: #262626" transform="translate(756.122187 58.262656) scale(0.08 -0.08)">
      <use xlink:href="#ArialMT-43"/>
      <use xlink:href="#ArialMT-50" transform="translate(72.216797 0)"/>
      <use xlink:href="#ArialMT-55" transform="translate(138.916016 0)"/>
      <use xlink:href="#ArialMT-20" transform="translate(211.132812 0)"/>
      <use xlink:href="#ArialMT-31" transform="translate(238.916016 0)"/>
     </g>
    </g>
    <g id="line2d_49">
     <path d="M 795.684687 44.146406 
L 803.684687 44.146406 
L 811.684687 44.146406 
" style="fill: none; stroke: #2ca02c; stroke-width: 2; stroke-linecap: round"/>
    </g>
    <g id="text_36">
     <!-- CPU 2 -->
     <g style="fill: #262626" transform="translate(818.084687 46.946406) scale(0.08 -0.08)">
      <use xlink:href="#ArialMT-43"/>
      <use xlink:href="#ArialMT-50" transform="translate(72.216797 0)"/>
      <use xlink:href="#ArialMT-55" transform="translate(138.916016 0)"/>
      <use xlink:href="#ArialMT-20" transform="translate(211.132812 0)"/>
      <use xlink:href="#ArialMT-32" transform="translate(238.916016 0)"/>
     </g>
    </g>
    <g id="line2d_50">
     <path d="M 795.684687 55.462656 
L 803.684687 55.462656 
L 811.684687 55.462656 
" style="fill: none; stroke: #d62728; stroke-width: 2; stroke-linecap: round"/>
    </g>
    <g id="text_37">
     <!-- CPU 3 -->
     <g style="fill: #262626" transform="translate(818.084687 58.262656) scale(0.08 -0.08)">
      <use xlink:href="#ArialMT-43"/>
      <use xlink:href="#ArialMT-50" transform="translate(72.216797 0)"/>
      <use xlink:href="#ArialMT-55" transform="translate(138.916016 0)"/>
      <use xlink:href="#ArialMT-20" transform="translate(211.132812 0)"/>
      <use xlink:href="#ArialMT-33" transform="translate(238.916016 0)"/>
     </g>
    </g>
   </g>
   <g id="legend_4">
    <g id="patch_15">
     <path d="M 464.597187 63.240156 
L 515.543437 63.240156 
Q 517.143437 63.240156 517.143437 61.640156 
L 517.143437 27.389375 
Q 517.143437 25.789375 515.543437 25.789375 
L 464.597187 25.789375 
Q 462.997187 25.789375 462.997187 27.389375 
L 462.997187 61.640156 
Q 462.997187 63.240156 464.597187 63.240156 
z
" style="fill: #ffffff; opacity: 0.8; stroke: #cccccc; stroke-linejoin: miter"/>
    </g>
    <g id="text_38">
     <!-- Variant -->
     <g style="fill: #262626" transform="translate(476.144922 35.431406) scale(0.09 -0.09)">
      <use xlink:href="#ArialMT-56"/>
      <use xlink:href="#ArialMT-61" transform="translate(59.324219 0)"/>
      <use xlink:href="#ArialMT-72" transform="translate(114.939453 0)"/>
      <use xlink:href="#ArialMT-69" transform="translate(148.240234 0)"/>
      <use xlink:href="#ArialMT-61" transform="translate(170.457031 0)"/>
      <use xlink:href="#ArialMT-6e" transform="translate(226.072266 0)"/>
      <use xlink:href="#ArialMT-74" transform="translate(281.6875 0)"/>
     </g>
    </g>
    <g id="line2d_51">
     <path d="M 466.197187 44.146406 
L 474.197187 44.146406 
L 482.197187 44.146406 
" style="fill: none; stroke: #333333; stroke-width: 2; stroke-linecap: round"/>
    </g>
    <g id="text_39">
     <!-- queryA -->
     <g style="fill: #262626" transform="translate(488.597187 46.946406) scale(0.08 -0.08)">
      <use xlink:href="#ArialMT-71"/>
      <use xlink:href="#ArialMT-75" transform="translate(55.615234 0)"/>
      <use xlink:href="#ArialMT-65" transform="translate(111.230469 0)"/>
      <use xlink:href="#ArialMT-72" transform="translate(166.845703 0)"/>
      <use xlink:href="#ArialMT-79" transform="translate(200.146484 0)"/>
      <use xlink:href="#ArialMT-41" transform="translate(250.146484 0)"/>
     </g>
    </g>
    <g id="line2d_52">
     <path d="M 466.197187 55.556406 
L 474.197187 55.556406 
L 482.197187 55.556406 
" style="fill: none; stroke-dasharray: 7.4,3.2; stroke-dashoffset: 0; stroke: #333333; stroke-width: 2"/>
    </g>
    <g id="text_40">
     <!-- queryB -->
     <g style="fill: #262626" transform="translate(488.597187 58.356406) scale(0.08 -0.08)">
      <use xlink:href="#ArialMT-71"/>
      <use xlink:href="#ArialMT-75" transform="translate(55.615234 0)"/>
      <use xlink:href="#ArialMT-65" transform="translate(111.230469 0)"/>
      <use xlink:href="#ArialMT-72" transform="translate(166.845703 0)"/>
      <use xlink:href="#ArialMT-79" transform="translate(200.146484 0)"/>
      <use xlink:href="#ArialMT-42" transform="translate(250.146484 0)"/>
     </g>
    </g>
   </g>
  </g>
 </g>
 <defs>
  <clipPath id="p507660998c">
   <rect x="44.267188" y="21.789375" width="389.85" height="256.6"/>
  </clipPath>
  <clipPath id="pf254bbbc60">
   <rect x="458.997187" y="21.789375" width="389.85" height="256.6"/>
  </clipPath>
 </defs>
</svg>
