<?xml version="1.0" encoding="utf-8" standalone="no"?>
<!DOCTYPE svg PUBLIC "-//W3C//DTD SVG 1.1//EN"
  "http://www.w3.org/Graphics/SVG/1.1/DTD/svg11.dtd">
<svg xmlns:xlink="http://www.w3.org/1999/xlink" width="855.37657pt" height="279.119063pt" viewBox="0 0 855.37657 279.119063" xmlns="http://www.w3.org/2000/svg" version="1.1">
 <metadata>
  <rdf:RDF xmlns:dc="http://purl.org/dc/elements/1.1/" xmlns:cc="http://creativecommons.org/ns#" xmlns:rdf="http://www.w3.org/1999/02/22-rdf-syntax-ns#">
   <cc:Work>
    <dc:type rdf:resource="http://purl.org/dc/dcmitype/StillImage"/>
    <dc:date>2026-05-26T16:50:32.112309</dc:date>
    <dc:format>image/svg+xml</dc:format>
    <dc:creator>
     <cc:Agent>
      <dc:title>Matplotlib v3.10.1, https://matplotlib.org/</dc:title>
     </cc:Agent>
    </dc:creator>
   </cc:Work>
  </rdf:RDF>
 </metadata>
 <defs>
  <style type="text/css">*{stroke-linejoin: round; stroke-linecap: butt}</style>
 </defs>
 <g id="figure_1">
  <g id="patch_1">
   <path d="M 0 279.119063 
L 855.37657 279.119063 
L 855.37657 0 
L 0 0 
z
" style="fill: #ffffff"/>
  </g>
  <g id="axes_1">
   <g id="patch_2">
    <path d="M 46.953125 242.389375 
L 428.872332 242.389375 
L 428.872332 21.789375 
L 46.953125 21.789375 
z
" style="fill: #ffffff"/>
   </g>
   <g id="matplotlib.axis_1">
    <g id="xtick_1">
     <g id="line2d_1">
      <path d="M 46.953125 242.389375 
L 46.953125 21.789375 
" clip-path="url(#pa0f732a139)" style="fill: none; stroke: #cccccc; stroke-opacity: 0.3; stroke-width: 0.8; stroke-linecap: round"/>
     </g>
     <g id="text_1">
      <!-- 0 -->
      <g style="fill: #262626" transform="translate(44.172656 256.547188) scale(0.1 -0.1)">
       <defs>
        <path id="ArialMT-30" d="M 266 2259 
Q 266 3072 433 3567 
Q 600 4063 929 4331 
Q 1259 4600 1759 4600 
Q 2128 4600 2406 4451 
Q 2684 4303 2865 4023 
Q 3047 3744 3150 3342 
Q 3253 2941 3253 2259 
Q 3253 1453 3087 958 
Q 2922 463 2592 192 
Q 2263 -78 1759 -78 
Q 1097 -78 719 397 
Q 266 969 266 2259 
z
M 844 2259 
Q 844 1131 1108 757 
Q 1372 384 1759 384 
Q 2147 384 2411 759 
Q 2675 1134 2675 2259 
Q 2675 3391 2411 3762 
Q 2147 4134 1753 4134 
Q 1366 4134 1134 3806 
Q 844 3388 844 2259 
z
" transform="scale(0.015625)"/>
       </defs>
       <use xlink:href="#ArialMT-30"/>
      </g>
     </g>
    </g>
    <g id="xtick_2">
     <g id="line2d_2">
      <path d="M 94.396505 242.389375 
L 94.396505 21.789375 
" clip-path="url(#pa0f732a139)" style="fill: none; stroke: #cccccc; stroke-opacity: 0.3; stroke-width: 0.8; stroke-linecap: round"/>
     </g>
     <g id="text_2">
      <!-- 20 -->
      <g style="fill: #262626" transform="translate(88.835567 256.547188) scale(0.1 -0.1)">
       <defs>
        <path id="ArialMT-32" d="M 3222 541 
L 3222 0 
L 194 0 
Q 188 203 259 391 
Q 375 700 629 1000 
Q 884 1300 1366 1694 
Q 2113 2306 2375 2664 
Q 2638 3022 2638 3341 
Q 2638 3675 2398 3904 
Q 2159 4134 1775 4134 
Q 1369 4134 1125 3890 
Q 881 3647 878 3216 
L 300 3275 
Q 359 3922 746 4261 
Q 1134 4600 1788 4600 
Q 2447 4600 2831 4234 
Q 3216 3869 3216 3328 
Q 3216 3053 3103 2787 
Q 2991 2522 2730 2228 
Q 2469 1934 1863 1422 
Q 1356 997 1212 845 
Q 1069 694 975 541 
L 3222 541 
z
" transform="scale(0.015625)"/>
       </defs>
       <use xlink:href="#ArialMT-32"/>
       <use xlink:href="#ArialMT-30" transform="translate(55.615234 0)"/>
      </g>
     </g>
    </g>
    <g id="xtick_3">
     <g id="line2d_3">
      <path d="M 141.839885 242.389375 
L 141.839885 21.789375 
" clip-path="url(#pa0f732a139)" style="fill: none; stroke: #cccccc; stroke-opacity: 0.3; stroke-width: 0.8; stroke-linecap: round"/>
     </g>
     <g id="text_3">
      <!-- 40 -->
      <g style="fill: #262626" transform="translate(136.278947 256.547188) scale(0.1 -0.1)">
       <defs>
        <path id="ArialMT-34" d="M 2069 0 
L 2069 1097 
L 81 1097 
L 81 1613 
L 2172 4581 
L 2631 4581 
L 2631 1613 
L 3250 1613 
L 3250 1097 
L 2631 1097 
L 2631 0 
L 2069 0 
z
M 2069 1613 
L 2069 3678 
L 634 1613 
L 2069 1613 
z
" transform="scale(0.015625)"/>
       </defs>
       <use xlink:href="#ArialMT-34"/>
       <use xlink:href="#ArialMT-30" transform="translate(55.615234 0)"/>
      </g>
     </g>
    </g>
    <g id="xtick_4">
     <g id="line2d_4">
      <path d="M 189.283264 242.389375 
L 189.283264 21.789375 
" clip-path="url(#pa0f732a139)" style="fill: none; stroke: #cccccc; stroke-opacity: 0.3; stroke-width: 0.8; stroke-linecap: round"/>
     </g>
     <g id="text_4">
      <!-- 60 -->
      <g style="fill: #262626" transform="translate(183.722327 256.547188) scale(0.1 -0.1)">
       <defs>
        <path id="ArialMT-36" d="M 3184 3459 
L 2625 3416 
Q 2550 3747 2413 3897 
Q 2184 4138 1850 4138 
Q 1581 4138 1378 3988 
Q 1113 3794 959 3422 
Q 806 3050 800 2363 
Q 1003 2672 1297 2822 
Q 1591 2972 1913 2972 
Q 2475 2972 2870 2558 
Q 3266 2144 3266 1488 
Q 3266 1056 3080 686 
Q 2894 316 2569 119 
Q 2244 -78 1831 -78 
Q 1128 -78 684 439 
Q 241 956 241 2144 
Q 241 3472 731 4075 
Q 1159 4600 1884 4600 
Q 2425 4600 2770 4297 
Q 3116 3994 3184 3459 
z
M 888 1484 
Q 888 1194 1011 928 
Q 1134 663 1356 523 
Q 1578 384 1822 384 
Q 2178 384 2434 671 
Q 2691 959 2691 1453 
Q 2691 1928 2437 2201 
Q 2184 2475 1800 2475 
Q 1419 2475 1153 2201 
Q 888 1928 888 1484 
z
" transform="scale(0.015625)"/>
       </defs>
       <use xlink:href="#ArialMT-36"/>
       <use xlink:href="#ArialMT-30" transform="translate(55.615234 0)"/>
      </g>
     </g>
    </g>
    <g id="xtick_5">
     <g id="line2d_5">
      <path d="M 236.726644 242.389375 
L 236.726644 21.789375 
" clip-path="url(#pa0f732a139)" style="fill: none; stroke: #cccccc; stroke-opacity: 0.3; stroke-width: 0.8; stroke-linecap: round"/>
     </g>
     <g id="text_5">
      <!-- 80 -->
      <g style="fill: #262626" transform="translate(231.165707 256.547188) scale(0.1 -0.1)">
       <defs>
        <path id="ArialMT-38" d="M 1131 2484 
Q 781 2613 612 2850 
Q 444 3088 444 3419 
Q 444 3919 803 4259 
Q 1163 4600 1759 4600 
Q 2359 4600 2725 4251 
Q 3091 3903 3091 3403 
Q 3091 3084 2923 2848 
Q 2756 2613 2416 2484 
Q 2838 2347 3058 2040 
Q 3278 1734 3278 1309 
Q 3278 722 2862 322 
Q 2447 -78 1769 -78 
Q 1091 -78 675 323 
Q 259 725 259 1325 
Q 259 1772 486 2073 
Q 713 2375 1131 2484 
z
M 1019 3438 
Q 1019 3113 1228 2906 
Q 1438 2700 1772 2700 
Q 2097 2700 2305 2904 
Q 2513 3109 2513 3406 
Q 2513 3716 2298 3927 
Q 2084 4138 1766 4138 
Q 1444 4138 1231 3931 
Q 1019 3725 1019 3438 
z
M 838 1322 
Q 838 1081 952 856 
Q 1066 631 1291 507 
Q 1516 384 1775 384 
Q 2178 384 2440 643 
Q 2703 903 2703 1303 
Q 2703 1709 2433 1975 
Q 2163 2241 1756 2241 
Q 1359 2241 1098 1978 
Q 838 1716 838 1322 
z
" transform="scale(0.015625)"/>
       </defs>
       <use xlink:href="#ArialMT-38"/>
       <use xlink:href="#ArialMT-30" transform="translate(55.615234 0)"/>
      </g>
     </g>
    </g>
    <g id="xtick_6">
     <g id="line2d_6">
      <path d="M 284.170024 242.389375 
L 284.170024 21.789375 
" clip-path="url(#pa0f732a139)" style="fill: none; stroke: #cccccc; stroke-opacity: 0.3; stroke-width: 0.8; stroke-linecap: round"/>
     </g>
     <g id="text_6">
      <!-- 100 -->
      <g style="fill: #262626" transform="translate(275.828618 256.547188) scale(0.1 -0.1)">
       <defs>
        <path id="ArialMT-31" d="M 2384 0 
L 1822 0 
L 1822 3584 
Q 1619 3391 1289 3197 
Q 959 3003 697 2906 
L 697 3450 
Q 1169 3672 1522 3987 
Q 1875 4303 2022 4600 
L 2384 4600 
L 2384 0 
z
" transform="scale(0.015625)"/>
       </defs>
       <use xlink:href="#ArialMT-31"/>
       <use xlink:href="#ArialMT-30" transform="translate(55.615234 0)"/>
       <use xlink:href="#ArialMT-30" transform="translate(111.230469 0)"/>
      </g>
     </g>
    </g>
    <g id="xtick_7">
     <g id="line2d_7">
      <path d="M 331.613404 242.389375 
L 331.613404 21.789375 
" clip-path="url(#pa0f732a139)" style="fill: none; stroke: #cccccc; stroke-opacity: 0.3; stroke-width: 0.8; stroke-linecap: round"/>
     </g>
     <g id="text_7">
      <!-- 120 -->
      <g style="fill: #262626" transform="translate(323.271998 256.547188) scale(0.1 -0.1)">
       <use xlink:href="#ArialMT-31"/>
       <use xlink:href="#ArialMT-32" transform="translate(55.615234 0)"/>
       <use xlink:href="#ArialMT-30" transform="translate(111.230469 0)"/>
      </g>
     </g>
    </g>
    <g id="xtick_8">
     <g id="line2d_8">
      <path d="M 379.056784 242.389375 
L 379.056784 21.789375 
" clip-path="url(#pa0f732a139)" style="fill: none; stroke: #cccccc; stroke-opacity: 0.3; stroke-width: 0.8; stroke-linecap: round"/>
     </g>
     <g id="text_8">
      <!-- 140 -->
      <g style="fill: #262626" transform="translate(370.715377 256.547188) scale(0.1 -0.1)">
       <use xlink:href="#ArialMT-31"/>
       <use xlink:href="#ArialMT-34" transform="translate(55.615234 0)"/>
       <use xlink:href="#ArialMT-30" transform="translate(111.230469 0)"/>
      </g>
     </g>
    </g>
    <g id="xtick_9">
     <g id="line2d_9">
      <path d="M 426.500163 242.389375 
L 426.500163 21.789375 
" clip-path="url(#pa0f732a139)" style="fill: none; stroke: #cccccc; stroke-opacity: 0.3; stroke-width: 0.8; stroke-linecap: round"/>
     </g>
     <g id="text_9">
      <!-- 160 -->
      <g style="fill: #262626" transform="translate(418.158757 256.547188) scale(0.1 -0.1)">
       <use xlink:href="#ArialMT-31"/>
       <use xlink:href="#ArialMT-36" transform="translate(55.615234 0)"/>
       <use xlink:href="#ArialMT-30" transform="translate(111.230469 0)"/>
      </g>
     </g>
    </g>
    <g id="text_10">
     <!-- Elapsed Time (sec) -->
     <g style="fill: #262626" transform="translate(195.121322 269.814375) scale(0.1 -0.1)">
      <defs>
       <path id="ArialMT-45" d="M 506 0 
L 506 4581 
L 3819 4581 
L 3819 4041 
L 1113 4041 
L 1113 2638 
L 3647 2638 
L 3647 2100 
L 1113 2100 
L 1113 541 
L 3925 541 
L 3925 0 
L 506 0 
z
" transform="scale(0.015625)"/>
       <path id="ArialMT-6c" d="M 409 0 
L 409 4581 
L 972 4581 
L 972 0 
L 409 0 
z
" transform="scale(0.015625)"/>
       <path id="ArialMT-61" d="M 2588 409 
Q 2275 144 1986 34 
Q 1697 -75 1366 -75 
Q 819 -75 525 192 
Q 231 459 231 875 
Q 231 1119 342 1320 
Q 453 1522 633 1644 
Q 813 1766 1038 1828 
Q 1203 1872 1538 1913 
Q 2219 1994 2541 2106 
Q 2544 2222 2544 2253 
Q 2544 2597 2384 2738 
Q 2169 2928 1744 2928 
Q 1347 2928 1158 2789 
Q 969 2650 878 2297 
L 328 2372 
Q 403 2725 575 2942 
Q 747 3159 1072 3276 
Q 1397 3394 1825 3394 
Q 2250 3394 2515 3294 
Q 2781 3194 2906 3042 
Q 3031 2891 3081 2659 
Q 3109 2516 3109 2141 
L 3109 1391 
Q 3109 606 3145 398 
Q 3181 191 3288 0 
L 2700 0 
Q 2613 175 2588 409 
z
M 2541 1666 
Q 2234 1541 1622 1453 
Q 1275 1403 1131 1340 
Q 988 1278 909 1158 
Q 831 1038 831 891 
Q 831 666 1001 516 
Q 1172 366 1500 366 
Q 1825 366 2078 508 
Q 2331 650 2450 897 
Q 2541 1088 2541 1459 
L 2541 1666 
z
" transform="scale(0.015625)"/>
       <path id="ArialMT-70" d="M 422 -1272 
L 422 3319 
L 934 3319 
L 934 2888 
Q 1116 3141 1344 3267 
Q 1572 3394 1897 3394 
Q 2322 3394 2647 3175 
Q 2972 2956 3137 2557 
Q 3303 2159 3303 1684 
Q 3303 1175 3120 767 
Q 2938 359 2589 142 
Q 2241 -75 1856 -75 
Q 1575 -75 1351 44 
Q 1128 163 984 344 
L 984 -1272 
L 422 -1272 
z
M 931 1641 
Q 931 1000 1190 694 
Q 1450 388 1819 388 
Q 2194 388 2461 705 
Q 2728 1022 2728 1688 
Q 2728 2322 2467 2637 
Q 2206 2953 1844 2953 
Q 1484 2953 1207 2617 
Q 931 2281 931 1641 
z
" transform="scale(0.015625)"/>
       <path id="ArialMT-73" d="M 197 991 
L 753 1078 
Q 800 744 1014 566 
Q 1228 388 1613 388 
Q 2000 388 2187 545 
Q 2375 703 2375 916 
Q 2375 1106 2209 1216 
Q 2094 1291 1634 1406 
Q 1016 1563 777 1677 
Q 538 1791 414 1992 
Q 291 2194 291 2438 
Q 291 2659 392 2848 
Q 494 3038 669 3163 
Q 800 3259 1026 3326 
Q 1253 3394 1513 3394 
Q 1903 3394 2198 3281 
Q 2494 3169 2634 2976 
Q 2775 2784 2828 2463 
L 2278 2388 
Q 2241 2644 2061 2787 
Q 1881 2931 1553 2931 
Q 1166 2931 1000 2803 
Q 834 2675 834 2503 
Q 834 2394 903 2306 
Q 972 2216 1119 2156 
Q 1203 2125 1616 2013 
Q 2213 1853 2448 1751 
Q 2684 1650 2818 1456 
Q 2953 1263 2953 975 
Q 2953 694 2789 445 
Q 2625 197 2315 61 
Q 2006 -75 1616 -75 
Q 969 -75 630 194 
Q 291 463 197 991 
z
" transform="scale(0.015625)"/>
       <path id="ArialMT-65" d="M 2694 1069 
L 3275 997 
Q 3138 488 2766 206 
Q 2394 -75 1816 -75 
Q 1088 -75 661 373 
Q 234 822 234 1631 
Q 234 2469 665 2931 
Q 1097 3394 1784 3394 
Q 2450 3394 2872 2941 
Q 3294 2488 3294 1666 
Q 3294 1616 3291 1516 
L 816 1516 
Q 847 969 1125 678 
Q 1403 388 1819 388 
Q 2128 388 2347 550 
Q 2566 713 2694 1069 
z
M 847 1978 
L 2700 1978 
Q 2663 2397 2488 2606 
Q 2219 2931 1791 2931 
Q 1403 2931 1139 2672 
Q 875 2413 847 1978 
z
" transform="scale(0.015625)"/>
       <path id="ArialMT-64" d="M 2575 0 
L 2575 419 
Q 2259 -75 1647 -75 
Q 1250 -75 917 144 
Q 584 363 401 755 
Q 219 1147 219 1656 
Q 219 2153 384 2558 
Q 550 2963 881 3178 
Q 1213 3394 1622 3394 
Q 1922 3394 2156 3267 
Q 2391 3141 2538 2938 
L 2538 4581 
L 3097 4581 
L 3097 0 
L 2575 0 
z
M 797 1656 
Q 797 1019 1065 703 
Q 1334 388 1700 388 
Q 2069 388 2326 689 
Q 2584 991 2584 1609 
Q 2584 2291 2321 2609 
Q 2059 2928 1675 2928 
Q 1300 2928 1048 2622 
Q 797 2316 797 1656 
z
" transform="scale(0.015625)"/>
       <path id="ArialMT-20" transform="scale(0.015625)"/>
       <path id="ArialMT-54" d="M 1659 0 
L 1659 4041 
L 150 4041 
L 150 4581 
L 3781 4581 
L 3781 4041 
L 2266 4041 
L 2266 0 
L 1659 0 
z
" transform="scale(0.015625)"/>
       <path id="ArialMT-69" d="M 425 3934 
L 425 4581 
L 988 4581 
L 988 3934 
L 425 3934 
z
M 425 0 
L 425 3319 
L 988 3319 
L 988 0 
L 425 0 
z
" transform="scale(0.015625)"/>
       <path id="ArialMT-6d" d="M 422 0 
L 422 3319 
L 925 3319 
L 925 2853 
Q 1081 3097 1340 3245 
Q 1600 3394 1931 3394 
Q 2300 3394 2536 3241 
Q 2772 3088 2869 2813 
Q 3263 3394 3894 3394 
Q 4388 3394 4653 3120 
Q 4919 2847 4919 2278 
L 4919 0 
L 4359 0 
L 4359 2091 
Q 4359 2428 4304 2576 
Q 4250 2725 4106 2815 
Q 3963 2906 3769 2906 
Q 3419 2906 3187 2673 
Q 2956 2441 2956 1928 
L 2956 0 
L 2394 0 
L 2394 2156 
Q 2394 2531 2256 2718 
Q 2119 2906 1806 2906 
Q 1569 2906 1367 2781 
Q 1166 2656 1075 2415 
Q 984 2175 984 1722 
L 984 0 
L 422 0 
z
" transform="scale(0.015625)"/>
       <path id="ArialMT-28" d="M 1497 -1347 
Q 1031 -759 709 28 
Q 388 816 388 1659 
Q 388 2403 628 3084 
Q 909 3875 1497 4659 
L 1900 4659 
Q 1522 4009 1400 3731 
Q 1209 3300 1100 2831 
Q 966 2247 966 1656 
Q 966 153 1900 -1347 
L 1497 -1347 
z
" transform="scale(0.015625)"/>
       <path id="ArialMT-63" d="M 2588 1216 
L 3141 1144 
Q 3050 572 2676 248 
Q 2303 -75 1759 -75 
Q 1078 -75 664 370 
Q 250 816 250 1647 
Q 250 2184 428 2587 
Q 606 2991 970 3192 
Q 1334 3394 1763 3394 
Q 2303 3394 2647 3120 
Q 2991 2847 3088 2344 
L 2541 2259 
Q 2463 2594 2264 2762 
Q 2066 2931 1784 2931 
Q 1359 2931 1093 2626 
Q 828 2322 828 1663 
Q 828 994 1084 691 
Q 1341 388 1753 388 
Q 2084 388 2306 591 
Q 2528 794 2588 1216 
z
" transform="scale(0.015625)"/>
       <path id="ArialMT-29" d="M 791 -1347 
L 388 -1347 
Q 1322 153 1322 1656 
Q 1322 2244 1188 2822 
Q 1081 3291 891 3722 
Q 769 4003 388 4659 
L 791 4659 
Q 1378 3875 1659 3084 
Q 1900 2403 1900 1659 
Q 1900 816 1576 28 
Q 1253 -759 791 -1347 
z
" transform="scale(0.015625)"/>
      </defs>
      <use xlink:href="#ArialMT-45"/>
      <use xlink:href="#ArialMT-6c" transform="translate(66.699219 0)"/>
      <use xlink:href="#ArialMT-61" transform="translate(88.916016 0)"/>
      <use xlink:href="#ArialMT-70" transform="translate(144.53125 0)"/>
      <use xlink:href="#ArialMT-73" transform="translate(200.146484 0)"/>
      <use xlink:href="#ArialMT-65" transform="translate(250.146484 0)"/>
      <use xlink:href="#ArialMT-64" transform="translate(305.761719 0)"/>
      <use xlink:href="#ArialMT-20" transform="translate(361.376953 0)"/>
      <use xlink:href="#ArialMT-54" transform="translate(387.410156 0)"/>
      <use xlink:href="#ArialMT-69" transform="translate(444.744141 0)"/>
      <use xlink:href="#ArialMT-6d" transform="translate(466.960938 0)"/>
      <use xlink:href="#ArialMT-65" transform="translate(550.261719 0)"/>
      <use xlink:href="#ArialMT-20" transform="translate(605.876953 0)"/>
      <use xlink:href="#ArialMT-28" transform="translate(633.660156 0)"/>
      <use xlink:href="#ArialMT-73" transform="translate(666.960938 0)"/>
      <use xlink:href="#ArialMT-65" transform="translate(716.960938 0)"/>
      <use xlink:href="#ArialMT-63" transform="translate(772.576172 0)"/>
      <use xlink:href="#ArialMT-29" transform="translate(822.576172 0)"/>
     </g>
    </g>
   </g>
   <g id="matplotlib.axis_2">
    <g id="ytick_1">
     <g id="line2d_10">
      <path d="M 46.953125 215.52975 
L 428.872332 215.52975 
" clip-path="url(#pa0f732a139)" style="fill: none; stroke: #cccccc; stroke-opacity: 0.3; stroke-width: 0.8; stroke-linecap: round"/>
     </g>
     <g id="text_11">
      <!-- 1.25 -->
      <g style="fill: #262626" transform="translate(20.492188 219.108656) scale(0.1 -0.1)">
       <defs>
        <path id="ArialMT-2e" d="M 581 0 
L 581 641 
L 1222 641 
L 1222 0 
L 581 0 
z
" transform="scale(0.015625)"/>
        <path id="ArialMT-35" d="M 266 1200 
L 856 1250 
Q 922 819 1161 601 
Q 1400 384 1738 384 
Q 2144 384 2425 690 
Q 2706 997 2706 1503 
Q 2706 1984 2436 2262 
Q 2166 2541 1728 2541 
Q 1456 2541 1237 2417 
Q 1019 2294 894 2097 
L 366 2166 
L 809 4519 
L 3088 4519 
L 3088 3981 
L 1259 3981 
L 1013 2750 
Q 1425 3038 1878 3038 
Q 2478 3038 2890 2622 
Q 3303 2206 3303 1553 
Q 3303 931 2941 478 
Q 2500 -78 1738 -78 
Q 1113 -78 717 272 
Q 322 622 266 1200 
z
" transform="scale(0.015625)"/>
       </defs>
       <use xlink:href="#ArialMT-31"/>
       <use xlink:href="#ArialMT-2e" transform="translate(55.615234 0)"/>
       <use xlink:href="#ArialMT-32" transform="translate(83.398438 0)"/>
       <use xlink:href="#ArialMT-35" transform="translate(139.013672 0)"/>
      </g>
     </g>
    </g>
    <g id="ytick_2">
     <g id="line2d_11">
      <path d="M 46.953125 185.471978 
L 428.872332 185.471978 
" clip-path="url(#pa0f732a139)" style="fill: none; stroke: #cccccc; stroke-opacity: 0.3; stroke-width: 0.8; stroke-linecap: round"/>
     </g>
     <g id="text_12">
      <!-- 1.50 -->
      <g style="fill: #262626" transform="translate(20.492188 189.050884) scale(0.1 -0.1)">
       <use xlink:href="#ArialMT-31"/>
       <use xlink:href="#ArialMT-2e" transform="translate(55.615234 0)"/>
       <use xlink:href="#ArialMT-35" transform="translate(83.398438 0)"/>
       <use xlink:href="#ArialMT-30" transform="translate(139.013672 0)"/>
      </g>
     </g>
    </g>
    <g id="ytick_3">
     <g id="line2d_12">
      <path d="M 46.953125 155.414206 
L 428.872332 155.414206 
" clip-path="url(#pa0f732a139)" style="fill: none; stroke: #cccccc; stroke-opacity: 0.3; stroke-width: 0.8; stroke-linecap: round"/>
     </g>
     <g id="text_13">
      <!-- 1.75 -->
      <g style="fill: #262626" transform="translate(20.492188 158.993112) scale(0.1 -0.1)">
       <defs>
        <path id="ArialMT-37" d="M 303 3981 
L 303 4522 
L 3269 4522 
L 3269 4084 
Q 2831 3619 2401 2847 
Q 1972 2075 1738 1259 
Q 1569 684 1522 0 
L 944 0 
Q 953 541 1156 1306 
Q 1359 2072 1739 2783 
Q 2119 3494 2547 3981 
L 303 3981 
z
" transform="scale(0.015625)"/>
       </defs>
       <use xlink:href="#ArialMT-31"/>
       <use xlink:href="#ArialMT-2e" transform="translate(55.615234 0)"/>
       <use xlink:href="#ArialMT-37" transform="translate(83.398438 0)"/>
       <use xlink:href="#ArialMT-35" transform="translate(139.013672 0)"/>
      </g>
     </g>
    </g>
    <g id="ytick_4">
     <g id="line2d_13">
      <path d="M 46.953125 125.356434 
L 428.872332 125.356434 
" clip-path="url(#pa0f732a139)" style="fill: none; stroke: #cccccc; stroke-opacity: 0.3; stroke-width: 0.8; stroke-linecap: round"/>
     </g>
     <g id="text_14">
      <!-- 2.00 -->
      <g style="fill: #262626" transform="translate(20.492188 128.93534) scale(0.1 -0.1)">
       <use xlink:href="#ArialMT-32"/>
       <use xlink:href="#ArialMT-2e" transform="translate(55.615234 0)"/>
       <use xlink:href="#ArialMT-30" transform="translate(83.398438 0)"/>
       <use xlink:href="#ArialMT-30" transform="translate(139.013672 0)"/>
      </g>
     </g>
    </g>
    <g id="ytick_5">
     <g id="line2d_14">
      <path d="M 46.953125 95.298662 
L 428.872332 95.298662 
" clip-path="url(#pa0f732a139)" style="fill: none; stroke: #cccccc; stroke-opacity: 0.3; stroke-width: 0.8; stroke-linecap: round"/>
     </g>
     <g id="text_15">
      <!-- 2.25 -->
      <g style="fill: #262626" transform="translate(20.492188 98.877568) scale(0.1 -0.1)">
       <use xlink:href="#ArialMT-32"/>
       <use xlink:href="#ArialMT-2e" transform="translate(55.615234 0)"/>
       <use xlink:href="#ArialMT-32" transform="translate(83.398438 0)"/>
       <use xlink:href="#ArialMT-35" transform="translate(139.013672 0)"/>
      </g>
     </g>
    </g>
    <g id="ytick_6">
     <g id="line2d_15">
      <path d="M 46.953125 65.24089 
L 428.872332 65.24089 
" clip-path="url(#pa0f732a139)" style="fill: none; stroke: #cccccc; stroke-opacity: 0.3; stroke-width: 0.8; stroke-linecap: round"/>
     </g>
     <g id="text_16">
      <!-- 2.50 -->
      <g style="fill: #262626" transform="translate(20.492188 68.819796) scale(0.1 -0.1)">
       <use xlink:href="#ArialMT-32"/>
       <use xlink:href="#ArialMT-2e" transform="translate(55.615234 0)"/>
       <use xlink:href="#ArialMT-35" transform="translate(83.398438 0)"/>
       <use xlink:href="#ArialMT-30" transform="translate(139.013672 0)"/>
      </g>
     </g>
    </g>
    <g id="ytick_7">
     <g id="line2d_16">
      <path d="M 46.953125 35.183118 
L 428.872332 35.183118 
" clip-path="url(#pa0f732a139)" style="fill: none; stroke: #cccccc; stroke-opacity: 0.3; stroke-width: 0.8; stroke-linecap: round"/>
     </g>
     <g id="text_17">
      <!-- 2.75 -->
      <g style="fill: #262626" transform="translate(20.492188 38.762024) scale(0.1 -0.1)">
       <use xlink:href="#ArialMT-32"/>
       <use xlink:href="#ArialMT-2e" transform="translate(55.615234 0)"/>
       <use xlink:href="#ArialMT-37" transform="translate(83.398438 0)"/>
       <use xlink:href="#ArialMT-35" transform="translate(139.013672 0)"/>
      </g>
     </g>
    </g>
    <g id="text_18">
     <!-- Mean pkg_j per 1s Bin -->
     <g style="fill: #262626" transform="translate(14.3875 181.837031) rotate(-90) scale(0.1 -0.1)">
      <defs>
       <path id="ArialMT-4d" d="M 475 0 
L 475 4581 
L 1388 4581 
L 2472 1338 
Q 2622 884 2691 659 
Q 2769 909 2934 1394 
L 4031 4581 
L 4847 4581 
L 4847 0 
L 4263 0 
L 4263 3834 
L 2931 0 
L 2384 0 
L 1059 3900 
L 1059 0 
L 475 0 
z
" transform="scale(0.015625)"/>
       <path id="ArialMT-6e" d="M 422 0 
L 422 3319 
L 928 3319 
L 928 2847 
Q 1294 3394 1984 3394 
Q 2284 3394 2536 3286 
Q 2788 3178 2913 3003 
Q 3038 2828 3088 2588 
Q 3119 2431 3119 2041 
L 3119 0 
L 2556 0 
L 2556 2019 
Q 2556 2363 2490 2533 
Q 2425 2703 2258 2804 
Q 2091 2906 1866 2906 
Q 1506 2906 1245 2678 
Q 984 2450 984 1813 
L 984 0 
L 422 0 
z
" transform="scale(0.015625)"/>
       <path id="ArialMT-6b" d="M 425 0 
L 425 4581 
L 988 4581 
L 988 1969 
L 2319 3319 
L 3047 3319 
L 1778 2088 
L 3175 0 
L 2481 0 
L 1384 1697 
L 988 1316 
L 988 0 
L 425 0 
z
" transform="scale(0.015625)"/>
       <path id="ArialMT-67" d="M 319 -275 
L 866 -356 
Q 900 -609 1056 -725 
Q 1266 -881 1628 -881 
Q 2019 -881 2231 -725 
Q 2444 -569 2519 -288 
Q 2563 -116 2559 434 
Q 2191 0 1641 0 
Q 956 0 581 494 
Q 206 988 206 1678 
Q 206 2153 378 2554 
Q 550 2956 876 3175 
Q 1203 3394 1644 3394 
Q 2231 3394 2613 2919 
L 2613 3319 
L 3131 3319 
L 3131 450 
Q 3131 -325 2973 -648 
Q 2816 -972 2473 -1159 
Q 2131 -1347 1631 -1347 
Q 1038 -1347 672 -1080 
Q 306 -813 319 -275 
z
M 784 1719 
Q 784 1066 1043 766 
Q 1303 466 1694 466 
Q 2081 466 2343 764 
Q 2606 1063 2606 1700 
Q 2606 2309 2336 2618 
Q 2066 2928 1684 2928 
Q 1309 2928 1046 2623 
Q 784 2319 784 1719 
z
" transform="scale(0.015625)"/>
       <path id="ArialMT-5f" d="M -97 -1272 
L -97 -866 
L 3631 -866 
L 3631 -1272 
L -97 -1272 
z
" transform="scale(0.015625)"/>
       <path id="ArialMT-6a" d="M 419 3928 
L 419 4581 
L 981 4581 
L 981 3928 
L 419 3928 
z
M -294 -1288 
L -188 -809 
Q -19 -853 78 -853 
Q 250 -853 334 -739 
Q 419 -625 419 -169 
L 419 3319 
L 981 3319 
L 981 -181 
Q 981 -794 822 -1034 
Q 619 -1347 147 -1347 
Q -81 -1347 -294 -1288 
z
" transform="scale(0.015625)"/>
       <path id="ArialMT-72" d="M 416 0 
L 416 3319 
L 922 3319 
L 922 2816 
Q 1116 3169 1280 3281 
Q 1444 3394 1641 3394 
Q 1925 3394 2219 3213 
L 2025 2691 
Q 1819 2813 1613 2813 
Q 1428 2813 1281 2702 
Q 1134 2591 1072 2394 
Q 978 2094 978 1738 
L 978 0 
L 416 0 
z
" transform="scale(0.015625)"/>
       <path id="ArialMT-42" d="M 469 0 
L 469 4581 
L 2188 4581 
Q 2713 4581 3030 4442 
Q 3347 4303 3526 4014 
Q 3706 3725 3706 3409 
Q 3706 3116 3547 2856 
Q 3388 2597 3066 2438 
Q 3481 2316 3704 2022 
Q 3928 1728 3928 1328 
Q 3928 1006 3792 729 
Q 3656 453 3456 303 
Q 3256 153 2954 76 
Q 2653 0 2216 0 
L 469 0 
z
M 1075 2656 
L 2066 2656 
Q 2469 2656 2644 2709 
Q 2875 2778 2992 2937 
Q 3109 3097 3109 3338 
Q 3109 3566 3000 3739 
Q 2891 3913 2687 3977 
Q 2484 4041 1991 4041 
L 1075 4041 
L 1075 2656 
z
M 1075 541 
L 2216 541 
Q 2509 541 2628 563 
Q 2838 600 2978 687 
Q 3119 775 3209 942 
Q 3300 1109 3300 1328 
Q 3300 1584 3169 1773 
Q 3038 1963 2805 2039 
Q 2572 2116 2134 2116 
L 1075 2116 
L 1075 541 
z
" transform="scale(0.015625)"/>
      </defs>
      <use xlink:href="#ArialMT-4d"/>
      <use xlink:href="#ArialMT-65" transform="translate(83.300781 0)"/>
      <use xlink:href="#ArialMT-61" transform="translate(138.916016 0)"/>
      <use xlink:href="#ArialMT-6e" transform="translate(194.53125 0)"/>
      <use xlink:href="#ArialMT-20" transform="translate(250.146484 0)"/>
      <use xlink:href="#ArialMT-70" transform="translate(277.929688 0)"/>
      <use xlink:href="#ArialMT-6b" transform="translate(333.544922 0)"/>
      <use xlink:href="#ArialMT-67" transform="translate(383.544922 0)"/>
      <use xlink:href="#ArialMT-5f" transform="translate(439.160156 0)"/>
      <use xlink:href="#ArialMT-6a" transform="translate(494.775391 0)"/>
      <use xlink:href="#ArialMT-20" transform="translate(516.992188 0)"/>
      <use xlink:href="#ArialMT-70" transform="translate(544.775391 0)"/>
      <use xlink:href="#ArialMT-65" transform="translate(600.390625 0)"/>
      <use xlink:href="#ArialMT-72" transform="translate(656.005859 0)"/>
      <use xlink:href="#ArialMT-20" transform="translate(689.306641 0)"/>
      <use xlink:href="#ArialMT-31" transform="translate(717.089844 0)"/>
      <use xlink:href="#ArialMT-73" transform="translate(772.705078 0)"/>
      <use xlink:href="#ArialMT-20" transform="translate(822.705078 0)"/>
      <use xlink:href="#ArialMT-42" transform="translate(850.488281 0)"/>
      <use xlink:href="#ArialMT-69" transform="translate(917.1875 0)"/>
      <use xlink:href="#ArialMT-6e" transform="translate(939.404297 0)"/>
     </g>
    </g>
   </g>
   <g id="line2d_17">
    <path d="M 46.953125 63.317193 
L 49.325294 61.273264 
L 51.697463 58.62818 
L 54.069632 46.605072 
L 56.441801 55.742634 
L 58.81397 55.622403 
L 61.186139 55.141479 
L 63.558308 42.877908 
L 65.930477 52.135702 
L 68.302646 51.414315 
L 70.674815 48.769231 
L 73.046984 41.314904 
L 75.419153 49.129924 
L 77.791322 49.009693 
L 80.163491 41.435135 
L 82.53566 35.303349 
L 84.907829 46.965765 
L 87.279998 45.162298 
L 89.652167 38.188895 
L 92.024336 45.042067 
L 94.396505 54.420092 
L 96.768674 41.074441 
L 99.140843 53.578475 
L 101.513012 53.09755 
L 103.885181 63.196962 
L 106.25735 38.66982 
L 108.629519 36.866353 
L 111.001688 51.534546 
L 113.373857 70.584494 
L 115.746026 45.28253 
L 118.118195 49.129924 
L 120.490364 54.901017 
L 122.862533 43.839757 
L 125.234702 55.26171 
L 127.606871 54.540323 
L 129.97904 50.332235 
L 132.351209 58.62818 
L 134.723378 61.513726 
L 137.095547 59.950722 
L 139.467716 58.027025 
L 141.839885 66.683663 
L 144.212054 67.525281 
L 146.584223 70.531058 
L 148.956392 105.638536 
L 151.328561 99.266288 
L 153.70073 102.632758 
L 156.072899 108.524082 
L 158.445068 93.855889 
L 160.817237 104.676687 
L 163.189406 99.266288 
L 165.561574 102.151834 
L 167.933743 108.884775 
L 170.305912 93.014271 
L 172.678081 104.436225 
L 175.05025 98.544901 
L 177.422419 102.031603 
L 179.794588 109.005006 
L 182.166757 92.292885 
L 184.538926 104.917149 
L 186.911095 122.71135 
" clip-path="url(#pa0f732a139)" style="fill: none; stroke: #1f77b4; stroke-width: 2; stroke-linecap: round"/>
   </g>
   <g id="line2d_18">
    <path d="M 46.953125 64.279041 
L 49.325294 45.042067 
L 51.697463 55.26171 
L 54.069632 39.391206 
L 56.441801 40.232824 
L 58.81397 31.936879 
L 61.186139 38.068664 
L 63.558308 49.009693 
L 65.930477 35.664043 
L 68.302646 36.866353 
L 70.674815 50.452466 
L 73.046984 36.866353 
L 75.419153 61.754189 
L 77.791322 53.338012 
L 80.163491 58.147256 
L 82.53566 59.109105 
L 84.907829 31.816648 
L 87.279998 38.429358 
L 89.652167 70.183724 
L 92.024336 65.962277 
L 94.396505 65.24089 
L 96.768674 78.586541 
L 99.140843 90.128725 
L 101.513012 78.586541 
L 103.885181 83.035091 
L 106.25735 82.674398 
L 108.629519 87.36341 
L 111.001688 83.756478 
L 113.373857 84.477864 
L 115.746026 85.920637 
L 118.118195 91.331036 
L 120.490364 83.99694 
L 122.862533 85.199251 
L 125.234702 76.596048 
L 127.606871 82.193474 
L 129.97904 88.325259 
L 132.351209 91.451267 
L 134.723378 90.60965 
L 137.095547 90.008494 
L 139.467716 67.645512 
L 141.839885 58.868642 
L 144.212054 64.038579 
L 146.584223 72.695218 
L 148.956392 130.646602 
" clip-path="url(#pa0f732a139)" style="fill: none; stroke: #ff7f0e; stroke-width: 2; stroke-linecap: round"/>
   </g>
   <g id="patch_3">
    <path d="M 46.953125 242.389375 
L 46.953125 21.789375 
" style="fill: none; stroke: #cccccc; stroke-width: 0.8; stroke-linejoin: miter; stroke-linecap: square"/>
   </g>
   <g id="patch_4">
    <path d="M 428.872332 242.389375 
L 428.872332 21.789375 
" style="fill: none; stroke: #cccccc; stroke-width: 0.8; stroke-linejoin: miter; stroke-linecap: square"/>
   </g>
   <g id="patch_5">
    <path d="M 46.953125 242.389375 
L 428.872332 242.389375 
" style="fill: none; stroke: #cccccc; stroke-width: 0.8; stroke-linejoin: miter; stroke-linecap: square"/>
   </g>
   <g id="patch_6">
    <path d="M 46.953125 21.789375 
L 428.872332 21.789375 
" style="fill: none; stroke: #cccccc; stroke-width: 0.8; stroke-linejoin: miter; stroke-linecap: square"/>
   </g>
   <g id="text_19">
    <!-- APX1145 — PC2 all cores -->
    <g style="fill: #262626" transform="translate(167.989291 15.789375) scale(0.12 -0.12)">
     <defs>
      <path id="ArialMT-41" d="M -9 0 
L 1750 4581 
L 2403 4581 
L 4278 0 
L 3588 0 
L 3053 1388 
L 1138 1388 
L 634 0 
L -9 0 
z
M 1313 1881 
L 2866 1881 
L 2388 3150 
Q 2169 3728 2063 4100 
Q 1975 3659 1816 3225 
L 1313 1881 
z
" transform="scale(0.015625)"/>
      <path id="ArialMT-50" d="M 494 0 
L 494 4581 
L 2222 4581 
Q 2678 4581 2919 4538 
Q 3256 4481 3484 4323 
Q 3713 4166 3852 3881 
Q 3991 3597 3991 3256 
Q 3991 2672 3619 2267 
Q 3247 1863 2275 1863 
L 1100 1863 
L 1100 0 
L 494 0 
z
M 1100 2403 
L 2284 2403 
Q 2872 2403 3119 2622 
Q 3366 2841 3366 3238 
Q 3366 3525 3220 3729 
Q 3075 3934 2838 4000 
Q 2684 4041 2272 4041 
L 1100 4041 
L 1100 2403 
z
" transform="scale(0.015625)"/>
      <path id="ArialMT-58" d="M 28 0 
L 1800 2388 
L 238 4581 
L 959 4581 
L 1791 3406 
Q 2050 3041 2159 2844 
Q 2313 3094 2522 3366 
L 3444 4581 
L 4103 4581 
L 2494 2422 
L 4228 0 
L 3478 0 
L 2325 1634 
Q 2228 1775 2125 1941 
Q 1972 1691 1906 1597 
L 756 0 
L 28 0 
z
" transform="scale(0.015625)"/>
      <path id="ArialMT-2014" d="M 0 1431 
L 0 1884 
L 6400 1884 
L 6400 1431 
L 0 1431 
z
" transform="scale(0.015625)"/>
      <path id="ArialMT-43" d="M 3763 1606 
L 4369 1453 
Q 4178 706 3683 314 
Q 3188 -78 2472 -78 
Q 1731 -78 1267 223 
Q 803 525 561 1097 
Q 319 1669 319 2325 
Q 319 3041 592 3573 
Q 866 4106 1370 4382 
Q 1875 4659 2481 4659 
Q 3169 4659 3637 4309 
Q 4106 3959 4291 3325 
L 3694 3184 
Q 3534 3684 3231 3912 
Q 2928 4141 2469 4141 
Q 1941 4141 1586 3887 
Q 1231 3634 1087 3207 
Q 944 2781 944 2328 
Q 944 1744 1114 1308 
Q 1284 872 1643 656 
Q 2003 441 2422 441 
Q 2931 441 3284 734 
Q 3638 1028 3763 1606 
z
" transform="scale(0.015625)"/>
      <path id="ArialMT-6f" d="M 213 1659 
Q 213 2581 725 3025 
Q 1153 3394 1769 3394 
Q 2453 3394 2887 2945 
Q 3322 2497 3322 1706 
Q 3322 1066 3130 698 
Q 2938 331 2570 128 
Q 2203 -75 1769 -75 
Q 1072 -75 642 372 
Q 213 819 213 1659 
z
M 791 1659 
Q 791 1022 1069 705 
Q 1347 388 1769 388 
Q 2188 388 2466 706 
Q 2744 1025 2744 1678 
Q 2744 2294 2464 2611 
Q 2184 2928 1769 2928 
Q 1347 2928 1069 2612 
Q 791 2297 791 1659 
z
" transform="scale(0.015625)"/>
     </defs>
     <use xlink:href="#ArialMT-41"/>
     <use xlink:href="#ArialMT-50" transform="translate(66.699219 0)"/>
     <use xlink:href="#ArialMT-58" transform="translate(133.398438 0)"/>
     <use xlink:href="#ArialMT-31" transform="translate(200.097656 0)"/>
     <use xlink:href="#ArialMT-31" transform="translate(248.337891 0)"/>
     <use xlink:href="#ArialMT-34" transform="translate(303.953125 0)"/>
     <use xlink:href="#ArialMT-35" transform="translate(359.568359 0)"/>
     <use xlink:href="#ArialMT-20" transform="translate(415.183594 0)"/>
     <use xlink:href="#ArialMT-2014" transform="translate(442.966797 0)"/>
     <use xlink:href="#ArialMT-20" transform="translate(542.966797 0)"/>
     <use xlink:href="#ArialMT-50" transform="translate(570.75 0)"/>
     <use xlink:href="#ArialMT-43" transform="translate(637.449219 0)"/>
     <use xlink:href="#ArialMT-32" transform="translate(709.666016 0)"/>
     <use xlink:href="#ArialMT-20" transform="translate(765.28125 0)"/>
     <use xlink:href="#ArialMT-61" transform="translate(793.064453 0)"/>
     <use xlink:href="#ArialMT-6c" transform="translate(848.679688 0)"/>
     <use xlink:href="#ArialMT-6c" transform="translate(870.896484 0)"/>
     <use xlink:href="#ArialMT-20" transform="translate(893.113281 0)"/>
     <use xlink:href="#ArialMT-63" transform="translate(920.896484 0)"/>
     <use xlink:href="#ArialMT-6f" transform="translate(970.896484 0)"/>
     <use xlink:href="#ArialMT-72" transform="translate(1026.511719 0)"/>
     <use xlink:href="#ArialMT-65" transform="translate(1059.8125 0)"/>
     <use xlink:href="#ArialMT-73" transform="translate(1115.427734 0)"/>
    </g>
   </g>
   <g id="legend_1">
    <g id="patch_7">
     <path d="M 358.18952 58.314375 
L 421.872332 58.314375 
Q 423.872332 58.314375 423.872332 56.314375 
L 423.872332 28.789375 
Q 423.872332 26.789375 421.872332 26.789375 
L 358.18952 26.789375 
Q 356.18952 26.789375 356.18952 28.789375 
L 356.18952 56.314375 
Q 356.18952 58.314375 358.18952 58.314375 
z
" style="fill: #ffffff; opacity: 0.8; stroke: #cccccc; stroke-linejoin: miter"/>
    </g>
    <g id="line2d_19">
     <path d="M 360.18952 34.447188 
L 370.18952 34.447188 
L 380.18952 34.447188 
" style="fill: none; stroke: #1f77b4; stroke-width: 2; stroke-linecap: round"/>
    </g>
    <g id="text_20">
     <!-- queryA -->
     <g style="fill: #262626" transform="translate(388.18952 37.947188) scale(0.1 -0.1)">
      <defs>
       <path id="ArialMT-71" d="M 2538 -1272 
L 2538 353 
Q 2406 169 2170 47 
Q 1934 -75 1669 -75 
Q 1078 -75 651 397 
Q 225 869 225 1691 
Q 225 2191 398 2587 
Q 572 2984 901 3189 
Q 1231 3394 1625 3394 
Q 2241 3394 2594 2875 
L 2594 3319 
L 3100 3319 
L 3100 -1272 
L 2538 -1272 
z
M 803 1669 
Q 803 1028 1072 708 
Q 1341 388 1716 388 
Q 2075 388 2334 692 
Q 2594 997 2594 1619 
Q 2594 2281 2320 2615 
Q 2047 2950 1678 2950 
Q 1313 2950 1058 2639 
Q 803 2328 803 1669 
z
" transform="scale(0.015625)"/>
       <path id="ArialMT-75" d="M 2597 0 
L 2597 488 
Q 2209 -75 1544 -75 
Q 1250 -75 995 37 
Q 741 150 617 320 
Q 494 491 444 738 
Q 409 903 409 1263 
L 409 3319 
L 972 3319 
L 972 1478 
Q 972 1038 1006 884 
Q 1059 663 1231 536 
Q 1403 409 1656 409 
Q 1909 409 2131 539 
Q 2353 669 2445 892 
Q 2538 1116 2538 1541 
L 2538 3319 
L 3100 3319 
L 3100 0 
L 2597 0 
z
" transform="scale(0.015625)"/>
       <path id="ArialMT-79" d="M 397 -1278 
L 334 -750 
Q 519 -800 656 -800 
Q 844 -800 956 -737 
Q 1069 -675 1141 -563 
Q 1194 -478 1313 -144 
Q 1328 -97 1363 -6 
L 103 3319 
L 709 3319 
L 1400 1397 
Q 1534 1031 1641 628 
Q 1738 1016 1872 1384 
L 2581 3319 
L 3144 3319 
L 1881 -56 
Q 1678 -603 1566 -809 
Q 1416 -1088 1222 -1217 
Q 1028 -1347 759 -1347 
Q 597 -1347 397 -1278 
z
" transform="scale(0.015625)"/>
      </defs>
      <use xlink:href="#ArialMT-71"/>
      <use xlink:href="#ArialMT-75" transform="translate(55.615234 0)"/>
      <use xlink:href="#ArialMT-65" transform="translate(111.230469 0)"/>
      <use xlink:href="#ArialMT-72" transform="translate(166.845703 0)"/>
      <use xlink:href="#ArialMT-79" transform="translate(200.146484 0)"/>
      <use xlink:href="#ArialMT-41" transform="translate(250.146484 0)"/>
     </g>
    </g>
    <g id="line2d_20">
     <path d="M 360.18952 48.709688 
L 370.18952 48.709688 
L 380.18952 48.709688 
" style="fill: none; stroke: #ff7f0e; stroke-width: 2; stroke-linecap: round"/>
    </g>
    <g id="text_21">
     <!-- queryB -->
     <g style="fill: #262626" transform="translate(388.18952 52.209688) scale(0.1 -0.1)">
      <use xlink:href="#ArialMT-71"/>
      <use xlink:href="#ArialMT-75" transform="translate(55.615234 0)"/>
      <use xlink:href="#ArialMT-65" transform="translate(111.230469 0)"/>
      <use xlink:href="#ArialMT-72" transform="translate(166.845703 0)"/>
      <use xlink:href="#ArialMT-79" transform="translate(200.146484 0)"/>
      <use xlink:href="#ArialMT-42" transform="translate(250.146484 0)"/>
     </g>
    </g>
   </g>
  </g>
  <g id="axes_2">
   <g id="patch_8">
    <path d="M 460.288125 242.389375 
L 842.207332 242.389375 
L 842.207332 21.789375 
L 460.288125 21.789375 
z
" style="fill: #ffffff"/>
   </g>
   <g id="matplotlib.axis_3">
    <g id="xtick_10">
     <g id="line2d_21">
      <path d="M 460.288125 242.389375 
L 460.288125 21.789375 
" clip-path="url(#p40e456444b)" style="fill: none; stroke: #cccccc; stroke-opacity: 0.3; stroke-width: 0.8; stroke-linecap: round"/>
     </g>
     <g id="text_22">
      <!-- 0 -->
      <g style="fill: #262626" transform="translate(457.507656 256.547188) scale(0.1 -0.1)">
       <use xlink:href="#ArialMT-30"/>
      </g>
     </g>
    </g>
    <g id="xtick_11">
     <g id="line2d_22">
      <path d="M 507.731505 242.389375 
L 507.731505 21.789375 
" clip-path="url(#p40e456444b)" style="fill: none; stroke: #cccccc; stroke-opacity: 0.3; stroke-width: 0.8; stroke-linecap: round"/>
     </g>
     <g id="text_23">
      <!-- 20 -->
      <g style="fill: #262626" transform="translate(502.170567 256.547188) scale(0.1 -0.1)">
       <use xlink:href="#ArialMT-32"/>
       <use xlink:href="#ArialMT-30" transform="translate(55.615234 0)"/>
      </g>
     </g>
    </g>
    <g id="xtick_12">
     <g id="line2d_23">
      <path d="M 555.174885 242.389375 
L 555.174885 21.789375 
" clip-path="url(#p40e456444b)" style="fill: none; stroke: #cccccc; stroke-opacity: 0.3; stroke-width: 0.8; stroke-linecap: round"/>
     </g>
     <g id="text_24">
      <!-- 40 -->
      <g style="fill: #262626" transform="translate(549.613947 256.547188) scale(0.1 -0.1)">
       <use xlink:href="#ArialMT-34"/>
       <use xlink:href="#ArialMT-30" transform="translate(55.615234 0)"/>
      </g>
     </g>
    </g>
    <g id="xtick_13">
     <g id="line2d_24">
      <path d="M 602.618264 242.389375 
L 602.618264 21.789375 
" clip-path="url(#p40e456444b)" style="fill: none; stroke: #cccccc; stroke-opacity: 0.3; stroke-width: 0.8; stroke-linecap: round"/>
     </g>
     <g id="text_25">
      <!-- 60 -->
      <g style="fill: #262626" transform="translate(597.057327 256.547188) scale(0.1 -0.1)">
       <use xlink:href="#ArialMT-36"/>
       <use xlink:href="#ArialMT-30" transform="translate(55.615234 0)"/>
      </g>
     </g>
    </g>
    <g id="xtick_14">
     <g id="line2d_25">
      <path d="M 650.061644 242.389375 
L 650.061644 21.789375 
" clip-path="url(#p40e456444b)" style="fill: none; stroke: #cccccc; stroke-opacity: 0.3; stroke-width: 0.8; stroke-linecap: round"/>
     </g>
     <g id="text_26">
      <!-- 80 -->
      <g style="fill: #262626" transform="translate(644.500707 256.547188) scale(0.1 -0.1)">
       <use xlink:href="#ArialMT-38"/>
       <use xlink:href="#ArialMT-30" transform="translate(55.615234 0)"/>
      </g>
     </g>
    </g>
    <g id="xtick_15">
     <g id="line2d_26">
      <path d="M 697.505024 242.389375 
L 697.505024 21.789375 
" clip-path="url(#p40e456444b)" style="fill: none; stroke: #cccccc; stroke-opacity: 0.3; stroke-width: 0.8; stroke-linecap: round"/>
     </g>
     <g id="text_27">
      <!-- 100 -->
      <g style="fill: #262626" transform="translate(689.163618 256.547188) scale(0.1 -0.1)">
       <use xlink:href="#ArialMT-31"/>
       <use xlink:href="#ArialMT-30" transform="translate(55.615234 0)"/>
       <use xlink:href="#ArialMT-30" transform="translate(111.230469 0)"/>
      </g>
     </g>
    </g>
    <g id="xtick_16">
     <g id="line2d_27">
      <path d="M 744.948404 242.389375 
L 744.948404 21.789375 
" clip-path="url(#p40e456444b)" style="fill: none; stroke: #cccccc; stroke-opacity: 0.3; stroke-width: 0.8; stroke-linecap: round"/>
     </g>
     <g id="text_28">
      <!-- 120 -->
      <g style="fill: #262626" transform="translate(736.606998 256.547188) scale(0.1 -0.1)">
       <use xlink:href="#ArialMT-31"/>
       <use xlink:href="#ArialMT-32" transform="translate(55.615234 0)"/>
       <use xlink:href="#ArialMT-30" transform="translate(111.230469 0)"/>
      </g>
     </g>
    </g>
    <g id="xtick_17">
     <g id="line2d_28">
      <path d="M 792.391784 242.389375 
L 792.391784 21.789375 
" clip-path="url(#p40e456444b)" style="fill: none; stroke: #cccccc; stroke-opacity: 0.3; stroke-width: 0.8; stroke-linecap: round"/>
     </g>
     <g id="text_29">
      <!-- 140 -->
      <g style="fill: #262626" transform="translate(784.050377 256.547188) scale(0.1 -0.1)">
       <use xlink:href="#ArialMT-31"/>
       <use xlink:href="#ArialMT-34" transform="translate(55.615234 0)"/>
       <use xlink:href="#ArialMT-30" transform="translate(111.230469 0)"/>
      </g>
     </g>
    </g>
    <g id="xtick_18">
     <g id="line2d_29">
      <path d="M 839.835163 242.389375 
L 839.835163 21.789375 
" clip-path="url(#p40e456444b)" style="fill: none; stroke: #cccccc; stroke-opacity: 0.3; stroke-width: 0.8; stroke-linecap: round"/>
     </g>
     <g id="text_30">
      <!-- 160 -->
      <g style="fill: #262626" transform="translate(831.493757 256.547188) scale(0.1 -0.1)">
       <use xlink:href="#ArialMT-31"/>
       <use xlink:href="#ArialMT-36" transform="translate(55.615234 0)"/>
       <use xlink:href="#ArialMT-30" transform="translate(111.230469 0)"/>
      </g>
     </g>
    </g>
    <g id="text_31">
     <!-- Elapsed Time (sec) -->
     <g style="fill: #262626" transform="translate(608.456322 269.814375) scale(0.1 -0.1)">
      <use xlink:href="#ArialMT-45"/>
      <use xlink:href="#ArialMT-6c" transform="translate(66.699219 0)"/>
      <use xlink:href="#ArialMT-61" transform="translate(88.916016 0)"/>
      <use xlink:href="#ArialMT-70" transform="translate(144.53125 0)"/>
      <use xlink:href="#ArialMT-73" transform="translate(200.146484 0)"/>
      <use xlink:href="#ArialMT-65" transform="translate(250.146484 0)"/>
      <use xlink:href="#ArialMT-64" transform="translate(305.761719 0)"/>
      <use xlink:href="#ArialMT-20" transform="translate(361.376953 0)"/>
      <use xlink:href="#ArialMT-54" transform="translate(387.410156 0)"/>
      <use xlink:href="#ArialMT-69" transform="translate(444.744141 0)"/>
      <use xlink:href="#ArialMT-6d" transform="translate(466.960938 0)"/>
      <use xlink:href="#ArialMT-65" transform="translate(550.261719 0)"/>
      <use xlink:href="#ArialMT-20" transform="translate(605.876953 0)"/>
      <use xlink:href="#ArialMT-28" transform="translate(633.660156 0)"/>
      <use xlink:href="#ArialMT-73" transform="translate(666.960938 0)"/>
      <use xlink:href="#ArialMT-65" transform="translate(716.960938 0)"/>
      <use xlink:href="#ArialMT-63" transform="translate(772.576172 0)"/>
      <use xlink:href="#ArialMT-29" transform="translate(822.576172 0)"/>
     </g>
    </g>
   </g>
   <g id="matplotlib.axis_4">
    <g id="ytick_8">
     <g id="line2d_30">
      <path d="M 460.288125 215.52975 
L 842.207332 215.52975 
" clip-path="url(#p40e456444b)" style="fill: none; stroke: #cccccc; stroke-opacity: 0.3; stroke-width: 0.8; stroke-linecap: round"/>
     </g>
    </g>
    <g id="ytick_9">
     <g id="line2d_31">
      <path d="M 460.288125 185.471978 
L 842.207332 185.471978 
" clip-path="url(#p40e456444b)" style="fill: none; stroke: #cccccc; stroke-opacity: 0.3; stroke-width: 0.8; stroke-linecap: round"/>
     </g>
    </g>
    <g id="ytick_10">
     <g id="line2d_32">
      <path d="M 460.288125 155.414206 
L 842.207332 155.414206 
" clip-path="url(#p40e456444b)" style="fill: none; stroke: #cccccc; stroke-opacity: 0.3; stroke-width: 0.8; stroke-linecap: round"/>
     </g>
    </g>
    <g id="ytick_11">
     <g id="line2d_33">
      <path d="M 460.288125 125.356434 
L 842.207332 125.356434 
" clip-path="url(#p40e456444b)" style="fill: none; stroke: #cccccc; stroke-opacity: 0.3; stroke-width: 0.8; stroke-linecap: round"/>
     </g>
    </g>
    <g id="ytick_12">
     <g id="line2d_34">
      <path d="M 460.288125 95.298662 
L 842.207332 95.298662 
" clip-path="url(#p40e456444b)" style="fill: none; stroke: #cccccc; stroke-opacity: 0.3; stroke-width: 0.8; stroke-linecap: round"/>
     </g>
    </g>
    <g id="ytick_13">
     <g id="line2d_35">
      <path d="M 460.288125 65.24089 
L 842.207332 65.24089 
" clip-path="url(#p40e456444b)" style="fill: none; stroke: #cccccc; stroke-opacity: 0.3; stroke-width: 0.8; stroke-linecap: round"/>
     </g>
    </g>
    <g id="ytick_14">
     <g id="line2d_36">
      <path d="M 460.288125 35.183118 
L 842.207332 35.183118 
" clip-path="url(#p40e456444b)" style="fill: none; stroke: #cccccc; stroke-opacity: 0.3; stroke-width: 0.8; stroke-linecap: round"/>
     </g>
    </g>
    <g id="text_32">
     <!-- Mean pkg_j per 1s Bin -->
     <g style="fill: #262626" transform="translate(454.183437 181.837031) rotate(-90) scale(0.1 -0.1)">
      <use xlink:href="#ArialMT-4d"/>
      <use xlink:href="#ArialMT-65" transform="translate(83.300781 0)"/>
      <use xlink:href="#ArialMT-61" transform="translate(138.916016 0)"/>
      <use xlink:href="#ArialMT-6e" transform="translate(194.53125 0)"/>
      <use xlink:href="#ArialMT-20" transform="translate(250.146484 0)"/>
      <use xlink:href="#ArialMT-70" transform="translate(277.929688 0)"/>
      <use xlink:href="#ArialMT-6b" transform="translate(333.544922 0)"/>
      <use xlink:href="#ArialMT-67" transform="translate(383.544922 0)"/>
      <use xlink:href="#ArialMT-5f" transform="translate(439.160156 0)"/>
      <use xlink:href="#ArialMT-6a" transform="translate(494.775391 0)"/>
      <use xlink:href="#ArialMT-20" transform="translate(516.992188 0)"/>
      <use xlink:href="#ArialMT-70" transform="translate(544.775391 0)"/>
      <use xlink:href="#ArialMT-65" transform="translate(600.390625 0)"/>
      <use xlink:href="#ArialMT-72" transform="translate(656.005859 0)"/>
      <use xlink:href="#ArialMT-20" transform="translate(689.306641 0)"/>
      <use xlink:href="#ArialMT-31" transform="translate(717.089844 0)"/>
      <use xlink:href="#ArialMT-73" transform="translate(772.705078 0)"/>
      <use xlink:href="#ArialMT-20" transform="translate(822.705078 0)"/>
      <use xlink:href="#ArialMT-42" transform="translate(850.488281 0)"/>
      <use xlink:href="#ArialMT-69" transform="translate(917.1875 0)"/>
      <use xlink:href="#ArialMT-6e" transform="translate(939.404297 0)"/>
     </g>
    </g>
   </g>
   <g id="line2d_37">
    <path d="M 460.288125 223.945926 
L 462.660294 225.028006 
L 465.032463 223.22454 
L 467.404632 224.306619 
L 469.776801 223.825695 
L 472.14897 215.169057 
L 474.521139 221.661535 
L 476.893308 221.541304 
L 479.265477 222.262691 
L 481.637646 222.623384 
L 484.009815 216.1977 
L 486.381984 221.781767 
L 488.754153 221.180611 
L 491.126322 221.180611 
L 493.498491 222.14246 
L 495.87066 214.928595 
L 498.242829 220.579456 
L 500.614998 220.940149 
L 502.987167 219.617607 
L 505.359336 221.541304 
L 507.731505 220.098531 
L 510.103674 220.098531 
L 512.475843 221.541304 
L 514.848012 221.06038 
L 517.220181 219.671043 
L 519.59235 219.9783 
L 521.964519 220.940149 
L 524.336688 220.579456 
L 526.708857 220.579456 
L 529.081026 221.180611 
L 531.453195 219.497376 
L 533.825364 219.737838 
L 538.569702 222.022229 
L 540.941871 220.459225 
L 543.31404 220.218762 
L 545.686209 220.819918 
L 548.058378 220.579456 
L 550.430547 221.421073 
L 552.802716 220.218762 
L 555.174885 221.06038 
L 557.547054 220.579456 
L 559.919223 220.459225 
L 562.291392 221.300842 
L 564.663561 220.218762 
L 567.03573 220.459225 
L 569.407899 220.218762 
L 571.780068 219.737838 
L 574.152237 221.06038 
L 576.524406 220.739764 
L 578.896574 219.256914 
L 581.268743 220.218762 
L 583.640912 220.218762 
L 586.013081 220.579456 
L 588.38525 221.06038 
L 590.757419 220.218762 
L 593.129588 219.136683 
L 595.501757 220.579456 
L 597.873926 221.06038 
L 600.246095 220.579456 
L 602.618264 218.535527 
L 607.362602 221.06038 
L 609.734771 219.136683 
L 612.10694 221.06038 
L 614.479109 219.497376 
L 616.851278 219.377145 
L 619.223447 220.940149 
L 621.595616 219.9783 
L 623.967785 219.497376 
L 626.339954 220.338993 
L 628.712123 217.934372 
L 631.084292 219.737838 
L 633.456461 219.9783 
L 635.82863 219.016452 
L 638.200799 220.459225 
L 640.572968 217.69391 
L 642.945137 219.136683 
L 645.317306 218.89622 
L 647.689475 219.377145 
L 650.061644 219.497376 
L 652.433813 218.775989 
L 654.805982 218.655758 
L 657.178151 220.098531 
L 659.55032 218.295065 
L 661.922489 220.819918 
L 664.294658 219.016452 
L 666.666827 219.256914 
L 669.038996 222.262691 
L 671.411165 217.934372 
L 673.783334 219.737838 
L 676.155503 220.338993 
L 678.527672 218.535527 
L 680.899841 220.699687 
L 683.27201 219.617607 
L 685.644179 219.016452 
L 688.016348 219.617607 
L 690.388517 218.415296 
L 692.760686 219.617607 
L 695.132855 220.579456 
L 697.505024 217.934372 
L 699.877193 214.193849 
L 702.249362 218.535527 
L 704.621531 219.377145 
L 706.9937 219.617607 
L 709.365869 219.497376 
L 711.738038 218.535527 
L 714.110207 217.333216 
L 718.854545 220.459225 
L 721.226714 219.256914 
L 723.598883 219.737838 
L 725.971052 219.737838 
L 728.343221 218.295065 
L 730.71539 221.421073 
L 733.087559 219.737838 
L 735.459728 214.594619 
L 737.831897 219.497376 
L 740.204066 218.415296 
L 742.576235 219.256914 
L 744.948404 219.497376 
L 747.320573 218.054603 
L 749.692742 219.377145 
L 752.064911 219.136683 
L 754.43708 219.737838 
L 756.809249 219.617607 
L 759.181418 217.934372 
L 761.553587 218.415296 
L 763.925756 218.655758 
L 766.297925 218.415296 
L 768.670094 219.617607 
L 771.042263 217.453447 
L 773.414432 219.737838 
L 775.786601 219.016452 
L 778.15877 218.174834 
L 780.530939 218.89622 
L 782.903108 219.016452 
L 785.275277 218.295065 
L 787.647446 219.497376 
L 790.019615 219.256914 
L 792.391784 218.602322 
L 794.763953 219.256914 
L 797.136122 218.775989 
L 799.508291 218.775989 
L 801.88046 219.497376 
L 804.252629 219.617607 
L 806.624798 219.9783 
L 808.996967 218.415296 
L 811.369136 219.858069 
L 813.741304 219.858069 
L 816.113473 218.89622 
L 818.485642 220.699687 
L 820.857811 219.136683 
L 823.22998 219.617607 
L 825.602149 220.699687 
L 827.974318 218.295065 
L 830.346487 220.098531 
L 832.718656 219.497376 
L 835.090825 218.295065 
L 837.462994 218.89622 
L 839.835163 219.136683 
L 842.207332 232.362102 
L 842.207332 232.362102 
" clip-path="url(#p40e456444b)" style="fill: none; stroke: #1f77b4; stroke-width: 2; stroke-linecap: round"/>
   </g>
   <g id="line2d_38">
    <path d="M 460.288125 220.579456 
L 462.660294 219.9783 
L 465.032463 219.9783 
L 467.404632 219.858069 
L 469.776801 218.174834 
L 472.14897 214.086977 
L 474.521139 218.174834 
L 476.893308 218.415296 
L 479.265477 218.655758 
L 481.637646 217.212985 
L 484.009815 212.283511 
L 486.381984 216.464881 
L 488.754153 217.934372 
L 491.126322 217.333216 
L 493.498491 218.054603 
L 495.87066 212.403742 
L 498.242829 215.770212 
L 500.614998 216.852292 
L 502.987167 217.212985 
L 505.359336 216.732061 
L 507.731505 216.251136 
L 510.103674 216.251136 
L 512.475843 216.732061 
L 514.848012 216.130905 
L 517.220181 216.732061 
L 519.59235 214.688132 
L 521.964519 216.732061 
L 524.336688 216.010674 
L 526.708857 215.52975 
L 529.081026 215.770212 
L 531.453195 215.649981 
L 533.825364 217.212985 
L 536.197533 216.491599 
L 538.569702 215.409519 
L 540.941871 215.409519 
L 543.31404 214.086977 
L 545.686209 216.852292 
L 548.058378 215.890443 
L 550.430547 214.44767 
L 552.802716 216.61183 
L 555.174885 213.726284 
L 557.547054 215.890443 
L 559.919223 216.371368 
L 562.291392 216.491599 
L 564.663561 215.52975 
L 567.03573 215.169057 
L 569.407899 216.371368 
L 571.780068 214.99539 
L 574.152237 215.048826 
L 576.524406 216.010674 
L 578.896574 214.567901 
L 581.268743 214.928595 
L 583.640912 216.130905 
L 586.013081 216.010674 
L 588.38525 216.130905 
L 590.757419 214.327439 
L 593.129588 214.207208 
L 595.501757 214.567901 
L 597.873926 215.52975 
L 600.246095 215.048826 
L 602.618264 216.251136 
L 604.990433 213.726284 
L 607.362602 216.010674 
L 609.734771 214.567901 
L 612.10694 215.409519 
L 614.479109 215.169057 
L 616.851278 213.004897 
L 619.223447 215.169057 
L 621.595616 215.79693 
L 623.967785 215.289288 
L 626.339954 215.770212 
L 628.712123 215.169057 
L 631.084292 215.52975 
L 633.456461 215.52975 
L 635.82863 215.770212 
L 638.200799 213.966746 
L 640.572968 212.403742 
L 642.945137 214.44767 
L 645.317306 214.808363 
L 647.689475 216.010674 
L 650.061644 215.770212 
L 652.433813 215.289288 
L 654.805982 215.770212 
L 657.178151 215.048826 
L 659.55032 214.928595 
L 661.922489 214.44767 
L 664.294658 214.688132 
L 666.666827 214.928595 
L 669.038996 215.52975 
L 671.411165 215.409519 
L 673.783334 215.649981 
L 676.155503 214.808363 
L 678.527672 215.52975 
L 680.899841 215.409519 
L 683.27201 212.644204 
L 685.644179 215.52975 
L 688.016348 215.169057 
L 690.388517 215.289288 
L 692.760686 216.010674 
L 695.132855 215.169057 
L 697.505024 214.207208 
L 699.877193 214.567901 
L 702.249362 215.289288 
L 704.621531 214.207208 
L 706.9937 213.846515 
L 709.365869 214.44767 
L 711.738038 215.169057 
L 714.110207 216.371368 
L 716.482376 214.928595 
L 718.854545 213.606053 
L 721.226714 215.169057 
L 723.598883 232.362102 
" clip-path="url(#p40e456444b)" style="fill: none; stroke: #ff7f0e; stroke-width: 2; stroke-linecap: round"/>
   </g>
   <g id="patch_9">
    <path d="M 460.288125 242.389375 
L 460.288125 21.789375 
" style="fill: none; stroke: #cccccc; stroke-width: 0.8; stroke-linejoin: miter; stroke-linecap: square"/>
   </g>
   <g id="patch_10">
    <path d="M 842.207332 242.389375 
L 842.207332 21.789375 
" style="fill: none; stroke: #cccccc; stroke-width: 0.8; stroke-linejoin: miter; stroke-linecap: square"/>
   </g>
   <g id="patch_11">
    <path d="M 460.288125 242.389375 
L 842.207332 242.389375 
" style="fill: none; stroke: #cccccc; stroke-width: 0.8; stroke-linejoin: miter; stroke-linecap: square"/>
   </g>
   <g id="patch_12">
    <path d="M 460.288125 21.789375 
L 842.207332 21.789375 
" style="fill: none; stroke: #cccccc; stroke-width: 0.8; stroke-linejoin: miter; stroke-linecap: square"/>
   </g>
   <g id="text_33">
    <!-- APX1145 — PC2 1 core -->
    <g style="fill: #262626" transform="translate(586.990541 15.789375) scale(0.12 -0.12)">
     <use xlink:href="#ArialMT-41"/>
     <use xlink:href="#ArialMT-50" transform="translate(66.699219 0)"/>
     <use xlink:href="#ArialMT-58" transform="translate(133.398438 0)"/>
     <use xlink:href="#ArialMT-31" transform="translate(200.097656 0)"/>
     <use xlink:href="#ArialMT-31" transform="translate(248.337891 0)"/>
     <use xlink:href="#ArialMT-34" transform="translate(303.953125 0)"/>
     <use xlink:href="#ArialMT-35" transform="translate(359.568359 0)"/>
     <use xlink:href="#ArialMT-20" transform="translate(415.183594 0)"/>
     <use xlink:href="#ArialMT-2014" transform="translate(442.966797 0)"/>
     <use xlink:href="#ArialMT-20" transform="translate(542.966797 0)"/>
     <use xlink:href="#ArialMT-50" transform="translate(570.75 0)"/>
     <use xlink:href="#ArialMT-43" transform="translate(637.449219 0)"/>
     <use xlink:href="#ArialMT-32" transform="translate(709.666016 0)"/>
     <use xlink:href="#ArialMT-20" transform="translate(765.28125 0)"/>
     <use xlink:href="#ArialMT-31" transform="translate(793.064453 0)"/>
     <use xlink:href="#ArialMT-20" transform="translate(848.679688 0)"/>
     <use xlink:href="#ArialMT-63" transform="translate(876.462891 0)"/>
     <use xlink:href="#ArialMT-6f" transform="translate(926.462891 0)"/>
     <use xlink:href="#ArialMT-72" transform="translate(982.078125 0)"/>
     <use xlink:href="#ArialMT-65" transform="translate(1015.378906 0)"/>
    </g>
   </g>
   <g id="legend_2">
    <g id="patch_13">
     <path d="M 771.52452 58.314375 
L 835.207332 58.314375 
Q 837.207332 58.314375 837.207332 56.314375 
L 837.207332 28.789375 
Q 837.207332 26.789375 835.207332 26.789375 
L 771.52452 26.789375 
Q 769.52452 26.789375 769.52452 28.789375 
L 769.52452 56.314375 
Q 769.52452 58.314375 771.52452 58.314375 
z
" style="fill: #ffffff; opacity: 0.8; stroke: #cccccc; stroke-linejoin: miter"/>
    </g>
    <g id="line2d_39">
     <path d="M 773.52452 34.447188 
L 783.52452 34.447188 
L 793.52452 34.447188 
" style="fill: none; stroke: #1f77b4; stroke-width: 2; stroke-linecap: round"/>
    </g>
    <g id="text_34">
     <!-- queryA -->
     <g style="fill: #262626" transform="translate(801.52452 37.947188) scale(0.1 -0.1)">
      <use xlink:href="#ArialMT-71"/>
      <use xlink:href="#ArialMT-75" transform="translate(55.615234 0)"/>
      <use xlink:href="#ArialMT-65" transform="translate(111.230469 0)"/>
      <use xlink:href="#ArialMT-72" transform="translate(166.845703 0)"/>
      <use xlink:href="#ArialMT-79" transform="translate(200.146484 0)"/>
      <use xlink:href="#ArialMT-41" transform="translate(250.146484 0)"/>
     </g>
    </g>
    <g id="line2d_40">
     <path d="M 773.52452 48.709688 
L 783.52452 48.709688 
L 793.52452 48.709688 
" style="fill: none; stroke: #ff7f0e; stroke-width: 2; stroke-linecap: round"/>
    </g>
    <g id="text_35">
     <!-- queryB -->
     <g style="fill: #262626" transform="translate(801.52452 52.209688) scale(0.1 -0.1)">
      <use xlink:href="#ArialMT-71"/>
      <use xlink:href="#ArialMT-75" transform="translate(55.615234 0)"/>
      <use xlink:href="#ArialMT-65" transform="translate(111.230469 0)"/>
      <use xlink:href="#ArialMT-72" transform="translate(166.845703 0)"/>
      <use xlink:href="#ArialMT-79" transform="translate(200.146484 0)"/>
      <use xlink:href="#ArialMT-42" transform="translate(250.146484 0)"/>
     </g>
    </g>
   </g>
  </g>
 </g>
 <defs>
  <clipPath id="pa0f732a139">
   <rect x="46.953125" y="21.789375" width="381.919207" height="220.6"/>
  </clipPath>
  <clipPath id="p40e456444b">
   <rect x="460.288125" y="21.789375" width="381.919207" height="220.6"/>
  </clipPath>
 </defs>
</svg>
