<?xml version="1.0" encoding="utf-8" standalone="no"?>
<!DOCTYPE svg PUBLIC "-//W3C//DTD SVG 1.1//EN"
  "http://www.w3.org/Graphics/SVG/1.1/DTD/svg11.dtd">
<svg xmlns:xlink="http://www.w3.org/1999/xlink" width="855.931875pt" height="279.119063pt" viewBox="0 0 855.931875 279.119063" xmlns="http://www.w3.org/2000/svg" version="1.1">
 <metadata>
  <rdf:RDF xmlns:dc="http://purl.org/dc/elements/1.1/" xmlns:cc="http://creativecommons.org/ns#" xmlns:rdf="http://www.w3.org/1999/02/22-rdf-syntax-ns#">
   <cc:Work>
    <dc:type rdf:resource="http://purl.org/dc/dcmitype/StillImage"/>
    <dc:date>2026-05-26T16:50:28.147825</dc:date>
    <dc:format>image/svg+xml</dc:format>
    <dc:creator>
     <cc:Agent>
      <dc:title>Matplotlib v3.10.1, https://matplotlib.org/</dc:title>
     </cc:Agent>
    </dc:creator>
   </cc:Work>
  </rdf:RDF>
 </metadata>
 <defs>
  <style type="text/css">*{stroke-linejoin: round; stroke-linecap: butt}</style>
 </defs>
 <g id="figure_1">
  <g id="patch_1">
   <path d="M 0 279.119063 
L 855.931875 279.119063 
L 855.931875 0 
L 0 0 
z
" style="fill: #ffffff"/>
  </g>
  <g id="axes_1">
   <g id="patch_2">
    <path d="M 46.953125 242.389375 
L 435.351875 242.389375 
L 435.351875 21.789375 
L 46.953125 21.789375 
z
" style="fill: #ffffff"/>
   </g>
   <g id="matplotlib.axis_1">
    <g id="xtick_1">
     <g id="line2d_1">
      <path d="M 46.953125 242.389375 
L 46.953125 21.789375 
" clip-path="url(#p1cf19f0b44)" style="fill: none; stroke: #cccccc; stroke-opacity: 0.3; stroke-width: 0.8; stroke-linecap: round"/>
     </g>
     <g id="text_1">
      <!-- 0 -->
      <g style="fill: #262626" transform="translate(44.172656 256.547188) scale(0.1 -0.1)">
       <defs>
        <path id="ArialMT-30" d="M 266 2259 
Q 266 3072 433 3567 
Q 600 4063 929 4331 
Q 1259 4600 1759 4600 
Q 2128 4600 2406 4451 
Q 2684 4303 2865 4023 
Q 3047 3744 3150 3342 
Q 3253 2941 3253 2259 
Q 3253 1453 3087 958 
Q 2922 463 2592 192 
Q 2263 -78 1759 -78 
Q 1097 -78 719 397 
Q 266 969 266 2259 
z
M 844 2259 
Q 844 1131 1108 757 
Q 1372 384 1759 384 
Q 2147 384 2411 759 
Q 2675 1134 2675 2259 
Q 2675 3391 2411 3762 
Q 2147 4134 1753 4134 
Q 1366 4134 1134 3806 
Q 844 3388 844 2259 
z
" transform="scale(0.015625)"/>
       </defs>
       <use xlink:href="#ArialMT-30"/>
      </g>
     </g>
    </g>
    <g id="xtick_2">
     <g id="line2d_2">
      <path d="M 109.096925 242.389375 
L 109.096925 21.789375 
" clip-path="url(#p1cf19f0b44)" style="fill: none; stroke: #cccccc; stroke-opacity: 0.3; stroke-width: 0.8; stroke-linecap: round"/>
     </g>
     <g id="text_2">
      <!-- 20 -->
      <g style="fill: #262626" transform="translate(103.535988 256.547188) scale(0.1 -0.1)">
       <defs>
        <path id="ArialMT-32" d="M 3222 541 
L 3222 0 
L 194 0 
Q 188 203 259 391 
Q 375 700 629 1000 
Q 884 1300 1366 1694 
Q 2113 2306 2375 2664 
Q 2638 3022 2638 3341 
Q 2638 3675 2398 3904 
Q 2159 4134 1775 4134 
Q 1369 4134 1125 3890 
Q 881 3647 878 3216 
L 300 3275 
Q 359 3922 746 4261 
Q 1134 4600 1788 4600 
Q 2447 4600 2831 4234 
Q 3216 3869 3216 3328 
Q 3216 3053 3103 2787 
Q 2991 2522 2730 2228 
Q 2469 1934 1863 1422 
Q 1356 997 1212 845 
Q 1069 694 975 541 
L 3222 541 
z
" transform="scale(0.015625)"/>
       </defs>
       <use xlink:href="#ArialMT-32"/>
       <use xlink:href="#ArialMT-30" transform="translate(55.615234 0)"/>
      </g>
     </g>
    </g>
    <g id="xtick_3">
     <g id="line2d_3">
      <path d="M 171.240725 242.389375 
L 171.240725 21.789375 
" clip-path="url(#p1cf19f0b44)" style="fill: none; stroke: #cccccc; stroke-opacity: 0.3; stroke-width: 0.8; stroke-linecap: round"/>
     </g>
     <g id="text_3">
      <!-- 40 -->
      <g style="fill: #262626" transform="translate(165.679788 256.547188) scale(0.1 -0.1)">
       <defs>
        <path id="ArialMT-34" d="M 2069 0 
L 2069 1097 
L 81 1097 
L 81 1613 
L 2172 4581 
L 2631 4581 
L 2631 1613 
L 3250 1613 
L 3250 1097 
L 2631 1097 
L 2631 0 
L 2069 0 
z
M 2069 1613 
L 2069 3678 
L 634 1613 
L 2069 1613 
z
" transform="scale(0.015625)"/>
       </defs>
       <use xlink:href="#ArialMT-34"/>
       <use xlink:href="#ArialMT-30" transform="translate(55.615234 0)"/>
      </g>
     </g>
    </g>
    <g id="xtick_4">
     <g id="line2d_4">
      <path d="M 233.384525 242.389375 
L 233.384525 21.789375 
" clip-path="url(#p1cf19f0b44)" style="fill: none; stroke: #cccccc; stroke-opacity: 0.3; stroke-width: 0.8; stroke-linecap: round"/>
     </g>
     <g id="text_4">
      <!-- 60 -->
      <g style="fill: #262626" transform="translate(227.823588 256.547188) scale(0.1 -0.1)">
       <defs>
        <path id="ArialMT-36" d="M 3184 3459 
L 2625 3416 
Q 2550 3747 2413 3897 
Q 2184 4138 1850 4138 
Q 1581 4138 1378 3988 
Q 1113 3794 959 3422 
Q 806 3050 800 2363 
Q 1003 2672 1297 2822 
Q 1591 2972 1913 2972 
Q 2475 2972 2870 2558 
Q 3266 2144 3266 1488 
Q 3266 1056 3080 686 
Q 2894 316 2569 119 
Q 2244 -78 1831 -78 
Q 1128 -78 684 439 
Q 241 956 241 2144 
Q 241 3472 731 4075 
Q 1159 4600 1884 4600 
Q 2425 4600 2770 4297 
Q 3116 3994 3184 3459 
z
M 888 1484 
Q 888 1194 1011 928 
Q 1134 663 1356 523 
Q 1578 384 1822 384 
Q 2178 384 2434 671 
Q 2691 959 2691 1453 
Q 2691 1928 2437 2201 
Q 2184 2475 1800 2475 
Q 1419 2475 1153 2201 
Q 888 1928 888 1484 
z
" transform="scale(0.015625)"/>
       </defs>
       <use xlink:href="#ArialMT-36"/>
       <use xlink:href="#ArialMT-30" transform="translate(55.615234 0)"/>
      </g>
     </g>
    </g>
    <g id="xtick_5">
     <g id="line2d_5">
      <path d="M 295.528325 242.389375 
L 295.528325 21.789375 
" clip-path="url(#p1cf19f0b44)" style="fill: none; stroke: #cccccc; stroke-opacity: 0.3; stroke-width: 0.8; stroke-linecap: round"/>
     </g>
     <g id="text_5">
      <!-- 80 -->
      <g style="fill: #262626" transform="translate(289.967387 256.547188) scale(0.1 -0.1)">
       <defs>
        <path id="ArialMT-38" d="M 1131 2484 
Q 781 2613 612 2850 
Q 444 3088 444 3419 
Q 444 3919 803 4259 
Q 1163 4600 1759 4600 
Q 2359 4600 2725 4251 
Q 3091 3903 3091 3403 
Q 3091 3084 2923 2848 
Q 2756 2613 2416 2484 
Q 2838 2347 3058 2040 
Q 3278 1734 3278 1309 
Q 3278 722 2862 322 
Q 2447 -78 1769 -78 
Q 1091 -78 675 323 
Q 259 725 259 1325 
Q 259 1772 486 2073 
Q 713 2375 1131 2484 
z
M 1019 3438 
Q 1019 3113 1228 2906 
Q 1438 2700 1772 2700 
Q 2097 2700 2305 2904 
Q 2513 3109 2513 3406 
Q 2513 3716 2298 3927 
Q 2084 4138 1766 4138 
Q 1444 4138 1231 3931 
Q 1019 3725 1019 3438 
z
M 838 1322 
Q 838 1081 952 856 
Q 1066 631 1291 507 
Q 1516 384 1775 384 
Q 2178 384 2440 643 
Q 2703 903 2703 1303 
Q 2703 1709 2433 1975 
Q 2163 2241 1756 2241 
Q 1359 2241 1098 1978 
Q 838 1716 838 1322 
z
" transform="scale(0.015625)"/>
       </defs>
       <use xlink:href="#ArialMT-38"/>
       <use xlink:href="#ArialMT-30" transform="translate(55.615234 0)"/>
      </g>
     </g>
    </g>
    <g id="xtick_6">
     <g id="line2d_6">
      <path d="M 357.672125 242.389375 
L 357.672125 21.789375 
" clip-path="url(#p1cf19f0b44)" style="fill: none; stroke: #cccccc; stroke-opacity: 0.3; stroke-width: 0.8; stroke-linecap: round"/>
     </g>
     <g id="text_6">
      <!-- 100 -->
      <g style="fill: #262626" transform="translate(349.330719 256.547188) scale(0.1 -0.1)">
       <defs>
        <path id="ArialMT-31" d="M 2384 0 
L 1822 0 
L 1822 3584 
Q 1619 3391 1289 3197 
Q 959 3003 697 2906 
L 697 3450 
Q 1169 3672 1522 3987 
Q 1875 4303 2022 4600 
L 2384 4600 
L 2384 0 
z
" transform="scale(0.015625)"/>
       </defs>
       <use xlink:href="#ArialMT-31"/>
       <use xlink:href="#ArialMT-30" transform="translate(55.615234 0)"/>
       <use xlink:href="#ArialMT-30" transform="translate(111.230469 0)"/>
      </g>
     </g>
    </g>
    <g id="xtick_7">
     <g id="line2d_7">
      <path d="M 419.815925 242.389375 
L 419.815925 21.789375 
" clip-path="url(#p1cf19f0b44)" style="fill: none; stroke: #cccccc; stroke-opacity: 0.3; stroke-width: 0.8; stroke-linecap: round"/>
     </g>
     <g id="text_7">
      <!-- 120 -->
      <g style="fill: #262626" transform="translate(411.474519 256.547188) scale(0.1 -0.1)">
       <use xlink:href="#ArialMT-31"/>
       <use xlink:href="#ArialMT-32" transform="translate(55.615234 0)"/>
       <use xlink:href="#ArialMT-30" transform="translate(111.230469 0)"/>
      </g>
     </g>
    </g>
    <g id="text_8">
     <!-- Elapsed Time (sec) -->
     <g style="fill: #262626" transform="translate(198.361094 269.814375) scale(0.1 -0.1)">
      <defs>
       <path id="ArialMT-45" d="M 506 0 
L 506 4581 
L 3819 4581 
L 3819 4041 
L 1113 4041 
L 1113 2638 
L 3647 2638 
L 3647 2100 
L 1113 2100 
L 1113 541 
L 3925 541 
L 3925 0 
L 506 0 
z
" transform="scale(0.015625)"/>
       <path id="ArialMT-6c" d="M 409 0 
L 409 4581 
L 972 4581 
L 972 0 
L 409 0 
z
" transform="scale(0.015625)"/>
       <path id="ArialMT-61" d="M 2588 409 
Q 2275 144 1986 34 
Q 1697 -75 1366 -75 
Q 819 -75 525 192 
Q 231 459 231 875 
Q 231 1119 342 1320 
Q 453 1522 633 1644 
Q 813 1766 1038 1828 
Q 1203 1872 1538 1913 
Q 2219 1994 2541 2106 
Q 2544 2222 2544 2253 
Q 2544 2597 2384 2738 
Q 2169 2928 1744 2928 
Q 1347 2928 1158 2789 
Q 969 2650 878 2297 
L 328 2372 
Q 403 2725 575 2942 
Q 747 3159 1072 3276 
Q 1397 3394 1825 3394 
Q 2250 3394 2515 3294 
Q 2781 3194 2906 3042 
Q 3031 2891 3081 2659 
Q 3109 2516 3109 2141 
L 3109 1391 
Q 3109 606 3145 398 
Q 3181 191 3288 0 
L 2700 0 
Q 2613 175 2588 409 
z
M 2541 1666 
Q 2234 1541 1622 1453 
Q 1275 1403 1131 1340 
Q 988 1278 909 1158 
Q 831 1038 831 891 
Q 831 666 1001 516 
Q 1172 366 1500 366 
Q 1825 366 2078 508 
Q 2331 650 2450 897 
Q 2541 1088 2541 1459 
L 2541 1666 
z
" transform="scale(0.015625)"/>
       <path id="ArialMT-70" d="M 422 -1272 
L 422 3319 
L 934 3319 
L 934 2888 
Q 1116 3141 1344 3267 
Q 1572 3394 1897 3394 
Q 2322 3394 2647 3175 
Q 2972 2956 3137 2557 
Q 3303 2159 3303 1684 
Q 3303 1175 3120 767 
Q 2938 359 2589 142 
Q 2241 -75 1856 -75 
Q 1575 -75 1351 44 
Q 1128 163 984 344 
L 984 -1272 
L 422 -1272 
z
M 931 1641 
Q 931 1000 1190 694 
Q 1450 388 1819 388 
Q 2194 388 2461 705 
Q 2728 1022 2728 1688 
Q 2728 2322 2467 2637 
Q 2206 2953 1844 2953 
Q 1484 2953 1207 2617 
Q 931 2281 931 1641 
z
" transform="scale(0.015625)"/>
       <path id="ArialMT-73" d="M 197 991 
L 753 1078 
Q 800 744 1014 566 
Q 1228 388 1613 388 
Q 2000 388 2187 545 
Q 2375 703 2375 916 
Q 2375 1106 2209 1216 
Q 2094 1291 1634 1406 
Q 1016 1563 777 1677 
Q 538 1791 414 1992 
Q 291 2194 291 2438 
Q 291 2659 392 2848 
Q 494 3038 669 3163 
Q 800 3259 1026 3326 
Q 1253 3394 1513 3394 
Q 1903 3394 2198 3281 
Q 2494 3169 2634 2976 
Q 2775 2784 2828 2463 
L 2278 2388 
Q 2241 2644 2061 2787 
Q 1881 2931 1553 2931 
Q 1166 2931 1000 2803 
Q 834 2675 834 2503 
Q 834 2394 903 2306 
Q 972 2216 1119 2156 
Q 1203 2125 1616 2013 
Q 2213 1853 2448 1751 
Q 2684 1650 2818 1456 
Q 2953 1263 2953 975 
Q 2953 694 2789 445 
Q 2625 197 2315 61 
Q 2006 -75 1616 -75 
Q 969 -75 630 194 
Q 291 463 197 991 
z
" transform="scale(0.015625)"/>
       <path id="ArialMT-65" d="M 2694 1069 
L 3275 997 
Q 3138 488 2766 206 
Q 2394 -75 1816 -75 
Q 1088 -75 661 373 
Q 234 822 234 1631 
Q 234 2469 665 2931 
Q 1097 3394 1784 3394 
Q 2450 3394 2872 2941 
Q 3294 2488 3294 1666 
Q 3294 1616 3291 1516 
L 816 1516 
Q 847 969 1125 678 
Q 1403 388 1819 388 
Q 2128 388 2347 550 
Q 2566 713 2694 1069 
z
M 847 1978 
L 2700 1978 
Q 2663 2397 2488 2606 
Q 2219 2931 1791 2931 
Q 1403 2931 1139 2672 
Q 875 2413 847 1978 
z
" transform="scale(0.015625)"/>
       <path id="ArialMT-64" d="M 2575 0 
L 2575 419 
Q 2259 -75 1647 -75 
Q 1250 -75 917 144 
Q 584 363 401 755 
Q 219 1147 219 1656 
Q 219 2153 384 2558 
Q 550 2963 881 3178 
Q 1213 3394 1622 3394 
Q 1922 3394 2156 3267 
Q 2391 3141 2538 2938 
L 2538 4581 
L 3097 4581 
L 3097 0 
L 2575 0 
z
M 797 1656 
Q 797 1019 1065 703 
Q 1334 388 1700 388 
Q 2069 388 2326 689 
Q 2584 991 2584 1609 
Q 2584 2291 2321 2609 
Q 2059 2928 1675 2928 
Q 1300 2928 1048 2622 
Q 797 2316 797 1656 
z
" transform="scale(0.015625)"/>
       <path id="ArialMT-20" transform="scale(0.015625)"/>
       <path id="ArialMT-54" d="M 1659 0 
L 1659 4041 
L 150 4041 
L 150 4581 
L 3781 4581 
L 3781 4041 
L 2266 4041 
L 2266 0 
L 1659 0 
z
" transform="scale(0.015625)"/>
       <path id="ArialMT-69" d="M 425 3934 
L 425 4581 
L 988 4581 
L 988 3934 
L 425 3934 
z
M 425 0 
L 425 3319 
L 988 3319 
L 988 0 
L 425 0 
z
" transform="scale(0.015625)"/>
       <path id="ArialMT-6d" d="M 422 0 
L 422 3319 
L 925 3319 
L 925 2853 
Q 1081 3097 1340 3245 
Q 1600 3394 1931 3394 
Q 2300 3394 2536 3241 
Q 2772 3088 2869 2813 
Q 3263 3394 3894 3394 
Q 4388 3394 4653 3120 
Q 4919 2847 4919 2278 
L 4919 0 
L 4359 0 
L 4359 2091 
Q 4359 2428 4304 2576 
Q 4250 2725 4106 2815 
Q 3963 2906 3769 2906 
Q 3419 2906 3187 2673 
Q 2956 2441 2956 1928 
L 2956 0 
L 2394 0 
L 2394 2156 
Q 2394 2531 2256 2718 
Q 2119 2906 1806 2906 
Q 1569 2906 1367 2781 
Q 1166 2656 1075 2415 
Q 984 2175 984 1722 
L 984 0 
L 422 0 
z
" transform="scale(0.015625)"/>
       <path id="ArialMT-28" d="M 1497 -1347 
Q 1031 -759 709 28 
Q 388 816 388 1659 
Q 388 2403 628 3084 
Q 909 3875 1497 4659 
L 1900 4659 
Q 1522 4009 1400 3731 
Q 1209 3300 1100 2831 
Q 966 2247 966 1656 
Q 966 153 1900 -1347 
L 1497 -1347 
z
" transform="scale(0.015625)"/>
       <path id="ArialMT-63" d="M 2588 1216 
L 3141 1144 
Q 3050 572 2676 248 
Q 2303 -75 1759 -75 
Q 1078 -75 664 370 
Q 250 816 250 1647 
Q 250 2184 428 2587 
Q 606 2991 970 3192 
Q 1334 3394 1763 3394 
Q 2303 3394 2647 3120 
Q 2991 2847 3088 2344 
L 2541 2259 
Q 2463 2594 2264 2762 
Q 2066 2931 1784 2931 
Q 1359 2931 1093 2626 
Q 828 2322 828 1663 
Q 828 994 1084 691 
Q 1341 388 1753 388 
Q 2084 388 2306 591 
Q 2528 794 2588 1216 
z
" transform="scale(0.015625)"/>
       <path id="ArialMT-29" d="M 791 -1347 
L 388 -1347 
Q 1322 153 1322 1656 
Q 1322 2244 1188 2822 
Q 1081 3291 891 3722 
Q 769 4003 388 4659 
L 791 4659 
Q 1378 3875 1659 3084 
Q 1900 2403 1900 1659 
Q 1900 816 1576 28 
Q 1253 -759 791 -1347 
z
" transform="scale(0.015625)"/>
      </defs>
      <use xlink:href="#ArialMT-45"/>
      <use xlink:href="#ArialMT-6c" transform="translate(66.699219 0)"/>
      <use xlink:href="#ArialMT-61" transform="translate(88.916016 0)"/>
      <use xlink:href="#ArialMT-70" transform="translate(144.53125 0)"/>
      <use xlink:href="#ArialMT-73" transform="translate(200.146484 0)"/>
      <use xlink:href="#ArialMT-65" transform="translate(250.146484 0)"/>
      <use xlink:href="#ArialMT-64" transform="translate(305.761719 0)"/>
      <use xlink:href="#ArialMT-20" transform="translate(361.376953 0)"/>
      <use xlink:href="#ArialMT-54" transform="translate(387.410156 0)"/>
      <use xlink:href="#ArialMT-69" transform="translate(444.744141 0)"/>
      <use xlink:href="#ArialMT-6d" transform="translate(466.960938 0)"/>
      <use xlink:href="#ArialMT-65" transform="translate(550.261719 0)"/>
      <use xlink:href="#ArialMT-20" transform="translate(605.876953 0)"/>
      <use xlink:href="#ArialMT-28" transform="translate(633.660156 0)"/>
      <use xlink:href="#ArialMT-73" transform="translate(666.960938 0)"/>
      <use xlink:href="#ArialMT-65" transform="translate(716.960938 0)"/>
      <use xlink:href="#ArialMT-63" transform="translate(772.576172 0)"/>
      <use xlink:href="#ArialMT-29" transform="translate(822.576172 0)"/>
     </g>
    </g>
   </g>
   <g id="matplotlib.axis_2">
    <g id="ytick_1">
     <g id="line2d_8">
      <path d="M 46.953125 210.563683 
L 435.351875 210.563683 
" clip-path="url(#p1cf19f0b44)" style="fill: none; stroke: #cccccc; stroke-opacity: 0.3; stroke-width: 0.8; stroke-linecap: round"/>
     </g>
     <g id="text_9">
      <!-- 0.55 -->
      <g style="fill: #262626" transform="translate(20.492188 214.14259) scale(0.1 -0.1)">
       <defs>
        <path id="ArialMT-2e" d="M 581 0 
L 581 641 
L 1222 641 
L 1222 0 
L 581 0 
z
" transform="scale(0.015625)"/>
        <path id="ArialMT-35" d="M 266 1200 
L 856 1250 
Q 922 819 1161 601 
Q 1400 384 1738 384 
Q 2144 384 2425 690 
Q 2706 997 2706 1503 
Q 2706 1984 2436 2262 
Q 2166 2541 1728 2541 
Q 1456 2541 1237 2417 
Q 1019 2294 894 2097 
L 366 2166 
L 809 4519 
L 3088 4519 
L 3088 3981 
L 1259 3981 
L 1013 2750 
Q 1425 3038 1878 3038 
Q 2478 3038 2890 2622 
Q 3303 2206 3303 1553 
Q 3303 931 2941 478 
Q 2500 -78 1738 -78 
Q 1113 -78 717 272 
Q 322 622 266 1200 
z
" transform="scale(0.015625)"/>
       </defs>
       <use xlink:href="#ArialMT-30"/>
       <use xlink:href="#ArialMT-2e" transform="translate(55.615234 0)"/>
       <use xlink:href="#ArialMT-35" transform="translate(83.398438 0)"/>
       <use xlink:href="#ArialMT-35" transform="translate(139.013672 0)"/>
      </g>
     </g>
    </g>
    <g id="ytick_2">
     <g id="line2d_9">
      <path d="M 46.953125 174.232985 
L 435.351875 174.232985 
" clip-path="url(#p1cf19f0b44)" style="fill: none; stroke: #cccccc; stroke-opacity: 0.3; stroke-width: 0.8; stroke-linecap: round"/>
     </g>
     <g id="text_10">
      <!-- 0.60 -->
      <g style="fill: #262626" transform="translate(20.492188 177.811891) scale(0.1 -0.1)">
       <use xlink:href="#ArialMT-30"/>
       <use xlink:href="#ArialMT-2e" transform="translate(55.615234 0)"/>
       <use xlink:href="#ArialMT-36" transform="translate(83.398438 0)"/>
       <use xlink:href="#ArialMT-30" transform="translate(139.013672 0)"/>
      </g>
     </g>
    </g>
    <g id="ytick_3">
     <g id="line2d_10">
      <path d="M 46.953125 137.902287 
L 435.351875 137.902287 
" clip-path="url(#p1cf19f0b44)" style="fill: none; stroke: #cccccc; stroke-opacity: 0.3; stroke-width: 0.8; stroke-linecap: round"/>
     </g>
     <g id="text_11">
      <!-- 0.65 -->
      <g style="fill: #262626" transform="translate(20.492188 141.481193) scale(0.1 -0.1)">
       <use xlink:href="#ArialMT-30"/>
       <use xlink:href="#ArialMT-2e" transform="translate(55.615234 0)"/>
       <use xlink:href="#ArialMT-36" transform="translate(83.398438 0)"/>
       <use xlink:href="#ArialMT-35" transform="translate(139.013672 0)"/>
      </g>
     </g>
    </g>
    <g id="ytick_4">
     <g id="line2d_11">
      <path d="M 46.953125 101.571588 
L 435.351875 101.571588 
" clip-path="url(#p1cf19f0b44)" style="fill: none; stroke: #cccccc; stroke-opacity: 0.3; stroke-width: 0.8; stroke-linecap: round"/>
     </g>
     <g id="text_12">
      <!-- 0.70 -->
      <g style="fill: #262626" transform="translate(20.492188 105.150495) scale(0.1 -0.1)">
       <defs>
        <path id="ArialMT-37" d="M 303 3981 
L 303 4522 
L 3269 4522 
L 3269 4084 
Q 2831 3619 2401 2847 
Q 1972 2075 1738 1259 
Q 1569 684 1522 0 
L 944 0 
Q 953 541 1156 1306 
Q 1359 2072 1739 2783 
Q 2119 3494 2547 3981 
L 303 3981 
z
" transform="scale(0.015625)"/>
       </defs>
       <use xlink:href="#ArialMT-30"/>
       <use xlink:href="#ArialMT-2e" transform="translate(55.615234 0)"/>
       <use xlink:href="#ArialMT-37" transform="translate(83.398438 0)"/>
       <use xlink:href="#ArialMT-30" transform="translate(139.013672 0)"/>
      </g>
     </g>
    </g>
    <g id="ytick_5">
     <g id="line2d_12">
      <path d="M 46.953125 65.24089 
L 435.351875 65.24089 
" clip-path="url(#p1cf19f0b44)" style="fill: none; stroke: #cccccc; stroke-opacity: 0.3; stroke-width: 0.8; stroke-linecap: round"/>
     </g>
     <g id="text_13">
      <!-- 0.75 -->
      <g style="fill: #262626" transform="translate(20.492188 68.819796) scale(0.1 -0.1)">
       <use xlink:href="#ArialMT-30"/>
       <use xlink:href="#ArialMT-2e" transform="translate(55.615234 0)"/>
       <use xlink:href="#ArialMT-37" transform="translate(83.398438 0)"/>
       <use xlink:href="#ArialMT-35" transform="translate(139.013672 0)"/>
      </g>
     </g>
    </g>
    <g id="ytick_6">
     <g id="line2d_13">
      <path d="M 46.953125 28.910192 
L 435.351875 28.910192 
" clip-path="url(#p1cf19f0b44)" style="fill: none; stroke: #cccccc; stroke-opacity: 0.3; stroke-width: 0.8; stroke-linecap: round"/>
     </g>
     <g id="text_14">
      <!-- 0.80 -->
      <g style="fill: #262626" transform="translate(20.492188 32.489098) scale(0.1 -0.1)">
       <use xlink:href="#ArialMT-30"/>
       <use xlink:href="#ArialMT-2e" transform="translate(55.615234 0)"/>
       <use xlink:href="#ArialMT-38" transform="translate(83.398438 0)"/>
       <use xlink:href="#ArialMT-30" transform="translate(139.013672 0)"/>
      </g>
     </g>
    </g>
    <g id="text_15">
     <!-- Mean pkg_j per 1s Bin -->
     <g style="fill: #262626" transform="translate(14.3875 181.837031) rotate(-90) scale(0.1 -0.1)">
      <defs>
       <path id="ArialMT-4d" d="M 475 0 
L 475 4581 
L 1388 4581 
L 2472 1338 
Q 2622 884 2691 659 
Q 2769 909 2934 1394 
L 4031 4581 
L 4847 4581 
L 4847 0 
L 4263 0 
L 4263 3834 
L 2931 0 
L 2384 0 
L 1059 3900 
L 1059 0 
L 475 0 
z
" transform="scale(0.015625)"/>
       <path id="ArialMT-6e" d="M 422 0 
L 422 3319 
L 928 3319 
L 928 2847 
Q 1294 3394 1984 3394 
Q 2284 3394 2536 3286 
Q 2788 3178 2913 3003 
Q 3038 2828 3088 2588 
Q 3119 2431 3119 2041 
L 3119 0 
L 2556 0 
L 2556 2019 
Q 2556 2363 2490 2533 
Q 2425 2703 2258 2804 
Q 2091 2906 1866 2906 
Q 1506 2906 1245 2678 
Q 984 2450 984 1813 
L 984 0 
L 422 0 
z
" transform="scale(0.015625)"/>
       <path id="ArialMT-6b" d="M 425 0 
L 425 4581 
L 988 4581 
L 988 1969 
L 2319 3319 
L 3047 3319 
L 1778 2088 
L 3175 0 
L 2481 0 
L 1384 1697 
L 988 1316 
L 988 0 
L 425 0 
z
" transform="scale(0.015625)"/>
       <path id="ArialMT-67" d="M 319 -275 
L 866 -356 
Q 900 -609 1056 -725 
Q 1266 -881 1628 -881 
Q 2019 -881 2231 -725 
Q 2444 -569 2519 -288 
Q 2563 -116 2559 434 
Q 2191 0 1641 0 
Q 956 0 581 494 
Q 206 988 206 1678 
Q 206 2153 378 2554 
Q 550 2956 876 3175 
Q 1203 3394 1644 3394 
Q 2231 3394 2613 2919 
L 2613 3319 
L 3131 3319 
L 3131 450 
Q 3131 -325 2973 -648 
Q 2816 -972 2473 -1159 
Q 2131 -1347 1631 -1347 
Q 1038 -1347 672 -1080 
Q 306 -813 319 -275 
z
M 784 1719 
Q 784 1066 1043 766 
Q 1303 466 1694 466 
Q 2081 466 2343 764 
Q 2606 1063 2606 1700 
Q 2606 2309 2336 2618 
Q 2066 2928 1684 2928 
Q 1309 2928 1046 2623 
Q 784 2319 784 1719 
z
" transform="scale(0.015625)"/>
       <path id="ArialMT-5f" d="M -97 -1272 
L -97 -866 
L 3631 -866 
L 3631 -1272 
L -97 -1272 
z
" transform="scale(0.015625)"/>
       <path id="ArialMT-6a" d="M 419 3928 
L 419 4581 
L 981 4581 
L 981 3928 
L 419 3928 
z
M -294 -1288 
L -188 -809 
Q -19 -853 78 -853 
Q 250 -853 334 -739 
Q 419 -625 419 -169 
L 419 3319 
L 981 3319 
L 981 -181 
Q 981 -794 822 -1034 
Q 619 -1347 147 -1347 
Q -81 -1347 -294 -1288 
z
" transform="scale(0.015625)"/>
       <path id="ArialMT-72" d="M 416 0 
L 416 3319 
L 922 3319 
L 922 2816 
Q 1116 3169 1280 3281 
Q 1444 3394 1641 3394 
Q 1925 3394 2219 3213 
L 2025 2691 
Q 1819 2813 1613 2813 
Q 1428 2813 1281 2702 
Q 1134 2591 1072 2394 
Q 978 2094 978 1738 
L 978 0 
L 416 0 
z
" transform="scale(0.015625)"/>
       <path id="ArialMT-42" d="M 469 0 
L 469 4581 
L 2188 4581 
Q 2713 4581 3030 4442 
Q 3347 4303 3526 4014 
Q 3706 3725 3706 3409 
Q 3706 3116 3547 2856 
Q 3388 2597 3066 2438 
Q 3481 2316 3704 2022 
Q 3928 1728 3928 1328 
Q 3928 1006 3792 729 
Q 3656 453 3456 303 
Q 3256 153 2954 76 
Q 2653 0 2216 0 
L 469 0 
z
M 1075 2656 
L 2066 2656 
Q 2469 2656 2644 2709 
Q 2875 2778 2992 2937 
Q 3109 3097 3109 3338 
Q 3109 3566 3000 3739 
Q 2891 3913 2687 3977 
Q 2484 4041 1991 4041 
L 1075 4041 
L 1075 2656 
z
M 1075 541 
L 2216 541 
Q 2509 541 2628 563 
Q 2838 600 2978 687 
Q 3119 775 3209 942 
Q 3300 1109 3300 1328 
Q 3300 1584 3169 1773 
Q 3038 1963 2805 2039 
Q 2572 2116 2134 2116 
L 1075 2116 
L 1075 541 
z
" transform="scale(0.015625)"/>
      </defs>
      <use xlink:href="#ArialMT-4d"/>
      <use xlink:href="#ArialMT-65" transform="translate(83.300781 0)"/>
      <use xlink:href="#ArialMT-61" transform="translate(138.916016 0)"/>
      <use xlink:href="#ArialMT-6e" transform="translate(194.53125 0)"/>
      <use xlink:href="#ArialMT-20" transform="translate(250.146484 0)"/>
      <use xlink:href="#ArialMT-70" transform="translate(277.929688 0)"/>
      <use xlink:href="#ArialMT-6b" transform="translate(333.544922 0)"/>
      <use xlink:href="#ArialMT-67" transform="translate(383.544922 0)"/>
      <use xlink:href="#ArialMT-5f" transform="translate(439.160156 0)"/>
      <use xlink:href="#ArialMT-6a" transform="translate(494.775391 0)"/>
      <use xlink:href="#ArialMT-20" transform="translate(516.992188 0)"/>
      <use xlink:href="#ArialMT-70" transform="translate(544.775391 0)"/>
      <use xlink:href="#ArialMT-65" transform="translate(600.390625 0)"/>
      <use xlink:href="#ArialMT-72" transform="translate(656.005859 0)"/>
      <use xlink:href="#ArialMT-20" transform="translate(689.306641 0)"/>
      <use xlink:href="#ArialMT-31" transform="translate(717.089844 0)"/>
      <use xlink:href="#ArialMT-73" transform="translate(772.705078 0)"/>
      <use xlink:href="#ArialMT-20" transform="translate(822.705078 0)"/>
      <use xlink:href="#ArialMT-42" transform="translate(850.488281 0)"/>
      <use xlink:href="#ArialMT-69" transform="translate(917.1875 0)"/>
      <use xlink:href="#ArialMT-6e" transform="translate(939.404297 0)"/>
     </g>
    </g>
   </g>
   <g id="line2d_14">
    <path d="M 46.953125 57.248137 
L 50.060315 57.248137 
L 53.167505 57.97475 
L 56.274695 58.701364 
L 59.381885 57.97475 
L 62.489075 57.97475 
L 65.596265 55.068295 
L 68.703455 55.068295 
L 71.810645 55.068295 
L 74.917835 55.068295 
L 78.025025 55.068295 
L 81.132215 55.068295 
L 84.239405 55.068295 
L 87.346595 52.888453 
L 90.453785 50.708611 
L 93.560975 53.615067 
L 96.668165 49.981997 
L 99.775355 52.161839 
L 102.882545 54.341681 
L 105.989735 50.708611 
L 109.096925 48.528769 
L 112.204115 56.521523 
L 115.311305 48.528769 
L 118.418495 48.528769 
L 121.525685 47.802155 
L 124.632875 47.075541 
L 127.740065 47.802155 
L 130.847255 46.348927 
L 133.954445 48.528769 
L 137.061635 46.348927 
L 140.168825 49.981997 
L 143.276015 50.708611 
L 146.383205 48.528769 
L 149.490395 49.093913 
L 152.597585 44.895699 
L 155.704775 44.895699 
L 158.811965 44.169085 
L 161.919155 51.435225 
L 165.026345 46.348927 
L 168.133535 48.528769 
L 171.240725 47.802155 
L 174.347915 47.075541 
L 177.455105 44.895699 
L 180.562295 47.802155 
L 183.669485 44.895699 
L 186.776675 47.075541 
L 189.883865 45.622313 
L 192.991055 46.348927 
L 196.098245 46.348927 
L 199.205435 46.348927 
L 202.312625 43.442471 
L 205.419815 44.895699 
L 208.527005 46.348927 
L 211.634195 46.348927 
L 214.741385 46.348927 
L 217.848575 47.075541 
L 220.955765 45.622313 
L 224.062955 41.262629 
L 227.170145 44.169085 
L 230.277335 40.536015 
L 233.384525 44.169085 
L 236.491715 42.715857 
L 239.598905 42.715857 
L 242.706095 46.348927 
L 245.813285 43.442471 
L 248.920475 42.635122 
L 252.027665 43.442471 
L 255.134855 41.989243 
L 258.242045 43.442471 
L 261.349235 41.989243 
L 264.456425 37.629559 
L 267.563615 41.989243 
L 270.670805 43.442471 
L 273.777995 45.622313 
L 276.885185 41.262629 
L 279.992375 39.809401 
L 283.099565 40.536015 
L 286.206755 41.262629 
L 289.313945 44.895699 
L 292.421135 44.895699 
L 295.528325 39.809401 
L 298.635515 39.809401 
L 301.742705 42.715857 
L 304.849895 43.442471 
L 307.957085 41.262629 
L 311.064275 44.895699 
L 314.171465 40.536015 
L 317.278655 45.622313 
L 320.385845 44.169085 
L 323.493035 45.622313 
L 326.600225 44.895699 
L 329.707415 41.989243 
L 332.814605 43.442471 
L 335.921795 41.989243 
L 339.028985 41.989243 
L 342.136175 47.075541 
L 345.243365 37.791029 
L 348.350555 40.536015 
L 351.457745 39.082787 
L 354.564935 39.809401 
L 357.672125 41.262629 
L 360.779315 39.809401 
L 363.886505 41.262629 
L 366.993695 41.262629 
L 370.100885 43.442471 
L 373.208075 38.356173 
L 376.315265 45.622313 
L 379.422455 41.262629 
L 382.529645 42.715857 
L 385.636835 40.536015 
L 388.744025 40.536015 
L 391.851215 39.809401 
L 394.958405 40.536015 
L 398.065595 41.262629 
L 401.172785 38.356173 
L 404.279975 38.356173 
L 407.387165 34.723104 
L 410.494355 39.082787 
L 413.601545 41.262629 
L 416.708735 39.809401 
L 419.815925 37.629559 
L 422.923115 43.442471 
L 426.030305 38.356173 
L 429.137495 232.362102 
" clip-path="url(#p1cf19f0b44)" style="fill: none; stroke: #1f77b4; stroke-width: 2; stroke-linecap: round"/>
   </g>
   <g id="line2d_15">
    <path d="M 46.953125 78.319942 
L 50.060315 51.435225 
L 53.167505 49.981997 
L 56.274695 44.895699 
L 59.381885 45.622313 
L 62.489075 48.528769 
L 65.596265 46.348927 
L 68.703455 46.348927 
L 71.810645 46.348927 
L 74.917835 46.348927 
L 78.025025 44.169085 
L 81.132215 45.622313 
L 84.239405 42.715857 
L 87.346595 42.715857 
L 90.453785 45.622313 
L 93.560975 44.895699 
L 96.668165 41.262629 
L 99.775355 43.442471 
L 102.882545 43.442471 
L 105.989735 39.809401 
L 109.096925 39.082787 
L 112.204115 42.715857 
L 115.311305 41.262629 
L 118.418495 38.356173 
L 121.525685 41.989243 
L 124.632875 41.262629 
L 127.740065 39.405727 
L 130.847255 44.169085 
L 133.954445 41.989243 
L 137.061635 40.536015 
L 140.168825 44.169085 
L 143.276015 39.809401 
L 146.383205 36.902945 
L 149.490395 36.176332 
L 152.597585 40.536015 
L 155.704775 40.536015 
L 158.811965 42.715857 
L 161.919155 41.262629 
L 165.026345 41.989243 
L 168.133535 41.262629 
L 171.240725 41.262629 
L 174.347915 40.536015 
L 177.455105 42.715857 
L 180.562295 38.356173 
L 183.669485 37.629559 
L 186.776675 40.536015 
L 189.883865 41.262629 
L 192.991055 39.082787 
L 196.098245 40.536015 
L 199.205435 39.809401 
L 202.312625 36.902945 
L 205.419815 37.629559 
L 208.527005 42.715857 
L 211.634195 41.262629 
L 214.741385 38.356173 
L 217.848575 40.213076 
L 220.955765 40.536015 
L 224.062955 39.082787 
L 227.170145 41.262629 
L 230.277335 40.536015 
L 233.384525 36.176332 
L 236.491715 39.082787 
L 239.598905 38.356173 
L 242.706095 39.082787 
L 245.813285 39.082787 
L 248.920475 33.99649 
L 252.027665 37.629559 
L 255.134855 41.262629 
L 258.242045 41.989243 
L 261.349235 39.082787 
L 264.456425 36.902945 
L 267.563615 37.629559 
L 270.670805 40.536015 
L 273.777995 39.082787 
L 276.885185 39.082787 
L 279.992375 39.809401 
L 283.099565 33.99649 
L 286.206755 41.262629 
L 289.313945 39.082787 
L 292.421135 37.629559 
L 295.528325 39.082787 
L 298.635515 39.082787 
L 301.742705 40.536015 
L 304.849895 40.213076 
L 307.957085 39.809401 
L 311.064275 36.902945 
L 314.171465 38.356173 
L 317.278655 34.723104 
L 320.385845 38.356173 
L 323.493035 39.082787 
L 326.600225 38.356173 
L 329.707415 36.176332 
L 332.814605 39.809401 
L 335.921795 34.723104 
L 339.028985 36.176332 
L 342.136175 40.536015 
L 345.243365 38.356173 
L 348.350555 40.536015 
L 351.457745 34.723104 
L 354.564935 38.356173 
L 357.672125 38.356173 
L 360.779315 39.809401 
L 363.886505 41.989243 
L 366.993695 40.536015 
L 370.100885 37.629559 
L 373.208075 36.902945 
L 376.315265 38.356173 
L 379.422455 41.989243 
L 382.529645 33.269876 
L 385.636835 39.082787 
L 388.744025 36.902945 
L 391.851215 31.816648 
L 394.958405 41.020425 
L 398.065595 36.902945 
L 401.172785 38.356173 
L 404.279975 36.176332 
L 407.387165 35.449718 
L 410.494355 40.536015 
L 413.601545 37.629559 
L 416.708735 36.902945 
L 419.815925 35.449718 
L 422.923115 33.99649 
L 426.030305 39.082787 
L 429.137495 36.176332 
L 432.244685 95.758677 
" clip-path="url(#p1cf19f0b44)" style="fill: none; stroke: #ff7f0e; stroke-width: 2; stroke-linecap: round"/>
   </g>
   <g id="patch_3">
    <path d="M 46.953125 242.389375 
L 46.953125 21.789375 
" style="fill: none; stroke: #cccccc; stroke-width: 0.8; stroke-linejoin: miter; stroke-linecap: square"/>
   </g>
   <g id="patch_4">
    <path d="M 435.351875 242.389375 
L 435.351875 21.789375 
" style="fill: none; stroke: #cccccc; stroke-width: 0.8; stroke-linejoin: miter; stroke-linecap: square"/>
   </g>
   <g id="patch_5">
    <path d="M 46.953125 242.389375 
L 435.351875 242.389375 
" style="fill: none; stroke: #cccccc; stroke-width: 0.8; stroke-linejoin: miter; stroke-linecap: square"/>
   </g>
   <g id="patch_6">
    <path d="M 46.953125 21.789375 
L 435.351875 21.789375 
" style="fill: none; stroke: #cccccc; stroke-width: 0.8; stroke-linejoin: miter; stroke-linecap: square"/>
   </g>
   <g id="text_16">
    <!-- APX1090 — PC1 all cores -->
    <g style="fill: #262626" transform="translate(170.786563 15.789375) scale(0.12 -0.12)">
     <defs>
      <path id="ArialMT-41" d="M -9 0 
L 1750 4581 
L 2403 4581 
L 4278 0 
L 3588 0 
L 3053 1388 
L 1138 1388 
L 634 0 
L -9 0 
z
M 1313 1881 
L 2866 1881 
L 2388 3150 
Q 2169 3728 2063 4100 
Q 1975 3659 1816 3225 
L 1313 1881 
z
" transform="scale(0.015625)"/>
      <path id="ArialMT-50" d="M 494 0 
L 494 4581 
L 2222 4581 
Q 2678 4581 2919 4538 
Q 3256 4481 3484 4323 
Q 3713 4166 3852 3881 
Q 3991 3597 3991 3256 
Q 3991 2672 3619 2267 
Q 3247 1863 2275 1863 
L 1100 1863 
L 1100 0 
L 494 0 
z
M 1100 2403 
L 2284 2403 
Q 2872 2403 3119 2622 
Q 3366 2841 3366 3238 
Q 3366 3525 3220 3729 
Q 3075 3934 2838 4000 
Q 2684 4041 2272 4041 
L 1100 4041 
L 1100 2403 
z
" transform="scale(0.015625)"/>
      <path id="ArialMT-58" d="M 28 0 
L 1800 2388 
L 238 4581 
L 959 4581 
L 1791 3406 
Q 2050 3041 2159 2844 
Q 2313 3094 2522 3366 
L 3444 4581 
L 4103 4581 
L 2494 2422 
L 4228 0 
L 3478 0 
L 2325 1634 
Q 2228 1775 2125 1941 
Q 1972 1691 1906 1597 
L 756 0 
L 28 0 
z
" transform="scale(0.015625)"/>
      <path id="ArialMT-39" d="M 350 1059 
L 891 1109 
Q 959 728 1153 556 
Q 1347 384 1650 384 
Q 1909 384 2104 503 
Q 2300 622 2425 820 
Q 2550 1019 2634 1356 
Q 2719 1694 2719 2044 
Q 2719 2081 2716 2156 
Q 2547 1888 2255 1720 
Q 1963 1553 1622 1553 
Q 1053 1553 659 1965 
Q 266 2378 266 3053 
Q 266 3750 677 4175 
Q 1088 4600 1706 4600 
Q 2153 4600 2523 4359 
Q 2894 4119 3086 3673 
Q 3278 3228 3278 2384 
Q 3278 1506 3087 986 
Q 2897 466 2520 194 
Q 2144 -78 1638 -78 
Q 1100 -78 759 220 
Q 419 519 350 1059 
z
M 2653 3081 
Q 2653 3566 2395 3850 
Q 2138 4134 1775 4134 
Q 1400 4134 1122 3828 
Q 844 3522 844 3034 
Q 844 2597 1108 2323 
Q 1372 2050 1759 2050 
Q 2150 2050 2401 2323 
Q 2653 2597 2653 3081 
z
" transform="scale(0.015625)"/>
      <path id="ArialMT-2014" d="M 0 1431 
L 0 1884 
L 6400 1884 
L 6400 1431 
L 0 1431 
z
" transform="scale(0.015625)"/>
      <path id="ArialMT-43" d="M 3763 1606 
L 4369 1453 
Q 4178 706 3683 314 
Q 3188 -78 2472 -78 
Q 1731 -78 1267 223 
Q 803 525 561 1097 
Q 319 1669 319 2325 
Q 319 3041 592 3573 
Q 866 4106 1370 4382 
Q 1875 4659 2481 4659 
Q 3169 4659 3637 4309 
Q 4106 3959 4291 3325 
L 3694 3184 
Q 3534 3684 3231 3912 
Q 2928 4141 2469 4141 
Q 1941 4141 1586 3887 
Q 1231 3634 1087 3207 
Q 944 2781 944 2328 
Q 944 1744 1114 1308 
Q 1284 872 1643 656 
Q 2003 441 2422 441 
Q 2931 441 3284 734 
Q 3638 1028 3763 1606 
z
" transform="scale(0.015625)"/>
      <path id="ArialMT-6f" d="M 213 1659 
Q 213 2581 725 3025 
Q 1153 3394 1769 3394 
Q 2453 3394 2887 2945 
Q 3322 2497 3322 1706 
Q 3322 1066 3130 698 
Q 2938 331 2570 128 
Q 2203 -75 1769 -75 
Q 1072 -75 642 372 
Q 213 819 213 1659 
z
M 791 1659 
Q 791 1022 1069 705 
Q 1347 388 1769 388 
Q 2188 388 2466 706 
Q 2744 1025 2744 1678 
Q 2744 2294 2464 2611 
Q 2184 2928 1769 2928 
Q 1347 2928 1069 2612 
Q 791 2297 791 1659 
z
" transform="scale(0.015625)"/>
     </defs>
     <use xlink:href="#ArialMT-41"/>
     <use xlink:href="#ArialMT-50" transform="translate(66.699219 0)"/>
     <use xlink:href="#ArialMT-58" transform="translate(133.398438 0)"/>
     <use xlink:href="#ArialMT-31" transform="translate(200.097656 0)"/>
     <use xlink:href="#ArialMT-30" transform="translate(255.712891 0)"/>
     <use xlink:href="#ArialMT-39" transform="translate(311.328125 0)"/>
     <use xlink:href="#ArialMT-30" transform="translate(366.943359 0)"/>
     <use xlink:href="#ArialMT-20" transform="translate(422.558594 0)"/>
     <use xlink:href="#ArialMT-2014" transform="translate(450.341797 0)"/>
     <use xlink:href="#ArialMT-20" transform="translate(550.341797 0)"/>
     <use xlink:href="#ArialMT-50" transform="translate(578.125 0)"/>
     <use xlink:href="#ArialMT-43" transform="translate(644.824219 0)"/>
     <use xlink:href="#ArialMT-31" transform="translate(717.041016 0)"/>
     <use xlink:href="#ArialMT-20" transform="translate(772.65625 0)"/>
     <use xlink:href="#ArialMT-61" transform="translate(800.439453 0)"/>
     <use xlink:href="#ArialMT-6c" transform="translate(856.054688 0)"/>
     <use xlink:href="#ArialMT-6c" transform="translate(878.271484 0)"/>
     <use xlink:href="#ArialMT-20" transform="translate(900.488281 0)"/>
     <use xlink:href="#ArialMT-63" transform="translate(928.271484 0)"/>
     <use xlink:href="#ArialMT-6f" transform="translate(978.271484 0)"/>
     <use xlink:href="#ArialMT-72" transform="translate(1033.886719 0)"/>
     <use xlink:href="#ArialMT-65" transform="translate(1067.1875 0)"/>
     <use xlink:href="#ArialMT-73" transform="translate(1122.802734 0)"/>
    </g>
   </g>
   <g id="legend_1">
    <g id="patch_7">
     <path d="M 53.953125 237.389375 
L 117.635938 237.389375 
Q 119.635938 237.389375 119.635938 235.389375 
L 119.635938 207.864375 
Q 119.635938 205.864375 117.635938 205.864375 
L 53.953125 205.864375 
Q 51.953125 205.864375 51.953125 207.864375 
L 51.953125 235.389375 
Q 51.953125 237.389375 53.953125 237.389375 
z
" style="fill: #ffffff; opacity: 0.8; stroke: #cccccc; stroke-linejoin: miter"/>
    </g>
    <g id="line2d_16">
     <path d="M 55.953125 213.522188 
L 65.953125 213.522188 
L 75.953125 213.522188 
" style="fill: none; stroke: #1f77b4; stroke-width: 2; stroke-linecap: round"/>
    </g>
    <g id="text_17">
     <!-- queryA -->
     <g style="fill: #262626" transform="translate(83.953125 217.022188) scale(0.1 -0.1)">
      <defs>
       <path id="ArialMT-71" d="M 2538 -1272 
L 2538 353 
Q 2406 169 2170 47 
Q 1934 -75 1669 -75 
Q 1078 -75 651 397 
Q 225 869 225 1691 
Q 225 2191 398 2587 
Q 572 2984 901 3189 
Q 1231 3394 1625 3394 
Q 2241 3394 2594 2875 
L 2594 3319 
L 3100 3319 
L 3100 -1272 
L 2538 -1272 
z
M 803 1669 
Q 803 1028 1072 708 
Q 1341 388 1716 388 
Q 2075 388 2334 692 
Q 2594 997 2594 1619 
Q 2594 2281 2320 2615 
Q 2047 2950 1678 2950 
Q 1313 2950 1058 2639 
Q 803 2328 803 1669 
z
" transform="scale(0.015625)"/>
       <path id="ArialMT-75" d="M 2597 0 
L 2597 488 
Q 2209 -75 1544 -75 
Q 1250 -75 995 37 
Q 741 150 617 320 
Q 494 491 444 738 
Q 409 903 409 1263 
L 409 3319 
L 972 3319 
L 972 1478 
Q 972 1038 1006 884 
Q 1059 663 1231 536 
Q 1403 409 1656 409 
Q 1909 409 2131 539 
Q 2353 669 2445 892 
Q 2538 1116 2538 1541 
L 2538 3319 
L 3100 3319 
L 3100 0 
L 2597 0 
z
" transform="scale(0.015625)"/>
       <path id="ArialMT-79" d="M 397 -1278 
L 334 -750 
Q 519 -800 656 -800 
Q 844 -800 956 -737 
Q 1069 -675 1141 -563 
Q 1194 -478 1313 -144 
Q 1328 -97 1363 -6 
L 103 3319 
L 709 3319 
L 1400 1397 
Q 1534 1031 1641 628 
Q 1738 1016 1872 1384 
L 2581 3319 
L 3144 3319 
L 1881 -56 
Q 1678 -603 1566 -809 
Q 1416 -1088 1222 -1217 
Q 1028 -1347 759 -1347 
Q 597 -1347 397 -1278 
z
" transform="scale(0.015625)"/>
      </defs>
      <use xlink:href="#ArialMT-71"/>
      <use xlink:href="#ArialMT-75" transform="translate(55.615234 0)"/>
      <use xlink:href="#ArialMT-65" transform="translate(111.230469 0)"/>
      <use xlink:href="#ArialMT-72" transform="translate(166.845703 0)"/>
      <use xlink:href="#ArialMT-79" transform="translate(200.146484 0)"/>
      <use xlink:href="#ArialMT-41" transform="translate(250.146484 0)"/>
     </g>
    </g>
    <g id="line2d_17">
     <path d="M 55.953125 227.784688 
L 65.953125 227.784688 
L 75.953125 227.784688 
" style="fill: none; stroke: #ff7f0e; stroke-width: 2; stroke-linecap: round"/>
    </g>
    <g id="text_18">
     <!-- queryB -->
     <g style="fill: #262626" transform="translate(83.953125 231.284688) scale(0.1 -0.1)">
      <use xlink:href="#ArialMT-71"/>
      <use xlink:href="#ArialMT-75" transform="translate(55.615234 0)"/>
      <use xlink:href="#ArialMT-65" transform="translate(111.230469 0)"/>
      <use xlink:href="#ArialMT-72" transform="translate(166.845703 0)"/>
      <use xlink:href="#ArialMT-79" transform="translate(200.146484 0)"/>
      <use xlink:href="#ArialMT-42" transform="translate(250.146484 0)"/>
     </g>
    </g>
   </g>
  </g>
  <g id="axes_2">
   <g id="patch_8">
    <path d="M 460.333125 242.389375 
L 848.731875 242.389375 
L 848.731875 21.789375 
L 460.333125 21.789375 
z
" style="fill: #ffffff"/>
   </g>
   <g id="matplotlib.axis_3">
    <g id="xtick_8">
     <g id="line2d_18">
      <path d="M 460.333125 242.389375 
L 460.333125 21.789375 
" clip-path="url(#pd78c250f10)" style="fill: none; stroke: #cccccc; stroke-opacity: 0.3; stroke-width: 0.8; stroke-linecap: round"/>
     </g>
     <g id="text_19">
      <!-- 0 -->
      <g style="fill: #262626" transform="translate(457.552656 256.547188) scale(0.1 -0.1)">
       <use xlink:href="#ArialMT-30"/>
      </g>
     </g>
    </g>
    <g id="xtick_9">
     <g id="line2d_19">
      <path d="M 522.476925 242.389375 
L 522.476925 21.789375 
" clip-path="url(#pd78c250f10)" style="fill: none; stroke: #cccccc; stroke-opacity: 0.3; stroke-width: 0.8; stroke-linecap: round"/>
     </g>
     <g id="text_20">
      <!-- 20 -->
      <g style="fill: #262626" transform="translate(516.915988 256.547188) scale(0.1 -0.1)">
       <use xlink:href="#ArialMT-32"/>
       <use xlink:href="#ArialMT-30" transform="translate(55.615234 0)"/>
      </g>
     </g>
    </g>
    <g id="xtick_10">
     <g id="line2d_20">
      <path d="M 584.620725 242.389375 
L 584.620725 21.789375 
" clip-path="url(#pd78c250f10)" style="fill: none; stroke: #cccccc; stroke-opacity: 0.3; stroke-width: 0.8; stroke-linecap: round"/>
     </g>
     <g id="text_21">
      <!-- 40 -->
      <g style="fill: #262626" transform="translate(579.059787 256.547188) scale(0.1 -0.1)">
       <use xlink:href="#ArialMT-34"/>
       <use xlink:href="#ArialMT-30" transform="translate(55.615234 0)"/>
      </g>
     </g>
    </g>
    <g id="xtick_11">
     <g id="line2d_21">
      <path d="M 646.764525 242.389375 
L 646.764525 21.789375 
" clip-path="url(#pd78c250f10)" style="fill: none; stroke: #cccccc; stroke-opacity: 0.3; stroke-width: 0.8; stroke-linecap: round"/>
     </g>
     <g id="text_22">
      <!-- 60 -->
      <g style="fill: #262626" transform="translate(641.203588 256.547188) scale(0.1 -0.1)">
       <use xlink:href="#ArialMT-36"/>
       <use xlink:href="#ArialMT-30" transform="translate(55.615234 0)"/>
      </g>
     </g>
    </g>
    <g id="xtick_12">
     <g id="line2d_22">
      <path d="M 708.908325 242.389375 
L 708.908325 21.789375 
" clip-path="url(#pd78c250f10)" style="fill: none; stroke: #cccccc; stroke-opacity: 0.3; stroke-width: 0.8; stroke-linecap: round"/>
     </g>
     <g id="text_23">
      <!-- 80 -->
      <g style="fill: #262626" transform="translate(703.347388 256.547188) scale(0.1 -0.1)">
       <use xlink:href="#ArialMT-38"/>
       <use xlink:href="#ArialMT-30" transform="translate(55.615234 0)"/>
      </g>
     </g>
    </g>
    <g id="xtick_13">
     <g id="line2d_23">
      <path d="M 771.052125 242.389375 
L 771.052125 21.789375 
" clip-path="url(#pd78c250f10)" style="fill: none; stroke: #cccccc; stroke-opacity: 0.3; stroke-width: 0.8; stroke-linecap: round"/>
     </g>
     <g id="text_24">
      <!-- 100 -->
      <g style="fill: #262626" transform="translate(762.710719 256.547188) scale(0.1 -0.1)">
       <use xlink:href="#ArialMT-31"/>
       <use xlink:href="#ArialMT-30" transform="translate(55.615234 0)"/>
       <use xlink:href="#ArialMT-30" transform="translate(111.230469 0)"/>
      </g>
     </g>
    </g>
    <g id="xtick_14">
     <g id="line2d_24">
      <path d="M 833.195925 242.389375 
L 833.195925 21.789375 
" clip-path="url(#pd78c250f10)" style="fill: none; stroke: #cccccc; stroke-opacity: 0.3; stroke-width: 0.8; stroke-linecap: round"/>
     </g>
     <g id="text_25">
      <!-- 120 -->
      <g style="fill: #262626" transform="translate(824.854519 256.547188) scale(0.1 -0.1)">
       <use xlink:href="#ArialMT-31"/>
       <use xlink:href="#ArialMT-32" transform="translate(55.615234 0)"/>
       <use xlink:href="#ArialMT-30" transform="translate(111.230469 0)"/>
      </g>
     </g>
    </g>
    <g id="text_26">
     <!-- Elapsed Time (sec) -->
     <g style="fill: #262626" transform="translate(611.741094 269.814375) scale(0.1 -0.1)">
      <use xlink:href="#ArialMT-45"/>
      <use xlink:href="#ArialMT-6c" transform="translate(66.699219 0)"/>
      <use xlink:href="#ArialMT-61" transform="translate(88.916016 0)"/>
      <use xlink:href="#ArialMT-70" transform="translate(144.53125 0)"/>
      <use xlink:href="#ArialMT-73" transform="translate(200.146484 0)"/>
      <use xlink:href="#ArialMT-65" transform="translate(250.146484 0)"/>
      <use xlink:href="#ArialMT-64" transform="translate(305.761719 0)"/>
      <use xlink:href="#ArialMT-20" transform="translate(361.376953 0)"/>
      <use xlink:href="#ArialMT-54" transform="translate(387.410156 0)"/>
      <use xlink:href="#ArialMT-69" transform="translate(444.744141 0)"/>
      <use xlink:href="#ArialMT-6d" transform="translate(466.960938 0)"/>
      <use xlink:href="#ArialMT-65" transform="translate(550.261719 0)"/>
      <use xlink:href="#ArialMT-20" transform="translate(605.876953 0)"/>
      <use xlink:href="#ArialMT-28" transform="translate(633.660156 0)"/>
      <use xlink:href="#ArialMT-73" transform="translate(666.960938 0)"/>
      <use xlink:href="#ArialMT-65" transform="translate(716.960938 0)"/>
      <use xlink:href="#ArialMT-63" transform="translate(772.576172 0)"/>
      <use xlink:href="#ArialMT-29" transform="translate(822.576172 0)"/>
     </g>
    </g>
   </g>
   <g id="matplotlib.axis_4">
    <g id="ytick_7">
     <g id="line2d_25">
      <path d="M 460.333125 210.563683 
L 848.731875 210.563683 
" clip-path="url(#pd78c250f10)" style="fill: none; stroke: #cccccc; stroke-opacity: 0.3; stroke-width: 0.8; stroke-linecap: round"/>
     </g>
    </g>
    <g id="ytick_8">
     <g id="line2d_26">
      <path d="M 460.333125 174.232985 
L 848.731875 174.232985 
" clip-path="url(#pd78c250f10)" style="fill: none; stroke: #cccccc; stroke-opacity: 0.3; stroke-width: 0.8; stroke-linecap: round"/>
     </g>
    </g>
    <g id="ytick_9">
     <g id="line2d_27">
      <path d="M 460.333125 137.902287 
L 848.731875 137.902287 
" clip-path="url(#pd78c250f10)" style="fill: none; stroke: #cccccc; stroke-opacity: 0.3; stroke-width: 0.8; stroke-linecap: round"/>
     </g>
    </g>
    <g id="ytick_10">
     <g id="line2d_28">
      <path d="M 460.333125 101.571588 
L 848.731875 101.571588 
" clip-path="url(#pd78c250f10)" style="fill: none; stroke: #cccccc; stroke-opacity: 0.3; stroke-width: 0.8; stroke-linecap: round"/>
     </g>
    </g>
    <g id="ytick_11">
     <g id="line2d_29">
      <path d="M 460.333125 65.24089 
L 848.731875 65.24089 
" clip-path="url(#pd78c250f10)" style="fill: none; stroke: #cccccc; stroke-opacity: 0.3; stroke-width: 0.8; stroke-linecap: round"/>
     </g>
    </g>
    <g id="ytick_12">
     <g id="line2d_30">
      <path d="M 460.333125 28.910192 
L 848.731875 28.910192 
" clip-path="url(#pd78c250f10)" style="fill: none; stroke: #cccccc; stroke-opacity: 0.3; stroke-width: 0.8; stroke-linecap: round"/>
     </g>
    </g>
    <g id="text_27">
     <!-- Mean pkg_j per 1s Bin -->
     <g style="fill: #262626" transform="translate(454.228438 181.837031) rotate(-90) scale(0.1 -0.1)">
      <use xlink:href="#ArialMT-4d"/>
      <use xlink:href="#ArialMT-65" transform="translate(83.300781 0)"/>
      <use xlink:href="#ArialMT-61" transform="translate(138.916016 0)"/>
      <use xlink:href="#ArialMT-6e" transform="translate(194.53125 0)"/>
      <use xlink:href="#ArialMT-20" transform="translate(250.146484 0)"/>
      <use xlink:href="#ArialMT-70" transform="translate(277.929688 0)"/>
      <use xlink:href="#ArialMT-6b" transform="translate(333.544922 0)"/>
      <use xlink:href="#ArialMT-67" transform="translate(383.544922 0)"/>
      <use xlink:href="#ArialMT-5f" transform="translate(439.160156 0)"/>
      <use xlink:href="#ArialMT-6a" transform="translate(494.775391 0)"/>
      <use xlink:href="#ArialMT-20" transform="translate(516.992188 0)"/>
      <use xlink:href="#ArialMT-70" transform="translate(544.775391 0)"/>
      <use xlink:href="#ArialMT-65" transform="translate(600.390625 0)"/>
      <use xlink:href="#ArialMT-72" transform="translate(656.005859 0)"/>
      <use xlink:href="#ArialMT-20" transform="translate(689.306641 0)"/>
      <use xlink:href="#ArialMT-31" transform="translate(717.089844 0)"/>
      <use xlink:href="#ArialMT-73" transform="translate(772.705078 0)"/>
      <use xlink:href="#ArialMT-20" transform="translate(822.705078 0)"/>
      <use xlink:href="#ArialMT-42" transform="translate(850.488281 0)"/>
      <use xlink:href="#ArialMT-69" transform="translate(917.1875 0)"/>
      <use xlink:href="#ArialMT-6e" transform="translate(939.404297 0)"/>
     </g>
    </g>
   </g>
   <g id="line2d_31">
    <path d="M 460.333125 84.859467 
L 463.440315 84.132853 
L 466.547505 85.586081 
L 469.654695 92.852221 
L 472.761885 86.312695 
L 475.869075 89.945765 
L 478.976265 92.852221 
L 482.083455 89.219151 
L 485.190645 89.945765 
L 488.297835 86.312695 
L 491.405025 84.859467 
L 494.512215 86.312695 
L 497.619405 86.312695 
L 500.726595 85.586081 
L 503.833785 85.586081 
L 506.940975 84.132853 
L 510.048165 84.859467 
L 513.155355 84.132853 
L 516.262545 84.617263 
L 519.369735 84.859467 
L 522.476925 84.132853 
L 525.584115 85.586081 
L 528.691305 85.586081 
L 531.798495 81.953011 
L 534.905685 82.679625 
L 538.012875 81.953011 
L 541.120065 83.406239 
L 544.227255 81.226397 
L 547.334445 79.046556 
L 550.441635 83.406239 
L 553.548825 80.499783 
L 556.656015 79.046556 
L 559.763205 82.679625 
L 562.870395 81.953011 
L 565.977585 82.679625 
L 569.084775 80.499783 
L 572.191965 79.773169 
L 575.299155 74.121728 
L 578.406345 81.953011 
L 581.513535 84.859467 
L 584.620725 80.499783 
L 587.727915 79.046556 
L 590.835105 78.319942 
L 593.942295 77.593328 
L 597.049485 76.866714 
L 600.156675 73.960258 
L 603.263865 75.413486 
L 606.371055 77.593328 
L 609.478245 76.866714 
L 612.585435 77.593328 
L 615.692625 79.773169 
L 618.799815 77.593328 
L 621.907005 77.593328 
L 625.014195 79.046556 
L 628.121385 79.046556 
L 631.228575 76.1401 
L 634.335765 78.965821 
L 637.442955 76.866714 
L 640.550145 80.499783 
L 643.657335 78.319942 
L 646.764525 75.413486 
L 649.871715 79.046556 
L 652.978905 77.593328 
L 656.086095 79.046556 
L 659.193285 77.593328 
L 662.300475 76.1401 
L 665.407665 77.593328 
L 668.514855 74.686872 
L 671.622045 79.773169 
L 674.729235 76.1401 
L 677.836425 76.1401 
L 680.943615 79.046556 
L 684.050805 74.686872 
L 687.157995 77.593328 
L 690.265185 78.319942 
L 693.372375 75.413486 
L 696.479565 79.046556 
L 699.586755 76.543774 
L 702.693945 78.319942 
L 705.801135 78.319942 
L 708.908325 77.593328 
L 712.015515 78.319942 
L 715.122705 78.319942 
L 718.229895 76.866714 
L 721.337085 75.413486 
L 724.444275 73.960258 
L 727.551465 73.960258 
L 730.658655 76.1401 
L 733.765845 75.413486 
L 736.873035 73.960258 
L 739.980225 74.686872 
L 743.087415 70.327188 
L 746.194605 65.24089 
L 749.301795 70.327188 
L 752.408985 72.50703 
L 755.516175 73.314379 
L 758.623365 75.413486 
L 761.730555 76.1401 
L 764.837745 73.960258 
L 767.944935 75.413486 
L 771.052125 78.319942 
L 774.159315 73.960258 
L 777.266505 74.686872 
L 780.373695 72.50703 
L 783.480885 72.50703 
L 786.588075 73.233644 
L 789.695265 73.233644 
L 792.802455 76.866714 
L 795.909645 72.50703 
L 799.016835 76.1401 
L 802.124025 69.600574 
L 805.231215 76.1401 
L 808.338405 71.053802 
L 811.445595 74.686872 
L 814.552785 73.233644 
L 817.659975 71.699681 
L 820.767165 73.233644 
L 823.874355 72.50703 
L 826.981545 76.1401 
L 830.088735 78.319942 
L 833.195925 75.413486 
L 836.303115 72.50703 
L 839.410305 74.686872 
L 842.517495 73.233644 
L 845.624685 73.233644 
L 848.731875 148.801496 
" clip-path="url(#pd78c250f10)" style="fill: none; stroke: #1f77b4; stroke-width: 2; stroke-linecap: round"/>
   </g>
   <g id="line2d_32">
    <path d="M 460.333125 87.765923 
L 463.440315 77.593328 
L 466.547505 77.593328 
L 469.654695 77.593328 
L 472.761885 79.046556 
L 475.869075 82.679625 
L 478.976265 82.679625 
L 482.083455 76.1401 
L 485.190645 79.773169 
L 488.297835 79.046556 
L 491.405025 78.319942 
L 494.512215 79.046556 
L 497.619405 76.1401 
L 500.726595 78.319942 
L 503.833785 77.593328 
L 506.940975 77.593328 
L 510.048165 75.413486 
L 513.155355 77.593328 
L 516.262545 79.046556 
L 519.369735 78.965821 
L 522.476925 76.866714 
L 525.584115 73.960258 
L 528.691305 78.319942 
L 531.798495 76.866714 
L 534.905685 76.1401 
L 538.012875 79.773169 
L 541.120065 75.413486 
L 544.227255 78.319942 
L 547.334445 76.866714 
L 550.441635 71.780416 
L 553.548825 74.686872 
L 556.656015 75.413486 
L 559.763205 73.960258 
L 562.870395 71.780416 
L 565.977585 71.053802 
L 569.084775 73.233644 
L 572.191965 76.1401 
L 575.299155 74.929076 
L 578.406345 77.593328 
L 581.513535 74.686872 
L 584.620725 74.686872 
L 587.727915 73.233644 
L 590.835105 73.233644 
L 593.942295 75.413486 
L 597.049485 75.413486 
L 600.156675 72.50703 
L 603.263865 75.413486 
L 606.371055 75.413486 
L 609.478245 77.593328 
L 612.585435 74.686872 
L 615.692625 68.87396 
L 618.799815 74.686872 
L 621.907005 68.147346 
L 625.014195 70.327188 
L 628.121385 71.053802 
L 631.228575 68.87396 
L 634.335765 67.420732 
L 637.442955 75.736425 
L 640.550145 75.413486 
L 643.657335 69.600574 
L 646.764525 72.50703 
L 649.871715 70.327188 
L 652.978905 71.780416 
L 656.086095 72.50703 
L 659.193285 69.600574 
L 662.300475 67.420732 
L 665.407665 71.780416 
L 668.514855 71.053802 
L 671.622045 74.686872 
L 674.729235 71.053802 
L 677.836425 70.327188 
L 680.943615 68.87396 
L 684.050805 73.960258 
L 687.157995 73.233644 
L 690.265185 70.084983 
L 693.372375 71.780416 
L 696.479565 71.053802 
L 699.586755 73.960258 
L 702.693945 71.780416 
L 705.801135 74.686872 
L 708.908325 71.780416 
L 712.015515 58.701364 
L 715.122705 70.327188 
L 718.229895 73.233644 
L 721.337085 73.960258 
L 724.444275 72.50703 
L 727.551465 71.053802 
L 730.658655 69.600574 
L 733.765845 73.233644 
L 736.873035 70.327188 
L 739.980225 71.053802 
L 743.087415 71.780416 
L 746.194605 70.892332 
L 749.301795 69.600574 
L 752.408985 68.87396 
L 755.516175 72.50703 
L 758.623365 65.24089 
L 761.730555 71.053802 
L 764.837745 71.053802 
L 767.944935 69.600574 
L 771.052125 70.327188 
L 774.159315 67.420732 
L 777.266505 71.053802 
L 780.373695 71.780416 
L 783.480885 68.147346 
L 786.588075 71.053802 
L 789.695265 69.600574 
L 792.802455 67.420732 
L 795.909645 66.694118 
L 799.016835 63.787662 
L 802.124025 65.967504 
L 805.231215 68.470286 
L 808.338405 67.420732 
L 811.445595 69.600574 
L 814.552785 71.053802 
L 817.659975 71.780416 
L 820.767165 68.87396 
L 823.874355 69.600574 
L 826.981545 71.780416 
L 830.088735 71.780416 
L 833.195925 68.147346 
L 836.303115 70.327188 
L 839.410305 69.600574 
L 842.517495 69.600574 
L 845.624685 70.327188 
L 848.731875 71.46901 
" clip-path="url(#pd78c250f10)" style="fill: none; stroke: #ff7f0e; stroke-width: 2; stroke-linecap: round"/>
   </g>
   <g id="patch_9">
    <path d="M 460.333125 242.389375 
L 460.333125 21.789375 
" style="fill: none; stroke: #cccccc; stroke-width: 0.8; stroke-linejoin: miter; stroke-linecap: square"/>
   </g>
   <g id="patch_10">
    <path d="M 848.731875 242.389375 
L 848.731875 21.789375 
" style="fill: none; stroke: #cccccc; stroke-width: 0.8; stroke-linejoin: miter; stroke-linecap: square"/>
   </g>
   <g id="patch_11">
    <path d="M 460.333125 242.389375 
L 848.731875 242.389375 
" style="fill: none; stroke: #cccccc; stroke-width: 0.8; stroke-linejoin: miter; stroke-linecap: square"/>
   </g>
   <g id="patch_12">
    <path d="M 460.333125 21.789375 
L 848.731875 21.789375 
" style="fill: none; stroke: #cccccc; stroke-width: 0.8; stroke-linejoin: miter; stroke-linecap: square"/>
   </g>
   <g id="text_28">
    <!-- APX1090 — PC1 1 core -->
    <g style="fill: #262626" transform="translate(589.832813 15.789375) scale(0.12 -0.12)">
     <use xlink:href="#ArialMT-41"/>
     <use xlink:href="#ArialMT-50" transform="translate(66.699219 0)"/>
     <use xlink:href="#ArialMT-58" transform="translate(133.398438 0)"/>
     <use xlink:href="#ArialMT-31" transform="translate(200.097656 0)"/>
     <use xlink:href="#ArialMT-30" transform="translate(255.712891 0)"/>
     <use xlink:href="#ArialMT-39" transform="translate(311.328125 0)"/>
     <use xlink:href="#ArialMT-30" transform="translate(366.943359 0)"/>
     <use xlink:href="#ArialMT-20" transform="translate(422.558594 0)"/>
     <use xlink:href="#ArialMT-2014" transform="translate(450.341797 0)"/>
     <use xlink:href="#ArialMT-20" transform="translate(550.341797 0)"/>
     <use xlink:href="#ArialMT-50" transform="translate(578.125 0)"/>
     <use xlink:href="#ArialMT-43" transform="translate(644.824219 0)"/>
     <use xlink:href="#ArialMT-31" transform="translate(717.041016 0)"/>
     <use xlink:href="#ArialMT-20" transform="translate(772.65625 0)"/>
     <use xlink:href="#ArialMT-31" transform="translate(800.439453 0)"/>
     <use xlink:href="#ArialMT-20" transform="translate(856.054688 0)"/>
     <use xlink:href="#ArialMT-63" transform="translate(883.837891 0)"/>
     <use xlink:href="#ArialMT-6f" transform="translate(933.837891 0)"/>
     <use xlink:href="#ArialMT-72" transform="translate(989.453125 0)"/>
     <use xlink:href="#ArialMT-65" transform="translate(1022.753906 0)"/>
    </g>
   </g>
   <g id="legend_2">
    <g id="patch_13">
     <path d="M 778.049062 58.314375 
L 841.731875 58.314375 
Q 843.731875 58.314375 843.731875 56.314375 
L 843.731875 28.789375 
Q 843.731875 26.789375 841.731875 26.789375 
L 778.049062 26.789375 
Q 776.049062 26.789375 776.049062 28.789375 
L 776.049062 56.314375 
Q 776.049062 58.314375 778.049062 58.314375 
z
" style="fill: #ffffff; opacity: 0.8; stroke: #cccccc; stroke-linejoin: miter"/>
    </g>
    <g id="line2d_33">
     <path d="M 780.049062 34.447188 
L 790.049062 34.447188 
L 800.049062 34.447188 
" style="fill: none; stroke: #1f77b4; stroke-width: 2; stroke-linecap: round"/>
    </g>
    <g id="text_29">
     <!-- queryA -->
     <g style="fill: #262626" transform="translate(808.049062 37.947188) scale(0.1 -0.1)">
      <use xlink:href="#ArialMT-71"/>
      <use xlink:href="#ArialMT-75" transform="translate(55.615234 0)"/>
      <use xlink:href="#ArialMT-65" transform="translate(111.230469 0)"/>
      <use xlink:href="#ArialMT-72" transform="translate(166.845703 0)"/>
      <use xlink:href="#ArialMT-79" transform="translate(200.146484 0)"/>
      <use xlink:href="#ArialMT-41" transform="translate(250.146484 0)"/>
     </g>
    </g>
    <g id="line2d_34">
     <path d="M 780.049062 48.709688 
L 790.049062 48.709688 
L 800.049062 48.709688 
" style="fill: none; stroke: #ff7f0e; stroke-width: 2; stroke-linecap: round"/>
    </g>
    <g id="text_30">
     <!-- queryB -->
     <g style="fill: #262626" transform="translate(808.049062 52.209688) scale(0.1 -0.1)">
      <use xlink:href="#ArialMT-71"/>
      <use xlink:href="#ArialMT-75" transform="translate(55.615234 0)"/>
      <use xlink:href="#ArialMT-65" transform="translate(111.230469 0)"/>
      <use xlink:href="#ArialMT-72" transform="translate(166.845703 0)"/>
      <use xlink:href="#ArialMT-79" transform="translate(200.146484 0)"/>
      <use xlink:href="#ArialMT-42" transform="translate(250.146484 0)"/>
     </g>
    </g>
   </g>
  </g>
 </g>
 <defs>
  <clipPath id="p1cf19f0b44">
   <rect x="46.953125" y="21.789375" width="388.39875" height="220.6"/>
  </clipPath>
  <clipPath id="pd78c250f10">
   <rect x="460.333125" y="21.789375" width="388.39875" height="220.6"/>
  </clipPath>
 </defs>
</svg>
